  0
SECTION
  2
HEADER
  9
$ACADVER
  1
AC1009
  9
$EXTMIN
 10
0.0
 20
0.0
 30
0.0
  9
$EXTMAX
 10
1000.0
 20
1000.0
 30
0.0
  9
$FILLMODE
 70
 0
  9
$SPLFRAME
 70
 1
  0
ENDSEC
  0
SECTION
  2
TABLES
  0
TABLE
  2
LAYER
 70
1
  0
LAYER
  2
0
 70
     0
 62
     7
  6
CONTINUOUS
  0
ENDTAB
  0
ENDSEC
  0
SECTION
  2
ENTITIES
  0
LINE
  8
0
 62
     0
 10
285.47
 20
40.8615
 30
0.0
 11
281.969
 21
40.8615
 31
0.0
  0
LINE
  8
0
 62
     0
 10
281.969
 20
40.8615
 30
0.0
 11
281.196
 21
40.7388
 31
0.0
  0
LINE
  8
0
 62
     0
 10
281.196
 20
40.7388
 30
0.0
 11
280.5
 21
40.3849
 31
0.0
  0
LINE
  8
0
 62
     0
 10
280.5
 20
40.3849
 30
0.0
 11
279.947
 21
39.8307
 31
0.0
  0
LINE
  8
0
 62
     0
 10
279.947
 20
39.8307
 30
0.0
 11
279.593
 21
39.1336
 31
0.0
  0
LINE
  8
0
 62
     0
 10
279.593
 20
39.1336
 30
0.0
 11
279.47
 21
38.3618
 31
0.0
  0
LINE
  8
0
 62
     0
 10
279.47
 20
38.3618
 30
0.0
 11
279.593
 21
37.5888
 31
0.0
  0
LINE
  8
0
 62
     0
 10
279.593
 20
37.5888
 30
0.0
 11
279.947
 21
36.8914
 31
0.0
  0
LINE
  8
0
 62
     0
 10
279.947
 20
36.8914
 30
0.0
 11
280.5
 21
36.3375
 31
0.0
  0
LINE
  8
0
 62
     0
 10
280.5
 20
36.3375
 30
0.0
 11
281.196
 21
35.9833
 31
0.0
  0
LINE
  8
0
 62
     0
 10
281.196
 20
35.9833
 30
0.0
 11
281.969
 21
35.8606
 31
0.0
  0
LINE
  8
0
 62
     0
 10
281.969
 20
35.8606
 30
0.0
 11
285.47
 21
35.8606
 31
0.0
  0
LINE
  8
0
 62
     0
 10
285.47
 20
35.8606
 30
0.0
 11
285.47
 21
0.0964629
 31
0.0
  0
LINE
  8
0
 62
     0
 10
285.47
 20
0.0964629
 30
0.0
 11
0.0950846
 21
0.0964629
 31
0.0
  0
LINE
  8
0
 62
     0
 10
0.0950846
 20
0.0964629
 30
0.0
 11
0.0950846
 21
35.8606
 31
0.0
  0
LINE
  8
0
 62
     0
 10
0.0950846
 20
35.8606
 30
0.0
 11
3.5953
 21
35.8606
 31
0.0
  0
LINE
  8
0
 62
     0
 10
3.5953
 20
35.8606
 30
0.0
 11
4.36838
 21
35.9833
 31
0.0
  0
LINE
  8
0
 62
     0
 10
4.36838
 20
35.9833
 30
0.0
 11
5.0643
 21
36.3375
 31
0.0
  0
LINE
  8
0
 62
     0
 10
5.0643
 20
36.3375
 30
0.0
 11
5.61689
 21
36.8914
 31
0.0
  0
LINE
  8
0
 62
     0
 10
5.61689
 20
36.8914
 30
0.0
 11
5.97242
 21
37.5888
 31
0.0
  0
LINE
  8
0
 62
     0
 10
5.97242
 20
37.5888
 30
0.0
 11
6.09505
 21
38.3603
 31
0.0
  0
LINE
  8
0
 62
     0
 10
6.09505
 20
38.3603
 30
0.0
 11
5.97242
 21
39.1336
 31
0.0
  0
LINE
  8
0
 62
     0
 10
5.97242
 20
39.1336
 30
0.0
 11
5.61689
 21
39.8307
 31
0.0
  0
LINE
  8
0
 62
     0
 10
5.61689
 20
39.8307
 30
0.0
 11
5.0643
 21
40.3849
 31
0.0
  0
LINE
  8
0
 62
     0
 10
5.0643
 20
40.3849
 30
0.0
 11
4.36838
 21
40.7388
 31
0.0
  0
LINE
  8
0
 62
     0
 10
4.36838
 20
40.7388
 30
0.0
 11
3.59668
 21
40.8615
 31
0.0
  0
LINE
  8
0
 62
     0
 10
3.59668
 20
40.8615
 30
0.0
 11
0.0950846
 21
40.8615
 31
0.0
  0
LINE
  8
0
 62
     0
 10
0.0950846
 20
40.8615
 30
0.0
 11
0.0950846
 21
95.0239
 31
0.0
  0
LINE
  8
0
 62
     0
 10
0.0950846
 20
95.0239
 30
0.0
 11
285.47
 21
95.0239
 31
0.0
  0
LINE
  8
0
 62
     0
 10
285.47
 20
95.0239
 30
0.0
 11
285.47
 21
40.8615
 31
0.0
  0
LINE
  8
0
 62
     0
 10
4.81348
 20
16.4621
 30
0.0
 11
4.81348
 21
15.4616
 31
0.0
  0
LINE
  8
0
 62
     0
 10
4.81348
 20
15.4616
 30
0.0
 11
4.01285
 21
15.4616
 31
0.0
  0
LINE
  8
0
 62
     0
 10
4.01285
 20
15.4616
 30
0.0
 11
4.01285
 21
12.361
 31
0.0
  0
LINE
  8
0
 62
     0
 10
4.01285
 20
12.361
 30
0.0
 11
4.81348
 21
12.361
 31
0.0
  0
LINE
  8
0
 62
     0
 10
4.81348
 20
12.361
 30
0.0
 11
4.81348
 21
6.56086
 31
0.0
  0
LINE
  8
0
 62
     0
 10
4.81348
 20
6.56086
 30
0.0
 11
4.01285
 21
6.56086
 31
0.0
  0
LINE
  8
0
 62
     0
 10
4.01285
 20
6.56086
 30
0.0
 11
4.01285
 21
3.46163
 31
0.0
  0
LINE
  8
0
 62
     0
 10
4.01285
 20
3.46163
 30
0.0
 11
4.81348
 21
3.46163
 31
0.0
  0
LINE
  8
0
 62
     0
 10
4.81348
 20
3.46163
 30
0.0
 11
4.81348
 21
2.46255
 31
0.0
  0
LINE
  8
0
 62
     0
 10
4.81348
 20
2.46255
 30
0.0
 11
18.813
 21
2.46255
 31
0.0
  0
LINE
  8
0
 62
     0
 10
18.813
 20
2.46255
 30
0.0
 11
18.813
 21
3.46163
 31
0.0
  0
LINE
  8
0
 62
     0
 10
18.813
 20
3.46163
 30
0.0
 11
19.6136
 21
3.46163
 31
0.0
  0
LINE
  8
0
 62
     0
 10
19.6136
 20
3.46163
 30
0.0
 11
19.6136
 21
6.56086
 31
0.0
  0
LINE
  8
0
 62
     0
 10
19.6136
 20
6.56086
 30
0.0
 11
18.813
 21
6.56086
 31
0.0
  0
LINE
  8
0
 62
     0
 10
18.813
 20
6.56086
 30
0.0
 11
18.813
 21
12.361
 31
0.0
  0
LINE
  8
0
 62
     0
 10
18.813
 20
12.361
 30
0.0
 11
19.6136
 21
12.361
 31
0.0
  0
LINE
  8
0
 62
     0
 10
19.6136
 20
12.361
 30
0.0
 11
19.6136
 21
15.4616
 31
0.0
  0
LINE
  8
0
 62
     0
 10
19.6136
 20
15.4616
 30
0.0
 11
18.813
 21
15.4616
 31
0.0
  0
LINE
  8
0
 62
     0
 10
18.813
 20
15.4616
 30
0.0
 11
18.813
 21
16.4621
 31
0.0
  0
LINE
  8
0
 62
     0
 10
18.813
 20
16.4621
 30
0.0
 11
4.81348
 21
16.4621
 31
0.0
  0
LINE
  8
0
 62
     0
 10
28.6246
 20
16.4621
 30
0.0
 11
28.6246
 21
15.4616
 31
0.0
  0
LINE
  8
0
 62
     0
 10
28.6246
 20
15.4616
 30
0.0
 11
27.8253
 21
15.4616
 31
0.0
  0
LINE
  8
0
 62
     0
 10
27.8253
 20
15.4616
 30
0.0
 11
27.8253
 21
12.361
 31
0.0
  0
LINE
  8
0
 62
     0
 10
27.8253
 20
12.361
 30
0.0
 11
28.6246
 21
12.361
 31
0.0
  0
LINE
  8
0
 62
     0
 10
28.6246
 20
12.361
 30
0.0
 11
28.6246
 21
6.56086
 31
0.0
  0
LINE
  8
0
 62
     0
 10
28.6246
 20
6.56086
 30
0.0
 11
27.8253
 21
6.56086
 31
0.0
  0
LINE
  8
0
 62
     0
 10
27.8253
 20
6.56086
 30
0.0
 11
27.8253
 21
3.46163
 31
0.0
  0
LINE
  8
0
 62
     0
 10
27.8253
 20
3.46163
 30
0.0
 11
28.6246
 21
3.46163
 31
0.0
  0
LINE
  8
0
 62
     0
 10
28.6246
 20
3.46163
 30
0.0
 11
28.6246
 21
2.46255
 31
0.0
  0
LINE
  8
0
 62
     0
 10
28.6246
 20
2.46255
 30
0.0
 11
42.6254
 21
2.46255
 31
0.0
  0
LINE
  8
0
 62
     0
 10
42.6254
 20
2.46255
 30
0.0
 11
42.6254
 21
3.46163
 31
0.0
  0
LINE
  8
0
 62
     0
 10
42.6254
 20
3.46163
 30
0.0
 11
43.4262
 21
3.46163
 31
0.0
  0
LINE
  8
0
 62
     0
 10
43.4262
 20
3.46163
 30
0.0
 11
43.4262
 21
6.56086
 31
0.0
  0
LINE
  8
0
 62
     0
 10
43.4262
 20
6.56086
 30
0.0
 11
42.6254
 21
6.56086
 31
0.0
  0
LINE
  8
0
 62
     0
 10
42.6254
 20
6.56086
 30
0.0
 11
42.6254
 21
12.361
 31
0.0
  0
LINE
  8
0
 62
     0
 10
42.6254
 20
12.361
 30
0.0
 11
43.4262
 21
12.361
 31
0.0
  0
LINE
  8
0
 62
     0
 10
43.4262
 20
12.361
 30
0.0
 11
43.4262
 21
15.4616
 31
0.0
  0
LINE
  8
0
 62
     0
 10
43.4262
 20
15.4616
 30
0.0
 11
42.6254
 21
15.4616
 31
0.0
  0
LINE
  8
0
 62
     0
 10
42.6254
 20
15.4616
 30
0.0
 11
42.6254
 21
16.4621
 31
0.0
  0
LINE
  8
0
 62
     0
 10
42.6254
 20
16.4621
 30
0.0
 11
28.6246
 21
16.4621
 31
0.0
  0
LINE
  8
0
 62
     0
 10
52.4387
 20
16.4621
 30
0.0
 11
52.4387
 21
15.4616
 31
0.0
  0
LINE
  8
0
 62
     0
 10
52.4387
 20
15.4616
 30
0.0
 11
51.6378
 21
15.4616
 31
0.0
  0
LINE
  8
0
 62
     0
 10
51.6378
 20
15.4616
 30
0.0
 11
51.6378
 21
12.361
 31
0.0
  0
LINE
  8
0
 62
     0
 10
51.6378
 20
12.361
 30
0.0
 11
52.4387
 21
12.361
 31
0.0
  0
LINE
  8
0
 62
     0
 10
52.4387
 20
12.361
 30
0.0
 11
52.4387
 21
6.56086
 31
0.0
  0
LINE
  8
0
 62
     0
 10
52.4387
 20
6.56086
 30
0.0
 11
51.6378
 21
6.56086
 31
0.0
  0
LINE
  8
0
 62
     0
 10
51.6378
 20
6.56086
 30
0.0
 11
51.6378
 21
3.46163
 31
0.0
  0
LINE
  8
0
 62
     0
 10
51.6378
 20
3.46163
 30
0.0
 11
52.4387
 21
3.46163
 31
0.0
  0
LINE
  8
0
 62
     0
 10
52.4387
 20
3.46163
 30
0.0
 11
52.4387
 21
2.46255
 31
0.0
  0
LINE
  8
0
 62
     0
 10
52.4387
 20
2.46255
 30
0.0
 11
66.4379
 21
2.46255
 31
0.0
  0
LINE
  8
0
 62
     0
 10
66.4379
 20
2.46255
 30
0.0
 11
66.4379
 21
3.46163
 31
0.0
  0
LINE
  8
0
 62
     0
 10
66.4379
 20
3.46163
 30
0.0
 11
67.2387
 21
3.46163
 31
0.0
  0
LINE
  8
0
 62
     0
 10
67.2387
 20
3.46163
 30
0.0
 11
67.2387
 21
6.56086
 31
0.0
  0
LINE
  8
0
 62
     0
 10
67.2387
 20
6.56086
 30
0.0
 11
66.4379
 21
6.56086
 31
0.0
  0
LINE
  8
0
 62
     0
 10
66.4379
 20
6.56086
 30
0.0
 11
66.4379
 21
12.361
 31
0.0
  0
LINE
  8
0
 62
     0
 10
66.4379
 20
12.361
 30
0.0
 11
67.2387
 21
12.361
 31
0.0
  0
LINE
  8
0
 62
     0
 10
67.2387
 20
12.361
 30
0.0
 11
67.2387
 21
15.4616
 31
0.0
  0
LINE
  8
0
 62
     0
 10
67.2387
 20
15.4616
 30
0.0
 11
66.4379
 21
15.4616
 31
0.0
  0
LINE
  8
0
 62
     0
 10
66.4379
 20
15.4616
 30
0.0
 11
66.4379
 21
16.4621
 31
0.0
  0
LINE
  8
0
 62
     0
 10
66.4379
 20
16.4621
 30
0.0
 11
52.4387
 21
16.4621
 31
0.0
  0
LINE
  8
0
 62
     0
 10
79.2261
 20
17.4322
 30
0.0
 11
79.2261
 21
16.2305
 31
0.0
  0
LINE
  8
0
 62
     0
 10
79.2261
 20
16.2305
 30
0.0
 11
77.501
 21
16.2305
 31
0.0
  0
LINE
  8
0
 62
     0
 10
77.501
 20
16.2305
 30
0.0
 11
77.501
 21
9.96184
 31
0.0
  0
LINE
  8
0
 62
     0
 10
77.501
 20
9.96184
 30
0.0
 11
76.677
 21
9.96184
 31
0.0
  0
LINE
  8
0
 62
     0
 10
76.677
 20
9.96184
 30
0.0
 11
76.677
 21
7.16167
 31
0.0
  0
LINE
  8
0
 62
     0
 10
76.677
 20
7.16167
 30
0.0
 11
77.501
 21
7.16167
 31
0.0
  0
LINE
  8
0
 62
     0
 10
77.501
 20
7.16167
 30
0.0
 11
77.501
 21
3.93153
 31
0.0
  0
LINE
  8
0
 62
     0
 10
77.501
 20
3.93153
 30
0.0
 11
84.9768
 21
3.93153
 31
0.0
  0
LINE
  8
0
 62
     0
 10
84.9768
 20
3.93153
 30
0.0
 11
84.9768
 21
3.46163
 31
0.0
  0
LINE
  8
0
 62
     0
 10
84.9768
 20
3.46163
 30
0.0
 11
85.7762
 21
3.46163
 31
0.0
  0
LINE
  8
0
 62
     0
 10
85.7762
 20
3.46163
 30
0.0
 11
85.7762
 21
2.46255
 31
0.0
  0
LINE
  8
0
 62
     0
 10
85.7762
 20
2.46255
 30
0.0
 11
104.538
 21
2.46255
 31
0.0
  0
LINE
  8
0
 62
     0
 10
104.538
 20
2.46255
 30
0.0
 11
104.538
 21
3.46163
 31
0.0
  0
LINE
  8
0
 62
     0
 10
104.538
 20
3.46163
 30
0.0
 11
105.337
 21
3.46163
 31
0.0
  0
LINE
  8
0
 62
     0
 10
105.337
 20
3.46163
 30
0.0
 11
105.337
 21
3.93153
 31
0.0
  0
LINE
  8
0
 62
     0
 10
105.337
 20
3.93153
 30
0.0
 11
112.813
 21
3.93153
 31
0.0
  0
LINE
  8
0
 62
     0
 10
112.813
 20
3.93153
 30
0.0
 11
112.813
 21
7.16167
 31
0.0
  0
LINE
  8
0
 62
     0
 10
112.813
 20
7.16167
 30
0.0
 11
119.114
 21
7.16167
 31
0.0
  0
LINE
  8
0
 62
     0
 10
119.114
 20
7.16167
 30
0.0
 11
119.114
 21
6.56086
 31
0.0
  0
LINE
  8
0
 62
     0
 10
119.114
 20
6.56086
 30
0.0
 11
118.313
 21
6.56086
 31
0.0
  0
LINE
  8
0
 62
     0
 10
118.313
 20
6.56086
 30
0.0
 11
118.313
 21
3.46163
 31
0.0
  0
LINE
  8
0
 62
     0
 10
118.313
 20
3.46163
 30
0.0
 11
119.114
 21
3.46163
 31
0.0
  0
LINE
  8
0
 62
     0
 10
119.114
 20
3.46163
 30
0.0
 11
119.114
 21
2.46255
 31
0.0
  0
LINE
  8
0
 62
     0
 10
119.114
 20
2.46255
 30
0.0
 11
142.638
 21
2.46255
 31
0.0
  0
LINE
  8
0
 62
     0
 10
142.638
 20
2.46255
 30
0.0
 11
142.638
 21
3.46163
 31
0.0
  0
LINE
  8
0
 62
     0
 10
142.638
 20
3.46163
 30
0.0
 11
143.437
 21
3.46163
 31
0.0
  0
LINE
  8
0
 62
     0
 10
143.437
 20
3.46163
 30
0.0
 11
143.437
 21
6.56086
 31
0.0
  0
LINE
  8
0
 62
     0
 10
143.437
 20
6.56086
 30
0.0
 11
142.638
 21
6.56086
 31
0.0
  0
LINE
  8
0
 62
     0
 10
142.638
 20
6.56086
 30
0.0
 11
142.638
 21
7.16167
 31
0.0
  0
LINE
  8
0
 62
     0
 10
142.638
 20
7.16167
 30
0.0
 11
148.937
 21
7.16167
 31
0.0
  0
LINE
  8
0
 62
     0
 10
148.937
 20
7.16167
 30
0.0
 11
148.937
 21
3.93153
 31
0.0
  0
LINE
  8
0
 62
     0
 10
148.937
 20
3.93153
 30
0.0
 11
156.413
 21
3.93153
 31
0.0
  0
LINE
  8
0
 62
     0
 10
156.413
 20
3.93153
 30
0.0
 11
156.413
 21
3.46163
 31
0.0
  0
LINE
  8
0
 62
     0
 10
156.413
 20
3.46163
 30
0.0
 11
157.212
 21
3.46163
 31
0.0
  0
LINE
  8
0
 62
     0
 10
157.212
 20
3.46163
 30
0.0
 11
157.212
 21
2.46255
 31
0.0
  0
LINE
  8
0
 62
     0
 10
157.212
 20
2.46255
 30
0.0
 11
175.977
 21
2.46255
 31
0.0
  0
LINE
  8
0
 62
     0
 10
175.977
 20
2.46255
 30
0.0
 11
175.977
 21
3.46163
 31
0.0
  0
LINE
  8
0
 62
     0
 10
175.977
 20
3.46163
 30
0.0
 11
176.776
 21
3.46163
 31
0.0
  0
LINE
  8
0
 62
     0
 10
176.776
 20
3.46163
 30
0.0
 11
176.776
 21
3.93153
 31
0.0
  0
LINE
  8
0
 62
     0
 10
176.776
 20
3.93153
 30
0.0
 11
184.251
 21
3.93153
 31
0.0
  0
LINE
  8
0
 62
     0
 10
184.251
 20
3.93153
 30
0.0
 11
184.251
 21
7.16167
 31
0.0
  0
LINE
  8
0
 62
     0
 10
184.251
 20
7.16167
 30
0.0
 11
185.075
 21
7.16167
 31
0.0
  0
LINE
  8
0
 62
     0
 10
185.075
 20
7.16167
 30
0.0
 11
185.075
 21
9.96184
 31
0.0
  0
LINE
  8
0
 62
     0
 10
185.075
 20
9.96184
 30
0.0
 11
184.251
 21
9.96184
 31
0.0
  0
LINE
  8
0
 62
     0
 10
184.251
 20
9.96184
 30
0.0
 11
184.251
 21
16.2305
 31
0.0
  0
LINE
  8
0
 62
     0
 10
184.251
 20
16.2305
 30
0.0
 11
182.527
 21
16.2305
 31
0.0
  0
LINE
  8
0
 62
     0
 10
182.527
 20
16.2305
 30
0.0
 11
182.527
 21
17.4322
 31
0.0
  0
LINE
  8
0
 62
     0
 10
182.527
 20
17.4322
 30
0.0
 11
179.226
 21
17.4322
 31
0.0
  0
LINE
  8
0
 62
     0
 10
179.226
 20
17.4322
 30
0.0
 11
179.226
 21
16.2305
 31
0.0
  0
LINE
  8
0
 62
     0
 10
179.226
 20
16.2305
 30
0.0
 11
177.763
 21
16.2305
 31
0.0
  0
LINE
  8
0
 62
     0
 10
177.763
 20
16.2305
 30
0.0
 11
177.763
 21
17.4322
 31
0.0
  0
LINE
  8
0
 62
     0
 10
177.763
 20
17.4322
 30
0.0
 11
174.462
 21
17.4322
 31
0.0
  0
LINE
  8
0
 62
     0
 10
174.462
 20
17.4322
 30
0.0
 11
174.462
 21
16.4621
 31
0.0
  0
LINE
  8
0
 62
     0
 10
174.462
 20
16.4621
 30
0.0
 11
158.727
 21
16.4621
 31
0.0
  0
LINE
  8
0
 62
     0
 10
158.727
 20
16.4621
 30
0.0
 11
158.727
 21
17.4322
 31
0.0
  0
LINE
  8
0
 62
     0
 10
158.727
 20
17.4322
 30
0.0
 11
155.425
 21
17.4322
 31
0.0
  0
LINE
  8
0
 62
     0
 10
155.425
 20
17.4322
 30
0.0
 11
155.425
 21
16.2305
 31
0.0
  0
LINE
  8
0
 62
     0
 10
155.425
 20
16.2305
 30
0.0
 11
153.963
 21
16.2305
 31
0.0
  0
LINE
  8
0
 62
     0
 10
153.963
 20
16.2305
 30
0.0
 11
153.963
 21
17.4322
 31
0.0
  0
LINE
  8
0
 62
     0
 10
153.963
 20
17.4322
 30
0.0
 11
150.664
 21
17.4322
 31
0.0
  0
LINE
  8
0
 62
     0
 10
150.664
 20
17.4322
 30
0.0
 11
150.664
 21
16.2305
 31
0.0
  0
LINE
  8
0
 62
     0
 10
150.664
 20
16.2305
 30
0.0
 11
148.937
 21
16.2305
 31
0.0
  0
LINE
  8
0
 62
     0
 10
148.937
 20
16.2305
 30
0.0
 11
148.937
 21
11.7615
 31
0.0
  0
LINE
  8
0
 62
     0
 10
148.937
 20
11.7615
 30
0.0
 11
142.638
 21
11.7615
 31
0.0
  0
LINE
  8
0
 62
     0
 10
142.638
 20
11.7615
 30
0.0
 11
142.638
 21
12.361
 31
0.0
  0
LINE
  8
0
 62
     0
 10
142.638
 20
12.361
 30
0.0
 11
143.437
 21
12.361
 31
0.0
  0
LINE
  8
0
 62
     0
 10
143.437
 20
12.361
 30
0.0
 11
143.437
 21
15.4616
 31
0.0
  0
LINE
  8
0
 62
     0
 10
143.437
 20
15.4616
 30
0.0
 11
142.638
 21
15.4616
 31
0.0
  0
LINE
  8
0
 62
     0
 10
142.638
 20
15.4616
 30
0.0
 11
142.638
 21
16.4621
 31
0.0
  0
LINE
  8
0
 62
     0
 10
142.638
 20
16.4621
 30
0.0
 11
119.114
 21
16.4621
 31
0.0
  0
LINE
  8
0
 62
     0
 10
119.114
 20
16.4621
 30
0.0
 11
119.114
 21
15.4616
 31
0.0
  0
LINE
  8
0
 62
     0
 10
119.114
 20
15.4616
 30
0.0
 11
118.313
 21
15.4616
 31
0.0
  0
LINE
  8
0
 62
     0
 10
118.313
 20
15.4616
 30
0.0
 11
118.313
 21
12.361
 31
0.0
  0
LINE
  8
0
 62
     0
 10
118.313
 20
12.361
 30
0.0
 11
119.114
 21
12.361
 31
0.0
  0
LINE
  8
0
 62
     0
 10
119.114
 20
12.361
 30
0.0
 11
119.114
 21
11.7615
 31
0.0
  0
LINE
  8
0
 62
     0
 10
119.114
 20
11.7615
 30
0.0
 11
112.813
 21
11.7615
 31
0.0
  0
LINE
  8
0
 62
     0
 10
112.813
 20
11.7615
 30
0.0
 11
112.813
 21
16.2305
 31
0.0
  0
LINE
  8
0
 62
     0
 10
112.813
 20
16.2305
 30
0.0
 11
111.088
 21
16.2305
 31
0.0
  0
LINE
  8
0
 62
     0
 10
111.088
 20
16.2305
 30
0.0
 11
111.088
 21
17.4322
 31
0.0
  0
LINE
  8
0
 62
     0
 10
111.088
 20
17.4322
 30
0.0
 11
107.789
 21
17.4322
 31
0.0
  0
LINE
  8
0
 62
     0
 10
107.789
 20
17.4322
 30
0.0
 11
107.789
 21
16.2305
 31
0.0
  0
LINE
  8
0
 62
     0
 10
107.789
 20
16.2305
 30
0.0
 11
106.325
 21
16.2305
 31
0.0
  0
LINE
  8
0
 62
     0
 10
106.325
 20
16.2305
 30
0.0
 11
106.325
 21
17.4322
 31
0.0
  0
LINE
  8
0
 62
     0
 10
106.325
 20
17.4322
 30
0.0
 11
103.026
 21
17.4322
 31
0.0
  0
LINE
  8
0
 62
     0
 10
103.026
 20
17.4322
 30
0.0
 11
103.026
 21
16.4621
 31
0.0
  0
LINE
  8
0
 62
     0
 10
103.026
 20
16.4621
 30
0.0
 11
87.2878
 21
16.4621
 31
0.0
  0
LINE
  8
0
 62
     0
 10
87.2878
 20
16.4621
 30
0.0
 11
87.2878
 21
17.4322
 31
0.0
  0
LINE
  8
0
 62
     0
 10
87.2878
 20
17.4322
 30
0.0
 11
83.9886
 21
17.4322
 31
0.0
  0
LINE
  8
0
 62
     0
 10
83.9886
 20
17.4322
 30
0.0
 11
83.9886
 21
16.2305
 31
0.0
  0
LINE
  8
0
 62
     0
 10
83.9886
 20
16.2305
 30
0.0
 11
82.5267
 21
16.2305
 31
0.0
  0
LINE
  8
0
 62
     0
 10
82.5267
 20
16.2305
 30
0.0
 11
82.5267
 21
17.4322
 31
0.0
  0
LINE
  8
0
 62
     0
 10
82.5267
 20
17.4322
 30
0.0
 11
79.2261
 21
17.4322
 31
0.0
  0
LINE
  8
0
 62
     0
 10
192.931
 20
16.4621
 30
0.0
 11
192.931
 21
15.4616
 31
0.0
  0
LINE
  8
0
 62
     0
 10
192.931
 20
15.4616
 30
0.0
 11
192.132
 21
15.4616
 31
0.0
  0
LINE
  8
0
 62
     0
 10
192.132
 20
15.4616
 30
0.0
 11
192.132
 21
12.361
 31
0.0
  0
LINE
  8
0
 62
     0
 10
192.132
 20
12.361
 30
0.0
 11
192.931
 21
12.361
 31
0.0
  0
LINE
  8
0
 62
     0
 10
192.931
 20
12.361
 30
0.0
 11
192.931
 21
10.8824
 31
0.0
  0
LINE
  8
0
 62
     0
 10
192.931
 20
10.8824
 30
0.0
 11
192.805
 21
11.1304
 31
0.0
  0
LINE
  8
0
 62
     0
 10
192.805
 20
11.1304
 30
0.0
 11
192.253
 21
11.683
 31
0.0
  0
LINE
  8
0
 62
     0
 10
192.253
 20
11.683
 30
0.0
 11
191.556
 21
12.0385
 31
0.0
  0
LINE
  8
0
 62
     0
 10
191.556
 20
12.0385
 30
0.0
 11
190.783
 21
12.1612
 31
0.0
  0
LINE
  8
0
 62
     0
 10
190.783
 20
12.1612
 30
0.0
 11
190.009
 21
12.0385
 31
0.0
  0
LINE
  8
0
 62
     0
 10
190.009
 20
12.0385
 30
0.0
 11
189.312
 21
11.683
 31
0.0
  0
LINE
  8
0
 62
     0
 10
189.312
 20
11.683
 30
0.0
 11
188.759
 21
11.1304
 31
0.0
  0
LINE
  8
0
 62
     0
 10
188.759
 20
11.1304
 30
0.0
 11
188.406
 21
10.4331
 31
0.0
  0
LINE
  8
0
 62
     0
 10
188.406
 20
10.4331
 30
0.0
 11
188.283
 21
9.66142
 31
0.0
  0
LINE
  8
0
 62
     0
 10
188.283
 20
9.66142
 30
0.0
 11
188.406
 21
8.88834
 31
0.0
  0
LINE
  8
0
 62
     0
 10
188.406
 20
8.88834
 30
0.0
 11
188.759
 21
8.19245
 31
0.0
  0
LINE
  8
0
 62
     0
 10
188.759
 20
8.19245
 30
0.0
 11
189.312
 21
7.63845
 31
0.0
  0
LINE
  8
0
 62
     0
 10
189.312
 20
7.63845
 30
0.0
 11
190.009
 21
7.2843
 31
0.0
  0
LINE
  8
0
 62
     0
 10
190.009
 20
7.2843
 30
0.0
 11
190.783
 21
7.16167
 31
0.0
  0
LINE
  8
0
 62
     0
 10
190.783
 20
7.16167
 30
0.0
 11
191.556
 21
7.2843
 31
0.0
  0
LINE
  8
0
 62
     0
 10
191.556
 20
7.2843
 30
0.0
 11
192.253
 21
7.63845
 31
0.0
  0
LINE
  8
0
 62
     0
 10
192.253
 20
7.63845
 30
0.0
 11
192.805
 21
8.19245
 31
0.0
  0
LINE
  8
0
 62
     0
 10
192.805
 20
8.19245
 30
0.0
 11
192.931
 21
8.44049
 31
0.0
  0
LINE
  8
0
 62
     0
 10
192.931
 20
8.44049
 30
0.0
 11
192.931
 21
6.56086
 31
0.0
  0
LINE
  8
0
 62
     0
 10
192.931
 20
6.56086
 30
0.0
 11
192.132
 21
6.56086
 31
0.0
  0
LINE
  8
0
 62
     0
 10
192.132
 20
6.56086
 30
0.0
 11
192.132
 21
3.46163
 31
0.0
  0
LINE
  8
0
 62
     0
 10
192.132
 20
3.46163
 30
0.0
 11
192.931
 21
3.46163
 31
0.0
  0
LINE
  8
0
 62
     0
 10
192.931
 20
3.46163
 30
0.0
 11
192.931
 21
2.46255
 31
0.0
  0
LINE
  8
0
 62
     0
 10
192.931
 20
2.46255
 30
0.0
 11
209.312
 21
2.46255
 31
0.0
  0
LINE
  8
0
 62
     0
 10
209.312
 20
2.46255
 30
0.0
 11
209.312
 21
3.46163
 31
0.0
  0
LINE
  8
0
 62
     0
 10
209.312
 20
3.46163
 30
0.0
 11
210.114
 21
3.46163
 31
0.0
  0
LINE
  8
0
 62
     0
 10
210.114
 20
3.46163
 30
0.0
 11
210.114
 21
6.56086
 31
0.0
  0
LINE
  8
0
 62
     0
 10
210.114
 20
6.56086
 30
0.0
 11
209.312
 21
6.56086
 31
0.0
  0
LINE
  8
0
 62
     0
 10
209.312
 20
6.56086
 30
0.0
 11
209.312
 21
12.361
 31
0.0
  0
LINE
  8
0
 62
     0
 10
209.312
 20
12.361
 30
0.0
 11
210.114
 21
12.361
 31
0.0
  0
LINE
  8
0
 62
     0
 10
210.114
 20
12.361
 30
0.0
 11
210.114
 21
15.4616
 31
0.0
  0
LINE
  8
0
 62
     0
 10
210.114
 20
15.4616
 30
0.0
 11
209.312
 21
15.4616
 31
0.0
  0
LINE
  8
0
 62
     0
 10
209.312
 20
15.4616
 30
0.0
 11
209.312
 21
16.4621
 31
0.0
  0
LINE
  8
0
 62
     0
 10
209.312
 20
16.4621
 30
0.0
 11
192.931
 21
16.4621
 31
0.0
  0
LINE
  8
0
 62
     0
 10
211.982
 20
16.4621
 30
0.0
 11
211.982
 21
15.4616
 31
0.0
  0
LINE
  8
0
 62
     0
 10
211.982
 20
15.4616
 30
0.0
 11
211.182
 21
15.4616
 31
0.0
  0
LINE
  8
0
 62
     0
 10
211.182
 20
15.4616
 30
0.0
 11
211.182
 21
12.361
 31
0.0
  0
LINE
  8
0
 62
     0
 10
211.182
 20
12.361
 30
0.0
 11
211.982
 21
12.361
 31
0.0
  0
LINE
  8
0
 62
     0
 10
211.982
 20
12.361
 30
0.0
 11
211.982
 21
6.56086
 31
0.0
  0
LINE
  8
0
 62
     0
 10
211.982
 20
6.56086
 30
0.0
 11
211.182
 21
6.56086
 31
0.0
  0
LINE
  8
0
 62
     0
 10
211.182
 20
6.56086
 30
0.0
 11
211.182
 21
3.46163
 31
0.0
  0
LINE
  8
0
 62
     0
 10
211.182
 20
3.46163
 30
0.0
 11
211.982
 21
3.46163
 31
0.0
  0
LINE
  8
0
 62
     0
 10
211.982
 20
3.46163
 30
0.0
 11
211.982
 21
2.46255
 31
0.0
  0
LINE
  8
0
 62
     0
 10
211.982
 20
2.46255
 30
0.0
 11
264.082
 21
2.46255
 31
0.0
  0
LINE
  8
0
 62
     0
 10
264.082
 20
2.46255
 30
0.0
 11
264.082
 21
3.46163
 31
0.0
  0
LINE
  8
0
 62
     0
 10
264.082
 20
3.46163
 30
0.0
 11
264.881
 21
3.46163
 31
0.0
  0
LINE
  8
0
 62
     0
 10
264.881
 20
3.46163
 30
0.0
 11
264.881
 21
6.56086
 31
0.0
  0
LINE
  8
0
 62
     0
 10
264.881
 20
6.56086
 30
0.0
 11
264.082
 21
6.56086
 31
0.0
  0
LINE
  8
0
 62
     0
 10
264.082
 20
6.56086
 30
0.0
 11
264.082
 21
12.361
 31
0.0
  0
LINE
  8
0
 62
     0
 10
264.082
 20
12.361
 30
0.0
 11
264.881
 21
12.361
 31
0.0
  0
LINE
  8
0
 62
     0
 10
264.881
 20
12.361
 30
0.0
 11
264.881
 21
15.4616
 31
0.0
  0
LINE
  8
0
 62
     0
 10
264.881
 20
15.4616
 30
0.0
 11
264.082
 21
15.4616
 31
0.0
  0
LINE
  8
0
 62
     0
 10
264.082
 20
15.4616
 30
0.0
 11
264.082
 21
16.4621
 31
0.0
  0
LINE
  8
0
 62
     0
 10
264.082
 20
16.4621
 30
0.0
 11
211.982
 21
16.4621
 31
0.0
  0
LINE
  8
0
 62
     0
 10
266.75
 20
16.4621
 30
0.0
 11
266.75
 21
15.4616
 31
0.0
  0
LINE
  8
0
 62
     0
 10
266.75
 20
15.4616
 30
0.0
 11
265.95
 21
15.4616
 31
0.0
  0
LINE
  8
0
 62
     0
 10
265.95
 20
15.4616
 30
0.0
 11
265.95
 21
12.361
 31
0.0
  0
LINE
  8
0
 62
     0
 10
265.95
 20
12.361
 30
0.0
 11
266.75
 21
12.361
 31
0.0
  0
LINE
  8
0
 62
     0
 10
266.75
 20
12.361
 30
0.0
 11
266.75
 21
6.56086
 31
0.0
  0
LINE
  8
0
 62
     0
 10
266.75
 20
6.56086
 30
0.0
 11
265.95
 21
6.56086
 31
0.0
  0
LINE
  8
0
 62
     0
 10
265.95
 20
6.56086
 30
0.0
 11
265.95
 21
3.46163
 31
0.0
  0
LINE
  8
0
 62
     0
 10
265.95
 20
3.46163
 30
0.0
 11
266.75
 21
3.46163
 31
0.0
  0
LINE
  8
0
 62
     0
 10
266.75
 20
3.46163
 30
0.0
 11
266.75
 21
2.46255
 31
0.0
  0
LINE
  8
0
 62
     0
 10
266.75
 20
2.46255
 30
0.0
 11
283.132
 21
2.46255
 31
0.0
  0
LINE
  8
0
 62
     0
 10
283.132
 20
2.46255
 30
0.0
 11
283.132
 21
3.46163
 31
0.0
  0
LINE
  8
0
 62
     0
 10
283.132
 20
3.46163
 30
0.0
 11
283.931
 21
3.46163
 31
0.0
  0
LINE
  8
0
 62
     0
 10
283.931
 20
3.46163
 30
0.0
 11
283.931
 21
6.56086
 31
0.0
  0
LINE
  8
0
 62
     0
 10
283.931
 20
6.56086
 30
0.0
 11
283.132
 21
6.56086
 31
0.0
  0
LINE
  8
0
 62
     0
 10
283.132
 20
6.56086
 30
0.0
 11
283.132
 21
12.361
 31
0.0
  0
LINE
  8
0
 62
     0
 10
283.132
 20
12.361
 30
0.0
 11
283.931
 21
12.361
 31
0.0
  0
LINE
  8
0
 62
     0
 10
283.931
 20
12.361
 30
0.0
 11
283.931
 21
15.4616
 31
0.0
  0
LINE
  8
0
 62
     0
 10
283.931
 20
15.4616
 30
0.0
 11
283.132
 21
15.4616
 31
0.0
  0
LINE
  8
0
 62
     0
 10
283.132
 20
15.4616
 30
0.0
 11
283.132
 21
16.4621
 31
0.0
  0
LINE
  8
0
 62
     0
 10
283.132
 20
16.4621
 30
0.0
 11
266.75
 21
16.4621
 31
0.0
  0
LINE
  8
0
 62
     0
 10
4.81348
 20
35.512
 30
0.0
 11
4.81348
 21
34.5116
 31
0.0
  0
LINE
  8
0
 62
     0
 10
4.81348
 20
34.5116
 30
0.0
 11
4.01285
 21
34.5116
 31
0.0
  0
LINE
  8
0
 62
     0
 10
4.01285
 20
34.5116
 30
0.0
 11
4.01285
 21
31.4124
 31
0.0
  0
LINE
  8
0
 62
     0
 10
4.01285
 20
31.4124
 30
0.0
 11
4.81348
 21
31.4124
 31
0.0
  0
LINE
  8
0
 62
     0
 10
4.81348
 20
31.4124
 30
0.0
 11
4.81348
 21
25.6109
 31
0.0
  0
LINE
  8
0
 62
     0
 10
4.81348
 20
25.6109
 30
0.0
 11
4.01285
 21
25.6109
 31
0.0
  0
LINE
  8
0
 62
     0
 10
4.01285
 20
25.6109
 30
0.0
 11
4.01285
 21
22.5116
 31
0.0
  0
LINE
  8
0
 62
     0
 10
4.01285
 20
22.5116
 30
0.0
 11
4.81348
 21
22.5116
 31
0.0
  0
LINE
  8
0
 62
     0
 10
4.81348
 20
22.5116
 30
0.0
 11
4.81348
 21
21.5126
 31
0.0
  0
LINE
  8
0
 62
     0
 10
4.81348
 20
21.5126
 30
0.0
 11
7.78866
 21
21.5126
 31
0.0
  0
LINE
  8
0
 62
     0
 10
7.78866
 20
21.5126
 30
0.0
 11
7.78866
 21
20.5424
 31
0.0
  0
LINE
  8
0
 62
     0
 10
7.78866
 20
20.5424
 30
0.0
 11
11.0877
 21
20.5424
 31
0.0
  0
LINE
  8
0
 62
     0
 10
11.0877
 20
20.5424
 30
0.0
 11
11.0877
 21
21.5126
 31
0.0
  0
LINE
  8
0
 62
     0
 10
11.0877
 20
21.5126
 30
0.0
 11
31.5874
 21
21.5126
 31
0.0
  0
LINE
  8
0
 62
     0
 10
31.5874
 20
21.5126
 30
0.0
 11
31.5874
 21
20.5424
 31
0.0
  0
LINE
  8
0
 62
     0
 10
31.5874
 20
20.5424
 30
0.0
 11
34.8878
 21
20.5424
 31
0.0
  0
LINE
  8
0
 62
     0
 10
34.8878
 20
20.5424
 30
0.0
 11
34.8878
 21
21.5126
 31
0.0
  0
LINE
  8
0
 62
     0
 10
34.8878
 20
21.5126
 30
0.0
 11
40.2442
 21
21.5126
 31
0.0
  0
LINE
  8
0
 62
     0
 10
40.2442
 20
21.5126
 30
0.0
 11
40.2442
 21
22.5116
 31
0.0
  0
LINE
  8
0
 62
     0
 10
40.2442
 20
22.5116
 30
0.0
 11
41.045
 21
22.5116
 31
0.0
  0
LINE
  8
0
 62
     0
 10
41.045
 20
22.5116
 30
0.0
 11
41.045
 21
25.6109
 31
0.0
  0
LINE
  8
0
 62
     0
 10
41.045
 20
25.6109
 30
0.0
 11
40.2442
 21
25.6109
 31
0.0
  0
LINE
  8
0
 62
     0
 10
40.2442
 20
25.6109
 30
0.0
 11
40.2442
 21
31.4124
 31
0.0
  0
LINE
  8
0
 62
     0
 10
40.2442
 20
31.4124
 30
0.0
 11
41.045
 21
31.4124
 31
0.0
  0
LINE
  8
0
 62
     0
 10
41.045
 20
31.4124
 30
0.0
 11
41.045
 21
34.5116
 31
0.0
  0
LINE
  8
0
 62
     0
 10
41.045
 20
34.5116
 30
0.0
 11
40.2442
 21
34.5116
 31
0.0
  0
LINE
  8
0
 62
     0
 10
40.2442
 20
34.5116
 30
0.0
 11
40.2442
 21
35.512
 31
0.0
  0
LINE
  8
0
 62
     0
 10
40.2442
 20
35.512
 30
0.0
 11
4.81348
 21
35.512
 31
0.0
  0
LINE
  8
0
 62
     0
 10
242.937
 20
35.512
 30
0.0
 11
242.937
 21
34.5116
 31
0.0
  0
LINE
  8
0
 62
     0
 10
242.937
 20
34.5116
 30
0.0
 11
242.138
 21
34.5116
 31
0.0
  0
LINE
  8
0
 62
     0
 10
242.138
 20
34.5116
 30
0.0
 11
242.138
 21
31.4124
 31
0.0
  0
LINE
  8
0
 62
     0
 10
242.138
 20
31.4124
 30
0.0
 11
242.937
 21
31.4124
 31
0.0
  0
LINE
  8
0
 62
     0
 10
242.937
 20
31.4124
 30
0.0
 11
242.937
 21
25.6109
 31
0.0
  0
LINE
  8
0
 62
     0
 10
242.937
 20
25.6109
 30
0.0
 11
242.138
 21
25.6109
 31
0.0
  0
LINE
  8
0
 62
     0
 10
242.138
 20
25.6109
 30
0.0
 11
242.138
 21
22.5116
 31
0.0
  0
LINE
  8
0
 62
     0
 10
242.138
 20
22.5116
 30
0.0
 11
242.937
 21
22.5116
 31
0.0
  0
LINE
  8
0
 62
     0
 10
242.937
 20
22.5116
 30
0.0
 11
242.937
 21
21.5126
 31
0.0
  0
LINE
  8
0
 62
     0
 10
242.937
 20
21.5126
 30
0.0
 11
245.914
 21
21.5126
 31
0.0
  0
LINE
  8
0
 62
     0
 10
245.914
 20
21.5126
 30
0.0
 11
245.914
 21
20.5424
 31
0.0
  0
LINE
  8
0
 62
     0
 10
245.914
 20
20.5424
 30
0.0
 11
249.213
 21
20.5424
 31
0.0
  0
LINE
  8
0
 62
     0
 10
249.213
 20
20.5424
 30
0.0
 11
249.213
 21
21.5126
 31
0.0
  0
LINE
  8
0
 62
     0
 10
249.213
 20
21.5126
 30
0.0
 11
266.462
 21
21.5126
 31
0.0
  0
LINE
  8
0
 62
     0
 10
266.462
 20
21.5126
 30
0.0
 11
266.462
 21
22.5116
 31
0.0
  0
LINE
  8
0
 62
     0
 10
266.462
 20
22.5116
 30
0.0
 11
267.262
 21
22.5116
 31
0.0
  0
LINE
  8
0
 62
     0
 10
267.262
 20
22.5116
 30
0.0
 11
267.262
 21
25.6109
 31
0.0
  0
LINE
  8
0
 62
     0
 10
267.262
 20
25.6109
 30
0.0
 11
266.462
 21
25.6109
 31
0.0
  0
LINE
  8
0
 62
     0
 10
266.462
 20
25.6109
 30
0.0
 11
266.462
 21
26.2117
 31
0.0
  0
LINE
  8
0
 62
     0
 10
266.462
 20
26.2117
 30
0.0
 11
267.987
 21
26.2117
 31
0.0
  0
LINE
  8
0
 62
     0
 10
267.987
 20
26.2117
 30
0.0
 11
267.987
 21
21.7427
 31
0.0
  0
LINE
  8
0
 62
     0
 10
267.987
 20
21.7427
 30
0.0
 11
269.131
 21
21.7427
 31
0.0
  0
LINE
  8
0
 62
     0
 10
269.131
 20
21.7427
 30
0.0
 11
269.131
 21
21.5126
 31
0.0
  0
LINE
  8
0
 62
     0
 10
269.131
 20
21.5126
 30
0.0
 11
269.712
 21
21.5126
 31
0.0
  0
LINE
  8
0
 62
     0
 10
269.712
 20
21.5126
 30
0.0
 11
269.712
 21
20.5424
 31
0.0
  0
LINE
  8
0
 62
     0
 10
269.712
 20
20.5424
 30
0.0
 11
273.013
 21
20.5424
 31
0.0
  0
LINE
  8
0
 62
     0
 10
273.013
 20
20.5424
 30
0.0
 11
273.013
 21
21.5126
 31
0.0
  0
LINE
  8
0
 62
     0
 10
273.013
 20
21.5126
 30
0.0
 11
283.132
 21
21.5126
 31
0.0
  0
LINE
  8
0
 62
     0
 10
283.132
 20
21.5126
 30
0.0
 11
283.132
 21
22.5116
 31
0.0
  0
LINE
  8
0
 62
     0
 10
283.132
 20
22.5116
 30
0.0
 11
283.931
 21
22.5116
 31
0.0
  0
LINE
  8
0
 62
     0
 10
283.931
 20
22.5116
 30
0.0
 11
283.931
 21
25.6109
 31
0.0
  0
LINE
  8
0
 62
     0
 10
283.931
 20
25.6109
 30
0.0
 11
283.132
 21
25.6109
 31
0.0
  0
LINE
  8
0
 62
     0
 10
283.132
 20
25.6109
 30
0.0
 11
283.132
 21
31.4124
 31
0.0
  0
LINE
  8
0
 62
     0
 10
283.132
 20
31.4124
 30
0.0
 11
283.931
 21
31.4124
 31
0.0
  0
LINE
  8
0
 62
     0
 10
283.931
 20
31.4124
 30
0.0
 11
283.931
 21
34.5116
 31
0.0
  0
LINE
  8
0
 62
     0
 10
283.931
 20
34.5116
 30
0.0
 11
283.132
 21
34.5116
 31
0.0
  0
LINE
  8
0
 62
     0
 10
283.132
 20
34.5116
 30
0.0
 11
283.132
 21
35.512
 31
0.0
  0
LINE
  8
0
 62
     0
 10
283.132
 20
35.512
 30
0.0
 11
269.131
 21
35.512
 31
0.0
  0
LINE
  8
0
 62
     0
 10
269.131
 20
35.512
 30
0.0
 11
269.131
 21
34.5116
 31
0.0
  0
LINE
  8
0
 62
     0
 10
269.131
 20
34.5116
 30
0.0
 11
268.332
 21
34.5116
 31
0.0
  0
LINE
  8
0
 62
     0
 10
268.332
 20
34.5116
 30
0.0
 11
268.332
 21
34.0417
 31
0.0
  0
LINE
  8
0
 62
     0
 10
268.332
 20
34.0417
 30
0.0
 11
267.987
 21
34.0417
 31
0.0
  0
LINE
  8
0
 62
     0
 10
267.987
 20
34.0417
 30
0.0
 11
267.987
 21
30.8115
 31
0.0
  0
LINE
  8
0
 62
     0
 10
267.987
 20
30.8115
 30
0.0
 11
266.462
 21
30.8115
 31
0.0
  0
LINE
  8
0
 62
     0
 10
266.462
 20
30.8115
 30
0.0
 11
266.462
 21
31.4124
 31
0.0
  0
LINE
  8
0
 62
     0
 10
266.462
 20
31.4124
 30
0.0
 11
267.262
 21
31.4124
 31
0.0
  0
LINE
  8
0
 62
     0
 10
267.262
 20
31.4124
 30
0.0
 11
267.262
 21
34.5116
 31
0.0
  0
LINE
  8
0
 62
     0
 10
267.262
 20
34.5116
 30
0.0
 11
266.462
 21
34.5116
 31
0.0
  0
LINE
  8
0
 62
     0
 10
266.462
 20
34.5116
 30
0.0
 11
266.462
 21
35.512
 31
0.0
  0
LINE
  8
0
 62
     0
 10
266.462
 20
35.512
 30
0.0
 11
242.937
 21
35.512
 31
0.0
  0
LINE
  8
0
 62
     0
 10
45.2949
 20
35.512
 30
0.0
 11
45.2949
 21
34.5116
 31
0.0
  0
LINE
  8
0
 62
     0
 10
45.2949
 20
34.5116
 30
0.0
 11
44.4941
 21
34.5116
 31
0.0
  0
LINE
  8
0
 62
     0
 10
44.4941
 20
34.5116
 30
0.0
 11
44.4941
 21
31.4124
 31
0.0
  0
LINE
  8
0
 62
     0
 10
44.4941
 20
31.4124
 30
0.0
 11
45.2949
 21
31.4124
 31
0.0
  0
LINE
  8
0
 62
     0
 10
45.2949
 20
31.4124
 30
0.0
 11
45.2949
 21
25.6109
 31
0.0
  0
LINE
  8
0
 62
     0
 10
45.2949
 20
25.6109
 30
0.0
 11
44.4941
 21
25.6109
 31
0.0
  0
LINE
  8
0
 62
     0
 10
44.4941
 20
25.6109
 30
0.0
 11
44.4941
 21
22.5116
 31
0.0
  0
LINE
  8
0
 62
     0
 10
44.4941
 20
22.5116
 30
0.0
 11
45.2949
 21
22.5116
 31
0.0
  0
LINE
  8
0
 62
     0
 10
45.2949
 20
22.5116
 30
0.0
 11
45.2949
 21
21.5126
 31
0.0
  0
LINE
  8
0
 62
     0
 10
45.2949
 20
21.5126
 30
0.0
 11
59.2956
 21
21.5126
 31
0.0
  0
LINE
  8
0
 62
     0
 10
59.2956
 20
21.5126
 30
0.0
 11
59.2956
 21
22.5116
 31
0.0
  0
LINE
  8
0
 62
     0
 10
59.2956
 20
22.5116
 30
0.0
 11
60.095
 21
22.5116
 31
0.0
  0
LINE
  8
0
 62
     0
 10
60.095
 20
22.5116
 30
0.0
 11
60.095
 21
25.6109
 31
0.0
  0
LINE
  8
0
 62
     0
 10
60.095
 20
25.6109
 30
0.0
 11
59.2956
 21
25.6109
 31
0.0
  0
LINE
  8
0
 62
     0
 10
59.2956
 20
25.6109
 30
0.0
 11
59.2956
 21
31.4124
 31
0.0
  0
LINE
  8
0
 62
     0
 10
59.2956
 20
31.4124
 30
0.0
 11
60.095
 21
31.4124
 31
0.0
  0
LINE
  8
0
 62
     0
 10
60.095
 20
31.4124
 30
0.0
 11
60.095
 21
34.5116
 31
0.0
  0
LINE
  8
0
 62
     0
 10
60.095
 20
34.5116
 30
0.0
 11
59.2956
 21
34.5116
 31
0.0
  0
LINE
  8
0
 62
     0
 10
59.2956
 20
34.5116
 30
0.0
 11
59.2956
 21
35.512
 31
0.0
  0
LINE
  8
0
 62
     0
 10
59.2956
 20
35.512
 30
0.0
 11
45.2949
 21
35.512
 31
0.0
  0
LINE
  8
0
 62
     0
 10
64.3449
 20
35.512
 30
0.0
 11
64.3449
 21
34.5116
 31
0.0
  0
LINE
  8
0
 62
     0
 10
64.3449
 20
34.5116
 30
0.0
 11
63.5455
 21
34.5116
 31
0.0
  0
LINE
  8
0
 62
     0
 10
63.5455
 20
34.5116
 30
0.0
 11
63.5455
 21
31.4124
 31
0.0
  0
LINE
  8
0
 62
     0
 10
63.5455
 20
31.4124
 30
0.0
 11
64.3449
 21
31.4124
 31
0.0
  0
LINE
  8
0
 62
     0
 10
64.3449
 20
31.4124
 30
0.0
 11
64.3449
 21
25.6109
 31
0.0
  0
LINE
  8
0
 62
     0
 10
64.3449
 20
25.6109
 30
0.0
 11
63.5455
 21
25.6109
 31
0.0
  0
LINE
  8
0
 62
     0
 10
63.5455
 20
25.6109
 30
0.0
 11
63.5455
 21
22.5116
 31
0.0
  0
LINE
  8
0
 62
     0
 10
63.5455
 20
22.5116
 30
0.0
 11
64.3449
 21
22.5116
 31
0.0
  0
LINE
  8
0
 62
     0
 10
64.3449
 20
22.5116
 30
0.0
 11
64.3449
 21
21.5126
 31
0.0
  0
LINE
  8
0
 62
     0
 10
64.3449
 20
21.5126
 30
0.0
 11
78.3456
 21
21.5126
 31
0.0
  0
LINE
  8
0
 62
     0
 10
78.3456
 20
21.5126
 30
0.0
 11
78.3456
 21
22.5116
 31
0.0
  0
LINE
  8
0
 62
     0
 10
78.3456
 20
22.5116
 30
0.0
 11
79.145
 21
22.5116
 31
0.0
  0
LINE
  8
0
 62
     0
 10
79.145
 20
22.5116
 30
0.0
 11
79.145
 21
25.6109
 31
0.0
  0
LINE
  8
0
 62
     0
 10
79.145
 20
25.6109
 30
0.0
 11
78.3456
 21
25.6109
 31
0.0
  0
LINE
  8
0
 62
     0
 10
78.3456
 20
25.6109
 30
0.0
 11
78.3456
 21
31.4124
 31
0.0
  0
LINE
  8
0
 62
     0
 10
78.3456
 20
31.4124
 30
0.0
 11
79.145
 21
31.4124
 31
0.0
  0
LINE
  8
0
 62
     0
 10
79.145
 20
31.4124
 30
0.0
 11
79.145
 21
34.5116
 31
0.0
  0
LINE
  8
0
 62
     0
 10
79.145
 20
34.5116
 30
0.0
 11
78.3456
 21
34.5116
 31
0.0
  0
LINE
  8
0
 62
     0
 10
78.3456
 20
34.5116
 30
0.0
 11
78.3456
 21
35.512
 31
0.0
  0
LINE
  8
0
 62
     0
 10
78.3456
 20
35.512
 30
0.0
 11
64.3449
 21
35.512
 31
0.0
  0
LINE
  8
0
 62
     0
 10
83.3949
 20
35.512
 30
0.0
 11
83.3949
 21
34.5116
 31
0.0
  0
LINE
  8
0
 62
     0
 10
83.3949
 20
34.5116
 30
0.0
 11
82.5955
 21
34.5116
 31
0.0
  0
LINE
  8
0
 62
     0
 10
82.5955
 20
34.5116
 30
0.0
 11
82.5955
 21
31.4124
 31
0.0
  0
LINE
  8
0
 62
     0
 10
82.5955
 20
31.4124
 30
0.0
 11
83.3949
 21
31.4124
 31
0.0
  0
LINE
  8
0
 62
     0
 10
83.3949
 20
31.4124
 30
0.0
 11
83.3949
 21
25.6109
 31
0.0
  0
LINE
  8
0
 62
     0
 10
83.3949
 20
25.6109
 30
0.0
 11
82.5955
 21
25.6109
 31
0.0
  0
LINE
  8
0
 62
     0
 10
82.5955
 20
25.6109
 30
0.0
 11
82.5955
 21
22.5116
 31
0.0
  0
LINE
  8
0
 62
     0
 10
82.5955
 20
22.5116
 30
0.0
 11
83.3949
 21
22.5116
 31
0.0
  0
LINE
  8
0
 62
     0
 10
83.3949
 20
22.5116
 30
0.0
 11
83.3949
 21
21.5126
 31
0.0
  0
LINE
  8
0
 62
     0
 10
83.3949
 20
21.5126
 30
0.0
 11
97.3956
 21
21.5126
 31
0.0
  0
LINE
  8
0
 62
     0
 10
97.3956
 20
21.5126
 30
0.0
 11
97.3956
 21
22.5116
 31
0.0
  0
LINE
  8
0
 62
     0
 10
97.3956
 20
22.5116
 30
0.0
 11
98.195
 21
22.5116
 31
0.0
  0
LINE
  8
0
 62
     0
 10
98.195
 20
22.5116
 30
0.0
 11
98.195
 21
25.6109
 31
0.0
  0
LINE
  8
0
 62
     0
 10
98.195
 20
25.6109
 30
0.0
 11
97.3956
 21
25.6109
 31
0.0
  0
LINE
  8
0
 62
     0
 10
97.3956
 20
25.6109
 30
0.0
 11
97.3956
 21
31.4124
 31
0.0
  0
LINE
  8
0
 62
     0
 10
97.3956
 20
31.4124
 30
0.0
 11
98.195
 21
31.4124
 31
0.0
  0
LINE
  8
0
 62
     0
 10
98.195
 20
31.4124
 30
0.0
 11
98.195
 21
34.5116
 31
0.0
  0
LINE
  8
0
 62
     0
 10
98.195
 20
34.5116
 30
0.0
 11
97.3956
 21
34.5116
 31
0.0
  0
LINE
  8
0
 62
     0
 10
97.3956
 20
34.5116
 30
0.0
 11
97.3956
 21
35.512
 31
0.0
  0
LINE
  8
0
 62
     0
 10
97.3956
 20
35.512
 30
0.0
 11
83.3949
 21
35.512
 31
0.0
  0
LINE
  8
0
 62
     0
 10
102.445
 20
35.512
 30
0.0
 11
102.445
 21
34.5116
 31
0.0
  0
LINE
  8
0
 62
     0
 10
102.445
 20
34.5116
 30
0.0
 11
101.646
 21
34.5116
 31
0.0
  0
LINE
  8
0
 62
     0
 10
101.646
 20
34.5116
 30
0.0
 11
101.646
 21
31.4124
 31
0.0
  0
LINE
  8
0
 62
     0
 10
101.646
 20
31.4124
 30
0.0
 11
102.445
 21
31.4124
 31
0.0
  0
LINE
  8
0
 62
     0
 10
102.445
 20
31.4124
 30
0.0
 11
102.445
 21
25.6109
 31
0.0
  0
LINE
  8
0
 62
     0
 10
102.445
 20
25.6109
 30
0.0
 11
101.646
 21
25.6109
 31
0.0
  0
LINE
  8
0
 62
     0
 10
101.646
 20
25.6109
 30
0.0
 11
101.646
 21
22.5116
 31
0.0
  0
LINE
  8
0
 62
     0
 10
101.646
 20
22.5116
 30
0.0
 11
102.445
 21
22.5116
 31
0.0
  0
LINE
  8
0
 62
     0
 10
102.445
 20
22.5116
 30
0.0
 11
102.445
 21
21.5126
 31
0.0
  0
LINE
  8
0
 62
     0
 10
102.445
 20
21.5126
 30
0.0
 11
116.444
 21
21.5126
 31
0.0
  0
LINE
  8
0
 62
     0
 10
116.444
 20
21.5126
 30
0.0
 11
116.444
 21
22.5116
 31
0.0
  0
LINE
  8
0
 62
     0
 10
116.444
 20
22.5116
 30
0.0
 11
117.245
 21
22.5116
 31
0.0
  0
LINE
  8
0
 62
     0
 10
117.245
 20
22.5116
 30
0.0
 11
117.245
 21
25.6109
 31
0.0
  0
LINE
  8
0
 62
     0
 10
117.245
 20
25.6109
 30
0.0
 11
116.444
 21
25.6109
 31
0.0
  0
LINE
  8
0
 62
     0
 10
116.444
 20
25.6109
 30
0.0
 11
116.444
 21
31.4124
 31
0.0
  0
LINE
  8
0
 62
     0
 10
116.444
 20
31.4124
 30
0.0
 11
117.245
 21
31.4124
 31
0.0
  0
LINE
  8
0
 62
     0
 10
117.245
 20
31.4124
 30
0.0
 11
117.245
 21
34.5116
 31
0.0
  0
LINE
  8
0
 62
     0
 10
117.245
 20
34.5116
 30
0.0
 11
116.444
 21
34.5116
 31
0.0
  0
LINE
  8
0
 62
     0
 10
116.444
 20
34.5116
 30
0.0
 11
116.444
 21
35.512
 31
0.0
  0
LINE
  8
0
 62
     0
 10
116.444
 20
35.512
 30
0.0
 11
102.445
 21
35.512
 31
0.0
  0
LINE
  8
0
 62
     0
 10
121.495
 20
35.512
 30
0.0
 11
121.495
 21
34.5116
 31
0.0
  0
LINE
  8
0
 62
     0
 10
121.495
 20
34.5116
 30
0.0
 11
120.694
 21
34.5116
 31
0.0
  0
LINE
  8
0
 62
     0
 10
120.694
 20
34.5116
 30
0.0
 11
120.694
 21
31.4124
 31
0.0
  0
LINE
  8
0
 62
     0
 10
120.694
 20
31.4124
 30
0.0
 11
121.495
 21
31.4124
 31
0.0
  0
LINE
  8
0
 62
     0
 10
121.495
 20
31.4124
 30
0.0
 11
121.495
 21
25.6109
 31
0.0
  0
LINE
  8
0
 62
     0
 10
121.495
 20
25.6109
 30
0.0
 11
120.694
 21
25.6109
 31
0.0
  0
LINE
  8
0
 62
     0
 10
120.694
 20
25.6109
 30
0.0
 11
120.694
 21
22.5116
 31
0.0
  0
LINE
  8
0
 62
     0
 10
120.694
 20
22.5116
 30
0.0
 11
121.495
 21
22.5116
 31
0.0
  0
LINE
  8
0
 62
     0
 10
121.495
 20
22.5116
 30
0.0
 11
121.495
 21
21.5126
 31
0.0
  0
LINE
  8
0
 62
     0
 10
121.495
 20
21.5126
 30
0.0
 11
135.496
 21
21.5126
 31
0.0
  0
LINE
  8
0
 62
     0
 10
135.496
 20
21.5126
 30
0.0
 11
135.496
 21
22.5116
 31
0.0
  0
LINE
  8
0
 62
     0
 10
135.496
 20
22.5116
 30
0.0
 11
136.295
 21
22.5116
 31
0.0
  0
LINE
  8
0
 62
     0
 10
136.295
 20
22.5116
 30
0.0
 11
136.295
 21
25.6109
 31
0.0
  0
LINE
  8
0
 62
     0
 10
136.295
 20
25.6109
 30
0.0
 11
135.496
 21
25.6109
 31
0.0
  0
LINE
  8
0
 62
     0
 10
135.496
 20
25.6109
 30
0.0
 11
135.496
 21
31.4124
 31
0.0
  0
LINE
  8
0
 62
     0
 10
135.496
 20
31.4124
 30
0.0
 11
136.295
 21
31.4124
 31
0.0
  0
LINE
  8
0
 62
     0
 10
136.295
 20
31.4124
 30
0.0
 11
136.295
 21
34.5116
 31
0.0
  0
LINE
  8
0
 62
     0
 10
136.295
 20
34.5116
 30
0.0
 11
135.496
 21
34.5116
 31
0.0
  0
LINE
  8
0
 62
     0
 10
135.496
 20
34.5116
 30
0.0
 11
135.496
 21
35.512
 31
0.0
  0
LINE
  8
0
 62
     0
 10
135.496
 20
35.512
 30
0.0
 11
121.495
 21
35.512
 31
0.0
  0
LINE
  8
0
 62
     0
 10
140.545
 20
35.512
 30
0.0
 11
140.545
 21
34.5116
 31
0.0
  0
LINE
  8
0
 62
     0
 10
140.545
 20
34.5116
 30
0.0
 11
139.746
 21
34.5116
 31
0.0
  0
LINE
  8
0
 62
     0
 10
139.746
 20
34.5116
 30
0.0
 11
139.746
 21
31.4124
 31
0.0
  0
LINE
  8
0
 62
     0
 10
139.746
 20
31.4124
 30
0.0
 11
140.545
 21
31.4124
 31
0.0
  0
LINE
  8
0
 62
     0
 10
140.545
 20
31.4124
 30
0.0
 11
140.545
 21
25.6109
 31
0.0
  0
LINE
  8
0
 62
     0
 10
140.545
 20
25.6109
 30
0.0
 11
139.746
 21
25.6109
 31
0.0
  0
LINE
  8
0
 62
     0
 10
139.746
 20
25.6109
 30
0.0
 11
139.746
 21
22.5116
 31
0.0
  0
LINE
  8
0
 62
     0
 10
139.746
 20
22.5116
 30
0.0
 11
140.545
 21
22.5116
 31
0.0
  0
LINE
  8
0
 62
     0
 10
140.545
 20
22.5116
 30
0.0
 11
140.545
 21
21.5126
 31
0.0
  0
LINE
  8
0
 62
     0
 10
140.545
 20
21.5126
 30
0.0
 11
154.544
 21
21.5126
 31
0.0
  0
LINE
  8
0
 62
     0
 10
154.544
 20
21.5126
 30
0.0
 11
154.544
 21
22.5116
 31
0.0
  0
LINE
  8
0
 62
     0
 10
154.544
 20
22.5116
 30
0.0
 11
155.345
 21
22.5116
 31
0.0
  0
LINE
  8
0
 62
     0
 10
155.345
 20
22.5116
 30
0.0
 11
155.345
 21
25.6109
 31
0.0
  0
LINE
  8
0
 62
     0
 10
155.345
 20
25.6109
 30
0.0
 11
154.544
 21
25.6109
 31
0.0
  0
LINE
  8
0
 62
     0
 10
154.544
 20
25.6109
 30
0.0
 11
154.544
 21
31.4124
 31
0.0
  0
LINE
  8
0
 62
     0
 10
154.544
 20
31.4124
 30
0.0
 11
155.345
 21
31.4124
 31
0.0
  0
LINE
  8
0
 62
     0
 10
155.345
 20
31.4124
 30
0.0
 11
155.345
 21
34.5116
 31
0.0
  0
LINE
  8
0
 62
     0
 10
155.345
 20
34.5116
 30
0.0
 11
154.544
 21
34.5116
 31
0.0
  0
LINE
  8
0
 62
     0
 10
154.544
 20
34.5116
 30
0.0
 11
154.544
 21
35.512
 31
0.0
  0
LINE
  8
0
 62
     0
 10
154.544
 20
35.512
 30
0.0
 11
140.545
 21
35.512
 31
0.0
  0
LINE
  8
0
 62
     0
 10
159.595
 20
35.512
 30
0.0
 11
159.595
 21
34.5116
 31
0.0
  0
LINE
  8
0
 62
     0
 10
159.595
 20
34.5116
 30
0.0
 11
158.794
 21
34.5116
 31
0.0
  0
LINE
  8
0
 62
     0
 10
158.794
 20
34.5116
 30
0.0
 11
158.794
 21
31.4124
 31
0.0
  0
LINE
  8
0
 62
     0
 10
158.794
 20
31.4124
 30
0.0
 11
159.595
 21
31.4124
 31
0.0
  0
LINE
  8
0
 62
     0
 10
159.595
 20
31.4124
 30
0.0
 11
159.595
 21
25.6109
 31
0.0
  0
LINE
  8
0
 62
     0
 10
159.595
 20
25.6109
 30
0.0
 11
158.794
 21
25.6109
 31
0.0
  0
LINE
  8
0
 62
     0
 10
158.794
 20
25.6109
 30
0.0
 11
158.794
 21
22.5116
 31
0.0
  0
LINE
  8
0
 62
     0
 10
158.794
 20
22.5116
 30
0.0
 11
159.595
 21
22.5116
 31
0.0
  0
LINE
  8
0
 62
     0
 10
159.595
 20
22.5116
 30
0.0
 11
159.595
 21
21.5126
 31
0.0
  0
LINE
  8
0
 62
     0
 10
159.595
 20
21.5126
 30
0.0
 11
173.596
 21
21.5126
 31
0.0
  0
LINE
  8
0
 62
     0
 10
173.596
 20
21.5126
 30
0.0
 11
173.596
 21
22.5116
 31
0.0
  0
LINE
  8
0
 62
     0
 10
173.596
 20
22.5116
 30
0.0
 11
174.395
 21
22.5116
 31
0.0
  0
LINE
  8
0
 62
     0
 10
174.395
 20
22.5116
 30
0.0
 11
174.395
 21
25.6109
 31
0.0
  0
LINE
  8
0
 62
     0
 10
174.395
 20
25.6109
 30
0.0
 11
173.596
 21
25.6109
 31
0.0
  0
LINE
  8
0
 62
     0
 10
173.596
 20
25.6109
 30
0.0
 11
173.596
 21
31.4124
 31
0.0
  0
LINE
  8
0
 62
     0
 10
173.596
 20
31.4124
 30
0.0
 11
174.395
 21
31.4124
 31
0.0
  0
LINE
  8
0
 62
     0
 10
174.395
 20
31.4124
 30
0.0
 11
174.395
 21
34.5116
 31
0.0
  0
LINE
  8
0
 62
     0
 10
174.395
 20
34.5116
 30
0.0
 11
173.596
 21
34.5116
 31
0.0
  0
LINE
  8
0
 62
     0
 10
173.596
 20
34.5116
 30
0.0
 11
173.596
 21
35.512
 31
0.0
  0
LINE
  8
0
 62
     0
 10
173.596
 20
35.512
 30
0.0
 11
159.595
 21
35.512
 31
0.0
  0
LINE
  8
0
 62
     0
 10
178.645
 20
35.512
 30
0.0
 11
178.645
 21
34.5116
 31
0.0
  0
LINE
  8
0
 62
     0
 10
178.645
 20
34.5116
 30
0.0
 11
177.846
 21
34.5116
 31
0.0
  0
LINE
  8
0
 62
     0
 10
177.846
 20
34.5116
 30
0.0
 11
177.846
 21
31.4124
 31
0.0
  0
LINE
  8
0
 62
     0
 10
177.846
 20
31.4124
 30
0.0
 11
178.645
 21
31.4124
 31
0.0
  0
LINE
  8
0
 62
     0
 10
178.645
 20
31.4124
 30
0.0
 11
178.645
 21
25.6109
 31
0.0
  0
LINE
  8
0
 62
     0
 10
178.645
 20
25.6109
 30
0.0
 11
177.846
 21
25.6109
 31
0.0
  0
LINE
  8
0
 62
     0
 10
177.846
 20
25.6109
 30
0.0
 11
177.846
 21
22.5116
 31
0.0
  0
LINE
  8
0
 62
     0
 10
177.846
 20
22.5116
 30
0.0
 11
178.645
 21
22.5116
 31
0.0
  0
LINE
  8
0
 62
     0
 10
178.645
 20
22.5116
 30
0.0
 11
178.645
 21
21.5126
 31
0.0
  0
LINE
  8
0
 62
     0
 10
178.645
 20
21.5126
 30
0.0
 11
192.646
 21
21.5126
 31
0.0
  0
LINE
  8
0
 62
     0
 10
192.646
 20
21.5126
 30
0.0
 11
192.646
 21
22.5116
 31
0.0
  0
LINE
  8
0
 62
     0
 10
192.646
 20
22.5116
 30
0.0
 11
193.445
 21
22.5116
 31
0.0
  0
LINE
  8
0
 62
     0
 10
193.445
 20
22.5116
 30
0.0
 11
193.445
 21
25.6109
 31
0.0
  0
LINE
  8
0
 62
     0
 10
193.445
 20
25.6109
 30
0.0
 11
192.646
 21
25.6109
 31
0.0
  0
LINE
  8
0
 62
     0
 10
192.646
 20
25.6109
 30
0.0
 11
192.646
 21
31.4124
 31
0.0
  0
LINE
  8
0
 62
     0
 10
192.646
 20
31.4124
 30
0.0
 11
193.445
 21
31.4124
 31
0.0
  0
LINE
  8
0
 62
     0
 10
193.445
 20
31.4124
 30
0.0
 11
193.445
 21
34.5116
 31
0.0
  0
LINE
  8
0
 62
     0
 10
193.445
 20
34.5116
 30
0.0
 11
192.646
 21
34.5116
 31
0.0
  0
LINE
  8
0
 62
     0
 10
192.646
 20
34.5116
 30
0.0
 11
192.646
 21
35.512
 31
0.0
  0
LINE
  8
0
 62
     0
 10
192.646
 20
35.512
 30
0.0
 11
178.645
 21
35.512
 31
0.0
  0
LINE
  8
0
 62
     0
 10
197.695
 20
35.512
 30
0.0
 11
197.695
 21
34.5116
 31
0.0
  0
LINE
  8
0
 62
     0
 10
197.695
 20
34.5116
 30
0.0
 11
196.896
 21
34.5116
 31
0.0
  0
LINE
  8
0
 62
     0
 10
196.896
 20
34.5116
 30
0.0
 11
196.896
 21
31.4124
 31
0.0
  0
LINE
  8
0
 62
     0
 10
196.896
 20
31.4124
 30
0.0
 11
197.695
 21
31.4124
 31
0.0
  0
LINE
  8
0
 62
     0
 10
197.695
 20
31.4124
 30
0.0
 11
197.695
 21
25.6109
 31
0.0
  0
LINE
  8
0
 62
     0
 10
197.695
 20
25.6109
 30
0.0
 11
196.896
 21
25.6109
 31
0.0
  0
LINE
  8
0
 62
     0
 10
196.896
 20
25.6109
 30
0.0
 11
196.896
 21
22.5116
 31
0.0
  0
LINE
  8
0
 62
     0
 10
196.896
 20
22.5116
 30
0.0
 11
197.695
 21
22.5116
 31
0.0
  0
LINE
  8
0
 62
     0
 10
197.695
 20
22.5116
 30
0.0
 11
197.695
 21
21.5126
 31
0.0
  0
LINE
  8
0
 62
     0
 10
197.695
 20
21.5126
 30
0.0
 11
211.694
 21
21.5126
 31
0.0
  0
LINE
  8
0
 62
     0
 10
211.694
 20
21.5126
 30
0.0
 11
211.694
 21
22.5116
 31
0.0
  0
LINE
  8
0
 62
     0
 10
211.694
 20
22.5116
 30
0.0
 11
212.495
 21
22.5116
 31
0.0
  0
LINE
  8
0
 62
     0
 10
212.495
 20
22.5116
 30
0.0
 11
212.495
 21
25.6109
 31
0.0
  0
LINE
  8
0
 62
     0
 10
212.495
 20
25.6109
 30
0.0
 11
211.694
 21
25.6109
 31
0.0
  0
LINE
  8
0
 62
     0
 10
211.694
 20
25.6109
 30
0.0
 11
211.694
 21
31.4124
 31
0.0
  0
LINE
  8
0
 62
     0
 10
211.694
 20
31.4124
 30
0.0
 11
212.495
 21
31.4124
 31
0.0
  0
LINE
  8
0
 62
     0
 10
212.495
 20
31.4124
 30
0.0
 11
212.495
 21
34.5116
 31
0.0
  0
LINE
  8
0
 62
     0
 10
212.495
 20
34.5116
 30
0.0
 11
211.694
 21
34.5116
 31
0.0
  0
LINE
  8
0
 62
     0
 10
211.694
 20
34.5116
 30
0.0
 11
211.694
 21
35.512
 31
0.0
  0
LINE
  8
0
 62
     0
 10
211.694
 20
35.512
 30
0.0
 11
197.695
 21
35.512
 31
0.0
  0
LINE
  8
0
 62
     0
 10
216.745
 20
35.512
 30
0.0
 11
216.745
 21
34.5116
 31
0.0
  0
LINE
  8
0
 62
     0
 10
216.745
 20
34.5116
 30
0.0
 11
215.944
 21
34.5116
 31
0.0
  0
LINE
  8
0
 62
     0
 10
215.944
 20
34.5116
 30
0.0
 11
215.944
 21
31.4124
 31
0.0
  0
LINE
  8
0
 62
     0
 10
215.944
 20
31.4124
 30
0.0
 11
216.745
 21
31.4124
 31
0.0
  0
LINE
  8
0
 62
     0
 10
216.745
 20
31.4124
 30
0.0
 11
216.745
 21
25.6109
 31
0.0
  0
LINE
  8
0
 62
     0
 10
216.745
 20
25.6109
 30
0.0
 11
215.944
 21
25.6109
 31
0.0
  0
LINE
  8
0
 62
     0
 10
215.944
 20
25.6109
 30
0.0
 11
215.944
 21
22.5116
 31
0.0
  0
LINE
  8
0
 62
     0
 10
215.944
 20
22.5116
 30
0.0
 11
216.745
 21
22.5116
 31
0.0
  0
LINE
  8
0
 62
     0
 10
216.745
 20
22.5116
 30
0.0
 11
216.745
 21
21.5126
 31
0.0
  0
LINE
  8
0
 62
     0
 10
216.745
 20
21.5126
 30
0.0
 11
230.746
 21
21.5126
 31
0.0
  0
LINE
  8
0
 62
     0
 10
230.746
 20
21.5126
 30
0.0
 11
230.746
 21
22.5116
 31
0.0
  0
LINE
  8
0
 62
     0
 10
230.746
 20
22.5116
 30
0.0
 11
231.545
 21
22.5116
 31
0.0
  0
LINE
  8
0
 62
     0
 10
231.545
 20
22.5116
 30
0.0
 11
231.545
 21
25.6109
 31
0.0
  0
LINE
  8
0
 62
     0
 10
231.545
 20
25.6109
 30
0.0
 11
230.746
 21
25.6109
 31
0.0
  0
LINE
  8
0
 62
     0
 10
230.746
 20
25.6109
 30
0.0
 11
230.746
 21
31.4124
 31
0.0
  0
LINE
  8
0
 62
     0
 10
230.746
 20
31.4124
 30
0.0
 11
231.545
 21
31.4124
 31
0.0
  0
LINE
  8
0
 62
     0
 10
231.545
 20
31.4124
 30
0.0
 11
231.545
 21
34.5116
 31
0.0
  0
LINE
  8
0
 62
     0
 10
231.545
 20
34.5116
 30
0.0
 11
230.746
 21
34.5116
 31
0.0
  0
LINE
  8
0
 62
     0
 10
230.746
 20
34.5116
 30
0.0
 11
230.746
 21
35.512
 31
0.0
  0
LINE
  8
0
 62
     0
 10
230.746
 20
35.512
 30
0.0
 11
216.745
 21
35.512
 31
0.0
  0
LINE
  8
0
 62
     0
 10
264.37
 20
73.612
 30
0.0
 11
264.37
 21
72.6115
 31
0.0
  0
LINE
  8
0
 62
     0
 10
264.37
 20
72.6115
 30
0.0
 11
263.569
 21
72.6115
 31
0.0
  0
LINE
  8
0
 62
     0
 10
263.569
 20
72.6115
 30
0.0
 11
263.569
 21
69.5124
 31
0.0
  0
LINE
  8
0
 62
     0
 10
263.569
 20
69.5124
 30
0.0
 11
264.37
 21
69.5124
 31
0.0
  0
LINE
  8
0
 62
     0
 10
264.37
 20
69.5124
 30
0.0
 11
264.37
 21
63.7124
 31
0.0
  0
LINE
  8
0
 62
     0
 10
264.37
 20
63.7124
 30
0.0
 11
263.569
 21
63.7124
 31
0.0
  0
LINE
  8
0
 62
     0
 10
263.569
 20
63.7124
 30
0.0
 11
263.569
 21
60.6118
 31
0.0
  0
LINE
  8
0
 62
     0
 10
263.569
 20
60.6118
 30
0.0
 11
264.37
 21
60.6118
 31
0.0
  0
LINE
  8
0
 62
     0
 10
264.37
 20
60.6118
 30
0.0
 11
264.37
 21
59.6124
 31
0.0
  0
LINE
  8
0
 62
     0
 10
264.37
 20
59.6124
 30
0.0
 11
266.75
 21
59.6124
 31
0.0
  0
LINE
  8
0
 62
     0
 10
266.75
 20
59.6124
 30
0.0
 11
266.75
 21
54.5606
 31
0.0
  0
LINE
  8
0
 62
     0
 10
266.75
 20
54.5606
 30
0.0
 11
245.32
 21
54.5606
 31
0.0
  0
LINE
  8
0
 62
     0
 10
245.32
 20
54.5606
 30
0.0
 11
245.32
 21
53.5615
 31
0.0
  0
LINE
  8
0
 62
     0
 10
245.32
 20
53.5615
 30
0.0
 11
244.521
 21
53.5615
 31
0.0
  0
LINE
  8
0
 62
     0
 10
244.521
 20
53.5615
 30
0.0
 11
244.521
 21
50.4624
 31
0.0
  0
LINE
  8
0
 62
     0
 10
244.521
 20
50.4624
 30
0.0
 11
245.32
 21
50.4624
 31
0.0
  0
LINE
  8
0
 62
     0
 10
245.32
 20
50.4624
 30
0.0
 11
245.32
 21
44.661
 31
0.0
  0
LINE
  8
0
 62
     0
 10
245.32
 20
44.661
 30
0.0
 11
244.521
 21
44.661
 31
0.0
  0
LINE
  8
0
 62
     0
 10
244.521
 20
44.661
 30
0.0
 11
244.521
 21
41.5618
 31
0.0
  0
LINE
  8
0
 62
     0
 10
244.521
 20
41.5618
 30
0.0
 11
245.32
 21
41.5618
 31
0.0
  0
LINE
  8
0
 62
     0
 10
245.32
 20
41.5618
 30
0.0
 11
245.32
 21
40.5613
 31
0.0
  0
LINE
  8
0
 62
     0
 10
245.32
 20
40.5613
 30
0.0
 11
250.675
 21
40.5613
 31
0.0
  0
LINE
  8
0
 62
     0
 10
250.675
 20
40.5613
 30
0.0
 11
250.675
 21
39.5912
 31
0.0
  0
LINE
  8
0
 62
     0
 10
250.675
 20
39.5912
 30
0.0
 11
253.974
 21
39.5912
 31
0.0
  0
LINE
  8
0
 62
     0
 10
253.974
 20
39.5912
 30
0.0
 11
253.974
 21
40.5613
 31
0.0
  0
LINE
  8
0
 62
     0
 10
253.974
 20
40.5613
 30
0.0
 11
271.225
 21
40.5613
 31
0.0
  0
LINE
  8
0
 62
     0
 10
271.225
 20
40.5613
 30
0.0
 11
271.225
 21
41.5618
 31
0.0
  0
LINE
  8
0
 62
     0
 10
271.225
 20
41.5618
 30
0.0
 11
272.025
 21
41.5618
 31
0.0
  0
LINE
  8
0
 62
     0
 10
272.025
 20
41.5618
 30
0.0
 11
272.025
 21
41.8112
 31
0.0
  0
LINE
  8
0
 62
     0
 10
272.025
 20
41.8112
 30
0.0
 11
272.749
 21
41.8112
 31
0.0
  0
LINE
  8
0
 62
     0
 10
272.749
 20
41.8112
 30
0.0
 11
272.749
 21
40.7928
 31
0.0
  0
LINE
  8
0
 62
     0
 10
272.749
 20
40.7928
 30
0.0
 11
274.475
 21
40.7928
 31
0.0
  0
LINE
  8
0
 62
     0
 10
274.475
 20
40.7928
 30
0.0
 11
274.475
 21
39.5912
 31
0.0
  0
LINE
  8
0
 62
     0
 10
274.475
 20
39.5912
 30
0.0
 11
277.775
 21
39.5912
 31
0.0
  0
LINE
  8
0
 62
     0
 10
277.775
 20
39.5912
 30
0.0
 11
277.775
 21
40.7928
 31
0.0
  0
LINE
  8
0
 62
     0
 10
277.775
 20
40.7928
 30
0.0
 11
279.501
 21
40.7928
 31
0.0
  0
LINE
  8
0
 62
     0
 10
279.501
 20
40.7928
 30
0.0
 11
279.501
 21
47.0613
 31
0.0
  0
LINE
  8
0
 62
     0
 10
279.501
 20
47.0613
 30
0.0
 11
280.325
 21
47.0613
 31
0.0
  0
LINE
  8
0
 62
     0
 10
280.325
 20
47.0613
 30
0.0
 11
280.325
 21
49.8616
 31
0.0
  0
LINE
  8
0
 62
     0
 10
280.325
 20
49.8616
 30
0.0
 11
279.75
 21
49.8616
 31
0.0
  0
LINE
  8
0
 62
     0
 10
279.75
 20
49.8616
 30
0.0
 11
279.75
 21
50.0874
 31
0.0
  0
LINE
  8
0
 62
     0
 10
279.75
 20
50.0874
 30
0.0
 11
280.75
 21
50.0874
 31
0.0
  0
LINE
  8
0
 62
     0
 10
280.75
 20
50.0874
 30
0.0
 11
280.75
 21
64.087
 31
0.0
  0
LINE
  8
0
 62
     0
 10
280.75
 20
64.087
 30
0.0
 11
279.75
 21
64.087
 31
0.0
  0
LINE
  8
0
 62
     0
 10
279.75
 20
64.087
 30
0.0
 11
279.75
 21
64.8878
 31
0.0
  0
LINE
  8
0
 62
     0
 10
279.75
 20
64.8878
 30
0.0
 11
278.369
 21
64.8878
 31
0.0
  0
LINE
  8
0
 62
     0
 10
278.369
 20
64.8878
 30
0.0
 11
278.369
 21
65.6124
 31
0.0
  0
LINE
  8
0
 62
     0
 10
278.369
 20
65.6124
 30
0.0
 11
279.28
 21
65.6124
 31
0.0
  0
LINE
  8
0
 62
     0
 10
279.28
 20
65.6124
 30
0.0
 11
279.28
 21
72.3621
 31
0.0
  0
LINE
  8
0
 62
     0
 10
279.28
 20
72.3621
 30
0.0
 11
279.17
 21
72.3621
 31
0.0
  0
LINE
  8
0
 62
     0
 10
279.17
 20
72.3621
 30
0.0
 11
279.17
 21
72.6115
 31
0.0
  0
LINE
  8
0
 62
     0
 10
279.17
 20
72.6115
 30
0.0
 11
278.369
 21
72.6115
 31
0.0
  0
LINE
  8
0
 62
     0
 10
278.369
 20
72.6115
 30
0.0
 11
278.369
 21
73.612
 31
0.0
  0
LINE
  8
0
 62
     0
 10
278.369
 20
73.612
 30
0.0
 11
264.37
 21
73.612
 31
0.0
  0
LINE
  8
0
 62
     0
 10
4.81348
 20
54.5606
 30
0.0
 11
4.81348
 21
53.5615
 31
0.0
  0
LINE
  8
0
 62
     0
 10
4.81348
 20
53.5615
 30
0.0
 11
4.01285
 21
53.5615
 31
0.0
  0
LINE
  8
0
 62
     0
 10
4.01285
 20
53.5615
 30
0.0
 11
4.01285
 21
50.4624
 31
0.0
  0
LINE
  8
0
 62
     0
 10
4.01285
 20
50.4624
 30
0.0
 11
4.81348
 21
50.4624
 31
0.0
  0
LINE
  8
0
 62
     0
 10
4.81348
 20
50.4624
 30
0.0
 11
4.81348
 21
44.661
 31
0.0
  0
LINE
  8
0
 62
     0
 10
4.81348
 20
44.661
 30
0.0
 11
4.01285
 21
44.661
 31
0.0
  0
LINE
  8
0
 62
     0
 10
4.01285
 20
44.661
 30
0.0
 11
4.01285
 21
41.5618
 31
0.0
  0
LINE
  8
0
 62
     0
 10
4.01285
 20
41.5618
 30
0.0
 11
4.81348
 21
41.5618
 31
0.0
  0
LINE
  8
0
 62
     0
 10
4.81348
 20
41.5618
 30
0.0
 11
4.81348
 21
40.5613
 31
0.0
  0
LINE
  8
0
 62
     0
 10
4.81348
 20
40.5613
 30
0.0
 11
23.5768
 21
40.5613
 31
0.0
  0
LINE
  8
0
 62
     0
 10
23.5768
 20
40.5613
 30
0.0
 11
23.5768
 21
41.5618
 31
0.0
  0
LINE
  8
0
 62
     0
 10
23.5768
 20
41.5618
 30
0.0
 11
24.3761
 21
41.5618
 31
0.0
  0
LINE
  8
0
 62
     0
 10
24.3761
 20
41.5618
 30
0.0
 11
24.3761
 21
44.661
 31
0.0
  0
LINE
  8
0
 62
     0
 10
24.3761
 20
44.661
 30
0.0
 11
23.5768
 21
44.661
 31
0.0
  0
LINE
  8
0
 62
     0
 10
23.5768
 20
44.661
 30
0.0
 11
23.5768
 21
50.4624
 31
0.0
  0
LINE
  8
0
 62
     0
 10
23.5768
 20
50.4624
 30
0.0
 11
24.3761
 21
50.4624
 31
0.0
  0
LINE
  8
0
 62
     0
 10
24.3761
 20
50.4624
 30
0.0
 11
24.3761
 21
53.5615
 31
0.0
  0
LINE
  8
0
 62
     0
 10
24.3761
 20
53.5615
 30
0.0
 11
23.5768
 21
53.5615
 31
0.0
  0
LINE
  8
0
 62
     0
 10
23.5768
 20
53.5615
 30
0.0
 11
23.5768
 21
54.5606
 31
0.0
  0
LINE
  8
0
 62
     0
 10
23.5768
 20
54.5606
 30
0.0
 11
4.81348
 21
54.5606
 31
0.0
  0
LINE
  8
0
 62
     0
 10
35.7699
 20
54.5606
 30
0.0
 11
35.7699
 21
53.5615
 31
0.0
  0
LINE
  8
0
 62
     0
 10
35.7699
 20
53.5615
 30
0.0
 11
34.9705
 21
53.5615
 31
0.0
  0
LINE
  8
0
 62
     0
 10
34.9705
 20
53.5615
 30
0.0
 11
34.9705
 21
50.4624
 31
0.0
  0
LINE
  8
0
 62
     0
 10
34.9705
 20
50.4624
 30
0.0
 11
35.7699
 21
50.4624
 31
0.0
  0
LINE
  8
0
 62
     0
 10
35.7699
 20
50.4624
 30
0.0
 11
35.7699
 21
44.661
 31
0.0
  0
LINE
  8
0
 62
     0
 10
35.7699
 20
44.661
 30
0.0
 11
34.9705
 21
44.661
 31
0.0
  0
LINE
  8
0
 62
     0
 10
34.9705
 20
44.661
 30
0.0
 11
34.9705
 21
41.5618
 31
0.0
  0
LINE
  8
0
 62
     0
 10
34.9705
 20
41.5618
 30
0.0
 11
35.7699
 21
41.5618
 31
0.0
  0
LINE
  8
0
 62
     0
 10
35.7699
 20
41.5618
 30
0.0
 11
35.7699
 21
40.5613
 31
0.0
  0
LINE
  8
0
 62
     0
 10
35.7699
 20
40.5613
 30
0.0
 11
49.7706
 21
40.5613
 31
0.0
  0
LINE
  8
0
 62
     0
 10
49.7706
 20
40.5613
 30
0.0
 11
49.7706
 21
41.5618
 31
0.0
  0
LINE
  8
0
 62
     0
 10
49.7706
 20
41.5618
 30
0.0
 11
50.5686
 21
41.5618
 31
0.0
  0
LINE
  8
0
 62
     0
 10
50.5686
 20
41.5618
 30
0.0
 11
50.5686
 21
44.661
 31
0.0
  0
LINE
  8
0
 62
     0
 10
50.5686
 20
44.661
 30
0.0
 11
49.7706
 21
44.661
 31
0.0
  0
LINE
  8
0
 62
     0
 10
49.7706
 20
44.661
 30
0.0
 11
49.7706
 21
50.4624
 31
0.0
  0
LINE
  8
0
 62
     0
 10
49.7706
 20
50.4624
 30
0.0
 11
50.5686
 21
50.4624
 31
0.0
  0
LINE
  8
0
 62
     0
 10
50.5686
 20
50.4624
 30
0.0
 11
50.5686
 21
53.5615
 31
0.0
  0
LINE
  8
0
 62
     0
 10
50.5686
 20
53.5615
 30
0.0
 11
49.7706
 21
53.5615
 31
0.0
  0
LINE
  8
0
 62
     0
 10
49.7706
 20
53.5615
 30
0.0
 11
49.7706
 21
54.5606
 31
0.0
  0
LINE
  8
0
 62
     0
 10
49.7706
 20
54.5606
 30
0.0
 11
35.7699
 21
54.5606
 31
0.0
  0
LINE
  8
0
 62
     0
 10
54.8185
 20
54.5606
 30
0.0
 11
54.8185
 21
53.5615
 31
0.0
  0
LINE
  8
0
 62
     0
 10
54.8185
 20
53.5615
 30
0.0
 11
54.0205
 21
53.5615
 31
0.0
  0
LINE
  8
0
 62
     0
 10
54.0205
 20
53.5615
 30
0.0
 11
54.0205
 21
50.4624
 31
0.0
  0
LINE
  8
0
 62
     0
 10
54.0205
 20
50.4624
 30
0.0
 11
54.8185
 21
50.4624
 31
0.0
  0
LINE
  8
0
 62
     0
 10
54.8185
 20
50.4624
 30
0.0
 11
54.8185
 21
44.661
 31
0.0
  0
LINE
  8
0
 62
     0
 10
54.8185
 20
44.661
 30
0.0
 11
54.0205
 21
44.661
 31
0.0
  0
LINE
  8
0
 62
     0
 10
54.0205
 20
44.661
 30
0.0
 11
54.0205
 21
41.5618
 31
0.0
  0
LINE
  8
0
 62
     0
 10
54.0205
 20
41.5618
 30
0.0
 11
54.8185
 21
41.5618
 31
0.0
  0
LINE
  8
0
 62
     0
 10
54.8185
 20
41.5618
 30
0.0
 11
54.8185
 21
40.5613
 31
0.0
  0
LINE
  8
0
 62
     0
 10
54.8185
 20
40.5613
 30
0.0
 11
68.8192
 21
40.5613
 31
0.0
  0
LINE
  8
0
 62
     0
 10
68.8192
 20
40.5613
 30
0.0
 11
68.8192
 21
41.5618
 31
0.0
  0
LINE
  8
0
 62
     0
 10
68.8192
 20
41.5618
 30
0.0
 11
69.62
 21
41.5618
 31
0.0
  0
LINE
  8
0
 62
     0
 10
69.62
 20
41.5618
 30
0.0
 11
69.62
 21
44.661
 31
0.0
  0
LINE
  8
0
 62
     0
 10
69.62
 20
44.661
 30
0.0
 11
68.8192
 21
44.661
 31
0.0
  0
LINE
  8
0
 62
     0
 10
68.8192
 20
44.661
 30
0.0
 11
68.8192
 21
50.4624
 31
0.0
  0
LINE
  8
0
 62
     0
 10
68.8192
 20
50.4624
 30
0.0
 11
69.62
 21
50.4624
 31
0.0
  0
LINE
  8
0
 62
     0
 10
69.62
 20
50.4624
 30
0.0
 11
69.62
 21
53.5615
 31
0.0
  0
LINE
  8
0
 62
     0
 10
69.62
 20
53.5615
 30
0.0
 11
68.8192
 21
53.5615
 31
0.0
  0
LINE
  8
0
 62
     0
 10
68.8192
 20
53.5615
 30
0.0
 11
68.8192
 21
54.5606
 31
0.0
  0
LINE
  8
0
 62
     0
 10
68.8192
 20
54.5606
 30
0.0
 11
54.8185
 21
54.5606
 31
0.0
  0
LINE
  8
0
 62
     0
 10
73.8699
 20
54.5606
 30
0.0
 11
73.8699
 21
53.5615
 31
0.0
  0
LINE
  8
0
 62
     0
 10
73.8699
 20
53.5615
 30
0.0
 11
73.0691
 21
53.5615
 31
0.0
  0
LINE
  8
0
 62
     0
 10
73.0691
 20
53.5615
 30
0.0
 11
73.0691
 21
50.4624
 31
0.0
  0
LINE
  8
0
 62
     0
 10
73.0691
 20
50.4624
 30
0.0
 11
73.8699
 21
50.4624
 31
0.0
  0
LINE
  8
0
 62
     0
 10
73.8699
 20
50.4624
 30
0.0
 11
73.8699
 21
44.661
 31
0.0
  0
LINE
  8
0
 62
     0
 10
73.8699
 20
44.661
 30
0.0
 11
73.0691
 21
44.661
 31
0.0
  0
LINE
  8
0
 62
     0
 10
73.0691
 20
44.661
 30
0.0
 11
73.0691
 21
41.5618
 31
0.0
  0
LINE
  8
0
 62
     0
 10
73.0691
 20
41.5618
 30
0.0
 11
73.8699
 21
41.5618
 31
0.0
  0
LINE
  8
0
 62
     0
 10
73.8699
 20
41.5618
 30
0.0
 11
73.8699
 21
40.5613
 31
0.0
  0
LINE
  8
0
 62
     0
 10
73.8699
 20
40.5613
 30
0.0
 11
87.8692
 21
40.5613
 31
0.0
  0
LINE
  8
0
 62
     0
 10
87.8692
 20
40.5613
 30
0.0
 11
87.8692
 21
41.5618
 31
0.0
  0
LINE
  8
0
 62
     0
 10
87.8692
 20
41.5618
 30
0.0
 11
88.67
 21
41.5618
 31
0.0
  0
LINE
  8
0
 62
     0
 10
88.67
 20
41.5618
 30
0.0
 11
88.67
 21
44.661
 31
0.0
  0
LINE
  8
0
 62
     0
 10
88.67
 20
44.661
 30
0.0
 11
87.8692
 21
44.661
 31
0.0
  0
LINE
  8
0
 62
     0
 10
87.8692
 20
44.661
 30
0.0
 11
87.8692
 21
50.4624
 31
0.0
  0
LINE
  8
0
 62
     0
 10
87.8692
 20
50.4624
 30
0.0
 11
88.67
 21
50.4624
 31
0.0
  0
LINE
  8
0
 62
     0
 10
88.67
 20
50.4624
 30
0.0
 11
88.67
 21
53.5615
 31
0.0
  0
LINE
  8
0
 62
     0
 10
88.67
 20
53.5615
 30
0.0
 11
87.8692
 21
53.5615
 31
0.0
  0
LINE
  8
0
 62
     0
 10
87.8692
 20
53.5615
 30
0.0
 11
87.8692
 21
54.5606
 31
0.0
  0
LINE
  8
0
 62
     0
 10
87.8692
 20
54.5606
 30
0.0
 11
73.8699
 21
54.5606
 31
0.0
  0
LINE
  8
0
 62
     0
 10
92.9199
 20
54.5606
 30
0.0
 11
92.9199
 21
53.5615
 31
0.0
  0
LINE
  8
0
 62
     0
 10
92.9199
 20
53.5615
 30
0.0
 11
92.1191
 21
53.5615
 31
0.0
  0
LINE
  8
0
 62
     0
 10
92.1191
 20
53.5615
 30
0.0
 11
92.1191
 21
50.4624
 31
0.0
  0
LINE
  8
0
 62
     0
 10
92.1191
 20
50.4624
 30
0.0
 11
92.9199
 21
50.4624
 31
0.0
  0
LINE
  8
0
 62
     0
 10
92.9199
 20
50.4624
 30
0.0
 11
92.9199
 21
44.661
 31
0.0
  0
LINE
  8
0
 62
     0
 10
92.9199
 20
44.661
 30
0.0
 11
92.1191
 21
44.661
 31
0.0
  0
LINE
  8
0
 62
     0
 10
92.1191
 20
44.661
 30
0.0
 11
92.1191
 21
41.5618
 31
0.0
  0
LINE
  8
0
 62
     0
 10
92.1191
 20
41.5618
 30
0.0
 11
92.9199
 21
41.5618
 31
0.0
  0
LINE
  8
0
 62
     0
 10
92.9199
 20
41.5618
 30
0.0
 11
92.9199
 21
40.5613
 31
0.0
  0
LINE
  8
0
 62
     0
 10
92.9199
 20
40.5613
 30
0.0
 11
106.919
 21
40.5613
 31
0.0
  0
LINE
  8
0
 62
     0
 10
106.919
 20
40.5613
 30
0.0
 11
106.919
 21
41.5618
 31
0.0
  0
LINE
  8
0
 62
     0
 10
106.919
 20
41.5618
 30
0.0
 11
107.719
 21
41.5618
 31
0.0
  0
LINE
  8
0
 62
     0
 10
107.719
 20
41.5618
 30
0.0
 11
107.719
 21
44.661
 31
0.0
  0
LINE
  8
0
 62
     0
 10
107.719
 20
44.661
 30
0.0
 11
106.919
 21
44.661
 31
0.0
  0
LINE
  8
0
 62
     0
 10
106.919
 20
44.661
 30
0.0
 11
106.919
 21
50.4624
 31
0.0
  0
LINE
  8
0
 62
     0
 10
106.919
 20
50.4624
 30
0.0
 11
107.719
 21
50.4624
 31
0.0
  0
LINE
  8
0
 62
     0
 10
107.719
 20
50.4624
 30
0.0
 11
107.719
 21
53.5615
 31
0.0
  0
LINE
  8
0
 62
     0
 10
107.719
 20
53.5615
 30
0.0
 11
106.919
 21
53.5615
 31
0.0
  0
LINE
  8
0
 62
     0
 10
106.919
 20
53.5615
 30
0.0
 11
106.919
 21
54.5606
 31
0.0
  0
LINE
  8
0
 62
     0
 10
106.919
 20
54.5606
 30
0.0
 11
92.9199
 21
54.5606
 31
0.0
  0
LINE
  8
0
 62
     0
 10
111.968
 20
54.5606
 30
0.0
 11
111.968
 21
53.5615
 31
0.0
  0
LINE
  8
0
 62
     0
 10
111.968
 20
53.5615
 30
0.0
 11
111.169
 21
53.5615
 31
0.0
  0
LINE
  8
0
 62
     0
 10
111.169
 20
53.5615
 30
0.0
 11
111.169
 21
50.4624
 31
0.0
  0
LINE
  8
0
 62
     0
 10
111.169
 20
50.4624
 30
0.0
 11
111.968
 21
50.4624
 31
0.0
  0
LINE
  8
0
 62
     0
 10
111.968
 20
50.4624
 30
0.0
 11
111.968
 21
44.661
 31
0.0
  0
LINE
  8
0
 62
     0
 10
111.968
 20
44.661
 30
0.0
 11
111.169
 21
44.661
 31
0.0
  0
LINE
  8
0
 62
     0
 10
111.169
 20
44.661
 30
0.0
 11
111.169
 21
41.5618
 31
0.0
  0
LINE
  8
0
 62
     0
 10
111.169
 20
41.5618
 30
0.0
 11
111.968
 21
41.5618
 31
0.0
  0
LINE
  8
0
 62
     0
 10
111.968
 20
41.5618
 30
0.0
 11
111.968
 21
40.5613
 31
0.0
  0
LINE
  8
0
 62
     0
 10
111.968
 20
40.5613
 30
0.0
 11
125.971
 21
40.5613
 31
0.0
  0
LINE
  8
0
 62
     0
 10
125.971
 20
40.5613
 30
0.0
 11
125.971
 21
41.5618
 31
0.0
  0
LINE
  8
0
 62
     0
 10
125.971
 20
41.5618
 30
0.0
 11
126.77
 21
41.5618
 31
0.0
  0
LINE
  8
0
 62
     0
 10
126.77
 20
41.5618
 30
0.0
 11
126.77
 21
44.661
 31
0.0
  0
LINE
  8
0
 62
     0
 10
126.77
 20
44.661
 30
0.0
 11
125.971
 21
44.661
 31
0.0
  0
LINE
  8
0
 62
     0
 10
125.971
 20
44.661
 30
0.0
 11
125.971
 21
50.4624
 31
0.0
  0
LINE
  8
0
 62
     0
 10
125.971
 20
50.4624
 30
0.0
 11
126.77
 21
50.4624
 31
0.0
  0
LINE
  8
0
 62
     0
 10
126.77
 20
50.4624
 30
0.0
 11
126.77
 21
53.5615
 31
0.0
  0
LINE
  8
0
 62
     0
 10
126.77
 20
53.5615
 30
0.0
 11
125.971
 21
53.5615
 31
0.0
  0
LINE
  8
0
 62
     0
 10
125.971
 20
53.5615
 30
0.0
 11
125.971
 21
54.5606
 31
0.0
  0
LINE
  8
0
 62
     0
 10
125.971
 20
54.5606
 30
0.0
 11
111.968
 21
54.5606
 31
0.0
  0
LINE
  8
0
 62
     0
 10
131.02
 20
54.5606
 30
0.0
 11
131.02
 21
53.5615
 31
0.0
  0
LINE
  8
0
 62
     0
 10
131.02
 20
53.5615
 30
0.0
 11
130.218
 21
53.5615
 31
0.0
  0
LINE
  8
0
 62
     0
 10
130.218
 20
53.5615
 30
0.0
 11
130.218
 21
50.4624
 31
0.0
  0
LINE
  8
0
 62
     0
 10
130.218
 20
50.4624
 30
0.0
 11
131.02
 21
50.4624
 31
0.0
  0
LINE
  8
0
 62
     0
 10
131.02
 20
50.4624
 30
0.0
 11
131.02
 21
44.661
 31
0.0
  0
LINE
  8
0
 62
     0
 10
131.02
 20
44.661
 30
0.0
 11
130.218
 21
44.661
 31
0.0
  0
LINE
  8
0
 62
     0
 10
130.218
 20
44.661
 30
0.0
 11
130.218
 21
41.5618
 31
0.0
  0
LINE
  8
0
 62
     0
 10
130.218
 20
41.5618
 30
0.0
 11
131.02
 21
41.5618
 31
0.0
  0
LINE
  8
0
 62
     0
 10
131.02
 20
41.5618
 30
0.0
 11
131.02
 21
40.5613
 31
0.0
  0
LINE
  8
0
 62
     0
 10
131.02
 20
40.5613
 30
0.0
 11
145.019
 21
40.5613
 31
0.0
  0
LINE
  8
0
 62
     0
 10
145.019
 20
40.5613
 30
0.0
 11
145.019
 21
41.5618
 31
0.0
  0
LINE
  8
0
 62
     0
 10
145.019
 20
41.5618
 30
0.0
 11
145.82
 21
41.5618
 31
0.0
  0
LINE
  8
0
 62
     0
 10
145.82
 20
41.5618
 30
0.0
 11
145.82
 21
44.661
 31
0.0
  0
LINE
  8
0
 62
     0
 10
145.82
 20
44.661
 30
0.0
 11
145.019
 21
44.661
 31
0.0
  0
LINE
  8
0
 62
     0
 10
145.019
 20
44.661
 30
0.0
 11
145.019
 21
50.4624
 31
0.0
  0
LINE
  8
0
 62
     0
 10
145.019
 20
50.4624
 30
0.0
 11
145.82
 21
50.4624
 31
0.0
  0
LINE
  8
0
 62
     0
 10
145.82
 20
50.4624
 30
0.0
 11
145.82
 21
53.5615
 31
0.0
  0
LINE
  8
0
 62
     0
 10
145.82
 20
53.5615
 30
0.0
 11
145.019
 21
53.5615
 31
0.0
  0
LINE
  8
0
 62
     0
 10
145.019
 20
53.5615
 30
0.0
 11
145.019
 21
54.5606
 31
0.0
  0
LINE
  8
0
 62
     0
 10
145.019
 20
54.5606
 30
0.0
 11
131.02
 21
54.5606
 31
0.0
  0
LINE
  8
0
 62
     0
 10
150.07
 20
54.5606
 30
0.0
 11
150.07
 21
53.5615
 31
0.0
  0
LINE
  8
0
 62
     0
 10
150.07
 20
53.5615
 30
0.0
 11
149.269
 21
53.5615
 31
0.0
  0
LINE
  8
0
 62
     0
 10
149.269
 20
53.5615
 30
0.0
 11
149.269
 21
50.4624
 31
0.0
  0
LINE
  8
0
 62
     0
 10
149.269
 20
50.4624
 30
0.0
 11
150.07
 21
50.4624
 31
0.0
  0
LINE
  8
0
 62
     0
 10
150.07
 20
50.4624
 30
0.0
 11
150.07
 21
44.661
 31
0.0
  0
LINE
  8
0
 62
     0
 10
150.07
 20
44.661
 30
0.0
 11
149.269
 21
44.661
 31
0.0
  0
LINE
  8
0
 62
     0
 10
149.269
 20
44.661
 30
0.0
 11
149.269
 21
41.5618
 31
0.0
  0
LINE
  8
0
 62
     0
 10
149.269
 20
41.5618
 30
0.0
 11
150.07
 21
41.5618
 31
0.0
  0
LINE
  8
0
 62
     0
 10
150.07
 20
41.5618
 30
0.0
 11
150.07
 21
40.5613
 31
0.0
  0
LINE
  8
0
 62
     0
 10
150.07
 20
40.5613
 30
0.0
 11
164.069
 21
40.5613
 31
0.0
  0
LINE
  8
0
 62
     0
 10
164.069
 20
40.5613
 30
0.0
 11
164.069
 21
41.5618
 31
0.0
  0
LINE
  8
0
 62
     0
 10
164.069
 20
41.5618
 30
0.0
 11
164.87
 21
41.5618
 31
0.0
  0
LINE
  8
0
 62
     0
 10
164.87
 20
41.5618
 30
0.0
 11
164.87
 21
44.661
 31
0.0
  0
LINE
  8
0
 62
     0
 10
164.87
 20
44.661
 30
0.0
 11
164.069
 21
44.661
 31
0.0
  0
LINE
  8
0
 62
     0
 10
164.069
 20
44.661
 30
0.0
 11
164.069
 21
50.4624
 31
0.0
  0
LINE
  8
0
 62
     0
 10
164.069
 20
50.4624
 30
0.0
 11
164.87
 21
50.4624
 31
0.0
  0
LINE
  8
0
 62
     0
 10
164.87
 20
50.4624
 30
0.0
 11
164.87
 21
53.5615
 31
0.0
  0
LINE
  8
0
 62
     0
 10
164.87
 20
53.5615
 30
0.0
 11
164.069
 21
53.5615
 31
0.0
  0
LINE
  8
0
 62
     0
 10
164.069
 20
53.5615
 30
0.0
 11
164.069
 21
54.5606
 31
0.0
  0
LINE
  8
0
 62
     0
 10
164.069
 20
54.5606
 30
0.0
 11
150.07
 21
54.5606
 31
0.0
  0
LINE
  8
0
 62
     0
 10
169.12
 20
54.5606
 30
0.0
 11
169.12
 21
53.5615
 31
0.0
  0
LINE
  8
0
 62
     0
 10
169.12
 20
53.5615
 30
0.0
 11
168.319
 21
53.5615
 31
0.0
  0
LINE
  8
0
 62
     0
 10
168.319
 20
53.5615
 30
0.0
 11
168.319
 21
50.4624
 31
0.0
  0
LINE
  8
0
 62
     0
 10
168.319
 20
50.4624
 30
0.0
 11
169.12
 21
50.4624
 31
0.0
  0
LINE
  8
0
 62
     0
 10
169.12
 20
50.4624
 30
0.0
 11
169.12
 21
44.661
 31
0.0
  0
LINE
  8
0
 62
     0
 10
169.12
 20
44.661
 30
0.0
 11
168.319
 21
44.661
 31
0.0
  0
LINE
  8
0
 62
     0
 10
168.319
 20
44.661
 30
0.0
 11
168.319
 21
41.5618
 31
0.0
  0
LINE
  8
0
 62
     0
 10
168.319
 20
41.5618
 30
0.0
 11
169.12
 21
41.5618
 31
0.0
  0
LINE
  8
0
 62
     0
 10
169.12
 20
41.5618
 30
0.0
 11
169.12
 21
40.5613
 31
0.0
  0
LINE
  8
0
 62
     0
 10
169.12
 20
40.5613
 30
0.0
 11
183.121
 21
40.5613
 31
0.0
  0
LINE
  8
0
 62
     0
 10
183.121
 20
40.5613
 30
0.0
 11
183.121
 21
41.5618
 31
0.0
  0
LINE
  8
0
 62
     0
 10
183.121
 20
41.5618
 30
0.0
 11
183.92
 21
41.5618
 31
0.0
  0
LINE
  8
0
 62
     0
 10
183.92
 20
41.5618
 30
0.0
 11
183.92
 21
44.661
 31
0.0
  0
LINE
  8
0
 62
     0
 10
183.92
 20
44.661
 30
0.0
 11
183.121
 21
44.661
 31
0.0
  0
LINE
  8
0
 62
     0
 10
183.121
 20
44.661
 30
0.0
 11
183.121
 21
50.4624
 31
0.0
  0
LINE
  8
0
 62
     0
 10
183.121
 20
50.4624
 30
0.0
 11
183.92
 21
50.4624
 31
0.0
  0
LINE
  8
0
 62
     0
 10
183.92
 20
50.4624
 30
0.0
 11
183.92
 21
53.5615
 31
0.0
  0
LINE
  8
0
 62
     0
 10
183.92
 20
53.5615
 30
0.0
 11
183.121
 21
53.5615
 31
0.0
  0
LINE
  8
0
 62
     0
 10
183.121
 20
53.5615
 30
0.0
 11
183.121
 21
54.5606
 31
0.0
  0
LINE
  8
0
 62
     0
 10
183.121
 20
54.5606
 30
0.0
 11
169.12
 21
54.5606
 31
0.0
  0
LINE
  8
0
 62
     0
 10
188.17
 20
54.5606
 30
0.0
 11
188.17
 21
53.5615
 31
0.0
  0
LINE
  8
0
 62
     0
 10
188.17
 20
53.5615
 30
0.0
 11
187.371
 21
53.5615
 31
0.0
  0
LINE
  8
0
 62
     0
 10
187.371
 20
53.5615
 30
0.0
 11
187.371
 21
50.4624
 31
0.0
  0
LINE
  8
0
 62
     0
 10
187.371
 20
50.4624
 30
0.0
 11
188.17
 21
50.4624
 31
0.0
  0
LINE
  8
0
 62
     0
 10
188.17
 20
50.4624
 30
0.0
 11
188.17
 21
44.661
 31
0.0
  0
LINE
  8
0
 62
     0
 10
188.17
 20
44.661
 30
0.0
 11
187.371
 21
44.661
 31
0.0
  0
LINE
  8
0
 62
     0
 10
187.371
 20
44.661
 30
0.0
 11
187.371
 21
41.5618
 31
0.0
  0
LINE
  8
0
 62
     0
 10
187.371
 20
41.5618
 30
0.0
 11
188.17
 21
41.5618
 31
0.0
  0
LINE
  8
0
 62
     0
 10
188.17
 20
41.5618
 30
0.0
 11
188.17
 21
40.5613
 31
0.0
  0
LINE
  8
0
 62
     0
 10
188.17
 20
40.5613
 30
0.0
 11
202.169
 21
40.5613
 31
0.0
  0
LINE
  8
0
 62
     0
 10
202.169
 20
40.5613
 30
0.0
 11
202.169
 21
41.5618
 31
0.0
  0
LINE
  8
0
 62
     0
 10
202.169
 20
41.5618
 30
0.0
 11
202.97
 21
41.5618
 31
0.0
  0
LINE
  8
0
 62
     0
 10
202.97
 20
41.5618
 30
0.0
 11
202.97
 21
44.661
 31
0.0
  0
LINE
  8
0
 62
     0
 10
202.97
 20
44.661
 30
0.0
 11
202.169
 21
44.661
 31
0.0
  0
LINE
  8
0
 62
     0
 10
202.169
 20
44.661
 30
0.0
 11
202.169
 21
50.4624
 31
0.0
  0
LINE
  8
0
 62
     0
 10
202.169
 20
50.4624
 30
0.0
 11
202.97
 21
50.4624
 31
0.0
  0
LINE
  8
0
 62
     0
 10
202.97
 20
50.4624
 30
0.0
 11
202.97
 21
53.5615
 31
0.0
  0
LINE
  8
0
 62
     0
 10
202.97
 20
53.5615
 30
0.0
 11
202.169
 21
53.5615
 31
0.0
  0
LINE
  8
0
 62
     0
 10
202.169
 20
53.5615
 30
0.0
 11
202.169
 21
54.5606
 31
0.0
  0
LINE
  8
0
 62
     0
 10
202.169
 20
54.5606
 30
0.0
 11
188.17
 21
54.5606
 31
0.0
  0
LINE
  8
0
 62
     0
 10
207.22
 20
54.5606
 30
0.0
 11
207.22
 21
53.5615
 31
0.0
  0
LINE
  8
0
 62
     0
 10
207.22
 20
53.5615
 30
0.0
 11
206.419
 21
53.5615
 31
0.0
  0
LINE
  8
0
 62
     0
 10
206.419
 20
53.5615
 30
0.0
 11
206.419
 21
50.4624
 31
0.0
  0
LINE
  8
0
 62
     0
 10
206.419
 20
50.4624
 30
0.0
 11
207.22
 21
50.4624
 31
0.0
  0
LINE
  8
0
 62
     0
 10
207.22
 20
50.4624
 30
0.0
 11
207.22
 21
44.661
 31
0.0
  0
LINE
  8
0
 62
     0
 10
207.22
 20
44.661
 30
0.0
 11
206.419
 21
44.661
 31
0.0
  0
LINE
  8
0
 62
     0
 10
206.419
 20
44.661
 30
0.0
 11
206.419
 21
41.5618
 31
0.0
  0
LINE
  8
0
 62
     0
 10
206.419
 20
41.5618
 30
0.0
 11
207.22
 21
41.5618
 31
0.0
  0
LINE
  8
0
 62
     0
 10
207.22
 20
41.5618
 30
0.0
 11
207.22
 21
40.5613
 31
0.0
  0
LINE
  8
0
 62
     0
 10
207.22
 20
40.5613
 30
0.0
 11
221.221
 21
40.5613
 31
0.0
  0
LINE
  8
0
 62
     0
 10
221.221
 20
40.5613
 30
0.0
 11
221.221
 21
41.5618
 31
0.0
  0
LINE
  8
0
 62
     0
 10
221.221
 20
41.5618
 30
0.0
 11
222.02
 21
41.5618
 31
0.0
  0
LINE
  8
0
 62
     0
 10
222.02
 20
41.5618
 30
0.0
 11
222.02
 21
44.661
 31
0.0
  0
LINE
  8
0
 62
     0
 10
222.02
 20
44.661
 30
0.0
 11
221.221
 21
44.661
 31
0.0
  0
LINE
  8
0
 62
     0
 10
221.221
 20
44.661
 30
0.0
 11
221.221
 21
50.4624
 31
0.0
  0
LINE
  8
0
 62
     0
 10
221.221
 20
50.4624
 30
0.0
 11
222.02
 21
50.4624
 31
0.0
  0
LINE
  8
0
 62
     0
 10
222.02
 20
50.4624
 30
0.0
 11
222.02
 21
53.5615
 31
0.0
  0
LINE
  8
0
 62
     0
 10
222.02
 20
53.5615
 30
0.0
 11
221.221
 21
53.5615
 31
0.0
  0
LINE
  8
0
 62
     0
 10
221.221
 20
53.5615
 30
0.0
 11
221.221
 21
54.5606
 31
0.0
  0
LINE
  8
0
 62
     0
 10
221.221
 20
54.5606
 30
0.0
 11
207.22
 21
54.5606
 31
0.0
  0
LINE
  8
0
 62
     0
 10
226.27
 20
54.5606
 30
0.0
 11
226.27
 21
53.5615
 31
0.0
  0
LINE
  8
0
 62
     0
 10
226.27
 20
53.5615
 30
0.0
 11
225.471
 21
53.5615
 31
0.0
  0
LINE
  8
0
 62
     0
 10
225.471
 20
53.5615
 30
0.0
 11
225.471
 21
50.4624
 31
0.0
  0
LINE
  8
0
 62
     0
 10
225.471
 20
50.4624
 30
0.0
 11
226.27
 21
50.4624
 31
0.0
  0
LINE
  8
0
 62
     0
 10
226.27
 20
50.4624
 30
0.0
 11
226.27
 21
44.661
 31
0.0
  0
LINE
  8
0
 62
     0
 10
226.27
 20
44.661
 30
0.0
 11
225.471
 21
44.661
 31
0.0
  0
LINE
  8
0
 62
     0
 10
225.471
 20
44.661
 30
0.0
 11
225.471
 21
41.5618
 31
0.0
  0
LINE
  8
0
 62
     0
 10
225.471
 20
41.5618
 30
0.0
 11
226.27
 21
41.5618
 31
0.0
  0
LINE
  8
0
 62
     0
 10
226.27
 20
41.5618
 30
0.0
 11
226.27
 21
40.5613
 31
0.0
  0
LINE
  8
0
 62
     0
 10
226.27
 20
40.5613
 30
0.0
 11
240.271
 21
40.5613
 31
0.0
  0
LINE
  8
0
 62
     0
 10
240.271
 20
40.5613
 30
0.0
 11
240.271
 21
41.5618
 31
0.0
  0
LINE
  8
0
 62
     0
 10
240.271
 20
41.5618
 30
0.0
 11
241.07
 21
41.5618
 31
0.0
  0
LINE
  8
0
 62
     0
 10
241.07
 20
41.5618
 30
0.0
 11
241.07
 21
44.661
 31
0.0
  0
LINE
  8
0
 62
     0
 10
241.07
 20
44.661
 30
0.0
 11
240.271
 21
44.661
 31
0.0
  0
LINE
  8
0
 62
     0
 10
240.271
 20
44.661
 30
0.0
 11
240.271
 21
50.4624
 31
0.0
  0
LINE
  8
0
 62
     0
 10
240.271
 20
50.4624
 30
0.0
 11
241.07
 21
50.4624
 31
0.0
  0
LINE
  8
0
 62
     0
 10
241.07
 20
50.4624
 30
0.0
 11
241.07
 21
53.5615
 31
0.0
  0
LINE
  8
0
 62
     0
 10
241.07
 20
53.5615
 30
0.0
 11
240.271
 21
53.5615
 31
0.0
  0
LINE
  8
0
 62
     0
 10
240.271
 20
53.5615
 30
0.0
 11
240.271
 21
54.5606
 31
0.0
  0
LINE
  8
0
 62
     0
 10
240.271
 20
54.5606
 30
0.0
 11
226.27
 21
54.5606
 31
0.0
  0
LINE
  8
0
 62
     0
 10
127.71
 20
49.9389
 30
0.0
 11
127.014
 21
49.5847
 31
0.0
  0
LINE
  8
0
 62
     0
 10
127.014
 20
49.5847
 30
0.0
 11
126.46
 21
49.0305
 31
0.0
  0
LINE
  8
0
 62
     0
 10
126.46
 20
49.0305
 30
0.0
 11
126.103
 21
48.3348
 31
0.0
  0
LINE
  8
0
 62
     0
 10
126.103
 20
48.3348
 30
0.0
 11
125.983
 21
47.5601
 31
0.0
  0
LINE
  8
0
 62
     0
 10
125.983
 20
47.5601
 30
0.0
 11
126.103
 21
46.7886
 31
0.0
  0
LINE
  8
0
 62
     0
 10
126.103
 20
46.7886
 30
0.0
 11
126.46
 21
46.0911
 31
0.0
  0
LINE
  8
0
 62
     0
 10
126.46
 20
46.0911
 30
0.0
 11
127.014
 21
45.5387
 31
0.0
  0
LINE
  8
0
 62
     0
 10
127.014
 20
45.5387
 30
0.0
 11
127.71
 21
45.1831
 31
0.0
  0
LINE
  8
0
 62
     0
 10
127.71
 20
45.1831
 30
0.0
 11
128.483
 21
45.0603
 31
0.0
  0
LINE
  8
0
 62
     0
 10
128.483
 20
45.0603
 30
0.0
 11
129.256
 21
45.1831
 31
0.0
  0
LINE
  8
0
 62
     0
 10
129.256
 20
45.1831
 30
0.0
 11
129.952
 21
45.5387
 31
0.0
  0
LINE
  8
0
 62
     0
 10
129.952
 20
45.5387
 30
0.0
 11
130.506
 21
46.0911
 31
0.0
  0
LINE
  8
0
 62
     0
 10
130.506
 20
46.0911
 30
0.0
 11
130.86
 21
46.7886
 31
0.0
  0
LINE
  8
0
 62
     0
 10
130.86
 20
46.7886
 30
0.0
 11
130.984
 21
47.5601
 31
0.0
  0
LINE
  8
0
 62
     0
 10
130.984
 20
47.5601
 30
0.0
 11
130.86
 21
48.3348
 31
0.0
  0
LINE
  8
0
 62
     0
 10
130.86
 20
48.3348
 30
0.0
 11
130.506
 21
49.0305
 31
0.0
  0
LINE
  8
0
 62
     0
 10
130.506
 20
49.0305
 30
0.0
 11
129.952
 21
49.5847
 31
0.0
  0
LINE
  8
0
 62
     0
 10
129.952
 20
49.5847
 30
0.0
 11
129.256
 21
49.9389
 31
0.0
  0
LINE
  8
0
 62
     0
 10
129.256
 20
49.9389
 30
0.0
 11
128.483
 21
50.0599
 31
0.0
  0
LINE
  8
0
 62
     0
 10
128.483
 20
50.0599
 30
0.0
 11
127.71
 21
49.9389
 31
0.0
  0
LINE
  8
0
 62
     0
 10
271.225
 20
50.0874
 30
0.0
 11
271.45
 21
50.0874
 31
0.0
  0
LINE
  8
0
 62
     0
 10
271.45
 20
50.0874
 30
0.0
 11
271.45
 21
49.8616
 31
0.0
  0
LINE
  8
0
 62
     0
 10
271.45
 20
49.8616
 30
0.0
 11
271.225
 21
49.8616
 31
0.0
  0
LINE
  8
0
 62
     0
 10
271.225
 20
49.8616
 30
0.0
 11
271.225
 21
50.0874
 31
0.0
  0
LINE
  8
0
 62
     0
 10
7.19473
 20
73.612
 30
0.0
 11
7.19473
 21
72.6115
 31
0.0
  0
LINE
  8
0
 62
     0
 10
7.19473
 20
72.6115
 30
0.0
 11
6.39547
 21
72.6115
 31
0.0
  0
LINE
  8
0
 62
     0
 10
6.39547
 20
72.6115
 30
0.0
 11
6.39547
 21
69.5124
 31
0.0
  0
LINE
  8
0
 62
     0
 10
6.39547
 20
69.5124
 30
0.0
 11
7.19473
 21
69.5124
 31
0.0
  0
LINE
  8
0
 62
     0
 10
7.19473
 20
69.5124
 30
0.0
 11
7.19473
 21
63.7124
 31
0.0
  0
LINE
  8
0
 62
     0
 10
7.19473
 20
63.7124
 30
0.0
 11
6.39547
 21
63.7124
 31
0.0
  0
LINE
  8
0
 62
     0
 10
6.39547
 20
63.7124
 30
0.0
 11
6.39547
 21
60.6118
 31
0.0
  0
LINE
  8
0
 62
     0
 10
6.39547
 20
60.6118
 30
0.0
 11
7.19473
 21
60.6118
 31
0.0
  0
LINE
  8
0
 62
     0
 10
7.19473
 20
60.6118
 30
0.0
 11
7.19473
 21
59.6124
 31
0.0
  0
LINE
  8
0
 62
     0
 10
7.19473
 20
59.6124
 30
0.0
 11
21.1956
 21
59.6124
 31
0.0
  0
LINE
  8
0
 62
     0
 10
21.1956
 20
59.6124
 30
0.0
 11
21.1956
 21
60.6118
 31
0.0
  0
LINE
  8
0
 62
     0
 10
21.1956
 20
60.6118
 30
0.0
 11
21.9949
 21
60.6118
 31
0.0
  0
LINE
  8
0
 62
     0
 10
21.9949
 20
60.6118
 30
0.0
 11
21.9949
 21
63.7124
 31
0.0
  0
LINE
  8
0
 62
     0
 10
21.9949
 20
63.7124
 30
0.0
 11
21.1956
 21
63.7124
 31
0.0
  0
LINE
  8
0
 62
     0
 10
21.1956
 20
63.7124
 30
0.0
 11
21.1956
 21
69.5124
 31
0.0
  0
LINE
  8
0
 62
     0
 10
21.1956
 20
69.5124
 30
0.0
 11
21.9949
 21
69.5124
 31
0.0
  0
LINE
  8
0
 62
     0
 10
21.9949
 20
69.5124
 30
0.0
 11
21.9949
 21
72.6115
 31
0.0
  0
LINE
  8
0
 62
     0
 10
21.9949
 20
72.6115
 30
0.0
 11
21.1956
 21
72.6115
 31
0.0
  0
LINE
  8
0
 62
     0
 10
21.1956
 20
72.6115
 30
0.0
 11
21.1956
 21
73.612
 31
0.0
  0
LINE
  8
0
 62
     0
 10
21.1956
 20
73.612
 30
0.0
 11
7.19473
 21
73.612
 31
0.0
  0
LINE
  8
0
 62
     0
 10
31.0059
 20
73.612
 30
0.0
 11
31.0059
 21
72.6115
 31
0.0
  0
LINE
  8
0
 62
     0
 10
31.0059
 20
72.6115
 30
0.0
 11
30.2066
 21
72.6115
 31
0.0
  0
LINE
  8
0
 62
     0
 10
30.2066
 20
72.6115
 30
0.0
 11
30.2066
 21
69.5124
 31
0.0
  0
LINE
  8
0
 62
     0
 10
30.2066
 20
69.5124
 30
0.0
 11
31.0059
 21
69.5124
 31
0.0
  0
LINE
  8
0
 62
     0
 10
31.0059
 20
69.5124
 30
0.0
 11
31.0059
 21
63.7124
 31
0.0
  0
LINE
  8
0
 62
     0
 10
31.0059
 20
63.7124
 30
0.0
 11
30.2066
 21
63.7124
 31
0.0
  0
LINE
  8
0
 62
     0
 10
30.2066
 20
63.7124
 30
0.0
 11
30.2066
 21
60.6118
 31
0.0
  0
LINE
  8
0
 62
     0
 10
30.2066
 20
60.6118
 30
0.0
 11
31.0059
 21
60.6118
 31
0.0
  0
LINE
  8
0
 62
     0
 10
31.0059
 20
60.6118
 30
0.0
 11
31.0059
 21
59.6124
 31
0.0
  0
LINE
  8
0
 62
     0
 10
31.0059
 20
59.6124
 30
0.0
 11
45.0067
 21
59.6124
 31
0.0
  0
LINE
  8
0
 62
     0
 10
45.0067
 20
59.6124
 30
0.0
 11
45.0067
 21
60.6118
 31
0.0
  0
LINE
  8
0
 62
     0
 10
45.0067
 20
60.6118
 30
0.0
 11
45.8075
 21
60.6118
 31
0.0
  0
LINE
  8
0
 62
     0
 10
45.8075
 20
60.6118
 30
0.0
 11
45.8075
 21
63.7124
 31
0.0
  0
LINE
  8
0
 62
     0
 10
45.8075
 20
63.7124
 30
0.0
 11
45.0067
 21
63.7124
 31
0.0
  0
LINE
  8
0
 62
     0
 10
45.0067
 20
63.7124
 30
0.0
 11
45.0067
 21
69.5124
 31
0.0
  0
LINE
  8
0
 62
     0
 10
45.0067
 20
69.5124
 30
0.0
 11
45.8075
 21
69.5124
 31
0.0
  0
LINE
  8
0
 62
     0
 10
45.8075
 20
69.5124
 30
0.0
 11
45.8075
 21
72.6115
 31
0.0
  0
LINE
  8
0
 62
     0
 10
45.8075
 20
72.6115
 30
0.0
 11
45.0067
 21
72.6115
 31
0.0
  0
LINE
  8
0
 62
     0
 10
45.0067
 20
72.6115
 30
0.0
 11
45.0067
 21
73.612
 31
0.0
  0
LINE
  8
0
 62
     0
 10
45.0067
 20
73.612
 30
0.0
 11
31.0059
 21
73.612
 31
0.0
  0
LINE
  8
0
 62
     0
 10
50.0574
 20
73.612
 30
0.0
 11
50.0574
 21
72.6115
 31
0.0
  0
LINE
  8
0
 62
     0
 10
50.0574
 20
72.6115
 30
0.0
 11
49.2566
 21
72.6115
 31
0.0
  0
LINE
  8
0
 62
     0
 10
49.2566
 20
72.6115
 30
0.0
 11
49.2566
 21
69.5124
 31
0.0
  0
LINE
  8
0
 62
     0
 10
49.2566
 20
69.5124
 30
0.0
 11
50.0574
 21
69.5124
 31
0.0
  0
LINE
  8
0
 62
     0
 10
50.0574
 20
69.5124
 30
0.0
 11
50.0574
 21
63.7124
 31
0.0
  0
LINE
  8
0
 62
     0
 10
50.0574
 20
63.7124
 30
0.0
 11
49.2566
 21
63.7124
 31
0.0
  0
LINE
  8
0
 62
     0
 10
49.2566
 20
63.7124
 30
0.0
 11
49.2566
 21
60.6118
 31
0.0
  0
LINE
  8
0
 62
     0
 10
49.2566
 20
60.6118
 30
0.0
 11
50.0574
 21
60.6118
 31
0.0
  0
LINE
  8
0
 62
     0
 10
50.0574
 20
60.6118
 30
0.0
 11
50.0574
 21
59.6124
 31
0.0
  0
LINE
  8
0
 62
     0
 10
50.0574
 20
59.6124
 30
0.0
 11
64.0567
 21
59.6124
 31
0.0
  0
LINE
  8
0
 62
     0
 10
64.0567
 20
59.6124
 30
0.0
 11
64.0567
 21
60.6118
 31
0.0
  0
LINE
  8
0
 62
     0
 10
64.0567
 20
60.6118
 30
0.0
 11
64.8575
 21
60.6118
 31
0.0
  0
LINE
  8
0
 62
     0
 10
64.8575
 20
60.6118
 30
0.0
 11
64.8575
 21
63.7124
 31
0.0
  0
LINE
  8
0
 62
     0
 10
64.8575
 20
63.7124
 30
0.0
 11
64.0567
 21
63.7124
 31
0.0
  0
LINE
  8
0
 62
     0
 10
64.0567
 20
63.7124
 30
0.0
 11
64.0567
 21
69.5124
 31
0.0
  0
LINE
  8
0
 62
     0
 10
64.0567
 20
69.5124
 30
0.0
 11
64.8575
 21
69.5124
 31
0.0
  0
LINE
  8
0
 62
     0
 10
64.8575
 20
69.5124
 30
0.0
 11
64.8575
 21
72.6115
 31
0.0
  0
LINE
  8
0
 62
     0
 10
64.8575
 20
72.6115
 30
0.0
 11
64.0567
 21
72.6115
 31
0.0
  0
LINE
  8
0
 62
     0
 10
64.0567
 20
72.6115
 30
0.0
 11
64.0567
 21
73.612
 31
0.0
  0
LINE
  8
0
 62
     0
 10
64.0567
 20
73.612
 30
0.0
 11
50.0574
 21
73.612
 31
0.0
  0
LINE
  8
0
 62
     0
 10
69.1074
 20
73.612
 30
0.0
 11
69.1074
 21
72.6115
 31
0.0
  0
LINE
  8
0
 62
     0
 10
69.1074
 20
72.6115
 30
0.0
 11
68.3066
 21
72.6115
 31
0.0
  0
LINE
  8
0
 62
     0
 10
68.3066
 20
72.6115
 30
0.0
 11
68.3066
 21
69.5124
 31
0.0
  0
LINE
  8
0
 62
     0
 10
68.3066
 20
69.5124
 30
0.0
 11
69.1074
 21
69.5124
 31
0.0
  0
LINE
  8
0
 62
     0
 10
69.1074
 20
69.5124
 30
0.0
 11
69.1074
 21
63.7124
 31
0.0
  0
LINE
  8
0
 62
     0
 10
69.1074
 20
63.7124
 30
0.0
 11
68.3066
 21
63.7124
 31
0.0
  0
LINE
  8
0
 62
     0
 10
68.3066
 20
63.7124
 30
0.0
 11
68.3066
 21
60.6118
 31
0.0
  0
LINE
  8
0
 62
     0
 10
68.3066
 20
60.6118
 30
0.0
 11
69.1074
 21
60.6118
 31
0.0
  0
LINE
  8
0
 62
     0
 10
69.1074
 20
60.6118
 30
0.0
 11
69.1074
 21
59.6124
 31
0.0
  0
LINE
  8
0
 62
     0
 10
69.1074
 20
59.6124
 30
0.0
 11
83.1067
 21
59.6124
 31
0.0
  0
LINE
  8
0
 62
     0
 10
83.1067
 20
59.6124
 30
0.0
 11
83.1067
 21
60.6118
 31
0.0
  0
LINE
  8
0
 62
     0
 10
83.1067
 20
60.6118
 30
0.0
 11
83.9075
 21
60.6118
 31
0.0
  0
LINE
  8
0
 62
     0
 10
83.9075
 20
60.6118
 30
0.0
 11
83.9075
 21
63.7124
 31
0.0
  0
LINE
  8
0
 62
     0
 10
83.9075
 20
63.7124
 30
0.0
 11
83.1067
 21
63.7124
 31
0.0
  0
LINE
  8
0
 62
     0
 10
83.1067
 20
63.7124
 30
0.0
 11
83.1067
 21
69.5124
 31
0.0
  0
LINE
  8
0
 62
     0
 10
83.1067
 20
69.5124
 30
0.0
 11
83.9075
 21
69.5124
 31
0.0
  0
LINE
  8
0
 62
     0
 10
83.9075
 20
69.5124
 30
0.0
 11
83.9075
 21
72.6115
 31
0.0
  0
LINE
  8
0
 62
     0
 10
83.9075
 20
72.6115
 30
0.0
 11
83.1067
 21
72.6115
 31
0.0
  0
LINE
  8
0
 62
     0
 10
83.1067
 20
72.6115
 30
0.0
 11
83.1067
 21
73.612
 31
0.0
  0
LINE
  8
0
 62
     0
 10
83.1067
 20
73.612
 30
0.0
 11
69.1074
 21
73.612
 31
0.0
  0
LINE
  8
0
 62
     0
 10
88.1574
 20
73.612
 30
0.0
 11
88.1574
 21
72.6115
 31
0.0
  0
LINE
  8
0
 62
     0
 10
88.1574
 20
72.6115
 30
0.0
 11
87.3566
 21
72.6115
 31
0.0
  0
LINE
  8
0
 62
     0
 10
87.3566
 20
72.6115
 30
0.0
 11
87.3566
 21
69.5124
 31
0.0
  0
LINE
  8
0
 62
     0
 10
87.3566
 20
69.5124
 30
0.0
 11
88.1574
 21
69.5124
 31
0.0
  0
LINE
  8
0
 62
     0
 10
88.1574
 20
69.5124
 30
0.0
 11
88.1574
 21
63.7124
 31
0.0
  0
LINE
  8
0
 62
     0
 10
88.1574
 20
63.7124
 30
0.0
 11
87.3566
 21
63.7124
 31
0.0
  0
LINE
  8
0
 62
     0
 10
87.3566
 20
63.7124
 30
0.0
 11
87.3566
 21
60.6118
 31
0.0
  0
LINE
  8
0
 62
     0
 10
87.3566
 20
60.6118
 30
0.0
 11
88.1574
 21
60.6118
 31
0.0
  0
LINE
  8
0
 62
     0
 10
88.1574
 20
60.6118
 30
0.0
 11
88.1574
 21
59.6124
 31
0.0
  0
LINE
  8
0
 62
     0
 10
88.1574
 20
59.6124
 30
0.0
 11
102.157
 21
59.6124
 31
0.0
  0
LINE
  8
0
 62
     0
 10
102.157
 20
59.6124
 30
0.0
 11
102.157
 21
60.6118
 31
0.0
  0
LINE
  8
0
 62
     0
 10
102.157
 20
60.6118
 30
0.0
 11
102.956
 21
60.6118
 31
0.0
  0
LINE
  8
0
 62
     0
 10
102.956
 20
60.6118
 30
0.0
 11
102.956
 21
63.7124
 31
0.0
  0
LINE
  8
0
 62
     0
 10
102.956
 20
63.7124
 30
0.0
 11
102.157
 21
63.7124
 31
0.0
  0
LINE
  8
0
 62
     0
 10
102.157
 20
63.7124
 30
0.0
 11
102.157
 21
69.5124
 31
0.0
  0
LINE
  8
0
 62
     0
 10
102.157
 20
69.5124
 30
0.0
 11
102.956
 21
69.5124
 31
0.0
  0
LINE
  8
0
 62
     0
 10
102.956
 20
69.5124
 30
0.0
 11
102.956
 21
72.6115
 31
0.0
  0
LINE
  8
0
 62
     0
 10
102.956
 20
72.6115
 30
0.0
 11
102.157
 21
72.6115
 31
0.0
  0
LINE
  8
0
 62
     0
 10
102.157
 20
72.6115
 30
0.0
 11
102.157
 21
73.612
 31
0.0
  0
LINE
  8
0
 62
     0
 10
102.157
 20
73.612
 30
0.0
 11
88.1574
 21
73.612
 31
0.0
  0
LINE
  8
0
 62
     0
 10
107.206
 20
73.612
 30
0.0
 11
107.206
 21
72.6115
 31
0.0
  0
LINE
  8
0
 62
     0
 10
107.206
 20
72.6115
 30
0.0
 11
106.407
 21
72.6115
 31
0.0
  0
LINE
  8
0
 62
     0
 10
106.407
 20
72.6115
 30
0.0
 11
106.407
 21
69.5124
 31
0.0
  0
LINE
  8
0
 62
     0
 10
106.407
 20
69.5124
 30
0.0
 11
107.206
 21
69.5124
 31
0.0
  0
LINE
  8
0
 62
     0
 10
107.206
 20
69.5124
 30
0.0
 11
107.206
 21
63.7124
 31
0.0
  0
LINE
  8
0
 62
     0
 10
107.206
 20
63.7124
 30
0.0
 11
106.407
 21
63.7124
 31
0.0
  0
LINE
  8
0
 62
     0
 10
106.407
 20
63.7124
 30
0.0
 11
106.407
 21
60.6118
 31
0.0
  0
LINE
  8
0
 62
     0
 10
106.407
 20
60.6118
 30
0.0
 11
107.206
 21
60.6118
 31
0.0
  0
LINE
  8
0
 62
     0
 10
107.206
 20
60.6118
 30
0.0
 11
107.206
 21
59.6124
 31
0.0
  0
LINE
  8
0
 62
     0
 10
107.206
 20
59.6124
 30
0.0
 11
121.207
 21
59.6124
 31
0.0
  0
LINE
  8
0
 62
     0
 10
121.207
 20
59.6124
 30
0.0
 11
121.207
 21
60.6118
 31
0.0
  0
LINE
  8
0
 62
     0
 10
121.207
 20
60.6118
 30
0.0
 11
122.007
 21
60.6118
 31
0.0
  0
LINE
  8
0
 62
     0
 10
122.007
 20
60.6118
 30
0.0
 11
122.007
 21
63.7124
 31
0.0
  0
LINE
  8
0
 62
     0
 10
122.007
 20
63.7124
 30
0.0
 11
121.207
 21
63.7124
 31
0.0
  0
LINE
  8
0
 62
     0
 10
121.207
 20
63.7124
 30
0.0
 11
121.207
 21
69.5124
 31
0.0
  0
LINE
  8
0
 62
     0
 10
121.207
 20
69.5124
 30
0.0
 11
122.007
 21
69.5124
 31
0.0
  0
LINE
  8
0
 62
     0
 10
122.007
 20
69.5124
 30
0.0
 11
122.007
 21
72.6115
 31
0.0
  0
LINE
  8
0
 62
     0
 10
122.007
 20
72.6115
 30
0.0
 11
121.207
 21
72.6115
 31
0.0
  0
LINE
  8
0
 62
     0
 10
121.207
 20
72.6115
 30
0.0
 11
121.207
 21
73.612
 31
0.0
  0
LINE
  8
0
 62
     0
 10
121.207
 20
73.612
 30
0.0
 11
107.206
 21
73.612
 31
0.0
  0
LINE
  8
0
 62
     0
 10
126.257
 20
73.612
 30
0.0
 11
126.257
 21
72.6115
 31
0.0
  0
LINE
  8
0
 62
     0
 10
126.257
 20
72.6115
 30
0.0
 11
125.457
 21
72.6115
 31
0.0
  0
LINE
  8
0
 62
     0
 10
125.457
 20
72.6115
 30
0.0
 11
125.457
 21
69.5124
 31
0.0
  0
LINE
  8
0
 62
     0
 10
125.457
 20
69.5124
 30
0.0
 11
126.257
 21
69.5124
 31
0.0
  0
LINE
  8
0
 62
     0
 10
126.257
 20
69.5124
 30
0.0
 11
126.257
 21
63.7124
 31
0.0
  0
LINE
  8
0
 62
     0
 10
126.257
 20
63.7124
 30
0.0
 11
125.457
 21
63.7124
 31
0.0
  0
LINE
  8
0
 62
     0
 10
125.457
 20
63.7124
 30
0.0
 11
125.457
 21
60.6118
 31
0.0
  0
LINE
  8
0
 62
     0
 10
125.457
 20
60.6118
 30
0.0
 11
126.257
 21
60.6118
 31
0.0
  0
LINE
  8
0
 62
     0
 10
126.257
 20
60.6118
 30
0.0
 11
126.257
 21
59.6124
 31
0.0
  0
LINE
  8
0
 62
     0
 10
126.257
 20
59.6124
 30
0.0
 11
140.257
 21
59.6124
 31
0.0
  0
LINE
  8
0
 62
     0
 10
140.257
 20
59.6124
 30
0.0
 11
140.257
 21
60.6118
 31
0.0
  0
LINE
  8
0
 62
     0
 10
140.257
 20
60.6118
 30
0.0
 11
141.056
 21
60.6118
 31
0.0
  0
LINE
  8
0
 62
     0
 10
141.056
 20
60.6118
 30
0.0
 11
141.056
 21
63.7124
 31
0.0
  0
LINE
  8
0
 62
     0
 10
141.056
 20
63.7124
 30
0.0
 11
140.257
 21
63.7124
 31
0.0
  0
LINE
  8
0
 62
     0
 10
140.257
 20
63.7124
 30
0.0
 11
140.257
 21
69.5124
 31
0.0
  0
LINE
  8
0
 62
     0
 10
140.257
 20
69.5124
 30
0.0
 11
141.056
 21
69.5124
 31
0.0
  0
LINE
  8
0
 62
     0
 10
141.056
 20
69.5124
 30
0.0
 11
141.056
 21
72.6115
 31
0.0
  0
LINE
  8
0
 62
     0
 10
141.056
 20
72.6115
 30
0.0
 11
140.257
 21
72.6115
 31
0.0
  0
LINE
  8
0
 62
     0
 10
140.257
 20
72.6115
 30
0.0
 11
140.257
 21
73.612
 31
0.0
  0
LINE
  8
0
 62
     0
 10
140.257
 20
73.612
 30
0.0
 11
126.257
 21
73.612
 31
0.0
  0
LINE
  8
0
 62
     0
 10
145.306
 20
73.612
 30
0.0
 11
145.306
 21
72.6115
 31
0.0
  0
LINE
  8
0
 62
     0
 10
145.306
 20
72.6115
 30
0.0
 11
144.507
 21
72.6115
 31
0.0
  0
LINE
  8
0
 62
     0
 10
144.507
 20
72.6115
 30
0.0
 11
144.507
 21
69.5124
 31
0.0
  0
LINE
  8
0
 62
     0
 10
144.507
 20
69.5124
 30
0.0
 11
145.306
 21
69.5124
 31
0.0
  0
LINE
  8
0
 62
     0
 10
145.306
 20
69.5124
 30
0.0
 11
145.306
 21
63.7124
 31
0.0
  0
LINE
  8
0
 62
     0
 10
145.306
 20
63.7124
 30
0.0
 11
144.507
 21
63.7124
 31
0.0
  0
LINE
  8
0
 62
     0
 10
144.507
 20
63.7124
 30
0.0
 11
144.507
 21
60.6118
 31
0.0
  0
LINE
  8
0
 62
     0
 10
144.507
 20
60.6118
 30
0.0
 11
145.306
 21
60.6118
 31
0.0
  0
LINE
  8
0
 62
     0
 10
145.306
 20
60.6118
 30
0.0
 11
145.306
 21
59.6124
 31
0.0
  0
LINE
  8
0
 62
     0
 10
145.306
 20
59.6124
 30
0.0
 11
159.307
 21
59.6124
 31
0.0
  0
LINE
  8
0
 62
     0
 10
159.307
 20
59.6124
 30
0.0
 11
159.307
 21
60.6118
 31
0.0
  0
LINE
  8
0
 62
     0
 10
159.307
 20
60.6118
 30
0.0
 11
160.107
 21
60.6118
 31
0.0
  0
LINE
  8
0
 62
     0
 10
160.107
 20
60.6118
 30
0.0
 11
160.107
 21
63.7124
 31
0.0
  0
LINE
  8
0
 62
     0
 10
160.107
 20
63.7124
 30
0.0
 11
159.307
 21
63.7124
 31
0.0
  0
LINE
  8
0
 62
     0
 10
159.307
 20
63.7124
 30
0.0
 11
159.307
 21
69.5124
 31
0.0
  0
LINE
  8
0
 62
     0
 10
159.307
 20
69.5124
 30
0.0
 11
160.107
 21
69.5124
 31
0.0
  0
LINE
  8
0
 62
     0
 10
160.107
 20
69.5124
 30
0.0
 11
160.107
 21
72.6115
 31
0.0
  0
LINE
  8
0
 62
     0
 10
160.107
 20
72.6115
 30
0.0
 11
159.307
 21
72.6115
 31
0.0
  0
LINE
  8
0
 62
     0
 10
159.307
 20
72.6115
 30
0.0
 11
159.307
 21
73.612
 31
0.0
  0
LINE
  8
0
 62
     0
 10
159.307
 20
73.612
 30
0.0
 11
145.306
 21
73.612
 31
0.0
  0
LINE
  8
0
 62
     0
 10
164.357
 20
73.612
 30
0.0
 11
164.357
 21
72.6115
 31
0.0
  0
LINE
  8
0
 62
     0
 10
164.357
 20
72.6115
 30
0.0
 11
163.557
 21
72.6115
 31
0.0
  0
LINE
  8
0
 62
     0
 10
163.557
 20
72.6115
 30
0.0
 11
163.557
 21
69.5124
 31
0.0
  0
LINE
  8
0
 62
     0
 10
163.557
 20
69.5124
 30
0.0
 11
164.357
 21
69.5124
 31
0.0
  0
LINE
  8
0
 62
     0
 10
164.357
 20
69.5124
 30
0.0
 11
164.357
 21
63.7124
 31
0.0
  0
LINE
  8
0
 62
     0
 10
164.357
 20
63.7124
 30
0.0
 11
163.557
 21
63.7124
 31
0.0
  0
LINE
  8
0
 62
     0
 10
163.557
 20
63.7124
 30
0.0
 11
163.557
 21
60.6118
 31
0.0
  0
LINE
  8
0
 62
     0
 10
163.557
 20
60.6118
 30
0.0
 11
164.357
 21
60.6118
 31
0.0
  0
LINE
  8
0
 62
     0
 10
164.357
 20
60.6118
 30
0.0
 11
164.357
 21
59.6124
 31
0.0
  0
LINE
  8
0
 62
     0
 10
164.357
 20
59.6124
 30
0.0
 11
178.357
 21
59.6124
 31
0.0
  0
LINE
  8
0
 62
     0
 10
178.357
 20
59.6124
 30
0.0
 11
178.357
 21
60.6118
 31
0.0
  0
LINE
  8
0
 62
     0
 10
178.357
 20
60.6118
 30
0.0
 11
179.157
 21
60.6118
 31
0.0
  0
LINE
  8
0
 62
     0
 10
179.157
 20
60.6118
 30
0.0
 11
179.157
 21
63.7124
 31
0.0
  0
LINE
  8
0
 62
     0
 10
179.157
 20
63.7124
 30
0.0
 11
178.357
 21
63.7124
 31
0.0
  0
LINE
  8
0
 62
     0
 10
178.357
 20
63.7124
 30
0.0
 11
178.357
 21
69.5124
 31
0.0
  0
LINE
  8
0
 62
     0
 10
178.357
 20
69.5124
 30
0.0
 11
179.157
 21
69.5124
 31
0.0
  0
LINE
  8
0
 62
     0
 10
179.157
 20
69.5124
 30
0.0
 11
179.157
 21
72.6115
 31
0.0
  0
LINE
  8
0
 62
     0
 10
179.157
 20
72.6115
 30
0.0
 11
178.357
 21
72.6115
 31
0.0
  0
LINE
  8
0
 62
     0
 10
178.357
 20
72.6115
 30
0.0
 11
178.357
 21
73.612
 31
0.0
  0
LINE
  8
0
 62
     0
 10
178.357
 20
73.612
 30
0.0
 11
164.357
 21
73.612
 31
0.0
  0
LINE
  8
0
 62
     0
 10
183.407
 20
73.612
 30
0.0
 11
183.407
 21
72.6115
 31
0.0
  0
LINE
  8
0
 62
     0
 10
183.407
 20
72.6115
 30
0.0
 11
182.607
 21
72.6115
 31
0.0
  0
LINE
  8
0
 62
     0
 10
182.607
 20
72.6115
 30
0.0
 11
182.607
 21
69.5124
 31
0.0
  0
LINE
  8
0
 62
     0
 10
182.607
 20
69.5124
 30
0.0
 11
183.407
 21
69.5124
 31
0.0
  0
LINE
  8
0
 62
     0
 10
183.407
 20
69.5124
 30
0.0
 11
183.407
 21
63.7124
 31
0.0
  0
LINE
  8
0
 62
     0
 10
183.407
 20
63.7124
 30
0.0
 11
182.607
 21
63.7124
 31
0.0
  0
LINE
  8
0
 62
     0
 10
182.607
 20
63.7124
 30
0.0
 11
182.607
 21
60.6118
 31
0.0
  0
LINE
  8
0
 62
     0
 10
182.607
 20
60.6118
 30
0.0
 11
183.407
 21
60.6118
 31
0.0
  0
LINE
  8
0
 62
     0
 10
183.407
 20
60.6118
 30
0.0
 11
183.407
 21
59.6124
 31
0.0
  0
LINE
  8
0
 62
     0
 10
183.407
 20
59.6124
 30
0.0
 11
197.407
 21
59.6124
 31
0.0
  0
LINE
  8
0
 62
     0
 10
197.407
 20
59.6124
 30
0.0
 11
197.407
 21
60.6118
 31
0.0
  0
LINE
  8
0
 62
     0
 10
197.407
 20
60.6118
 30
0.0
 11
198.206
 21
60.6118
 31
0.0
  0
LINE
  8
0
 62
     0
 10
198.206
 20
60.6118
 30
0.0
 11
198.206
 21
63.7124
 31
0.0
  0
LINE
  8
0
 62
     0
 10
198.206
 20
63.7124
 30
0.0
 11
197.407
 21
63.7124
 31
0.0
  0
LINE
  8
0
 62
     0
 10
197.407
 20
63.7124
 30
0.0
 11
197.407
 21
69.5124
 31
0.0
  0
LINE
  8
0
 62
     0
 10
197.407
 20
69.5124
 30
0.0
 11
198.206
 21
69.5124
 31
0.0
  0
LINE
  8
0
 62
     0
 10
198.206
 20
69.5124
 30
0.0
 11
198.206
 21
72.6115
 31
0.0
  0
LINE
  8
0
 62
     0
 10
198.206
 20
72.6115
 30
0.0
 11
197.407
 21
72.6115
 31
0.0
  0
LINE
  8
0
 62
     0
 10
197.407
 20
72.6115
 30
0.0
 11
197.407
 21
73.612
 31
0.0
  0
LINE
  8
0
 62
     0
 10
197.407
 20
73.612
 30
0.0
 11
183.407
 21
73.612
 31
0.0
  0
LINE
  8
0
 62
     0
 10
202.456
 20
73.612
 30
0.0
 11
202.456
 21
72.6115
 31
0.0
  0
LINE
  8
0
 62
     0
 10
202.456
 20
72.6115
 30
0.0
 11
201.657
 21
72.6115
 31
0.0
  0
LINE
  8
0
 62
     0
 10
201.657
 20
72.6115
 30
0.0
 11
201.657
 21
69.5124
 31
0.0
  0
LINE
  8
0
 62
     0
 10
201.657
 20
69.5124
 30
0.0
 11
202.456
 21
69.5124
 31
0.0
  0
LINE
  8
0
 62
     0
 10
202.456
 20
69.5124
 30
0.0
 11
202.456
 21
63.7124
 31
0.0
  0
LINE
  8
0
 62
     0
 10
202.456
 20
63.7124
 30
0.0
 11
201.657
 21
63.7124
 31
0.0
  0
LINE
  8
0
 62
     0
 10
201.657
 20
63.7124
 30
0.0
 11
201.657
 21
60.6118
 31
0.0
  0
LINE
  8
0
 62
     0
 10
201.657
 20
60.6118
 30
0.0
 11
202.456
 21
60.6118
 31
0.0
  0
LINE
  8
0
 62
     0
 10
202.456
 20
60.6118
 30
0.0
 11
202.456
 21
59.6124
 31
0.0
  0
LINE
  8
0
 62
     0
 10
202.456
 20
59.6124
 30
0.0
 11
216.457
 21
59.6124
 31
0.0
  0
LINE
  8
0
 62
     0
 10
216.457
 20
59.6124
 30
0.0
 11
216.457
 21
60.6118
 31
0.0
  0
LINE
  8
0
 62
     0
 10
216.457
 20
60.6118
 30
0.0
 11
217.257
 21
60.6118
 31
0.0
  0
LINE
  8
0
 62
     0
 10
217.257
 20
60.6118
 30
0.0
 11
217.257
 21
63.7124
 31
0.0
  0
LINE
  8
0
 62
     0
 10
217.257
 20
63.7124
 30
0.0
 11
216.457
 21
63.7124
 31
0.0
  0
LINE
  8
0
 62
     0
 10
216.457
 20
63.7124
 30
0.0
 11
216.457
 21
69.5124
 31
0.0
  0
LINE
  8
0
 62
     0
 10
216.457
 20
69.5124
 30
0.0
 11
217.257
 21
69.5124
 31
0.0
  0
LINE
  8
0
 62
     0
 10
217.257
 20
69.5124
 30
0.0
 11
217.257
 21
72.6115
 31
0.0
  0
LINE
  8
0
 62
     0
 10
217.257
 20
72.6115
 30
0.0
 11
216.457
 21
72.6115
 31
0.0
  0
LINE
  8
0
 62
     0
 10
216.457
 20
72.6115
 30
0.0
 11
216.457
 21
73.612
 31
0.0
  0
LINE
  8
0
 62
     0
 10
216.457
 20
73.612
 30
0.0
 11
202.456
 21
73.612
 31
0.0
  0
LINE
  8
0
 62
     0
 10
221.507
 20
73.612
 30
0.0
 11
221.507
 21
72.6115
 31
0.0
  0
LINE
  8
0
 62
     0
 10
221.507
 20
72.6115
 30
0.0
 11
220.707
 21
72.6115
 31
0.0
  0
LINE
  8
0
 62
     0
 10
220.707
 20
72.6115
 30
0.0
 11
220.707
 21
69.5124
 31
0.0
  0
LINE
  8
0
 62
     0
 10
220.707
 20
69.5124
 30
0.0
 11
221.507
 21
69.5124
 31
0.0
  0
LINE
  8
0
 62
     0
 10
221.507
 20
69.5124
 30
0.0
 11
221.507
 21
63.7124
 31
0.0
  0
LINE
  8
0
 62
     0
 10
221.507
 20
63.7124
 30
0.0
 11
220.707
 21
63.7124
 31
0.0
  0
LINE
  8
0
 62
     0
 10
220.707
 20
63.7124
 30
0.0
 11
220.707
 21
60.6118
 31
0.0
  0
LINE
  8
0
 62
     0
 10
220.707
 20
60.6118
 30
0.0
 11
221.507
 21
60.6118
 31
0.0
  0
LINE
  8
0
 62
     0
 10
221.507
 20
60.6118
 30
0.0
 11
221.507
 21
59.6124
 31
0.0
  0
LINE
  8
0
 62
     0
 10
221.507
 20
59.6124
 30
0.0
 11
235.507
 21
59.6124
 31
0.0
  0
LINE
  8
0
 62
     0
 10
235.507
 20
59.6124
 30
0.0
 11
235.507
 21
60.6118
 31
0.0
  0
LINE
  8
0
 62
     0
 10
235.507
 20
60.6118
 30
0.0
 11
236.306
 21
60.6118
 31
0.0
  0
LINE
  8
0
 62
     0
 10
236.306
 20
60.6118
 30
0.0
 11
236.306
 21
63.7124
 31
0.0
  0
LINE
  8
0
 62
     0
 10
236.306
 20
63.7124
 30
0.0
 11
235.507
 21
63.7124
 31
0.0
  0
LINE
  8
0
 62
     0
 10
235.507
 20
63.7124
 30
0.0
 11
235.507
 21
69.5124
 31
0.0
  0
LINE
  8
0
 62
     0
 10
235.507
 20
69.5124
 30
0.0
 11
236.306
 21
69.5124
 31
0.0
  0
LINE
  8
0
 62
     0
 10
236.306
 20
69.5124
 30
0.0
 11
236.306
 21
72.6115
 31
0.0
  0
LINE
  8
0
 62
     0
 10
236.306
 20
72.6115
 30
0.0
 11
235.507
 21
72.6115
 31
0.0
  0
LINE
  8
0
 62
     0
 10
235.507
 20
72.6115
 30
0.0
 11
235.507
 21
73.612
 31
0.0
  0
LINE
  8
0
 62
     0
 10
235.507
 20
73.612
 30
0.0
 11
221.507
 21
73.612
 31
0.0
  0
LINE
  8
0
 62
     0
 10
240.556
 20
73.612
 30
0.0
 11
240.556
 21
72.6115
 31
0.0
  0
LINE
  8
0
 62
     0
 10
240.556
 20
72.6115
 30
0.0
 11
239.757
 21
72.6115
 31
0.0
  0
LINE
  8
0
 62
     0
 10
239.757
 20
72.6115
 30
0.0
 11
239.757
 21
69.5124
 31
0.0
  0
LINE
  8
0
 62
     0
 10
239.757
 20
69.5124
 30
0.0
 11
240.556
 21
69.5124
 31
0.0
  0
LINE
  8
0
 62
     0
 10
240.556
 20
69.5124
 30
0.0
 11
240.556
 21
63.7124
 31
0.0
  0
LINE
  8
0
 62
     0
 10
240.556
 20
63.7124
 30
0.0
 11
239.757
 21
63.7124
 31
0.0
  0
LINE
  8
0
 62
     0
 10
239.757
 20
63.7124
 30
0.0
 11
239.757
 21
60.6118
 31
0.0
  0
LINE
  8
0
 62
     0
 10
239.757
 20
60.6118
 30
0.0
 11
240.556
 21
60.6118
 31
0.0
  0
LINE
  8
0
 62
     0
 10
240.556
 20
60.6118
 30
0.0
 11
240.556
 21
59.6124
 31
0.0
  0
LINE
  8
0
 62
     0
 10
240.556
 20
59.6124
 30
0.0
 11
254.557
 21
59.6124
 31
0.0
  0
LINE
  8
0
 62
     0
 10
254.557
 20
59.6124
 30
0.0
 11
254.557
 21
60.6118
 31
0.0
  0
LINE
  8
0
 62
     0
 10
254.557
 20
60.6118
 30
0.0
 11
255.356
 21
60.6118
 31
0.0
  0
LINE
  8
0
 62
     0
 10
255.356
 20
60.6118
 30
0.0
 11
255.356
 21
63.7124
 31
0.0
  0
LINE
  8
0
 62
     0
 10
255.356
 20
63.7124
 30
0.0
 11
254.557
 21
63.7124
 31
0.0
  0
LINE
  8
0
 62
     0
 10
254.557
 20
63.7124
 30
0.0
 11
254.557
 21
69.5124
 31
0.0
  0
LINE
  8
0
 62
     0
 10
254.557
 20
69.5124
 30
0.0
 11
255.356
 21
69.5124
 31
0.0
  0
LINE
  8
0
 62
     0
 10
255.356
 20
69.5124
 30
0.0
 11
255.356
 21
72.6115
 31
0.0
  0
LINE
  8
0
 62
     0
 10
255.356
 20
72.6115
 30
0.0
 11
254.557
 21
72.6115
 31
0.0
  0
LINE
  8
0
 62
     0
 10
254.557
 20
72.6115
 30
0.0
 11
254.557
 21
73.612
 31
0.0
  0
LINE
  8
0
 62
     0
 10
254.557
 20
73.612
 30
0.0
 11
240.556
 21
73.612
 31
0.0
  0
LINE
  8
0
 62
     0
 10
24.7096
 20
69.3388
 30
0.0
 11
24.0137
 21
68.9846
 31
0.0
  0
LINE
  8
0
 62
     0
 10
24.0137
 20
68.9846
 30
0.0
 11
23.4597
 21
68.4308
 31
0.0
  0
LINE
  8
0
 62
     0
 10
23.4597
 20
68.4308
 30
0.0
 11
23.1056
 21
67.7347
 31
0.0
  0
LINE
  8
0
 62
     0
 10
23.1056
 20
67.7347
 30
0.0
 11
22.9829
 21
66.9604
 31
0.0
  0
LINE
  8
0
 62
     0
 10
22.9829
 20
66.9604
 30
0.0
 11
23.1056
 21
66.1885
 31
0.0
  0
LINE
  8
0
 62
     0
 10
23.1056
 20
66.1885
 30
0.0
 11
23.4597
 21
65.4925
 31
0.0
  0
LINE
  8
0
 62
     0
 10
23.4597
 20
65.4925
 30
0.0
 11
24.0137
 21
64.9386
 31
0.0
  0
LINE
  8
0
 62
     0
 10
24.0137
 20
64.9386
 30
0.0
 11
24.7096
 21
64.5844
 31
0.0
  0
LINE
  8
0
 62
     0
 10
24.7096
 20
64.5844
 30
0.0
 11
25.4827
 21
64.4606
 31
0.0
  0
LINE
  8
0
 62
     0
 10
25.4827
 20
64.4606
 30
0.0
 11
26.2558
 21
64.5844
 31
0.0
  0
LINE
  8
0
 62
     0
 10
26.2558
 20
64.5844
 30
0.0
 11
26.9517
 21
64.9386
 31
0.0
  0
LINE
  8
0
 62
     0
 10
26.9517
 20
64.9386
 30
0.0
 11
27.5029
 21
65.4925
 31
0.0
  0
LINE
  8
0
 62
     0
 10
27.5029
 20
65.4925
 30
0.0
 11
27.8598
 21
66.1885
 31
0.0
  0
LINE
  8
0
 62
     0
 10
27.8598
 20
66.1885
 30
0.0
 11
27.9824
 21
66.9604
 31
0.0
  0
LINE
  8
0
 62
     0
 10
27.9824
 20
66.9604
 30
0.0
 11
27.8598
 21
67.7347
 31
0.0
  0
LINE
  8
0
 62
     0
 10
27.8598
 20
67.7347
 30
0.0
 11
27.5029
 21
68.4308
 31
0.0
  0
LINE
  8
0
 62
     0
 10
27.5029
 20
68.4308
 30
0.0
 11
26.9517
 21
68.9846
 31
0.0
  0
LINE
  8
0
 62
     0
 10
26.9517
 20
68.9846
 30
0.0
 11
26.2558
 21
69.3388
 31
0.0
  0
LINE
  8
0
 62
     0
 10
26.2558
 20
69.3388
 30
0.0
 11
25.4827
 21
69.4612
 31
0.0
  0
LINE
  8
0
 62
     0
 10
25.4827
 20
69.4612
 30
0.0
 11
24.7096
 21
69.3388
 31
0.0
  0
LINE
  8
0
 62
     0
 10
259.559
 20
69.3388
 30
0.0
 11
258.862
 21
68.9846
 31
0.0
  0
LINE
  8
0
 62
     0
 10
258.862
 20
68.9846
 30
0.0
 11
258.309
 21
68.4308
 31
0.0
  0
LINE
  8
0
 62
     0
 10
258.309
 20
68.4308
 30
0.0
 11
257.954
 21
67.7347
 31
0.0
  0
LINE
  8
0
 62
     0
 10
257.954
 20
67.7347
 30
0.0
 11
257.832
 21
66.9604
 31
0.0
  0
LINE
  8
0
 62
     0
 10
257.832
 20
66.9604
 30
0.0
 11
257.954
 21
66.1885
 31
0.0
  0
LINE
  8
0
 62
     0
 10
257.954
 20
66.1885
 30
0.0
 11
258.309
 21
65.4925
 31
0.0
  0
LINE
  8
0
 62
     0
 10
258.309
 20
65.4925
 30
0.0
 11
258.862
 21
64.9386
 31
0.0
  0
LINE
  8
0
 62
     0
 10
258.862
 20
64.9386
 30
0.0
 11
259.559
 21
64.5844
 31
0.0
  0
LINE
  8
0
 62
     0
 10
259.559
 20
64.5844
 30
0.0
 11
260.332
 21
64.4606
 31
0.0
  0
LINE
  8
0
 62
     0
 10
260.332
 20
64.4606
 30
0.0
 11
261.104
 21
64.5844
 31
0.0
  0
LINE
  8
0
 62
     0
 10
261.104
 20
64.5844
 30
0.0
 11
261.801
 21
64.9386
 31
0.0
  0
LINE
  8
0
 62
     0
 10
261.801
 20
64.9386
 30
0.0
 11
262.354
 21
65.4925
 31
0.0
  0
LINE
  8
0
 62
     0
 10
262.354
 20
65.4925
 30
0.0
 11
262.709
 21
66.1885
 31
0.0
  0
LINE
  8
0
 62
     0
 10
262.709
 20
66.1885
 30
0.0
 11
262.832
 21
66.9604
 31
0.0
  0
LINE
  8
0
 62
     0
 10
262.832
 20
66.9604
 30
0.0
 11
262.709
 21
67.7347
 31
0.0
  0
LINE
  8
0
 62
     0
 10
262.709
 20
67.7347
 30
0.0
 11
262.354
 21
68.4308
 31
0.0
  0
LINE
  8
0
 62
     0
 10
262.354
 20
68.4308
 30
0.0
 11
261.801
 21
68.9846
 31
0.0
  0
LINE
  8
0
 62
     0
 10
261.801
 20
68.9846
 30
0.0
 11
261.104
 21
69.3388
 31
0.0
  0
LINE
  8
0
 62
     0
 10
261.104
 20
69.3388
 30
0.0
 11
260.332
 21
69.4612
 31
0.0
  0
LINE
  8
0
 62
     0
 10
260.332
 20
69.4612
 30
0.0
 11
259.559
 21
69.3388
 31
0.0
  0
LINE
  8
0
 62
     0
 10
250.081
 20
92.662
 30
0.0
 11
250.081
 21
91.6615
 31
0.0
  0
LINE
  8
0
 62
     0
 10
250.081
 20
91.6615
 30
0.0
 11
249.282
 21
91.6615
 31
0.0
  0
LINE
  8
0
 62
     0
 10
249.282
 20
91.6615
 30
0.0
 11
249.282
 21
88.5624
 31
0.0
  0
LINE
  8
0
 62
     0
 10
249.282
 20
88.5624
 30
0.0
 11
250.081
 21
88.5624
 31
0.0
  0
LINE
  8
0
 62
     0
 10
250.081
 20
88.5624
 30
0.0
 11
250.081
 21
82.7624
 31
0.0
  0
LINE
  8
0
 62
     0
 10
250.081
 20
82.7624
 30
0.0
 11
249.282
 21
82.7624
 31
0.0
  0
LINE
  8
0
 62
     0
 10
249.282
 20
82.7624
 30
0.0
 11
249.282
 21
79.6618
 31
0.0
  0
LINE
  8
0
 62
     0
 10
249.282
 20
79.6618
 30
0.0
 11
250.081
 21
79.6618
 31
0.0
  0
LINE
  8
0
 62
     0
 10
250.081
 20
79.6618
 30
0.0
 11
250.081
 21
78.6624
 31
0.0
  0
LINE
  8
0
 62
     0
 10
250.081
 20
78.6624
 30
0.0
 11
253.056
 21
78.6624
 31
0.0
  0
LINE
  8
0
 62
     0
 10
253.056
 20
78.6624
 30
0.0
 11
253.056
 21
77.6922
 31
0.0
  0
LINE
  8
0
 62
     0
 10
253.056
 20
77.6922
 30
0.0
 11
256.357
 21
77.6922
 31
0.0
  0
LINE
  8
0
 62
     0
 10
256.357
 20
77.6922
 30
0.0
 11
256.357
 21
78.6624
 31
0.0
  0
LINE
  8
0
 62
     0
 10
256.357
 20
78.6624
 30
0.0
 11
276.856
 21
78.6624
 31
0.0
  0
LINE
  8
0
 62
     0
 10
276.856
 20
78.6624
 30
0.0
 11
276.856
 21
77.6922
 31
0.0
  0
LINE
  8
0
 62
     0
 10
276.856
 20
77.6922
 30
0.0
 11
280.157
 21
77.6922
 31
0.0
  0
LINE
  8
0
 62
     0
 10
280.157
 20
77.6922
 30
0.0
 11
280.157
 21
78.6624
 31
0.0
  0
LINE
  8
0
 62
     0
 10
280.157
 20
78.6624
 30
0.0
 11
283.132
 21
78.6624
 31
0.0
  0
LINE
  8
0
 62
     0
 10
283.132
 20
78.6624
 30
0.0
 11
283.132
 21
79.6618
 31
0.0
  0
LINE
  8
0
 62
     0
 10
283.132
 20
79.6618
 30
0.0
 11
283.931
 21
79.6618
 31
0.0
  0
LINE
  8
0
 62
     0
 10
283.931
 20
79.6618
 30
0.0
 11
283.931
 21
82.7624
 31
0.0
  0
LINE
  8
0
 62
     0
 10
283.931
 20
82.7624
 30
0.0
 11
283.132
 21
82.7624
 31
0.0
  0
LINE
  8
0
 62
     0
 10
283.132
 20
82.7624
 30
0.0
 11
283.132
 21
88.5624
 31
0.0
  0
LINE
  8
0
 62
     0
 10
283.132
 20
88.5624
 30
0.0
 11
283.931
 21
88.5624
 31
0.0
  0
LINE
  8
0
 62
     0
 10
283.931
 20
88.5624
 30
0.0
 11
283.931
 21
91.6615
 31
0.0
  0
LINE
  8
0
 62
     0
 10
283.931
 20
91.6615
 30
0.0
 11
283.132
 21
91.6615
 31
0.0
  0
LINE
  8
0
 62
     0
 10
283.132
 20
91.6615
 30
0.0
 11
283.132
 21
92.662
 31
0.0
  0
LINE
  8
0
 62
     0
 10
283.132
 20
92.662
 30
0.0
 11
250.081
 21
92.662
 31
0.0
  0
LINE
  8
0
 62
     0
 10
2.43224
 20
92.662
 30
0.0
 11
2.43224
 21
91.6615
 31
0.0
  0
LINE
  8
0
 62
     0
 10
2.43224
 20
91.6615
 30
0.0
 11
1.6316
 21
91.6615
 31
0.0
  0
LINE
  8
0
 62
     0
 10
1.6316
 20
91.6615
 30
0.0
 11
1.6316
 21
88.5624
 31
0.0
  0
LINE
  8
0
 62
     0
 10
1.6316
 20
88.5624
 30
0.0
 11
2.43224
 21
88.5624
 31
0.0
  0
LINE
  8
0
 62
     0
 10
2.43224
 20
88.5624
 30
0.0
 11
2.43224
 21
82.7624
 31
0.0
  0
LINE
  8
0
 62
     0
 10
2.43224
 20
82.7624
 30
0.0
 11
1.6316
 21
82.7624
 31
0.0
  0
LINE
  8
0
 62
     0
 10
1.6316
 20
82.7624
 30
0.0
 11
1.6316
 21
79.6618
 31
0.0
  0
LINE
  8
0
 62
     0
 10
1.6316
 20
79.6618
 30
0.0
 11
2.43224
 21
79.6618
 31
0.0
  0
LINE
  8
0
 62
     0
 10
2.43224
 20
79.6618
 30
0.0
 11
2.43224
 21
78.6624
 31
0.0
  0
LINE
  8
0
 62
     0
 10
2.43224
 20
78.6624
 30
0.0
 11
16.4317
 21
78.6624
 31
0.0
  0
LINE
  8
0
 62
     0
 10
16.4317
 20
78.6624
 30
0.0
 11
16.4317
 21
79.6618
 31
0.0
  0
LINE
  8
0
 62
     0
 10
16.4317
 20
79.6618
 30
0.0
 11
17.2324
 21
79.6618
 31
0.0
  0
LINE
  8
0
 62
     0
 10
17.2324
 20
79.6618
 30
0.0
 11
17.2324
 21
82.7624
 31
0.0
  0
LINE
  8
0
 62
     0
 10
17.2324
 20
82.7624
 30
0.0
 11
16.4317
 21
82.7624
 31
0.0
  0
LINE
  8
0
 62
     0
 10
16.4317
 20
82.7624
 30
0.0
 11
16.4317
 21
88.5624
 31
0.0
  0
LINE
  8
0
 62
     0
 10
16.4317
 20
88.5624
 30
0.0
 11
17.2324
 21
88.5624
 31
0.0
  0
LINE
  8
0
 62
     0
 10
17.2324
 20
88.5624
 30
0.0
 11
17.2324
 21
91.6615
 31
0.0
  0
LINE
  8
0
 62
     0
 10
17.2324
 20
91.6615
 30
0.0
 11
16.4317
 21
91.6615
 31
0.0
  0
LINE
  8
0
 62
     0
 10
16.4317
 20
91.6615
 30
0.0
 11
16.4317
 21
92.662
 31
0.0
  0
LINE
  8
0
 62
     0
 10
16.4317
 20
92.662
 30
0.0
 11
2.43224
 21
92.662
 31
0.0
  0
LINE
  8
0
 62
     0
 10
21.4822
 20
92.662
 30
0.0
 11
21.4822
 21
91.6615
 31
0.0
  0
LINE
  8
0
 62
     0
 10
21.4822
 20
91.6615
 30
0.0
 11
20.6816
 21
91.6615
 31
0.0
  0
LINE
  8
0
 62
     0
 10
20.6816
 20
91.6615
 30
0.0
 11
20.6816
 21
88.5624
 31
0.0
  0
LINE
  8
0
 62
     0
 10
20.6816
 20
88.5624
 30
0.0
 11
21.4822
 21
88.5624
 31
0.0
  0
LINE
  8
0
 62
     0
 10
21.4822
 20
88.5624
 30
0.0
 11
21.4822
 21
82.7624
 31
0.0
  0
LINE
  8
0
 62
     0
 10
21.4822
 20
82.7624
 30
0.0
 11
20.6816
 21
82.7624
 31
0.0
  0
LINE
  8
0
 62
     0
 10
20.6816
 20
82.7624
 30
0.0
 11
20.6816
 21
79.6618
 31
0.0
  0
LINE
  8
0
 62
     0
 10
20.6816
 20
79.6618
 30
0.0
 11
21.4822
 21
79.6618
 31
0.0
  0
LINE
  8
0
 62
     0
 10
21.4822
 20
79.6618
 30
0.0
 11
21.4822
 21
78.6624
 31
0.0
  0
LINE
  8
0
 62
     0
 10
21.4822
 20
78.6624
 30
0.0
 11
35.4817
 21
78.6624
 31
0.0
  0
LINE
  8
0
 62
     0
 10
35.4817
 20
78.6624
 30
0.0
 11
35.4817
 21
79.6618
 31
0.0
  0
LINE
  8
0
 62
     0
 10
35.4817
 20
79.6618
 30
0.0
 11
36.2825
 21
79.6618
 31
0.0
  0
LINE
  8
0
 62
     0
 10
36.2825
 20
79.6618
 30
0.0
 11
36.2825
 21
82.7624
 31
0.0
  0
LINE
  8
0
 62
     0
 10
36.2825
 20
82.7624
 30
0.0
 11
35.4817
 21
82.7624
 31
0.0
  0
LINE
  8
0
 62
     0
 10
35.4817
 20
82.7624
 30
0.0
 11
35.4817
 21
88.5624
 31
0.0
  0
LINE
  8
0
 62
     0
 10
35.4817
 20
88.5624
 30
0.0
 11
36.2825
 21
88.5624
 31
0.0
  0
LINE
  8
0
 62
     0
 10
36.2825
 20
88.5624
 30
0.0
 11
36.2825
 21
91.6615
 31
0.0
  0
LINE
  8
0
 62
     0
 10
36.2825
 20
91.6615
 30
0.0
 11
35.4817
 21
91.6615
 31
0.0
  0
LINE
  8
0
 62
     0
 10
35.4817
 20
91.6615
 30
0.0
 11
35.4817
 21
92.662
 31
0.0
  0
LINE
  8
0
 62
     0
 10
35.4817
 20
92.662
 30
0.0
 11
21.4822
 21
92.662
 31
0.0
  0
LINE
  8
0
 62
     0
 10
40.5324
 20
92.662
 30
0.0
 11
40.5324
 21
91.6615
 31
0.0
  0
LINE
  8
0
 62
     0
 10
40.5324
 20
91.6615
 30
0.0
 11
39.7316
 21
91.6615
 31
0.0
  0
LINE
  8
0
 62
     0
 10
39.7316
 20
91.6615
 30
0.0
 11
39.7316
 21
88.5624
 31
0.0
  0
LINE
  8
0
 62
     0
 10
39.7316
 20
88.5624
 30
0.0
 11
40.5324
 21
88.5624
 31
0.0
  0
LINE
  8
0
 62
     0
 10
40.5324
 20
88.5624
 30
0.0
 11
40.5324
 21
82.7624
 31
0.0
  0
LINE
  8
0
 62
     0
 10
40.5324
 20
82.7624
 30
0.0
 11
39.7316
 21
82.7624
 31
0.0
  0
LINE
  8
0
 62
     0
 10
39.7316
 20
82.7624
 30
0.0
 11
39.7316
 21
79.6618
 31
0.0
  0
LINE
  8
0
 62
     0
 10
39.7316
 20
79.6618
 30
0.0
 11
40.5324
 21
79.6618
 31
0.0
  0
LINE
  8
0
 62
     0
 10
40.5324
 20
79.6618
 30
0.0
 11
40.5324
 21
78.6624
 31
0.0
  0
LINE
  8
0
 62
     0
 10
40.5324
 20
78.6624
 30
0.0
 11
54.5317
 21
78.6624
 31
0.0
  0
LINE
  8
0
 62
     0
 10
54.5317
 20
78.6624
 30
0.0
 11
54.5317
 21
79.6618
 31
0.0
  0
LINE
  8
0
 62
     0
 10
54.5317
 20
79.6618
 30
0.0
 11
55.3311
 21
79.6618
 31
0.0
  0
LINE
  8
0
 62
     0
 10
55.3311
 20
79.6618
 30
0.0
 11
55.3311
 21
82.7624
 31
0.0
  0
LINE
  8
0
 62
     0
 10
55.3311
 20
82.7624
 30
0.0
 11
54.5317
 21
82.7624
 31
0.0
  0
LINE
  8
0
 62
     0
 10
54.5317
 20
82.7624
 30
0.0
 11
54.5317
 21
88.5624
 31
0.0
  0
LINE
  8
0
 62
     0
 10
54.5317
 20
88.5624
 30
0.0
 11
55.3311
 21
88.5624
 31
0.0
  0
LINE
  8
0
 62
     0
 10
55.3311
 20
88.5624
 30
0.0
 11
55.3311
 21
91.6615
 31
0.0
  0
LINE
  8
0
 62
     0
 10
55.3311
 20
91.6615
 30
0.0
 11
54.5317
 21
91.6615
 31
0.0
  0
LINE
  8
0
 62
     0
 10
54.5317
 20
91.6615
 30
0.0
 11
54.5317
 21
92.662
 31
0.0
  0
LINE
  8
0
 62
     0
 10
54.5317
 20
92.662
 30
0.0
 11
40.5324
 21
92.662
 31
0.0
  0
LINE
  8
0
 62
     0
 10
59.581
 20
92.662
 30
0.0
 11
59.581
 21
91.6615
 31
0.0
  0
LINE
  8
0
 62
     0
 10
59.581
 20
91.6615
 30
0.0
 11
58.7816
 21
91.6615
 31
0.0
  0
LINE
  8
0
 62
     0
 10
58.7816
 20
91.6615
 30
0.0
 11
58.7816
 21
88.5624
 31
0.0
  0
LINE
  8
0
 62
     0
 10
58.7816
 20
88.5624
 30
0.0
 11
59.581
 21
88.5624
 31
0.0
  0
LINE
  8
0
 62
     0
 10
59.581
 20
88.5624
 30
0.0
 11
59.581
 21
82.7624
 31
0.0
  0
LINE
  8
0
 62
     0
 10
59.581
 20
82.7624
 30
0.0
 11
58.7816
 21
82.7624
 31
0.0
  0
LINE
  8
0
 62
     0
 10
58.7816
 20
82.7624
 30
0.0
 11
58.7816
 21
79.6618
 31
0.0
  0
LINE
  8
0
 62
     0
 10
58.7816
 20
79.6618
 30
0.0
 11
59.581
 21
79.6618
 31
0.0
  0
LINE
  8
0
 62
     0
 10
59.581
 20
79.6618
 30
0.0
 11
59.581
 21
78.6624
 31
0.0
  0
LINE
  8
0
 62
     0
 10
59.581
 20
78.6624
 30
0.0
 11
73.5817
 21
78.6624
 31
0.0
  0
LINE
  8
0
 62
     0
 10
73.5817
 20
78.6624
 30
0.0
 11
73.5817
 21
79.6618
 31
0.0
  0
LINE
  8
0
 62
     0
 10
73.5817
 20
79.6618
 30
0.0
 11
74.3825
 21
79.6618
 31
0.0
  0
LINE
  8
0
 62
     0
 10
74.3825
 20
79.6618
 30
0.0
 11
74.3825
 21
82.7624
 31
0.0
  0
LINE
  8
0
 62
     0
 10
74.3825
 20
82.7624
 30
0.0
 11
73.5817
 21
82.7624
 31
0.0
  0
LINE
  8
0
 62
     0
 10
73.5817
 20
82.7624
 30
0.0
 11
73.5817
 21
88.5624
 31
0.0
  0
LINE
  8
0
 62
     0
 10
73.5817
 20
88.5624
 30
0.0
 11
74.3825
 21
88.5624
 31
0.0
  0
LINE
  8
0
 62
     0
 10
74.3825
 20
88.5624
 30
0.0
 11
74.3825
 21
91.6615
 31
0.0
  0
LINE
  8
0
 62
     0
 10
74.3825
 20
91.6615
 30
0.0
 11
73.5817
 21
91.6615
 31
0.0
  0
LINE
  8
0
 62
     0
 10
73.5817
 20
91.6615
 30
0.0
 11
73.5817
 21
92.662
 31
0.0
  0
LINE
  8
0
 62
     0
 10
73.5817
 20
92.662
 30
0.0
 11
59.581
 21
92.662
 31
0.0
  0
LINE
  8
0
 62
     0
 10
78.6324
 20
92.662
 30
0.0
 11
78.6324
 21
91.6615
 31
0.0
  0
LINE
  8
0
 62
     0
 10
78.6324
 20
91.6615
 30
0.0
 11
77.8316
 21
91.6615
 31
0.0
  0
LINE
  8
0
 62
     0
 10
77.8316
 20
91.6615
 30
0.0
 11
77.8316
 21
88.5624
 31
0.0
  0
LINE
  8
0
 62
     0
 10
77.8316
 20
88.5624
 30
0.0
 11
78.6324
 21
88.5624
 31
0.0
  0
LINE
  8
0
 62
     0
 10
78.6324
 20
88.5624
 30
0.0
 11
78.6324
 21
82.7624
 31
0.0
  0
LINE
  8
0
 62
     0
 10
78.6324
 20
82.7624
 30
0.0
 11
77.8316
 21
82.7624
 31
0.0
  0
LINE
  8
0
 62
     0
 10
77.8316
 20
82.7624
 30
0.0
 11
77.8316
 21
79.6618
 31
0.0
  0
LINE
  8
0
 62
     0
 10
77.8316
 20
79.6618
 30
0.0
 11
78.6324
 21
79.6618
 31
0.0
  0
LINE
  8
0
 62
     0
 10
78.6324
 20
79.6618
 30
0.0
 11
78.6324
 21
78.6624
 31
0.0
  0
LINE
  8
0
 62
     0
 10
78.6324
 20
78.6624
 30
0.0
 11
92.6317
 21
78.6624
 31
0.0
  0
LINE
  8
0
 62
     0
 10
92.6317
 20
78.6624
 30
0.0
 11
92.6317
 21
79.6618
 31
0.0
  0
LINE
  8
0
 62
     0
 10
92.6317
 20
79.6618
 30
0.0
 11
93.4325
 21
79.6618
 31
0.0
  0
LINE
  8
0
 62
     0
 10
93.4325
 20
79.6618
 30
0.0
 11
93.4325
 21
82.7624
 31
0.0
  0
LINE
  8
0
 62
     0
 10
93.4325
 20
82.7624
 30
0.0
 11
92.6317
 21
82.7624
 31
0.0
  0
LINE
  8
0
 62
     0
 10
92.6317
 20
82.7624
 30
0.0
 11
92.6317
 21
88.5624
 31
0.0
  0
LINE
  8
0
 62
     0
 10
92.6317
 20
88.5624
 30
0.0
 11
93.4325
 21
88.5624
 31
0.0
  0
LINE
  8
0
 62
     0
 10
93.4325
 20
88.5624
 30
0.0
 11
93.4325
 21
91.6615
 31
0.0
  0
LINE
  8
0
 62
     0
 10
93.4325
 20
91.6615
 30
0.0
 11
92.6317
 21
91.6615
 31
0.0
  0
LINE
  8
0
 62
     0
 10
92.6317
 20
91.6615
 30
0.0
 11
92.6317
 21
92.662
 31
0.0
  0
LINE
  8
0
 62
     0
 10
92.6317
 20
92.662
 30
0.0
 11
78.6324
 21
92.662
 31
0.0
  0
LINE
  8
0
 62
     0
 10
97.6824
 20
92.662
 30
0.0
 11
97.6824
 21
91.6615
 31
0.0
  0
LINE
  8
0
 62
     0
 10
97.6824
 20
91.6615
 30
0.0
 11
96.8816
 21
91.6615
 31
0.0
  0
LINE
  8
0
 62
     0
 10
96.8816
 20
91.6615
 30
0.0
 11
96.8816
 21
88.5624
 31
0.0
  0
LINE
  8
0
 62
     0
 10
96.8816
 20
88.5624
 30
0.0
 11
97.6824
 21
88.5624
 31
0.0
  0
LINE
  8
0
 62
     0
 10
97.6824
 20
88.5624
 30
0.0
 11
97.6824
 21
82.7624
 31
0.0
  0
LINE
  8
0
 62
     0
 10
97.6824
 20
82.7624
 30
0.0
 11
96.8816
 21
82.7624
 31
0.0
  0
LINE
  8
0
 62
     0
 10
96.8816
 20
82.7624
 30
0.0
 11
96.8816
 21
79.6618
 31
0.0
  0
LINE
  8
0
 62
     0
 10
96.8816
 20
79.6618
 30
0.0
 11
97.6824
 21
79.6618
 31
0.0
  0
LINE
  8
0
 62
     0
 10
97.6824
 20
79.6618
 30
0.0
 11
97.6824
 21
78.6624
 31
0.0
  0
LINE
  8
0
 62
     0
 10
97.6824
 20
78.6624
 30
0.0
 11
111.682
 21
78.6624
 31
0.0
  0
LINE
  8
0
 62
     0
 10
111.682
 20
78.6624
 30
0.0
 11
111.682
 21
79.6618
 31
0.0
  0
LINE
  8
0
 62
     0
 10
111.682
 20
79.6618
 30
0.0
 11
112.482
 21
79.6618
 31
0.0
  0
LINE
  8
0
 62
     0
 10
112.482
 20
79.6618
 30
0.0
 11
112.482
 21
82.7624
 31
0.0
  0
LINE
  8
0
 62
     0
 10
112.482
 20
82.7624
 30
0.0
 11
111.682
 21
82.7624
 31
0.0
  0
LINE
  8
0
 62
     0
 10
111.682
 20
82.7624
 30
0.0
 11
111.682
 21
88.5624
 31
0.0
  0
LINE
  8
0
 62
     0
 10
111.682
 20
88.5624
 30
0.0
 11
112.482
 21
88.5624
 31
0.0
  0
LINE
  8
0
 62
     0
 10
112.482
 20
88.5624
 30
0.0
 11
112.482
 21
91.6615
 31
0.0
  0
LINE
  8
0
 62
     0
 10
112.482
 20
91.6615
 30
0.0
 11
111.682
 21
91.6615
 31
0.0
  0
LINE
  8
0
 62
     0
 10
111.682
 20
91.6615
 30
0.0
 11
111.682
 21
92.662
 31
0.0
  0
LINE
  8
0
 62
     0
 10
111.682
 20
92.662
 30
0.0
 11
97.6824
 21
92.662
 31
0.0
  0
LINE
  8
0
 62
     0
 10
116.732
 20
92.662
 30
0.0
 11
116.732
 21
91.6615
 31
0.0
  0
LINE
  8
0
 62
     0
 10
116.732
 20
91.6615
 30
0.0
 11
115.932
 21
91.6615
 31
0.0
  0
LINE
  8
0
 62
     0
 10
115.932
 20
91.6615
 30
0.0
 11
115.932
 21
88.5624
 31
0.0
  0
LINE
  8
0
 62
     0
 10
115.932
 20
88.5624
 30
0.0
 11
116.732
 21
88.5624
 31
0.0
  0
LINE
  8
0
 62
     0
 10
116.732
 20
88.5624
 30
0.0
 11
116.732
 21
82.7624
 31
0.0
  0
LINE
  8
0
 62
     0
 10
116.732
 20
82.7624
 30
0.0
 11
115.932
 21
82.7624
 31
0.0
  0
LINE
  8
0
 62
     0
 10
115.932
 20
82.7624
 30
0.0
 11
115.932
 21
79.6618
 31
0.0
  0
LINE
  8
0
 62
     0
 10
115.932
 20
79.6618
 30
0.0
 11
116.732
 21
79.6618
 31
0.0
  0
LINE
  8
0
 62
     0
 10
116.732
 20
79.6618
 30
0.0
 11
116.732
 21
78.6624
 31
0.0
  0
LINE
  8
0
 62
     0
 10
116.732
 20
78.6624
 30
0.0
 11
130.732
 21
78.6624
 31
0.0
  0
LINE
  8
0
 62
     0
 10
130.732
 20
78.6624
 30
0.0
 11
130.732
 21
79.6618
 31
0.0
  0
LINE
  8
0
 62
     0
 10
130.732
 20
79.6618
 30
0.0
 11
131.532
 21
79.6618
 31
0.0
  0
LINE
  8
0
 62
     0
 10
131.532
 20
79.6618
 30
0.0
 11
131.532
 21
82.7624
 31
0.0
  0
LINE
  8
0
 62
     0
 10
131.532
 20
82.7624
 30
0.0
 11
130.732
 21
82.7624
 31
0.0
  0
LINE
  8
0
 62
     0
 10
130.732
 20
82.7624
 30
0.0
 11
130.732
 21
88.5624
 31
0.0
  0
LINE
  8
0
 62
     0
 10
130.732
 20
88.5624
 30
0.0
 11
131.532
 21
88.5624
 31
0.0
  0
LINE
  8
0
 62
     0
 10
131.532
 20
88.5624
 30
0.0
 11
131.532
 21
91.6615
 31
0.0
  0
LINE
  8
0
 62
     0
 10
131.532
 20
91.6615
 30
0.0
 11
130.732
 21
91.6615
 31
0.0
  0
LINE
  8
0
 62
     0
 10
130.732
 20
91.6615
 30
0.0
 11
130.732
 21
92.662
 31
0.0
  0
LINE
  8
0
 62
     0
 10
130.732
 20
92.662
 30
0.0
 11
116.732
 21
92.662
 31
0.0
  0
LINE
  8
0
 62
     0
 10
135.782
 20
92.662
 30
0.0
 11
135.782
 21
91.6615
 31
0.0
  0
LINE
  8
0
 62
     0
 10
135.782
 20
91.6615
 30
0.0
 11
134.982
 21
91.6615
 31
0.0
  0
LINE
  8
0
 62
     0
 10
134.982
 20
91.6615
 30
0.0
 11
134.982
 21
88.5624
 31
0.0
  0
LINE
  8
0
 62
     0
 10
134.982
 20
88.5624
 30
0.0
 11
135.782
 21
88.5624
 31
0.0
  0
LINE
  8
0
 62
     0
 10
135.782
 20
88.5624
 30
0.0
 11
135.782
 21
82.7624
 31
0.0
  0
LINE
  8
0
 62
     0
 10
135.782
 20
82.7624
 30
0.0
 11
134.982
 21
82.7624
 31
0.0
  0
LINE
  8
0
 62
     0
 10
134.982
 20
82.7624
 30
0.0
 11
134.982
 21
79.6618
 31
0.0
  0
LINE
  8
0
 62
     0
 10
134.982
 20
79.6618
 30
0.0
 11
135.782
 21
79.6618
 31
0.0
  0
LINE
  8
0
 62
     0
 10
135.782
 20
79.6618
 30
0.0
 11
135.782
 21
78.6624
 31
0.0
  0
LINE
  8
0
 62
     0
 10
135.782
 20
78.6624
 30
0.0
 11
149.782
 21
78.6624
 31
0.0
  0
LINE
  8
0
 62
     0
 10
149.782
 20
78.6624
 30
0.0
 11
149.782
 21
79.6618
 31
0.0
  0
LINE
  8
0
 62
     0
 10
149.782
 20
79.6618
 30
0.0
 11
150.581
 21
79.6618
 31
0.0
  0
LINE
  8
0
 62
     0
 10
150.581
 20
79.6618
 30
0.0
 11
150.581
 21
82.7624
 31
0.0
  0
LINE
  8
0
 62
     0
 10
150.581
 20
82.7624
 30
0.0
 11
149.782
 21
82.7624
 31
0.0
  0
LINE
  8
0
 62
     0
 10
149.782
 20
82.7624
 30
0.0
 11
149.782
 21
88.5624
 31
0.0
  0
LINE
  8
0
 62
     0
 10
149.782
 20
88.5624
 30
0.0
 11
150.581
 21
88.5624
 31
0.0
  0
LINE
  8
0
 62
     0
 10
150.581
 20
88.5624
 30
0.0
 11
150.581
 21
91.6615
 31
0.0
  0
LINE
  8
0
 62
     0
 10
150.581
 20
91.6615
 30
0.0
 11
149.782
 21
91.6615
 31
0.0
  0
LINE
  8
0
 62
     0
 10
149.782
 20
91.6615
 30
0.0
 11
149.782
 21
92.662
 31
0.0
  0
LINE
  8
0
 62
     0
 10
149.782
 20
92.662
 30
0.0
 11
135.782
 21
92.662
 31
0.0
  0
LINE
  8
0
 62
     0
 10
154.831
 20
92.662
 30
0.0
 11
154.831
 21
91.6615
 31
0.0
  0
LINE
  8
0
 62
     0
 10
154.831
 20
91.6615
 30
0.0
 11
154.032
 21
91.6615
 31
0.0
  0
LINE
  8
0
 62
     0
 10
154.032
 20
91.6615
 30
0.0
 11
154.032
 21
88.5624
 31
0.0
  0
LINE
  8
0
 62
     0
 10
154.032
 20
88.5624
 30
0.0
 11
154.831
 21
88.5624
 31
0.0
  0
LINE
  8
0
 62
     0
 10
154.831
 20
88.5624
 30
0.0
 11
154.831
 21
82.7624
 31
0.0
  0
LINE
  8
0
 62
     0
 10
154.831
 20
82.7624
 30
0.0
 11
154.032
 21
82.7624
 31
0.0
  0
LINE
  8
0
 62
     0
 10
154.032
 20
82.7624
 30
0.0
 11
154.032
 21
79.6618
 31
0.0
  0
LINE
  8
0
 62
     0
 10
154.032
 20
79.6618
 30
0.0
 11
154.831
 21
79.6618
 31
0.0
  0
LINE
  8
0
 62
     0
 10
154.831
 20
79.6618
 30
0.0
 11
154.831
 21
78.6624
 31
0.0
  0
LINE
  8
0
 62
     0
 10
154.831
 20
78.6624
 30
0.0
 11
168.832
 21
78.6624
 31
0.0
  0
LINE
  8
0
 62
     0
 10
168.832
 20
78.6624
 30
0.0
 11
168.832
 21
79.6618
 31
0.0
  0
LINE
  8
0
 62
     0
 10
168.832
 20
79.6618
 30
0.0
 11
169.632
 21
79.6618
 31
0.0
  0
LINE
  8
0
 62
     0
 10
169.632
 20
79.6618
 30
0.0
 11
169.632
 21
82.7624
 31
0.0
  0
LINE
  8
0
 62
     0
 10
169.632
 20
82.7624
 30
0.0
 11
168.832
 21
82.7624
 31
0.0
  0
LINE
  8
0
 62
     0
 10
168.832
 20
82.7624
 30
0.0
 11
168.832
 21
88.5624
 31
0.0
  0
LINE
  8
0
 62
     0
 10
168.832
 20
88.5624
 30
0.0
 11
169.632
 21
88.5624
 31
0.0
  0
LINE
  8
0
 62
     0
 10
169.632
 20
88.5624
 30
0.0
 11
169.632
 21
91.6615
 31
0.0
  0
LINE
  8
0
 62
     0
 10
169.632
 20
91.6615
 30
0.0
 11
168.832
 21
91.6615
 31
0.0
  0
LINE
  8
0
 62
     0
 10
168.832
 20
91.6615
 30
0.0
 11
168.832
 21
92.662
 31
0.0
  0
LINE
  8
0
 62
     0
 10
168.832
 20
92.662
 30
0.0
 11
154.831
 21
92.662
 31
0.0
  0
LINE
  8
0
 62
     0
 10
173.882
 20
92.662
 30
0.0
 11
173.882
 21
91.6615
 31
0.0
  0
LINE
  8
0
 62
     0
 10
173.882
 20
91.6615
 30
0.0
 11
173.082
 21
91.6615
 31
0.0
  0
LINE
  8
0
 62
     0
 10
173.082
 20
91.6615
 30
0.0
 11
173.082
 21
88.5624
 31
0.0
  0
LINE
  8
0
 62
     0
 10
173.082
 20
88.5624
 30
0.0
 11
173.882
 21
88.5624
 31
0.0
  0
LINE
  8
0
 62
     0
 10
173.882
 20
88.5624
 30
0.0
 11
173.882
 21
82.7624
 31
0.0
  0
LINE
  8
0
 62
     0
 10
173.882
 20
82.7624
 30
0.0
 11
173.082
 21
82.7624
 31
0.0
  0
LINE
  8
0
 62
     0
 10
173.082
 20
82.7624
 30
0.0
 11
173.082
 21
79.6618
 31
0.0
  0
LINE
  8
0
 62
     0
 10
173.082
 20
79.6618
 30
0.0
 11
173.882
 21
79.6618
 31
0.0
  0
LINE
  8
0
 62
     0
 10
173.882
 20
79.6618
 30
0.0
 11
173.882
 21
78.6624
 31
0.0
  0
LINE
  8
0
 62
     0
 10
173.882
 20
78.6624
 30
0.0
 11
187.882
 21
78.6624
 31
0.0
  0
LINE
  8
0
 62
     0
 10
187.882
 20
78.6624
 30
0.0
 11
187.882
 21
79.6618
 31
0.0
  0
LINE
  8
0
 62
     0
 10
187.882
 20
79.6618
 30
0.0
 11
188.681
 21
79.6618
 31
0.0
  0
LINE
  8
0
 62
     0
 10
188.681
 20
79.6618
 30
0.0
 11
188.681
 21
82.7624
 31
0.0
  0
LINE
  8
0
 62
     0
 10
188.681
 20
82.7624
 30
0.0
 11
187.882
 21
82.7624
 31
0.0
  0
LINE
  8
0
 62
     0
 10
187.882
 20
82.7624
 30
0.0
 11
187.882
 21
88.5624
 31
0.0
  0
LINE
  8
0
 62
     0
 10
187.882
 20
88.5624
 30
0.0
 11
188.681
 21
88.5624
 31
0.0
  0
LINE
  8
0
 62
     0
 10
188.681
 20
88.5624
 30
0.0
 11
188.681
 21
91.6615
 31
0.0
  0
LINE
  8
0
 62
     0
 10
188.681
 20
91.6615
 30
0.0
 11
187.882
 21
91.6615
 31
0.0
  0
LINE
  8
0
 62
     0
 10
187.882
 20
91.6615
 30
0.0
 11
187.882
 21
92.662
 31
0.0
  0
LINE
  8
0
 62
     0
 10
187.882
 20
92.662
 30
0.0
 11
173.882
 21
92.662
 31
0.0
  0
LINE
  8
0
 62
     0
 10
192.931
 20
92.662
 30
0.0
 11
192.931
 21
91.6615
 31
0.0
  0
LINE
  8
0
 62
     0
 10
192.931
 20
91.6615
 30
0.0
 11
192.132
 21
91.6615
 31
0.0
  0
LINE
  8
0
 62
     0
 10
192.132
 20
91.6615
 30
0.0
 11
192.132
 21
88.5624
 31
0.0
  0
LINE
  8
0
 62
     0
 10
192.132
 20
88.5624
 30
0.0
 11
192.931
 21
88.5624
 31
0.0
  0
LINE
  8
0
 62
     0
 10
192.931
 20
88.5624
 30
0.0
 11
192.931
 21
82.7624
 31
0.0
  0
LINE
  8
0
 62
     0
 10
192.931
 20
82.7624
 30
0.0
 11
192.132
 21
82.7624
 31
0.0
  0
LINE
  8
0
 62
     0
 10
192.132
 20
82.7624
 30
0.0
 11
192.132
 21
79.6618
 31
0.0
  0
LINE
  8
0
 62
     0
 10
192.132
 20
79.6618
 30
0.0
 11
192.931
 21
79.6618
 31
0.0
  0
LINE
  8
0
 62
     0
 10
192.931
 20
79.6618
 30
0.0
 11
192.931
 21
78.6624
 31
0.0
  0
LINE
  8
0
 62
     0
 10
192.931
 20
78.6624
 30
0.0
 11
206.932
 21
78.6624
 31
0.0
  0
LINE
  8
0
 62
     0
 10
206.932
 20
78.6624
 30
0.0
 11
206.932
 21
79.6618
 31
0.0
  0
LINE
  8
0
 62
     0
 10
206.932
 20
79.6618
 30
0.0
 11
207.732
 21
79.6618
 31
0.0
  0
LINE
  8
0
 62
     0
 10
207.732
 20
79.6618
 30
0.0
 11
207.732
 21
82.7624
 31
0.0
  0
LINE
  8
0
 62
     0
 10
207.732
 20
82.7624
 30
0.0
 11
206.932
 21
82.7624
 31
0.0
  0
LINE
  8
0
 62
     0
 10
206.932
 20
82.7624
 30
0.0
 11
206.932
 21
88.5624
 31
0.0
  0
LINE
  8
0
 62
     0
 10
206.932
 20
88.5624
 30
0.0
 11
207.732
 21
88.5624
 31
0.0
  0
LINE
  8
0
 62
     0
 10
207.732
 20
88.5624
 30
0.0
 11
207.732
 21
91.6615
 31
0.0
  0
LINE
  8
0
 62
     0
 10
207.732
 20
91.6615
 30
0.0
 11
206.932
 21
91.6615
 31
0.0
  0
LINE
  8
0
 62
     0
 10
206.932
 20
91.6615
 30
0.0
 11
206.932
 21
92.662
 31
0.0
  0
LINE
  8
0
 62
     0
 10
206.932
 20
92.662
 30
0.0
 11
192.931
 21
92.662
 31
0.0
  0
LINE
  8
0
 62
     0
 10
211.982
 20
92.662
 30
0.0
 11
211.982
 21
91.6615
 31
0.0
  0
LINE
  8
0
 62
     0
 10
211.982
 20
91.6615
 30
0.0
 11
211.182
 21
91.6615
 31
0.0
  0
LINE
  8
0
 62
     0
 10
211.182
 20
91.6615
 30
0.0
 11
211.182
 21
88.5624
 31
0.0
  0
LINE
  8
0
 62
     0
 10
211.182
 20
88.5624
 30
0.0
 11
211.982
 21
88.5624
 31
0.0
  0
LINE
  8
0
 62
     0
 10
211.982
 20
88.5624
 30
0.0
 11
211.982
 21
82.7624
 31
0.0
  0
LINE
  8
0
 62
     0
 10
211.982
 20
82.7624
 30
0.0
 11
211.182
 21
82.7624
 31
0.0
  0
LINE
  8
0
 62
     0
 10
211.182
 20
82.7624
 30
0.0
 11
211.182
 21
79.6618
 31
0.0
  0
LINE
  8
0
 62
     0
 10
211.182
 20
79.6618
 30
0.0
 11
211.982
 21
79.6618
 31
0.0
  0
LINE
  8
0
 62
     0
 10
211.982
 20
79.6618
 30
0.0
 11
211.982
 21
78.6624
 31
0.0
  0
LINE
  8
0
 62
     0
 10
211.982
 20
78.6624
 30
0.0
 11
225.982
 21
78.6624
 31
0.0
  0
LINE
  8
0
 62
     0
 10
225.982
 20
78.6624
 30
0.0
 11
225.982
 21
79.6618
 31
0.0
  0
LINE
  8
0
 62
     0
 10
225.982
 20
79.6618
 30
0.0
 11
226.782
 21
79.6618
 31
0.0
  0
LINE
  8
0
 62
     0
 10
226.782
 20
79.6618
 30
0.0
 11
226.782
 21
82.7624
 31
0.0
  0
LINE
  8
0
 62
     0
 10
226.782
 20
82.7624
 30
0.0
 11
225.982
 21
82.7624
 31
0.0
  0
LINE
  8
0
 62
     0
 10
225.982
 20
82.7624
 30
0.0
 11
225.982
 21
88.5624
 31
0.0
  0
LINE
  8
0
 62
     0
 10
225.982
 20
88.5624
 30
0.0
 11
226.782
 21
88.5624
 31
0.0
  0
LINE
  8
0
 62
     0
 10
226.782
 20
88.5624
 30
0.0
 11
226.782
 21
91.6615
 31
0.0
  0
LINE
  8
0
 62
     0
 10
226.782
 20
91.6615
 30
0.0
 11
225.982
 21
91.6615
 31
0.0
  0
LINE
  8
0
 62
     0
 10
225.982
 20
91.6615
 30
0.0
 11
225.982
 21
92.662
 31
0.0
  0
LINE
  8
0
 62
     0
 10
225.982
 20
92.662
 30
0.0
 11
211.982
 21
92.662
 31
0.0
  0
LINE
  8
0
 62
     0
 10
231.032
 20
92.662
 30
0.0
 11
231.032
 21
91.6615
 31
0.0
  0
LINE
  8
0
 62
     0
 10
231.032
 20
91.6615
 30
0.0
 11
230.232
 21
91.6615
 31
0.0
  0
LINE
  8
0
 62
     0
 10
230.232
 20
91.6615
 30
0.0
 11
230.232
 21
88.5624
 31
0.0
  0
LINE
  8
0
 62
     0
 10
230.232
 20
88.5624
 30
0.0
 11
231.032
 21
88.5624
 31
0.0
  0
LINE
  8
0
 62
     0
 10
231.032
 20
88.5624
 30
0.0
 11
231.032
 21
82.7624
 31
0.0
  0
LINE
  8
0
 62
     0
 10
231.032
 20
82.7624
 30
0.0
 11
230.232
 21
82.7624
 31
0.0
  0
LINE
  8
0
 62
     0
 10
230.232
 20
82.7624
 30
0.0
 11
230.232
 21
79.6618
 31
0.0
  0
LINE
  8
0
 62
     0
 10
230.232
 20
79.6618
 30
0.0
 11
231.032
 21
79.6618
 31
0.0
  0
LINE
  8
0
 62
     0
 10
231.032
 20
79.6618
 30
0.0
 11
231.032
 21
78.6624
 31
0.0
  0
LINE
  8
0
 62
     0
 10
231.032
 20
78.6624
 30
0.0
 11
245.032
 21
78.6624
 31
0.0
  0
LINE
  8
0
 62
     0
 10
245.032
 20
78.6624
 30
0.0
 11
245.032
 21
79.6618
 31
0.0
  0
LINE
  8
0
 62
     0
 10
245.032
 20
79.6618
 30
0.0
 11
245.831
 21
79.6618
 31
0.0
  0
LINE
  8
0
 62
     0
 10
245.831
 20
79.6618
 30
0.0
 11
245.831
 21
82.7624
 31
0.0
  0
LINE
  8
0
 62
     0
 10
245.831
 20
82.7624
 30
0.0
 11
245.032
 21
82.7624
 31
0.0
  0
LINE
  8
0
 62
     0
 10
245.032
 20
82.7624
 30
0.0
 11
245.032
 21
88.5624
 31
0.0
  0
LINE
  8
0
 62
     0
 10
245.032
 20
88.5624
 30
0.0
 11
245.831
 21
88.5624
 31
0.0
  0
LINE
  8
0
 62
     0
 10
245.831
 20
88.5624
 30
0.0
 11
245.831
 21
91.6615
 31
0.0
  0
LINE
  8
0
 62
     0
 10
245.831
 20
91.6615
 30
0.0
 11
245.032
 21
91.6615
 31
0.0
  0
LINE
  8
0
 62
     0
 10
245.032
 20
91.6615
 30
0.0
 11
245.032
 21
92.662
 31
0.0
  0
LINE
  8
0
 62
     0
 10
245.032
 20
92.662
 30
0.0
 11
231.032
 21
92.662
 31
0.0
  0
ENDSEC
  0
EOF
