999
dxfrw 0.6.3
  0
SECTION
  2
HEADER
  9
$ACADVER
  1
AC1021
  9
$DWGCODEPAGE
  3
ANSI_1252
  9
$INSBASE
 10
0
 20
0
 30
0
  9
$EXTMIN
 10
0.09508460000000001
 20
0.0964629
 30
0
  9
$EXTMAX
 10
285.47
 20
95.0239
 30
0
  9
$LIMMIN
 10
0
 20
0
  9
$LIMMAX
 10
420
 20
297
  9
$ORTHOMODE
 70
    0
  9
$REGENMODE
 70
    1
  9
$FILLMODE
 70
    0
  9
$QTEXTMODE
 70
    0
  9
$MIRRTEXT
 70
    0
  9
$LTSCALE
 40
1
  9
$ATTMODE
 70
    0
  9
$TEXTSIZE
 40
2.5
  9
$TRACEWID
 40
15.68
  9
$TEXTSTYLE
  7
STANDARD
  9
$CLAYER
  8
0
  9
$CELTYPE
  6
BYLAYER
  9
$CECOLOR
 62
  256
  9
$CELTSCALE
 40
1
  9
$DISPSILH
 70
    0
  9
$DIMSCALE
 40
2.5
  9
$DIMASZ
 40
2.5
  9
$DIMEXO
 40
0.625
  9
$DIMDLI
 40
3.75
  9
$DIMRND
 40
0
  9
$DIMDLE
 40
0
  9
$DIMEXE
 40
1.25
  9
$DIMTP
 40
0
  9
$DIMTM
 40
0
  9
$DIMTXT
 40
2.5
  9
$DIMCEN
 40
2.5
  9
$DIMTSZ
 40
0
  9
$DIMTOL
 70
    0
  9
$DIMLIM
 70
    0
  9
$DIMTIH
 70
    0
  9
$DIMTOH
 70
    0
  9
$DIMSE1
 70
    0
  9
$DIMSE2
 70
    0
  9
$DIMTAD
 70
    1
  9
$DIMZIN
 70
    8
  9
$DIMBLK
  1

  9
$DIMASO
 70
    1
  9
$DIMSHO
 70
    1
  9
$DIMPOST
  1

  9
$DIMAPOST
  1

  9
$DIMALT
 70
    0
  9
$DIMALTD
 70
    3
  9
$DIMALTF
 40
0.03937
  9
$DIMLFAC
 40
1
  9
$DIMTOFL
 70
    1
  9
$DIMTVP
 40
0
  9
$DIMTIX
 70
    0
  9
$DIMSOXD
 70
    0
  9
$DIMSAH
 70
    0
  9
$DIMBLK1
  1

  9
$DIMBLK2
  1

  9
$DIMSTYLE
  2
Standard
  9
$DIMCLRD
 70
    0
  9
$DIMCLRE
 70
    0
  9
$DIMCLRT
 70
    0
  9
$DIMTFAC
 40
1
  9
$DIMGAP
 40
0.625
  9
$DIMJUST
 70
    0
  9
$DIMSD1
 70
    0
  9
$DIMSD2
 70
    0
  9
$DIMTOLJ
 70
    0
  9
$DIMTZIN
 70
    8
  9
$DIMALTZ
 70
    0
  9
$DIMALTTZ
 70
    0
  9
$DIMUPT
 70
    0
  9
$DIMDEC
 70
    2
  9
$DIMTDEC
 70
    2
  9
$DIMALTU
 70
    2
  9
$DIMALTTD
 70
    3
  9
$DIMTXSTY
  7
STANDARD
  9
$DIMAUNIT
 70
    0
  9
$DIMADEC
 70
    0
  9
$DIMALTRND
 40
0
  9
$DIMAZIN
 70
    0
  9
$DIMDSEP
 70
   44
  9
$DIMATFIT
 70
    3
  9
$DIMFRAC
 70
    0
  9
$DIMLDRBLK
  1
STANDARD
  9
$DIMLUNIT
 70
    2
  9
$DIMLWD
 70
   -2
  9
$DIMLWE
 70
   -2
  9
$DIMTMOVE
 70
    0
  9
$DIMFXL
 40
1
  9
$DIMFXLON
 70
    0
  9
$DIMJOGANG
 40
0.7854
  9
$DIMTFILL
 70
    0
  9
$DIMTFILLCLR
 70
    0
  9
$DIMARCSYM
 70
    0
  9
$DIMLTYPE
  6

  9
$DIMLTEX1
  6

  9
$DIMLTEX2
  6

  9
$LUNITS
 70
    2
  9
$LUPREC
 70
    4
  9
$SKETCHINC
 40
1
  9
$FILLETRAD
 40
0
  9
$AUNITS
 70
    0
  9
$AUPREC
 70
    2
  9
$MENU
  1
.
  9
$ELEVATION
 40
0
  9
$PELEVATION
 40
0
  9
$THICKNESS
 40
0
  9
$LIMCHECK
 70
    0
  9
$CHAMFERA
 40
0
  9
$CHAMFERB
 40
0
  9
$CHAMFERC
 40
0
  9
$CHAMFERD
 40
0
  9
$SKPOLY
 70
    0
  9
$USRTIMER
 70
    1
  9
$ANGBASE
 50
0
  9
$ANGDIR
 70
    0
  9
$PDMODE
 70
   34
  9
$PDSIZE
 40
0
  9
$PLINEWID
 40
0
  9
$SPLFRAME
 70
    1
  9
$SPLINETYPE
 70
    2
  9
$SPLINESEGS
 70
    8
  9
$HANDSEED
  5
20000
  9
$SURFTAB1
 70
    6
  9
$SURFTAB2
 70
    6
  9
$SURFTYPE
 70
    6
  9
$SURFU
 70
    6
  9
$SURFV
 70
    6
  9
$UCSBASE
  2

  9
$UCSNAME
  2

  9
$UCSORG
 10
0
 20
0
 30
0
  9
$UCSXDIR
 10
1
 20
0
 30
0
  9
$UCSYDIR
 10
0
 20
1
 30
0
  9
$UCSORTHOREF
  2

  9
$UCSORTHOVIEW
 70
    0
  9
$UCSORGTOP
 10
0
 20
0
 30
0
  9
$UCSORGBOTTOM
 10
0
 20
0
 30
0
  9
$UCSORGLEFT
 10
0
 20
0
 30
0
  9
$UCSORGRIGHT
 10
0
 20
0
 30
0
  9
$UCSORGFRONT
 10
0
 20
0
 30
0
  9
$UCSORGBACK
 10
0
 20
0
 30
0
  9
$PUCSBASE
  2

  9
$PUCSNAME
  2

  9
$PUCSORG
 10
0
 20
0
 30
0
  9
$PUCSXDIR
 10
1
 20
0
 30
0
  9
$PUCSYDIR
 10
0
 20
1
 30
0
  9
$PUCSORTHOREF
  2

  9
$PUCSORTHOVIEW
 70
    0
  9
$PUCSORGTOP
 10
0
 20
0
 30
0
  9
$PUCSORGBOTTOM
 10
0
 20
0
 30
0
  9
$PUCSORGLEFT
 10
0
 20
0
 30
0
  9
$PUCSORGRIGHT
 10
0
 20
0
 30
0
  9
$PUCSORGFRONT
 10
0
 20
0
 30
0
  9
$PUCSORGBACK
 10
0
 20
0
 30
0
  9
$USERI1
 70
    0
  9
$USERI2
 70
    0
  9
$USERI3
 70
    0
  9
$USERI4
 70
    0
  9
$USERI5
 70
    0
  9
$USERR1
 40
0
  9
$USERR2
 40
0
  9
$USERR3
 40
0
  9
$USERR4
 40
0
  9
$USERR5
 40
0
  9
$WORLDVIEW
 70
    1
  9
$SHADEDGE
 70
    3
  9
$SHADEDIF
 70
   70
  9
$TILEMODE
 70
    1
  9
$MAXACTVP
 70
   64
  9
$PINSBASE
 10
0
 20
0
 30
0
  9
$PLIMCHECK
 70
    0
  9
$PEXTMIN
 10
0
 20
0
 30
0
  9
$PEXTMAX
 10
0
 20
0
 30
0
  9
$SNAPSTYLE
 70
    0
  9
$PLIMMIN
 10
0
 20
0
  9
$PLIMMAX
 10
210
 20
297
  9
$UNITMODE
 70
    0
  9
$VISRETAIN
 70
    1
  9
$PLINEGEN
 70
    0
  9
$PSLTSCALE
 70
    1
  9
$TREEDEPTH
 70
 3020
  9
$CMLSTYLE
  2
Standard
  9
$CMLJUST
 70
    0
  9
$CMLSCALE
 40
20
  9
$PROXYGRAPHICS
 70
    1
  9
$MEASUREMENT
 70
    1
  9
$CELWEIGHT
370
   -1
  9
$ENDCAPS
280
    0
  9
$JOINSTYLE
280
    0
  9
$LWDISPLAY
290
    0
  9
$INSUNITS
 70
    4
  9
$HYPERLINKBASE
  1

  9
$STYLESHEET
  1

  9
$XEDIT
290
    1
  9
$CEPSNTYPE
380
    0
  9
$PSTYLEMODE
290
    1
  9
$EXTNAMES
290
    1
  9
$PSVPSCALE
 40
1
  9
$OLESTARTUP
290
    0
  9
$SORTENTS
280
  127
  9
$INDEXCTL
280
    0
  9
$HIDETEXT
280
    1
  9
$XCLIPFRAME
290
    0
  9
$HALOGAP
280
    0
  9
$OBSCOLOR
 70
  257
  9
$OBSLTYPE
280
    0
  9
$INTERSECTIONDISPLAY
280
    0
  9
$INTERSECTIONCOLOR
 70
  257
  9
$DIMASSOC
280
    1
  9
$PROJECTNAME
  1

  9
$CAMERADISPLAY
290
    0
  9
$LENSLENGTH
 40
50
  9
$CAMERAHEIGHT
 40
0
  9
$STEPSPERSEC
 40
2
  9
$STEPSIZE
 40
50
  9
$3DDWFPREC
 40
2
  9
$PSOLWIDTH
 40
5
  9
$PSOLHEIGHT
 40
80
  9
$LOFTANG1
 40
1.570796326794897
  9
$LOFTANG2
 40
1.570796326794897
  9
$LOFTMAG1
 40
0
  9
$LOFTMAG2
 40
0
  9
$LOFTPARAM
 70
    7
  9
$LOFTNORMALS
280
    1
  9
$LATITUDE
 40
1
  9
$LONGITUDE
 40
1
  9
$NORTHDIRECTION
 40
0
  9
$TIMEZONE
 70
-8000
  9
$LIGHTGLYPHDISPLAY
280
    1
  9
$TILEMODELIGHTSYNCH
280
    1
  9
$SOLIDHIST
280
    1
  9
$SHOWHIST
280
    1
  9
$DWFFRAME
280
    2
  9
$DGNFRAME
280
    0
  9
$REALWORLDSCALE
290
    1
  9
$INTERFERECOLOR
 62
    1
  9
$CSHADOW
280
    0
  9
$SHADOWPLANELOCATION
 40
0
  0
ENDSEC
  0
SECTION
  2
CLASSES
  0
ENDSEC
  0
SECTION
  2
TABLES
  0
TABLE
  2
VPORT
  5
8
330
0
100
AcDbSymbolTable
 70
    1
  0
VPORT
  5
31
330
2
100
AcDbSymbolTableRecord
100
AcDbViewportTableRecord
  2
*ACTIVE
 70
    0
 10
0
 20
0
 11
1
 21
1
 12
152.968750000014
 22
66.4062500000061
 13
0
 23
0
 14
10
 24
10
 15
10
 25
10
 16
0
 26
0
 36
1
 17
0
 27
0
 37
0
 40
154.0625000000142
 41
2.170385395537525
 42
50
 43
0
 44
0
 50
0
 51
0
 71
    0
 72
  100
 73
    1
 74
    3
 75
    0
 76
    1
 77
    0
 78
    0
281
    0
 65
    1
110
0
120
0
130
0
111
1
121
0
131
0
112
0
122
1
132
0
 79
    0
146
0
348
10020
 60
    7
 61
    5
292
1
282
    1
141
0
142
0
 63
  250
421
3358443
  0
ENDTAB
  0
TABLE
  2
LTYPE
  5
5
330
0
100
AcDbSymbolTable
 70
    4
  0
LTYPE
  5
14
330
5
100
AcDbSymbolTableRecord
100
AcDbLinetypeTableRecord
  2
ByBlock
 70
    0
  3

 72
   65
 73
    0
 40
0
  0
LTYPE
  5
15
330
5
100
AcDbSymbolTableRecord
100
AcDbLinetypeTableRecord
  2
ByLayer
 70
    0
  3

 72
   65
 73
    0
 40
0
  0
LTYPE
  5
16
330
5
100
AcDbSymbolTableRecord
100
AcDbLinetypeTableRecord
  2
Continuous
 70
    0
  3
Solid line
 72
   65
 73
    0
 40
0
  0
LTYPE
  5
32
330
5
100
AcDbSymbolTableRecord
100
AcDbLinetypeTableRecord
  2
DOT
 70
    0
  3
Dot . . . . . . . . . . . . . . . . . . . . . .
 72
   65
 73
    2
 40
6.35
 49
0
 74
    0
 49
-6.35
 74
    0
  0
LTYPE
  5
33
330
5
100
AcDbSymbolTableRecord
100
AcDbLinetypeTableRecord
  2
DOTTINY
 70
    0
  3
Dot (.15x) .....................................
 72
   65
 73
    2
 40
0.9525
 49
0
 74
    0
 49
-0.9525
 74
    0
  0
LTYPE
  5
34
330
5
100
AcDbSymbolTableRecord
100
AcDbLinetypeTableRecord
  2
DOT2
 70
    0
  3
Dot (.5x) .....................................
 72
   65
 73
    2
 40
3.175
 49
0
 74
    0
 49
-3.175
 74
    0
  0
LTYPE
  5
35
330
5
100
AcDbSymbolTableRecord
100
AcDbLinetypeTableRecord
  2
DOTX2
 70
    0
  3
Dot (2x) .  .  .  .  .  .  .  .  .  .  .  .  .
 72
   65
 73
    2
 40
12.7
 49
0
 74
    0
 49
-12.7
 74
    0
  0
LTYPE
  5
36
330
5
100
AcDbSymbolTableRecord
100
AcDbLinetypeTableRecord
  2
DASHED
 70
    0
  3
Dashed _ _ _ _ _ _ _ _ _ _ _ _ _ _ _ _ _
 72
   65
 73
    2
 40
19.05
 49
12.7
 74
    0
 49
-6.35
 74
    0
  0
LTYPE
  5
37
330
5
100
AcDbSymbolTableRecord
100
AcDbLinetypeTableRecord
  2
DASHEDTINY
 70
    0
  3
Dashed (.15x) _ _ _ _ _ _ _ _ _ _ _ _ _ _ _ _ _
 72
   65
 73
    2
 40
2.8575
 49
1.905
 74
    0
 49
-0.9525
 74
    0
  0
LTYPE
  5
38
330
5
100
AcDbSymbolTableRecord
100
AcDbLinetypeTableRecord
  2
DASHED2
 70
    0
  3
Dashed (.5x) _ _ _ _ _ _ _ _ _ _ _ _ _ _ _ _ _
 72
   65
 73
    2
 40
9.524999999999999
 49
6.35
 74
    0
 49
-3.175
 74
    0
  0
LTYPE
  5
39
330
5
100
AcDbSymbolTableRecord
100
AcDbLinetypeTableRecord
  2
DASHEDX2
 70
    0
  3
Dashed (2x) ____  ____  ____  ____  ____  ___
 72
   65
 73
    2
 40
38.09999999999999
 49
25.4
 74
    0
 49
-12.7
 74
    0
  0
LTYPE
  5
3A
330
5
100
AcDbSymbolTableRecord
100
AcDbLinetypeTableRecord
  2
DASHDOT
 70
    0
  3
Dash dot __ . __ . __ . __ . __ . __ . __ . __
 72
   65
 73
    4
 40
25.4
 49
12.7
 74
    0
 49
-6.35
 74
    0
 49
0
 74
    0
 49
-6.35
 74
    0
  0
LTYPE
  5
3B
330
5
100
AcDbSymbolTableRecord
100
AcDbLinetypeTableRecord
  2
DASHDOTTINY
 70
    0
  3
Dash dot (.15x) _._._._._._._._._._._._._._._.
 72
   65
 73
    4
 40
3.81
 49
1.905
 74
    0
 49
-0.9525
 74
    0
 49
0
 74
    0
 49
-0.9525
 74
    0
  0
LTYPE
  5
3C
330
5
100
AcDbSymbolTableRecord
100
AcDbLinetypeTableRecord
  2
DASHDOT2
 70
    0
  3
Dash dot (.5x) _._._._._._._._._._._._._._._.
 72
   65
 73
    4
 40
12.7
 49
6.35
 74
    0
 49
-3.175
 74
    0
 49
0
 74
    0
 49
-3.175
 74
    0
  0
LTYPE
  5
3D
330
5
100
AcDbSymbolTableRecord
100
AcDbLinetypeTableRecord
  2
DASHDOTX2
 70
    0
  3
Dash dot (2x) ____  .  ____  .  ____  .  ___
 72
   65
 73
    4
 40
50.8
 49
25.4
 74
    0
 49
-12.7
 74
    0
 49
0
 74
    0
 49
-12.7
 74
    0
  0
LTYPE
  5
3E
330
5
100
AcDbSymbolTableRecord
100
AcDbLinetypeTableRecord
  2
DIVIDE
 70
    0
  3
Divide ____ . . ____ . . ____ . . ____ . . ____
 72
   65
 73
    6
 40
31.75
 49
12.7
 74
    0
 49
-6.35
 74
    0
 49
0
 74
    0
 49
-6.35
 74
    0
 49
0
 74
    0
 49
-6.35
 74
    0
  0
LTYPE
  5
3F
330
5
100
AcDbSymbolTableRecord
100
AcDbLinetypeTableRecord
  2
DIVIDETINY
 70
    0
  3
Divide (.15x) __..__..__..__..__..__..__..__.._
 72
   65
 73
    6
 40
4.7625
 49
1.905
 74
    0
 49
-0.9525
 74
    0
 49
0
 74
    0
 49
-0.9525
 74
    0
 49
0
 74
    0
 49
-0.9525
 74
    0
  0
LTYPE
  5
40
330
5
100
AcDbSymbolTableRecord
100
AcDbLinetypeTableRecord
  2
DIVIDE2
 70
    0
  3
Divide (.5x) __..__..__..__..__..__..__..__.._
 72
   65
 73
    6
 40
15.875
 49
6.35
 74
    0
 49
-3.175
 74
    0
 49
0
 74
    0
 49
-3.175
 74
    0
 49
0
 74
    0
 49
-3.175
 74
    0
  0
LTYPE
  5
41
330
5
100
AcDbSymbolTableRecord
100
AcDbLinetypeTableRecord
  2
DIVIDEX2
 70
    0
  3
Divide (2x) ________  .  .  ________  .  .  _
 72
   65
 73
    6
 40
63.5
 49
25.4
 74
    0
 49
-12.7
 74
    0
 49
0
 74
    0
 49
-12.7
 74
    0
 49
0
 74
    0
 49
-12.7
 74
    0
  0
LTYPE
  5
42
330
5
100
AcDbSymbolTableRecord
100
AcDbLinetypeTableRecord
  2
BORDER
 70
    0
  3
Border __ __ . __ __ . __ __ . __ __ . __ __ .
 72
   65
 73
    6
 40
44.45
 49
12.7
 74
    0
 49
-6.35
 74
    0
 49
12.7
 74
    0
 49
-6.35
 74
    0
 49
0
 74
    0
 49
-6.35
 74
    0
  0
LTYPE
  5
43
330
5
100
AcDbSymbolTableRecord
100
AcDbLinetypeTableRecord
  2
BORDERTINY
 70
    0
  3
Border (.15x) __.__.__.__.__.__.__.__.__.__.__.
 72
   65
 73
    6
 40
6.6675
 49
1.905
 74
    0
 49
-0.9525
 74
    0
 49
1.905
 74
    0
 49
-0.9525
 74
    0
 49
0
 74
    0
 49
-0.9525
 74
    0
  0
LTYPE
  5
44
330
5
100
AcDbSymbolTableRecord
100
AcDbLinetypeTableRecord
  2
BORDER2
 70
    0
  3
Border (.5x) __.__.__.__.__.__.__.__.__.__.__.
 72
   65
 73
    6
 40
22.225
 49
6.35
 74
    0
 49
-3.175
 74
    0
 49
6.35
 74
    0
 49
-3.175
 74
    0
 49
0
 74
    0
 49
-3.175
 74
    0
  0
LTYPE
  5
45
330
5
100
AcDbSymbolTableRecord
100
AcDbLinetypeTableRecord
  2
BORDERX2
 70
    0
  3
Border (2x) ____  ____  .  ____  ____  .  ___
 72
   65
 73
    6
 40
88.89999999999999
 49
25.4
 74
    0
 49
-12.7
 74
    0
 49
25.4
 74
    0
 49
-12.7
 74
    0
 49
0
 74
    0
 49
-12.7
 74
    0
  0
LTYPE
  5
46
330
5
100
AcDbSymbolTableRecord
100
AcDbLinetypeTableRecord
  2
CENTER
 70
    0
  3
Center ____ _ ____ _ ____ _ ____ _ ____ _ ____
 72
   65
 73
    4
 40
50.8
 49
31.75
 74
    0
 49
-6.35
 74
    0
 49
6.35
 74
    0
 49
-6.35
 74
    0
  0
LTYPE
  5
47
330
5
100
AcDbSymbolTableRecord
100
AcDbLinetypeTableRecord
  2
CENTERTINY
 70
    0
  3
Center (.15x) ___ _ ___ _ ___ _ ___ _ ___ _ ___
 72
   65
 73
    4
 40
7.619999999999999
 49
4.7625
 74
    0
 49
-0.9525
 74
    0
 49
0.9525
 74
    0
 49
-0.9525
 74
    0
  0
LTYPE
  5
48
330
5
100
AcDbSymbolTableRecord
100
AcDbLinetypeTableRecord
  2
CENTER2
 70
    0
  3
Center (.5x) ___ _ ___ _ ___ _ ___ _ ___ _ ___
 72
   65
 73
    4
 40
28.575
 49
19.05
 74
    0
 49
-3.175
 74
    0
 49
3.175
 74
    0
 49
-3.175
 74
    0
  0
LTYPE
  5
49
330
5
100
AcDbSymbolTableRecord
100
AcDbLinetypeTableRecord
  2
CENTERX2
 70
    0
  3
Center (2x) ________  __  ________  __  _____
 72
   65
 73
    4
 40
101.6
 49
63.5
 74
    0
 49
-12.7
 74
    0
 49
12.7
 74
    0
 49
-12.7
 74
    0
  0
ENDTAB
  0
TABLE
  2
LAYER
  5
2
330
0
100
AcDbSymbolTable
 70
    1
  0
LAYER
  5
10
330
2
100
AcDbSymbolTableRecord
100
AcDbLayerTableRecord
  2
0
 70
    0
 62
    7
  6
CONTINUOUS
370
   -3
390
F
  0
ENDTAB
  0
TABLE
  2
STYLE
  5
3
330
0
100
AcDbSymbolTable
 70
    3
  0
STYLE
  5
4A
330
2
100
AcDbSymbolTableRecord
100
AcDbTextStyleTableRecord
  2
Standard
 70
    0
 40
0
 41
1
 50
0
 71
    0
 42
1
  3
txt
  4

  0
ENDTAB
  0
TABLE
  2
VIEW
  5
6
330
0
100
AcDbSymbolTable
 70
    0
  0
ENDTAB
  0
TABLE
  2
UCS
  5
7
330
0
100
AcDbSymbolTable
 70
    0
  0
ENDTAB
  0
TABLE
  2
APPID
  5
9
330
0
100
AcDbSymbolTable
 70
    1
  0
APPID
  5
12
330
9
100
AcDbSymbolTableRecord
100
AcDbRegAppTableRecord
  2
ACAD
 70
    0
  0
APPID
  5
4B
330
9
100
AcDbSymbolTableRecord
100
AcDbRegAppTableRecord
  2
LibreCad
 70
    0
  0
ENDTAB
  0
TABLE
  2
DIMSTYLE
  5
A
330
0
100
AcDbSymbolTable
 70
    1
100
AcDbDimStyleTable
 71
    1
  0
DIMSTYLE
105
4C
330
A
100
AcDbSymbolTableRecord
100
AcDbDimStyleTableRecord
  2
Standard
 70
    0
 40
1
 41
2.5
 42
0.625
 43
0.38
 44
1.25
 45
0
 46
0
 47
0
 48
0
 49
1
140
2.5
141
0.09
142
2.5
143
25.4
144
1
145
0
146
1
147
0.625
148
0
 71
    0
 72
    0
 73
    0
 74
    1
 75
    0
 76
    0
 77
    0
 78
    1
 79
    0
170
    0
171
    2
172
    0
173
    0
174
    0
175
    0
176
    0
177
    0
178
    0
179
    0
271
    2
272
    4
273
    2
274
    2
275
    0
276
    0
277
    2
278
    0
279
    0
280
    0
281
    0
282
    0
283
    1
284
    0
285
    0
286
    0
288
    0
289
    3
340
standard
341

371
   -2
372
   -2
  0
ENDTAB
  0
TABLE
  2
BLOCK_RECORD
  5
1
330
0
100
AcDbSymbolTable
 70
    2
  0
BLOCK_RECORD
  5
1F
330
1
100
AcDbSymbolTableRecord
100
AcDbBlockTableRecord
  2
*Model_Space
 70
    0
280
    1
281
    0
  0
BLOCK_RECORD
  5
1E
330
1
100
AcDbSymbolTableRecord
100
AcDbBlockTableRecord
  2
*Paper_Space
 70
    0
280
    1
281
    0
  0
ENDTAB
  0
ENDSEC
  0
SECTION
  2
BLOCKS
  0
BLOCK
  5
20
330
1F
100
AcDbEntity
  8
0
100
AcDbBlockBegin
  2
*Model_Space
 70
    0
 10
0
 20
0
 30
0
  3
*Model_Space
  1

  0
ENDBLK
  5
21
330
1F
100
AcDbEntity
  8
0
100
AcDbBlockEnd
  0
BLOCK
  5
1C
330
1B
100
AcDbEntity
  8
0
100
AcDbBlockBegin
  2
*Paper_Space
 70
    0
 10
0
 20
0
 30
0
  3
*Paper_Space
  1

  0
ENDBLK
  5
1D
330
1F
100
AcDbEntity
  8
0
100
AcDbBlockEnd
  0
ENDSEC
  0
SECTION
  2
ENTITIES
  0
LINE
  5
4D
100
AcDbEntity
  8
0
  6
ByLayer
 62
    0
370
   -1
100
AcDbLine
 10
285.47
 20
40.8615
 11
281.969
 21
40.8615
  0
LINE
  5
4E
100
AcDbEntity
  8
0
  6
ByLayer
 62
    0
370
   -1
100
AcDbLine
 10
281.969
 20
40.8615
 11
281.196
 21
40.7388
  0
LINE
  5
4F
100
AcDbEntity
  8
0
  6
ByLayer
 62
    0
370
   -1
100
AcDbLine
 10
281.196
 20
40.7388
 11
280.5
 21
40.3849
  0
LINE
  5
50
100
AcDbEntity
  8
0
  6
ByLayer
 62
    0
370
   -1
100
AcDbLine
 10
280.5
 20
40.3849
 11
279.947
 21
39.8307
  0
LINE
  5
51
100
AcDbEntity
  8
0
  6
ByLayer
 62
    0
370
   -1
100
AcDbLine
 10
279.947
 20
39.8307
 11
279.593
 21
39.1336
  0
LINE
  5
52
100
AcDbEntity
  8
0
  6
ByLayer
 62
    0
370
   -1
100
AcDbLine
 10
279.593
 20
39.1336
 11
279.47
 21
38.3618
  0
LINE
  5
53
100
AcDbEntity
  8
0
  6
ByLayer
 62
    0
370
   -1
100
AcDbLine
 10
279.47
 20
38.3618
 11
279.593
 21
37.5888
  0
LINE
  5
54
100
AcDbEntity
  8
0
  6
ByLayer
 62
    0
370
   -1
100
AcDbLine
 10
279.593
 20
37.5888
 11
279.947
 21
36.8914
  0
LINE
  5
55
100
AcDbEntity
  8
0
  6
ByLayer
 62
    0
370
   -1
100
AcDbLine
 10
279.947
 20
36.8914
 11
280.5
 21
36.3375
  0
LINE
  5
56
100
AcDbEntity
  8
0
  6
ByLayer
 62
    0
370
   -1
100
AcDbLine
 10
280.5
 20
36.3375
 11
281.196
 21
35.9833
  0
LINE
  5
57
100
AcDbEntity
  8
0
  6
ByLayer
 62
    0
370
   -1
100
AcDbLine
 10
281.196
 20
35.9833
 11
281.969
 21
35.8606
  0
LINE
  5
58
100
AcDbEntity
  8
0
  6
ByLayer
 62
    0
370
   -1
100
AcDbLine
 10
281.969
 20
35.8606
 11
285.47
 21
35.8606
  0
LINE
  5
59
100
AcDbEntity
  8
0
  6
ByLayer
 62
    0
370
   -1
100
AcDbLine
 10
285.47
 20
35.8606
 11
285.47
 21
0.0964629
  0
LINE
  5
5A
100
AcDbEntity
  8
0
  6
ByLayer
 62
    0
370
   -1
100
AcDbLine
 10
285.47
 20
0.0964629
 11
0.09508460000000001
 21
0.0964629
  0
LINE
  5
5B
100
AcDbEntity
  8
0
  6
ByLayer
 62
    0
370
   -1
100
AcDbLine
 10
0.09508460000000001
 20
0.0964629
 11
0.09508460000000001
 21
35.8606
  0
LINE
  5
5C
100
AcDbEntity
  8
0
  6
ByLayer
 62
    0
370
   -1
100
AcDbLine
 10
0.09508460000000001
 20
35.8606
 11
3.5953
 21
35.8606
  0
LINE
  5
5D
100
AcDbEntity
  8
0
  6
ByLayer
 62
    0
370
   -1
100
AcDbLine
 10
3.5953
 20
35.8606
 11
4.36838
 21
35.9833
  0
LINE
  5
5E
100
AcDbEntity
  8
0
  6
ByLayer
 62
    0
370
   -1
100
AcDbLine
 10
4.36838
 20
35.9833
 11
5.0643
 21
36.3375
  0
LINE
  5
5F
100
AcDbEntity
  8
0
  6
ByLayer
 62
    0
370
   -1
100
AcDbLine
 10
5.0643
 20
36.3375
 11
5.61689
 21
36.8914
  0
LINE
  5
60
100
AcDbEntity
  8
0
  6
ByLayer
 62
    0
370
   -1
100
AcDbLine
 10
5.61689
 20
36.8914
 11
5.97242
 21
37.5888
  0
LINE
  5
61
100
AcDbEntity
  8
0
  6
ByLayer
 62
    0
370
   -1
100
AcDbLine
 10
5.97242
 20
37.5888
 11
6.09505
 21
38.3603
  0
LINE
  5
62
100
AcDbEntity
  8
0
  6
ByLayer
 62
    0
370
   -1
100
AcDbLine
 10
6.09505
 20
38.3603
 11
5.97242
 21
39.1336
  0
LINE
  5
63
100
AcDbEntity
  8
0
  6
ByLayer
 62
    0
370
   -1
100
AcDbLine
 10
5.97242
 20
39.1336
 11
5.61689
 21
39.8307
  0
LINE
  5
64
100
AcDbEntity
  8
0
  6
ByLayer
 62
    0
370
   -1
100
AcDbLine
 10
5.61689
 20
39.8307
 11
5.0643
 21
40.3849
  0
LINE
  5
65
100
AcDbEntity
  8
0
  6
ByLayer
 62
    0
370
   -1
100
AcDbLine
 10
5.0643
 20
40.3849
 11
4.36838
 21
40.7388
  0
LINE
  5
66
100
AcDbEntity
  8
0
  6
ByLayer
 62
    0
370
   -1
100
AcDbLine
 10
4.36838
 20
40.7388
 11
3.59668
 21
40.8615
  0
LINE
  5
67
100
AcDbEntity
  8
0
  6
ByLayer
 62
    0
370
   -1
100
AcDbLine
 10
3.59668
 20
40.8615
 11
0.09508460000000001
 21
40.8615
  0
LINE
  5
68
100
AcDbEntity
  8
0
  6
ByLayer
 62
    0
370
   -1
100
AcDbLine
 10
0.09508460000000001
 20
40.8615
 11
0.09508460000000001
 21
95.0239
  0
LINE
  5
69
100
AcDbEntity
  8
0
  6
ByLayer
 62
    0
370
   -1
100
AcDbLine
 10
0.09508460000000001
 20
95.0239
 11
285.47
 21
95.0239
  0
LINE
  5
6A
100
AcDbEntity
  8
0
  6
ByLayer
 62
    0
370
   -1
100
AcDbLine
 10
285.47
 20
95.0239
 11
285.47
 21
40.8615
  0
LINE
  5
6B
100
AcDbEntity
  8
0
  6
ByLayer
 62
    0
370
   -1
100
AcDbLine
 10
4.81348
 20
16.4621
 11
4.81348
 21
15.4616
  0
LINE
  5
6C
100
AcDbEntity
  8
0
  6
ByLayer
 62
    0
370
   -1
100
AcDbLine
 10
4.81348
 20
15.4616
 11
4.01285
 21
15.4616
  0
LINE
  5
6D
100
AcDbEntity
  8
0
  6
ByLayer
 62
    0
370
   -1
100
AcDbLine
 10
4.01285
 20
15.4616
 11
4.01285
 21
12.361
  0
LINE
  5
6E
100
AcDbEntity
  8
0
  6
ByLayer
 62
    0
370
   -1
100
AcDbLine
 10
4.01285
 20
12.361
 11
4.81348
 21
12.361
  0
LINE
  5
6F
100
AcDbEntity
  8
0
  6
ByLayer
 62
    0
370
   -1
100
AcDbLine
 10
4.81348
 20
12.361
 11
4.81348
 21
6.56086
  0
LINE
  5
70
100
AcDbEntity
  8
0
  6
ByLayer
 62
    0
370
   -1
100
AcDbLine
 10
4.81348
 20
6.56086
 11
4.01285
 21
6.56086
  0
LINE
  5
71
100
AcDbEntity
  8
0
  6
ByLayer
 62
    0
370
   -1
100
AcDbLine
 10
4.01285
 20
6.56086
 11
4.01285
 21
3.46163
  0
LINE
  5
72
100
AcDbEntity
  8
0
  6
ByLayer
 62
    0
370
   -1
100
AcDbLine
 10
4.01285
 20
3.46163
 11
4.81348
 21
3.46163
  0
LINE
  5
73
100
AcDbEntity
  8
0
  6
ByLayer
 62
    0
370
   -1
100
AcDbLine
 10
4.81348
 20
3.46163
 11
4.81348
 21
2.46255
  0
LINE
  5
74
100
AcDbEntity
  8
0
  6
ByLayer
 62
    0
370
   -1
100
AcDbLine
 10
4.81348
 20
2.46255
 11
18.813
 21
2.46255
  0
LINE
  5
75
100
AcDbEntity
  8
0
  6
ByLayer
 62
    0
370
   -1
100
AcDbLine
 10
18.813
 20
2.46255
 11
18.813
 21
3.46163
  0
LINE
  5
76
100
AcDbEntity
  8
0
  6
ByLayer
 62
    0
370
   -1
100
AcDbLine
 10
18.813
 20
3.46163
 11
19.6136
 21
3.46163
  0
LINE
  5
77
100
AcDbEntity
  8
0
  6
ByLayer
 62
    0
370
   -1
100
AcDbLine
 10
19.6136
 20
3.46163
 11
19.6136
 21
6.56086
  0
LINE
  5
78
100
AcDbEntity
  8
0
  6
ByLayer
 62
    0
370
   -1
100
AcDbLine
 10
19.6136
 20
6.56086
 11
18.813
 21
6.56086
  0
LINE
  5
79
100
AcDbEntity
  8
0
  6
ByLayer
 62
    0
370
   -1
100
AcDbLine
 10
18.813
 20
6.56086
 11
18.813
 21
12.361
  0
LINE
  5
7A
100
AcDbEntity
  8
0
  6
ByLayer
 62
    0
370
   -1
100
AcDbLine
 10
18.813
 20
12.361
 11
19.6136
 21
12.361
  0
LINE
  5
7B
100
AcDbEntity
  8
0
  6
ByLayer
 62
    0
370
   -1
100
AcDbLine
 10
19.6136
 20
12.361
 11
19.6136
 21
15.4616
  0
LINE
  5
7C
100
AcDbEntity
  8
0
  6
ByLayer
 62
    0
370
   -1
100
AcDbLine
 10
19.6136
 20
15.4616
 11
18.813
 21
15.4616
  0
LINE
  5
7D
100
AcDbEntity
  8
0
  6
ByLayer
 62
    0
370
   -1
100
AcDbLine
 10
18.813
 20
15.4616
 11
18.813
 21
16.4621
  0
LINE
  5
7E
100
AcDbEntity
  8
0
  6
ByLayer
 62
    0
370
   -1
100
AcDbLine
 10
18.813
 20
16.4621
 11
4.81348
 21
16.4621
  0
LINE
  5
7F
100
AcDbEntity
  8
0
  6
ByLayer
 62
    0
370
   -1
100
AcDbLine
 10
28.6246
 20
16.4621
 11
28.6246
 21
15.4616
  0
LINE
  5
80
100
AcDbEntity
  8
0
  6
ByLayer
 62
    0
370
   -1
100
AcDbLine
 10
28.6246
 20
15.4616
 11
27.8253
 21
15.4616
  0
LINE
  5
81
100
AcDbEntity
  8
0
  6
ByLayer
 62
    0
370
   -1
100
AcDbLine
 10
27.8253
 20
15.4616
 11
27.8253
 21
12.361
  0
LINE
  5
82
100
AcDbEntity
  8
0
  6
ByLayer
 62
    0
370
   -1
100
AcDbLine
 10
27.8253
 20
12.361
 11
28.6246
 21
12.361
  0
LINE
  5
83
100
AcDbEntity
  8
0
  6
ByLayer
 62
    0
370
   -1
100
AcDbLine
 10
28.6246
 20
12.361
 11
28.6246
 21
6.56086
  0
LINE
  5
84
100
AcDbEntity
  8
0
  6
ByLayer
 62
    0
370
   -1
100
AcDbLine
 10
28.6246
 20
6.56086
 11
27.8253
 21
6.56086
  0
LINE
  5
85
100
AcDbEntity
  8
0
  6
ByLayer
 62
    0
370
   -1
100
AcDbLine
 10
27.8253
 20
6.56086
 11
27.8253
 21
3.46163
  0
LINE
  5
86
100
AcDbEntity
  8
0
  6
ByLayer
 62
    0
370
   -1
100
AcDbLine
 10
27.8253
 20
3.46163
 11
28.6246
 21
3.46163
  0
LINE
  5
87
100
AcDbEntity
  8
0
  6
ByLayer
 62
    0
370
   -1
100
AcDbLine
 10
28.6246
 20
3.46163
 11
28.6246
 21
2.46255
  0
LINE
  5
88
100
AcDbEntity
  8
0
  6
ByLayer
 62
    0
370
   -1
100
AcDbLine
 10
28.6246
 20
2.46255
 11
42.6254
 21
2.46255
  0
LINE
  5
89
100
AcDbEntity
  8
0
  6
ByLayer
 62
    0
370
   -1
100
AcDbLine
 10
42.6254
 20
2.46255
 11
42.6254
 21
3.46163
  0
LINE
  5
8A
100
AcDbEntity
  8
0
  6
ByLayer
 62
    0
370
   -1
100
AcDbLine
 10
42.6254
 20
3.46163
 11
43.4262
 21
3.46163
  0
LINE
  5
8B
100
AcDbEntity
  8
0
  6
ByLayer
 62
    0
370
   -1
100
AcDbLine
 10
43.4262
 20
3.46163
 11
43.4262
 21
6.56086
  0
LINE
  5
8C
100
AcDbEntity
  8
0
  6
ByLayer
 62
    0
370
   -1
100
AcDbLine
 10
43.4262
 20
6.56086
 11
42.6254
 21
6.56086
  0
LINE
  5
8D
100
AcDbEntity
  8
0
  6
ByLayer
 62
    0
370
   -1
100
AcDbLine
 10
42.6254
 20
6.56086
 11
42.6254
 21
12.361
  0
LINE
  5
8E
100
AcDbEntity
  8
0
  6
ByLayer
 62
    0
370
   -1
100
AcDbLine
 10
42.6254
 20
12.361
 11
43.4262
 21
12.361
  0
LINE
  5
8F
100
AcDbEntity
  8
0
  6
ByLayer
 62
    0
370
   -1
100
AcDbLine
 10
43.4262
 20
12.361
 11
43.4262
 21
15.4616
  0
LINE
  5
90
100
AcDbEntity
  8
0
  6
ByLayer
 62
    0
370
   -1
100
AcDbLine
 10
43.4262
 20
15.4616
 11
42.6254
 21
15.4616
  0
LINE
  5
91
100
AcDbEntity
  8
0
  6
ByLayer
 62
    0
370
   -1
100
AcDbLine
 10
42.6254
 20
15.4616
 11
42.6254
 21
16.4621
  0
LINE
  5
92
100
AcDbEntity
  8
0
  6
ByLayer
 62
    0
370
   -1
100
AcDbLine
 10
42.6254
 20
16.4621
 11
28.6246
 21
16.4621
  0
LINE
  5
93
100
AcDbEntity
  8
0
  6
ByLayer
 62
    0
370
   -1
100
AcDbLine
 10
52.4387
 20
16.4621
 11
52.4387
 21
15.4616
  0
LINE
  5
94
100
AcDbEntity
  8
0
  6
ByLayer
 62
    0
370
   -1
100
AcDbLine
 10
52.4387
 20
15.4616
 11
51.6378
 21
15.4616
  0
LINE
  5
95
100
AcDbEntity
  8
0
  6
ByLayer
 62
    0
370
   -1
100
AcDbLine
 10
51.6378
 20
15.4616
 11
51.6378
 21
12.361
  0
LINE
  5
96
100
AcDbEntity
  8
0
  6
ByLayer
 62
    0
370
   -1
100
AcDbLine
 10
51.6378
 20
12.361
 11
52.4387
 21
12.361
  0
LINE
  5
97
100
AcDbEntity
  8
0
  6
ByLayer
 62
    0
370
   -1
100
AcDbLine
 10
52.4387
 20
12.361
 11
52.4387
 21
6.56086
  0
LINE
  5
98
100
AcDbEntity
  8
0
  6
ByLayer
 62
    0
370
   -1
100
AcDbLine
 10
52.4387
 20
6.56086
 11
51.6378
 21
6.56086
  0
LINE
  5
99
100
AcDbEntity
  8
0
  6
ByLayer
 62
    0
370
   -1
100
AcDbLine
 10
51.6378
 20
6.56086
 11
51.6378
 21
3.46163
  0
LINE
  5
9A
100
AcDbEntity
  8
0
  6
ByLayer
 62
    0
370
   -1
100
AcDbLine
 10
51.6378
 20
3.46163
 11
52.4387
 21
3.46163
  0
LINE
  5
9B
100
AcDbEntity
  8
0
  6
ByLayer
 62
    0
370
   -1
100
AcDbLine
 10
52.4387
 20
3.46163
 11
52.4387
 21
2.46255
  0
LINE
  5
9C
100
AcDbEntity
  8
0
  6
ByLayer
 62
    0
370
   -1
100
AcDbLine
 10
52.4387
 20
2.46255
 11
66.4379
 21
2.46255
  0
LINE
  5
9D
100
AcDbEntity
  8
0
  6
ByLayer
 62
    0
370
   -1
100
AcDbLine
 10
66.4379
 20
2.46255
 11
66.4379
 21
3.46163
  0
LINE
  5
9E
100
AcDbEntity
  8
0
  6
ByLayer
 62
    0
370
   -1
100
AcDbLine
 10
66.4379
 20
3.46163
 11
67.23869999999999
 21
3.46163
  0
LINE
  5
9F
100
AcDbEntity
  8
0
  6
ByLayer
 62
    0
370
   -1
100
AcDbLine
 10
67.23869999999999
 20
3.46163
 11
67.23869999999999
 21
6.56086
  0
LINE
  5
A0
100
AcDbEntity
  8
0
  6
ByLayer
 62
    0
370
   -1
100
AcDbLine
 10
67.23869999999999
 20
6.56086
 11
66.4379
 21
6.56086
  0
LINE
  5
A1
100
AcDbEntity
  8
0
  6
ByLayer
 62
    0
370
   -1
100
AcDbLine
 10
66.4379
 20
6.56086
 11
66.4379
 21
12.361
  0
LINE
  5
A2
100
AcDbEntity
  8
0
  6
ByLayer
 62
    0
370
   -1
100
AcDbLine
 10
66.4379
 20
12.361
 11
67.23869999999999
 21
12.361
  0
LINE
  5
A3
100
AcDbEntity
  8
0
  6
ByLayer
 62
    0
370
   -1
100
AcDbLine
 10
67.23869999999999
 20
12.361
 11
67.23869999999999
 21
15.4616
  0
LINE
  5
A4
100
AcDbEntity
  8
0
  6
ByLayer
 62
    0
370
   -1
100
AcDbLine
 10
67.23869999999999
 20
15.4616
 11
66.4379
 21
15.4616
  0
LINE
  5
A5
100
AcDbEntity
  8
0
  6
ByLayer
 62
    0
370
   -1
100
AcDbLine
 10
66.4379
 20
15.4616
 11
66.4379
 21
16.4621
  0
LINE
  5
A6
100
AcDbEntity
  8
0
  6
ByLayer
 62
    0
370
   -1
100
AcDbLine
 10
66.4379
 20
16.4621
 11
52.4387
 21
16.4621
  0
LINE
  5
A7
100
AcDbEntity
  8
0
  6
ByLayer
 62
    0
370
   -1
100
AcDbLine
 10
76.67700000000001
 20
9.96184
 11
76.67700000000001
 21
7.16167
  0
LINE
  5
A8
100
AcDbEntity
  8
0
  6
ByLayer
 62
    0
370
   -1
100
AcDbLine
 10
77.501
 20
3.93153
 11
84.9768
 21
3.93153
  0
LINE
  5
A9
100
AcDbEntity
  8
0
  6
ByLayer
 62
    0
370
   -1
100
AcDbLine
 10
84.9768
 20
3.93153
 11
84.9768
 21
3.46163
  0
LINE
  5
AA
100
AcDbEntity
  8
0
  6
ByLayer
 62
    0
370
   -1
100
AcDbLine
 10
84.9768
 20
3.46163
 11
85.7762
 21
3.46163
  0
LINE
  5
AB
100
AcDbEntity
  8
0
  6
ByLayer
 62
    0
370
   -1
100
AcDbLine
 10
85.7762
 20
3.46163
 11
85.7762
 21
2.46255
  0
LINE
  5
AC
100
AcDbEntity
  8
0
  6
ByLayer
 62
    0
370
   -1
100
AcDbLine
 10
85.7762
 20
2.46255
 11
104.538
 21
2.46255
  0
LINE
  5
AD
100
AcDbEntity
  8
0
  6
ByLayer
 62
    0
370
   -1
100
AcDbLine
 10
104.538
 20
2.46255
 11
104.538
 21
3.46163
  0
LINE
  5
AE
100
AcDbEntity
  8
0
  6
ByLayer
 62
    0
370
   -1
100
AcDbLine
 10
104.538
 20
3.46163
 11
105.337
 21
3.46163
  0
LINE
  5
AF
100
AcDbEntity
  8
0
  6
ByLayer
 62
    0
370
   -1
100
AcDbLine
 10
105.337
 20
3.46163
 11
105.337
 21
3.93153
  0
LINE
  5
B0
100
AcDbEntity
  8
0
  6
ByLayer
 62
    0
370
   -1
100
AcDbLine
 10
105.337
 20
3.93153
 11
112.813
 21
3.93153
  0
LINE
  5
B1
100
AcDbEntity
  8
0
  6
ByLayer
 62
    0
370
   -1
100
AcDbLine
 10
112.813
 20
3.93153
 11
112.813
 21
7.16167
  0
LINE
  5
B2
100
AcDbEntity
  8
0
  6
ByLayer
 62
    0
370
   -1
100
AcDbLine
 10
119.114
 20
7.16167
 11
119.114
 21
6.56086
  0
LINE
  5
B3
100
AcDbEntity
  8
0
  6
ByLayer
 62
    0
370
   -1
100
AcDbLine
 10
119.114
 20
6.56086
 11
118.313
 21
6.56086
  0
LINE
  5
B4
100
AcDbEntity
  8
0
  6
ByLayer
 62
    0
370
   -1
100
AcDbLine
 10
118.313
 20
6.56086
 11
118.313
 21
3.46163
  0
LINE
  5
B5
100
AcDbEntity
  8
0
  6
ByLayer
 62
    0
370
   -1
100
AcDbLine
 10
118.313
 20
3.46163
 11
119.114
 21
3.46163
  0
LINE
  5
B6
100
AcDbEntity
  8
0
  6
ByLayer
 62
    0
370
   -1
100
AcDbLine
 10
119.114
 20
3.46163
 11
119.114
 21
2.46255
  0
LINE
  5
B7
100
AcDbEntity
  8
0
  6
ByLayer
 62
    0
370
   -1
100
AcDbLine
 10
119.114
 20
2.46255
 11
142.638
 21
2.46255
  0
LINE
  5
B8
100
AcDbEntity
  8
0
  6
ByLayer
 62
    0
370
   -1
100
AcDbLine
 10
142.638
 20
2.46255
 11
142.638
 21
3.46163
  0
LINE
  5
B9
100
AcDbEntity
  8
0
  6
ByLayer
 62
    0
370
   -1
100
AcDbLine
 10
142.638
 20
3.46163
 11
143.437
 21
3.46163
  0
LINE
  5
BA
100
AcDbEntity
  8
0
  6
ByLayer
 62
    0
370
   -1
100
AcDbLine
 10
143.437
 20
3.46163
 11
143.437
 21
6.56086
  0
LINE
  5
BB
100
AcDbEntity
  8
0
  6
ByLayer
 62
    0
370
   -1
100
AcDbLine
 10
143.437
 20
6.56086
 11
142.638
 21
6.56086
  0
LINE
  5
BC
100
AcDbEntity
  8
0
  6
ByLayer
 62
    0
370
   -1
100
AcDbLine
 10
142.638
 20
6.56086
 11
142.638
 21
7.16167
  0
LINE
  5
BD
100
AcDbEntity
  8
0
  6
ByLayer
 62
    0
370
   -1
100
AcDbLine
 10
148.937
 20
7.16167
 11
148.937
 21
3.93153
  0
LINE
  5
BE
100
AcDbEntity
  8
0
  6
ByLayer
 62
    0
370
   -1
100
AcDbLine
 10
148.937
 20
3.93153
 11
156.413
 21
3.93153
  0
LINE
  5
BF
100
AcDbEntity
  8
0
  6
ByLayer
 62
    0
370
   -1
100
AcDbLine
 10
156.413
 20
3.93153
 11
156.413
 21
3.46163
  0
LINE
  5
C0
100
AcDbEntity
  8
0
  6
ByLayer
 62
    0
370
   -1
100
AcDbLine
 10
156.413
 20
3.46163
 11
157.212
 21
3.46163
  0
LINE
  5
C1
100
AcDbEntity
  8
0
  6
ByLayer
 62
    0
370
   -1
100
AcDbLine
 10
157.212
 20
3.46163
 11
157.212
 21
2.46255
  0
LINE
  5
C2
100
AcDbEntity
  8
0
  6
ByLayer
 62
    0
370
   -1
100
AcDbLine
 10
157.212
 20
2.46255
 11
175.977
 21
2.46255
  0
LINE
  5
C3
100
AcDbEntity
  8
0
  6
ByLayer
 62
    0
370
   -1
100
AcDbLine
 10
175.977
 20
2.46255
 11
175.977
 21
3.46163
  0
LINE
  5
C4
100
AcDbEntity
  8
0
  6
ByLayer
 62
    0
370
   -1
100
AcDbLine
 10
175.977
 20
3.46163
 11
176.776
 21
3.46163
  0
LINE
  5
C5
100
AcDbEntity
  8
0
  6
ByLayer
 62
    0
370
   -1
100
AcDbLine
 10
176.776
 20
3.46163
 11
176.776
 21
3.93153
  0
LINE
  5
C6
100
AcDbEntity
  8
0
  6
ByLayer
 62
    0
370
   -1
100
AcDbLine
 10
176.776
 20
3.93153
 11
184.251
 21
3.93153
  0
LINE
  5
C7
100
AcDbEntity
  8
0
  6
ByLayer
 62
    0
370
   -1
100
AcDbLine
 10
185.075
 20
7.16167
 11
185.075
 21
9.96184
  0
LINE
  5
C8
100
AcDbEntity
  8
0
  6
ByLayer
 62
    0
370
   -1
100
AcDbLine
 10
182.527
 20
17.4322
 11
179.226
 21
17.4322
  0
LINE
  5
C9
100
AcDbEntity
  8
0
  6
ByLayer
 62
    0
370
   -1
100
AcDbLine
 10
177.763
 20
17.4322
 11
174.462
 21
17.4322
  0
LINE
  5
CA
100
AcDbEntity
  8
0
  6
ByLayer
 62
    0
370
   -1
100
AcDbLine
 10
174.462
 20
17.4322
 11
174.462
 21
16.4621
  0
LINE
  5
CB
100
AcDbEntity
  8
0
  6
ByLayer
 62
    0
370
   -1
100
AcDbLine
 10
174.462
 20
16.4621
 11
158.727
 21
16.4621
  0
LINE
  5
CC
100
AcDbEntity
  8
0
  6
ByLayer
 62
    0
370
   -1
100
AcDbLine
 10
158.727
 20
16.4621
 11
158.727
 21
17.4322
  0
LINE
  5
CD
100
AcDbEntity
  8
0
  6
ByLayer
 62
    0
370
   -1
100
AcDbLine
 10
158.727
 20
17.4322
 11
155.425
 21
17.4322
  0
LINE
  5
CE
100
AcDbEntity
  8
0
  6
ByLayer
 62
    0
370
   -1
100
AcDbLine
 10
153.963
 20
17.4322
 11
150.664
 21
17.4322
  0
LINE
  5
CF
100
AcDbEntity
  8
0
  6
ByLayer
 62
    0
370
   -1
100
AcDbLine
 10
148.937
 20
16.2305
 11
148.937
 21
11.7615
  0
LINE
  5
D0
100
AcDbEntity
  8
0
  6
ByLayer
 62
    0
370
   -1
100
AcDbLine
 10
142.638
 20
11.7615
 11
142.638
 21
12.361
  0
LINE
  5
D1
100
AcDbEntity
  8
0
  6
ByLayer
 62
    0
370
   -1
100
AcDbLine
 10
142.638
 20
12.361
 11
143.437
 21
12.361
  0
LINE
  5
D2
100
AcDbEntity
  8
0
  6
ByLayer
 62
    0
370
   -1
100
AcDbLine
 10
143.437
 20
12.361
 11
143.437
 21
15.4616
  0
LINE
  5
D3
100
AcDbEntity
  8
0
  6
ByLayer
 62
    0
370
   -1
100
AcDbLine
 10
143.437
 20
15.4616
 11
142.638
 21
15.4616
  0
LINE
  5
D4
100
AcDbEntity
  8
0
  6
ByLayer
 62
    0
370
   -1
100
AcDbLine
 10
142.638
 20
15.4616
 11
142.638
 21
16.4621
  0
LINE
  5
D5
100
AcDbEntity
  8
0
  6
ByLayer
 62
    0
370
   -1
100
AcDbLine
 10
142.638
 20
16.4621
 11
119.114
 21
16.4621
  0
LINE
  5
D6
100
AcDbEntity
  8
0
  6
ByLayer
 62
    0
370
   -1
100
AcDbLine
 10
119.114
 20
16.4621
 11
119.114
 21
15.4616
  0
LINE
  5
D7
100
AcDbEntity
  8
0
  6
ByLayer
 62
    0
370
   -1
100
AcDbLine
 10
119.114
 20
15.4616
 11
118.313
 21
15.4616
  0
LINE
  5
D8
100
AcDbEntity
  8
0
  6
ByLayer
 62
    0
370
   -1
100
AcDbLine
 10
118.313
 20
15.4616
 11
118.313
 21
12.361
  0
LINE
  5
D9
100
AcDbEntity
  8
0
  6
ByLayer
 62
    0
370
   -1
100
AcDbLine
 10
118.313
 20
12.361
 11
119.114
 21
12.361
  0
LINE
  5
DA
100
AcDbEntity
  8
0
  6
ByLayer
 62
    0
370
   -1
100
AcDbLine
 10
119.114
 20
12.361
 11
119.114
 21
11.7615
  0
LINE
  5
DB
100
AcDbEntity
  8
0
  6
ByLayer
 62
    0
370
   -1
100
AcDbLine
 10
112.813
 20
11.7615
 11
112.813
 21
16.2305
  0
LINE
  5
DC
100
AcDbEntity
  8
0
  6
ByLayer
 62
    0
370
   -1
100
AcDbLine
 10
111.088
 20
17.4322
 11
107.789
 21
17.4322
  0
LINE
  5
DD
100
AcDbEntity
  8
0
  6
ByLayer
 62
    0
370
   -1
100
AcDbLine
 10
106.325
 20
17.4322
 11
103.026
 21
17.4322
  0
LINE
  5
DE
100
AcDbEntity
  8
0
  6
ByLayer
 62
    0
370
   -1
100
AcDbLine
 10
103.026
 20
17.4322
 11
103.026
 21
16.4621
  0
LINE
  5
DF
100
AcDbEntity
  8
0
  6
ByLayer
 62
    0
370
   -1
100
AcDbLine
 10
103.026
 20
16.4621
 11
87.2878
 21
16.4621
  0
LINE
  5
E0
100
AcDbEntity
  8
0
  6
ByLayer
 62
    0
370
   -1
100
AcDbLine
 10
87.2878
 20
16.4621
 11
87.2878
 21
17.4322
  0
LINE
  5
E1
100
AcDbEntity
  8
0
  6
ByLayer
 62
    0
370
   -1
100
AcDbLine
 10
87.2878
 20
17.4322
 11
83.98860000000001
 21
17.4322
  0
LINE
  5
E2
100
AcDbEntity
  8
0
  6
ByLayer
 62
    0
370
   -1
100
AcDbLine
 10
82.52670000000001
 20
17.4322
 11
79.2261
 21
17.4322
  0
LINE
  5
E3
100
AcDbEntity
  8
0
  6
ByLayer
 62
    0
370
   -1
100
AcDbLine
 10
192.931
 20
16.4621
 11
192.931
 21
15.4616
  0
LINE
  5
E4
100
AcDbEntity
  8
0
  6
ByLayer
 62
    0
370
   -1
100
AcDbLine
 10
192.931
 20
15.4616
 11
192.132
 21
15.4616
  0
LINE
  5
E5
100
AcDbEntity
  8
0
  6
ByLayer
 62
    0
370
   -1
100
AcDbLine
 10
192.132
 20
15.4616
 11
192.132
 21
12.361
  0
LINE
  5
E6
100
AcDbEntity
  8
0
  6
ByLayer
 62
    0
370
   -1
100
AcDbLine
 10
192.132
 20
12.361
 11
192.931
 21
12.361
  0
LINE
  5
E7
100
AcDbEntity
  8
0
  6
ByLayer
 62
    0
370
   -1
100
AcDbLine
 10
192.931
 20
12.361
 11
192.931
 21
10.8824
  0
LINE
  5
E8
100
AcDbEntity
  8
0
  6
ByLayer
 62
    0
370
   -1
100
AcDbLine
 10
192.931
 20
10.8824
 11
192.805
 21
11.1304
  0
LINE
  5
E9
100
AcDbEntity
  8
0
  6
ByLayer
 62
    0
370
   -1
100
AcDbLine
 10
192.805
 20
11.1304
 11
192.253
 21
11.683
  0
LINE
  5
EA
100
AcDbEntity
  8
0
  6
ByLayer
 62
    0
370
   -1
100
AcDbLine
 10
192.253
 20
11.683
 11
191.556
 21
12.0385
  0
LINE
  5
EB
100
AcDbEntity
  8
0
  6
ByLayer
 62
    0
370
   -1
100
AcDbLine
 10
191.556
 20
12.0385
 11
190.783
 21
12.1612
  0
LINE
  5
EC
100
AcDbEntity
  8
0
  6
ByLayer
 62
    0
370
   -1
100
AcDbLine
 10
190.783
 20
12.1612
 11
190.009
 21
12.0385
  0
LINE
  5
ED
100
AcDbEntity
  8
0
  6
ByLayer
 62
    0
370
   -1
100
AcDbLine
 10
190.009
 20
12.0385
 11
189.312
 21
11.683
  0
LINE
  5
EE
100
AcDbEntity
  8
0
  6
ByLayer
 62
    0
370
   -1
100
AcDbLine
 10
189.312
 20
11.683
 11
188.759
 21
11.1304
  0
LINE
  5
EF
100
AcDbEntity
  8
0
  6
ByLayer
 62
    0
370
   -1
100
AcDbLine
 10
188.759
 20
11.1304
 11
188.406
 21
10.4331
  0
LINE
  5
F0
100
AcDbEntity
  8
0
  6
ByLayer
 62
    0
370
   -1
100
AcDbLine
 10
188.406
 20
10.4331
 11
188.283
 21
9.66142
  0
LINE
  5
F1
100
AcDbEntity
  8
0
  6
ByLayer
 62
    0
370
   -1
100
AcDbLine
 10
188.283
 20
9.66142
 11
188.406
 21
8.888339999999999
  0
LINE
  5
F2
100
AcDbEntity
  8
0
  6
ByLayer
 62
    0
370
   -1
100
AcDbLine
 10
188.406
 20
8.888339999999999
 11
188.759
 21
8.192449999999999
  0
LINE
  5
F3
100
AcDbEntity
  8
0
  6
ByLayer
 62
    0
370
   -1
100
AcDbLine
 10
188.759
 20
8.192449999999999
 11
189.312
 21
7.63845
  0
LINE
  5
F4
100
AcDbEntity
  8
0
  6
ByLayer
 62
    0
370
   -1
100
AcDbLine
 10
189.312
 20
7.63845
 11
190.009
 21
7.2843
  0
LINE
  5
F5
100
AcDbEntity
  8
0
  6
ByLayer
 62
    0
370
   -1
100
AcDbLine
 10
190.009
 20
7.2843
 11
190.783
 21
7.16167
  0
LINE
  5
F6
100
AcDbEntity
  8
0
  6
ByLayer
 62
    0
370
   -1
100
AcDbLine
 10
190.783
 20
7.16167
 11
191.556
 21
7.2843
  0
LINE
  5
F7
100
AcDbEntity
  8
0
  6
ByLayer
 62
    0
370
   -1
100
AcDbLine
 10
191.556
 20
7.2843
 11
192.253
 21
7.63845
  0
LINE
  5
F8
100
AcDbEntity
  8
0
  6
ByLayer
 62
    0
370
   -1
100
AcDbLine
 10
192.253
 20
7.63845
 11
192.805
 21
8.192449999999999
  0
LINE
  5
F9
100
AcDbEntity
  8
0
  6
ByLayer
 62
    0
370
   -1
100
AcDbLine
 10
192.805
 20
8.192449999999999
 11
192.931
 21
8.44049
  0
LINE
  5
FA
100
AcDbEntity
  8
0
  6
ByLayer
 62
    0
370
   -1
100
AcDbLine
 10
192.931
 20
8.44049
 11
192.931
 21
6.56086
  0
LINE
  5
FB
100
AcDbEntity
  8
0
  6
ByLayer
 62
    0
370
   -1
100
AcDbLine
 10
192.931
 20
6.56086
 11
192.132
 21
6.56086
  0
LINE
  5
FC
100
AcDbEntity
  8
0
  6
ByLayer
 62
    0
370
   -1
100
AcDbLine
 10
192.132
 20
6.56086
 11
192.132
 21
3.46163
  0
LINE
  5
FD
100
AcDbEntity
  8
0
  6
ByLayer
 62
    0
370
   -1
100
AcDbLine
 10
192.132
 20
3.46163
 11
192.931
 21
3.46163
  0
LINE
  5
FE
100
AcDbEntity
  8
0
  6
ByLayer
 62
    0
370
   -1
100
AcDbLine
 10
192.931
 20
3.46163
 11
192.931
 21
2.46255
  0
LINE
  5
FF
100
AcDbEntity
  8
0
  6
ByLayer
 62
    0
370
   -1
100
AcDbLine
 10
192.931
 20
2.46255
 11
209.312
 21
2.46255
  0
LINE
  5
100
100
AcDbEntity
  8
0
  6
ByLayer
 62
    0
370
   -1
100
AcDbLine
 10
209.312
 20
16.4621
 11
192.931
 21
16.4621
  0
LINE
  5
101
100
AcDbEntity
  8
0
  6
ByLayer
 62
    0
370
   -1
100
AcDbLine
 10
211.982
 20
2.46255
 11
264.082
 21
2.46255
  0
LINE
  5
102
100
AcDbEntity
  8
0
  6
ByLayer
 62
    0
370
   -1
100
AcDbLine
 10
264.082
 20
16.4621
 11
211.982
 21
16.4621
  0
LINE
  5
103
100
AcDbEntity
  8
0
  6
ByLayer
 62
    0
370
   -1
100
AcDbLine
 10
266.75
 20
2.46255
 11
283.132
 21
2.46255
  0
LINE
  5
104
100
AcDbEntity
  8
0
  6
ByLayer
 62
    0
370
   -1
100
AcDbLine
 10
283.132
 20
2.46255
 11
283.132
 21
3.46163
  0
LINE
  5
105
100
AcDbEntity
  8
0
  6
ByLayer
 62
    0
370
   -1
100
AcDbLine
 10
283.132
 20
3.46163
 11
283.931
 21
3.46163
  0
LINE
  5
106
100
AcDbEntity
  8
0
  6
ByLayer
 62
    0
370
   -1
100
AcDbLine
 10
283.931
 20
3.46163
 11
283.931
 21
6.56086
  0
LINE
  5
107
100
AcDbEntity
  8
0
  6
ByLayer
 62
    0
370
   -1
100
AcDbLine
 10
283.931
 20
6.56086
 11
283.132
 21
6.56086
  0
LINE
  5
108
100
AcDbEntity
  8
0
  6
ByLayer
 62
    0
370
   -1
100
AcDbLine
 10
283.132
 20
6.56086
 11
283.132
 21
12.361
  0
LINE
  5
109
100
AcDbEntity
  8
0
  6
ByLayer
 62
    0
370
   -1
100
AcDbLine
 10
283.132
 20
12.361
 11
283.931
 21
12.361
  0
LINE
  5
10A
100
AcDbEntity
  8
0
  6
ByLayer
 62
    0
370
   -1
100
AcDbLine
 10
283.931
 20
12.361
 11
283.931
 21
15.4616
  0
LINE
  5
10B
100
AcDbEntity
  8
0
  6
ByLayer
 62
    0
370
   -1
100
AcDbLine
 10
283.931
 20
15.4616
 11
283.132
 21
15.4616
  0
LINE
  5
10C
100
AcDbEntity
  8
0
  6
ByLayer
 62
    0
370
   -1
100
AcDbLine
 10
283.132
 20
15.4616
 11
283.132
 21
16.4621
  0
LINE
  5
10D
100
AcDbEntity
  8
0
  6
ByLayer
 62
    0
370
   -1
100
AcDbLine
 10
283.132
 20
16.4621
 11
266.75
 21
16.4621
  0
LINE
  5
10E
100
AcDbEntity
  8
0
  6
ByLayer
 62
    0
370
   -1
100
AcDbLine
 10
4.81348
 20
35.512
 11
4.81348
 21
34.5116
  0
LINE
  5
10F
100
AcDbEntity
  8
0
  6
ByLayer
 62
    0
370
   -1
100
AcDbLine
 10
4.81348
 20
34.5116
 11
4.01285
 21
34.5116
  0
LINE
  5
110
100
AcDbEntity
  8
0
  6
ByLayer
 62
    0
370
   -1
100
AcDbLine
 10
4.01285
 20
34.5116
 11
4.01285
 21
31.4124
  0
LINE
  5
111
100
AcDbEntity
  8
0
  6
ByLayer
 62
    0
370
   -1
100
AcDbLine
 10
4.01285
 20
31.4124
 11
4.81348
 21
31.4124
  0
LINE
  5
112
100
AcDbEntity
  8
0
  6
ByLayer
 62
    0
370
   -1
100
AcDbLine
 10
4.81348
 20
31.4124
 11
4.81348
 21
25.6109
  0
LINE
  5
113
100
AcDbEntity
  8
0
  6
ByLayer
 62
    0
370
   -1
100
AcDbLine
 10
4.81348
 20
25.6109
 11
4.01285
 21
25.6109
  0
LINE
  5
114
100
AcDbEntity
  8
0
  6
ByLayer
 62
    0
370
   -1
100
AcDbLine
 10
4.01285
 20
25.6109
 11
4.01285
 21
22.5116
  0
LINE
  5
115
100
AcDbEntity
  8
0
  6
ByLayer
 62
    0
370
   -1
100
AcDbLine
 10
4.01285
 20
22.5116
 11
4.81348
 21
22.5116
  0
LINE
  5
116
100
AcDbEntity
  8
0
  6
ByLayer
 62
    0
370
   -1
100
AcDbLine
 10
4.81348
 20
22.5116
 11
4.81348
 21
21.5126
  0
LINE
  5
117
100
AcDbEntity
  8
0
  6
ByLayer
 62
    0
370
   -1
100
AcDbLine
 10
4.81348
 20
21.5126
 11
7.78866
 21
21.5126
  0
LINE
  5
118
100
AcDbEntity
  8
0
  6
ByLayer
 62
    0
370
   -1
100
AcDbLine
 10
7.78866
 20
21.5126
 11
7.78866
 21
20.5424
  0
LINE
  5
119
100
AcDbEntity
  8
0
  6
ByLayer
 62
    0
370
   -1
100
AcDbLine
 10
7.78866
 20
20.5424
 11
11.0877
 21
20.5424
  0
LINE
  5
11A
100
AcDbEntity
  8
0
  6
ByLayer
 62
    0
370
   -1
100
AcDbLine
 10
11.0877
 20
20.5424
 11
11.0877
 21
21.5126
  0
LINE
  5
11B
100
AcDbEntity
  8
0
  6
ByLayer
 62
    0
370
   -1
100
AcDbLine
 10
11.0877
 20
21.5126
 11
31.5874
 21
21.5126
  0
LINE
  5
11C
100
AcDbEntity
  8
0
  6
ByLayer
 62
    0
370
   -1
100
AcDbLine
 10
31.5874
 20
21.5126
 11
31.5874
 21
20.5424
  0
LINE
  5
11D
100
AcDbEntity
  8
0
  6
ByLayer
 62
    0
370
   -1
100
AcDbLine
 10
31.5874
 20
20.5424
 11
34.8878
 21
20.5424
  0
LINE
  5
11E
100
AcDbEntity
  8
0
  6
ByLayer
 62
    0
370
   -1
100
AcDbLine
 10
34.8878
 20
20.5424
 11
34.8878
 21
21.5126
  0
LINE
  5
11F
100
AcDbEntity
  8
0
  6
ByLayer
 62
    0
370
   -1
100
AcDbLine
 10
34.8878
 20
21.5126
 11
40.2442
 21
21.5126
  0
LINE
  5
120
100
AcDbEntity
  8
0
  6
ByLayer
 62
    0
370
   -1
100
AcDbLine
 10
40.2442
 20
21.5126
 11
40.2442
 21
22.5116
  0
LINE
  5
121
100
AcDbEntity
  8
0
  6
ByLayer
 62
    0
370
   -1
100
AcDbLine
 10
40.2442
 20
22.5116
 11
41.045
 21
22.5116
  0
LINE
  5
122
100
AcDbEntity
  8
0
  6
ByLayer
 62
    0
370
   -1
100
AcDbLine
 10
41.045
 20
22.5116
 11
41.045
 21
25.6109
  0
LINE
  5
123
100
AcDbEntity
  8
0
  6
ByLayer
 62
    0
370
   -1
100
AcDbLine
 10
41.045
 20
25.6109
 11
40.2442
 21
25.6109
  0
LINE
  5
124
100
AcDbEntity
  8
0
  6
ByLayer
 62
    0
370
   -1
100
AcDbLine
 10
40.2442
 20
25.6109
 11
40.2442
 21
31.4124
  0
LINE
  5
125
100
AcDbEntity
  8
0
  6
ByLayer
 62
    0
370
   -1
100
AcDbLine
 10
40.2442
 20
31.4124
 11
41.045
 21
31.4124
  0
LINE
  5
126
100
AcDbEntity
  8
0
  6
ByLayer
 62
    0
370
   -1
100
AcDbLine
 10
41.045
 20
31.4124
 11
41.045
 21
34.5116
  0
LINE
  5
127
100
AcDbEntity
  8
0
  6
ByLayer
 62
    0
370
   -1
100
AcDbLine
 10
41.045
 20
34.5116
 11
40.2442
 21
34.5116
  0
LINE
  5
128
100
AcDbEntity
  8
0
  6
ByLayer
 62
    0
370
   -1
100
AcDbLine
 10
40.2442
 20
34.5116
 11
40.2442
 21
35.512
  0
LINE
  5
129
100
AcDbEntity
  8
0
  6
ByLayer
 62
    0
370
   -1
100
AcDbLine
 10
40.2442
 20
35.512
 11
4.81348
 21
35.512
  0
LINE
  5
12A
100
AcDbEntity
  8
0
  6
ByLayer
 62
    0
370
   -1
100
AcDbLine
 10
242.937
 20
35.512
 11
242.937
 21
34.5116
  0
LINE
  5
12B
100
AcDbEntity
  8
0
  6
ByLayer
 62
    0
370
   -1
100
AcDbLine
 10
242.937
 20
34.5116
 11
242.138
 21
34.5116
  0
LINE
  5
12C
100
AcDbEntity
  8
0
  6
ByLayer
 62
    0
370
   -1
100
AcDbLine
 10
242.138
 20
34.5116
 11
242.138
 21
31.4124
  0
LINE
  5
12D
100
AcDbEntity
  8
0
  6
ByLayer
 62
    0
370
   -1
100
AcDbLine
 10
242.138
 20
31.4124
 11
242.937
 21
31.4124
  0
LINE
  5
12E
100
AcDbEntity
  8
0
  6
ByLayer
 62
    0
370
   -1
100
AcDbLine
 10
242.937
 20
31.4124
 11
242.937
 21
25.6109
  0
LINE
  5
12F
100
AcDbEntity
  8
0
  6
ByLayer
 62
    0
370
   -1
100
AcDbLine
 10
242.937
 20
25.6109
 11
242.138
 21
25.6109
  0
LINE
  5
130
100
AcDbEntity
  8
0
  6
ByLayer
 62
    0
370
   -1
100
AcDbLine
 10
242.138
 20
25.6109
 11
242.138
 21
22.5116
  0
LINE
  5
131
100
AcDbEntity
  8
0
  6
ByLayer
 62
    0
370
   -1
100
AcDbLine
 10
242.138
 20
22.5116
 11
242.937
 21
22.5116
  0
LINE
  5
132
100
AcDbEntity
  8
0
  6
ByLayer
 62
    0
370
   -1
100
AcDbLine
 10
242.937
 20
22.5116
 11
242.937
 21
21.5126
  0
LINE
  5
133
100
AcDbEntity
  8
0
  6
ByLayer
 62
    0
370
   -1
100
AcDbLine
 10
242.937
 20
21.5126
 11
245.914
 21
21.5126
  0
LINE
  5
134
100
AcDbEntity
  8
0
  6
ByLayer
 62
    0
370
   -1
100
AcDbLine
 10
245.914
 20
21.5126
 11
245.914
 21
20.5424
  0
LINE
  5
135
100
AcDbEntity
  8
0
  6
ByLayer
 62
    0
370
   -1
100
AcDbLine
 10
245.914
 20
20.5424
 11
249.213
 21
20.5424
  0
LINE
  5
136
100
AcDbEntity
  8
0
  6
ByLayer
 62
    0
370
   -1
100
AcDbLine
 10
249.213
 20
20.5424
 11
249.213
 21
21.5126
  0
LINE
  5
137
100
AcDbEntity
  8
0
  6
ByLayer
 62
    0
370
   -1
100
AcDbLine
 10
249.213
 20
21.5126
 11
266.462
 21
21.5126
  0
LINE
  5
138
100
AcDbEntity
  8
0
  6
ByLayer
 62
    0
370
   -1
100
AcDbLine
 10
269.131
 20
21.5126
 11
269.712
 21
21.5126
  0
LINE
  5
139
100
AcDbEntity
  8
0
  6
ByLayer
 62
    0
370
   -1
100
AcDbLine
 10
269.712
 20
21.5126
 11
269.712
 21
20.5424
  0
LINE
  5
13A
100
AcDbEntity
  8
0
  6
ByLayer
 62
    0
370
   -1
100
AcDbLine
 10
269.712
 20
20.5424
 11
273.013
 21
20.5424
  0
LINE
  5
13B
100
AcDbEntity
  8
0
  6
ByLayer
 62
    0
370
   -1
100
AcDbLine
 10
273.013
 20
20.5424
 11
273.013
 21
21.5126
  0
LINE
  5
13C
100
AcDbEntity
  8
0
  6
ByLayer
 62
    0
370
   -1
100
AcDbLine
 10
273.013
 20
21.5126
 11
283.132
 21
21.5126
  0
LINE
  5
13D
100
AcDbEntity
  8
0
  6
ByLayer
 62
    0
370
   -1
100
AcDbLine
 10
283.132
 20
21.5126
 11
283.132
 21
22.5116
  0
LINE
  5
13E
100
AcDbEntity
  8
0
  6
ByLayer
 62
    0
370
   -1
100
AcDbLine
 10
283.132
 20
22.5116
 11
283.931
 21
22.5116
  0
LINE
  5
13F
100
AcDbEntity
  8
0
  6
ByLayer
 62
    0
370
   -1
100
AcDbLine
 10
283.931
 20
22.5116
 11
283.931
 21
25.6109
  0
LINE
  5
140
100
AcDbEntity
  8
0
  6
ByLayer
 62
    0
370
   -1
100
AcDbLine
 10
283.931
 20
25.6109
 11
283.132
 21
25.6109
  0
LINE
  5
141
100
AcDbEntity
  8
0
  6
ByLayer
 62
    0
370
   -1
100
AcDbLine
 10
283.132
 20
25.6109
 11
283.132
 21
31.4124
  0
LINE
  5
142
100
AcDbEntity
  8
0
  6
ByLayer
 62
    0
370
   -1
100
AcDbLine
 10
283.132
 20
31.4124
 11
283.931
 21
31.4124
  0
LINE
  5
143
100
AcDbEntity
  8
0
  6
ByLayer
 62
    0
370
   -1
100
AcDbLine
 10
283.931
 20
31.4124
 11
283.931
 21
34.5116
  0
LINE
  5
144
100
AcDbEntity
  8
0
  6
ByLayer
 62
    0
370
   -1
100
AcDbLine
 10
283.931
 20
34.5116
 11
283.132
 21
34.5116
  0
LINE
  5
145
100
AcDbEntity
  8
0
  6
ByLayer
 62
    0
370
   -1
100
AcDbLine
 10
283.132
 20
34.5116
 11
283.132
 21
35.512
  0
LINE
  5
146
100
AcDbEntity
  8
0
  6
ByLayer
 62
    0
370
   -1
100
AcDbLine
 10
283.132
 20
35.512
 11
269.131
 21
35.512
  0
LINE
  5
147
100
AcDbEntity
  8
0
  6
ByLayer
 62
    0
370
   -1
100
AcDbLine
 10
266.462
 20
35.512
 11
242.937
 21
35.512
  0
LINE
  5
148
100
AcDbEntity
  8
0
  6
ByLayer
 62
    0
370
   -1
100
AcDbLine
 10
45.2949
 20
35.512
 11
45.2949
 21
34.5116
  0
LINE
  5
149
100
AcDbEntity
  8
0
  6
ByLayer
 62
    0
370
   -1
100
AcDbLine
 10
45.2949
 20
34.5116
 11
44.4941
 21
34.5116
  0
LINE
  5
14A
100
AcDbEntity
  8
0
  6
ByLayer
 62
    0
370
   -1
100
AcDbLine
 10
44.4941
 20
34.5116
 11
44.4941
 21
31.4124
  0
LINE
  5
14B
100
AcDbEntity
  8
0
  6
ByLayer
 62
    0
370
   -1
100
AcDbLine
 10
44.4941
 20
31.4124
 11
45.2949
 21
31.4124
  0
LINE
  5
14C
100
AcDbEntity
  8
0
  6
ByLayer
 62
    0
370
   -1
100
AcDbLine
 10
45.2949
 20
31.4124
 11
45.2949
 21
25.6109
  0
LINE
  5
14D
100
AcDbEntity
  8
0
  6
ByLayer
 62
    0
370
   -1
100
AcDbLine
 10
45.2949
 20
25.6109
 11
44.4941
 21
25.6109
  0
LINE
  5
14E
100
AcDbEntity
  8
0
  6
ByLayer
 62
    0
370
   -1
100
AcDbLine
 10
44.4941
 20
25.6109
 11
44.4941
 21
22.5116
  0
LINE
  5
14F
100
AcDbEntity
  8
0
  6
ByLayer
 62
    0
370
   -1
100
AcDbLine
 10
44.4941
 20
22.5116
 11
45.2949
 21
22.5116
  0
LINE
  5
150
100
AcDbEntity
  8
0
  6
ByLayer
 62
    0
370
   -1
100
AcDbLine
 10
45.2949
 20
22.5116
 11
45.2949
 21
21.5126
  0
LINE
  5
151
100
AcDbEntity
  8
0
  6
ByLayer
 62
    0
370
   -1
100
AcDbLine
 10
45.2949
 20
21.5126
 11
59.2956
 21
21.5126
  0
LINE
  5
152
100
AcDbEntity
  8
0
  6
ByLayer
 62
    0
370
   -1
100
AcDbLine
 10
59.2956
 20
21.5126
 11
59.2956
 21
22.5116
  0
LINE
  5
153
100
AcDbEntity
  8
0
  6
ByLayer
 62
    0
370
   -1
100
AcDbLine
 10
59.2956
 20
22.5116
 11
60.095
 21
22.5116
  0
LINE
  5
154
100
AcDbEntity
  8
0
  6
ByLayer
 62
    0
370
   -1
100
AcDbLine
 10
60.095
 20
22.5116
 11
60.095
 21
25.6109
  0
LINE
  5
155
100
AcDbEntity
  8
0
  6
ByLayer
 62
    0
370
   -1
100
AcDbLine
 10
60.095
 20
25.6109
 11
59.2956
 21
25.6109
  0
LINE
  5
156
100
AcDbEntity
  8
0
  6
ByLayer
 62
    0
370
   -1
100
AcDbLine
 10
59.2956
 20
25.6109
 11
59.2956
 21
31.4124
  0
LINE
  5
157
100
AcDbEntity
  8
0
  6
ByLayer
 62
    0
370
   -1
100
AcDbLine
 10
59.2956
 20
31.4124
 11
60.095
 21
31.4124
  0
LINE
  5
158
100
AcDbEntity
  8
0
  6
ByLayer
 62
    0
370
   -1
100
AcDbLine
 10
60.095
 20
31.4124
 11
60.095
 21
34.5116
  0
LINE
  5
159
100
AcDbEntity
  8
0
  6
ByLayer
 62
    0
370
   -1
100
AcDbLine
 10
60.095
 20
34.5116
 11
59.2956
 21
34.5116
  0
LINE
  5
15A
100
AcDbEntity
  8
0
  6
ByLayer
 62
    0
370
   -1
100
AcDbLine
 10
59.2956
 20
34.5116
 11
59.2956
 21
35.512
  0
LINE
  5
15B
100
AcDbEntity
  8
0
  6
ByLayer
 62
    0
370
   -1
100
AcDbLine
 10
59.2956
 20
35.512
 11
45.2949
 21
35.512
  0
LINE
  5
15C
100
AcDbEntity
  8
0
  6
ByLayer
 62
    0
370
   -1
100
AcDbLine
 10
64.3449
 20
35.512
 11
64.3449
 21
34.5116
  0
LINE
  5
15D
100
AcDbEntity
  8
0
  6
ByLayer
 62
    0
370
   -1
100
AcDbLine
 10
64.3449
 20
34.5116
 11
63.5455
 21
34.5116
  0
LINE
  5
15E
100
AcDbEntity
  8
0
  6
ByLayer
 62
    0
370
   -1
100
AcDbLine
 10
63.5455
 20
34.5116
 11
63.5455
 21
31.4124
  0
LINE
  5
15F
100
AcDbEntity
  8
0
  6
ByLayer
 62
    0
370
   -1
100
AcDbLine
 10
63.5455
 20
31.4124
 11
64.3449
 21
31.4124
  0
LINE
  5
160
100
AcDbEntity
  8
0
  6
ByLayer
 62
    0
370
   -1
100
AcDbLine
 10
64.3449
 20
31.4124
 11
64.3449
 21
25.6109
  0
LINE
  5
161
100
AcDbEntity
  8
0
  6
ByLayer
 62
    0
370
   -1
100
AcDbLine
 10
64.3449
 20
25.6109
 11
63.5455
 21
25.6109
  0
LINE
  5
162
100
AcDbEntity
  8
0
  6
ByLayer
 62
    0
370
   -1
100
AcDbLine
 10
63.5455
 20
25.6109
 11
63.5455
 21
22.5116
  0
LINE
  5
163
100
AcDbEntity
  8
0
  6
ByLayer
 62
    0
370
   -1
100
AcDbLine
 10
63.5455
 20
22.5116
 11
64.3449
 21
22.5116
  0
LINE
  5
164
100
AcDbEntity
  8
0
  6
ByLayer
 62
    0
370
   -1
100
AcDbLine
 10
64.3449
 20
22.5116
 11
64.3449
 21
21.5126
  0
LINE
  5
165
100
AcDbEntity
  8
0
  6
ByLayer
 62
    0
370
   -1
100
AcDbLine
 10
64.3449
 20
21.5126
 11
78.3456
 21
21.5126
  0
LINE
  5
166
100
AcDbEntity
  8
0
  6
ByLayer
 62
    0
370
   -1
100
AcDbLine
 10
78.3456
 20
21.5126
 11
78.3456
 21
22.5116
  0
LINE
  5
167
100
AcDbEntity
  8
0
  6
ByLayer
 62
    0
370
   -1
100
AcDbLine
 10
78.3456
 20
22.5116
 11
79.145
 21
22.5116
  0
LINE
  5
168
100
AcDbEntity
  8
0
  6
ByLayer
 62
    0
370
   -1
100
AcDbLine
 10
79.145
 20
22.5116
 11
79.145
 21
25.6109
  0
LINE
  5
169
100
AcDbEntity
  8
0
  6
ByLayer
 62
    0
370
   -1
100
AcDbLine
 10
79.145
 20
25.6109
 11
78.3456
 21
25.6109
  0
LINE
  5
16A
100
AcDbEntity
  8
0
  6
ByLayer
 62
    0
370
   -1
100
AcDbLine
 10
78.3456
 20
25.6109
 11
78.3456
 21
31.4124
  0
LINE
  5
16B
100
AcDbEntity
  8
0
  6
ByLayer
 62
    0
370
   -1
100
AcDbLine
 10
78.3456
 20
31.4124
 11
79.145
 21
31.4124
  0
LINE
  5
16C
100
AcDbEntity
  8
0
  6
ByLayer
 62
    0
370
   -1
100
AcDbLine
 10
79.145
 20
31.4124
 11
79.145
 21
34.5116
  0
LINE
  5
16D
100
AcDbEntity
  8
0
  6
ByLayer
 62
    0
370
   -1
100
AcDbLine
 10
79.145
 20
34.5116
 11
78.3456
 21
34.5116
  0
LINE
  5
16E
100
AcDbEntity
  8
0
  6
ByLayer
 62
    0
370
   -1
100
AcDbLine
 10
78.3456
 20
34.5116
 11
78.3456
 21
35.512
  0
LINE
  5
16F
100
AcDbEntity
  8
0
  6
ByLayer
 62
    0
370
   -1
100
AcDbLine
 10
78.3456
 20
35.512
 11
64.3449
 21
35.512
  0
LINE
  5
170
100
AcDbEntity
  8
0
  6
ByLayer
 62
    0
370
   -1
100
AcDbLine
 10
83.39490000000001
 20
35.512
 11
83.39490000000001
 21
34.5116
  0
LINE
  5
171
100
AcDbEntity
  8
0
  6
ByLayer
 62
    0
370
   -1
100
AcDbLine
 10
83.39490000000001
 20
34.5116
 11
82.5955
 21
34.5116
  0
LINE
  5
172
100
AcDbEntity
  8
0
  6
ByLayer
 62
    0
370
   -1
100
AcDbLine
 10
82.5955
 20
34.5116
 11
82.5955
 21
31.4124
  0
LINE
  5
173
100
AcDbEntity
  8
0
  6
ByLayer
 62
    0
370
   -1
100
AcDbLine
 10
82.5955
 20
31.4124
 11
83.39490000000001
 21
31.4124
  0
LINE
  5
174
100
AcDbEntity
  8
0
  6
ByLayer
 62
    0
370
   -1
100
AcDbLine
 10
83.39490000000001
 20
31.4124
 11
83.39490000000001
 21
25.6109
  0
LINE
  5
175
100
AcDbEntity
  8
0
  6
ByLayer
 62
    0
370
   -1
100
AcDbLine
 10
83.39490000000001
 20
25.6109
 11
82.5955
 21
25.6109
  0
LINE
  5
176
100
AcDbEntity
  8
0
  6
ByLayer
 62
    0
370
   -1
100
AcDbLine
 10
82.5955
 20
25.6109
 11
82.5955
 21
22.5116
  0
LINE
  5
177
100
AcDbEntity
  8
0
  6
ByLayer
 62
    0
370
   -1
100
AcDbLine
 10
82.5955
 20
22.5116
 11
83.39490000000001
 21
22.5116
  0
LINE
  5
178
100
AcDbEntity
  8
0
  6
ByLayer
 62
    0
370
   -1
100
AcDbLine
 10
83.39490000000001
 20
22.5116
 11
83.39490000000001
 21
21.5126
  0
LINE
  5
179
100
AcDbEntity
  8
0
  6
ByLayer
 62
    0
370
   -1
100
AcDbLine
 10
83.39490000000001
 20
21.5126
 11
97.3956
 21
21.5126
  0
LINE
  5
17A
100
AcDbEntity
  8
0
  6
ByLayer
 62
    0
370
   -1
100
AcDbLine
 10
97.3956
 20
21.5126
 11
97.3956
 21
22.5116
  0
LINE
  5
17B
100
AcDbEntity
  8
0
  6
ByLayer
 62
    0
370
   -1
100
AcDbLine
 10
97.3956
 20
22.5116
 11
98.19499999999999
 21
22.5116
  0
LINE
  5
17C
100
AcDbEntity
  8
0
  6
ByLayer
 62
    0
370
   -1
100
AcDbLine
 10
98.19499999999999
 20
22.5116
 11
98.19499999999999
 21
25.6109
  0
LINE
  5
17D
100
AcDbEntity
  8
0
  6
ByLayer
 62
    0
370
   -1
100
AcDbLine
 10
98.19499999999999
 20
25.6109
 11
97.3956
 21
25.6109
  0
LINE
  5
17E
100
AcDbEntity
  8
0
  6
ByLayer
 62
    0
370
   -1
100
AcDbLine
 10
97.3956
 20
25.6109
 11
97.3956
 21
31.4124
  0
LINE
  5
17F
100
AcDbEntity
  8
0
  6
ByLayer
 62
    0
370
   -1
100
AcDbLine
 10
97.3956
 20
31.4124
 11
98.19499999999999
 21
31.4124
  0
LINE
  5
180
100
AcDbEntity
  8
0
  6
ByLayer
 62
    0
370
   -1
100
AcDbLine
 10
98.19499999999999
 20
31.4124
 11
98.19499999999999
 21
34.5116
  0
LINE
  5
181
100
AcDbEntity
  8
0
  6
ByLayer
 62
    0
370
   -1
100
AcDbLine
 10
98.19499999999999
 20
34.5116
 11
97.3956
 21
34.5116
  0
LINE
  5
182
100
AcDbEntity
  8
0
  6
ByLayer
 62
    0
370
   -1
100
AcDbLine
 10
97.3956
 20
34.5116
 11
97.3956
 21
35.512
  0
LINE
  5
183
100
AcDbEntity
  8
0
  6
ByLayer
 62
    0
370
   -1
100
AcDbLine
 10
97.3956
 20
35.512
 11
83.39490000000001
 21
35.512
  0
LINE
  5
184
100
AcDbEntity
  8
0
  6
ByLayer
 62
    0
370
   -1
100
AcDbLine
 10
102.445
 20
35.512
 11
102.445
 21
34.5116
  0
LINE
  5
185
100
AcDbEntity
  8
0
  6
ByLayer
 62
    0
370
   -1
100
AcDbLine
 10
102.445
 20
34.5116
 11
101.646
 21
34.5116
  0
LINE
  5
186
100
AcDbEntity
  8
0
  6
ByLayer
 62
    0
370
   -1
100
AcDbLine
 10
101.646
 20
34.5116
 11
101.646
 21
31.4124
  0
LINE
  5
187
100
AcDbEntity
  8
0
  6
ByLayer
 62
    0
370
   -1
100
AcDbLine
 10
101.646
 20
31.4124
 11
102.445
 21
31.4124
  0
LINE
  5
188
100
AcDbEntity
  8
0
  6
ByLayer
 62
    0
370
   -1
100
AcDbLine
 10
102.445
 20
31.4124
 11
102.445
 21
25.6109
  0
LINE
  5
189
100
AcDbEntity
  8
0
  6
ByLayer
 62
    0
370
   -1
100
AcDbLine
 10
102.445
 20
25.6109
 11
101.646
 21
25.6109
  0
LINE
  5
18A
100
AcDbEntity
  8
0
  6
ByLayer
 62
    0
370
   -1
100
AcDbLine
 10
101.646
 20
25.6109
 11
101.646
 21
22.5116
  0
LINE
  5
18B
100
AcDbEntity
  8
0
  6
ByLayer
 62
    0
370
   -1
100
AcDbLine
 10
101.646
 20
22.5116
 11
102.445
 21
22.5116
  0
LINE
  5
18C
100
AcDbEntity
  8
0
  6
ByLayer
 62
    0
370
   -1
100
AcDbLine
 10
102.445
 20
22.5116
 11
102.445
 21
21.5126
  0
LINE
  5
18D
100
AcDbEntity
  8
0
  6
ByLayer
 62
    0
370
   -1
100
AcDbLine
 10
102.445
 20
21.5126
 11
116.444
 21
21.5126
  0
LINE
  5
18E
100
AcDbEntity
  8
0
  6
ByLayer
 62
    0
370
   -1
100
AcDbLine
 10
116.444
 20
21.5126
 11
116.444
 21
22.5116
  0
LINE
  5
18F
100
AcDbEntity
  8
0
  6
ByLayer
 62
    0
370
   -1
100
AcDbLine
 10
116.444
 20
22.5116
 11
117.245
 21
22.5116
  0
LINE
  5
190
100
AcDbEntity
  8
0
  6
ByLayer
 62
    0
370
   -1
100
AcDbLine
 10
117.245
 20
22.5116
 11
117.245
 21
25.6109
  0
LINE
  5
191
100
AcDbEntity
  8
0
  6
ByLayer
 62
    0
370
   -1
100
AcDbLine
 10
117.245
 20
25.6109
 11
116.444
 21
25.6109
  0
LINE
  5
192
100
AcDbEntity
  8
0
  6
ByLayer
 62
    0
370
   -1
100
AcDbLine
 10
116.444
 20
25.6109
 11
116.444
 21
31.4124
  0
LINE
  5
193
100
AcDbEntity
  8
0
  6
ByLayer
 62
    0
370
   -1
100
AcDbLine
 10
116.444
 20
31.4124
 11
117.245
 21
31.4124
  0
LINE
  5
194
100
AcDbEntity
  8
0
  6
ByLayer
 62
    0
370
   -1
100
AcDbLine
 10
117.245
 20
31.4124
 11
117.245
 21
34.5116
  0
LINE
  5
195
100
AcDbEntity
  8
0
  6
ByLayer
 62
    0
370
   -1
100
AcDbLine
 10
117.245
 20
34.5116
 11
116.444
 21
34.5116
  0
LINE
  5
196
100
AcDbEntity
  8
0
  6
ByLayer
 62
    0
370
   -1
100
AcDbLine
 10
116.444
 20
34.5116
 11
116.444
 21
35.512
  0
LINE
  5
197
100
AcDbEntity
  8
0
  6
ByLayer
 62
    0
370
   -1
100
AcDbLine
 10
116.444
 20
35.512
 11
102.445
 21
35.512
  0
LINE
  5
198
100
AcDbEntity
  8
0
  6
ByLayer
 62
    0
370
   -1
100
AcDbLine
 10
121.495
 20
35.512
 11
121.495
 21
34.5116
  0
LINE
  5
199
100
AcDbEntity
  8
0
  6
ByLayer
 62
    0
370
   -1
100
AcDbLine
 10
121.495
 20
34.5116
 11
120.694
 21
34.5116
  0
LINE
  5
19A
100
AcDbEntity
  8
0
  6
ByLayer
 62
    0
370
   -1
100
AcDbLine
 10
120.694
 20
34.5116
 11
120.694
 21
31.4124
  0
LINE
  5
19B
100
AcDbEntity
  8
0
  6
ByLayer
 62
    0
370
   -1
100
AcDbLine
 10
120.694
 20
31.4124
 11
121.495
 21
31.4124
  0
LINE
  5
19C
100
AcDbEntity
  8
0
  6
ByLayer
 62
    0
370
   -1
100
AcDbLine
 10
121.495
 20
31.4124
 11
121.495
 21
25.6109
  0
LINE
  5
19D
100
AcDbEntity
  8
0
  6
ByLayer
 62
    0
370
   -1
100
AcDbLine
 10
121.495
 20
25.6109
 11
120.694
 21
25.6109
  0
LINE
  5
19E
100
AcDbEntity
  8
0
  6
ByLayer
 62
    0
370
   -1
100
AcDbLine
 10
120.694
 20
25.6109
 11
120.694
 21
22.5116
  0
LINE
  5
19F
100
AcDbEntity
  8
0
  6
ByLayer
 62
    0
370
   -1
100
AcDbLine
 10
120.694
 20
22.5116
 11
121.495
 21
22.5116
  0
LINE
  5
1A0
100
AcDbEntity
  8
0
  6
ByLayer
 62
    0
370
   -1
100
AcDbLine
 10
121.495
 20
22.5116
 11
121.495
 21
21.5126
  0
LINE
  5
1A1
100
AcDbEntity
  8
0
  6
ByLayer
 62
    0
370
   -1
100
AcDbLine
 10
121.495
 20
21.5126
 11
135.496
 21
21.5126
  0
LINE
  5
1A2
100
AcDbEntity
  8
0
  6
ByLayer
 62
    0
370
   -1
100
AcDbLine
 10
135.496
 20
21.5126
 11
135.496
 21
22.5116
  0
LINE
  5
1A3
100
AcDbEntity
  8
0
  6
ByLayer
 62
    0
370
   -1
100
AcDbLine
 10
135.496
 20
22.5116
 11
136.295
 21
22.5116
  0
LINE
  5
1A4
100
AcDbEntity
  8
0
  6
ByLayer
 62
    0
370
   -1
100
AcDbLine
 10
136.295
 20
22.5116
 11
136.295
 21
25.6109
  0
LINE
  5
1A5
100
AcDbEntity
  8
0
  6
ByLayer
 62
    0
370
   -1
100
AcDbLine
 10
136.295
 20
25.6109
 11
135.496
 21
25.6109
  0
LINE
  5
1A6
100
AcDbEntity
  8
0
  6
ByLayer
 62
    0
370
   -1
100
AcDbLine
 10
135.496
 20
25.6109
 11
135.496
 21
31.4124
  0
LINE
  5
1A7
100
AcDbEntity
  8
0
  6
ByLayer
 62
    0
370
   -1
100
AcDbLine
 10
135.496
 20
31.4124
 11
136.295
 21
31.4124
  0
LINE
  5
1A8
100
AcDbEntity
  8
0
  6
ByLayer
 62
    0
370
   -1
100
AcDbLine
 10
136.295
 20
31.4124
 11
136.295
 21
34.5116
  0
LINE
  5
1A9
100
AcDbEntity
  8
0
  6
ByLayer
 62
    0
370
   -1
100
AcDbLine
 10
136.295
 20
34.5116
 11
135.496
 21
34.5116
  0
LINE
  5
1AA
100
AcDbEntity
  8
0
  6
ByLayer
 62
    0
370
   -1
100
AcDbLine
 10
135.496
 20
34.5116
 11
135.496
 21
35.512
  0
LINE
  5
1AB
100
AcDbEntity
  8
0
  6
ByLayer
 62
    0
370
   -1
100
AcDbLine
 10
135.496
 20
35.512
 11
121.495
 21
35.512
  0
LINE
  5
1AC
100
AcDbEntity
  8
0
  6
ByLayer
 62
    0
370
   -1
100
AcDbLine
 10
140.545
 20
35.512
 11
140.545
 21
34.5116
  0
LINE
  5
1AD
100
AcDbEntity
  8
0
  6
ByLayer
 62
    0
370
   -1
100
AcDbLine
 10
140.545
 20
34.5116
 11
139.746
 21
34.5116
  0
LINE
  5
1AE
100
AcDbEntity
  8
0
  6
ByLayer
 62
    0
370
   -1
100
AcDbLine
 10
139.746
 20
34.5116
 11
139.746
 21
31.4124
  0
LINE
  5
1AF
100
AcDbEntity
  8
0
  6
ByLayer
 62
    0
370
   -1
100
AcDbLine
 10
139.746
 20
31.4124
 11
140.545
 21
31.4124
  0
LINE
  5
1B0
100
AcDbEntity
  8
0
  6
ByLayer
 62
    0
370
   -1
100
AcDbLine
 10
140.545
 20
31.4124
 11
140.545
 21
25.6109
  0
LINE
  5
1B1
100
AcDbEntity
  8
0
  6
ByLayer
 62
    0
370
   -1
100
AcDbLine
 10
140.545
 20
25.6109
 11
139.746
 21
25.6109
  0
LINE
  5
1B2
100
AcDbEntity
  8
0
  6
ByLayer
 62
    0
370
   -1
100
AcDbLine
 10
139.746
 20
25.6109
 11
139.746
 21
22.5116
  0
LINE
  5
1B3
100
AcDbEntity
  8
0
  6
ByLayer
 62
    0
370
   -1
100
AcDbLine
 10
139.746
 20
22.5116
 11
140.545
 21
22.5116
  0
LINE
  5
1B4
100
AcDbEntity
  8
0
  6
ByLayer
 62
    0
370
   -1
100
AcDbLine
 10
140.545
 20
22.5116
 11
140.545
 21
21.5126
  0
LINE
  5
1B5
100
AcDbEntity
  8
0
  6
ByLayer
 62
    0
370
   -1
100
AcDbLine
 10
140.545
 20
21.5126
 11
154.544
 21
21.5126
  0
LINE
  5
1B6
100
AcDbEntity
  8
0
  6
ByLayer
 62
    0
370
   -1
100
AcDbLine
 10
154.544
 20
21.5126
 11
154.544
 21
22.5116
  0
LINE
  5
1B7
100
AcDbEntity
  8
0
  6
ByLayer
 62
    0
370
   -1
100
AcDbLine
 10
154.544
 20
22.5116
 11
155.345
 21
22.5116
  0
LINE
  5
1B8
100
AcDbEntity
  8
0
  6
ByLayer
 62
    0
370
   -1
100
AcDbLine
 10
155.345
 20
22.5116
 11
155.345
 21
25.6109
  0
LINE
  5
1B9
100
AcDbEntity
  8
0
  6
ByLayer
 62
    0
370
   -1
100
AcDbLine
 10
155.345
 20
25.6109
 11
154.544
 21
25.6109
  0
LINE
  5
1BA
100
AcDbEntity
  8
0
  6
ByLayer
 62
    0
370
   -1
100
AcDbLine
 10
154.544
 20
25.6109
 11
154.544
 21
31.4124
  0
LINE
  5
1BB
100
AcDbEntity
  8
0
  6
ByLayer
 62
    0
370
   -1
100
AcDbLine
 10
154.544
 20
31.4124
 11
155.345
 21
31.4124
  0
LINE
  5
1BC
100
AcDbEntity
  8
0
  6
ByLayer
 62
    0
370
   -1
100
AcDbLine
 10
155.345
 20
31.4124
 11
155.345
 21
34.5116
  0
LINE
  5
1BD
100
AcDbEntity
  8
0
  6
ByLayer
 62
    0
370
   -1
100
AcDbLine
 10
155.345
 20
34.5116
 11
154.544
 21
34.5116
  0
LINE
  5
1BE
100
AcDbEntity
  8
0
  6
ByLayer
 62
    0
370
   -1
100
AcDbLine
 10
154.544
 20
34.5116
 11
154.544
 21
35.512
  0
LINE
  5
1BF
100
AcDbEntity
  8
0
  6
ByLayer
 62
    0
370
   -1
100
AcDbLine
 10
154.544
 20
35.512
 11
140.545
 21
35.512
  0
LINE
  5
1C0
100
AcDbEntity
  8
0
  6
ByLayer
 62
    0
370
   -1
100
AcDbLine
 10
159.595
 20
35.512
 11
159.595
 21
34.5116
  0
LINE
  5
1C1
100
AcDbEntity
  8
0
  6
ByLayer
 62
    0
370
   -1
100
AcDbLine
 10
159.595
 20
34.5116
 11
158.794
 21
34.5116
  0
LINE
  5
1C2
100
AcDbEntity
  8
0
  6
ByLayer
 62
    0
370
   -1
100
AcDbLine
 10
158.794
 20
34.5116
 11
158.794
 21
31.4124
  0
LINE
  5
1C3
100
AcDbEntity
  8
0
  6
ByLayer
 62
    0
370
   -1
100
AcDbLine
 10
158.794
 20
31.4124
 11
159.595
 21
31.4124
  0
LINE
  5
1C4
100
AcDbEntity
  8
0
  6
ByLayer
 62
    0
370
   -1
100
AcDbLine
 10
159.595
 20
31.4124
 11
159.595
 21
25.6109
  0
LINE
  5
1C5
100
AcDbEntity
  8
0
  6
ByLayer
 62
    0
370
   -1
100
AcDbLine
 10
159.595
 20
25.6109
 11
158.794
 21
25.6109
  0
LINE
  5
1C6
100
AcDbEntity
  8
0
  6
ByLayer
 62
    0
370
   -1
100
AcDbLine
 10
158.794
 20
25.6109
 11
158.794
 21
22.5116
  0
LINE
  5
1C7
100
AcDbEntity
  8
0
  6
ByLayer
 62
    0
370
   -1
100
AcDbLine
 10
158.794
 20
22.5116
 11
159.595
 21
22.5116
  0
LINE
  5
1C8
100
AcDbEntity
  8
0
  6
ByLayer
 62
    0
370
   -1
100
AcDbLine
 10
159.595
 20
22.5116
 11
159.595
 21
21.5126
  0
LINE
  5
1C9
100
AcDbEntity
  8
0
  6
ByLayer
 62
    0
370
   -1
100
AcDbLine
 10
159.595
 20
21.5126
 11
173.596
 21
21.5126
  0
LINE
  5
1CA
100
AcDbEntity
  8
0
  6
ByLayer
 62
    0
370
   -1
100
AcDbLine
 10
173.596
 20
21.5126
 11
173.596
 21
22.5116
  0
LINE
  5
1CB
100
AcDbEntity
  8
0
  6
ByLayer
 62
    0
370
   -1
100
AcDbLine
 10
173.596
 20
22.5116
 11
174.395
 21
22.5116
  0
LINE
  5
1CC
100
AcDbEntity
  8
0
  6
ByLayer
 62
    0
370
   -1
100
AcDbLine
 10
174.395
 20
22.5116
 11
174.395
 21
25.6109
  0
LINE
  5
1CD
100
AcDbEntity
  8
0
  6
ByLayer
 62
    0
370
   -1
100
AcDbLine
 10
174.395
 20
25.6109
 11
173.596
 21
25.6109
  0
LINE
  5
1CE
100
AcDbEntity
  8
0
  6
ByLayer
 62
    0
370
   -1
100
AcDbLine
 10
173.596
 20
25.6109
 11
173.596
 21
31.4124
  0
LINE
  5
1CF
100
AcDbEntity
  8
0
  6
ByLayer
 62
    0
370
   -1
100
AcDbLine
 10
173.596
 20
31.4124
 11
174.395
 21
31.4124
  0
LINE
  5
1D0
100
AcDbEntity
  8
0
  6
ByLayer
 62
    0
370
   -1
100
AcDbLine
 10
174.395
 20
31.4124
 11
174.395
 21
34.5116
  0
LINE
  5
1D1
100
AcDbEntity
  8
0
  6
ByLayer
 62
    0
370
   -1
100
AcDbLine
 10
174.395
 20
34.5116
 11
173.596
 21
34.5116
  0
LINE
  5
1D2
100
AcDbEntity
  8
0
  6
ByLayer
 62
    0
370
   -1
100
AcDbLine
 10
173.596
 20
34.5116
 11
173.596
 21
35.512
  0
LINE
  5
1D3
100
AcDbEntity
  8
0
  6
ByLayer
 62
    0
370
   -1
100
AcDbLine
 10
173.596
 20
35.512
 11
159.595
 21
35.512
  0
LINE
  5
1D4
100
AcDbEntity
  8
0
  6
ByLayer
 62
    0
370
   -1
100
AcDbLine
 10
178.645
 20
35.512
 11
178.645
 21
34.5116
  0
LINE
  5
1D5
100
AcDbEntity
  8
0
  6
ByLayer
 62
    0
370
   -1
100
AcDbLine
 10
178.645
 20
34.5116
 11
177.846
 21
34.5116
  0
LINE
  5
1D6
100
AcDbEntity
  8
0
  6
ByLayer
 62
    0
370
   -1
100
AcDbLine
 10
177.846
 20
34.5116
 11
177.846
 21
31.4124
  0
LINE
  5
1D7
100
AcDbEntity
  8
0
  6
ByLayer
 62
    0
370
   -1
100
AcDbLine
 10
177.846
 20
31.4124
 11
178.645
 21
31.4124
  0
LINE
  5
1D8
100
AcDbEntity
  8
0
  6
ByLayer
 62
    0
370
   -1
100
AcDbLine
 10
178.645
 20
31.4124
 11
178.645
 21
25.6109
  0
LINE
  5
1D9
100
AcDbEntity
  8
0
  6
ByLayer
 62
    0
370
   -1
100
AcDbLine
 10
178.645
 20
25.6109
 11
177.846
 21
25.6109
  0
LINE
  5
1DA
100
AcDbEntity
  8
0
  6
ByLayer
 62
    0
370
   -1
100
AcDbLine
 10
177.846
 20
25.6109
 11
177.846
 21
22.5116
  0
LINE
  5
1DB
100
AcDbEntity
  8
0
  6
ByLayer
 62
    0
370
   -1
100
AcDbLine
 10
177.846
 20
22.5116
 11
178.645
 21
22.5116
  0
LINE
  5
1DC
100
AcDbEntity
  8
0
  6
ByLayer
 62
    0
370
   -1
100
AcDbLine
 10
178.645
 20
22.5116
 11
178.645
 21
21.5126
  0
LINE
  5
1DD
100
AcDbEntity
  8
0
  6
ByLayer
 62
    0
370
   -1
100
AcDbLine
 10
178.645
 20
21.5126
 11
192.646
 21
21.5126
  0
LINE
  5
1DE
100
AcDbEntity
  8
0
  6
ByLayer
 62
    0
370
   -1
100
AcDbLine
 10
192.646
 20
21.5126
 11
192.646
 21
22.5116
  0
LINE
  5
1DF
100
AcDbEntity
  8
0
  6
ByLayer
 62
    0
370
   -1
100
AcDbLine
 10
192.646
 20
22.5116
 11
193.445
 21
22.5116
  0
LINE
  5
1E0
100
AcDbEntity
  8
0
  6
ByLayer
 62
    0
370
   -1
100
AcDbLine
 10
193.445
 20
22.5116
 11
193.445
 21
25.6109
  0
LINE
  5
1E1
100
AcDbEntity
  8
0
  6
ByLayer
 62
    0
370
   -1
100
AcDbLine
 10
193.445
 20
25.6109
 11
192.646
 21
25.6109
  0
LINE
  5
1E2
100
AcDbEntity
  8
0
  6
ByLayer
 62
    0
370
   -1
100
AcDbLine
 10
192.646
 20
25.6109
 11
192.646
 21
31.4124
  0
LINE
  5
1E3
100
AcDbEntity
  8
0
  6
ByLayer
 62
    0
370
   -1
100
AcDbLine
 10
192.646
 20
31.4124
 11
193.445
 21
31.4124
  0
LINE
  5
1E4
100
AcDbEntity
  8
0
  6
ByLayer
 62
    0
370
   -1
100
AcDbLine
 10
193.445
 20
31.4124
 11
193.445
 21
34.5116
  0
LINE
  5
1E5
100
AcDbEntity
  8
0
  6
ByLayer
 62
    0
370
   -1
100
AcDbLine
 10
193.445
 20
34.5116
 11
192.646
 21
34.5116
  0
LINE
  5
1E6
100
AcDbEntity
  8
0
  6
ByLayer
 62
    0
370
   -1
100
AcDbLine
 10
192.646
 20
34.5116
 11
192.646
 21
35.512
  0
LINE
  5
1E7
100
AcDbEntity
  8
0
  6
ByLayer
 62
    0
370
   -1
100
AcDbLine
 10
192.646
 20
35.512
 11
178.645
 21
35.512
  0
LINE
  5
1E8
100
AcDbEntity
  8
0
  6
ByLayer
 62
    0
370
   -1
100
AcDbLine
 10
197.695
 20
35.512
 11
197.695
 21
34.5116
  0
LINE
  5
1E9
100
AcDbEntity
  8
0
  6
ByLayer
 62
    0
370
   -1
100
AcDbLine
 10
197.695
 20
34.5116
 11
196.896
 21
34.5116
  0
LINE
  5
1EA
100
AcDbEntity
  8
0
  6
ByLayer
 62
    0
370
   -1
100
AcDbLine
 10
196.896
 20
34.5116
 11
196.896
 21
31.4124
  0
LINE
  5
1EB
100
AcDbEntity
  8
0
  6
ByLayer
 62
    0
370
   -1
100
AcDbLine
 10
196.896
 20
31.4124
 11
197.695
 21
31.4124
  0
LINE
  5
1EC
100
AcDbEntity
  8
0
  6
ByLayer
 62
    0
370
   -1
100
AcDbLine
 10
197.695
 20
31.4124
 11
197.695
 21
25.6109
  0
LINE
  5
1ED
100
AcDbEntity
  8
0
  6
ByLayer
 62
    0
370
   -1
100
AcDbLine
 10
197.695
 20
25.6109
 11
196.896
 21
25.6109
  0
LINE
  5
1EE
100
AcDbEntity
  8
0
  6
ByLayer
 62
    0
370
   -1
100
AcDbLine
 10
196.896
 20
25.6109
 11
196.896
 21
22.5116
  0
LINE
  5
1EF
100
AcDbEntity
  8
0
  6
ByLayer
 62
    0
370
   -1
100
AcDbLine
 10
196.896
 20
22.5116
 11
197.695
 21
22.5116
  0
LINE
  5
1F0
100
AcDbEntity
  8
0
  6
ByLayer
 62
    0
370
   -1
100
AcDbLine
 10
197.695
 20
22.5116
 11
197.695
 21
21.5126
  0
LINE
  5
1F1
100
AcDbEntity
  8
0
  6
ByLayer
 62
    0
370
   -1
100
AcDbLine
 10
197.695
 20
21.5126
 11
211.694
 21
21.5126
  0
LINE
  5
1F2
100
AcDbEntity
  8
0
  6
ByLayer
 62
    0
370
   -1
100
AcDbLine
 10
211.694
 20
21.5126
 11
211.694
 21
22.5116
  0
LINE
  5
1F3
100
AcDbEntity
  8
0
  6
ByLayer
 62
    0
370
   -1
100
AcDbLine
 10
211.694
 20
22.5116
 11
212.495
 21
22.5116
  0
LINE
  5
1F4
100
AcDbEntity
  8
0
  6
ByLayer
 62
    0
370
   -1
100
AcDbLine
 10
212.495
 20
22.5116
 11
212.495
 21
25.6109
  0
LINE
  5
1F5
100
AcDbEntity
  8
0
  6
ByLayer
 62
    0
370
   -1
100
AcDbLine
 10
212.495
 20
25.6109
 11
211.694
 21
25.6109
  0
LINE
  5
1F6
100
AcDbEntity
  8
0
  6
ByLayer
 62
    0
370
   -1
100
AcDbLine
 10
211.694
 20
25.6109
 11
211.694
 21
31.4124
  0
LINE
  5
1F7
100
AcDbEntity
  8
0
  6
ByLayer
 62
    0
370
   -1
100
AcDbLine
 10
211.694
 20
31.4124
 11
212.495
 21
31.4124
  0
LINE
  5
1F8
100
AcDbEntity
  8
0
  6
ByLayer
 62
    0
370
   -1
100
AcDbLine
 10
212.495
 20
31.4124
 11
212.495
 21
34.5116
  0
LINE
  5
1F9
100
AcDbEntity
  8
0
  6
ByLayer
 62
    0
370
   -1
100
AcDbLine
 10
212.495
 20
34.5116
 11
211.694
 21
34.5116
  0
LINE
  5
1FA
100
AcDbEntity
  8
0
  6
ByLayer
 62
    0
370
   -1
100
AcDbLine
 10
211.694
 20
34.5116
 11
211.694
 21
35.512
  0
LINE
  5
1FB
100
AcDbEntity
  8
0
  6
ByLayer
 62
    0
370
   -1
100
AcDbLine
 10
211.694
 20
35.512
 11
197.695
 21
35.512
  0
LINE
  5
1FC
100
AcDbEntity
  8
0
  6
ByLayer
 62
    0
370
   -1
100
AcDbLine
 10
216.745
 20
35.512
 11
216.745
 21
34.5116
  0
LINE
  5
1FD
100
AcDbEntity
  8
0
  6
ByLayer
 62
    0
370
   -1
100
AcDbLine
 10
216.745
 20
34.5116
 11
215.944
 21
34.5116
  0
LINE
  5
1FE
100
AcDbEntity
  8
0
  6
ByLayer
 62
    0
370
   -1
100
AcDbLine
 10
215.944
 20
34.5116
 11
215.944
 21
31.4124
  0
LINE
  5
1FF
100
AcDbEntity
  8
0
  6
ByLayer
 62
    0
370
   -1
100
AcDbLine
 10
215.944
 20
31.4124
 11
216.745
 21
31.4124
  0
LINE
  5
200
100
AcDbEntity
  8
0
  6
ByLayer
 62
    0
370
   -1
100
AcDbLine
 10
216.745
 20
31.4124
 11
216.745
 21
25.6109
  0
LINE
  5
201
100
AcDbEntity
  8
0
  6
ByLayer
 62
    0
370
   -1
100
AcDbLine
 10
216.745
 20
25.6109
 11
215.944
 21
25.6109
  0
LINE
  5
202
100
AcDbEntity
  8
0
  6
ByLayer
 62
    0
370
   -1
100
AcDbLine
 10
215.944
 20
25.6109
 11
215.944
 21
22.5116
  0
LINE
  5
203
100
AcDbEntity
  8
0
  6
ByLayer
 62
    0
370
   -1
100
AcDbLine
 10
215.944
 20
22.5116
 11
216.745
 21
22.5116
  0
LINE
  5
204
100
AcDbEntity
  8
0
  6
ByLayer
 62
    0
370
   -1
100
AcDbLine
 10
216.745
 20
22.5116
 11
216.745
 21
21.5126
  0
LINE
  5
205
100
AcDbEntity
  8
0
  6
ByLayer
 62
    0
370
   -1
100
AcDbLine
 10
216.745
 20
21.5126
 11
230.746
 21
21.5126
  0
LINE
  5
206
100
AcDbEntity
  8
0
  6
ByLayer
 62
    0
370
   -1
100
AcDbLine
 10
230.746
 20
21.5126
 11
230.746
 21
22.5116
  0
LINE
  5
207
100
AcDbEntity
  8
0
  6
ByLayer
 62
    0
370
   -1
100
AcDbLine
 10
230.746
 20
22.5116
 11
231.545
 21
22.5116
  0
LINE
  5
208
100
AcDbEntity
  8
0
  6
ByLayer
 62
    0
370
   -1
100
AcDbLine
 10
231.545
 20
22.5116
 11
231.545
 21
25.6109
  0
LINE
  5
209
100
AcDbEntity
  8
0
  6
ByLayer
 62
    0
370
   -1
100
AcDbLine
 10
231.545
 20
25.6109
 11
230.746
 21
25.6109
  0
LINE
  5
20A
100
AcDbEntity
  8
0
  6
ByLayer
 62
    0
370
   -1
100
AcDbLine
 10
230.746
 20
25.6109
 11
230.746
 21
31.4124
  0
LINE
  5
20B
100
AcDbEntity
  8
0
  6
ByLayer
 62
    0
370
   -1
100
AcDbLine
 10
230.746
 20
31.4124
 11
231.545
 21
31.4124
  0
LINE
  5
20C
100
AcDbEntity
  8
0
  6
ByLayer
 62
    0
370
   -1
100
AcDbLine
 10
231.545
 20
31.4124
 11
231.545
 21
34.5116
  0
LINE
  5
20D
100
AcDbEntity
  8
0
  6
ByLayer
 62
    0
370
   -1
100
AcDbLine
 10
231.545
 20
34.5116
 11
230.746
 21
34.5116
  0
LINE
  5
20E
100
AcDbEntity
  8
0
  6
ByLayer
 62
    0
370
   -1
100
AcDbLine
 10
230.746
 20
34.5116
 11
230.746
 21
35.512
  0
LINE
  5
20F
100
AcDbEntity
  8
0
  6
ByLayer
 62
    0
370
   -1
100
AcDbLine
 10
230.746
 20
35.512
 11
216.745
 21
35.512
  0
LINE
  5
210
100
AcDbEntity
  8
0
  6
ByLayer
 62
    0
370
   -1
100
AcDbLine
 10
264.37
 20
73.61199999999999
 11
264.37
 21
72.61150000000001
  0
LINE
  5
211
100
AcDbEntity
  8
0
  6
ByLayer
 62
    0
370
   -1
100
AcDbLine
 10
264.37
 20
72.61150000000001
 11
263.569
 21
72.61150000000001
  0
LINE
  5
212
100
AcDbEntity
  8
0
  6
ByLayer
 62
    0
370
   -1
100
AcDbLine
 10
263.569
 20
72.61150000000001
 11
263.569
 21
69.5124
  0
LINE
  5
213
100
AcDbEntity
  8
0
  6
ByLayer
 62
    0
370
   -1
100
AcDbLine
 10
263.569
 20
69.5124
 11
264.37
 21
69.5124
  0
LINE
  5
214
100
AcDbEntity
  8
0
  6
ByLayer
 62
    0
370
   -1
100
AcDbLine
 10
264.37
 20
69.5124
 11
264.37
 21
63.7124
  0
LINE
  5
215
100
AcDbEntity
  8
0
  6
ByLayer
 62
    0
370
   -1
100
AcDbLine
 10
264.37
 20
63.7124
 11
263.569
 21
63.7124
  0
LINE
  5
216
100
AcDbEntity
  8
0
  6
ByLayer
 62
    0
370
   -1
100
AcDbLine
 10
263.569
 20
63.7124
 11
263.569
 21
60.6118
  0
LINE
  5
217
100
AcDbEntity
  8
0
  6
ByLayer
 62
    0
370
   -1
100
AcDbLine
 10
263.569
 20
60.6118
 11
264.37
 21
60.6118
  0
LINE
  5
218
100
AcDbEntity
  8
0
  6
ByLayer
 62
    0
370
   -1
100
AcDbLine
 10
264.37
 20
60.6118
 11
264.37
 21
59.6124
  0
LINE
  5
219
100
AcDbEntity
  8
0
  6
ByLayer
 62
    0
370
   -1
100
AcDbLine
 10
264.37
 20
59.6124
 11
266.75
 21
59.6124
  0
LINE
  5
21A
100
AcDbEntity
  8
0
  6
ByLayer
 62
    0
370
   -1
100
AcDbLine
 10
266.75
 20
59.6124
 11
266.75
 21
54.5606
  0
LINE
  5
21B
100
AcDbEntity
  8
0
  6
ByLayer
 62
    0
370
   -1
100
AcDbLine
 10
266.75
 20
54.5606
 11
245.32
 21
54.5606
  0
LINE
  5
21C
100
AcDbEntity
  8
0
  6
ByLayer
 62
    0
370
   -1
100
AcDbLine
 10
245.32
 20
54.5606
 11
245.32
 21
53.5615
  0
LINE
  5
21D
100
AcDbEntity
  8
0
  6
ByLayer
 62
    0
370
   -1
100
AcDbLine
 10
245.32
 20
53.5615
 11
244.521
 21
53.5615
  0
LINE
  5
21E
100
AcDbEntity
  8
0
  6
ByLayer
 62
    0
370
   -1
100
AcDbLine
 10
244.521
 20
53.5615
 11
244.521
 21
50.4624
  0
LINE
  5
21F
100
AcDbEntity
  8
0
  6
ByLayer
 62
    0
370
   -1
100
AcDbLine
 10
244.521
 20
50.4624
 11
245.32
 21
50.4624
  0
LINE
  5
220
100
AcDbEntity
  8
0
  6
ByLayer
 62
    0
370
   -1
100
AcDbLine
 10
245.32
 20
50.4624
 11
245.32
 21
44.661
  0
LINE
  5
221
100
AcDbEntity
  8
0
  6
ByLayer
 62
    0
370
   -1
100
AcDbLine
 10
245.32
 20
44.661
 11
244.521
 21
44.661
  0
LINE
  5
222
100
AcDbEntity
  8
0
  6
ByLayer
 62
    0
370
   -1
100
AcDbLine
 10
244.521
 20
44.661
 11
244.521
 21
41.5618
  0
LINE
  5
223
100
AcDbEntity
  8
0
  6
ByLayer
 62
    0
370
   -1
100
AcDbLine
 10
244.521
 20
41.5618
 11
245.32
 21
41.5618
  0
LINE
  5
224
100
AcDbEntity
  8
0
  6
ByLayer
 62
    0
370
   -1
100
AcDbLine
 10
245.32
 20
41.5618
 11
245.32
 21
40.5613
  0
LINE
  5
225
100
AcDbEntity
  8
0
  6
ByLayer
 62
    0
370
   -1
100
AcDbLine
 10
245.32
 20
40.5613
 11
250.675
 21
40.5613
  0
LINE
  5
226
100
AcDbEntity
  8
0
  6
ByLayer
 62
    0
370
   -1
100
AcDbLine
 10
250.675
 20
40.5613
 11
250.675
 21
39.5912
  0
LINE
  5
227
100
AcDbEntity
  8
0
  6
ByLayer
 62
    0
370
   -1
100
AcDbLine
 10
250.675
 20
39.5912
 11
253.974
 21
39.5912
  0
LINE
  5
228
100
AcDbEntity
  8
0
  6
ByLayer
 62
    0
370
   -1
100
AcDbLine
 10
253.974
 20
39.5912
 11
253.974
 21
40.5613
  0
LINE
  5
229
100
AcDbEntity
  8
0
  6
ByLayer
 62
    0
370
   -1
100
AcDbLine
 10
253.974
 20
40.5613
 11
271.225
 21
40.5613
  0
LINE
  5
22A
100
AcDbEntity
  8
0
  6
ByLayer
 62
    0
370
   -1
100
AcDbLine
 10
274.475
 20
39.5912
 11
277.775
 21
39.5912
  0
LINE
  5
22B
100
AcDbEntity
  8
0
  6
ByLayer
 62
    0
370
   -1
100
AcDbLine
 10
277.775
 20
39.5912
 11
277.775
 21
40.7928
  0
LINE
  5
22C
100
AcDbEntity
  8
0
  6
ByLayer
 62
    0
370
   -1
100
AcDbLine
 10
277.775
 20
40.7928
 11
279.501
 21
40.7928
  0
LINE
  5
22D
100
AcDbEntity
  8
0
  6
ByLayer
 62
    0
370
   -1
100
AcDbLine
 10
279.501
 20
40.7928
 11
279.501
 21
47.0613
  0
LINE
  5
22E
100
AcDbEntity
  8
0
  6
ByLayer
 62
    0
370
   -1
100
AcDbLine
 10
279.501
 20
47.0613
 11
280.325
 21
47.0613
  0
LINE
  5
22F
100
AcDbEntity
  8
0
  6
ByLayer
 62
    0
370
   -1
100
AcDbLine
 10
280.325
 20
47.0613
 11
280.325
 21
49.8616
  0
LINE
  5
230
100
AcDbEntity
  8
0
  6
ByLayer
 62
    0
370
   -1
100
AcDbLine
 10
280.75
 20
50.0874
 11
280.75
 21
64.087
  0
LINE
  5
231
100
AcDbEntity
  8
0
  6
ByLayer
 62
    0
370
   -1
100
AcDbLine
 10
280.75
 20
64.087
 11
279.75
 21
64.087
  0
LINE
  5
232
100
AcDbEntity
  8
0
  6
ByLayer
 62
    0
370
   -1
100
AcDbLine
 10
279.75
 20
64.087
 11
279.75
 21
64.8878
  0
LINE
  5
233
100
AcDbEntity
  8
0
  6
ByLayer
 62
    0
370
   -1
100
AcDbLine
 10
279.28
 20
65.61239999999999
 11
279.28
 21
72.3621
  0
LINE
  5
234
100
AcDbEntity
  8
0
  6
ByLayer
 62
    0
370
   -1
100
AcDbLine
 10
279.28
 20
72.3621
 11
279.17
 21
72.3621
  0
LINE
  5
235
100
AcDbEntity
  8
0
  6
ByLayer
 62
    0
370
   -1
100
AcDbLine
 10
279.17
 20
72.3621
 11
279.17
 21
72.61150000000001
  0
LINE
  5
236
100
AcDbEntity
  8
0
  6
ByLayer
 62
    0
370
   -1
100
AcDbLine
 10
279.17
 20
72.61150000000001
 11
278.369
 21
72.61150000000001
  0
LINE
  5
237
100
AcDbEntity
  8
0
  6
ByLayer
 62
    0
370
   -1
100
AcDbLine
 10
278.369
 20
72.61150000000001
 11
278.369
 21
73.61199999999999
  0
LINE
  5
238
100
AcDbEntity
  8
0
  6
ByLayer
 62
    0
370
   -1
100
AcDbLine
 10
278.369
 20
73.61199999999999
 11
264.37
 21
73.61199999999999
  0
LINE
  5
239
100
AcDbEntity
  8
0
  6
ByLayer
 62
    0
370
   -1
100
AcDbLine
 10
4.81348
 20
54.5606
 11
4.81348
 21
53.5615
  0
LINE
  5
23A
100
AcDbEntity
  8
0
  6
ByLayer
 62
    0
370
   -1
100
AcDbLine
 10
4.81348
 20
53.5615
 11
4.01285
 21
53.5615
  0
LINE
  5
23B
100
AcDbEntity
  8
0
  6
ByLayer
 62
    0
370
   -1
100
AcDbLine
 10
4.01285
 20
53.5615
 11
4.01285
 21
50.4624
  0
LINE
  5
23C
100
AcDbEntity
  8
0
  6
ByLayer
 62
    0
370
   -1
100
AcDbLine
 10
4.01285
 20
50.4624
 11
4.81348
 21
50.4624
  0
LINE
  5
23D
100
AcDbEntity
  8
0
  6
ByLayer
 62
    0
370
   -1
100
AcDbLine
 10
4.81348
 20
50.4624
 11
4.81348
 21
44.661
  0
LINE
  5
23E
100
AcDbEntity
  8
0
  6
ByLayer
 62
    0
370
   -1
100
AcDbLine
 10
4.81348
 20
44.661
 11
4.01285
 21
44.661
  0
LINE
  5
23F
100
AcDbEntity
  8
0
  6
ByLayer
 62
    0
370
   -1
100
AcDbLine
 10
4.01285
 20
44.661
 11
4.01285
 21
41.5618
  0
LINE
  5
240
100
AcDbEntity
  8
0
  6
ByLayer
 62
    0
370
   -1
100
AcDbLine
 10
4.01285
 20
41.5618
 11
4.81348
 21
41.5618
  0
LINE
  5
241
100
AcDbEntity
  8
0
  6
ByLayer
 62
    0
370
   -1
100
AcDbLine
 10
4.81348
 20
41.5618
 11
4.81348
 21
40.5613
  0
LINE
  5
242
100
AcDbEntity
  8
0
  6
ByLayer
 62
    0
370
   -1
100
AcDbLine
 10
4.81348
 20
40.5613
 11
23.5768
 21
40.5613
  0
LINE
  5
243
100
AcDbEntity
  8
0
  6
ByLayer
 62
    0
370
   -1
100
AcDbLine
 10
23.5768
 20
40.5613
 11
23.5768
 21
41.5618
  0
LINE
  5
244
100
AcDbEntity
  8
0
  6
ByLayer
 62
    0
370
   -1
100
AcDbLine
 10
23.5768
 20
41.5618
 11
24.3761
 21
41.5618
  0
LINE
  5
245
100
AcDbEntity
  8
0
  6
ByLayer
 62
    0
370
   -1
100
AcDbLine
 10
24.3761
 20
41.5618
 11
24.3761
 21
44.661
  0
LINE
  5
246
100
AcDbEntity
  8
0
  6
ByLayer
 62
    0
370
   -1
100
AcDbLine
 10
24.3761
 20
44.661
 11
23.5768
 21
44.661
  0
LINE
  5
247
100
AcDbEntity
  8
0
  6
ByLayer
 62
    0
370
   -1
100
AcDbLine
 10
23.5768
 20
44.661
 11
23.5768
 21
50.4624
  0
LINE
  5
248
100
AcDbEntity
  8
0
  6
ByLayer
 62
    0
370
   -1
100
AcDbLine
 10
23.5768
 20
50.4624
 11
24.3761
 21
50.4624
  0
LINE
  5
249
100
AcDbEntity
  8
0
  6
ByLayer
 62
    0
370
   -1
100
AcDbLine
 10
24.3761
 20
50.4624
 11
24.3761
 21
53.5615
  0
LINE
  5
24A
100
AcDbEntity
  8
0
  6
ByLayer
 62
    0
370
   -1
100
AcDbLine
 10
24.3761
 20
53.5615
 11
23.5768
 21
53.5615
  0
LINE
  5
24B
100
AcDbEntity
  8
0
  6
ByLayer
 62
    0
370
   -1
100
AcDbLine
 10
23.5768
 20
53.5615
 11
23.5768
 21
54.5606
  0
LINE
  5
24C
100
AcDbEntity
  8
0
  6
ByLayer
 62
    0
370
   -1
100
AcDbLine
 10
23.5768
 20
54.5606
 11
4.81348
 21
54.5606
  0
LINE
  5
24D
100
AcDbEntity
  8
0
  6
ByLayer
 62
    0
370
   -1
100
AcDbLine
 10
35.7699
 20
54.5606
 11
35.7699
 21
53.5615
  0
LINE
  5
24E
100
AcDbEntity
  8
0
  6
ByLayer
 62
    0
370
   -1
100
AcDbLine
 10
35.7699
 20
53.5615
 11
34.9705
 21
53.5615
  0
LINE
  5
24F
100
AcDbEntity
  8
0
  6
ByLayer
 62
    0
370
   -1
100
AcDbLine
 10
34.9705
 20
53.5615
 11
34.9705
 21
50.4624
  0
LINE
  5
250
100
AcDbEntity
  8
0
  6
ByLayer
 62
    0
370
   -1
100
AcDbLine
 10
34.9705
 20
50.4624
 11
35.7699
 21
50.4624
  0
LINE
  5
251
100
AcDbEntity
  8
0
  6
ByLayer
 62
    0
370
   -1
100
AcDbLine
 10
35.7699
 20
50.4624
 11
35.7699
 21
44.661
  0
LINE
  5
252
100
AcDbEntity
  8
0
  6
ByLayer
 62
    0
370
   -1
100
AcDbLine
 10
35.7699
 20
44.661
 11
34.9705
 21
44.661
  0
LINE
  5
253
100
AcDbEntity
  8
0
  6
ByLayer
 62
    0
370
   -1
100
AcDbLine
 10
34.9705
 20
44.661
 11
34.9705
 21
41.5618
  0
LINE
  5
254
100
AcDbEntity
  8
0
  6
ByLayer
 62
    0
370
   -1
100
AcDbLine
 10
34.9705
 20
41.5618
 11
35.7699
 21
41.5618
  0
LINE
  5
255
100
AcDbEntity
  8
0
  6
ByLayer
 62
    0
370
   -1
100
AcDbLine
 10
35.7699
 20
41.5618
 11
35.7699
 21
40.5613
  0
LINE
  5
256
100
AcDbEntity
  8
0
  6
ByLayer
 62
    0
370
   -1
100
AcDbLine
 10
35.7699
 20
40.5613
 11
49.7706
 21
40.5613
  0
LINE
  5
257
100
AcDbEntity
  8
0
  6
ByLayer
 62
    0
370
   -1
100
AcDbLine
 10
49.7706
 20
40.5613
 11
49.7706
 21
41.5618
  0
LINE
  5
258
100
AcDbEntity
  8
0
  6
ByLayer
 62
    0
370
   -1
100
AcDbLine
 10
49.7706
 20
41.5618
 11
50.5686
 21
41.5618
  0
LINE
  5
259
100
AcDbEntity
  8
0
  6
ByLayer
 62
    0
370
   -1
100
AcDbLine
 10
50.5686
 20
41.5618
 11
50.5686
 21
44.661
  0
LINE
  5
25A
100
AcDbEntity
  8
0
  6
ByLayer
 62
    0
370
   -1
100
AcDbLine
 10
50.5686
 20
44.661
 11
49.7706
 21
44.661
  0
LINE
  5
25B
100
AcDbEntity
  8
0
  6
ByLayer
 62
    0
370
   -1
100
AcDbLine
 10
49.7706
 20
44.661
 11
49.7706
 21
50.4624
  0
LINE
  5
25C
100
AcDbEntity
  8
0
  6
ByLayer
 62
    0
370
   -1
100
AcDbLine
 10
49.7706
 20
50.4624
 11
50.5686
 21
50.4624
  0
LINE
  5
25D
100
AcDbEntity
  8
0
  6
ByLayer
 62
    0
370
   -1
100
AcDbLine
 10
50.5686
 20
50.4624
 11
50.5686
 21
53.5615
  0
LINE
  5
25E
100
AcDbEntity
  8
0
  6
ByLayer
 62
    0
370
   -1
100
AcDbLine
 10
50.5686
 20
53.5615
 11
49.7706
 21
53.5615
  0
LINE
  5
25F
100
AcDbEntity
  8
0
  6
ByLayer
 62
    0
370
   -1
100
AcDbLine
 10
49.7706
 20
53.5615
 11
49.7706
 21
54.5606
  0
LINE
  5
260
100
AcDbEntity
  8
0
  6
ByLayer
 62
    0
370
   -1
100
AcDbLine
 10
49.7706
 20
54.5606
 11
35.7699
 21
54.5606
  0
LINE
  5
261
100
AcDbEntity
  8
0
  6
ByLayer
 62
    0
370
   -1
100
AcDbLine
 10
54.8185
 20
54.5606
 11
54.8185
 21
53.5615
  0
LINE
  5
262
100
AcDbEntity
  8
0
  6
ByLayer
 62
    0
370
   -1
100
AcDbLine
 10
54.8185
 20
53.5615
 11
54.0205
 21
53.5615
  0
LINE
  5
263
100
AcDbEntity
  8
0
  6
ByLayer
 62
    0
370
   -1
100
AcDbLine
 10
54.0205
 20
53.5615
 11
54.0205
 21
50.4624
  0
LINE
  5
264
100
AcDbEntity
  8
0
  6
ByLayer
 62
    0
370
   -1
100
AcDbLine
 10
54.0205
 20
50.4624
 11
54.8185
 21
50.4624
  0
LINE
  5
265
100
AcDbEntity
  8
0
  6
ByLayer
 62
    0
370
   -1
100
AcDbLine
 10
54.8185
 20
50.4624
 11
54.8185
 21
44.661
  0
LINE
  5
266
100
AcDbEntity
  8
0
  6
ByLayer
 62
    0
370
   -1
100
AcDbLine
 10
54.8185
 20
44.661
 11
54.0205
 21
44.661
  0
LINE
  5
267
100
AcDbEntity
  8
0
  6
ByLayer
 62
    0
370
   -1
100
AcDbLine
 10
54.0205
 20
44.661
 11
54.0205
 21
41.5618
  0
LINE
  5
268
100
AcDbEntity
  8
0
  6
ByLayer
 62
    0
370
   -1
100
AcDbLine
 10
54.0205
 20
41.5618
 11
54.8185
 21
41.5618
  0
LINE
  5
269
100
AcDbEntity
  8
0
  6
ByLayer
 62
    0
370
   -1
100
AcDbLine
 10
54.8185
 20
41.5618
 11
54.8185
 21
40.5613
  0
LINE
  5
26A
100
AcDbEntity
  8
0
  6
ByLayer
 62
    0
370
   -1
100
AcDbLine
 10
54.8185
 20
40.5613
 11
68.8192
 21
40.5613
  0
LINE
  5
26B
100
AcDbEntity
  8
0
  6
ByLayer
 62
    0
370
   -1
100
AcDbLine
 10
68.8192
 20
40.5613
 11
68.8192
 21
41.5618
  0
LINE
  5
26C
100
AcDbEntity
  8
0
  6
ByLayer
 62
    0
370
   -1
100
AcDbLine
 10
68.8192
 20
41.5618
 11
69.62
 21
41.5618
  0
LINE
  5
26D
100
AcDbEntity
  8
0
  6
ByLayer
 62
    0
370
   -1
100
AcDbLine
 10
69.62
 20
41.5618
 11
69.62
 21
44.661
  0
LINE
  5
26E
100
AcDbEntity
  8
0
  6
ByLayer
 62
    0
370
   -1
100
AcDbLine
 10
69.62
 20
44.661
 11
68.8192
 21
44.661
  0
LINE
  5
26F
100
AcDbEntity
  8
0
  6
ByLayer
 62
    0
370
   -1
100
AcDbLine
 10
68.8192
 20
44.661
 11
68.8192
 21
50.4624
  0
LINE
  5
270
100
AcDbEntity
  8
0
  6
ByLayer
 62
    0
370
   -1
100
AcDbLine
 10
68.8192
 20
50.4624
 11
69.62
 21
50.4624
  0
LINE
  5
271
100
AcDbEntity
  8
0
  6
ByLayer
 62
    0
370
   -1
100
AcDbLine
 10
69.62
 20
50.4624
 11
69.62
 21
53.5615
  0
LINE
  5
272
100
AcDbEntity
  8
0
  6
ByLayer
 62
    0
370
   -1
100
AcDbLine
 10
69.62
 20
53.5615
 11
68.8192
 21
53.5615
  0
LINE
  5
273
100
AcDbEntity
  8
0
  6
ByLayer
 62
    0
370
   -1
100
AcDbLine
 10
68.8192
 20
53.5615
 11
68.8192
 21
54.5606
  0
LINE
  5
274
100
AcDbEntity
  8
0
  6
ByLayer
 62
    0
370
   -1
100
AcDbLine
 10
68.8192
 20
54.5606
 11
54.8185
 21
54.5606
  0
LINE
  5
275
100
AcDbEntity
  8
0
  6
ByLayer
 62
    0
370
   -1
100
AcDbLine
 10
73.8699
 20
54.5606
 11
73.8699
 21
53.5615
  0
LINE
  5
276
100
AcDbEntity
  8
0
  6
ByLayer
 62
    0
370
   -1
100
AcDbLine
 10
73.8699
 20
53.5615
 11
73.06910000000001
 21
53.5615
  0
LINE
  5
277
100
AcDbEntity
  8
0
  6
ByLayer
 62
    0
370
   -1
100
AcDbLine
 10
73.06910000000001
 20
53.5615
 11
73.06910000000001
 21
50.4624
  0
LINE
  5
278
100
AcDbEntity
  8
0
  6
ByLayer
 62
    0
370
   -1
100
AcDbLine
 10
73.06910000000001
 20
50.4624
 11
73.8699
 21
50.4624
  0
LINE
  5
279
100
AcDbEntity
  8
0
  6
ByLayer
 62
    0
370
   -1
100
AcDbLine
 10
73.8699
 20
50.4624
 11
73.8699
 21
44.661
  0
LINE
  5
27A
100
AcDbEntity
  8
0
  6
ByLayer
 62
    0
370
   -1
100
AcDbLine
 10
73.8699
 20
44.661
 11
73.06910000000001
 21
44.661
  0
LINE
  5
27B
100
AcDbEntity
  8
0
  6
ByLayer
 62
    0
370
   -1
100
AcDbLine
 10
73.06910000000001
 20
44.661
 11
73.06910000000001
 21
41.5618
  0
LINE
  5
27C
100
AcDbEntity
  8
0
  6
ByLayer
 62
    0
370
   -1
100
AcDbLine
 10
73.06910000000001
 20
41.5618
 11
73.8699
 21
41.5618
  0
LINE
  5
27D
100
AcDbEntity
  8
0
  6
ByLayer
 62
    0
370
   -1
100
AcDbLine
 10
73.8699
 20
41.5618
 11
73.8699
 21
40.5613
  0
LINE
  5
27E
100
AcDbEntity
  8
0
  6
ByLayer
 62
    0
370
   -1
100
AcDbLine
 10
73.8699
 20
40.5613
 11
87.86920000000001
 21
40.5613
  0
LINE
  5
27F
100
AcDbEntity
  8
0
  6
ByLayer
 62
    0
370
   -1
100
AcDbLine
 10
87.86920000000001
 20
40.5613
 11
87.86920000000001
 21
41.5618
  0
LINE
  5
280
100
AcDbEntity
  8
0
  6
ByLayer
 62
    0
370
   -1
100
AcDbLine
 10
87.86920000000001
 20
41.5618
 11
88.67
 21
41.5618
  0
LINE
  5
281
100
AcDbEntity
  8
0
  6
ByLayer
 62
    0
370
   -1
100
AcDbLine
 10
88.67
 20
41.5618
 11
88.67
 21
44.661
  0
LINE
  5
282
100
AcDbEntity
  8
0
  6
ByLayer
 62
    0
370
   -1
100
AcDbLine
 10
88.67
 20
44.661
 11
87.86920000000001
 21
44.661
  0
LINE
  5
283
100
AcDbEntity
  8
0
  6
ByLayer
 62
    0
370
   -1
100
AcDbLine
 10
87.86920000000001
 20
44.661
 11
87.86920000000001
 21
50.4624
  0
LINE
  5
284
100
AcDbEntity
  8
0
  6
ByLayer
 62
    0
370
   -1
100
AcDbLine
 10
87.86920000000001
 20
50.4624
 11
88.67
 21
50.4624
  0
LINE
  5
285
100
AcDbEntity
  8
0
  6
ByLayer
 62
    0
370
   -1
100
AcDbLine
 10
88.67
 20
50.4624
 11
88.67
 21
53.5615
  0
LINE
  5
286
100
AcDbEntity
  8
0
  6
ByLayer
 62
    0
370
   -1
100
AcDbLine
 10
88.67
 20
53.5615
 11
87.86920000000001
 21
53.5615
  0
LINE
  5
287
100
AcDbEntity
  8
0
  6
ByLayer
 62
    0
370
   -1
100
AcDbLine
 10
87.86920000000001
 20
53.5615
 11
87.86920000000001
 21
54.5606
  0
LINE
  5
288
100
AcDbEntity
  8
0
  6
ByLayer
 62
    0
370
   -1
100
AcDbLine
 10
87.86920000000001
 20
54.5606
 11
73.8699
 21
54.5606
  0
LINE
  5
289
100
AcDbEntity
  8
0
  6
ByLayer
 62
    0
370
   -1
100
AcDbLine
 10
92.9199
 20
54.5606
 11
92.9199
 21
53.5615
  0
LINE
  5
28A
100
AcDbEntity
  8
0
  6
ByLayer
 62
    0
370
   -1
100
AcDbLine
 10
92.9199
 20
53.5615
 11
92.1191
 21
53.5615
  0
LINE
  5
28B
100
AcDbEntity
  8
0
  6
ByLayer
 62
    0
370
   -1
100
AcDbLine
 10
92.1191
 20
53.5615
 11
92.1191
 21
50.4624
  0
LINE
  5
28C
100
AcDbEntity
  8
0
  6
ByLayer
 62
    0
370
   -1
100
AcDbLine
 10
92.1191
 20
50.4624
 11
92.9199
 21
50.4624
  0
LINE
  5
28D
100
AcDbEntity
  8
0
  6
ByLayer
 62
    0
370
   -1
100
AcDbLine
 10
92.9199
 20
50.4624
 11
92.9199
 21
44.661
  0
LINE
  5
28E
100
AcDbEntity
  8
0
  6
ByLayer
 62
    0
370
   -1
100
AcDbLine
 10
92.9199
 20
44.661
 11
92.1191
 21
44.661
  0
LINE
  5
28F
100
AcDbEntity
  8
0
  6
ByLayer
 62
    0
370
   -1
100
AcDbLine
 10
92.1191
 20
44.661
 11
92.1191
 21
41.5618
  0
LINE
  5
290
100
AcDbEntity
  8
0
  6
ByLayer
 62
    0
370
   -1
100
AcDbLine
 10
92.1191
 20
41.5618
 11
92.9199
 21
41.5618
  0
LINE
  5
291
100
AcDbEntity
  8
0
  6
ByLayer
 62
    0
370
   -1
100
AcDbLine
 10
92.9199
 20
41.5618
 11
92.9199
 21
40.5613
  0
LINE
  5
292
100
AcDbEntity
  8
0
  6
ByLayer
 62
    0
370
   -1
100
AcDbLine
 10
92.9199
 20
40.5613
 11
106.919
 21
40.5613
  0
LINE
  5
293
100
AcDbEntity
  8
0
  6
ByLayer
 62
    0
370
   -1
100
AcDbLine
 10
106.919
 20
40.5613
 11
106.919
 21
41.5618
  0
LINE
  5
294
100
AcDbEntity
  8
0
  6
ByLayer
 62
    0
370
   -1
100
AcDbLine
 10
106.919
 20
41.5618
 11
107.719
 21
41.5618
  0
LINE
  5
295
100
AcDbEntity
  8
0
  6
ByLayer
 62
    0
370
   -1
100
AcDbLine
 10
107.719
 20
41.5618
 11
107.719
 21
44.661
  0
LINE
  5
296
100
AcDbEntity
  8
0
  6
ByLayer
 62
    0
370
   -1
100
AcDbLine
 10
107.719
 20
44.661
 11
106.919
 21
44.661
  0
LINE
  5
297
100
AcDbEntity
  8
0
  6
ByLayer
 62
    0
370
   -1
100
AcDbLine
 10
106.919
 20
44.661
 11
106.919
 21
50.4624
  0
LINE
  5
298
100
AcDbEntity
  8
0
  6
ByLayer
 62
    0
370
   -1
100
AcDbLine
 10
106.919
 20
50.4624
 11
107.719
 21
50.4624
  0
LINE
  5
299
100
AcDbEntity
  8
0
  6
ByLayer
 62
    0
370
   -1
100
AcDbLine
 10
107.719
 20
50.4624
 11
107.719
 21
53.5615
  0
LINE
  5
29A
100
AcDbEntity
  8
0
  6
ByLayer
 62
    0
370
   -1
100
AcDbLine
 10
107.719
 20
53.5615
 11
106.919
 21
53.5615
  0
LINE
  5
29B
100
AcDbEntity
  8
0
  6
ByLayer
 62
    0
370
   -1
100
AcDbLine
 10
106.919
 20
53.5615
 11
106.919
 21
54.5606
  0
LINE
  5
29C
100
AcDbEntity
  8
0
  6
ByLayer
 62
    0
370
   -1
100
AcDbLine
 10
106.919
 20
54.5606
 11
92.9199
 21
54.5606
  0
LINE
  5
29D
100
AcDbEntity
  8
0
  6
ByLayer
 62
    0
370
   -1
100
AcDbLine
 10
111.968
 20
54.5606
 11
111.968
 21
53.5615
  0
LINE
  5
29E
100
AcDbEntity
  8
0
  6
ByLayer
 62
    0
370
   -1
100
AcDbLine
 10
111.968
 20
53.5615
 11
111.169
 21
53.5615
  0
LINE
  5
29F
100
AcDbEntity
  8
0
  6
ByLayer
 62
    0
370
   -1
100
AcDbLine
 10
111.169
 20
53.5615
 11
111.169
 21
50.4624
  0
LINE
  5
2A0
100
AcDbEntity
  8
0
  6
ByLayer
 62
    0
370
   -1
100
AcDbLine
 10
111.169
 20
50.4624
 11
111.968
 21
50.4624
  0
LINE
  5
2A1
100
AcDbEntity
  8
0
  6
ByLayer
 62
    0
370
   -1
100
AcDbLine
 10
111.968
 20
50.4624
 11
111.968
 21
44.661
  0
LINE
  5
2A2
100
AcDbEntity
  8
0
  6
ByLayer
 62
    0
370
   -1
100
AcDbLine
 10
111.968
 20
44.661
 11
111.169
 21
44.661
  0
LINE
  5
2A3
100
AcDbEntity
  8
0
  6
ByLayer
 62
    0
370
   -1
100
AcDbLine
 10
111.169
 20
44.661
 11
111.169
 21
41.5618
  0
LINE
  5
2A4
100
AcDbEntity
  8
0
  6
ByLayer
 62
    0
370
   -1
100
AcDbLine
 10
111.169
 20
41.5618
 11
111.968
 21
41.5618
  0
LINE
  5
2A5
100
AcDbEntity
  8
0
  6
ByLayer
 62
    0
370
   -1
100
AcDbLine
 10
111.968
 20
41.5618
 11
111.968
 21
40.5613
  0
LINE
  5
2A6
100
AcDbEntity
  8
0
  6
ByLayer
 62
    0
370
   -1
100
AcDbLine
 10
111.968
 20
40.5613
 11
125.971
 21
40.5613
  0
LINE
  5
2A7
100
AcDbEntity
  8
0
  6
ByLayer
 62
    0
370
   -1
100
AcDbLine
 10
125.971
 20
40.5613
 11
125.971
 21
41.5618
  0
LINE
  5
2A8
100
AcDbEntity
  8
0
  6
ByLayer
 62
    0
370
   -1
100
AcDbLine
 10
125.971
 20
41.5618
 11
126.77
 21
41.5618
  0
LINE
  5
2A9
100
AcDbEntity
  8
0
  6
ByLayer
 62
    0
370
   -1
100
AcDbLine
 10
126.77
 20
41.5618
 11
126.77
 21
44.661
  0
LINE
  5
2AA
100
AcDbEntity
  8
0
  6
ByLayer
 62
    0
370
   -1
100
AcDbLine
 10
126.77
 20
44.661
 11
125.971
 21
44.661
  0
LINE
  5
2AB
100
AcDbEntity
  8
0
  6
ByLayer
 62
    0
370
   -1
100
AcDbLine
 10
125.971
 20
44.661
 11
125.971
 21
50.4624
  0
LINE
  5
2AC
100
AcDbEntity
  8
0
  6
ByLayer
 62
    0
370
   -1
100
AcDbLine
 10
125.971
 20
50.4624
 11
126.77
 21
50.4624
  0
LINE
  5
2AD
100
AcDbEntity
  8
0
  6
ByLayer
 62
    0
370
   -1
100
AcDbLine
 10
126.77
 20
50.4624
 11
126.77
 21
53.5615
  0
LINE
  5
2AE
100
AcDbEntity
  8
0
  6
ByLayer
 62
    0
370
   -1
100
AcDbLine
 10
126.77
 20
53.5615
 11
125.971
 21
53.5615
  0
LINE
  5
2AF
100
AcDbEntity
  8
0
  6
ByLayer
 62
    0
370
   -1
100
AcDbLine
 10
125.971
 20
53.5615
 11
125.971
 21
54.5606
  0
LINE
  5
2B0
100
AcDbEntity
  8
0
  6
ByLayer
 62
    0
370
   -1
100
AcDbLine
 10
125.971
 20
54.5606
 11
111.968
 21
54.5606
  0
LINE
  5
2B1
100
AcDbEntity
  8
0
  6
ByLayer
 62
    0
370
   -1
100
AcDbLine
 10
131.02
 20
54.5606
 11
131.02
 21
53.5615
  0
LINE
  5
2B2
100
AcDbEntity
  8
0
  6
ByLayer
 62
    0
370
   -1
100
AcDbLine
 10
131.02
 20
53.5615
 11
130.218
 21
53.5615
  0
LINE
  5
2B3
100
AcDbEntity
  8
0
  6
ByLayer
 62
    0
370
   -1
100
AcDbLine
 10
130.218
 20
53.5615
 11
130.218
 21
50.4624
  0
LINE
  5
2B4
100
AcDbEntity
  8
0
  6
ByLayer
 62
    0
370
   -1
100
AcDbLine
 10
130.218
 20
50.4624
 11
131.02
 21
50.4624
  0
LINE
  5
2B5
100
AcDbEntity
  8
0
  6
ByLayer
 62
    0
370
   -1
100
AcDbLine
 10
131.02
 20
50.4624
 11
131.02
 21
44.661
  0
LINE
  5
2B6
100
AcDbEntity
  8
0
  6
ByLayer
 62
    0
370
   -1
100
AcDbLine
 10
131.02
 20
44.661
 11
130.218
 21
44.661
  0
LINE
  5
2B7
100
AcDbEntity
  8
0
  6
ByLayer
 62
    0
370
   -1
100
AcDbLine
 10
130.218
 20
44.661
 11
130.218
 21
41.5618
  0
LINE
  5
2B8
100
AcDbEntity
  8
0
  6
ByLayer
 62
    0
370
   -1
100
AcDbLine
 10
130.218
 20
41.5618
 11
131.02
 21
41.5618
  0
LINE
  5
2B9
100
AcDbEntity
  8
0
  6
ByLayer
 62
    0
370
   -1
100
AcDbLine
 10
131.02
 20
41.5618
 11
131.02
 21
40.5613
  0
LINE
  5
2BA
100
AcDbEntity
  8
0
  6
ByLayer
 62
    0
370
   -1
100
AcDbLine
 10
131.02
 20
40.5613
 11
145.019
 21
40.5613
  0
LINE
  5
2BB
100
AcDbEntity
  8
0
  6
ByLayer
 62
    0
370
   -1
100
AcDbLine
 10
145.019
 20
40.5613
 11
145.019
 21
41.5618
  0
LINE
  5
2BC
100
AcDbEntity
  8
0
  6
ByLayer
 62
    0
370
   -1
100
AcDbLine
 10
145.019
 20
41.5618
 11
145.82
 21
41.5618
  0
LINE
  5
2BD
100
AcDbEntity
  8
0
  6
ByLayer
 62
    0
370
   -1
100
AcDbLine
 10
145.82
 20
41.5618
 11
145.82
 21
44.661
  0
LINE
  5
2BE
100
AcDbEntity
  8
0
  6
ByLayer
 62
    0
370
   -1
100
AcDbLine
 10
145.82
 20
44.661
 11
145.019
 21
44.661
  0
LINE
  5
2BF
100
AcDbEntity
  8
0
  6
ByLayer
 62
    0
370
   -1
100
AcDbLine
 10
145.019
 20
44.661
 11
145.019
 21
50.4624
  0
LINE
  5
2C0
100
AcDbEntity
  8
0
  6
ByLayer
 62
    0
370
   -1
100
AcDbLine
 10
145.019
 20
50.4624
 11
145.82
 21
50.4624
  0
LINE
  5
2C1
100
AcDbEntity
  8
0
  6
ByLayer
 62
    0
370
   -1
100
AcDbLine
 10
145.82
 20
50.4624
 11
145.82
 21
53.5615
  0
LINE
  5
2C2
100
AcDbEntity
  8
0
  6
ByLayer
 62
    0
370
   -1
100
AcDbLine
 10
145.82
 20
53.5615
 11
145.019
 21
53.5615
  0
LINE
  5
2C3
100
AcDbEntity
  8
0
  6
ByLayer
 62
    0
370
   -1
100
AcDbLine
 10
145.019
 20
53.5615
 11
145.019
 21
54.5606
  0
LINE
  5
2C4
100
AcDbEntity
  8
0
  6
ByLayer
 62
    0
370
   -1
100
AcDbLine
 10
145.019
 20
54.5606
 11
131.02
 21
54.5606
  0
LINE
  5
2C5
100
AcDbEntity
  8
0
  6
ByLayer
 62
    0
370
   -1
100
AcDbLine
 10
150.07
 20
54.5606
 11
150.07
 21
53.5615
  0
LINE
  5
2C6
100
AcDbEntity
  8
0
  6
ByLayer
 62
    0
370
   -1
100
AcDbLine
 10
150.07
 20
53.5615
 11
149.269
 21
53.5615
  0
LINE
  5
2C7
100
AcDbEntity
  8
0
  6
ByLayer
 62
    0
370
   -1
100
AcDbLine
 10
149.269
 20
53.5615
 11
149.269
 21
50.4624
  0
LINE
  5
2C8
100
AcDbEntity
  8
0
  6
ByLayer
 62
    0
370
   -1
100
AcDbLine
 10
149.269
 20
50.4624
 11
150.07
 21
50.4624
  0
LINE
  5
2C9
100
AcDbEntity
  8
0
  6
ByLayer
 62
    0
370
   -1
100
AcDbLine
 10
150.07
 20
50.4624
 11
150.07
 21
44.661
  0
LINE
  5
2CA
100
AcDbEntity
  8
0
  6
ByLayer
 62
    0
370
   -1
100
AcDbLine
 10
150.07
 20
44.661
 11
149.269
 21
44.661
  0
LINE
  5
2CB
100
AcDbEntity
  8
0
  6
ByLayer
 62
    0
370
   -1
100
AcDbLine
 10
149.269
 20
44.661
 11
149.269
 21
41.5618
  0
LINE
  5
2CC
100
AcDbEntity
  8
0
  6
ByLayer
 62
    0
370
   -1
100
AcDbLine
 10
149.269
 20
41.5618
 11
150.07
 21
41.5618
  0
LINE
  5
2CD
100
AcDbEntity
  8
0
  6
ByLayer
 62
    0
370
   -1
100
AcDbLine
 10
150.07
 20
41.5618
 11
150.07
 21
40.5613
  0
LINE
  5
2CE
100
AcDbEntity
  8
0
  6
ByLayer
 62
    0
370
   -1
100
AcDbLine
 10
150.07
 20
40.5613
 11
164.069
 21
40.5613
  0
LINE
  5
2CF
100
AcDbEntity
  8
0
  6
ByLayer
 62
    0
370
   -1
100
AcDbLine
 10
164.069
 20
40.5613
 11
164.069
 21
41.5618
  0
LINE
  5
2D0
100
AcDbEntity
  8
0
  6
ByLayer
 62
    0
370
   -1
100
AcDbLine
 10
164.069
 20
41.5618
 11
164.87
 21
41.5618
  0
LINE
  5
2D1
100
AcDbEntity
  8
0
  6
ByLayer
 62
    0
370
   -1
100
AcDbLine
 10
164.87
 20
41.5618
 11
164.87
 21
44.661
  0
LINE
  5
2D2
100
AcDbEntity
  8
0
  6
ByLayer
 62
    0
370
   -1
100
AcDbLine
 10
164.87
 20
44.661
 11
164.069
 21
44.661
  0
LINE
  5
2D3
100
AcDbEntity
  8
0
  6
ByLayer
 62
    0
370
   -1
100
AcDbLine
 10
164.069
 20
44.661
 11
164.069
 21
50.4624
  0
LINE
  5
2D4
100
AcDbEntity
  8
0
  6
ByLayer
 62
    0
370
   -1
100
AcDbLine
 10
164.069
 20
50.4624
 11
164.87
 21
50.4624
  0
LINE
  5
2D5
100
AcDbEntity
  8
0
  6
ByLayer
 62
    0
370
   -1
100
AcDbLine
 10
164.87
 20
50.4624
 11
164.87
 21
53.5615
  0
LINE
  5
2D6
100
AcDbEntity
  8
0
  6
ByLayer
 62
    0
370
   -1
100
AcDbLine
 10
164.87
 20
53.5615
 11
164.069
 21
53.5615
  0
LINE
  5
2D7
100
AcDbEntity
  8
0
  6
ByLayer
 62
    0
370
   -1
100
AcDbLine
 10
164.069
 20
53.5615
 11
164.069
 21
54.5606
  0
LINE
  5
2D8
100
AcDbEntity
  8
0
  6
ByLayer
 62
    0
370
   -1
100
AcDbLine
 10
164.069
 20
54.5606
 11
150.07
 21
54.5606
  0
LINE
  5
2D9
100
AcDbEntity
  8
0
  6
ByLayer
 62
    0
370
   -1
100
AcDbLine
 10
169.12
 20
54.5606
 11
169.12
 21
53.5615
  0
LINE
  5
2DA
100
AcDbEntity
  8
0
  6
ByLayer
 62
    0
370
   -1
100
AcDbLine
 10
169.12
 20
53.5615
 11
168.319
 21
53.5615
  0
LINE
  5
2DB
100
AcDbEntity
  8
0
  6
ByLayer
 62
    0
370
   -1
100
AcDbLine
 10
168.319
 20
53.5615
 11
168.319
 21
50.4624
  0
LINE
  5
2DC
100
AcDbEntity
  8
0
  6
ByLayer
 62
    0
370
   -1
100
AcDbLine
 10
168.319
 20
50.4624
 11
169.12
 21
50.4624
  0
LINE
  5
2DD
100
AcDbEntity
  8
0
  6
ByLayer
 62
    0
370
   -1
100
AcDbLine
 10
169.12
 20
50.4624
 11
169.12
 21
44.661
  0
LINE
  5
2DE
100
AcDbEntity
  8
0
  6
ByLayer
 62
    0
370
   -1
100
AcDbLine
 10
169.12
 20
44.661
 11
168.319
 21
44.661
  0
LINE
  5
2DF
100
AcDbEntity
  8
0
  6
ByLayer
 62
    0
370
   -1
100
AcDbLine
 10
168.319
 20
44.661
 11
168.319
 21
41.5618
  0
LINE
  5
2E0
100
AcDbEntity
  8
0
  6
ByLayer
 62
    0
370
   -1
100
AcDbLine
 10
168.319
 20
41.5618
 11
169.12
 21
41.5618
  0
LINE
  5
2E1
100
AcDbEntity
  8
0
  6
ByLayer
 62
    0
370
   -1
100
AcDbLine
 10
169.12
 20
41.5618
 11
169.12
 21
40.5613
  0
LINE
  5
2E2
100
AcDbEntity
  8
0
  6
ByLayer
 62
    0
370
   -1
100
AcDbLine
 10
169.12
 20
40.5613
 11
183.121
 21
40.5613
  0
LINE
  5
2E3
100
AcDbEntity
  8
0
  6
ByLayer
 62
    0
370
   -1
100
AcDbLine
 10
183.121
 20
40.5613
 11
183.121
 21
41.5618
  0
LINE
  5
2E4
100
AcDbEntity
  8
0
  6
ByLayer
 62
    0
370
   -1
100
AcDbLine
 10
183.121
 20
41.5618
 11
183.92
 21
41.5618
  0
LINE
  5
2E5
100
AcDbEntity
  8
0
  6
ByLayer
 62
    0
370
   -1
100
AcDbLine
 10
183.92
 20
41.5618
 11
183.92
 21
44.661
  0
LINE
  5
2E6
100
AcDbEntity
  8
0
  6
ByLayer
 62
    0
370
   -1
100
AcDbLine
 10
183.92
 20
44.661
 11
183.121
 21
44.661
  0
LINE
  5
2E7
100
AcDbEntity
  8
0
  6
ByLayer
 62
    0
370
   -1
100
AcDbLine
 10
183.121
 20
44.661
 11
183.121
 21
50.4624
  0
LINE
  5
2E8
100
AcDbEntity
  8
0
  6
ByLayer
 62
    0
370
   -1
100
AcDbLine
 10
183.121
 20
50.4624
 11
183.92
 21
50.4624
  0
LINE
  5
2E9
100
AcDbEntity
  8
0
  6
ByLayer
 62
    0
370
   -1
100
AcDbLine
 10
183.92
 20
50.4624
 11
183.92
 21
53.5615
  0
LINE
  5
2EA
100
AcDbEntity
  8
0
  6
ByLayer
 62
    0
370
   -1
100
AcDbLine
 10
183.92
 20
53.5615
 11
183.121
 21
53.5615
  0
LINE
  5
2EB
100
AcDbEntity
  8
0
  6
ByLayer
 62
    0
370
   -1
100
AcDbLine
 10
183.121
 20
53.5615
 11
183.121
 21
54.5606
  0
LINE
  5
2EC
100
AcDbEntity
  8
0
  6
ByLayer
 62
    0
370
   -1
100
AcDbLine
 10
183.121
 20
54.5606
 11
169.12
 21
54.5606
  0
LINE
  5
2ED
100
AcDbEntity
  8
0
  6
ByLayer
 62
    0
370
   -1
100
AcDbLine
 10
188.17
 20
54.5606
 11
188.17
 21
53.5615
  0
LINE
  5
2EE
100
AcDbEntity
  8
0
  6
ByLayer
 62
    0
370
   -1
100
AcDbLine
 10
188.17
 20
53.5615
 11
187.371
 21
53.5615
  0
LINE
  5
2EF
100
AcDbEntity
  8
0
  6
ByLayer
 62
    0
370
   -1
100
AcDbLine
 10
187.371
 20
53.5615
 11
187.371
 21
50.4624
  0
LINE
  5
2F0
100
AcDbEntity
  8
0
  6
ByLayer
 62
    0
370
   -1
100
AcDbLine
 10
187.371
 20
50.4624
 11
188.17
 21
50.4624
  0
LINE
  5
2F1
100
AcDbEntity
  8
0
  6
ByLayer
 62
    0
370
   -1
100
AcDbLine
 10
188.17
 20
50.4624
 11
188.17
 21
44.661
  0
LINE
  5
2F2
100
AcDbEntity
  8
0
  6
ByLayer
 62
    0
370
   -1
100
AcDbLine
 10
188.17
 20
44.661
 11
187.371
 21
44.661
  0
LINE
  5
2F3
100
AcDbEntity
  8
0
  6
ByLayer
 62
    0
370
   -1
100
AcDbLine
 10
187.371
 20
44.661
 11
187.371
 21
41.5618
  0
LINE
  5
2F4
100
AcDbEntity
  8
0
  6
ByLayer
 62
    0
370
   -1
100
AcDbLine
 10
187.371
 20
41.5618
 11
188.17
 21
41.5618
  0
LINE
  5
2F5
100
AcDbEntity
  8
0
  6
ByLayer
 62
    0
370
   -1
100
AcDbLine
 10
188.17
 20
41.5618
 11
188.17
 21
40.5613
  0
LINE
  5
2F6
100
AcDbEntity
  8
0
  6
ByLayer
 62
    0
370
   -1
100
AcDbLine
 10
188.17
 20
40.5613
 11
202.169
 21
40.5613
  0
LINE
  5
2F7
100
AcDbEntity
  8
0
  6
ByLayer
 62
    0
370
   -1
100
AcDbLine
 10
202.169
 20
40.5613
 11
202.169
 21
41.5618
  0
LINE
  5
2F8
100
AcDbEntity
  8
0
  6
ByLayer
 62
    0
370
   -1
100
AcDbLine
 10
202.169
 20
41.5618
 11
202.97
 21
41.5618
  0
LINE
  5
2F9
100
AcDbEntity
  8
0
  6
ByLayer
 62
    0
370
   -1
100
AcDbLine
 10
202.97
 20
41.5618
 11
202.97
 21
44.661
  0
LINE
  5
2FA
100
AcDbEntity
  8
0
  6
ByLayer
 62
    0
370
   -1
100
AcDbLine
 10
202.97
 20
44.661
 11
202.169
 21
44.661
  0
LINE
  5
2FB
100
AcDbEntity
  8
0
  6
ByLayer
 62
    0
370
   -1
100
AcDbLine
 10
202.169
 20
44.661
 11
202.169
 21
50.4624
  0
LINE
  5
2FC
100
AcDbEntity
  8
0
  6
ByLayer
 62
    0
370
   -1
100
AcDbLine
 10
202.169
 20
50.4624
 11
202.97
 21
50.4624
  0
LINE
  5
2FD
100
AcDbEntity
  8
0
  6
ByLayer
 62
    0
370
   -1
100
AcDbLine
 10
202.97
 20
50.4624
 11
202.97
 21
53.5615
  0
LINE
  5
2FE
100
AcDbEntity
  8
0
  6
ByLayer
 62
    0
370
   -1
100
AcDbLine
 10
202.97
 20
53.5615
 11
202.169
 21
53.5615
  0
LINE
  5
2FF
100
AcDbEntity
  8
0
  6
ByLayer
 62
    0
370
   -1
100
AcDbLine
 10
202.169
 20
53.5615
 11
202.169
 21
54.5606
  0
LINE
  5
300
100
AcDbEntity
  8
0
  6
ByLayer
 62
    0
370
   -1
100
AcDbLine
 10
202.169
 20
54.5606
 11
188.17
 21
54.5606
  0
LINE
  5
301
100
AcDbEntity
  8
0
  6
ByLayer
 62
    0
370
   -1
100
AcDbLine
 10
207.22
 20
54.5606
 11
207.22
 21
53.5615
  0
LINE
  5
302
100
AcDbEntity
  8
0
  6
ByLayer
 62
    0
370
   -1
100
AcDbLine
 10
207.22
 20
53.5615
 11
206.419
 21
53.5615
  0
LINE
  5
303
100
AcDbEntity
  8
0
  6
ByLayer
 62
    0
370
   -1
100
AcDbLine
 10
206.419
 20
53.5615
 11
206.419
 21
50.4624
  0
LINE
  5
304
100
AcDbEntity
  8
0
  6
ByLayer
 62
    0
370
   -1
100
AcDbLine
 10
206.419
 20
50.4624
 11
207.22
 21
50.4624
  0
LINE
  5
305
100
AcDbEntity
  8
0
  6
ByLayer
 62
    0
370
   -1
100
AcDbLine
 10
207.22
 20
50.4624
 11
207.22
 21
44.661
  0
LINE
  5
306
100
AcDbEntity
  8
0
  6
ByLayer
 62
    0
370
   -1
100
AcDbLine
 10
207.22
 20
44.661
 11
206.419
 21
44.661
  0
LINE
  5
307
100
AcDbEntity
  8
0
  6
ByLayer
 62
    0
370
   -1
100
AcDbLine
 10
206.419
 20
44.661
 11
206.419
 21
41.5618
  0
LINE
  5
308
100
AcDbEntity
  8
0
  6
ByLayer
 62
    0
370
   -1
100
AcDbLine
 10
206.419
 20
41.5618
 11
207.22
 21
41.5618
  0
LINE
  5
309
100
AcDbEntity
  8
0
  6
ByLayer
 62
    0
370
   -1
100
AcDbLine
 10
207.22
 20
41.5618
 11
207.22
 21
40.5613
  0
LINE
  5
30A
100
AcDbEntity
  8
0
  6
ByLayer
 62
    0
370
   -1
100
AcDbLine
 10
207.22
 20
40.5613
 11
221.221
 21
40.5613
  0
LINE
  5
30B
100
AcDbEntity
  8
0
  6
ByLayer
 62
    0
370
   -1
100
AcDbLine
 10
221.221
 20
40.5613
 11
221.221
 21
41.5618
  0
LINE
  5
30C
100
AcDbEntity
  8
0
  6
ByLayer
 62
    0
370
   -1
100
AcDbLine
 10
221.221
 20
41.5618
 11
222.02
 21
41.5618
  0
LINE
  5
30D
100
AcDbEntity
  8
0
  6
ByLayer
 62
    0
370
   -1
100
AcDbLine
 10
222.02
 20
41.5618
 11
222.02
 21
44.661
  0
LINE
  5
30E
100
AcDbEntity
  8
0
  6
ByLayer
 62
    0
370
   -1
100
AcDbLine
 10
222.02
 20
44.661
 11
221.221
 21
44.661
  0
LINE
  5
30F
100
AcDbEntity
  8
0
  6
ByLayer
 62
    0
370
   -1
100
AcDbLine
 10
221.221
 20
44.661
 11
221.221
 21
50.4624
  0
LINE
  5
310
100
AcDbEntity
  8
0
  6
ByLayer
 62
    0
370
   -1
100
AcDbLine
 10
221.221
 20
50.4624
 11
222.02
 21
50.4624
  0
LINE
  5
311
100
AcDbEntity
  8
0
  6
ByLayer
 62
    0
370
   -1
100
AcDbLine
 10
222.02
 20
50.4624
 11
222.02
 21
53.5615
  0
LINE
  5
312
100
AcDbEntity
  8
0
  6
ByLayer
 62
    0
370
   -1
100
AcDbLine
 10
222.02
 20
53.5615
 11
221.221
 21
53.5615
  0
LINE
  5
313
100
AcDbEntity
  8
0
  6
ByLayer
 62
    0
370
   -1
100
AcDbLine
 10
221.221
 20
53.5615
 11
221.221
 21
54.5606
  0
LINE
  5
314
100
AcDbEntity
  8
0
  6
ByLayer
 62
    0
370
   -1
100
AcDbLine
 10
221.221
 20
54.5606
 11
207.22
 21
54.5606
  0
LINE
  5
315
100
AcDbEntity
  8
0
  6
ByLayer
 62
    0
370
   -1
100
AcDbLine
 10
226.27
 20
54.5606
 11
226.27
 21
53.5615
  0
LINE
  5
316
100
AcDbEntity
  8
0
  6
ByLayer
 62
    0
370
   -1
100
AcDbLine
 10
226.27
 20
53.5615
 11
225.471
 21
53.5615
  0
LINE
  5
317
100
AcDbEntity
  8
0
  6
ByLayer
 62
    0
370
   -1
100
AcDbLine
 10
225.471
 20
53.5615
 11
225.471
 21
50.4624
  0
LINE
  5
318
100
AcDbEntity
  8
0
  6
ByLayer
 62
    0
370
   -1
100
AcDbLine
 10
225.471
 20
50.4624
 11
226.27
 21
50.4624
  0
LINE
  5
319
100
AcDbEntity
  8
0
  6
ByLayer
 62
    0
370
   -1
100
AcDbLine
 10
226.27
 20
50.4624
 11
226.27
 21
44.661
  0
LINE
  5
31A
100
AcDbEntity
  8
0
  6
ByLayer
 62
    0
370
   -1
100
AcDbLine
 10
226.27
 20
44.661
 11
225.471
 21
44.661
  0
LINE
  5
31B
100
AcDbEntity
  8
0
  6
ByLayer
 62
    0
370
   -1
100
AcDbLine
 10
225.471
 20
44.661
 11
225.471
 21
41.5618
  0
LINE
  5
31C
100
AcDbEntity
  8
0
  6
ByLayer
 62
    0
370
   -1
100
AcDbLine
 10
225.471
 20
41.5618
 11
226.27
 21
41.5618
  0
LINE
  5
31D
100
AcDbEntity
  8
0
  6
ByLayer
 62
    0
370
   -1
100
AcDbLine
 10
226.27
 20
41.5618
 11
226.27
 21
40.5613
  0
LINE
  5
31E
100
AcDbEntity
  8
0
  6
ByLayer
 62
    0
370
   -1
100
AcDbLine
 10
226.27
 20
40.5613
 11
240.271
 21
40.5613
  0
LINE
  5
31F
100
AcDbEntity
  8
0
  6
ByLayer
 62
    0
370
   -1
100
AcDbLine
 10
240.271
 20
40.5613
 11
240.271
 21
41.5618
  0
LINE
  5
320
100
AcDbEntity
  8
0
  6
ByLayer
 62
    0
370
   -1
100
AcDbLine
 10
240.271
 20
41.5618
 11
241.07
 21
41.5618
  0
LINE
  5
321
100
AcDbEntity
  8
0
  6
ByLayer
 62
    0
370
   -1
100
AcDbLine
 10
241.07
 20
41.5618
 11
241.07
 21
44.661
  0
LINE
  5
322
100
AcDbEntity
  8
0
  6
ByLayer
 62
    0
370
   -1
100
AcDbLine
 10
241.07
 20
44.661
 11
240.271
 21
44.661
  0
LINE
  5
323
100
AcDbEntity
  8
0
  6
ByLayer
 62
    0
370
   -1
100
AcDbLine
 10
240.271
 20
44.661
 11
240.271
 21
50.4624
  0
LINE
  5
324
100
AcDbEntity
  8
0
  6
ByLayer
 62
    0
370
   -1
100
AcDbLine
 10
240.271
 20
50.4624
 11
241.07
 21
50.4624
  0
LINE
  5
325
100
AcDbEntity
  8
0
  6
ByLayer
 62
    0
370
   -1
100
AcDbLine
 10
241.07
 20
50.4624
 11
241.07
 21
53.5615
  0
LINE
  5
326
100
AcDbEntity
  8
0
  6
ByLayer
 62
    0
370
   -1
100
AcDbLine
 10
241.07
 20
53.5615
 11
240.271
 21
53.5615
  0
LINE
  5
327
100
AcDbEntity
  8
0
  6
ByLayer
 62
    0
370
   -1
100
AcDbLine
 10
240.271
 20
53.5615
 11
240.271
 21
54.5606
  0
LINE
  5
328
100
AcDbEntity
  8
0
  6
ByLayer
 62
    0
370
   -1
100
AcDbLine
 10
240.271
 20
54.5606
 11
226.27
 21
54.5606
  0
LINE
  5
329
100
AcDbEntity
  8
0
  6
ByLayer
 62
    0
370
   -1
100
AcDbLine
 10
127.71
 20
49.9389
 11
127.014
 21
49.5847
  0
LINE
  5
32A
100
AcDbEntity
  8
0
  6
ByLayer
 62
    0
370
   -1
100
AcDbLine
 10
127.014
 20
49.5847
 11
126.46
 21
49.0305
  0
LINE
  5
32B
100
AcDbEntity
  8
0
  6
ByLayer
 62
    0
370
   -1
100
AcDbLine
 10
126.46
 20
49.0305
 11
126.103
 21
48.3348
  0
LINE
  5
32C
100
AcDbEntity
  8
0
  6
ByLayer
 62
    0
370
   -1
100
AcDbLine
 10
126.103
 20
48.3348
 11
125.983
 21
47.5601
  0
LINE
  5
32D
100
AcDbEntity
  8
0
  6
ByLayer
 62
    0
370
   -1
100
AcDbLine
 10
125.983
 20
47.5601
 11
126.103
 21
46.7886
  0
LINE
  5
32E
100
AcDbEntity
  8
0
  6
ByLayer
 62
    0
370
   -1
100
AcDbLine
 10
126.103
 20
46.7886
 11
126.46
 21
46.0911
  0
LINE
  5
32F
100
AcDbEntity
  8
0
  6
ByLayer
 62
    0
370
   -1
100
AcDbLine
 10
126.46
 20
46.0911
 11
127.014
 21
45.5387
  0
LINE
  5
330
100
AcDbEntity
  8
0
  6
ByLayer
 62
    0
370
   -1
100
AcDbLine
 10
127.014
 20
45.5387
 11
127.71
 21
45.1831
  0
LINE
  5
331
100
AcDbEntity
  8
0
  6
ByLayer
 62
    0
370
   -1
100
AcDbLine
 10
127.71
 20
45.1831
 11
128.483
 21
45.0603
  0
LINE
  5
332
100
AcDbEntity
  8
0
  6
ByLayer
 62
    0
370
   -1
100
AcDbLine
 10
128.483
 20
45.0603
 11
129.256
 21
45.1831
  0
LINE
  5
333
100
AcDbEntity
  8
0
  6
ByLayer
 62
    0
370
   -1
100
AcDbLine
 10
129.256
 20
45.1831
 11
129.952
 21
45.5387
  0
LINE
  5
334
100
AcDbEntity
  8
0
  6
ByLayer
 62
    0
370
   -1
100
AcDbLine
 10
129.952
 20
45.5387
 11
130.506
 21
46.0911
  0
LINE
  5
335
100
AcDbEntity
  8
0
  6
ByLayer
 62
    0
370
   -1
100
AcDbLine
 10
130.506
 20
46.0911
 11
130.86
 21
46.7886
  0
LINE
  5
336
100
AcDbEntity
  8
0
  6
ByLayer
 62
    0
370
   -1
100
AcDbLine
 10
130.86
 20
46.7886
 11
130.984
 21
47.5601
  0
LINE
  5
337
100
AcDbEntity
  8
0
  6
ByLayer
 62
    0
370
   -1
100
AcDbLine
 10
130.984
 20
47.5601
 11
130.86
 21
48.3348
  0
LINE
  5
338
100
AcDbEntity
  8
0
  6
ByLayer
 62
    0
370
   -1
100
AcDbLine
 10
130.86
 20
48.3348
 11
130.506
 21
49.0305
  0
LINE
  5
339
100
AcDbEntity
  8
0
  6
ByLayer
 62
    0
370
   -1
100
AcDbLine
 10
130.506
 20
49.0305
 11
129.952
 21
49.5847
  0
LINE
  5
33A
100
AcDbEntity
  8
0
  6
ByLayer
 62
    0
370
   -1
100
AcDbLine
 10
129.952
 20
49.5847
 11
129.256
 21
49.9389
  0
LINE
  5
33B
100
AcDbEntity
  8
0
  6
ByLayer
 62
    0
370
   -1
100
AcDbLine
 10
129.256
 20
49.9389
 11
128.483
 21
50.0599
  0
LINE
  5
33C
100
AcDbEntity
  8
0
  6
ByLayer
 62
    0
370
   -1
100
AcDbLine
 10
128.483
 20
50.0599
 11
127.71
 21
49.9389
  0
LINE
  5
33D
100
AcDbEntity
  8
0
  6
ByLayer
 62
    0
370
   -1
100
AcDbLine
 10
7.19473
 20
73.61199999999999
 11
7.19473
 21
72.61150000000001
  0
LINE
  5
33E
100
AcDbEntity
  8
0
  6
ByLayer
 62
    0
370
   -1
100
AcDbLine
 10
7.19473
 20
72.61150000000001
 11
6.39547
 21
72.61150000000001
  0
LINE
  5
33F
100
AcDbEntity
  8
0
  6
ByLayer
 62
    0
370
   -1
100
AcDbLine
 10
6.39547
 20
72.61150000000001
 11
6.39547
 21
69.5124
  0
LINE
  5
340
100
AcDbEntity
  8
0
  6
ByLayer
 62
    0
370
   -1
100
AcDbLine
 10
6.39547
 20
69.5124
 11
7.19473
 21
69.5124
  0
LINE
  5
341
100
AcDbEntity
  8
0
  6
ByLayer
 62
    0
370
   -1
100
AcDbLine
 10
7.19473
 20
69.5124
 11
7.19473
 21
63.7124
  0
LINE
  5
342
100
AcDbEntity
  8
0
  6
ByLayer
 62
    0
370
   -1
100
AcDbLine
 10
7.19473
 20
63.7124
 11
6.39547
 21
63.7124
  0
LINE
  5
343
100
AcDbEntity
  8
0
  6
ByLayer
 62
    0
370
   -1
100
AcDbLine
 10
6.39547
 20
63.7124
 11
6.39547
 21
60.6118
  0
LINE
  5
344
100
AcDbEntity
  8
0
  6
ByLayer
 62
    0
370
   -1
100
AcDbLine
 10
6.39547
 20
60.6118
 11
7.19473
 21
60.6118
  0
LINE
  5
345
100
AcDbEntity
  8
0
  6
ByLayer
 62
    0
370
   -1
100
AcDbLine
 10
7.19473
 20
60.6118
 11
7.19473
 21
59.6124
  0
LINE
  5
346
100
AcDbEntity
  8
0
  6
ByLayer
 62
    0
370
   -1
100
AcDbLine
 10
7.19473
 20
59.6124
 11
21.1956
 21
59.6124
  0
LINE
  5
347
100
AcDbEntity
  8
0
  6
ByLayer
 62
    0
370
   -1
100
AcDbLine
 10
21.1956
 20
59.6124
 11
21.1956
 21
60.6118
  0
LINE
  5
348
100
AcDbEntity
  8
0
  6
ByLayer
 62
    0
370
   -1
100
AcDbLine
 10
21.1956
 20
60.6118
 11
21.9949
 21
60.6118
  0
LINE
  5
349
100
AcDbEntity
  8
0
  6
ByLayer
 62
    0
370
   -1
100
AcDbLine
 10
21.9949
 20
60.6118
 11
21.9949
 21
63.7124
  0
LINE
  5
34A
100
AcDbEntity
  8
0
  6
ByLayer
 62
    0
370
   -1
100
AcDbLine
 10
21.9949
 20
63.7124
 11
21.1956
 21
63.7124
  0
LINE
  5
34B
100
AcDbEntity
  8
0
  6
ByLayer
 62
    0
370
   -1
100
AcDbLine
 10
21.1956
 20
63.7124
 11
21.1956
 21
69.5124
  0
LINE
  5
34C
100
AcDbEntity
  8
0
  6
ByLayer
 62
    0
370
   -1
100
AcDbLine
 10
21.1956
 20
69.5124
 11
21.9949
 21
69.5124
  0
LINE
  5
34D
100
AcDbEntity
  8
0
  6
ByLayer
 62
    0
370
   -1
100
AcDbLine
 10
21.9949
 20
69.5124
 11
21.9949
 21
72.61150000000001
  0
LINE
  5
34E
100
AcDbEntity
  8
0
  6
ByLayer
 62
    0
370
   -1
100
AcDbLine
 10
21.9949
 20
72.61150000000001
 11
21.1956
 21
72.61150000000001
  0
LINE
  5
34F
100
AcDbEntity
  8
0
  6
ByLayer
 62
    0
370
   -1
100
AcDbLine
 10
21.1956
 20
72.61150000000001
 11
21.1956
 21
73.61199999999999
  0
LINE
  5
350
100
AcDbEntity
  8
0
  6
ByLayer
 62
    0
370
   -1
100
AcDbLine
 10
21.1956
 20
73.61199999999999
 11
7.19473
 21
73.61199999999999
  0
LINE
  5
351
100
AcDbEntity
  8
0
  6
ByLayer
 62
    0
370
   -1
100
AcDbLine
 10
31.0059
 20
73.61199999999999
 11
31.0059
 21
72.61150000000001
  0
LINE
  5
352
100
AcDbEntity
  8
0
  6
ByLayer
 62
    0
370
   -1
100
AcDbLine
 10
31.0059
 20
72.61150000000001
 11
30.2066
 21
72.61150000000001
  0
LINE
  5
353
100
AcDbEntity
  8
0
  6
ByLayer
 62
    0
370
   -1
100
AcDbLine
 10
30.2066
 20
72.61150000000001
 11
30.2066
 21
69.5124
  0
LINE
  5
354
100
AcDbEntity
  8
0
  6
ByLayer
 62
    0
370
   -1
100
AcDbLine
 10
30.2066
 20
69.5124
 11
31.0059
 21
69.5124
  0
LINE
  5
355
100
AcDbEntity
  8
0
  6
ByLayer
 62
    0
370
   -1
100
AcDbLine
 10
31.0059
 20
69.5124
 11
31.0059
 21
63.7124
  0
LINE
  5
356
100
AcDbEntity
  8
0
  6
ByLayer
 62
    0
370
   -1
100
AcDbLine
 10
31.0059
 20
63.7124
 11
30.2066
 21
63.7124
  0
LINE
  5
357
100
AcDbEntity
  8
0
  6
ByLayer
 62
    0
370
   -1
100
AcDbLine
 10
30.2066
 20
63.7124
 11
30.2066
 21
60.6118
  0
LINE
  5
358
100
AcDbEntity
  8
0
  6
ByLayer
 62
    0
370
   -1
100
AcDbLine
 10
30.2066
 20
60.6118
 11
31.0059
 21
60.6118
  0
LINE
  5
359
100
AcDbEntity
  8
0
  6
ByLayer
 62
    0
370
   -1
100
AcDbLine
 10
31.0059
 20
60.6118
 11
31.0059
 21
59.6124
  0
LINE
  5
35A
100
AcDbEntity
  8
0
  6
ByLayer
 62
    0
370
   -1
100
AcDbLine
 10
31.0059
 20
59.6124
 11
45.0067
 21
59.6124
  0
LINE
  5
35B
100
AcDbEntity
  8
0
  6
ByLayer
 62
    0
370
   -1
100
AcDbLine
 10
45.0067
 20
59.6124
 11
45.0067
 21
60.6118
  0
LINE
  5
35C
100
AcDbEntity
  8
0
  6
ByLayer
 62
    0
370
   -1
100
AcDbLine
 10
45.0067
 20
60.6118
 11
45.8075
 21
60.6118
  0
LINE
  5
35D
100
AcDbEntity
  8
0
  6
ByLayer
 62
    0
370
   -1
100
AcDbLine
 10
45.8075
 20
60.6118
 11
45.8075
 21
63.7124
  0
LINE
  5
35E
100
AcDbEntity
  8
0
  6
ByLayer
 62
    0
370
   -1
100
AcDbLine
 10
45.8075
 20
63.7124
 11
45.0067
 21
63.7124
  0
LINE
  5
35F
100
AcDbEntity
  8
0
  6
ByLayer
 62
    0
370
   -1
100
AcDbLine
 10
45.0067
 20
63.7124
 11
45.0067
 21
69.5124
  0
LINE
  5
360
100
AcDbEntity
  8
0
  6
ByLayer
 62
    0
370
   -1
100
AcDbLine
 10
45.0067
 20
69.5124
 11
45.8075
 21
69.5124
  0
LINE
  5
361
100
AcDbEntity
  8
0
  6
ByLayer
 62
    0
370
   -1
100
AcDbLine
 10
45.8075
 20
69.5124
 11
45.8075
 21
72.61150000000001
  0
LINE
  5
362
100
AcDbEntity
  8
0
  6
ByLayer
 62
    0
370
   -1
100
AcDbLine
 10
45.8075
 20
72.61150000000001
 11
45.0067
 21
72.61150000000001
  0
LINE
  5
363
100
AcDbEntity
  8
0
  6
ByLayer
 62
    0
370
   -1
100
AcDbLine
 10
45.0067
 20
72.61150000000001
 11
45.0067
 21
73.61199999999999
  0
LINE
  5
364
100
AcDbEntity
  8
0
  6
ByLayer
 62
    0
370
   -1
100
AcDbLine
 10
45.0067
 20
73.61199999999999
 11
31.0059
 21
73.61199999999999
  0
LINE
  5
365
100
AcDbEntity
  8
0
  6
ByLayer
 62
    0
370
   -1
100
AcDbLine
 10
50.0574
 20
73.61199999999999
 11
50.0574
 21
72.61150000000001
  0
LINE
  5
366
100
AcDbEntity
  8
0
  6
ByLayer
 62
    0
370
   -1
100
AcDbLine
 10
50.0574
 20
72.61150000000001
 11
49.2566
 21
72.61150000000001
  0
LINE
  5
367
100
AcDbEntity
  8
0
  6
ByLayer
 62
    0
370
   -1
100
AcDbLine
 10
49.2566
 20
72.61150000000001
 11
49.2566
 21
69.5124
  0
LINE
  5
368
100
AcDbEntity
  8
0
  6
ByLayer
 62
    0
370
   -1
100
AcDbLine
 10
49.2566
 20
69.5124
 11
50.0574
 21
69.5124
  0
LINE
  5
369
100
AcDbEntity
  8
0
  6
ByLayer
 62
    0
370
   -1
100
AcDbLine
 10
50.0574
 20
69.5124
 11
50.0574
 21
63.7124
  0
LINE
  5
36A
100
AcDbEntity
  8
0
  6
ByLayer
 62
    0
370
   -1
100
AcDbLine
 10
50.0574
 20
63.7124
 11
49.2566
 21
63.7124
  0
LINE
  5
36B
100
AcDbEntity
  8
0
  6
ByLayer
 62
    0
370
   -1
100
AcDbLine
 10
49.2566
 20
63.7124
 11
49.2566
 21
60.6118
  0
LINE
  5
36C
100
AcDbEntity
  8
0
  6
ByLayer
 62
    0
370
   -1
100
AcDbLine
 10
49.2566
 20
60.6118
 11
50.0574
 21
60.6118
  0
LINE
  5
36D
100
AcDbEntity
  8
0
  6
ByLayer
 62
    0
370
   -1
100
AcDbLine
 10
50.0574
 20
60.6118
 11
50.0574
 21
59.6124
  0
LINE
  5
36E
100
AcDbEntity
  8
0
  6
ByLayer
 62
    0
370
   -1
100
AcDbLine
 10
50.0574
 20
59.6124
 11
64.05670000000001
 21
59.6124
  0
LINE
  5
36F
100
AcDbEntity
  8
0
  6
ByLayer
 62
    0
370
   -1
100
AcDbLine
 10
64.05670000000001
 20
59.6124
 11
64.05670000000001
 21
60.6118
  0
LINE
  5
370
100
AcDbEntity
  8
0
  6
ByLayer
 62
    0
370
   -1
100
AcDbLine
 10
64.05670000000001
 20
60.6118
 11
64.8575
 21
60.6118
  0
LINE
  5
371
100
AcDbEntity
  8
0
  6
ByLayer
 62
    0
370
   -1
100
AcDbLine
 10
64.8575
 20
60.6118
 11
64.8575
 21
63.7124
  0
LINE
  5
372
100
AcDbEntity
  8
0
  6
ByLayer
 62
    0
370
   -1
100
AcDbLine
 10
64.8575
 20
63.7124
 11
64.05670000000001
 21
63.7124
  0
LINE
  5
373
100
AcDbEntity
  8
0
  6
ByLayer
 62
    0
370
   -1
100
AcDbLine
 10
64.05670000000001
 20
63.7124
 11
64.05670000000001
 21
69.5124
  0
LINE
  5
374
100
AcDbEntity
  8
0
  6
ByLayer
 62
    0
370
   -1
100
AcDbLine
 10
64.05670000000001
 20
69.5124
 11
64.8575
 21
69.5124
  0
LINE
  5
375
100
AcDbEntity
  8
0
  6
ByLayer
 62
    0
370
   -1
100
AcDbLine
 10
64.8575
 20
69.5124
 11
64.8575
 21
72.61150000000001
  0
LINE
  5
376
100
AcDbEntity
  8
0
  6
ByLayer
 62
    0
370
   -1
100
AcDbLine
 10
64.8575
 20
72.61150000000001
 11
64.05670000000001
 21
72.61150000000001
  0
LINE
  5
377
100
AcDbEntity
  8
0
  6
ByLayer
 62
    0
370
   -1
100
AcDbLine
 10
64.05670000000001
 20
72.61150000000001
 11
64.05670000000001
 21
73.61199999999999
  0
LINE
  5
378
100
AcDbEntity
  8
0
  6
ByLayer
 62
    0
370
   -1
100
AcDbLine
 10
64.05670000000001
 20
73.61199999999999
 11
50.0574
 21
73.61199999999999
  0
LINE
  5
379
100
AcDbEntity
  8
0
  6
ByLayer
 62
    0
370
   -1
100
AcDbLine
 10
69.1074
 20
73.61199999999999
 11
69.1074
 21
72.61150000000001
  0
LINE
  5
37A
100
AcDbEntity
  8
0
  6
ByLayer
 62
    0
370
   -1
100
AcDbLine
 10
69.1074
 20
72.61150000000001
 11
68.3066
 21
72.61150000000001
  0
LINE
  5
37B
100
AcDbEntity
  8
0
  6
ByLayer
 62
    0
370
   -1
100
AcDbLine
 10
68.3066
 20
72.61150000000001
 11
68.3066
 21
69.5124
  0
LINE
  5
37C
100
AcDbEntity
  8
0
  6
ByLayer
 62
    0
370
   -1
100
AcDbLine
 10
68.3066
 20
69.5124
 11
69.1074
 21
69.5124
  0
LINE
  5
37D
100
AcDbEntity
  8
0
  6
ByLayer
 62
    0
370
   -1
100
AcDbLine
 10
69.1074
 20
69.5124
 11
69.1074
 21
63.7124
  0
LINE
  5
37E
100
AcDbEntity
  8
0
  6
ByLayer
 62
    0
370
   -1
100
AcDbLine
 10
69.1074
 20
63.7124
 11
68.3066
 21
63.7124
  0
LINE
  5
37F
100
AcDbEntity
  8
0
  6
ByLayer
 62
    0
370
   -1
100
AcDbLine
 10
68.3066
 20
63.7124
 11
68.3066
 21
60.6118
  0
LINE
  5
380
100
AcDbEntity
  8
0
  6
ByLayer
 62
    0
370
   -1
100
AcDbLine
 10
68.3066
 20
60.6118
 11
69.1074
 21
60.6118
  0
LINE
  5
381
100
AcDbEntity
  8
0
  6
ByLayer
 62
    0
370
   -1
100
AcDbLine
 10
69.1074
 20
60.6118
 11
69.1074
 21
59.6124
  0
LINE
  5
382
100
AcDbEntity
  8
0
  6
ByLayer
 62
    0
370
   -1
100
AcDbLine
 10
69.1074
 20
59.6124
 11
83.1067
 21
59.6124
  0
LINE
  5
383
100
AcDbEntity
  8
0
  6
ByLayer
 62
    0
370
   -1
100
AcDbLine
 10
83.1067
 20
59.6124
 11
83.1067
 21
60.6118
  0
LINE
  5
384
100
AcDbEntity
  8
0
  6
ByLayer
 62
    0
370
   -1
100
AcDbLine
 10
83.1067
 20
60.6118
 11
83.9075
 21
60.6118
  0
LINE
  5
385
100
AcDbEntity
  8
0
  6
ByLayer
 62
    0
370
   -1
100
AcDbLine
 10
83.9075
 20
60.6118
 11
83.9075
 21
63.7124
  0
LINE
  5
386
100
AcDbEntity
  8
0
  6
ByLayer
 62
    0
370
   -1
100
AcDbLine
 10
83.9075
 20
63.7124
 11
83.1067
 21
63.7124
  0
LINE
  5
387
100
AcDbEntity
  8
0
  6
ByLayer
 62
    0
370
   -1
100
AcDbLine
 10
83.1067
 20
63.7124
 11
83.1067
 21
69.5124
  0
LINE
  5
388
100
AcDbEntity
  8
0
  6
ByLayer
 62
    0
370
   -1
100
AcDbLine
 10
83.1067
 20
69.5124
 11
83.9075
 21
69.5124
  0
LINE
  5
389
100
AcDbEntity
  8
0
  6
ByLayer
 62
    0
370
   -1
100
AcDbLine
 10
83.9075
 20
69.5124
 11
83.9075
 21
72.61150000000001
  0
LINE
  5
38A
100
AcDbEntity
  8
0
  6
ByLayer
 62
    0
370
   -1
100
AcDbLine
 10
83.9075
 20
72.61150000000001
 11
83.1067
 21
72.61150000000001
  0
LINE
  5
38B
100
AcDbEntity
  8
0
  6
ByLayer
 62
    0
370
   -1
100
AcDbLine
 10
83.1067
 20
72.61150000000001
 11
83.1067
 21
73.61199999999999
  0
LINE
  5
38C
100
AcDbEntity
  8
0
  6
ByLayer
 62
    0
370
   -1
100
AcDbLine
 10
83.1067
 20
73.61199999999999
 11
69.1074
 21
73.61199999999999
  0
LINE
  5
38D
100
AcDbEntity
  8
0
  6
ByLayer
 62
    0
370
   -1
100
AcDbLine
 10
88.1574
 20
73.61199999999999
 11
88.1574
 21
72.61150000000001
  0
LINE
  5
38E
100
AcDbEntity
  8
0
  6
ByLayer
 62
    0
370
   -1
100
AcDbLine
 10
88.1574
 20
72.61150000000001
 11
87.3566
 21
72.61150000000001
  0
LINE
  5
38F
100
AcDbEntity
  8
0
  6
ByLayer
 62
    0
370
   -1
100
AcDbLine
 10
87.3566
 20
72.61150000000001
 11
87.3566
 21
69.5124
  0
LINE
  5
390
100
AcDbEntity
  8
0
  6
ByLayer
 62
    0
370
   -1
100
AcDbLine
 10
87.3566
 20
69.5124
 11
88.1574
 21
69.5124
  0
LINE
  5
391
100
AcDbEntity
  8
0
  6
ByLayer
 62
    0
370
   -1
100
AcDbLine
 10
88.1574
 20
69.5124
 11
88.1574
 21
63.7124
  0
LINE
  5
392
100
AcDbEntity
  8
0
  6
ByLayer
 62
    0
370
   -1
100
AcDbLine
 10
88.1574
 20
63.7124
 11
87.3566
 21
63.7124
  0
LINE
  5
393
100
AcDbEntity
  8
0
  6
ByLayer
 62
    0
370
   -1
100
AcDbLine
 10
87.3566
 20
63.7124
 11
87.3566
 21
60.6118
  0
LINE
  5
394
100
AcDbEntity
  8
0
  6
ByLayer
 62
    0
370
   -1
100
AcDbLine
 10
87.3566
 20
60.6118
 11
88.1574
 21
60.6118
  0
LINE
  5
395
100
AcDbEntity
  8
0
  6
ByLayer
 62
    0
370
   -1
100
AcDbLine
 10
88.1574
 20
60.6118
 11
88.1574
 21
59.6124
  0
LINE
  5
396
100
AcDbEntity
  8
0
  6
ByLayer
 62
    0
370
   -1
100
AcDbLine
 10
88.1574
 20
59.6124
 11
102.157
 21
59.6124
  0
LINE
  5
397
100
AcDbEntity
  8
0
  6
ByLayer
 62
    0
370
   -1
100
AcDbLine
 10
102.157
 20
59.6124
 11
102.157
 21
60.6118
  0
LINE
  5
398
100
AcDbEntity
  8
0
  6
ByLayer
 62
    0
370
   -1
100
AcDbLine
 10
102.157
 20
60.6118
 11
102.956
 21
60.6118
  0
LINE
  5
399
100
AcDbEntity
  8
0
  6
ByLayer
 62
    0
370
   -1
100
AcDbLine
 10
102.956
 20
60.6118
 11
102.956
 21
63.7124
  0
LINE
  5
39A
100
AcDbEntity
  8
0
  6
ByLayer
 62
    0
370
   -1
100
AcDbLine
 10
102.956
 20
63.7124
 11
102.157
 21
63.7124
  0
LINE
  5
39B
100
AcDbEntity
  8
0
  6
ByLayer
 62
    0
370
   -1
100
AcDbLine
 10
102.157
 20
63.7124
 11
102.157
 21
69.5124
  0
LINE
  5
39C
100
AcDbEntity
  8
0
  6
ByLayer
 62
    0
370
   -1
100
AcDbLine
 10
102.157
 20
69.5124
 11
102.956
 21
69.5124
  0
LINE
  5
39D
100
AcDbEntity
  8
0
  6
ByLayer
 62
    0
370
   -1
100
AcDbLine
 10
102.956
 20
69.5124
 11
102.956
 21
72.61150000000001
  0
LINE
  5
39E
100
AcDbEntity
  8
0
  6
ByLayer
 62
    0
370
   -1
100
AcDbLine
 10
102.956
 20
72.61150000000001
 11
102.157
 21
72.61150000000001
  0
LINE
  5
39F
100
AcDbEntity
  8
0
  6
ByLayer
 62
    0
370
   -1
100
AcDbLine
 10
102.157
 20
72.61150000000001
 11
102.157
 21
73.61199999999999
  0
LINE
  5
3A0
100
AcDbEntity
  8
0
  6
ByLayer
 62
    0
370
   -1
100
AcDbLine
 10
102.157
 20
73.61199999999999
 11
88.1574
 21
73.61199999999999
  0
LINE
  5
3A1
100
AcDbEntity
  8
0
  6
ByLayer
 62
    0
370
   -1
100
AcDbLine
 10
107.206
 20
73.61199999999999
 11
107.206
 21
72.61150000000001
  0
LINE
  5
3A2
100
AcDbEntity
  8
0
  6
ByLayer
 62
    0
370
   -1
100
AcDbLine
 10
107.206
 20
72.61150000000001
 11
106.407
 21
72.61150000000001
  0
LINE
  5
3A3
100
AcDbEntity
  8
0
  6
ByLayer
 62
    0
370
   -1
100
AcDbLine
 10
106.407
 20
72.61150000000001
 11
106.407
 21
69.5124
  0
LINE
  5
3A4
100
AcDbEntity
  8
0
  6
ByLayer
 62
    0
370
   -1
100
AcDbLine
 10
106.407
 20
69.5124
 11
107.206
 21
69.5124
  0
LINE
  5
3A5
100
AcDbEntity
  8
0
  6
ByLayer
 62
    0
370
   -1
100
AcDbLine
 10
107.206
 20
69.5124
 11
107.206
 21
63.7124
  0
LINE
  5
3A6
100
AcDbEntity
  8
0
  6
ByLayer
 62
    0
370
   -1
100
AcDbLine
 10
107.206
 20
63.7124
 11
106.407
 21
63.7124
  0
LINE
  5
3A7
100
AcDbEntity
  8
0
  6
ByLayer
 62
    0
370
   -1
100
AcDbLine
 10
106.407
 20
63.7124
 11
106.407
 21
60.6118
  0
LINE
  5
3A8
100
AcDbEntity
  8
0
  6
ByLayer
 62
    0
370
   -1
100
AcDbLine
 10
106.407
 20
60.6118
 11
107.206
 21
60.6118
  0
LINE
  5
3A9
100
AcDbEntity
  8
0
  6
ByLayer
 62
    0
370
   -1
100
AcDbLine
 10
107.206
 20
60.6118
 11
107.206
 21
59.6124
  0
LINE
  5
3AA
100
AcDbEntity
  8
0
  6
ByLayer
 62
    0
370
   -1
100
AcDbLine
 10
107.206
 20
59.6124
 11
121.207
 21
59.6124
  0
LINE
  5
3AB
100
AcDbEntity
  8
0
  6
ByLayer
 62
    0
370
   -1
100
AcDbLine
 10
121.207
 20
59.6124
 11
121.207
 21
60.6118
  0
LINE
  5
3AC
100
AcDbEntity
  8
0
  6
ByLayer
 62
    0
370
   -1
100
AcDbLine
 10
121.207
 20
60.6118
 11
122.007
 21
60.6118
  0
LINE
  5
3AD
100
AcDbEntity
  8
0
  6
ByLayer
 62
    0
370
   -1
100
AcDbLine
 10
122.007
 20
60.6118
 11
122.007
 21
63.7124
  0
LINE
  5
3AE
100
AcDbEntity
  8
0
  6
ByLayer
 62
    0
370
   -1
100
AcDbLine
 10
122.007
 20
63.7124
 11
121.207
 21
63.7124
  0
LINE
  5
3AF
100
AcDbEntity
  8
0
  6
ByLayer
 62
    0
370
   -1
100
AcDbLine
 10
121.207
 20
63.7124
 11
121.207
 21
69.5124
  0
LINE
  5
3B0
100
AcDbEntity
  8
0
  6
ByLayer
 62
    0
370
   -1
100
AcDbLine
 10
121.207
 20
69.5124
 11
122.007
 21
69.5124
  0
LINE
  5
3B1
100
AcDbEntity
  8
0
  6
ByLayer
 62
    0
370
   -1
100
AcDbLine
 10
122.007
 20
69.5124
 11
122.007
 21
72.61150000000001
  0
LINE
  5
3B2
100
AcDbEntity
  8
0
  6
ByLayer
 62
    0
370
   -1
100
AcDbLine
 10
122.007
 20
72.61150000000001
 11
121.207
 21
72.61150000000001
  0
LINE
  5
3B3
100
AcDbEntity
  8
0
  6
ByLayer
 62
    0
370
   -1
100
AcDbLine
 10
121.207
 20
72.61150000000001
 11
121.207
 21
73.61199999999999
  0
LINE
  5
3B4
100
AcDbEntity
  8
0
  6
ByLayer
 62
    0
370
   -1
100
AcDbLine
 10
121.207
 20
73.61199999999999
 11
107.206
 21
73.61199999999999
  0
LINE
  5
3B5
100
AcDbEntity
  8
0
  6
ByLayer
 62
    0
370
   -1
100
AcDbLine
 10
126.257
 20
73.61199999999999
 11
126.257
 21
72.61150000000001
  0
LINE
  5
3B6
100
AcDbEntity
  8
0
  6
ByLayer
 62
    0
370
   -1
100
AcDbLine
 10
126.257
 20
72.61150000000001
 11
125.457
 21
72.61150000000001
  0
LINE
  5
3B7
100
AcDbEntity
  8
0
  6
ByLayer
 62
    0
370
   -1
100
AcDbLine
 10
125.457
 20
72.61150000000001
 11
125.457
 21
69.5124
  0
LINE
  5
3B8
100
AcDbEntity
  8
0
  6
ByLayer
 62
    0
370
   -1
100
AcDbLine
 10
125.457
 20
69.5124
 11
126.257
 21
69.5124
  0
LINE
  5
3B9
100
AcDbEntity
  8
0
  6
ByLayer
 62
    0
370
   -1
100
AcDbLine
 10
126.257
 20
69.5124
 11
126.257
 21
63.7124
  0
LINE
  5
3BA
100
AcDbEntity
  8
0
  6
ByLayer
 62
    0
370
   -1
100
AcDbLine
 10
126.257
 20
63.7124
 11
125.457
 21
63.7124
  0
LINE
  5
3BB
100
AcDbEntity
  8
0
  6
ByLayer
 62
    0
370
   -1
100
AcDbLine
 10
125.457
 20
63.7124
 11
125.457
 21
60.6118
  0
LINE
  5
3BC
100
AcDbEntity
  8
0
  6
ByLayer
 62
    0
370
   -1
100
AcDbLine
 10
125.457
 20
60.6118
 11
126.257
 21
60.6118
  0
LINE
  5
3BD
100
AcDbEntity
  8
0
  6
ByLayer
 62
    0
370
   -1
100
AcDbLine
 10
126.257
 20
60.6118
 11
126.257
 21
59.6124
  0
LINE
  5
3BE
100
AcDbEntity
  8
0
  6
ByLayer
 62
    0
370
   -1
100
AcDbLine
 10
126.257
 20
59.6124
 11
140.257
 21
59.6124
  0
LINE
  5
3BF
100
AcDbEntity
  8
0
  6
ByLayer
 62
    0
370
   -1
100
AcDbLine
 10
140.257
 20
59.6124
 11
140.257
 21
60.6118
  0
LINE
  5
3C0
100
AcDbEntity
  8
0
  6
ByLayer
 62
    0
370
   -1
100
AcDbLine
 10
140.257
 20
60.6118
 11
141.056
 21
60.6118
  0
LINE
  5
3C1
100
AcDbEntity
  8
0
  6
ByLayer
 62
    0
370
   -1
100
AcDbLine
 10
141.056
 20
60.6118
 11
141.056
 21
63.7124
  0
LINE
  5
3C2
100
AcDbEntity
  8
0
  6
ByLayer
 62
    0
370
   -1
100
AcDbLine
 10
141.056
 20
63.7124
 11
140.257
 21
63.7124
  0
LINE
  5
3C3
100
AcDbEntity
  8
0
  6
ByLayer
 62
    0
370
   -1
100
AcDbLine
 10
140.257
 20
63.7124
 11
140.257
 21
69.5124
  0
LINE
  5
3C4
100
AcDbEntity
  8
0
  6
ByLayer
 62
    0
370
   -1
100
AcDbLine
 10
140.257
 20
69.5124
 11
141.056
 21
69.5124
  0
LINE
  5
3C5
100
AcDbEntity
  8
0
  6
ByLayer
 62
    0
370
   -1
100
AcDbLine
 10
141.056
 20
69.5124
 11
141.056
 21
72.61150000000001
  0
LINE
  5
3C6
100
AcDbEntity
  8
0
  6
ByLayer
 62
    0
370
   -1
100
AcDbLine
 10
141.056
 20
72.61150000000001
 11
140.257
 21
72.61150000000001
  0
LINE
  5
3C7
100
AcDbEntity
  8
0
  6
ByLayer
 62
    0
370
   -1
100
AcDbLine
 10
140.257
 20
72.61150000000001
 11
140.257
 21
73.61199999999999
  0
LINE
  5
3C8
100
AcDbEntity
  8
0
  6
ByLayer
 62
    0
370
   -1
100
AcDbLine
 10
140.257
 20
73.61199999999999
 11
126.257
 21
73.61199999999999
  0
LINE
  5
3C9
100
AcDbEntity
  8
0
  6
ByLayer
 62
    0
370
   -1
100
AcDbLine
 10
145.306
 20
73.61199999999999
 11
145.306
 21
72.61150000000001
  0
LINE
  5
3CA
100
AcDbEntity
  8
0
  6
ByLayer
 62
    0
370
   -1
100
AcDbLine
 10
145.306
 20
72.61150000000001
 11
144.507
 21
72.61150000000001
  0
LINE
  5
3CB
100
AcDbEntity
  8
0
  6
ByLayer
 62
    0
370
   -1
100
AcDbLine
 10
144.507
 20
72.61150000000001
 11
144.507
 21
69.5124
  0
LINE
  5
3CC
100
AcDbEntity
  8
0
  6
ByLayer
 62
    0
370
   -1
100
AcDbLine
 10
144.507
 20
69.5124
 11
145.306
 21
69.5124
  0
LINE
  5
3CD
100
AcDbEntity
  8
0
  6
ByLayer
 62
    0
370
   -1
100
AcDbLine
 10
145.306
 20
69.5124
 11
145.306
 21
63.7124
  0
LINE
  5
3CE
100
AcDbEntity
  8
0
  6
ByLayer
 62
    0
370
   -1
100
AcDbLine
 10
145.306
 20
63.7124
 11
144.507
 21
63.7124
  0
LINE
  5
3CF
100
AcDbEntity
  8
0
  6
ByLayer
 62
    0
370
   -1
100
AcDbLine
 10
144.507
 20
63.7124
 11
144.507
 21
60.6118
  0
LINE
  5
3D0
100
AcDbEntity
  8
0
  6
ByLayer
 62
    0
370
   -1
100
AcDbLine
 10
144.507
 20
60.6118
 11
145.306
 21
60.6118
  0
LINE
  5
3D1
100
AcDbEntity
  8
0
  6
ByLayer
 62
    0
370
   -1
100
AcDbLine
 10
145.306
 20
60.6118
 11
145.306
 21
59.6124
  0
LINE
  5
3D2
100
AcDbEntity
  8
0
  6
ByLayer
 62
    0
370
   -1
100
AcDbLine
 10
145.306
 20
59.6124
 11
159.307
 21
59.6124
  0
LINE
  5
3D3
100
AcDbEntity
  8
0
  6
ByLayer
 62
    0
370
   -1
100
AcDbLine
 10
159.307
 20
59.6124
 11
159.307
 21
60.6118
  0
LINE
  5
3D4
100
AcDbEntity
  8
0
  6
ByLayer
 62
    0
370
   -1
100
AcDbLine
 10
159.307
 20
60.6118
 11
160.107
 21
60.6118
  0
LINE
  5
3D5
100
AcDbEntity
  8
0
  6
ByLayer
 62
    0
370
   -1
100
AcDbLine
 10
160.107
 20
60.6118
 11
160.107
 21
63.7124
  0
LINE
  5
3D6
100
AcDbEntity
  8
0
  6
ByLayer
 62
    0
370
   -1
100
AcDbLine
 10
160.107
 20
63.7124
 11
159.307
 21
63.7124
  0
LINE
  5
3D7
100
AcDbEntity
  8
0
  6
ByLayer
 62
    0
370
   -1
100
AcDbLine
 10
159.307
 20
63.7124
 11
159.307
 21
69.5124
  0
LINE
  5
3D8
100
AcDbEntity
  8
0
  6
ByLayer
 62
    0
370
   -1
100
AcDbLine
 10
159.307
 20
69.5124
 11
160.107
 21
69.5124
  0
LINE
  5
3D9
100
AcDbEntity
  8
0
  6
ByLayer
 62
    0
370
   -1
100
AcDbLine
 10
160.107
 20
69.5124
 11
160.107
 21
72.61150000000001
  0
LINE
  5
3DA
100
AcDbEntity
  8
0
  6
ByLayer
 62
    0
370
   -1
100
AcDbLine
 10
160.107
 20
72.61150000000001
 11
159.307
 21
72.61150000000001
  0
LINE
  5
3DB
100
AcDbEntity
  8
0
  6
ByLayer
 62
    0
370
   -1
100
AcDbLine
 10
159.307
 20
72.61150000000001
 11
159.307
 21
73.61199999999999
  0
LINE
  5
3DC
100
AcDbEntity
  8
0
  6
ByLayer
 62
    0
370
   -1
100
AcDbLine
 10
159.307
 20
73.61199999999999
 11
145.306
 21
73.61199999999999
  0
LINE
  5
3DD
100
AcDbEntity
  8
0
  6
ByLayer
 62
    0
370
   -1
100
AcDbLine
 10
164.357
 20
73.61199999999999
 11
164.357
 21
72.61150000000001
  0
LINE
  5
3DE
100
AcDbEntity
  8
0
  6
ByLayer
 62
    0
370
   -1
100
AcDbLine
 10
164.357
 20
72.61150000000001
 11
163.557
 21
72.61150000000001
  0
LINE
  5
3DF
100
AcDbEntity
  8
0
  6
ByLayer
 62
    0
370
   -1
100
AcDbLine
 10
163.557
 20
72.61150000000001
 11
163.557
 21
69.5124
  0
LINE
  5
3E0
100
AcDbEntity
  8
0
  6
ByLayer
 62
    0
370
   -1
100
AcDbLine
 10
163.557
 20
69.5124
 11
164.357
 21
69.5124
  0
LINE
  5
3E1
100
AcDbEntity
  8
0
  6
ByLayer
 62
    0
370
   -1
100
AcDbLine
 10
164.357
 20
69.5124
 11
164.357
 21
63.7124
  0
LINE
  5
3E2
100
AcDbEntity
  8
0
  6
ByLayer
 62
    0
370
   -1
100
AcDbLine
 10
164.357
 20
63.7124
 11
163.557
 21
63.7124
  0
LINE
  5
3E3
100
AcDbEntity
  8
0
  6
ByLayer
 62
    0
370
   -1
100
AcDbLine
 10
163.557
 20
63.7124
 11
163.557
 21
60.6118
  0
LINE
  5
3E4
100
AcDbEntity
  8
0
  6
ByLayer
 62
    0
370
   -1
100
AcDbLine
 10
163.557
 20
60.6118
 11
164.357
 21
60.6118
  0
LINE
  5
3E5
100
AcDbEntity
  8
0
  6
ByLayer
 62
    0
370
   -1
100
AcDbLine
 10
164.357
 20
60.6118
 11
164.357
 21
59.6124
  0
LINE
  5
3E6
100
AcDbEntity
  8
0
  6
ByLayer
 62
    0
370
   -1
100
AcDbLine
 10
164.357
 20
59.6124
 11
178.357
 21
59.6124
  0
LINE
  5
3E7
100
AcDbEntity
  8
0
  6
ByLayer
 62
    0
370
   -1
100
AcDbLine
 10
178.357
 20
59.6124
 11
178.357
 21
60.6118
  0
LINE
  5
3E8
100
AcDbEntity
  8
0
  6
ByLayer
 62
    0
370
   -1
100
AcDbLine
 10
178.357
 20
60.6118
 11
179.157
 21
60.6118
  0
LINE
  5
3E9
100
AcDbEntity
  8
0
  6
ByLayer
 62
    0
370
   -1
100
AcDbLine
 10
179.157
 20
60.6118
 11
179.157
 21
63.7124
  0
LINE
  5
3EA
100
AcDbEntity
  8
0
  6
ByLayer
 62
    0
370
   -1
100
AcDbLine
 10
179.157
 20
63.7124
 11
178.357
 21
63.7124
  0
LINE
  5
3EB
100
AcDbEntity
  8
0
  6
ByLayer
 62
    0
370
   -1
100
AcDbLine
 10
178.357
 20
63.7124
 11
178.357
 21
69.5124
  0
LINE
  5
3EC
100
AcDbEntity
  8
0
  6
ByLayer
 62
    0
370
   -1
100
AcDbLine
 10
178.357
 20
69.5124
 11
179.157
 21
69.5124
  0
LINE
  5
3ED
100
AcDbEntity
  8
0
  6
ByLayer
 62
    0
370
   -1
100
AcDbLine
 10
179.157
 20
69.5124
 11
179.157
 21
72.61150000000001
  0
LINE
  5
3EE
100
AcDbEntity
  8
0
  6
ByLayer
 62
    0
370
   -1
100
AcDbLine
 10
179.157
 20
72.61150000000001
 11
178.357
 21
72.61150000000001
  0
LINE
  5
3EF
100
AcDbEntity
  8
0
  6
ByLayer
 62
    0
370
   -1
100
AcDbLine
 10
178.357
 20
72.61150000000001
 11
178.357
 21
73.61199999999999
  0
LINE
  5
3F0
100
AcDbEntity
  8
0
  6
ByLayer
 62
    0
370
   -1
100
AcDbLine
 10
178.357
 20
73.61199999999999
 11
164.357
 21
73.61199999999999
  0
LINE
  5
3F1
100
AcDbEntity
  8
0
  6
ByLayer
 62
    0
370
   -1
100
AcDbLine
 10
183.407
 20
73.61199999999999
 11
183.407
 21
72.61150000000001
  0
LINE
  5
3F2
100
AcDbEntity
  8
0
  6
ByLayer
 62
    0
370
   -1
100
AcDbLine
 10
183.407
 20
72.61150000000001
 11
182.607
 21
72.61150000000001
  0
LINE
  5
3F3
100
AcDbEntity
  8
0
  6
ByLayer
 62
    0
370
   -1
100
AcDbLine
 10
182.607
 20
72.61150000000001
 11
182.607
 21
69.5124
  0
LINE
  5
3F4
100
AcDbEntity
  8
0
  6
ByLayer
 62
    0
370
   -1
100
AcDbLine
 10
182.607
 20
69.5124
 11
183.407
 21
69.5124
  0
LINE
  5
3F5
100
AcDbEntity
  8
0
  6
ByLayer
 62
    0
370
   -1
100
AcDbLine
 10
183.407
 20
69.5124
 11
183.407
 21
63.7124
  0
LINE
  5
3F6
100
AcDbEntity
  8
0
  6
ByLayer
 62
    0
370
   -1
100
AcDbLine
 10
183.407
 20
63.7124
 11
182.607
 21
63.7124
  0
LINE
  5
3F7
100
AcDbEntity
  8
0
  6
ByLayer
 62
    0
370
   -1
100
AcDbLine
 10
182.607
 20
63.7124
 11
182.607
 21
60.6118
  0
LINE
  5
3F8
100
AcDbEntity
  8
0
  6
ByLayer
 62
    0
370
   -1
100
AcDbLine
 10
182.607
 20
60.6118
 11
183.407
 21
60.6118
  0
LINE
  5
3F9
100
AcDbEntity
  8
0
  6
ByLayer
 62
    0
370
   -1
100
AcDbLine
 10
183.407
 20
60.6118
 11
183.407
 21
59.6124
  0
LINE
  5
3FA
100
AcDbEntity
  8
0
  6
ByLayer
 62
    0
370
   -1
100
AcDbLine
 10
183.407
 20
59.6124
 11
197.407
 21
59.6124
  0
LINE
  5
3FB
100
AcDbEntity
  8
0
  6
ByLayer
 62
    0
370
   -1
100
AcDbLine
 10
197.407
 20
59.6124
 11
197.407
 21
60.6118
  0
LINE
  5
3FC
100
AcDbEntity
  8
0
  6
ByLayer
 62
    0
370
   -1
100
AcDbLine
 10
197.407
 20
60.6118
 11
198.206
 21
60.6118
  0
LINE
  5
3FD
100
AcDbEntity
  8
0
  6
ByLayer
 62
    0
370
   -1
100
AcDbLine
 10
198.206
 20
60.6118
 11
198.206
 21
63.7124
  0
LINE
  5
3FE
100
AcDbEntity
  8
0
  6
ByLayer
 62
    0
370
   -1
100
AcDbLine
 10
198.206
 20
63.7124
 11
197.407
 21
63.7124
  0
LINE
  5
3FF
100
AcDbEntity
  8
0
  6
ByLayer
 62
    0
370
   -1
100
AcDbLine
 10
197.407
 20
63.7124
 11
197.407
 21
69.5124
  0
LINE
  5
400
100
AcDbEntity
  8
0
  6
ByLayer
 62
    0
370
   -1
100
AcDbLine
 10
197.407
 20
69.5124
 11
198.206
 21
69.5124
  0
LINE
  5
401
100
AcDbEntity
  8
0
  6
ByLayer
 62
    0
370
   -1
100
AcDbLine
 10
198.206
 20
69.5124
 11
198.206
 21
72.61150000000001
  0
LINE
  5
402
100
AcDbEntity
  8
0
  6
ByLayer
 62
    0
370
   -1
100
AcDbLine
 10
198.206
 20
72.61150000000001
 11
197.407
 21
72.61150000000001
  0
LINE
  5
403
100
AcDbEntity
  8
0
  6
ByLayer
 62
    0
370
   -1
100
AcDbLine
 10
197.407
 20
72.61150000000001
 11
197.407
 21
73.61199999999999
  0
LINE
  5
404
100
AcDbEntity
  8
0
  6
ByLayer
 62
    0
370
   -1
100
AcDbLine
 10
197.407
 20
73.61199999999999
 11
183.407
 21
73.61199999999999
  0
LINE
  5
405
100
AcDbEntity
  8
0
  6
ByLayer
 62
    0
370
   -1
100
AcDbLine
 10
202.456
 20
73.61199999999999
 11
202.456
 21
72.61150000000001
  0
LINE
  5
406
100
AcDbEntity
  8
0
  6
ByLayer
 62
    0
370
   -1
100
AcDbLine
 10
202.456
 20
72.61150000000001
 11
201.657
 21
72.61150000000001
  0
LINE
  5
407
100
AcDbEntity
  8
0
  6
ByLayer
 62
    0
370
   -1
100
AcDbLine
 10
201.657
 20
72.61150000000001
 11
201.657
 21
69.5124
  0
LINE
  5
408
100
AcDbEntity
  8
0
  6
ByLayer
 62
    0
370
   -1
100
AcDbLine
 10
201.657
 20
69.5124
 11
202.456
 21
69.5124
  0
LINE
  5
409
100
AcDbEntity
  8
0
  6
ByLayer
 62
    0
370
   -1
100
AcDbLine
 10
202.456
 20
69.5124
 11
202.456
 21
63.7124
  0
LINE
  5
40A
100
AcDbEntity
  8
0
  6
ByLayer
 62
    0
370
   -1
100
AcDbLine
 10
202.456
 20
63.7124
 11
201.657
 21
63.7124
  0
LINE
  5
40B
100
AcDbEntity
  8
0
  6
ByLayer
 62
    0
370
   -1
100
AcDbLine
 10
201.657
 20
63.7124
 11
201.657
 21
60.6118
  0
LINE
  5
40C
100
AcDbEntity
  8
0
  6
ByLayer
 62
    0
370
   -1
100
AcDbLine
 10
201.657
 20
60.6118
 11
202.456
 21
60.6118
  0
LINE
  5
40D
100
AcDbEntity
  8
0
  6
ByLayer
 62
    0
370
   -1
100
AcDbLine
 10
202.456
 20
60.6118
 11
202.456
 21
59.6124
  0
LINE
  5
40E
100
AcDbEntity
  8
0
  6
ByLayer
 62
    0
370
   -1
100
AcDbLine
 10
202.456
 20
59.6124
 11
216.457
 21
59.6124
  0
LINE
  5
40F
100
AcDbEntity
  8
0
  6
ByLayer
 62
    0
370
   -1
100
AcDbLine
 10
216.457
 20
59.6124
 11
216.457
 21
60.6118
  0
LINE
  5
410
100
AcDbEntity
  8
0
  6
ByLayer
 62
    0
370
   -1
100
AcDbLine
 10
216.457
 20
60.6118
 11
217.257
 21
60.6118
  0
LINE
  5
411
100
AcDbEntity
  8
0
  6
ByLayer
 62
    0
370
   -1
100
AcDbLine
 10
217.257
 20
60.6118
 11
217.257
 21
63.7124
  0
LINE
  5
412
100
AcDbEntity
  8
0
  6
ByLayer
 62
    0
370
   -1
100
AcDbLine
 10
217.257
 20
63.7124
 11
216.457
 21
63.7124
  0
LINE
  5
413
100
AcDbEntity
  8
0
  6
ByLayer
 62
    0
370
   -1
100
AcDbLine
 10
216.457
 20
63.7124
 11
216.457
 21
69.5124
  0
LINE
  5
414
100
AcDbEntity
  8
0
  6
ByLayer
 62
    0
370
   -1
100
AcDbLine
 10
216.457
 20
69.5124
 11
217.257
 21
69.5124
  0
LINE
  5
415
100
AcDbEntity
  8
0
  6
ByLayer
 62
    0
370
   -1
100
AcDbLine
 10
217.257
 20
69.5124
 11
217.257
 21
72.61150000000001
  0
LINE
  5
416
100
AcDbEntity
  8
0
  6
ByLayer
 62
    0
370
   -1
100
AcDbLine
 10
217.257
 20
72.61150000000001
 11
216.457
 21
72.61150000000001
  0
LINE
  5
417
100
AcDbEntity
  8
0
  6
ByLayer
 62
    0
370
   -1
100
AcDbLine
 10
216.457
 20
72.61150000000001
 11
216.457
 21
73.61199999999999
  0
LINE
  5
418
100
AcDbEntity
  8
0
  6
ByLayer
 62
    0
370
   -1
100
AcDbLine
 10
216.457
 20
73.61199999999999
 11
202.456
 21
73.61199999999999
  0
LINE
  5
419
100
AcDbEntity
  8
0
  6
ByLayer
 62
    0
370
   -1
100
AcDbLine
 10
221.507
 20
73.61199999999999
 11
221.507
 21
72.61150000000001
  0
LINE
  5
41A
100
AcDbEntity
  8
0
  6
ByLayer
 62
    0
370
   -1
100
AcDbLine
 10
221.507
 20
72.61150000000001
 11
220.707
 21
72.61150000000001
  0
LINE
  5
41B
100
AcDbEntity
  8
0
  6
ByLayer
 62
    0
370
   -1
100
AcDbLine
 10
220.707
 20
72.61150000000001
 11
220.707
 21
69.5124
  0
LINE
  5
41C
100
AcDbEntity
  8
0
  6
ByLayer
 62
    0
370
   -1
100
AcDbLine
 10
220.707
 20
69.5124
 11
221.507
 21
69.5124
  0
LINE
  5
41D
100
AcDbEntity
  8
0
  6
ByLayer
 62
    0
370
   -1
100
AcDbLine
 10
221.507
 20
69.5124
 11
221.507
 21
63.7124
  0
LINE
  5
41E
100
AcDbEntity
  8
0
  6
ByLayer
 62
    0
370
   -1
100
AcDbLine
 10
221.507
 20
63.7124
 11
220.707
 21
63.7124
  0
LINE
  5
41F
100
AcDbEntity
  8
0
  6
ByLayer
 62
    0
370
   -1
100
AcDbLine
 10
220.707
 20
63.7124
 11
220.707
 21
60.6118
  0
LINE
  5
420
100
AcDbEntity
  8
0
  6
ByLayer
 62
    0
370
   -1
100
AcDbLine
 10
220.707
 20
60.6118
 11
221.507
 21
60.6118
  0
LINE
  5
421
100
AcDbEntity
  8
0
  6
ByLayer
 62
    0
370
   -1
100
AcDbLine
 10
221.507
 20
60.6118
 11
221.507
 21
59.6124
  0
LINE
  5
422
100
AcDbEntity
  8
0
  6
ByLayer
 62
    0
370
   -1
100
AcDbLine
 10
221.507
 20
59.6124
 11
235.507
 21
59.6124
  0
LINE
  5
423
100
AcDbEntity
  8
0
  6
ByLayer
 62
    0
370
   -1
100
AcDbLine
 10
235.507
 20
59.6124
 11
235.507
 21
60.6118
  0
LINE
  5
424
100
AcDbEntity
  8
0
  6
ByLayer
 62
    0
370
   -1
100
AcDbLine
 10
235.507
 20
60.6118
 11
236.306
 21
60.6118
  0
LINE
  5
425
100
AcDbEntity
  8
0
  6
ByLayer
 62
    0
370
   -1
100
AcDbLine
 10
236.306
 20
60.6118
 11
236.306
 21
63.7124
  0
LINE
  5
426
100
AcDbEntity
  8
0
  6
ByLayer
 62
    0
370
   -1
100
AcDbLine
 10
236.306
 20
63.7124
 11
235.507
 21
63.7124
  0
LINE
  5
427
100
AcDbEntity
  8
0
  6
ByLayer
 62
    0
370
   -1
100
AcDbLine
 10
235.507
 20
63.7124
 11
235.507
 21
69.5124
  0
LINE
  5
428
100
AcDbEntity
  8
0
  6
ByLayer
 62
    0
370
   -1
100
AcDbLine
 10
235.507
 20
69.5124
 11
236.306
 21
69.5124
  0
LINE
  5
429
100
AcDbEntity
  8
0
  6
ByLayer
 62
    0
370
   -1
100
AcDbLine
 10
236.306
 20
69.5124
 11
236.306
 21
72.61150000000001
  0
LINE
  5
42A
100
AcDbEntity
  8
0
  6
ByLayer
 62
    0
370
   -1
100
AcDbLine
 10
236.306
 20
72.61150000000001
 11
235.507
 21
72.61150000000001
  0
LINE
  5
42B
100
AcDbEntity
  8
0
  6
ByLayer
 62
    0
370
   -1
100
AcDbLine
 10
235.507
 20
72.61150000000001
 11
235.507
 21
73.61199999999999
  0
LINE
  5
42C
100
AcDbEntity
  8
0
  6
ByLayer
 62
    0
370
   -1
100
AcDbLine
 10
235.507
 20
73.61199999999999
 11
221.507
 21
73.61199999999999
  0
LINE
  5
42D
100
AcDbEntity
  8
0
  6
ByLayer
 62
    0
370
   -1
100
AcDbLine
 10
240.556
 20
73.61199999999999
 11
240.556
 21
72.61150000000001
  0
LINE
  5
42E
100
AcDbEntity
  8
0
  6
ByLayer
 62
    0
370
   -1
100
AcDbLine
 10
240.556
 20
72.61150000000001
 11
239.757
 21
72.61150000000001
  0
LINE
  5
42F
100
AcDbEntity
  8
0
  6
ByLayer
 62
    0
370
   -1
100
AcDbLine
 10
239.757
 20
72.61150000000001
 11
239.757
 21
69.5124
  0
LINE
  5
430
100
AcDbEntity
  8
0
  6
ByLayer
 62
    0
370
   -1
100
AcDbLine
 10
239.757
 20
69.5124
 11
240.556
 21
69.5124
  0
LINE
  5
431
100
AcDbEntity
  8
0
  6
ByLayer
 62
    0
370
   -1
100
AcDbLine
 10
240.556
 20
69.5124
 11
240.556
 21
63.7124
  0
LINE
  5
432
100
AcDbEntity
  8
0
  6
ByLayer
 62
    0
370
   -1
100
AcDbLine
 10
240.556
 20
63.7124
 11
239.757
 21
63.7124
  0
LINE
  5
433
100
AcDbEntity
  8
0
  6
ByLayer
 62
    0
370
   -1
100
AcDbLine
 10
239.757
 20
63.7124
 11
239.757
 21
60.6118
  0
LINE
  5
434
100
AcDbEntity
  8
0
  6
ByLayer
 62
    0
370
   -1
100
AcDbLine
 10
239.757
 20
60.6118
 11
240.556
 21
60.6118
  0
LINE
  5
435
100
AcDbEntity
  8
0
  6
ByLayer
 62
    0
370
   -1
100
AcDbLine
 10
240.556
 20
60.6118
 11
240.556
 21
59.6124
  0
LINE
  5
436
100
AcDbEntity
  8
0
  6
ByLayer
 62
    0
370
   -1
100
AcDbLine
 10
240.556
 20
59.6124
 11
254.557
 21
59.6124
  0
LINE
  5
437
100
AcDbEntity
  8
0
  6
ByLayer
 62
    0
370
   -1
100
AcDbLine
 10
254.557
 20
59.6124
 11
254.557
 21
60.6118
  0
LINE
  5
438
100
AcDbEntity
  8
0
  6
ByLayer
 62
    0
370
   -1
100
AcDbLine
 10
254.557
 20
60.6118
 11
255.356
 21
60.6118
  0
LINE
  5
439
100
AcDbEntity
  8
0
  6
ByLayer
 62
    0
370
   -1
100
AcDbLine
 10
255.356
 20
60.6118
 11
255.356
 21
63.7124
  0
LINE
  5
43A
100
AcDbEntity
  8
0
  6
ByLayer
 62
    0
370
   -1
100
AcDbLine
 10
255.356
 20
63.7124
 11
254.557
 21
63.7124
  0
LINE
  5
43B
100
AcDbEntity
  8
0
  6
ByLayer
 62
    0
370
   -1
100
AcDbLine
 10
254.557
 20
63.7124
 11
254.557
 21
69.5124
  0
LINE
  5
43C
100
AcDbEntity
  8
0
  6
ByLayer
 62
    0
370
   -1
100
AcDbLine
 10
254.557
 20
69.5124
 11
255.356
 21
69.5124
  0
LINE
  5
43D
100
AcDbEntity
  8
0
  6
ByLayer
 62
    0
370
   -1
100
AcDbLine
 10
255.356
 20
69.5124
 11
255.356
 21
72.61150000000001
  0
LINE
  5
43E
100
AcDbEntity
  8
0
  6
ByLayer
 62
    0
370
   -1
100
AcDbLine
 10
255.356
 20
72.61150000000001
 11
254.557
 21
72.61150000000001
  0
LINE
  5
43F
100
AcDbEntity
  8
0
  6
ByLayer
 62
    0
370
   -1
100
AcDbLine
 10
254.557
 20
72.61150000000001
 11
254.557
 21
73.61199999999999
  0
LINE
  5
440
100
AcDbEntity
  8
0
  6
ByLayer
 62
    0
370
   -1
100
AcDbLine
 10
254.557
 20
73.61199999999999
 11
240.556
 21
73.61199999999999
  0
LINE
  5
441
100
AcDbEntity
  8
0
  6
ByLayer
 62
    0
370
   -1
100
AcDbLine
 10
24.7096
 20
69.33880000000001
 11
24.0137
 21
68.9846
  0
LINE
  5
442
100
AcDbEntity
  8
0
  6
ByLayer
 62
    0
370
   -1
100
AcDbLine
 10
24.0137
 20
68.9846
 11
23.4597
 21
68.4308
  0
LINE
  5
443
100
AcDbEntity
  8
0
  6
ByLayer
 62
    0
370
   -1
100
AcDbLine
 10
23.4597
 20
68.4308
 11
23.1056
 21
67.7347
  0
LINE
  5
444
100
AcDbEntity
  8
0
  6
ByLayer
 62
    0
370
   -1
100
AcDbLine
 10
23.1056
 20
67.7347
 11
22.9829
 21
66.96040000000001
  0
LINE
  5
445
100
AcDbEntity
  8
0
  6
ByLayer
 62
    0
370
   -1
100
AcDbLine
 10
22.9829
 20
66.96040000000001
 11
23.1056
 21
66.1885
  0
LINE
  5
446
100
AcDbEntity
  8
0
  6
ByLayer
 62
    0
370
   -1
100
AcDbLine
 10
23.1056
 20
66.1885
 11
23.4597
 21
65.49250000000001
  0
LINE
  5
447
100
AcDbEntity
  8
0
  6
ByLayer
 62
    0
370
   -1
100
AcDbLine
 10
23.4597
 20
65.49250000000001
 11
24.0137
 21
64.93859999999999
  0
LINE
  5
448
100
AcDbEntity
  8
0
  6
ByLayer
 62
    0
370
   -1
100
AcDbLine
 10
24.0137
 20
64.93859999999999
 11
24.7096
 21
64.5844
  0
LINE
  5
449
100
AcDbEntity
  8
0
  6
ByLayer
 62
    0
370
   -1
100
AcDbLine
 10
24.7096
 20
64.5844
 11
25.4827
 21
64.4606
  0
LINE
  5
44A
100
AcDbEntity
  8
0
  6
ByLayer
 62
    0
370
   -1
100
AcDbLine
 10
25.4827
 20
64.4606
 11
26.2558
 21
64.5844
  0
LINE
  5
44B
100
AcDbEntity
  8
0
  6
ByLayer
 62
    0
370
   -1
100
AcDbLine
 10
26.2558
 20
64.5844
 11
26.9517
 21
64.93859999999999
  0
LINE
  5
44C
100
AcDbEntity
  8
0
  6
ByLayer
 62
    0
370
   -1
100
AcDbLine
 10
26.9517
 20
64.93859999999999
 11
27.5029
 21
65.49250000000001
  0
LINE
  5
44D
100
AcDbEntity
  8
0
  6
ByLayer
 62
    0
370
   -1
100
AcDbLine
 10
27.5029
 20
65.49250000000001
 11
27.8598
 21
66.1885
  0
LINE
  5
44E
100
AcDbEntity
  8
0
  6
ByLayer
 62
    0
370
   -1
100
AcDbLine
 10
27.8598
 20
66.1885
 11
27.9824
 21
66.96040000000001
  0
LINE
  5
44F
100
AcDbEntity
  8
0
  6
ByLayer
 62
    0
370
   -1
100
AcDbLine
 10
27.9824
 20
66.96040000000001
 11
27.8598
 21
67.7347
  0
LINE
  5
450
100
AcDbEntity
  8
0
  6
ByLayer
 62
    0
370
   -1
100
AcDbLine
 10
27.8598
 20
67.7347
 11
27.5029
 21
68.4308
  0
LINE
  5
451
100
AcDbEntity
  8
0
  6
ByLayer
 62
    0
370
   -1
100
AcDbLine
 10
27.5029
 20
68.4308
 11
26.9517
 21
68.9846
  0
LINE
  5
452
100
AcDbEntity
  8
0
  6
ByLayer
 62
    0
370
   -1
100
AcDbLine
 10
26.9517
 20
68.9846
 11
26.2558
 21
69.33880000000001
  0
LINE
  5
453
100
AcDbEntity
  8
0
  6
ByLayer
 62
    0
370
   -1
100
AcDbLine
 10
26.2558
 20
69.33880000000001
 11
25.4827
 21
69.46120000000001
  0
LINE
  5
454
100
AcDbEntity
  8
0
  6
ByLayer
 62
    0
370
   -1
100
AcDbLine
 10
25.4827
 20
69.46120000000001
 11
24.7096
 21
69.33880000000001
  0
LINE
  5
455
100
AcDbEntity
  8
0
  6
ByLayer
 62
    0
370
   -1
100
AcDbLine
 10
259.559
 20
69.33880000000001
 11
258.862
 21
68.9846
  0
LINE
  5
456
100
AcDbEntity
  8
0
  6
ByLayer
 62
    0
370
   -1
100
AcDbLine
 10
258.862
 20
68.9846
 11
258.309
 21
68.4308
  0
LINE
  5
457
100
AcDbEntity
  8
0
  6
ByLayer
 62
    0
370
   -1
100
AcDbLine
 10
258.309
 20
68.4308
 11
257.954
 21
67.7347
  0
LINE
  5
458
100
AcDbEntity
  8
0
  6
ByLayer
 62
    0
370
   -1
100
AcDbLine
 10
257.954
 20
67.7347
 11
257.832
 21
66.96040000000001
  0
LINE
  5
459
100
AcDbEntity
  8
0
  6
ByLayer
 62
    0
370
   -1
100
AcDbLine
 10
257.832
 20
66.96040000000001
 11
257.954
 21
66.1885
  0
LINE
  5
45A
100
AcDbEntity
  8
0
  6
ByLayer
 62
    0
370
   -1
100
AcDbLine
 10
257.954
 20
66.1885
 11
258.309
 21
65.49250000000001
  0
LINE
  5
45B
100
AcDbEntity
  8
0
  6
ByLayer
 62
    0
370
   -1
100
AcDbLine
 10
258.309
 20
65.49250000000001
 11
258.862
 21
64.93859999999999
  0
LINE
  5
45C
100
AcDbEntity
  8
0
  6
ByLayer
 62
    0
370
   -1
100
AcDbLine
 10
258.862
 20
64.93859999999999
 11
259.559
 21
64.5844
  0
LINE
  5
45D
100
AcDbEntity
  8
0
  6
ByLayer
 62
    0
370
   -1
100
AcDbLine
 10
259.559
 20
64.5844
 11
260.332
 21
64.4606
  0
LINE
  5
45E
100
AcDbEntity
  8
0
  6
ByLayer
 62
    0
370
   -1
100
AcDbLine
 10
260.332
 20
64.4606
 11
261.104
 21
64.5844
  0
LINE
  5
45F
100
AcDbEntity
  8
0
  6
ByLayer
 62
    0
370
   -1
100
AcDbLine
 10
261.104
 20
64.5844
 11
261.801
 21
64.93859999999999
  0
LINE
  5
460
100
AcDbEntity
  8
0
  6
ByLayer
 62
    0
370
   -1
100
AcDbLine
 10
261.801
 20
64.93859999999999
 11
262.354
 21
65.49250000000001
  0
LINE
  5
461
100
AcDbEntity
  8
0
  6
ByLayer
 62
    0
370
   -1
100
AcDbLine
 10
262.354
 20
65.49250000000001
 11
262.709
 21
66.1885
  0
LINE
  5
462
100
AcDbEntity
  8
0
  6
ByLayer
 62
    0
370
   -1
100
AcDbLine
 10
262.709
 20
66.1885
 11
262.832
 21
66.96040000000001
  0
LINE
  5
463
100
AcDbEntity
  8
0
  6
ByLayer
 62
    0
370
   -1
100
AcDbLine
 10
262.832
 20
66.96040000000001
 11
262.709
 21
67.7347
  0
LINE
  5
464
100
AcDbEntity
  8
0
  6
ByLayer
 62
    0
370
   -1
100
AcDbLine
 10
262.709
 20
67.7347
 11
262.354
 21
68.4308
  0
LINE
  5
465
100
AcDbEntity
  8
0
  6
ByLayer
 62
    0
370
   -1
100
AcDbLine
 10
262.354
 20
68.4308
 11
261.801
 21
68.9846
  0
LINE
  5
466
100
AcDbEntity
  8
0
  6
ByLayer
 62
    0
370
   -1
100
AcDbLine
 10
261.801
 20
68.9846
 11
261.104
 21
69.33880000000001
  0
LINE
  5
467
100
AcDbEntity
  8
0
  6
ByLayer
 62
    0
370
   -1
100
AcDbLine
 10
261.104
 20
69.33880000000001
 11
260.332
 21
69.46120000000001
  0
LINE
  5
468
100
AcDbEntity
  8
0
  6
ByLayer
 62
    0
370
   -1
100
AcDbLine
 10
260.332
 20
69.46120000000001
 11
259.559
 21
69.33880000000001
  0
LINE
  5
469
100
AcDbEntity
  8
0
  6
ByLayer
 62
    0
370
   -1
100
AcDbLine
 10
250.081
 20
92.66200000000001
 11
250.081
 21
91.6615
  0
LINE
  5
46A
100
AcDbEntity
  8
0
  6
ByLayer
 62
    0
370
   -1
100
AcDbLine
 10
250.081
 20
91.6615
 11
249.282
 21
91.6615
  0
LINE
  5
46B
100
AcDbEntity
  8
0
  6
ByLayer
 62
    0
370
   -1
100
AcDbLine
 10
249.282
 20
91.6615
 11
249.282
 21
88.5624
  0
LINE
  5
46C
100
AcDbEntity
  8
0
  6
ByLayer
 62
    0
370
   -1
100
AcDbLine
 10
249.282
 20
88.5624
 11
250.081
 21
88.5624
  0
LINE
  5
46D
100
AcDbEntity
  8
0
  6
ByLayer
 62
    0
370
   -1
100
AcDbLine
 10
250.081
 20
88.5624
 11
250.081
 21
82.7624
  0
LINE
  5
46E
100
AcDbEntity
  8
0
  6
ByLayer
 62
    0
370
   -1
100
AcDbLine
 10
250.081
 20
82.7624
 11
249.282
 21
82.7624
  0
LINE
  5
46F
100
AcDbEntity
  8
0
  6
ByLayer
 62
    0
370
   -1
100
AcDbLine
 10
249.282
 20
82.7624
 11
249.282
 21
79.6618
  0
LINE
  5
470
100
AcDbEntity
  8
0
  6
ByLayer
 62
    0
370
   -1
100
AcDbLine
 10
249.282
 20
79.6618
 11
250.081
 21
79.6618
  0
LINE
  5
471
100
AcDbEntity
  8
0
  6
ByLayer
 62
    0
370
   -1
100
AcDbLine
 10
250.081
 20
79.6618
 11
250.081
 21
78.66240000000001
  0
LINE
  5
472
100
AcDbEntity
  8
0
  6
ByLayer
 62
    0
370
   -1
100
AcDbLine
 10
250.081
 20
78.66240000000001
 11
253.056
 21
78.66240000000001
  0
LINE
  5
473
100
AcDbEntity
  8
0
  6
ByLayer
 62
    0
370
   -1
100
AcDbLine
 10
253.056
 20
78.66240000000001
 11
253.056
 21
77.6922
  0
LINE
  5
474
100
AcDbEntity
  8
0
  6
ByLayer
 62
    0
370
   -1
100
AcDbLine
 10
253.056
 20
77.6922
 11
256.357
 21
77.6922
  0
LINE
  5
475
100
AcDbEntity
  8
0
  6
ByLayer
 62
    0
370
   -1
100
AcDbLine
 10
256.357
 20
77.6922
 11
256.357
 21
78.66240000000001
  0
LINE
  5
476
100
AcDbEntity
  8
0
  6
ByLayer
 62
    0
370
   -1
100
AcDbLine
 10
256.357
 20
78.66240000000001
 11
276.856
 21
78.66240000000001
  0
LINE
  5
477
100
AcDbEntity
  8
0
  6
ByLayer
 62
    0
370
   -1
100
AcDbLine
 10
276.856
 20
78.66240000000001
 11
276.856
 21
77.6922
  0
LINE
  5
478
100
AcDbEntity
  8
0
  6
ByLayer
 62
    0
370
   -1
100
AcDbLine
 10
276.856
 20
77.6922
 11
280.157
 21
77.6922
  0
LINE
  5
479
100
AcDbEntity
  8
0
  6
ByLayer
 62
    0
370
   -1
100
AcDbLine
 10
280.157
 20
77.6922
 11
280.157
 21
78.66240000000001
  0
LINE
  5
47A
100
AcDbEntity
  8
0
  6
ByLayer
 62
    0
370
   -1
100
AcDbLine
 10
280.157
 20
78.66240000000001
 11
283.132
 21
78.66240000000001
  0
LINE
  5
47B
100
AcDbEntity
  8
0
  6
ByLayer
 62
    0
370
   -1
100
AcDbLine
 10
283.132
 20
78.66240000000001
 11
283.132
 21
79.6618
  0
LINE
  5
47C
100
AcDbEntity
  8
0
  6
ByLayer
 62
    0
370
   -1
100
AcDbLine
 10
283.132
 20
79.6618
 11
283.931
 21
79.6618
  0
LINE
  5
47D
100
AcDbEntity
  8
0
  6
ByLayer
 62
    0
370
   -1
100
AcDbLine
 10
283.931
 20
79.6618
 11
283.931
 21
82.7624
  0
LINE
  5
47E
100
AcDbEntity
  8
0
  6
ByLayer
 62
    0
370
   -1
100
AcDbLine
 10
283.931
 20
82.7624
 11
283.132
 21
82.7624
  0
LINE
  5
47F
100
AcDbEntity
  8
0
  6
ByLayer
 62
    0
370
   -1
100
AcDbLine
 10
283.132
 20
82.7624
 11
283.132
 21
88.5624
  0
LINE
  5
480
100
AcDbEntity
  8
0
  6
ByLayer
 62
    0
370
   -1
100
AcDbLine
 10
283.132
 20
88.5624
 11
283.931
 21
88.5624
  0
LINE
  5
481
100
AcDbEntity
  8
0
  6
ByLayer
 62
    0
370
   -1
100
AcDbLine
 10
283.931
 20
88.5624
 11
283.931
 21
91.6615
  0
LINE
  5
482
100
AcDbEntity
  8
0
  6
ByLayer
 62
    0
370
   -1
100
AcDbLine
 10
283.931
 20
91.6615
 11
283.132
 21
91.6615
  0
LINE
  5
483
100
AcDbEntity
  8
0
  6
ByLayer
 62
    0
370
   -1
100
AcDbLine
 10
283.132
 20
91.6615
 11
283.132
 21
92.66200000000001
  0
LINE
  5
484
100
AcDbEntity
  8
0
  6
ByLayer
 62
    0
370
   -1
100
AcDbLine
 10
283.132
 20
92.66200000000001
 11
250.081
 21
92.66200000000001
  0
LINE
  5
485
100
AcDbEntity
  8
0
  6
ByLayer
 62
    0
370
   -1
100
AcDbLine
 10
2.43224
 20
92.66200000000001
 11
2.43224
 21
91.6615
  0
LINE
  5
486
100
AcDbEntity
  8
0
  6
ByLayer
 62
    0
370
   -1
100
AcDbLine
 10
2.43224
 20
91.6615
 11
1.6316
 21
91.6615
  0
LINE
  5
487
100
AcDbEntity
  8
0
  6
ByLayer
 62
    0
370
   -1
100
AcDbLine
 10
1.6316
 20
91.6615
 11
1.6316
 21
88.5624
  0
LINE
  5
488
100
AcDbEntity
  8
0
  6
ByLayer
 62
    0
370
   -1
100
AcDbLine
 10
1.6316
 20
88.5624
 11
2.43224
 21
88.5624
  0
LINE
  5
489
100
AcDbEntity
  8
0
  6
ByLayer
 62
    0
370
   -1
100
AcDbLine
 10
2.43224
 20
88.5624
 11
2.43224
 21
82.7624
  0
LINE
  5
48A
100
AcDbEntity
  8
0
  6
ByLayer
 62
    0
370
   -1
100
AcDbLine
 10
2.43224
 20
82.7624
 11
1.6316
 21
82.7624
  0
LINE
  5
48B
100
AcDbEntity
  8
0
  6
ByLayer
 62
    0
370
   -1
100
AcDbLine
 10
1.6316
 20
82.7624
 11
1.6316
 21
79.6618
  0
LINE
  5
48C
100
AcDbEntity
  8
0
  6
ByLayer
 62
    0
370
   -1
100
AcDbLine
 10
1.6316
 20
79.6618
 11
2.43224
 21
79.6618
  0
LINE
  5
48D
100
AcDbEntity
  8
0
  6
ByLayer
 62
    0
370
   -1
100
AcDbLine
 10
2.43224
 20
79.6618
 11
2.43224
 21
78.66240000000001
  0
LINE
  5
48E
100
AcDbEntity
  8
0
  6
ByLayer
 62
    0
370
   -1
100
AcDbLine
 10
2.43224
 20
78.66240000000001
 11
16.4317
 21
78.66240000000001
  0
LINE
  5
48F
100
AcDbEntity
  8
0
  6
ByLayer
 62
    0
370
   -1
100
AcDbLine
 10
16.4317
 20
78.66240000000001
 11
16.4317
 21
79.6618
  0
LINE
  5
490
100
AcDbEntity
  8
0
  6
ByLayer
 62
    0
370
   -1
100
AcDbLine
 10
16.4317
 20
79.6618
 11
17.2324
 21
79.6618
  0
LINE
  5
491
100
AcDbEntity
  8
0
  6
ByLayer
 62
    0
370
   -1
100
AcDbLine
 10
17.2324
 20
79.6618
 11
17.2324
 21
82.7624
  0
LINE
  5
492
100
AcDbEntity
  8
0
  6
ByLayer
 62
    0
370
   -1
100
AcDbLine
 10
17.2324
 20
82.7624
 11
16.4317
 21
82.7624
  0
LINE
  5
493
100
AcDbEntity
  8
0
  6
ByLayer
 62
    0
370
   -1
100
AcDbLine
 10
16.4317
 20
82.7624
 11
16.4317
 21
88.5624
  0
LINE
  5
494
100
AcDbEntity
  8
0
  6
ByLayer
 62
    0
370
   -1
100
AcDbLine
 10
16.4317
 20
88.5624
 11
17.2324
 21
88.5624
  0
LINE
  5
495
100
AcDbEntity
  8
0
  6
ByLayer
 62
    0
370
   -1
100
AcDbLine
 10
17.2324
 20
88.5624
 11
17.2324
 21
91.6615
  0
LINE
  5
496
100
AcDbEntity
  8
0
  6
ByLayer
 62
    0
370
   -1
100
AcDbLine
 10
17.2324
 20
91.6615
 11
16.4317
 21
91.6615
  0
LINE
  5
497
100
AcDbEntity
  8
0
  6
ByLayer
 62
    0
370
   -1
100
AcDbLine
 10
16.4317
 20
91.6615
 11
16.4317
 21
92.66200000000001
  0
LINE
  5
498
100
AcDbEntity
  8
0
  6
ByLayer
 62
    0
370
   -1
100
AcDbLine
 10
16.4317
 20
92.66200000000001
 11
2.43224
 21
92.66200000000001
  0
LINE
  5
499
100
AcDbEntity
  8
0
  6
ByLayer
 62
    0
370
   -1
100
AcDbLine
 10
21.4822
 20
92.66200000000001
 11
21.4822
 21
91.6615
  0
LINE
  5
49A
100
AcDbEntity
  8
0
  6
ByLayer
 62
    0
370
   -1
100
AcDbLine
 10
21.4822
 20
91.6615
 11
20.6816
 21
91.6615
  0
LINE
  5
49B
100
AcDbEntity
  8
0
  6
ByLayer
 62
    0
370
   -1
100
AcDbLine
 10
20.6816
 20
91.6615
 11
20.6816
 21
88.5624
  0
LINE
  5
49C
100
AcDbEntity
  8
0
  6
ByLayer
 62
    0
370
   -1
100
AcDbLine
 10
20.6816
 20
88.5624
 11
21.4822
 21
88.5624
  0
LINE
  5
49D
100
AcDbEntity
  8
0
  6
ByLayer
 62
    0
370
   -1
100
AcDbLine
 10
21.4822
 20
88.5624
 11
21.4822
 21
82.7624
  0
LINE
  5
49E
100
AcDbEntity
  8
0
  6
ByLayer
 62
    0
370
   -1
100
AcDbLine
 10
21.4822
 20
82.7624
 11
20.6816
 21
82.7624
  0
LINE
  5
49F
100
AcDbEntity
  8
0
  6
ByLayer
 62
    0
370
   -1
100
AcDbLine
 10
20.6816
 20
82.7624
 11
20.6816
 21
79.6618
  0
LINE
  5
4A0
100
AcDbEntity
  8
0
  6
ByLayer
 62
    0
370
   -1
100
AcDbLine
 10
20.6816
 20
79.6618
 11
21.4822
 21
79.6618
  0
LINE
  5
4A1
100
AcDbEntity
  8
0
  6
ByLayer
 62
    0
370
   -1
100
AcDbLine
 10
21.4822
 20
79.6618
 11
21.4822
 21
78.66240000000001
  0
LINE
  5
4A2
100
AcDbEntity
  8
0
  6
ByLayer
 62
    0
370
   -1
100
AcDbLine
 10
21.4822
 20
78.66240000000001
 11
35.4817
 21
78.66240000000001
  0
LINE
  5
4A3
100
AcDbEntity
  8
0
  6
ByLayer
 62
    0
370
   -1
100
AcDbLine
 10
35.4817
 20
78.66240000000001
 11
35.4817
 21
79.6618
  0
LINE
  5
4A4
100
AcDbEntity
  8
0
  6
ByLayer
 62
    0
370
   -1
100
AcDbLine
 10
35.4817
 20
79.6618
 11
36.2825
 21
79.6618
  0
LINE
  5
4A5
100
AcDbEntity
  8
0
  6
ByLayer
 62
    0
370
   -1
100
AcDbLine
 10
36.2825
 20
79.6618
 11
36.2825
 21
82.7624
  0
LINE
  5
4A6
100
AcDbEntity
  8
0
  6
ByLayer
 62
    0
370
   -1
100
AcDbLine
 10
36.2825
 20
82.7624
 11
35.4817
 21
82.7624
  0
LINE
  5
4A7
100
AcDbEntity
  8
0
  6
ByLayer
 62
    0
370
   -1
100
AcDbLine
 10
35.4817
 20
82.7624
 11
35.4817
 21
88.5624
  0
LINE
  5
4A8
100
AcDbEntity
  8
0
  6
ByLayer
 62
    0
370
   -1
100
AcDbLine
 10
35.4817
 20
88.5624
 11
36.2825
 21
88.5624
  0
LINE
  5
4A9
100
AcDbEntity
  8
0
  6
ByLayer
 62
    0
370
   -1
100
AcDbLine
 10
36.2825
 20
88.5624
 11
36.2825
 21
91.6615
  0
LINE
  5
4AA
100
AcDbEntity
  8
0
  6
ByLayer
 62
    0
370
   -1
100
AcDbLine
 10
36.2825
 20
91.6615
 11
35.4817
 21
91.6615
  0
LINE
  5
4AB
100
AcDbEntity
  8
0
  6
ByLayer
 62
    0
370
   -1
100
AcDbLine
 10
35.4817
 20
91.6615
 11
35.4817
 21
92.66200000000001
  0
LINE
  5
4AC
100
AcDbEntity
  8
0
  6
ByLayer
 62
    0
370
   -1
100
AcDbLine
 10
35.4817
 20
92.66200000000001
 11
21.4822
 21
92.66200000000001
  0
LINE
  5
4AD
100
AcDbEntity
  8
0
  6
ByLayer
 62
    0
370
   -1
100
AcDbLine
 10
40.5324
 20
92.66200000000001
 11
40.5324
 21
91.6615
  0
LINE
  5
4AE
100
AcDbEntity
  8
0
  6
ByLayer
 62
    0
370
   -1
100
AcDbLine
 10
40.5324
 20
91.6615
 11
39.7316
 21
91.6615
  0
LINE
  5
4AF
100
AcDbEntity
  8
0
  6
ByLayer
 62
    0
370
   -1
100
AcDbLine
 10
39.7316
 20
91.6615
 11
39.7316
 21
88.5624
  0
LINE
  5
4B0
100
AcDbEntity
  8
0
  6
ByLayer
 62
    0
370
   -1
100
AcDbLine
 10
39.7316
 20
88.5624
 11
40.5324
 21
88.5624
  0
LINE
  5
4B1
100
AcDbEntity
  8
0
  6
ByLayer
 62
    0
370
   -1
100
AcDbLine
 10
40.5324
 20
88.5624
 11
40.5324
 21
82.7624
  0
LINE
  5
4B2
100
AcDbEntity
  8
0
  6
ByLayer
 62
    0
370
   -1
100
AcDbLine
 10
40.5324
 20
82.7624
 11
39.7316
 21
82.7624
  0
LINE
  5
4B3
100
AcDbEntity
  8
0
  6
ByLayer
 62
    0
370
   -1
100
AcDbLine
 10
39.7316
 20
82.7624
 11
39.7316
 21
79.6618
  0
LINE
  5
4B4
100
AcDbEntity
  8
0
  6
ByLayer
 62
    0
370
   -1
100
AcDbLine
 10
39.7316
 20
79.6618
 11
40.5324
 21
79.6618
  0
LINE
  5
4B5
100
AcDbEntity
  8
0
  6
ByLayer
 62
    0
370
   -1
100
AcDbLine
 10
40.5324
 20
79.6618
 11
40.5324
 21
78.66240000000001
  0
LINE
  5
4B6
100
AcDbEntity
  8
0
  6
ByLayer
 62
    0
370
   -1
100
AcDbLine
 10
40.5324
 20
78.66240000000001
 11
54.5317
 21
78.66240000000001
  0
LINE
  5
4B7
100
AcDbEntity
  8
0
  6
ByLayer
 62
    0
370
   -1
100
AcDbLine
 10
54.5317
 20
78.66240000000001
 11
54.5317
 21
79.6618
  0
LINE
  5
4B8
100
AcDbEntity
  8
0
  6
ByLayer
 62
    0
370
   -1
100
AcDbLine
 10
54.5317
 20
79.6618
 11
55.3311
 21
79.6618
  0
LINE
  5
4B9
100
AcDbEntity
  8
0
  6
ByLayer
 62
    0
370
   -1
100
AcDbLine
 10
55.3311
 20
79.6618
 11
55.3311
 21
82.7624
  0
LINE
  5
4BA
100
AcDbEntity
  8
0
  6
ByLayer
 62
    0
370
   -1
100
AcDbLine
 10
55.3311
 20
82.7624
 11
54.5317
 21
82.7624
  0
LINE
  5
4BB
100
AcDbEntity
  8
0
  6
ByLayer
 62
    0
370
   -1
100
AcDbLine
 10
54.5317
 20
82.7624
 11
54.5317
 21
88.5624
  0
LINE
  5
4BC
100
AcDbEntity
  8
0
  6
ByLayer
 62
    0
370
   -1
100
AcDbLine
 10
54.5317
 20
88.5624
 11
55.3311
 21
88.5624
  0
LINE
  5
4BD
100
AcDbEntity
  8
0
  6
ByLayer
 62
    0
370
   -1
100
AcDbLine
 10
55.3311
 20
88.5624
 11
55.3311
 21
91.6615
  0
LINE
  5
4BE
100
AcDbEntity
  8
0
  6
ByLayer
 62
    0
370
   -1
100
AcDbLine
 10
55.3311
 20
91.6615
 11
54.5317
 21
91.6615
  0
LINE
  5
4BF
100
AcDbEntity
  8
0
  6
ByLayer
 62
    0
370
   -1
100
AcDbLine
 10
54.5317
 20
91.6615
 11
54.5317
 21
92.66200000000001
  0
LINE
  5
4C0
100
AcDbEntity
  8
0
  6
ByLayer
 62
    0
370
   -1
100
AcDbLine
 10
54.5317
 20
92.66200000000001
 11
40.5324
 21
92.66200000000001
  0
LINE
  5
4C1
100
AcDbEntity
  8
0
  6
ByLayer
 62
    0
370
   -1
100
AcDbLine
 10
59.581
 20
92.66200000000001
 11
59.581
 21
91.6615
  0
LINE
  5
4C2
100
AcDbEntity
  8
0
  6
ByLayer
 62
    0
370
   -1
100
AcDbLine
 10
59.581
 20
91.6615
 11
58.7816
 21
91.6615
  0
LINE
  5
4C3
100
AcDbEntity
  8
0
  6
ByLayer
 62
    0
370
   -1
100
AcDbLine
 10
58.7816
 20
91.6615
 11
58.7816
 21
88.5624
  0
LINE
  5
4C4
100
AcDbEntity
  8
0
  6
ByLayer
 62
    0
370
   -1
100
AcDbLine
 10
58.7816
 20
88.5624
 11
59.581
 21
88.5624
  0
LINE
  5
4C5
100
AcDbEntity
  8
0
  6
ByLayer
 62
    0
370
   -1
100
AcDbLine
 10
59.581
 20
88.5624
 11
59.581
 21
82.7624
  0
LINE
  5
4C6
100
AcDbEntity
  8
0
  6
ByLayer
 62
    0
370
   -1
100
AcDbLine
 10
59.581
 20
82.7624
 11
58.7816
 21
82.7624
  0
LINE
  5
4C7
100
AcDbEntity
  8
0
  6
ByLayer
 62
    0
370
   -1
100
AcDbLine
 10
58.7816
 20
82.7624
 11
58.7816
 21
79.6618
  0
LINE
  5
4C8
100
AcDbEntity
  8
0
  6
ByLayer
 62
    0
370
   -1
100
AcDbLine
 10
58.7816
 20
79.6618
 11
59.581
 21
79.6618
  0
LINE
  5
4C9
100
AcDbEntity
  8
0
  6
ByLayer
 62
    0
370
   -1
100
AcDbLine
 10
59.581
 20
79.6618
 11
59.581
 21
78.66240000000001
  0
LINE
  5
4CA
100
AcDbEntity
  8
0
  6
ByLayer
 62
    0
370
   -1
100
AcDbLine
 10
59.581
 20
78.66240000000001
 11
73.5817
 21
78.66240000000001
  0
LINE
  5
4CB
100
AcDbEntity
  8
0
  6
ByLayer
 62
    0
370
   -1
100
AcDbLine
 10
73.5817
 20
78.66240000000001
 11
73.5817
 21
79.6618
  0
LINE
  5
4CC
100
AcDbEntity
  8
0
  6
ByLayer
 62
    0
370
   -1
100
AcDbLine
 10
73.5817
 20
79.6618
 11
74.38249999999999
 21
79.6618
  0
LINE
  5
4CD
100
AcDbEntity
  8
0
  6
ByLayer
 62
    0
370
   -1
100
AcDbLine
 10
74.38249999999999
 20
79.6618
 11
74.38249999999999
 21
82.7624
  0
LINE
  5
4CE
100
AcDbEntity
  8
0
  6
ByLayer
 62
    0
370
   -1
100
AcDbLine
 10
74.38249999999999
 20
82.7624
 11
73.5817
 21
82.7624
  0
LINE
  5
4CF
100
AcDbEntity
  8
0
  6
ByLayer
 62
    0
370
   -1
100
AcDbLine
 10
73.5817
 20
82.7624
 11
73.5817
 21
88.5624
  0
LINE
  5
4D0
100
AcDbEntity
  8
0
  6
ByLayer
 62
    0
370
   -1
100
AcDbLine
 10
73.5817
 20
88.5624
 11
74.38249999999999
 21
88.5624
  0
LINE
  5
4D1
100
AcDbEntity
  8
0
  6
ByLayer
 62
    0
370
   -1
100
AcDbLine
 10
74.38249999999999
 20
88.5624
 11
74.38249999999999
 21
91.6615
  0
LINE
  5
4D2
100
AcDbEntity
  8
0
  6
ByLayer
 62
    0
370
   -1
100
AcDbLine
 10
74.38249999999999
 20
91.6615
 11
73.5817
 21
91.6615
  0
LINE
  5
4D3
100
AcDbEntity
  8
0
  6
ByLayer
 62
    0
370
   -1
100
AcDbLine
 10
73.5817
 20
91.6615
 11
73.5817
 21
92.66200000000001
  0
LINE
  5
4D4
100
AcDbEntity
  8
0
  6
ByLayer
 62
    0
370
   -1
100
AcDbLine
 10
73.5817
 20
92.66200000000001
 11
59.581
 21
92.66200000000001
  0
LINE
  5
4D5
100
AcDbEntity
  8
0
  6
ByLayer
 62
    0
370
   -1
100
AcDbLine
 10
78.6324
 20
92.66200000000001
 11
78.6324
 21
91.6615
  0
LINE
  5
4D6
100
AcDbEntity
  8
0
  6
ByLayer
 62
    0
370
   -1
100
AcDbLine
 10
78.6324
 20
91.6615
 11
77.83159999999999
 21
91.6615
  0
LINE
  5
4D7
100
AcDbEntity
  8
0
  6
ByLayer
 62
    0
370
   -1
100
AcDbLine
 10
77.83159999999999
 20
91.6615
 11
77.83159999999999
 21
88.5624
  0
LINE
  5
4D8
100
AcDbEntity
  8
0
  6
ByLayer
 62
    0
370
   -1
100
AcDbLine
 10
77.83159999999999
 20
88.5624
 11
78.6324
 21
88.5624
  0
LINE
  5
4D9
100
AcDbEntity
  8
0
  6
ByLayer
 62
    0
370
   -1
100
AcDbLine
 10
78.6324
 20
88.5624
 11
78.6324
 21
82.7624
  0
LINE
  5
4DA
100
AcDbEntity
  8
0
  6
ByLayer
 62
    0
370
   -1
100
AcDbLine
 10
78.6324
 20
82.7624
 11
77.83159999999999
 21
82.7624
  0
LINE
  5
4DB
100
AcDbEntity
  8
0
  6
ByLayer
 62
    0
370
   -1
100
AcDbLine
 10
77.83159999999999
 20
82.7624
 11
77.83159999999999
 21
79.6618
  0
LINE
  5
4DC
100
AcDbEntity
  8
0
  6
ByLayer
 62
    0
370
   -1
100
AcDbLine
 10
77.83159999999999
 20
79.6618
 11
78.6324
 21
79.6618
  0
LINE
  5
4DD
100
AcDbEntity
  8
0
  6
ByLayer
 62
    0
370
   -1
100
AcDbLine
 10
78.6324
 20
79.6618
 11
78.6324
 21
78.66240000000001
  0
LINE
  5
4DE
100
AcDbEntity
  8
0
  6
ByLayer
 62
    0
370
   -1
100
AcDbLine
 10
78.6324
 20
78.66240000000001
 11
92.6317
 21
78.66240000000001
  0
LINE
  5
4DF
100
AcDbEntity
  8
0
  6
ByLayer
 62
    0
370
   -1
100
AcDbLine
 10
92.6317
 20
78.66240000000001
 11
92.6317
 21
79.6618
  0
LINE
  5
4E0
100
AcDbEntity
  8
0
  6
ByLayer
 62
    0
370
   -1
100
AcDbLine
 10
92.6317
 20
79.6618
 11
93.4325
 21
79.6618
  0
LINE
  5
4E1
100
AcDbEntity
  8
0
  6
ByLayer
 62
    0
370
   -1
100
AcDbLine
 10
93.4325
 20
79.6618
 11
93.4325
 21
82.7624
  0
LINE
  5
4E2
100
AcDbEntity
  8
0
  6
ByLayer
 62
    0
370
   -1
100
AcDbLine
 10
93.4325
 20
82.7624
 11
92.6317
 21
82.7624
  0
LINE
  5
4E3
100
AcDbEntity
  8
0
  6
ByLayer
 62
    0
370
   -1
100
AcDbLine
 10
92.6317
 20
82.7624
 11
92.6317
 21
88.5624
  0
LINE
  5
4E4
100
AcDbEntity
  8
0
  6
ByLayer
 62
    0
370
   -1
100
AcDbLine
 10
92.6317
 20
88.5624
 11
93.4325
 21
88.5624
  0
LINE
  5
4E5
100
AcDbEntity
  8
0
  6
ByLayer
 62
    0
370
   -1
100
AcDbLine
 10
93.4325
 20
88.5624
 11
93.4325
 21
91.6615
  0
LINE
  5
4E6
100
AcDbEntity
  8
0
  6
ByLayer
 62
    0
370
   -1
100
AcDbLine
 10
93.4325
 20
91.6615
 11
92.6317
 21
91.6615
  0
LINE
  5
4E7
100
AcDbEntity
  8
0
  6
ByLayer
 62
    0
370
   -1
100
AcDbLine
 10
92.6317
 20
91.6615
 11
92.6317
 21
92.66200000000001
  0
LINE
  5
4E8
100
AcDbEntity
  8
0
  6
ByLayer
 62
    0
370
   -1
100
AcDbLine
 10
92.6317
 20
92.66200000000001
 11
78.6324
 21
92.66200000000001
  0
LINE
  5
4E9
100
AcDbEntity
  8
0
  6
ByLayer
 62
    0
370
   -1
100
AcDbLine
 10
97.6824
 20
92.66200000000001
 11
97.6824
 21
91.6615
  0
LINE
  5
4EA
100
AcDbEntity
  8
0
  6
ByLayer
 62
    0
370
   -1
100
AcDbLine
 10
97.6824
 20
91.6615
 11
96.88160000000001
 21
91.6615
  0
LINE
  5
4EB
100
AcDbEntity
  8
0
  6
ByLayer
 62
    0
370
   -1
100
AcDbLine
 10
96.88160000000001
 20
91.6615
 11
96.88160000000001
 21
88.5624
  0
LINE
  5
4EC
100
AcDbEntity
  8
0
  6
ByLayer
 62
    0
370
   -1
100
AcDbLine
 10
96.88160000000001
 20
88.5624
 11
97.6824
 21
88.5624
  0
LINE
  5
4ED
100
AcDbEntity
  8
0
  6
ByLayer
 62
    0
370
   -1
100
AcDbLine
 10
97.6824
 20
88.5624
 11
97.6824
 21
82.7624
  0
LINE
  5
4EE
100
AcDbEntity
  8
0
  6
ByLayer
 62
    0
370
   -1
100
AcDbLine
 10
97.6824
 20
82.7624
 11
96.88160000000001
 21
82.7624
  0
LINE
  5
4EF
100
AcDbEntity
  8
0
  6
ByLayer
 62
    0
370
   -1
100
AcDbLine
 10
96.88160000000001
 20
82.7624
 11
96.88160000000001
 21
79.6618
  0
LINE
  5
4F0
100
AcDbEntity
  8
0
  6
ByLayer
 62
    0
370
   -1
100
AcDbLine
 10
96.88160000000001
 20
79.6618
 11
97.6824
 21
79.6618
  0
LINE
  5
4F1
100
AcDbEntity
  8
0
  6
ByLayer
 62
    0
370
   -1
100
AcDbLine
 10
97.6824
 20
79.6618
 11
97.6824
 21
78.66240000000001
  0
LINE
  5
4F2
100
AcDbEntity
  8
0
  6
ByLayer
 62
    0
370
   -1
100
AcDbLine
 10
97.6824
 20
78.66240000000001
 11
111.682
 21
78.66240000000001
  0
LINE
  5
4F3
100
AcDbEntity
  8
0
  6
ByLayer
 62
    0
370
   -1
100
AcDbLine
 10
111.682
 20
78.66240000000001
 11
111.682
 21
79.6618
  0
LINE
  5
4F4
100
AcDbEntity
  8
0
  6
ByLayer
 62
    0
370
   -1
100
AcDbLine
 10
111.682
 20
79.6618
 11
112.482
 21
79.6618
  0
LINE
  5
4F5
100
AcDbEntity
  8
0
  6
ByLayer
 62
    0
370
   -1
100
AcDbLine
 10
112.482
 20
79.6618
 11
112.482
 21
82.7624
  0
LINE
  5
4F6
100
AcDbEntity
  8
0
  6
ByLayer
 62
    0
370
   -1
100
AcDbLine
 10
112.482
 20
82.7624
 11
111.682
 21
82.7624
  0
LINE
  5
4F7
100
AcDbEntity
  8
0
  6
ByLayer
 62
    0
370
   -1
100
AcDbLine
 10
111.682
 20
82.7624
 11
111.682
 21
88.5624
  0
LINE
  5
4F8
100
AcDbEntity
  8
0
  6
ByLayer
 62
    0
370
   -1
100
AcDbLine
 10
111.682
 20
88.5624
 11
112.482
 21
88.5624
  0
LINE
  5
4F9
100
AcDbEntity
  8
0
  6
ByLayer
 62
    0
370
   -1
100
AcDbLine
 10
112.482
 20
88.5624
 11
112.482
 21
91.6615
  0
LINE
  5
4FA
100
AcDbEntity
  8
0
  6
ByLayer
 62
    0
370
   -1
100
AcDbLine
 10
112.482
 20
91.6615
 11
111.682
 21
91.6615
  0
LINE
  5
4FB
100
AcDbEntity
  8
0
  6
ByLayer
 62
    0
370
   -1
100
AcDbLine
 10
111.682
 20
91.6615
 11
111.682
 21
92.66200000000001
  0
LINE
  5
4FC
100
AcDbEntity
  8
0
  6
ByLayer
 62
    0
370
   -1
100
AcDbLine
 10
111.682
 20
92.66200000000001
 11
97.6824
 21
92.66200000000001
  0
LINE
  5
4FD
100
AcDbEntity
  8
0
  6
ByLayer
 62
    0
370
   -1
100
AcDbLine
 10
116.732
 20
92.66200000000001
 11
116.732
 21
91.6615
  0
LINE
  5
4FE
100
AcDbEntity
  8
0
  6
ByLayer
 62
    0
370
   -1
100
AcDbLine
 10
116.732
 20
91.6615
 11
115.932
 21
91.6615
  0
LINE
  5
4FF
100
AcDbEntity
  8
0
  6
ByLayer
 62
    0
370
   -1
100
AcDbLine
 10
115.932
 20
91.6615
 11
115.932
 21
88.5624
  0
LINE
  5
500
100
AcDbEntity
  8
0
  6
ByLayer
 62
    0
370
   -1
100
AcDbLine
 10
115.932
 20
88.5624
 11
116.732
 21
88.5624
  0
LINE
  5
501
100
AcDbEntity
  8
0
  6
ByLayer
 62
    0
370
   -1
100
AcDbLine
 10
116.732
 20
88.5624
 11
116.732
 21
82.7624
  0
LINE
  5
502
100
AcDbEntity
  8
0
  6
ByLayer
 62
    0
370
   -1
100
AcDbLine
 10
116.732
 20
82.7624
 11
115.932
 21
82.7624
  0
LINE
  5
503
100
AcDbEntity
  8
0
  6
ByLayer
 62
    0
370
   -1
100
AcDbLine
 10
115.932
 20
82.7624
 11
115.932
 21
79.6618
  0
LINE
  5
504
100
AcDbEntity
  8
0
  6
ByLayer
 62
    0
370
   -1
100
AcDbLine
 10
115.932
 20
79.6618
 11
116.732
 21
79.6618
  0
LINE
  5
505
100
AcDbEntity
  8
0
  6
ByLayer
 62
    0
370
   -1
100
AcDbLine
 10
116.732
 20
79.6618
 11
116.732
 21
78.66240000000001
  0
LINE
  5
506
100
AcDbEntity
  8
0
  6
ByLayer
 62
    0
370
   -1
100
AcDbLine
 10
116.732
 20
78.66240000000001
 11
130.732
 21
78.66240000000001
  0
LINE
  5
507
100
AcDbEntity
  8
0
  6
ByLayer
 62
    0
370
   -1
100
AcDbLine
 10
130.732
 20
78.66240000000001
 11
130.732
 21
79.6618
  0
LINE
  5
508
100
AcDbEntity
  8
0
  6
ByLayer
 62
    0
370
   -1
100
AcDbLine
 10
130.732
 20
79.6618
 11
131.532
 21
79.6618
  0
LINE
  5
509
100
AcDbEntity
  8
0
  6
ByLayer
 62
    0
370
   -1
100
AcDbLine
 10
131.532
 20
79.6618
 11
131.532
 21
82.7624
  0
LINE
  5
50A
100
AcDbEntity
  8
0
  6
ByLayer
 62
    0
370
   -1
100
AcDbLine
 10
131.532
 20
82.7624
 11
130.732
 21
82.7624
  0
LINE
  5
50B
100
AcDbEntity
  8
0
  6
ByLayer
 62
    0
370
   -1
100
AcDbLine
 10
130.732
 20
82.7624
 11
130.732
 21
88.5624
  0
LINE
  5
50C
100
AcDbEntity
  8
0
  6
ByLayer
 62
    0
370
   -1
100
AcDbLine
 10
130.732
 20
88.5624
 11
131.532
 21
88.5624
  0
LINE
  5
50D
100
AcDbEntity
  8
0
  6
ByLayer
 62
    0
370
   -1
100
AcDbLine
 10
131.532
 20
88.5624
 11
131.532
 21
91.6615
  0
LINE
  5
50E
100
AcDbEntity
  8
0
  6
ByLayer
 62
    0
370
   -1
100
AcDbLine
 10
131.532
 20
91.6615
 11
130.732
 21
91.6615
  0
LINE
  5
50F
100
AcDbEntity
  8
0
  6
ByLayer
 62
    0
370
   -1
100
AcDbLine
 10
130.732
 20
91.6615
 11
130.732
 21
92.66200000000001
  0
LINE
  5
510
100
AcDbEntity
  8
0
  6
ByLayer
 62
    0
370
   -1
100
AcDbLine
 10
130.732
 20
92.66200000000001
 11
116.732
 21
92.66200000000001
  0
LINE
  5
511
100
AcDbEntity
  8
0
  6
ByLayer
 62
    0
370
   -1
100
AcDbLine
 10
135.782
 20
92.66200000000001
 11
135.782
 21
91.6615
  0
LINE
  5
512
100
AcDbEntity
  8
0
  6
ByLayer
 62
    0
370
   -1
100
AcDbLine
 10
135.782
 20
91.6615
 11
134.982
 21
91.6615
  0
LINE
  5
513
100
AcDbEntity
  8
0
  6
ByLayer
 62
    0
370
   -1
100
AcDbLine
 10
134.982
 20
91.6615
 11
134.982
 21
88.5624
  0
LINE
  5
514
100
AcDbEntity
  8
0
  6
ByLayer
 62
    0
370
   -1
100
AcDbLine
 10
134.982
 20
88.5624
 11
135.782
 21
88.5624
  0
LINE
  5
515
100
AcDbEntity
  8
0
  6
ByLayer
 62
    0
370
   -1
100
AcDbLine
 10
135.782
 20
88.5624
 11
135.782
 21
82.7624
  0
LINE
  5
516
100
AcDbEntity
  8
0
  6
ByLayer
 62
    0
370
   -1
100
AcDbLine
 10
135.782
 20
82.7624
 11
134.982
 21
82.7624
  0
LINE
  5
517
100
AcDbEntity
  8
0
  6
ByLayer
 62
    0
370
   -1
100
AcDbLine
 10
134.982
 20
82.7624
 11
134.982
 21
79.6618
  0
LINE
  5
518
100
AcDbEntity
  8
0
  6
ByLayer
 62
    0
370
   -1
100
AcDbLine
 10
134.982
 20
79.6618
 11
135.782
 21
79.6618
  0
LINE
  5
519
100
AcDbEntity
  8
0
  6
ByLayer
 62
    0
370
   -1
100
AcDbLine
 10
135.782
 20
79.6618
 11
135.782
 21
78.66240000000001
  0
LINE
  5
51A
100
AcDbEntity
  8
0
  6
ByLayer
 62
    0
370
   -1
100
AcDbLine
 10
135.782
 20
78.66240000000001
 11
149.782
 21
78.66240000000001
  0
LINE
  5
51B
100
AcDbEntity
  8
0
  6
ByLayer
 62
    0
370
   -1
100
AcDbLine
 10
149.782
 20
78.66240000000001
 11
149.782
 21
79.6618
  0
LINE
  5
51C
100
AcDbEntity
  8
0
  6
ByLayer
 62
    0
370
   -1
100
AcDbLine
 10
149.782
 20
79.6618
 11
150.581
 21
79.6618
  0
LINE
  5
51D
100
AcDbEntity
  8
0
  6
ByLayer
 62
    0
370
   -1
100
AcDbLine
 10
150.581
 20
79.6618
 11
150.581
 21
82.7624
  0
LINE
  5
51E
100
AcDbEntity
  8
0
  6
ByLayer
 62
    0
370
   -1
100
AcDbLine
 10
150.581
 20
82.7624
 11
149.782
 21
82.7624
  0
LINE
  5
51F
100
AcDbEntity
  8
0
  6
ByLayer
 62
    0
370
   -1
100
AcDbLine
 10
149.782
 20
82.7624
 11
149.782
 21
88.5624
  0
LINE
  5
520
100
AcDbEntity
  8
0
  6
ByLayer
 62
    0
370
   -1
100
AcDbLine
 10
149.782
 20
88.5624
 11
150.581
 21
88.5624
  0
LINE
  5
521
100
AcDbEntity
  8
0
  6
ByLayer
 62
    0
370
   -1
100
AcDbLine
 10
150.581
 20
88.5624
 11
150.581
 21
91.6615
  0
LINE
  5
522
100
AcDbEntity
  8
0
  6
ByLayer
 62
    0
370
   -1
100
AcDbLine
 10
150.581
 20
91.6615
 11
149.782
 21
91.6615
  0
LINE
  5
523
100
AcDbEntity
  8
0
  6
ByLayer
 62
    0
370
   -1
100
AcDbLine
 10
149.782
 20
91.6615
 11
149.782
 21
92.66200000000001
  0
LINE
  5
524
100
AcDbEntity
  8
0
  6
ByLayer
 62
    0
370
   -1
100
AcDbLine
 10
149.782
 20
92.66200000000001
 11
135.782
 21
92.66200000000001
  0
LINE
  5
525
100
AcDbEntity
  8
0
  6
ByLayer
 62
    0
370
   -1
100
AcDbLine
 10
154.831
 20
92.66200000000001
 11
154.831
 21
91.6615
  0
LINE
  5
526
100
AcDbEntity
  8
0
  6
ByLayer
 62
    0
370
   -1
100
AcDbLine
 10
154.831
 20
91.6615
 11
154.032
 21
91.6615
  0
LINE
  5
527
100
AcDbEntity
  8
0
  6
ByLayer
 62
    0
370
   -1
100
AcDbLine
 10
154.032
 20
91.6615
 11
154.032
 21
88.5624
  0
LINE
  5
528
100
AcDbEntity
  8
0
  6
ByLayer
 62
    0
370
   -1
100
AcDbLine
 10
154.032
 20
88.5624
 11
154.831
 21
88.5624
  0
LINE
  5
529
100
AcDbEntity
  8
0
  6
ByLayer
 62
    0
370
   -1
100
AcDbLine
 10
154.831
 20
88.5624
 11
154.831
 21
82.7624
  0
LINE
  5
52A
100
AcDbEntity
  8
0
  6
ByLayer
 62
    0
370
   -1
100
AcDbLine
 10
154.831
 20
82.7624
 11
154.032
 21
82.7624
  0
LINE
  5
52B
100
AcDbEntity
  8
0
  6
ByLayer
 62
    0
370
   -1
100
AcDbLine
 10
154.032
 20
82.7624
 11
154.032
 21
79.6618
  0
LINE
  5
52C
100
AcDbEntity
  8
0
  6
ByLayer
 62
    0
370
   -1
100
AcDbLine
 10
154.032
 20
79.6618
 11
154.831
 21
79.6618
  0
LINE
  5
52D
100
AcDbEntity
  8
0
  6
ByLayer
 62
    0
370
   -1
100
AcDbLine
 10
154.831
 20
79.6618
 11
154.831
 21
78.66240000000001
  0
LINE
  5
52E
100
AcDbEntity
  8
0
  6
ByLayer
 62
    0
370
   -1
100
AcDbLine
 10
154.831
 20
78.66240000000001
 11
168.832
 21
78.66240000000001
  0
LINE
  5
52F
100
AcDbEntity
  8
0
  6
ByLayer
 62
    0
370
   -1
100
AcDbLine
 10
168.832
 20
78.66240000000001
 11
168.832
 21
79.6618
  0
LINE
  5
530
100
AcDbEntity
  8
0
  6
ByLayer
 62
    0
370
   -1
100
AcDbLine
 10
168.832
 20
79.6618
 11
169.632
 21
79.6618
  0
LINE
  5
531
100
AcDbEntity
  8
0
  6
ByLayer
 62
    0
370
   -1
100
AcDbLine
 10
169.632
 20
79.6618
 11
169.632
 21
82.7624
  0
LINE
  5
532
100
AcDbEntity
  8
0
  6
ByLayer
 62
    0
370
   -1
100
AcDbLine
 10
169.632
 20
82.7624
 11
168.832
 21
82.7624
  0
LINE
  5
533
100
AcDbEntity
  8
0
  6
ByLayer
 62
    0
370
   -1
100
AcDbLine
 10
168.832
 20
82.7624
 11
168.832
 21
88.5624
  0
LINE
  5
534
100
AcDbEntity
  8
0
  6
ByLayer
 62
    0
370
   -1
100
AcDbLine
 10
168.832
 20
88.5624
 11
169.632
 21
88.5624
  0
LINE
  5
535
100
AcDbEntity
  8
0
  6
ByLayer
 62
    0
370
   -1
100
AcDbLine
 10
169.632
 20
88.5624
 11
169.632
 21
91.6615
  0
LINE
  5
536
100
AcDbEntity
  8
0
  6
ByLayer
 62
    0
370
   -1
100
AcDbLine
 10
169.632
 20
91.6615
 11
168.832
 21
91.6615
  0
LINE
  5
537
100
AcDbEntity
  8
0
  6
ByLayer
 62
    0
370
   -1
100
AcDbLine
 10
168.832
 20
91.6615
 11
168.832
 21
92.66200000000001
  0
LINE
  5
538
100
AcDbEntity
  8
0
  6
ByLayer
 62
    0
370
   -1
100
AcDbLine
 10
168.832
 20
92.66200000000001
 11
154.831
 21
92.66200000000001
  0
LINE
  5
539
100
AcDbEntity
  8
0
  6
ByLayer
 62
    0
370
   -1
100
AcDbLine
 10
173.882
 20
92.66200000000001
 11
173.882
 21
91.6615
  0
LINE
  5
53A
100
AcDbEntity
  8
0
  6
ByLayer
 62
    0
370
   -1
100
AcDbLine
 10
173.882
 20
91.6615
 11
173.082
 21
91.6615
  0
LINE
  5
53B
100
AcDbEntity
  8
0
  6
ByLayer
 62
    0
370
   -1
100
AcDbLine
 10
173.082
 20
91.6615
 11
173.082
 21
88.5624
  0
LINE
  5
53C
100
AcDbEntity
  8
0
  6
ByLayer
 62
    0
370
   -1
100
AcDbLine
 10
173.082
 20
88.5624
 11
173.882
 21
88.5624
  0
LINE
  5
53D
100
AcDbEntity
  8
0
  6
ByLayer
 62
    0
370
   -1
100
AcDbLine
 10
173.882
 20
88.5624
 11
173.882
 21
82.7624
  0
LINE
  5
53E
100
AcDbEntity
  8
0
  6
ByLayer
 62
    0
370
   -1
100
AcDbLine
 10
173.882
 20
82.7624
 11
173.082
 21
82.7624
  0
LINE
  5
53F
100
AcDbEntity
  8
0
  6
ByLayer
 62
    0
370
   -1
100
AcDbLine
 10
173.082
 20
82.7624
 11
173.082
 21
79.6618
  0
LINE
  5
540
100
AcDbEntity
  8
0
  6
ByLayer
 62
    0
370
   -1
100
AcDbLine
 10
173.082
 20
79.6618
 11
173.882
 21
79.6618
  0
LINE
  5
541
100
AcDbEntity
  8
0
  6
ByLayer
 62
    0
370
   -1
100
AcDbLine
 10
173.882
 20
79.6618
 11
173.882
 21
78.66240000000001
  0
LINE
  5
542
100
AcDbEntity
  8
0
  6
ByLayer
 62
    0
370
   -1
100
AcDbLine
 10
173.882
 20
78.66240000000001
 11
187.882
 21
78.66240000000001
  0
LINE
  5
543
100
AcDbEntity
  8
0
  6
ByLayer
 62
    0
370
   -1
100
AcDbLine
 10
187.882
 20
78.66240000000001
 11
187.882
 21
79.6618
  0
LINE
  5
544
100
AcDbEntity
  8
0
  6
ByLayer
 62
    0
370
   -1
100
AcDbLine
 10
187.882
 20
79.6618
 11
188.681
 21
79.6618
  0
LINE
  5
545
100
AcDbEntity
  8
0
  6
ByLayer
 62
    0
370
   -1
100
AcDbLine
 10
188.681
 20
79.6618
 11
188.681
 21
82.7624
  0
LINE
  5
546
100
AcDbEntity
  8
0
  6
ByLayer
 62
    0
370
   -1
100
AcDbLine
 10
188.681
 20
82.7624
 11
187.882
 21
82.7624
  0
LINE
  5
547
100
AcDbEntity
  8
0
  6
ByLayer
 62
    0
370
   -1
100
AcDbLine
 10
187.882
 20
82.7624
 11
187.882
 21
88.5624
  0
LINE
  5
548
100
AcDbEntity
  8
0
  6
ByLayer
 62
    0
370
   -1
100
AcDbLine
 10
187.882
 20
88.5624
 11
188.681
 21
88.5624
  0
LINE
  5
549
100
AcDbEntity
  8
0
  6
ByLayer
 62
    0
370
   -1
100
AcDbLine
 10
188.681
 20
88.5624
 11
188.681
 21
91.6615
  0
LINE
  5
54A
100
AcDbEntity
  8
0
  6
ByLayer
 62
    0
370
   -1
100
AcDbLine
 10
188.681
 20
91.6615
 11
187.882
 21
91.6615
  0
LINE
  5
54B
100
AcDbEntity
  8
0
  6
ByLayer
 62
    0
370
   -1
100
AcDbLine
 10
187.882
 20
91.6615
 11
187.882
 21
92.66200000000001
  0
LINE
  5
54C
100
AcDbEntity
  8
0
  6
ByLayer
 62
    0
370
   -1
100
AcDbLine
 10
187.882
 20
92.66200000000001
 11
173.882
 21
92.66200000000001
  0
LINE
  5
54D
100
AcDbEntity
  8
0
  6
ByLayer
 62
    0
370
   -1
100
AcDbLine
 10
192.931
 20
92.66200000000001
 11
192.931
 21
91.6615
  0
LINE
  5
54E
100
AcDbEntity
  8
0
  6
ByLayer
 62
    0
370
   -1
100
AcDbLine
 10
192.931
 20
91.6615
 11
192.132
 21
91.6615
  0
LINE
  5
54F
100
AcDbEntity
  8
0
  6
ByLayer
 62
    0
370
   -1
100
AcDbLine
 10
192.132
 20
91.6615
 11
192.132
 21
88.5624
  0
LINE
  5
550
100
AcDbEntity
  8
0
  6
ByLayer
 62
    0
370
   -1
100
AcDbLine
 10
192.132
 20
88.5624
 11
192.931
 21
88.5624
  0
LINE
  5
551
100
AcDbEntity
  8
0
  6
ByLayer
 62
    0
370
   -1
100
AcDbLine
 10
192.931
 20
88.5624
 11
192.931
 21
82.7624
  0
LINE
  5
552
100
AcDbEntity
  8
0
  6
ByLayer
 62
    0
370
   -1
100
AcDbLine
 10
192.931
 20
82.7624
 11
192.132
 21
82.7624
  0
LINE
  5
553
100
AcDbEntity
  8
0
  6
ByLayer
 62
    0
370
   -1
100
AcDbLine
 10
192.132
 20
82.7624
 11
192.132
 21
79.6618
  0
LINE
  5
554
100
AcDbEntity
  8
0
  6
ByLayer
 62
    0
370
   -1
100
AcDbLine
 10
192.132
 20
79.6618
 11
192.931
 21
79.6618
  0
LINE
  5
555
100
AcDbEntity
  8
0
  6
ByLayer
 62
    0
370
   -1
100
AcDbLine
 10
192.931
 20
79.6618
 11
192.931
 21
78.66240000000001
  0
LINE
  5
556
100
AcDbEntity
  8
0
  6
ByLayer
 62
    0
370
   -1
100
AcDbLine
 10
192.931
 20
78.66240000000001
 11
206.932
 21
78.66240000000001
  0
LINE
  5
557
100
AcDbEntity
  8
0
  6
ByLayer
 62
    0
370
   -1
100
AcDbLine
 10
206.932
 20
78.66240000000001
 11
206.932
 21
79.6618
  0
LINE
  5
558
100
AcDbEntity
  8
0
  6
ByLayer
 62
    0
370
   -1
100
AcDbLine
 10
206.932
 20
79.6618
 11
207.732
 21
79.6618
  0
LINE
  5
559
100
AcDbEntity
  8
0
  6
ByLayer
 62
    0
370
   -1
100
AcDbLine
 10
207.732
 20
79.6618
 11
207.732
 21
82.7624
  0
LINE
  5
55A
100
AcDbEntity
  8
0
  6
ByLayer
 62
    0
370
   -1
100
AcDbLine
 10
207.732
 20
82.7624
 11
206.932
 21
82.7624
  0
LINE
  5
55B
100
AcDbEntity
  8
0
  6
ByLayer
 62
    0
370
   -1
100
AcDbLine
 10
206.932
 20
82.7624
 11
206.932
 21
88.5624
  0
LINE
  5
55C
100
AcDbEntity
  8
0
  6
ByLayer
 62
    0
370
   -1
100
AcDbLine
 10
206.932
 20
88.5624
 11
207.732
 21
88.5624
  0
LINE
  5
55D
100
AcDbEntity
  8
0
  6
ByLayer
 62
    0
370
   -1
100
AcDbLine
 10
207.732
 20
88.5624
 11
207.732
 21
91.6615
  0
LINE
  5
55E
100
AcDbEntity
  8
0
  6
ByLayer
 62
    0
370
   -1
100
AcDbLine
 10
207.732
 20
91.6615
 11
206.932
 21
91.6615
  0
LINE
  5
55F
100
AcDbEntity
  8
0
  6
ByLayer
 62
    0
370
   -1
100
AcDbLine
 10
206.932
 20
91.6615
 11
206.932
 21
92.66200000000001
  0
LINE
  5
560
100
AcDbEntity
  8
0
  6
ByLayer
 62
    0
370
   -1
100
AcDbLine
 10
206.932
 20
92.66200000000001
 11
192.931
 21
92.66200000000001
  0
LINE
  5
561
100
AcDbEntity
  8
0
  6
ByLayer
 62
    0
370
   -1
100
AcDbLine
 10
211.982
 20
92.66200000000001
 11
211.982
 21
91.6615
  0
LINE
  5
562
100
AcDbEntity
  8
0
  6
ByLayer
 62
    0
370
   -1
100
AcDbLine
 10
211.982
 20
91.6615
 11
211.182
 21
91.6615
  0
LINE
  5
563
100
AcDbEntity
  8
0
  6
ByLayer
 62
    0
370
   -1
100
AcDbLine
 10
211.182
 20
91.6615
 11
211.182
 21
88.5624
  0
LINE
  5
564
100
AcDbEntity
  8
0
  6
ByLayer
 62
    0
370
   -1
100
AcDbLine
 10
211.182
 20
88.5624
 11
211.982
 21
88.5624
  0
LINE
  5
565
100
AcDbEntity
  8
0
  6
ByLayer
 62
    0
370
   -1
100
AcDbLine
 10
211.982
 20
88.5624
 11
211.982
 21
82.7624
  0
LINE
  5
566
100
AcDbEntity
  8
0
  6
ByLayer
 62
    0
370
   -1
100
AcDbLine
 10
211.982
 20
82.7624
 11
211.182
 21
82.7624
  0
LINE
  5
567
100
AcDbEntity
  8
0
  6
ByLayer
 62
    0
370
   -1
100
AcDbLine
 10
211.182
 20
82.7624
 11
211.182
 21
79.6618
  0
LINE
  5
568
100
AcDbEntity
  8
0
  6
ByLayer
 62
    0
370
   -1
100
AcDbLine
 10
211.182
 20
79.6618
 11
211.982
 21
79.6618
  0
LINE
  5
569
100
AcDbEntity
  8
0
  6
ByLayer
 62
    0
370
   -1
100
AcDbLine
 10
211.982
 20
79.6618
 11
211.982
 21
78.66240000000001
  0
LINE
  5
56A
100
AcDbEntity
  8
0
  6
ByLayer
 62
    0
370
   -1
100
AcDbLine
 10
211.982
 20
78.66240000000001
 11
225.982
 21
78.66240000000001
  0
LINE
  5
56B
100
AcDbEntity
  8
0
  6
ByLayer
 62
    0
370
   -1
100
AcDbLine
 10
225.982
 20
78.66240000000001
 11
225.982
 21
79.6618
  0
LINE
  5
56C
100
AcDbEntity
  8
0
  6
ByLayer
 62
    0
370
   -1
100
AcDbLine
 10
225.982
 20
79.6618
 11
226.782
 21
79.6618
  0
LINE
  5
56D
100
AcDbEntity
  8
0
  6
ByLayer
 62
    0
370
   -1
100
AcDbLine
 10
226.782
 20
79.6618
 11
226.782
 21
82.7624
  0
LINE
  5
56E
100
AcDbEntity
  8
0
  6
ByLayer
 62
    0
370
   -1
100
AcDbLine
 10
226.782
 20
82.7624
 11
225.982
 21
82.7624
  0
LINE
  5
56F
100
AcDbEntity
  8
0
  6
ByLayer
 62
    0
370
   -1
100
AcDbLine
 10
225.982
 20
82.7624
 11
225.982
 21
88.5624
  0
LINE
  5
570
100
AcDbEntity
  8
0
  6
ByLayer
 62
    0
370
   -1
100
AcDbLine
 10
225.982
 20
88.5624
 11
226.782
 21
88.5624
  0
LINE
  5
571
100
AcDbEntity
  8
0
  6
ByLayer
 62
    0
370
   -1
100
AcDbLine
 10
226.782
 20
88.5624
 11
226.782
 21
91.6615
  0
LINE
  5
572
100
AcDbEntity
  8
0
  6
ByLayer
 62
    0
370
   -1
100
AcDbLine
 10
226.782
 20
91.6615
 11
225.982
 21
91.6615
  0
LINE
  5
573
100
AcDbEntity
  8
0
  6
ByLayer
 62
    0
370
   -1
100
AcDbLine
 10
225.982
 20
91.6615
 11
225.982
 21
92.66200000000001
  0
LINE
  5
574
100
AcDbEntity
  8
0
  6
ByLayer
 62
    0
370
   -1
100
AcDbLine
 10
225.982
 20
92.66200000000001
 11
211.982
 21
92.66200000000001
  0
LINE
  5
575
100
AcDbEntity
  8
0
  6
ByLayer
 62
    0
370
   -1
100
AcDbLine
 10
231.032
 20
92.66200000000001
 11
231.032
 21
91.6615
  0
LINE
  5
576
100
AcDbEntity
  8
0
  6
ByLayer
 62
    0
370
   -1
100
AcDbLine
 10
231.032
 20
91.6615
 11
230.232
 21
91.6615
  0
LINE
  5
577
100
AcDbEntity
  8
0
  6
ByLayer
 62
    0
370
   -1
100
AcDbLine
 10
230.232
 20
91.6615
 11
230.232
 21
88.5624
  0
LINE
  5
578
100
AcDbEntity
  8
0
  6
ByLayer
 62
    0
370
   -1
100
AcDbLine
 10
230.232
 20
88.5624
 11
231.032
 21
88.5624
  0
LINE
  5
579
100
AcDbEntity
  8
0
  6
ByLayer
 62
    0
370
   -1
100
AcDbLine
 10
231.032
 20
88.5624
 11
231.032
 21
82.7624
  0
LINE
  5
57A
100
AcDbEntity
  8
0
  6
ByLayer
 62
    0
370
   -1
100
AcDbLine
 10
231.032
 20
82.7624
 11
230.232
 21
82.7624
  0
LINE
  5
57B
100
AcDbEntity
  8
0
  6
ByLayer
 62
    0
370
   -1
100
AcDbLine
 10
230.232
 20
82.7624
 11
230.232
 21
79.6618
  0
LINE
  5
57C
100
AcDbEntity
  8
0
  6
ByLayer
 62
    0
370
   -1
100
AcDbLine
 10
230.232
 20
79.6618
 11
231.032
 21
79.6618
  0
LINE
  5
57D
100
AcDbEntity
  8
0
  6
ByLayer
 62
    0
370
   -1
100
AcDbLine
 10
231.032
 20
79.6618
 11
231.032
 21
78.66240000000001
  0
LINE
  5
57E
100
AcDbEntity
  8
0
  6
ByLayer
 62
    0
370
   -1
100
AcDbLine
 10
231.032
 20
78.66240000000001
 11
245.032
 21
78.66240000000001
  0
LINE
  5
57F
100
AcDbEntity
  8
0
  6
ByLayer
 62
    0
370
   -1
100
AcDbLine
 10
245.032
 20
78.66240000000001
 11
245.032
 21
79.6618
  0
LINE
  5
580
100
AcDbEntity
  8
0
  6
ByLayer
 62
    0
370
   -1
100
AcDbLine
 10
245.032
 20
79.6618
 11
245.831
 21
79.6618
  0
LINE
  5
581
100
AcDbEntity
  8
0
  6
ByLayer
 62
    0
370
   -1
100
AcDbLine
 10
245.831
 20
79.6618
 11
245.831
 21
82.7624
  0
LINE
  5
582
100
AcDbEntity
  8
0
  6
ByLayer
 62
    0
370
   -1
100
AcDbLine
 10
245.831
 20
82.7624
 11
245.032
 21
82.7624
  0
LINE
  5
583
100
AcDbEntity
  8
0
  6
ByLayer
 62
    0
370
   -1
100
AcDbLine
 10
245.032
 20
82.7624
 11
245.032
 21
88.5624
  0
LINE
  5
584
100
AcDbEntity
  8
0
  6
ByLayer
 62
    0
370
   -1
100
AcDbLine
 10
245.032
 20
88.5624
 11
245.831
 21
88.5624
  0
LINE
  5
585
100
AcDbEntity
  8
0
  6
ByLayer
 62
    0
370
   -1
100
AcDbLine
 10
245.831
 20
88.5624
 11
245.831
 21
91.6615
  0
LINE
  5
586
100
AcDbEntity
  8
0
  6
ByLayer
 62
    0
370
   -1
100
AcDbLine
 10
245.831
 20
91.6615
 11
245.032
 21
91.6615
  0
LINE
  5
587
100
AcDbEntity
  8
0
  6
ByLayer
 62
    0
370
   -1
100
AcDbLine
 10
245.032
 20
91.6615
 11
245.032
 21
92.66200000000001
  0
LINE
  5
588
100
AcDbEntity
  8
0
  6
ByLayer
 62
    0
370
   -1
100
AcDbLine
 10
245.032
 20
92.66200000000001
 11
231.032
 21
92.66200000000001
  0
LINE
  5
589
100
AcDbEntity
  8
0
  6
ByLayer
 62
  256
370
   -1
100
AcDbLine
 10
266.462
 20
35.512
 11
269.131
 21
35.512
  0
LINE
  5
58A
100
AcDbEntity
  8
0
  6
ByLayer
 62
  256
370
   -1
100
AcDbLine
 10
266.462
 20
21.5126
 11
269.131
 21
21.5126
  0
LINE
  5
58B
100
AcDbEntity
  8
0
  6
ByLayer
 62
  256
370
   -1
100
AcDbLine
 10
271.225
 20
40.5613
 11
274.475
 21
40.5613
  0
LINE
  5
58C
100
AcDbEntity
  8
0
  6
ByLayer
 62
  256
370
   -1
100
AcDbLine
 10
274.475
 20
39.5912
 11
274.475
 21
40.5613
  0
LINE
  5
58D
100
AcDbEntity
  8
0
  6
ByLayer
 62
  256
370
   -1
100
AcDbLine
 10
280.75
 20
50.0874
 11
280.75
 21
49.8616
  0
LINE
  5
58E
100
AcDbEntity
  8
0
  6
ByLayer
 62
  256
370
   -1
100
AcDbLine
 10
280.75
 20
49.8616
 11
280.325
 21
49.8616
  0
LINE
  5
58F
100
AcDbEntity
  8
0
  6
ByLayer
 62
  256
370
   -1
100
AcDbLine
 10
279.75
 20
64.8878
 11
279.75
 21
65.61239999999999
  0
LINE
  5
590
100
AcDbEntity
  8
0
  6
ByLayer
 62
  256
370
   -1
100
AcDbLine
 10
279.28
 20
65.61239999999999
 11
279.75
 21
65.61239999999999
  0
LINE
  5
591
100
AcDbEntity
  8
0
  6
ByLayer
 62
  256
370
   -1
100
AcDbLine
 10
82.52670000000001
 20
17.4322
 11
83.98860000000001
 21
17.4322
  0
LINE
  5
592
100
AcDbEntity
  8
0
  6
ByLayer
 62
  256
370
   -1
100
AcDbLine
 10
106.325
 20
17.4322
 11
107.789
 21
17.4322
  0
LINE
  5
593
100
AcDbEntity
  8
0
  6
ByLayer
 62
  256
370
   -1
100
AcDbLine
 10
153.963
 20
17.4322
 11
155.425
 21
17.4322
  0
LINE
  5
594
100
AcDbEntity
  8
0
  6
ByLayer
 62
  256
370
   -1
100
AcDbLine
 10
177.763
 20
17.4322
 11
179.226
 21
17.4322
  0
LINE
  5
595
100
AcDbEntity
  8
0
  6
ByLayer
 62
  256
370
   -1
100
AcDbLine
 10
119.114
 20
11.7615
 11
119.114
 21
7.16167
  0
LINE
  5
596
100
AcDbEntity
  8
0
  6
ByLayer
 62
  256
370
   -1
100
AcDbLine
 10
142.638
 20
11.7615
 11
142.638
 21
7.16167
  0
LINE
  5
597
100
AcDbEntity
  8
0
  6
ByLayer
 62
  256
370
   -1
100
AcDbLine
 10
112.813
 20
11.7615
 11
112.813
 21
7.16167
  0
LINE
  5
598
100
AcDbEntity
  8
0
  6
ByLayer
 62
  256
370
   -1
100
AcDbLine
 10
148.937
 20
11.7615
 11
148.937
 21
7.16167
  0
LINE
  5
599
100
AcDbEntity
  8
0
  6
ByLayer
 62
  256
370
   -1
100
AcDbLine
 10
79.2261
 20
17.4322
 11
76.67700000000001
 21
17.4322
  0
LINE
  5
59A
100
AcDbEntity
  8
0
  6
ByLayer
 62
  256
370
   -1
100
AcDbLine
 10
76.67700000000001
 20
9.96184
 11
76.67700000000001
 21
17.4322
  0
LINE
  5
59B
100
AcDbEntity
  8
0
  6
ByLayer
 62
  256
370
   -1
100
AcDbLine
 10
76.67700000000001
 20
7.16167
 11
76.67700000000001
 21
3.93153
  0
LINE
  5
59C
100
AcDbEntity
  8
0
  6
ByLayer
 62
  256
370
   -1
100
AcDbLine
 10
77.501
 20
3.93153
 11
76.67700000000001
 21
3.93153
  0
LINE
  5
59D
100
AcDbEntity
  8
0
  6
ByLayer
 62
  256
370
   -1
100
AcDbLine
 10
111.088
 20
17.4322
 11
112.813
 21
17.4322
  0
LINE
  5
59E
100
AcDbEntity
  8
0
  6
ByLayer
 62
  256
370
   -1
100
AcDbLine
 10
112.813
 20
17.4322
 11
112.813
 21
16.2305
  0
LINE
  5
59F
100
AcDbEntity
  8
0
  6
ByLayer
 62
  256
370
   -1
100
AcDbLine
 10
150.664
 20
17.4322
 11
148.937
 21
17.4322
  0
LINE
  5
5A0
100
AcDbEntity
  8
0
  6
ByLayer
 62
  256
370
   -1
100
AcDbLine
 10
148.937
 20
16.2305
 11
148.937
 21
17.4322
  0
LINE
  5
5A1
100
AcDbEntity
  8
0
  6
ByLayer
 62
  256
370
   -1
100
AcDbLine
 10
182.527
 20
17.4322
 11
184.251
 21
17.4322
  0
LINE
  5
5A2
100
AcDbEntity
  8
0
  6
ByLayer
 62
  256
370
   -1
100
AcDbLine
 10
184.251
 20
17.4322
 11
185.075
 21
17.4322
  0
LINE
  5
5A3
100
AcDbEntity
  8
0
  6
ByLayer
 62
  256
370
   -1
100
AcDbLine
 10
185.075
 20
17.4322
 11
185.075
 21
9.96184
  0
LINE
  5
5A4
100
AcDbEntity
  8
0
  6
ByLayer
 62
  256
370
   -1
100
AcDbLine
 10
185.075
 20
7.16167
 11
185.075
 21
3.93153
  0
LINE
  5
5A5
100
AcDbEntity
  8
0
  6
ByLayer
 62
  256
370
   -1
100
AcDbLine
 10
184.251
 20
3.93153
 11
185.075
 21
3.93153
  0
LINE
  5
5A6
100
AcDbEntity
  8
0
  6
ByLayer
 62
  256
370
   -1
100
AcDbLine
 10
209.312
 20
16.4621
 11
211.982
 21
16.4621
  0
LINE
  5
5A7
100
AcDbEntity
  8
0
  6
ByLayer
 62
  256
370
   -1
100
AcDbLine
 10
209.312
 20
2.46255
 11
211.982
 21
2.46255
  0
LINE
  5
5A8
100
AcDbEntity
  8
0
  6
ByLayer
 62
  256
370
   -1
100
AcDbLine
 10
264.082
 20
16.4621
 11
266.75
 21
16.4621
  0
LINE
  5
5A9
100
AcDbEntity
  8
0
  6
ByLayer
 62
  256
370
   -1
100
AcDbLine
 10
264.082
 20
2.46255
 11
266.75
 21
2.46255
  0
ENDSEC
  0
SECTION
  2
OBJECTS
  0
DICTIONARY
  5
C
330
0
100
AcDbDictionary
281
    1
  3
ACAD_GROUP
350
D
  0
DICTIONARY
  5
D
330
C
100
AcDbDictionary
281
    1
  0
ENDSEC
  0
EOF
