M48
;DRILL file {KiCad 5.0.1-33cea8e~67~ubuntu16.04.1} date Wed 24 Oct 2018 09:16:34 PM EDT
;FORMAT={-:-/ absolute / inch / decimal}
FMAT,2
INCH,TZ
T1C0.0157
T2C0.0197
T3C0.0236
T4C0.0394
T5C0.0409
T6C0.0579
T7C0.0984
T8C0.0984
%
G90
G05
M72
T1
X0.124Y0.923
X0.1387Y1.895
X0.175Y0.158
X0.2462Y1.7534
X0.256Y2.4075
X0.3197Y2.0545
X0.3213Y2.2018
X0.3709Y0.5988
X0.3879Y3.0117
X0.497Y3.262
X0.5177Y3.119
X0.5536Y2.1866
X0.5803Y0.7553
X0.6019Y0.6404
X0.6027Y2.714
X0.6087Y2.3007
X0.6116Y2.1552
X0.6161Y1.2629
X0.6198Y0.905
X0.621Y3.445
X0.623Y1.5024
X0.632Y3.352
X0.6366Y1.9873
X0.6548Y2.3787
X0.6646Y1.3653
X0.6897Y2.6656
X0.7052Y2.1909
X0.7361Y2.9338
X0.7481Y2.2683
X0.7611Y2.9575
X0.7678Y1.978
X0.787Y3.604
X0.7887Y0.521
X0.7905Y3.1855
X0.809Y3.398
X0.8213Y2.2606
X0.8214Y3.1386
X0.8247Y3.241
X0.8285Y2.0302
X0.829Y1.358
X0.8422Y2.8637
X0.8628Y3.0591
X0.8634Y2.1031
X0.8786Y2.927
X0.8787Y2.7523
X0.881Y2.1298
X0.8958Y2.3399
X0.8989Y2.8709
X0.8989Y1.7882
X0.9Y2.0298
X0.9008Y2.7861
X0.9199Y2.0544
X0.936Y2.189
X0.937Y3.612
X0.9376Y1.8226
X0.9382Y1.5598
X0.9426Y2.0764
X0.965Y2.0988
X0.9717Y2.819
X0.9974Y1.6216
X1.0017Y2.929
X1.0391Y1.7267
X1.0427Y1.8073
X1.0647Y2.871
X1.0709Y0.7209
X1.0743Y1.8093
X1.075Y1.318
X1.077Y1.564
X1.0864Y2.1834
X1.0904Y2.1208
X1.0967Y0.959
X1.0993Y2.9176
X1.1025Y1.767
X1.1052Y2.3535
X1.117Y1.314
X1.121Y1.564
X1.1233Y2.0087
X1.1272Y3.0469
X1.1383Y2.0598
X1.1397Y2.4335
X1.142Y2.9466
X1.1442Y2.1274
X1.1692Y2.4211
X1.1784Y1.6465
X1.1834Y0.219
X1.1852Y2.2201
X1.1858Y2.3941
X1.192Y2.9715
X1.1941Y2.0112
X1.1971Y2.3645
X1.1973Y2.1722
X1.209Y1.8277
X1.2183Y2.2201
X1.2287Y1.6531
X1.2297Y2.032
X1.2361Y1.9988
X1.2498Y2.9964
X1.2776Y2.8022
X1.3037Y2.006
X1.3103Y2.0556
X1.3156Y1.738
X1.3212Y1.6957
X1.3279Y1.6464
X1.3349Y1.5943
X1.3386Y1.8861
X1.3819Y1.954
X1.3888Y3.2724
X1.4021Y1.7539
X1.4056Y2.4945
X1.4224Y1.1897
X1.4422Y1.7055
X1.4427Y2.335
X1.456Y2.1878
X1.4637Y2.096
X1.4756Y0.863
X1.4759Y2.2141
X1.4889Y2.244
X1.5221Y3.1335
X1.5347Y1.181
X1.5438Y2.2973
X1.5682Y1.7835
X1.5687Y2.019
X1.6154Y2.6862
X1.6264Y2.4732
X1.6279Y1.024
X1.6341Y2.2343
X1.6574Y1.5759
X1.6631Y3.2139
X1.667Y0.8921
X1.6858Y2.4295
X1.7646Y1.9543
X1.819Y1.7886
X1.8196Y0.2828
X1.8446Y1.9399
X1.8469Y0.9672
X1.8528Y1.6882
X1.8621Y0.6083
X1.876Y2.0879
X1.8839Y0.1374
X1.8847Y2.5956
X1.891Y1.575
X1.8949Y2.1221
X1.9287Y2.1366
X1.9455Y2.1685
X1.9926Y1.2579
X1.995Y1.7723
X2.0375Y2.8155
X2.043Y1.35
X2.0695Y1.3783
X2.0765Y1.5858
X2.154Y1.7051
X2.2772Y3.2134
X2.2877Y1.4642
X2.3699Y1.0275
X2.3713Y0.8906
X2.3897Y2.552
X2.568Y1.752
X2.5747Y2.5136
X2.5886Y0.9641
X2.7327Y1.5953
X2.7514Y0.2785
X2.7537Y1.7856
X2.7587Y2.4736
X2.7725Y0.1559
X2.7808Y1.7028
X2.8359Y0.737
X2.9837Y1.4822
X3.0016Y2.0992
X3.0544Y1.753
X3.0909Y1.0205
X3.1503Y3.2164
X3.326Y1.3894
X3.327Y2.5239
X3.3428Y0.9626
X3.4817Y1.652
X3.5008Y1.7726
X3.531Y2.4759
X3.6426Y3.2768
X3.6937Y2.827
X3.7088Y1.7226
X3.7347Y3.105
X3.7467Y1.5042
X3.8709Y0.8957
X3.8788Y1.0226
X3.9223Y3.2164
X4.071Y2.5219
X4.0948Y0.9666
X4.166Y1.7693
X4.2128Y0.5926
X4.2497Y1.6
X4.271Y2.4739
X4.319Y1.7091
X4.3453Y0.2751
X4.3855Y3.2714
X4.3926Y0.1547
X4.4797Y1.532
X4.579Y1.7718
X4.6364Y1.0181
X4.6564Y3.2147
X4.7256Y0.215
X4.7335Y0.6386
X4.775Y2.3343
X4.7914Y1.4311
X4.815Y2.5177
X4.8289Y0.9726
X4.9787Y2.178
X5.0021Y2.4779
X5.1348Y3.2784
X5.2119Y1.7319
X5.3674Y0.9043
X5.3749Y1.0181
X5.4103Y3.2189
X5.5701Y2.5139
X5.5717Y2.3843
X5.5954Y0.9691
X5.765Y2.4751
X5.8355Y0.1626
X5.8828Y3.2819
X5.8914Y2.3306
X6.1239Y1.0181
X6.1593Y3.2224
X6.3167Y2.5258
X6.3178Y0.6327
X6.3217Y0.0866
X6.326Y1.4063
X6.3374Y0.9656
X6.4825Y1.7668
X6.5468Y2.486
X6.6423Y3.2784
X6.7165Y1.7183
X6.785Y0.208
X6.8764Y1.0251
X6.9059Y3.2189
X7.022Y0.208
X7.0521Y3.0603
X7.0647Y2.5158
X7.0969Y0.9656
X7.1473Y0.513
X7.2137Y2.559
X7.25Y1.7693
X7.2526Y2.2262
X7.2708Y2.468
X7.3225Y0.2866
X7.3812Y2.5433
X7.4469Y0.1055
X7.471Y1.7199
X7.4792Y2.1154
X7.6253Y1.0207
X7.6682Y3.2084
X7.7949Y1.4378
X7.8206Y2.5078
X7.8665Y0.9666
X7.919Y2.397
X7.9992Y1.7742
X8.0131Y2.2262
X8.0248Y2.476
X8.1407Y3.2854
X8.201Y1.711
X8.289Y0.4378
X8.3678Y1.0223
X8.3705Y0.1665
X8.4172Y3.2189
X8.526Y0.645
X8.5308Y1.4378
X8.5586Y2.5118
X8.7622Y1.7742
X8.7823Y2.463
X8.8087Y2.251
X8.8932Y3.2819
X8.9402Y0.0642
X8.9599Y3.087
X8.9739Y1.7184
X9.022Y0.2252
X9.1193Y0.6461
X9.1253Y1.0309
X9.1347Y0.2087
X9.1735Y3.2214
X9.2571Y0.8157
X9.3275Y2.5185
X9.493Y0.0992
X9.5101Y2.9231
X9.5243Y2.469
X9.6291Y2.9217
X9.646Y3.2774
X9.898Y3.2319
X9.9087Y0.7126
X9.9902Y2.4894
X10.0516Y1.7835
X10.3445Y0.176
X10.406Y2.4336
X10.417Y2.2173
X10.4537Y2.926
X10.474Y2.5003
X10.5142Y2.9894
X10.554Y3.258
X10.56Y0.674
X10.605Y3.4559
X10.6115Y0.6043
X10.6354Y2.9776
X10.656Y0.9315
X10.6615Y1.637
X10.672Y3.206
X10.688Y2.79
X10.7229Y3.157
X10.783Y2.572
X10.801Y3.5224
X10.8585Y0.985
X10.9166Y2.2677
X10.98Y0.786
T2
X0.0687Y1.6027
X0.0687Y1.3979
X0.1491Y1.6027
X0.1491Y1.3979
X0.2215Y1.5727
X0.2215Y1.4279
X0.2515Y1.5003
X0.9011Y2.6263
X0.9276Y2.6903
X0.9276Y2.5623
X0.9916Y2.7168
X0.9916Y2.5357
X1.0557Y2.6903
X1.0557Y2.5623
X1.0822Y2.6263
X4.9995Y1.9649
X4.9995Y1.7838
X5.0468Y1.9649
X5.0468Y1.7838
X5.094Y1.9649
X5.094Y1.7838
X7.4523Y0.4609
X7.4523Y0.2798
X7.4995Y0.4609
X7.4995Y0.2798
X7.5468Y0.4609
X7.5468Y0.2798
X10.1905Y2.7168
X10.1905Y2.5357
X10.2377Y2.7168
X10.2377Y2.5357
X10.2849Y2.7175
X10.2849Y2.5357
X10.968Y1.5003
X10.998Y1.5727
X10.998Y1.4279
X11.0704Y1.6027
X11.0704Y1.3979
X11.1508Y1.6027
X11.1508Y1.3979
T4
X0.143Y2.5008
X0.143Y2.4008
X0.143Y2.3008
X0.143Y2.2008
X0.143Y2.1008
T5
X10.716Y0.1625
X10.816Y0.1625
X3.966Y0.1625
X4.066Y0.1625
X7.1535Y0.1625
X7.2535Y0.1625
X0.4035Y1.6625
X0.5035Y1.6625
X7.2473Y0.9125
X7.3472Y0.9125
X9.7785Y0.9125
X9.8785Y0.9125
X10.8097Y3.1625
X10.9097Y3.1625
X2.1847Y2.4125
X2.2847Y2.4125
X5.1848Y2.4125
X5.2847Y2.4125
X7.8098Y3.1625
X7.9097Y3.1625
X10.6222Y2.4125
X10.7222Y2.4125
X3.6847Y2.4125
X3.7847Y2.4125
X7.8098Y0.1625
X7.9097Y0.1625
X5.5598Y3.1625
X5.6597Y3.1625
X9.7785Y0.1625
X9.8785Y0.1625
X6.8723Y1.6625
X6.9722Y1.6625
X0.4972Y2.4125
X0.5972Y2.4125
X1.4347Y2.4125
X1.5348Y2.4125
X5.2785Y0.1625
X5.3785Y0.1625
X4.4348Y2.4125
X4.5347Y2.4125
X10.6222Y0.1625
X10.7222Y0.1625
X9.6847Y0.1625
X9.7847Y0.1625
X2.3722Y1.6625
X2.4722Y1.6625
X8.5597Y3.1625
X8.6597Y3.1625
X10.0597Y3.1625
X10.1597Y3.1625
X3.1222Y1.6625
X3.2222Y1.6625
X6.1223Y1.6625
X6.2222Y1.6625
X3.3097Y3.1625
X3.4097Y3.1625
X0.591Y1.6625
X0.691Y1.6625
X1.2472Y0.9125
X1.3473Y0.9125
X7.9035Y0.1625
X8.0035Y0.1625
X8.1847Y2.4125
X8.2847Y2.4125
X1.0597Y3.1625
X1.1598Y3.1625
X9.8722Y1.6625
X9.9722Y1.6625
X10.341Y1.6625
X10.441Y1.6625
X3.4972Y0.9125
X3.5972Y0.9125
X3.8722Y1.6625
X3.9722Y1.6625
X5.5598Y0.1625
X5.6597Y0.1625
X8.3722Y1.6625
X8.4722Y1.6625
X7.4348Y2.4125
X7.5347Y2.4125
X10.1535Y0.9125
X10.2535Y0.9125
X6.4035Y0.1625
X6.5035Y0.1625
X1.9972Y0.9125
X2.0972Y0.9125
X2.2785Y0.1625
X2.3785Y0.1625
X8.9347Y2.4125
X9.0347Y2.4125
X0.4972Y0.1625
X0.5972Y0.1625
X5.091Y0.1625
X5.191Y0.1625
X4.2473Y0.9125
X4.3472Y0.9125
X0.4035Y0.9125
X0.5035Y0.9125
X9.6847Y2.4125
X9.7847Y2.4125
X6.6848Y2.4125
X6.7847Y2.4125
X8.5597Y0.1625
X8.6597Y0.1625
X10.8097Y0.1625
X10.9097Y0.1625
X2.3722Y0.1625
X2.4722Y0.1625
X4.0598Y3.1625
X4.1597Y3.1625
X1.341Y0.1625
X1.441Y0.1625
X1.4347Y0.1625
X1.5348Y0.1625
X6.591Y0.1625
X6.691Y0.1625
X10.8097Y0.9125
X10.9097Y0.9125
X5.9348Y2.4125
X6.0347Y2.4125
X7.6223Y1.6625
X7.7222Y1.6625
X4.8098Y3.1625
X4.9097Y3.1625
X2.5597Y3.1625
X2.6597Y3.1625
X0.3097Y3.1625
X0.4098Y3.1625
X5.3723Y1.6625
X5.4722Y1.6625
X10.566Y2.2875
X10.566Y2.1875
X10.0597Y0.1625
X10.1597Y0.1625
X3.591Y0.1625
X3.691Y0.1625
X6.4973Y0.9125
X6.5972Y0.9125
X10.4347Y3.1625
X10.5347Y3.1625
X1.8097Y3.1625
X1.9098Y3.1625
X8.7472Y0.1625
X8.8472Y0.1625
X4.6223Y1.6625
X4.7222Y1.6625
X9.3097Y3.1625
X9.4097Y3.1625
X9.3097Y0.1625
X9.4097Y0.1625
X5.5598Y0.1625
X5.6597Y0.1625
X6.3098Y3.1625
X6.4097Y3.1625
X4.9973Y0.9125
X5.0972Y0.9125
X7.9973Y0.9125
X8.0972Y0.9125
X2.9347Y2.4125
X3.0347Y2.4125
X0.7785Y0.9125
X0.8785Y0.9125
X4.9035Y0.1625
X5.0035Y0.1625
X9.1222Y1.6625
X9.2222Y1.6625
X1.6222Y1.6625
X1.7223Y1.6625
X8.841Y0.1625
X8.941Y0.1625
X5.7473Y0.9125
X5.8472Y0.9125
X8.7472Y0.9125
X8.8472Y0.9125
X2.7472Y0.9125
X2.8472Y0.9125
X7.0598Y3.1625
X7.1597Y3.1625
X0.4035Y0.1625
X0.5035Y0.1625
X3.7785Y0.1625
X3.8785Y0.1625
T6
X3.3973Y1.2125
X3.6473Y1.3125
X3.7723Y1.9625
X4.0222Y2.0625
X5.4597Y0.4625
X5.7097Y0.5625
X8.2722Y1.9625
X8.5222Y2.0625
X7.3347Y2.7125
X7.5847Y2.8125
X10.0535Y1.2125
X10.3035Y1.3125
X6.3035Y0.4625
X6.5535Y0.5625
X1.8972Y1.2125
X2.1473Y1.3125
X2.1785Y0.4625
X2.4285Y0.5625
X8.8347Y2.7125
X9.0847Y2.8125
X0.3972Y0.4625
X0.6472Y0.5625
X4.991Y0.4625
X5.241Y0.5625
X4.1472Y1.2125
X4.3972Y1.3125
X0.3035Y1.2125
X0.5535Y1.3125
X9.5847Y2.7125
X9.8347Y2.8125
X6.5847Y2.7125
X6.8347Y2.8125
X8.4597Y0.4625
X8.7097Y0.5625
X10.7097Y0.4625
X10.9597Y0.5625
X2.2723Y0.4625
X2.5223Y0.5625
X3.9598Y3.4625
X4.2097Y3.5625
X1.241Y0.4625
X1.491Y0.5625
X1.3347Y0.4625
X1.5847Y0.5625
X6.491Y0.4625
X6.741Y0.5625
X10.7097Y1.2125
X10.9597Y1.3125
X5.8347Y2.7125
X6.0847Y2.8125
X7.5222Y1.9625
X7.7722Y2.0625
X4.7097Y3.4625
X4.9597Y3.5625
X2.4598Y3.4625
X2.7098Y3.5625
X0.2097Y3.4625
X0.4597Y3.5625
X5.2722Y1.9625
X5.5222Y2.0625
X10.866Y2.3875
X10.966Y2.1375
X9.9597Y0.4625
X10.2097Y0.5625
X3.491Y0.4625
X3.741Y0.5625
X6.3972Y1.2125
X6.6472Y1.3125
X10.3347Y3.4625
X10.5847Y3.5625
X1.7097Y3.4625
X1.9597Y3.5625
X8.6472Y0.4625
X8.8972Y0.5625
X4.5222Y1.9625
X4.7722Y2.0625
X9.2097Y3.4625
X9.4597Y3.5625
X9.2097Y0.4625
X9.4597Y0.5625
X5.4597Y0.4625
X5.7097Y0.5625
X6.2097Y3.4625
X6.4597Y3.5625
X4.8972Y1.2125
X5.1472Y1.3125
X7.8972Y1.2125
X8.1472Y1.3125
X2.8348Y2.7125
X3.0848Y2.8125
X0.6785Y1.2125
X0.9285Y1.3125
X4.8035Y0.4625
X5.0535Y0.5625
X9.0222Y1.9625
X9.2722Y2.0625
X1.5222Y1.9625
X1.7722Y2.0625
X8.741Y0.4625
X8.991Y0.5625
X5.6472Y1.2125
X5.8972Y1.3125
X8.6472Y1.2125
X8.8972Y1.3125
X2.6473Y1.2125
X2.8973Y1.3125
X6.9597Y3.4625
X7.2097Y3.5625
X0.3035Y0.4625
X0.5535Y0.5625
X3.6785Y0.4625
X3.9285Y0.5625
X10.616Y0.4625
X10.866Y0.5625
X3.866Y0.4625
X4.116Y0.5625
X7.0535Y0.4625
X7.3035Y0.5625
X0.3035Y1.9625
X0.5535Y2.0625
X7.1472Y1.2125
X7.3972Y1.3125
X9.6785Y1.2125
X9.9285Y1.3125
X10.7097Y3.4625
X10.9597Y3.5625
X2.0848Y2.7125
X2.3348Y2.8125
X5.0847Y2.7125
X5.3347Y2.8125
X7.7097Y3.4625
X7.9597Y3.5625
X10.5222Y2.7125
X10.7722Y2.8125
X3.5848Y2.7125
X3.8348Y2.8125
X7.7097Y0.4625
X7.9597Y0.5625
X5.4597Y3.4625
X5.7097Y3.5625
X9.6785Y0.4625
X9.9285Y0.5625
X6.7722Y1.9625
X7.0222Y2.0625
X0.3972Y2.7125
X0.6472Y2.8125
X1.3347Y2.7125
X1.5847Y2.8125
X5.1785Y0.4625
X5.4285Y0.5625
X4.3347Y2.7125
X4.5847Y2.8125
X10.5222Y0.4625
X10.7722Y0.5625
X9.5847Y0.4625
X9.8347Y0.5625
X2.2723Y1.9625
X2.5223Y2.0625
X8.4597Y3.4625
X8.7097Y3.5625
X9.9597Y3.4625
X10.2097Y3.5625
X3.0223Y1.9625
X3.2723Y2.0625
X6.0222Y1.9625
X6.2722Y2.0625
X3.2098Y3.4625
X3.4598Y3.5625
X0.491Y1.9625
X0.741Y2.0625
X1.1472Y1.2125
X1.3972Y1.3125
X7.8035Y0.4625
X8.0535Y0.5625
X8.0847Y2.7125
X8.3347Y2.8125
X0.9597Y3.4625
X1.2097Y3.5625
X9.7722Y1.9625
X10.0222Y2.0625
X10.241Y1.9625
X10.491Y2.0625
T8
X0.9916Y2.6263
T3
X0.547Y3.7114G85X0.547Y3.6878
G05
X0.547Y3.5567G85X0.547Y3.5134
G05
X0.8871Y3.7114G85X0.8871Y3.6878
G05
X0.8871Y3.5567G85X0.8871Y3.5134
G05
T7
X4.9975Y1.8743G85X5.096Y1.8743
G05
X7.4503Y0.3704G85X7.5488Y0.3704
G05
X10.1885Y2.6263G85X10.287Y2.6263
G05
T0
M30
