M48
;DRILL file {KiCad 4.0.7-e2-6376~58~ubuntu16.04.1} date Sun Jun 10 20:04:04 2018
;FORMAT={-:-/ absolute / inch / decimal}
FMAT,2
INCH,TZ
T1C0.026
T2C0.069
T3C0.120
T4C0.157
%
G90
G05
M72
T1
X3.6835Y-2.3495
T2
X3.2687Y-2.4375
X3.3625Y-3.9375
X3.3625Y-4.6875
X3.3625Y-5.4375
X3.4562Y-3.1875
X3.4562Y-5.4375
X3.55Y-3.9375
X3.6687Y-2.4375
X3.7375Y-4.6875
X3.7625Y-3.9375
X3.7625Y-4.6875
X3.7625Y-5.4375
X3.8562Y-3.1875
X3.8562Y-5.4375
X3.95Y-3.9375
X4.0187Y-2.4375
X4.1375Y-4.6875
X4.2062Y-4.6875
X4.3Y-5.4375
X4.3937Y-3.1875
X4.3937Y-5.4375
X4.4188Y-2.4375
X4.5812Y-3.9375
X4.6063Y-4.6875
X4.7Y-5.4375
X4.7687Y-2.4375
X4.7938Y-3.1875
X4.7938Y-5.4375
X4.9562Y-4.6875
X4.9813Y-3.9375
X5.1437Y-3.1875
X5.1688Y-2.4375
X5.2375Y-5.4375
X5.3312Y-3.9375
X5.3312Y-5.4375
X5.3563Y-4.6875
X5.5187Y-2.4375
X5.5438Y-3.1875
X5.6375Y-5.4375
X5.7062Y-4.6875
X5.7313Y-3.9375
X5.7313Y-5.4375
X5.8937Y-3.1875
X5.9188Y-2.4375
X6.0812Y-3.9375
X6.1063Y-4.6875
X6.2687Y-2.4375
X6.2938Y-3.1875
X6.4562Y-4.6875
X6.4813Y-3.9375
X6.55Y-5.4375
X6.6437Y-3.1875
X6.6688Y-2.4375
X6.7375Y-5.4375
X6.8312Y-3.9375
X6.8563Y-4.6875
X6.925Y-5.4375
X6.95Y-5.4375
X7.0187Y-2.4375
X7.0438Y-3.1875
X7.1375Y-5.4375
X7.2062Y-4.6875
X7.2313Y-3.9375
X7.325Y-5.4375
X7.3937Y-3.1875
X7.4188Y-2.4375
X7.5812Y-3.9375
X7.6063Y-4.6875
X7.7687Y-2.4375
X7.7938Y-3.1875
X7.8625Y-5.4375
X7.9562Y-4.6875
X7.9813Y-3.9375
X8.05Y-5.4375
X8.1437Y-3.1875
X8.1687Y-2.4375
X8.2375Y-5.4375
X8.2625Y-5.4375
X8.3312Y-3.9375
X8.3562Y-4.6875
X8.45Y-5.4375
X8.5187Y-2.4375
X8.5187Y-5.4375
X8.5187Y-5.4375
X8.5437Y-3.1875
X8.6375Y-5.4375
X8.7062Y-4.6875
X8.7312Y-3.9375
X8.8937Y-3.1875
X8.9187Y-2.4375
X8.9187Y-5.4375
X8.9187Y-5.4375
X9.0812Y-3.9375
X9.1062Y-4.6875
X9.2687Y-2.4375
X9.2937Y-3.1875
X9.3625Y-5.4375
X9.4562Y-4.6875
X9.4812Y-3.9375
X9.55Y-5.4375
X9.6437Y-3.1875
X9.6687Y-2.4375
X9.7625Y-5.4375
X9.8312Y-3.9375
X9.8562Y-4.6875
X9.95Y-5.4375
X10.0187Y-2.4375
X10.0437Y-3.1875
X10.1125Y-5.4375
X10.2062Y-4.6875
X10.2312Y-3.9375
X10.3937Y-3.1875
X10.4187Y-2.4375
X10.5125Y-5.4375
X10.5812Y-3.9375
X10.6062Y-4.6875
X10.7687Y-2.4375
X10.7687Y-5.4375
X10.7937Y-3.1875
X10.8625Y-5.4375
X10.9562Y-4.6875
X10.9812Y-3.9375
X11.1437Y-3.1875
X11.1687Y-2.4375
X11.1687Y-5.4375
X11.2625Y-5.4375
X11.3312Y-3.9375
X11.3562Y-4.6875
X11.5187Y-2.4375
X11.5187Y-5.4375
X11.5437Y-3.1875
X11.7062Y-4.6875
X11.7062Y-5.4375
X11.7312Y-3.9375
X11.8Y-5.4375
X11.8937Y-3.1875
X11.9187Y-2.4375
X11.9187Y-5.4375
X12.0812Y-3.9375
X12.1062Y-4.6875
X12.1062Y-5.4375
X12.2Y-5.4375
X12.2687Y-2.4375
X12.2687Y-5.4375
X12.2937Y-3.1875
X12.4812Y-3.9375
X12.6437Y-3.1875
X12.6437Y-5.4375
X12.6687Y-2.4375
X12.6687Y-5.4375
X12.7375Y-4.6875
X12.7375Y-5.4375
X12.8312Y-3.9375
X13.0187Y-2.4375
X13.0187Y-5.4375
X13.0437Y-3.1875
X13.0437Y-5.4375
X13.1125Y-4.6875
X13.1375Y-4.6875
X13.1375Y-5.4375
X13.2312Y-3.9375
X13.3Y-3.9375
X13.3937Y-2.4375
X13.4187Y-2.4375
X13.4187Y-5.4375
X13.5125Y-4.6875
X13.5812Y-3.1875
X13.5812Y-5.4375
X13.675Y-5.4375
X13.7Y-3.9375
X13.7687Y-2.4375
X13.7687Y-4.6875
X13.7687Y-5.4375
X13.7937Y-2.4375
X13.875Y-3.3625
X13.875Y-3.7625
X13.9812Y-3.1875
X13.9812Y-5.4375
X14.075Y-5.4375
X14.1687Y-2.4375
X14.1687Y-4.6875
X14.1687Y-5.4375
T3
X3.4675Y-4.4125
X4.4075Y-4.4125
X6.28Y-5.7125
X6.2815Y-5.7125
X6.4675Y-5.7125
X6.4688Y-5.7125
X6.655Y-5.7125
X7.22Y-5.7125
X7.4075Y-5.7125
X7.595Y-5.7125
X9.0925Y-5.7125
X9.28Y-5.7125
X9.8425Y-5.7125
X10.0325Y-5.7125
X10.2185Y-5.7125
X10.22Y-5.7125
X10.7825Y-5.7125
X10.9688Y-5.7125
X12.8425Y-4.4125
X13.03Y-3.6625
X13.1237Y-2.1625
X13.7825Y-4.4125
X13.97Y-3.6625
X14.0637Y-2.1625
X14.15Y-3.0925
X14.15Y-4.0325
T4
X3.4675Y-5.0125
X3.4688Y-2.4375
X3.5625Y-3.9375
X3.5625Y-4.6875
X3.5625Y-5.4375
X3.6562Y-3.1875
X3.6562Y-5.4375
X3.75Y-3.9375
X3.9375Y-4.6875
X4.2188Y-2.4375
X4.4062Y-4.6875
X4.4075Y-5.0125
X4.5Y-5.4375
X4.5938Y-3.1875
X4.5938Y-5.4375
X4.7812Y-3.9375
X4.9688Y-2.4375
X5.1562Y-4.6875
X5.3438Y-3.1875
X5.4375Y-5.4375
X5.5312Y-3.9375
X5.5312Y-5.4375
X5.7188Y-2.4375
X5.9062Y-4.6875
X6.0938Y-3.1875
X6.28Y-5.1125
X6.2812Y-3.9375
X6.2815Y-5.1125
X6.4675Y-5.1125
X6.4688Y-2.4375
X6.4688Y-5.1125
X6.655Y-5.1125
X6.6562Y-4.6875
X6.75Y-5.4375
X6.8438Y-3.1875
X6.9375Y-5.4375
X7.0312Y-3.9375
X7.125Y-5.4375
X7.2188Y-2.4375
X7.22Y-5.1125
X7.4062Y-4.6875
X7.4075Y-5.1125
X7.5938Y-3.1875
X7.595Y-5.1125
X7.7812Y-3.9375
X7.9688Y-2.4375
X8.0625Y-5.4375
X8.1562Y-4.6875
X8.25Y-5.4375
X8.3438Y-3.1875
X8.4375Y-5.4375
X8.5312Y-3.9375
X8.7188Y-2.4375
X8.7188Y-5.4375
X8.7188Y-5.4375
X8.9062Y-4.6875
X9.0925Y-5.1125
X9.0938Y-3.1875
X9.28Y-5.1125
X9.2812Y-3.9375
X9.4688Y-2.4375
X9.5625Y-5.4375
X9.6562Y-4.6875
X9.75Y-5.4375
X9.8425Y-5.1125
X9.8438Y-3.1875
X10.0312Y-3.9375
X10.0325Y-5.1125
X10.2185Y-5.1125
X10.2188Y-2.4375
X10.22Y-5.1125
X10.3125Y-5.4375
X10.4062Y-4.6875
X10.5938Y-3.1875
X10.7812Y-3.9375
X10.7825Y-5.1125
X10.9688Y-2.4375
X10.9688Y-5.1125
X10.9688Y-5.4375
X11.0625Y-5.4375
X11.1562Y-4.6875
X11.3438Y-3.1875
X11.5312Y-3.9375
X11.7188Y-2.4375
X11.7188Y-5.4375
X11.9062Y-4.6875
X11.9062Y-5.4375
X12.Y-5.4375
X12.0938Y-3.1875
X12.2812Y-3.9375
X12.4688Y-2.4375
X12.4688Y-5.4375
X12.8425Y-5.0125
X12.8438Y-3.1875
X12.8438Y-5.4375
X12.9375Y-4.6875
X12.9375Y-5.4375
X13.03Y-4.2625
X13.0312Y-3.9375
X13.1237Y-2.7625
X13.2188Y-2.4375
X13.2188Y-5.4375
X13.3125Y-4.6875
X13.5Y-3.9375
X13.55Y-3.0925
X13.55Y-4.0325
X13.5938Y-2.4375
X13.7812Y-3.1875
X13.7812Y-5.4375
X13.7825Y-5.0125
X13.875Y-3.5625
X13.875Y-5.4375
X13.9688Y-2.4375
X13.9688Y-4.6875
X13.9688Y-5.4375
X13.97Y-4.2625
X14.0637Y-2.7625
T1
X3.9611Y-2.3495G85X3.9729Y-2.3495
G05
T0
M30
