G04 #@! TF.GenerationSoftware,KiCad,Pcbnew,5.0.1-33cea8e~67~ubuntu16.04.1*
G04 #@! TF.CreationDate,2019-01-11T20:29:31+00:00*
G04 #@! TF.ProjectId,co60,636F36302E6B696361645F7063620000,rev?*
G04 #@! TF.SameCoordinates,PX4b4f718PY8c7ecc0*
G04 #@! TF.FileFunction,Legend,Top*
G04 #@! TF.FilePolarity,Positive*
%FSLAX46Y46*%
G04 Gerber Fmt 4.6, Leading zero omitted, Abs format (unit mm)*
G04 Created by KiCad (PCBNEW 5.0.1-33cea8e~67~ubuntu16.04.1) date Fri 11 Jan 2019 08:29:31 PM UTC*
%MOMM*%
%LPD*%
G01*
G04 APERTURE LIST*
%ADD10C,0.300000*%
%ADD11C,0.120000*%
%ADD12C,0.150000*%
G04 APERTURE END LIST*
D10*
X174033780Y74615239D02*
X174033780Y76615239D01*
X174890923Y74615239D02*
X174890923Y75662858D01*
X174795685Y75853334D01*
X174605209Y75948572D01*
X174319495Y75948572D01*
X174129019Y75853334D01*
X174033780Y75758096D01*
X175557590Y75948572D02*
X176319495Y75948572D01*
X175843304Y76615239D02*
X175843304Y74900953D01*
X175938542Y74710477D01*
X176129019Y74615239D01*
X176319495Y74615239D01*
X176700447Y75948572D02*
X177462352Y75948572D01*
X176986161Y76615239D02*
X176986161Y74900953D01*
X177081400Y74710477D01*
X177271876Y74615239D01*
X177462352Y74615239D01*
X178129019Y75948572D02*
X178129019Y73948572D01*
X178129019Y75853334D02*
X178319495Y75948572D01*
X178700447Y75948572D01*
X178890923Y75853334D01*
X178986161Y75758096D01*
X179081400Y75567620D01*
X179081400Y74996191D01*
X178986161Y74805715D01*
X178890923Y74710477D01*
X178700447Y74615239D01*
X178319495Y74615239D01*
X178129019Y74710477D01*
X179843304Y74710477D02*
X180033780Y74615239D01*
X180414733Y74615239D01*
X180605209Y74710477D01*
X180700447Y74900953D01*
X180700447Y74996191D01*
X180605209Y75186667D01*
X180414733Y75281905D01*
X180129019Y75281905D01*
X179938542Y75377143D01*
X179843304Y75567620D01*
X179843304Y75662858D01*
X179938542Y75853334D01*
X180129019Y75948572D01*
X180414733Y75948572D01*
X180605209Y75853334D01*
X181557590Y74805715D02*
X181652828Y74710477D01*
X181557590Y74615239D01*
X181462352Y74710477D01*
X181557590Y74805715D01*
X181557590Y74615239D01*
X181557590Y75853334D02*
X181652828Y75758096D01*
X181557590Y75662858D01*
X181462352Y75758096D01*
X181557590Y75853334D01*
X181557590Y75662858D01*
X183938542Y76710477D02*
X182224257Y74139048D01*
X186033780Y76710477D02*
X184319495Y74139048D01*
X187557590Y75948572D02*
X187557590Y74329524D01*
X187462352Y74139048D01*
X187367114Y74043810D01*
X187176638Y73948572D01*
X186890923Y73948572D01*
X186700447Y74043810D01*
X187557590Y74710477D02*
X187367114Y74615239D01*
X186986161Y74615239D01*
X186795685Y74710477D01*
X186700447Y74805715D01*
X186605209Y74996191D01*
X186605209Y75567620D01*
X186700447Y75758096D01*
X186795685Y75853334D01*
X186986161Y75948572D01*
X187367114Y75948572D01*
X187557590Y75853334D01*
X188509971Y74615239D02*
X188509971Y75948572D01*
X188509971Y76615239D02*
X188414733Y76520000D01*
X188509971Y76424762D01*
X188605209Y76520000D01*
X188509971Y76615239D01*
X188509971Y76424762D01*
X189176638Y75948572D02*
X189938542Y75948572D01*
X189462352Y76615239D02*
X189462352Y74900953D01*
X189557590Y74710477D01*
X189748066Y74615239D01*
X189938542Y74615239D01*
X190605209Y74615239D02*
X190605209Y76615239D01*
X191462352Y74615239D02*
X191462352Y75662858D01*
X191367114Y75853334D01*
X191176638Y75948572D01*
X190890923Y75948572D01*
X190700447Y75853334D01*
X190605209Y75758096D01*
X193271876Y75948572D02*
X193271876Y74615239D01*
X192414733Y75948572D02*
X192414733Y74900953D01*
X192509971Y74710477D01*
X192700447Y74615239D01*
X192986161Y74615239D01*
X193176638Y74710477D01*
X193271876Y74805715D01*
X194224257Y74615239D02*
X194224257Y76615239D01*
X194224257Y75853334D02*
X194414733Y75948572D01*
X194795685Y75948572D01*
X194986161Y75853334D01*
X195081400Y75758096D01*
X195176638Y75567620D01*
X195176638Y74996191D01*
X195081400Y74805715D01*
X194986161Y74710477D01*
X194795685Y74615239D01*
X194414733Y74615239D01*
X194224257Y74710477D01*
X196033780Y74805715D02*
X196129019Y74710477D01*
X196033780Y74615239D01*
X195938542Y74710477D01*
X196033780Y74805715D01*
X196033780Y74615239D01*
X197843304Y74710477D02*
X197652828Y74615239D01*
X197271876Y74615239D01*
X197081400Y74710477D01*
X196986161Y74805715D01*
X196890923Y74996191D01*
X196890923Y75567620D01*
X196986161Y75758096D01*
X197081400Y75853334D01*
X197271876Y75948572D01*
X197652828Y75948572D01*
X197843304Y75853334D01*
X198986161Y74615239D02*
X198795685Y74710477D01*
X198700447Y74805715D01*
X198605209Y74996191D01*
X198605209Y75567620D01*
X198700447Y75758096D01*
X198795685Y75853334D01*
X198986161Y75948572D01*
X199271876Y75948572D01*
X199462352Y75853334D01*
X199557590Y75758096D01*
X199652828Y75567620D01*
X199652828Y74996191D01*
X199557590Y74805715D01*
X199462352Y74710477D01*
X199271876Y74615239D01*
X198986161Y74615239D01*
X200509971Y74615239D02*
X200509971Y75948572D01*
X200509971Y75758096D02*
X200605209Y75853334D01*
X200795685Y75948572D01*
X201081400Y75948572D01*
X201271876Y75853334D01*
X201367114Y75662858D01*
X201367114Y74615239D01*
X201367114Y75662858D02*
X201462352Y75853334D01*
X201652828Y75948572D01*
X201938542Y75948572D01*
X202129019Y75853334D01*
X202224257Y75662858D01*
X202224257Y74615239D01*
X204605209Y76710477D02*
X202890923Y74139048D01*
X205271876Y75948572D02*
X205271876Y74234286D01*
X205176638Y74043810D01*
X204986161Y73948572D01*
X204890923Y73948572D01*
X205271876Y76615239D02*
X205176638Y76520000D01*
X205271876Y76424762D01*
X205367114Y76520000D01*
X205271876Y76615239D01*
X205271876Y76424762D01*
X206224257Y74615239D02*
X206224257Y75948572D01*
X206224257Y75758096D02*
X206319495Y75853334D01*
X206509971Y75948572D01*
X206795685Y75948572D01*
X206986161Y75853334D01*
X207081400Y75662858D01*
X207081400Y74615239D01*
X207081400Y75662858D02*
X207176638Y75853334D01*
X207367114Y75948572D01*
X207652828Y75948572D01*
X207843304Y75853334D01*
X207938542Y75662858D01*
X207938542Y74615239D01*
X209748066Y74615239D02*
X209748066Y76615239D01*
X209748066Y74710477D02*
X209557590Y74615239D01*
X209176638Y74615239D01*
X208986161Y74710477D01*
X208890923Y74805715D01*
X208795685Y74996191D01*
X208795685Y75567620D01*
X208890923Y75758096D01*
X208986161Y75853334D01*
X209176638Y75948572D01*
X209557590Y75948572D01*
X209748066Y75853334D01*
X211557590Y74615239D02*
X211557590Y75662858D01*
X211462352Y75853334D01*
X211271876Y75948572D01*
X210890923Y75948572D01*
X210700447Y75853334D01*
X211557590Y74710477D02*
X211367114Y74615239D01*
X210890923Y74615239D01*
X210700447Y74710477D01*
X210605209Y74900953D01*
X210605209Y75091429D01*
X210700447Y75281905D01*
X210890923Y75377143D01*
X211367114Y75377143D01*
X211557590Y75472381D01*
X212795685Y74615239D02*
X212605209Y74710477D01*
X212509971Y74900953D01*
X212509971Y76615239D01*
X213367114Y75948572D02*
X213843304Y74615239D01*
X214319495Y75948572D02*
X213843304Y74615239D01*
X213652828Y74139048D01*
X213557590Y74043810D01*
X213367114Y73948572D01*
X216509971Y76710477D02*
X214795685Y74139048D01*
X218319495Y74805715D02*
X218224257Y74710477D01*
X217938542Y74615239D01*
X217748066Y74615239D01*
X217462352Y74710477D01*
X217271876Y74900953D01*
X217176638Y75091429D01*
X217081400Y75472381D01*
X217081400Y75758096D01*
X217176638Y76139048D01*
X217271876Y76329524D01*
X217462352Y76520000D01*
X217748066Y76615239D01*
X217938542Y76615239D01*
X218224257Y76520000D01*
X218319495Y76424762D01*
X219557590Y76615239D02*
X219938542Y76615239D01*
X220129019Y76520000D01*
X220319495Y76329524D01*
X220414733Y75948572D01*
X220414733Y75281905D01*
X220319495Y74900953D01*
X220129019Y74710477D01*
X219938542Y74615239D01*
X219557590Y74615239D01*
X219367114Y74710477D01*
X219176638Y74900953D01*
X219081400Y75281905D01*
X219081400Y75948572D01*
X219176638Y76329524D01*
X219367114Y76520000D01*
X219557590Y76615239D01*
X222129019Y76615239D02*
X221748066Y76615239D01*
X221557590Y76520000D01*
X221462352Y76424762D01*
X221271876Y76139048D01*
X221176638Y75758096D01*
X221176638Y74996191D01*
X221271876Y74805715D01*
X221367114Y74710477D01*
X221557590Y74615239D01*
X221938542Y74615239D01*
X222129019Y74710477D01*
X222224257Y74805715D01*
X222319495Y74996191D01*
X222319495Y75472381D01*
X222224257Y75662858D01*
X222129019Y75758096D01*
X221938542Y75853334D01*
X221557590Y75853334D01*
X221367114Y75758096D01*
X221271876Y75662858D01*
X221176638Y75472381D01*
X223557590Y76615239D02*
X223748066Y76615239D01*
X223938542Y76520000D01*
X224033780Y76424762D01*
X224129019Y76234286D01*
X224224257Y75853334D01*
X224224257Y75377143D01*
X224129019Y74996191D01*
X224033780Y74805715D01*
X223938542Y74710477D01*
X223748066Y74615239D01*
X223557590Y74615239D01*
X223367114Y74710477D01*
X223271876Y74805715D01*
X223176638Y74996191D01*
X223081400Y75377143D01*
X223081400Y75853334D01*
X223176638Y76234286D01*
X223271876Y76424762D01*
X223367114Y76520000D01*
X223557590Y76615239D01*
X36152200Y36268115D02*
X36056961Y36172877D01*
X35771247Y36077639D01*
X35580771Y36077639D01*
X35295057Y36172877D01*
X35104580Y36363353D01*
X35009342Y36553829D01*
X34914104Y36934781D01*
X34914104Y37220496D01*
X35009342Y37601448D01*
X35104580Y37791924D01*
X35295057Y37982400D01*
X35580771Y38077639D01*
X35771247Y38077639D01*
X36056961Y37982400D01*
X36152200Y37887162D01*
X37390295Y38077639D02*
X37771247Y38077639D01*
X37961723Y37982400D01*
X38152200Y37791924D01*
X38247438Y37410972D01*
X38247438Y36744305D01*
X38152200Y36363353D01*
X37961723Y36172877D01*
X37771247Y36077639D01*
X37390295Y36077639D01*
X37199819Y36172877D01*
X37009342Y36363353D01*
X36914104Y36744305D01*
X36914104Y37410972D01*
X37009342Y37791924D01*
X37199819Y37982400D01*
X37390295Y38077639D01*
X39961723Y38077639D02*
X39580771Y38077639D01*
X39390295Y37982400D01*
X39295057Y37887162D01*
X39104580Y37601448D01*
X39009342Y37220496D01*
X39009342Y36458591D01*
X39104580Y36268115D01*
X39199819Y36172877D01*
X39390295Y36077639D01*
X39771247Y36077639D01*
X39961723Y36172877D01*
X40056961Y36268115D01*
X40152200Y36458591D01*
X40152200Y36934781D01*
X40056961Y37125258D01*
X39961723Y37220496D01*
X39771247Y37315734D01*
X39390295Y37315734D01*
X39199819Y37220496D01*
X39104580Y37125258D01*
X39009342Y36934781D01*
X41390295Y38077639D02*
X41580771Y38077639D01*
X41771247Y37982400D01*
X41866485Y37887162D01*
X41961723Y37696686D01*
X42056961Y37315734D01*
X42056961Y36839543D01*
X41961723Y36458591D01*
X41866485Y36268115D01*
X41771247Y36172877D01*
X41580771Y36077639D01*
X41390295Y36077639D01*
X41199819Y36172877D01*
X41104580Y36268115D01*
X41009342Y36458591D01*
X40914104Y36839543D01*
X40914104Y37315734D01*
X41009342Y37696686D01*
X41104580Y37887162D01*
X41199819Y37982400D01*
X41390295Y38077639D01*
X44437914Y36077639D02*
X44437914Y38077639D01*
X45199819Y38077639D01*
X45390295Y37982400D01*
X45485533Y37887162D01*
X45580771Y37696686D01*
X45580771Y37410972D01*
X45485533Y37220496D01*
X45390295Y37125258D01*
X45199819Y37030020D01*
X44437914Y37030020D01*
X47580771Y36268115D02*
X47485533Y36172877D01*
X47199819Y36077639D01*
X47009342Y36077639D01*
X46723628Y36172877D01*
X46533152Y36363353D01*
X46437914Y36553829D01*
X46342676Y36934781D01*
X46342676Y37220496D01*
X46437914Y37601448D01*
X46533152Y37791924D01*
X46723628Y37982400D01*
X47009342Y38077639D01*
X47199819Y38077639D01*
X47485533Y37982400D01*
X47580771Y37887162D01*
X49104580Y37125258D02*
X49390295Y37030020D01*
X49485533Y36934781D01*
X49580771Y36744305D01*
X49580771Y36458591D01*
X49485533Y36268115D01*
X49390295Y36172877D01*
X49199819Y36077639D01*
X48437914Y36077639D01*
X48437914Y38077639D01*
X49104580Y38077639D01*
X49295057Y37982400D01*
X49390295Y37887162D01*
X49485533Y37696686D01*
X49485533Y37506210D01*
X49390295Y37315734D01*
X49295057Y37220496D01*
X49104580Y37125258D01*
X48437914Y37125258D01*
X51961723Y36839543D02*
X53485533Y36839543D01*
X57104580Y36077639D02*
X56437914Y37030020D01*
X55961723Y36077639D02*
X55961723Y38077639D01*
X56723628Y38077639D01*
X56914104Y37982400D01*
X57009342Y37887162D01*
X57104580Y37696686D01*
X57104580Y37410972D01*
X57009342Y37220496D01*
X56914104Y37125258D01*
X56723628Y37030020D01*
X55961723Y37030020D01*
X58723628Y36172877D02*
X58533152Y36077639D01*
X58152200Y36077639D01*
X57961723Y36172877D01*
X57866485Y36363353D01*
X57866485Y37125258D01*
X57961723Y37315734D01*
X58152200Y37410972D01*
X58533152Y37410972D01*
X58723628Y37315734D01*
X58818866Y37125258D01*
X58818866Y36934781D01*
X57866485Y36744305D01*
X59485533Y37410972D02*
X59961723Y36077639D01*
X60437914Y37410972D01*
X61199819Y36268115D02*
X61295057Y36172877D01*
X61199819Y36077639D01*
X61104580Y36172877D01*
X61199819Y36268115D01*
X61199819Y36077639D01*
X63485533Y38077639D02*
X64818866Y38077639D01*
X63961723Y36077639D01*
X65580771Y36268115D02*
X65676009Y36172877D01*
X65580771Y36077639D01*
X65485533Y36172877D01*
X65580771Y36268115D01*
X65580771Y36077639D01*
X68056961Y36077639D02*
X68056961Y38077639D01*
X68533152Y38077639D01*
X68818866Y37982400D01*
X69009342Y37791924D01*
X69104580Y37601448D01*
X69199819Y37220496D01*
X69199819Y36934781D01*
X69104580Y36553829D01*
X69009342Y36363353D01*
X68818866Y36172877D01*
X68533152Y36077639D01*
X68056961Y36077639D01*
X70818866Y36172877D02*
X70628390Y36077639D01*
X70247438Y36077639D01*
X70056961Y36172877D01*
X69961723Y36363353D01*
X69961723Y37125258D01*
X70056961Y37315734D01*
X70247438Y37410972D01*
X70628390Y37410972D01*
X70818866Y37315734D01*
X70914104Y37125258D01*
X70914104Y36934781D01*
X69961723Y36744305D01*
X71676009Y36172877D02*
X71866485Y36077639D01*
X72247438Y36077639D01*
X72437914Y36172877D01*
X72533152Y36363353D01*
X72533152Y36458591D01*
X72437914Y36649067D01*
X72247438Y36744305D01*
X71961723Y36744305D01*
X71771247Y36839543D01*
X71676009Y37030020D01*
X71676009Y37125258D01*
X71771247Y37315734D01*
X71961723Y37410972D01*
X72247438Y37410972D01*
X72437914Y37315734D01*
X73390295Y36077639D02*
X73390295Y37410972D01*
X73390295Y38077639D02*
X73295057Y37982400D01*
X73390295Y37887162D01*
X73485533Y37982400D01*
X73390295Y38077639D01*
X73390295Y37887162D01*
X75199819Y37410972D02*
X75199819Y35791924D01*
X75104580Y35601448D01*
X75009342Y35506210D01*
X74818866Y35410972D01*
X74533152Y35410972D01*
X74342676Y35506210D01*
X75199819Y36172877D02*
X75009342Y36077639D01*
X74628390Y36077639D01*
X74437914Y36172877D01*
X74342676Y36268115D01*
X74247438Y36458591D01*
X74247438Y37030020D01*
X74342676Y37220496D01*
X74437914Y37315734D01*
X74628390Y37410972D01*
X75009342Y37410972D01*
X75199819Y37315734D01*
X76152200Y37410972D02*
X76152200Y36077639D01*
X76152200Y37220496D02*
X76247438Y37315734D01*
X76437914Y37410972D01*
X76723628Y37410972D01*
X76914104Y37315734D01*
X77009342Y37125258D01*
X77009342Y36077639D01*
X79485533Y36077639D02*
X79485533Y38077639D01*
X79485533Y37315734D02*
X79676009Y37410972D01*
X80056961Y37410972D01*
X80247438Y37315734D01*
X80342676Y37220496D01*
X80437914Y37030020D01*
X80437914Y36458591D01*
X80342676Y36268115D01*
X80247438Y36172877D01*
X80056961Y36077639D01*
X79676009Y36077639D01*
X79485533Y36172877D01*
X81104580Y37410972D02*
X81580771Y36077639D01*
X82056961Y37410972D02*
X81580771Y36077639D01*
X81390295Y35601448D01*
X81295057Y35506210D01*
X81104580Y35410972D01*
X84342676Y37410972D02*
X84342676Y35696686D01*
X84247438Y35506210D01*
X84056961Y35410972D01*
X83961723Y35410972D01*
X84342676Y38077639D02*
X84247438Y37982400D01*
X84342676Y37887162D01*
X84437914Y37982400D01*
X84342676Y38077639D01*
X84342676Y37887162D01*
X85295057Y36077639D02*
X85295057Y37410972D01*
X85295057Y37220496D02*
X85390295Y37315734D01*
X85580771Y37410972D01*
X85866485Y37410972D01*
X86056961Y37315734D01*
X86152200Y37125258D01*
X86152200Y36077639D01*
X86152200Y37125258D02*
X86247438Y37315734D01*
X86437914Y37410972D01*
X86723628Y37410972D01*
X86914104Y37315734D01*
X87009342Y37125258D01*
X87009342Y36077639D01*
X88818866Y36077639D02*
X88818866Y38077639D01*
X88818866Y36172877D02*
X88628390Y36077639D01*
X88247438Y36077639D01*
X88056961Y36172877D01*
X87961723Y36268115D01*
X87866485Y36458591D01*
X87866485Y37030020D01*
X87961723Y37220496D01*
X88056961Y37315734D01*
X88247438Y37410972D01*
X88628390Y37410972D01*
X88818866Y37315734D01*
X90628390Y36077639D02*
X90628390Y37125258D01*
X90533152Y37315734D01*
X90342676Y37410972D01*
X89961723Y37410972D01*
X89771247Y37315734D01*
X90628390Y36172877D02*
X90437914Y36077639D01*
X89961723Y36077639D01*
X89771247Y36172877D01*
X89676009Y36363353D01*
X89676009Y36553829D01*
X89771247Y36744305D01*
X89961723Y36839543D01*
X90437914Y36839543D01*
X90628390Y36934781D01*
X91866485Y36077639D02*
X91676009Y36172877D01*
X91580771Y36363353D01*
X91580771Y38077639D01*
X92437914Y37410972D02*
X92914104Y36077639D01*
X93390295Y37410972D02*
X92914104Y36077639D01*
X92723628Y35601448D01*
X92628390Y35506210D01*
X92437914Y35410972D01*
X95485533Y37410972D02*
X95866485Y36077639D01*
X96247438Y37030020D01*
X96628390Y36077639D01*
X97009342Y37410972D01*
X97771247Y36077639D02*
X97771247Y37410972D01*
X97771247Y38077639D02*
X97676009Y37982400D01*
X97771247Y37887162D01*
X97866485Y37982400D01*
X97771247Y38077639D01*
X97771247Y37887162D01*
X98437914Y37410972D02*
X99199819Y37410972D01*
X98723628Y38077639D02*
X98723628Y36363353D01*
X98818866Y36172877D01*
X99009342Y36077639D01*
X99199819Y36077639D01*
X99866485Y36077639D02*
X99866485Y38077639D01*
X100723628Y36077639D02*
X100723628Y37125258D01*
X100628390Y37315734D01*
X100437914Y37410972D01*
X100152200Y37410972D01*
X99961723Y37315734D01*
X99866485Y37220496D01*
X103199819Y36077639D02*
X103199819Y38077639D01*
X104056961Y36077639D02*
X104056961Y37125258D01*
X103961723Y37315734D01*
X103771247Y37410972D01*
X103485533Y37410972D01*
X103295057Y37315734D01*
X103199819Y37220496D01*
X105771247Y36172877D02*
X105580771Y36077639D01*
X105199819Y36077639D01*
X105009342Y36172877D01*
X104914104Y36363353D01*
X104914104Y37125258D01*
X105009342Y37315734D01*
X105199819Y37410972D01*
X105580771Y37410972D01*
X105771247Y37315734D01*
X105866485Y37125258D01*
X105866485Y36934781D01*
X104914104Y36744305D01*
X107009342Y36077639D02*
X106818866Y36172877D01*
X106723628Y36363353D01*
X106723628Y38077639D01*
X107771247Y37410972D02*
X107771247Y35410972D01*
X107771247Y37315734D02*
X107961723Y37410972D01*
X108342676Y37410972D01*
X108533152Y37315734D01*
X108628390Y37220496D01*
X108723628Y37030020D01*
X108723628Y36458591D01*
X108628390Y36268115D01*
X108533152Y36172877D01*
X108342676Y36077639D01*
X107961723Y36077639D01*
X107771247Y36172877D01*
X110818866Y37410972D02*
X111580771Y37410972D01*
X111104580Y36077639D02*
X111104580Y37791924D01*
X111199819Y37982400D01*
X111390295Y38077639D01*
X111580771Y38077639D01*
X112247438Y36077639D02*
X112247438Y37410972D01*
X112247438Y37030020D02*
X112342676Y37220496D01*
X112437914Y37315734D01*
X112628390Y37410972D01*
X112818866Y37410972D01*
X113771247Y36077639D02*
X113580771Y36172877D01*
X113485533Y36268115D01*
X113390295Y36458591D01*
X113390295Y37030020D01*
X113485533Y37220496D01*
X113580771Y37315734D01*
X113771247Y37410972D01*
X114056961Y37410972D01*
X114247438Y37315734D01*
X114342676Y37220496D01*
X114437914Y37030020D01*
X114437914Y36458591D01*
X114342676Y36268115D01*
X114247438Y36172877D01*
X114056961Y36077639D01*
X113771247Y36077639D01*
X115295057Y36077639D02*
X115295057Y37410972D01*
X115295057Y37220496D02*
X115390295Y37315734D01*
X115580771Y37410972D01*
X115866485Y37410972D01*
X116056961Y37315734D01*
X116152200Y37125258D01*
X116152200Y36077639D01*
X116152200Y37125258D02*
X116247438Y37315734D01*
X116437914Y37410972D01*
X116723628Y37410972D01*
X116914104Y37315734D01*
X117009342Y37125258D01*
X117009342Y36077639D01*
X119199819Y37410972D02*
X119961723Y37410972D01*
X119485533Y38077639D02*
X119485533Y36363353D01*
X119580771Y36172877D01*
X119771247Y36077639D01*
X119961723Y36077639D01*
X120628390Y36077639D02*
X120628390Y38077639D01*
X121485533Y36077639D02*
X121485533Y37125258D01*
X121390295Y37315734D01*
X121199819Y37410972D01*
X120914104Y37410972D01*
X120723628Y37315734D01*
X120628390Y37220496D01*
X123199819Y36172877D02*
X123009342Y36077639D01*
X122628390Y36077639D01*
X122437914Y36172877D01*
X122342676Y36363353D01*
X122342676Y37125258D01*
X122437914Y37315734D01*
X122628390Y37410972D01*
X123009342Y37410972D01*
X123199819Y37315734D01*
X123295057Y37125258D01*
X123295057Y36934781D01*
X122342676Y36744305D01*
X125676009Y36077639D02*
X125676009Y38077639D01*
X126342676Y36649067D01*
X127009342Y38077639D01*
X127009342Y36077639D01*
X128723628Y36172877D02*
X128533152Y36077639D01*
X128152200Y36077639D01*
X127961723Y36172877D01*
X127866485Y36363353D01*
X127866485Y37125258D01*
X127961723Y37315734D01*
X128152200Y37410972D01*
X128533152Y37410972D01*
X128723628Y37315734D01*
X128818866Y37125258D01*
X128818866Y36934781D01*
X127866485Y36744305D01*
X130533152Y36172877D02*
X130342676Y36077639D01*
X129961723Y36077639D01*
X129771247Y36172877D01*
X129676009Y36268115D01*
X129580771Y36458591D01*
X129580771Y37030020D01*
X129676009Y37220496D01*
X129771247Y37315734D01*
X129961723Y37410972D01*
X130342676Y37410972D01*
X130533152Y37315734D01*
X131390295Y36077639D02*
X131390295Y38077639D01*
X132247438Y36077639D02*
X132247438Y37125258D01*
X132152200Y37315734D01*
X131961723Y37410972D01*
X131676009Y37410972D01*
X131485533Y37315734D01*
X131390295Y37220496D01*
X133199819Y36077639D02*
X133199819Y38077639D01*
X134342676Y36077639D02*
X133485533Y37220496D01*
X134342676Y38077639D02*
X133199819Y36934781D01*
X135961723Y36172877D02*
X135771247Y36077639D01*
X135390295Y36077639D01*
X135199819Y36172877D01*
X135104580Y36363353D01*
X135104580Y37125258D01*
X135199819Y37315734D01*
X135390295Y37410972D01*
X135771247Y37410972D01*
X135961723Y37315734D01*
X136056961Y37125258D01*
X136056961Y36934781D01*
X135104580Y36744305D01*
X136723628Y37410972D02*
X137199819Y36077639D01*
X137676009Y37410972D02*
X137199819Y36077639D01*
X137009342Y35601448D01*
X136914104Y35506210D01*
X136723628Y35410972D01*
X138342676Y36172877D02*
X138533152Y36077639D01*
X138914104Y36077639D01*
X139104580Y36172877D01*
X139199819Y36363353D01*
X139199819Y36458591D01*
X139104580Y36649067D01*
X138914104Y36744305D01*
X138628390Y36744305D01*
X138437914Y36839543D01*
X138342676Y37030020D01*
X138342676Y37125258D01*
X138437914Y37315734D01*
X138628390Y37410972D01*
X138914104Y37410972D01*
X139104580Y37315734D01*
X143199819Y36077639D02*
X143104580Y36077639D01*
X142914104Y36172877D01*
X142628390Y36458591D01*
X142152200Y37030020D01*
X141961723Y37315734D01*
X141866485Y37601448D01*
X141866485Y37791924D01*
X141961723Y37982400D01*
X142152200Y38077639D01*
X142247438Y38077639D01*
X142437914Y37982400D01*
X142533152Y37791924D01*
X142533152Y37696686D01*
X142437914Y37506210D01*
X142342676Y37410972D01*
X141771247Y37030020D01*
X141676009Y36934781D01*
X141580771Y36744305D01*
X141580771Y36458591D01*
X141676009Y36268115D01*
X141771247Y36172877D01*
X141961723Y36077639D01*
X142247438Y36077639D01*
X142437914Y36172877D01*
X142533152Y36268115D01*
X142818866Y36649067D01*
X142914104Y36934781D01*
X142914104Y37125258D01*
X146914104Y35887162D02*
X146723628Y35982400D01*
X146533152Y36172877D01*
X146247438Y36458591D01*
X146056961Y36553829D01*
X145866485Y36553829D01*
X145961723Y36077639D02*
X145771247Y36172877D01*
X145580771Y36363353D01*
X145485533Y36744305D01*
X145485533Y37410972D01*
X145580771Y37791924D01*
X145771247Y37982400D01*
X145961723Y38077639D01*
X146342676Y38077639D01*
X146533152Y37982400D01*
X146723628Y37791924D01*
X146818866Y37410972D01*
X146818866Y36744305D01*
X146723628Y36363353D01*
X146533152Y36172877D01*
X146342676Y36077639D01*
X145961723Y36077639D01*
X147676009Y36077639D02*
X147676009Y38077639D01*
X148342676Y36649067D01*
X149009342Y38077639D01*
X149009342Y36077639D01*
X149961723Y36077639D02*
X149961723Y38077639D01*
X151104580Y36077639D02*
X150247438Y37220496D01*
X151104580Y38077639D02*
X149961723Y36934781D01*
X153485533Y36077639D02*
X153485533Y38077639D01*
X153961723Y38077639D01*
X154247438Y37982400D01*
X154437914Y37791924D01*
X154533152Y37601448D01*
X154628390Y37220496D01*
X154628390Y36934781D01*
X154533152Y36553829D01*
X154437914Y36363353D01*
X154247438Y36172877D01*
X153961723Y36077639D01*
X153485533Y36077639D01*
X155485533Y36077639D02*
X155485533Y37410972D01*
X155485533Y38077639D02*
X155390295Y37982400D01*
X155485533Y37887162D01*
X155580771Y37982400D01*
X155485533Y38077639D01*
X155485533Y37887162D01*
X156342676Y36172877D02*
X156533152Y36077639D01*
X156914104Y36077639D01*
X157104580Y36172877D01*
X157199819Y36363353D01*
X157199819Y36458591D01*
X157104580Y36649067D01*
X156914104Y36744305D01*
X156628390Y36744305D01*
X156437914Y36839543D01*
X156342676Y37030020D01*
X156342676Y37125258D01*
X156437914Y37315734D01*
X156628390Y37410972D01*
X156914104Y37410972D01*
X157104580Y37315734D01*
X158914104Y36172877D02*
X158723628Y36077639D01*
X158342676Y36077639D01*
X158152200Y36172877D01*
X158056961Y36268115D01*
X157961723Y36458591D01*
X157961723Y37030020D01*
X158056961Y37220496D01*
X158152200Y37315734D01*
X158342676Y37410972D01*
X158723628Y37410972D01*
X158914104Y37315734D01*
X160056961Y36077639D02*
X159866485Y36172877D01*
X159771247Y36268115D01*
X159676009Y36458591D01*
X159676009Y37030020D01*
X159771247Y37220496D01*
X159866485Y37315734D01*
X160056961Y37410972D01*
X160342676Y37410972D01*
X160533152Y37315734D01*
X160628390Y37220496D01*
X160723628Y37030020D01*
X160723628Y36458591D01*
X160628390Y36268115D01*
X160533152Y36172877D01*
X160342676Y36077639D01*
X160056961Y36077639D01*
X161580771Y36077639D02*
X161580771Y37410972D01*
X161580771Y37030020D02*
X161676009Y37220496D01*
X161771247Y37315734D01*
X161961723Y37410972D01*
X162152200Y37410972D01*
X163676009Y36077639D02*
X163676009Y38077639D01*
X163676009Y36172877D02*
X163485533Y36077639D01*
X163104580Y36077639D01*
X162914104Y36172877D01*
X162818866Y36268115D01*
X162723628Y36458591D01*
X162723628Y37030020D01*
X162818866Y37220496D01*
X162914104Y37315734D01*
X163104580Y37410972D01*
X163485533Y37410972D01*
X163676009Y37315734D01*
X164533152Y36172877D02*
X164723628Y36077639D01*
X165104580Y36077639D01*
X165295057Y36172877D01*
X165390295Y36363353D01*
X165390295Y36458591D01*
X165295057Y36649067D01*
X165104580Y36744305D01*
X164818866Y36744305D01*
X164628390Y36839543D01*
X164533152Y37030020D01*
X164533152Y37125258D01*
X164628390Y37315734D01*
X164818866Y37410972D01*
X165104580Y37410972D01*
X165295057Y37315734D01*
D11*
G04 #@! TO.C,J1*
X2301400Y52030000D02*
X4961400Y52030000D01*
X2301400Y62250000D02*
X2301400Y52030000D01*
X4961400Y62250000D02*
X4961400Y52030000D01*
X2301400Y62250000D02*
X4961400Y62250000D01*
X2301400Y63520000D02*
X2301400Y64850000D01*
X2301400Y64850000D02*
X3631400Y64850000D01*
D12*
X3298066Y66397620D02*
X3298066Y65683334D01*
X3250447Y65540477D01*
X3155209Y65445239D01*
X3012352Y65397620D01*
X2917114Y65397620D01*
X4298066Y65397620D02*
X3726638Y65397620D01*
X4012352Y65397620D02*
X4012352Y66397620D01*
X3917114Y66254762D01*
X3821876Y66159524D01*
X3726638Y66111905D01*
G04 #@! TD*
M02*
