G04 #@! TF.FileFunction,Soldermask,Top*
%FSLAX46Y46*%
G04 Gerber Fmt 4.6, Leading zero omitted, Abs format (unit mm)*
G04 Created by KiCad (PCBNEW 4.0.7-e2-6376~58~ubuntu16.04.1) date Tue Jun  5 12:18:59 2018*
%MOMM*%
%LPD*%
G01*
G04 APERTURE LIST*
%ADD10C,0.100000*%
%ADD11C,2.501900*%
%ADD12C,1.050000*%
%ADD13O,1.350000X1.050000*%
%ADD14O,1.200000X1.800000*%
%ADD15C,4.387800*%
%ADD16C,2.150000*%
%ADD17C,3.448000*%
%ADD18R,2.100000X2.100000*%
%ADD19O,2.100000X2.100000*%
%ADD20C,7.401300*%
%ADD21C,7.400240*%
%ADD22C,1.400000*%
G04 APERTURE END LIST*
D10*
D11*
X360156250Y-106561550D02*
X363956250Y-106561550D01*
X357505300Y-109212500D02*
G75*
G02X360156250Y-106561550I2650950J0D01*
G01*
X360156250Y-111863450D02*
G75*
G02X357505300Y-109212500I0J2650950D01*
G01*
X360156250Y-111863450D02*
X364006250Y-111863450D01*
X78956250Y-106561550D02*
X82756250Y-106561550D01*
X85407200Y-109212500D02*
G75*
G03X82756250Y-106561550I-2650950J0D01*
G01*
X82756250Y-111863450D02*
G75*
G03X85407200Y-109212500I0J2650950D01*
G01*
X78956250Y-111863450D02*
X82756250Y-111863450D01*
D12*
X93560800Y-59676400D03*
D13*
X100760800Y-59676400D03*
D14*
X93030800Y-58426400D03*
X101290800Y-58426400D03*
X92670800Y-52476400D03*
X101650800Y-52476400D03*
D15*
X352425000Y-90487500D03*
D16*
X352425000Y-85407500D03*
X352425000Y-95567500D03*
D17*
X359410000Y-102425500D03*
X359410000Y-78549500D03*
D15*
X344170000Y-102425500D03*
X344170000Y-78549500D03*
X176212500Y-138112500D03*
D16*
X171132500Y-138112500D03*
X181292500Y-138112500D03*
D17*
X164274500Y-145097500D03*
X188150500Y-145097500D03*
D15*
X164274500Y-129857500D03*
X188150500Y-129857500D03*
X242887500Y-138112500D03*
D16*
X237807500Y-138112500D03*
X247967500Y-138112500D03*
D17*
X230949500Y-145097500D03*
X254825500Y-145097500D03*
D15*
X230949500Y-129857500D03*
X254825500Y-129857500D03*
X90487500Y-100012500D03*
D16*
X85407500Y-100012500D03*
X95567500Y-100012500D03*
D15*
X95250000Y-100012500D03*
D16*
X90170000Y-100012500D03*
X100330000Y-100012500D03*
D15*
X352425000Y-138112500D03*
D16*
X347345000Y-138112500D03*
X357505000Y-138112500D03*
D15*
X328612500Y-138112500D03*
D16*
X323532500Y-138112500D03*
X333692500Y-138112500D03*
D15*
X302418750Y-138112500D03*
D16*
X297338750Y-138112500D03*
X307498750Y-138112500D03*
D15*
X214312500Y-138112500D03*
D16*
X209232500Y-138112500D03*
X219392500Y-138112500D03*
D15*
X138112500Y-138112500D03*
D16*
X133032500Y-138112500D03*
X143192500Y-138112500D03*
D15*
X114300000Y-138112500D03*
D16*
X109220000Y-138112500D03*
X119380000Y-138112500D03*
D15*
X261937500Y-138112500D03*
D16*
X256857500Y-138112500D03*
X267017500Y-138112500D03*
D17*
X249999500Y-145097500D03*
X273875500Y-145097500D03*
D15*
X249999500Y-129857500D03*
X273875500Y-129857500D03*
X221456250Y-138112500D03*
D16*
X216376250Y-138112500D03*
X226536250Y-138112500D03*
D15*
X180975000Y-138112500D03*
D16*
X175895000Y-138112500D03*
X186055000Y-138112500D03*
D17*
X169037000Y-145097500D03*
X192913000Y-145097500D03*
D15*
X169037000Y-129857500D03*
X192913000Y-129857500D03*
X350043750Y-138112500D03*
D16*
X344963750Y-138112500D03*
X355123750Y-138112500D03*
D15*
X326231250Y-138112500D03*
D16*
X321151250Y-138112500D03*
X331311250Y-138112500D03*
D15*
X221456250Y-138112500D03*
D16*
X216376250Y-138112500D03*
X226536250Y-138112500D03*
D17*
X164306250Y-145097500D03*
X278606250Y-145097500D03*
D15*
X164306250Y-129857500D03*
X278606250Y-129857500D03*
X140493750Y-138112500D03*
D16*
X135413750Y-138112500D03*
X145573750Y-138112500D03*
D15*
X116681250Y-138112500D03*
D16*
X111601250Y-138112500D03*
X121761250Y-138112500D03*
D15*
X247650000Y-138112500D03*
D16*
X242570000Y-138112500D03*
X252730000Y-138112500D03*
D17*
X235712000Y-145097500D03*
X259588000Y-145097500D03*
D15*
X235712000Y-129857500D03*
X259588000Y-129857500D03*
X354806250Y-138112500D03*
D16*
X349726250Y-138112500D03*
X359886250Y-138112500D03*
D15*
X335756250Y-138112500D03*
D16*
X330676250Y-138112500D03*
X340836250Y-138112500D03*
D15*
X297656250Y-138112500D03*
D16*
X292576250Y-138112500D03*
X302736250Y-138112500D03*
D15*
X278606250Y-138112500D03*
D16*
X273526250Y-138112500D03*
X283686250Y-138112500D03*
D15*
X280987500Y-138112500D03*
D16*
X275907500Y-138112500D03*
X286067500Y-138112500D03*
D15*
X204787500Y-138112500D03*
D16*
X199707500Y-138112500D03*
X209867500Y-138112500D03*
D15*
X171450000Y-138112500D03*
D16*
X166370000Y-138112500D03*
X176530000Y-138112500D03*
D17*
X159512000Y-145097500D03*
X183388000Y-145097500D03*
D15*
X159512000Y-129857500D03*
X183388000Y-129857500D03*
X304800000Y-138112500D03*
D16*
X299720000Y-138112500D03*
X309880000Y-138112500D03*
D15*
X209550000Y-138112500D03*
D16*
X204470000Y-138112500D03*
X214630000Y-138112500D03*
D17*
X159550100Y-145097500D03*
X259549900Y-145097500D03*
D15*
X159550100Y-129857500D03*
X259549900Y-129857500D03*
D18*
X125704600Y-72517000D03*
D19*
X123164600Y-72517000D03*
X120624600Y-72517000D03*
X118084600Y-72517000D03*
X115544600Y-72517000D03*
X113004600Y-72517000D03*
D15*
X116681250Y-80962500D03*
D16*
X111601250Y-80962500D03*
X121761250Y-80962500D03*
D15*
X278606250Y-61912500D03*
D16*
X273526250Y-61912500D03*
X283686250Y-61912500D03*
D15*
X107156250Y-61912500D03*
D16*
X102076250Y-61912500D03*
X112236250Y-61912500D03*
D15*
X126206250Y-61912500D03*
D16*
X121126250Y-61912500D03*
X131286250Y-61912500D03*
D15*
X145256250Y-61912500D03*
D16*
X140176250Y-61912500D03*
X150336250Y-61912500D03*
D15*
X164306250Y-61912500D03*
D16*
X159226250Y-61912500D03*
X169386250Y-61912500D03*
D15*
X183356250Y-61912500D03*
D16*
X178276250Y-61912500D03*
X188436250Y-61912500D03*
D15*
X202406250Y-61912500D03*
D16*
X197326250Y-61912500D03*
X207486250Y-61912500D03*
D15*
X221456250Y-61912500D03*
D16*
X216376250Y-61912500D03*
X226536250Y-61912500D03*
D15*
X240506250Y-61912500D03*
D16*
X235426250Y-61912500D03*
X245586250Y-61912500D03*
D15*
X259556250Y-61912500D03*
D16*
X254476250Y-61912500D03*
X264636250Y-61912500D03*
D15*
X297656250Y-61912500D03*
D16*
X292576250Y-61912500D03*
X302736250Y-61912500D03*
D15*
X316706250Y-61912500D03*
D16*
X311626250Y-61912500D03*
X321786250Y-61912500D03*
D15*
X345281250Y-61912500D03*
D16*
X340201250Y-61912500D03*
X350361250Y-61912500D03*
D17*
X333343250Y-54927500D03*
X357219250Y-54927500D03*
D15*
X333343250Y-70167500D03*
X357219250Y-70167500D03*
X354806250Y-61912500D03*
D16*
X349726250Y-61912500D03*
X359886250Y-61912500D03*
D15*
X335756250Y-61912500D03*
D16*
X330676250Y-61912500D03*
X340836250Y-61912500D03*
D15*
X88106250Y-61912500D03*
D16*
X83026250Y-61912500D03*
X93186250Y-61912500D03*
D15*
X154781250Y-80962500D03*
D16*
X149701250Y-80962500D03*
X159861250Y-80962500D03*
D15*
X250031250Y-80962500D03*
D16*
X244951250Y-80962500D03*
X255111250Y-80962500D03*
D15*
X269081250Y-80962500D03*
D16*
X264001250Y-80962500D03*
X274161250Y-80962500D03*
D15*
X288131250Y-80962500D03*
D16*
X283051250Y-80962500D03*
X293211250Y-80962500D03*
D15*
X173831250Y-80962500D03*
D16*
X168751250Y-80962500D03*
X178911250Y-80962500D03*
D15*
X192881250Y-80962500D03*
D16*
X187801250Y-80962500D03*
X197961250Y-80962500D03*
D15*
X92868750Y-80962500D03*
D16*
X87788750Y-80962500D03*
X97948750Y-80962500D03*
D15*
X230981250Y-80962500D03*
D16*
X225901250Y-80962500D03*
X236061250Y-80962500D03*
D15*
X135731250Y-80962500D03*
D16*
X130651250Y-80962500D03*
X140811250Y-80962500D03*
D15*
X211931250Y-80962500D03*
D16*
X206851250Y-80962500D03*
X217011250Y-80962500D03*
D15*
X307181250Y-80962500D03*
D16*
X302101250Y-80962500D03*
X312261250Y-80962500D03*
D15*
X350043750Y-80962500D03*
D16*
X344963750Y-80962500D03*
X355123750Y-80962500D03*
D15*
X326231250Y-80962500D03*
D16*
X321151250Y-80962500D03*
X331311250Y-80962500D03*
D15*
X311943750Y-100012500D03*
D16*
X306863750Y-100012500D03*
X317023750Y-100012500D03*
D15*
X292893750Y-100012500D03*
D16*
X287813750Y-100012500D03*
X297973750Y-100012500D03*
D15*
X121443750Y-100012500D03*
D16*
X116363750Y-100012500D03*
X126523750Y-100012500D03*
D15*
X159543750Y-100012500D03*
D16*
X154463750Y-100012500D03*
X164623750Y-100012500D03*
D15*
X342900000Y-100012500D03*
D16*
X337820000Y-100012500D03*
X347980000Y-100012500D03*
D17*
X330962000Y-93027500D03*
X354838000Y-93027500D03*
D15*
X330962000Y-108267500D03*
X354838000Y-108267500D03*
X178593750Y-100012500D03*
D16*
X173513750Y-100012500D03*
X183673750Y-100012500D03*
D15*
X197643750Y-100012500D03*
D16*
X192563750Y-100012500D03*
X202723750Y-100012500D03*
D15*
X216693750Y-100012500D03*
D16*
X211613750Y-100012500D03*
X221773750Y-100012500D03*
D15*
X330993750Y-100012500D03*
D16*
X325913750Y-100012500D03*
X336073750Y-100012500D03*
D15*
X235743750Y-100012500D03*
D16*
X230663750Y-100012500D03*
X240823750Y-100012500D03*
D15*
X254793750Y-100012500D03*
D16*
X249713750Y-100012500D03*
X259873750Y-100012500D03*
D15*
X273843750Y-100012500D03*
D16*
X268763750Y-100012500D03*
X278923750Y-100012500D03*
D15*
X140493750Y-100012500D03*
D16*
X135413750Y-100012500D03*
X145573750Y-100012500D03*
D15*
X264318750Y-119062500D03*
D16*
X259238750Y-119062500D03*
X269398750Y-119062500D03*
D15*
X283368750Y-119062500D03*
D16*
X278288750Y-119062500D03*
X288448750Y-119062500D03*
D15*
X302418750Y-119062500D03*
D16*
X297338750Y-119062500D03*
X307498750Y-119062500D03*
D15*
X207168750Y-119062500D03*
D16*
X202088750Y-119062500D03*
X212248750Y-119062500D03*
D15*
X169068750Y-119062500D03*
D16*
X163988750Y-119062500D03*
X174148750Y-119062500D03*
D15*
X354806250Y-119062500D03*
D16*
X349726250Y-119062500D03*
X359886250Y-119062500D03*
D15*
X111918750Y-119062500D03*
D16*
X106838750Y-119062500D03*
X116998750Y-119062500D03*
D15*
X100012500Y-119062500D03*
D16*
X94932500Y-119062500D03*
X105092500Y-119062500D03*
D17*
X88074500Y-112077500D03*
X111950500Y-112077500D03*
D15*
X88074500Y-127317500D03*
X111950500Y-127317500D03*
X90487500Y-119062500D03*
D16*
X85407500Y-119062500D03*
X95567500Y-119062500D03*
D15*
X245268750Y-119062500D03*
D16*
X240188750Y-119062500D03*
X250348750Y-119062500D03*
D15*
X226218750Y-119062500D03*
D16*
X221138750Y-119062500D03*
X231298750Y-119062500D03*
D15*
X338137500Y-119062500D03*
D16*
X333057500Y-119062500D03*
X343217500Y-119062500D03*
D17*
X326199500Y-112077500D03*
X350075500Y-112077500D03*
D15*
X326199500Y-127317500D03*
X350075500Y-127317500D03*
X328612500Y-119062500D03*
D16*
X323532500Y-119062500D03*
X333692500Y-119062500D03*
D15*
X188118750Y-119062500D03*
D16*
X183038750Y-119062500D03*
X193198750Y-119062500D03*
D15*
X150018750Y-119062500D03*
D16*
X144938750Y-119062500D03*
X155098750Y-119062500D03*
D15*
X130968750Y-119062500D03*
D16*
X125888750Y-119062500D03*
X136048750Y-119062500D03*
D15*
X316706250Y-138112500D03*
D16*
X311626250Y-138112500D03*
X321786250Y-138112500D03*
D15*
X90487500Y-138112500D03*
D16*
X85407500Y-138112500D03*
X95567500Y-138112500D03*
D15*
X92868750Y-138112500D03*
D16*
X87788750Y-138112500D03*
X97948750Y-138112500D03*
D20*
X104156250Y-80612500D03*
D21*
X207156250Y-99712500D03*
X269456250Y-137912500D03*
X339006250Y-80612500D03*
D22*
X104156250Y-78312500D03*
X101856250Y-80612500D03*
X106456250Y-80612500D03*
X104156250Y-82912500D03*
X102529904Y-78986154D03*
X105782596Y-78986154D03*
X102529904Y-82238846D03*
X105782596Y-82238846D03*
X339006250Y-78312500D03*
X339006250Y-82912500D03*
X340206250Y-82912500D03*
X337806250Y-82912500D03*
X337806250Y-78312500D03*
X340206250Y-78295500D03*
X269456250Y-135612500D03*
X269456250Y-140212500D03*
X270656250Y-135612500D03*
X268256250Y-135612500D03*
X268256250Y-140212500D03*
X270656250Y-140212500D03*
X207156250Y-97412500D03*
X208356250Y-97412500D03*
X205956250Y-97412500D03*
X207156250Y-102012500D03*
X205956250Y-102012500D03*
X208356250Y-102012500D03*
X85356250Y-109212500D03*
X82756250Y-106612500D03*
X82756250Y-111812500D03*
X84594728Y-107374022D03*
X84594728Y-111050978D03*
X80714215Y-106612500D03*
X80714215Y-111812500D03*
X357556250Y-109212500D03*
X358317772Y-107374022D03*
X360156250Y-106612500D03*
X362198285Y-106612500D03*
X362198285Y-111812500D03*
X360156250Y-111812500D03*
X358317772Y-111050978D03*
M02*
