G04 #@! TF.GenerationSoftware,KiCad,Pcbnew,5.0.1-33cea8e~67~ubuntu16.04.1*
G04 #@! TF.CreationDate,2018-11-13T21:41:04+00:00*
G04 #@! TF.ProjectId,co60,636F36302E6B696361645F7063620000,rev?*
G04 #@! TF.SameCoordinates,PX4b4f718PY8c7ecc0*
G04 #@! TF.FileFunction,Profile,NP*
%FSLAX46Y46*%
G04 Gerber Fmt 4.6, Leading zero omitted, Abs format (unit mm)*
G04 Created by KiCad (PCBNEW 5.0.1-33cea8e~67~ubuntu16.04.1) date Tue 13 Nov 2018 09:41:04 PM UTC*
%MOMM*%
%LPD*%
G01*
G04 APERTURE LIST*
G04 #@! TA.AperFunction,NonConductor*
%ADD10C,0.300000*%
G04 #@! TD*
G04 APERTURE END LIST*
D10*
G04 #@! TO.C,REF\002A\002A*
X1987650Y7500D02*
X282987650Y7500D01*
X282987650Y94607500D02*
X24187650Y94607500D01*
X1987650Y94607500D02*
G75*
G03X-12350Y92607500I0J-2000000D01*
G01*
X-12350Y2007500D02*
G75*
G03X1987650Y7500I2000000J0D01*
G01*
X282987650Y7500D02*
G75*
G03X284987650Y2007500I0J2000000D01*
G01*
X284987650Y92607500D02*
G75*
G03X282987650Y94607500I-2000000J0D01*
G01*
X-12350Y2007500D02*
X-12350Y36707500D01*
X-12350Y36707500D02*
X3787650Y36707500D01*
X5187650Y38107500D02*
G75*
G03X3787650Y39507500I-1400000J0D01*
G01*
X3787650Y39507500D02*
X-12350Y39507500D01*
X-12350Y39507500D02*
X-12350Y92607500D01*
X279787650Y38107500D02*
G75*
G02X281187650Y39507500I1400000J0D01*
G01*
X281187650Y36707500D02*
G75*
G02X279787650Y38107500I0J1400000D01*
G01*
X284987650Y36707500D02*
X284987650Y2007500D01*
X284987650Y39507500D02*
X284987650Y92607500D01*
X281187650Y36707500D02*
X284987650Y36707500D01*
X281187650Y39507500D02*
X284987650Y39507500D01*
X3787650Y36707500D02*
G75*
G03X5187650Y38107500I0J1400000D01*
G01*
X12687650Y95107500D02*
X23687650Y95107500D01*
X12187650Y94607500D02*
G75*
G03X12687650Y95107500I0J500000D01*
G01*
X23687650Y95107500D02*
G75*
G03X24187650Y94607500I500000J0D01*
G01*
X1987650Y94607500D02*
X12187650Y94607500D01*
G04 #@! TD*
M02*
