G04 #@! TF.FileFunction,Soldermask,Top*
%FSLAX46Y46*%
G04 Gerber Fmt 4.6, Leading zero omitted, Abs format (unit mm)*
G04 Created by KiCad (PCBNEW 4.0.7-e2-6376~58~ubuntu16.04.1) date Thu Jun 14 20:52:57 2018*
%MOMM*%
%LPD*%
G01*
G04 APERTURE LIST*
%ADD10C,0.100000*%
%ADD11C,2.501900*%
%ADD12C,1.050000*%
%ADD13O,1.350000X1.050000*%
%ADD14O,1.200000X1.800000*%
%ADD15C,4.387800*%
%ADD16C,2.150000*%
%ADD17C,3.448000*%
%ADD18R,2.100000X2.100000*%
%ADD19O,2.100000X2.100000*%
%ADD20C,7.401300*%
%ADD21C,7.400240*%
%ADD22C,1.400000*%
G04 APERTURE END LIST*
D10*
D11*
X281187650Y40758450D02*
X284987650Y40758450D01*
X278536700Y38107500D02*
G75*
G02X281187650Y40758450I2650950J0D01*
G01*
X281187650Y35456550D02*
G75*
G02X278536700Y38107500I0J2650950D01*
G01*
X281187650Y35456550D02*
X285037650Y35456550D01*
X-12350Y40758450D02*
X3787650Y40758450D01*
X6438600Y38107500D02*
G75*
G03X3787650Y40758450I-2650950J0D01*
G01*
X3787650Y35456550D02*
G75*
G03X6438600Y38107500I0J2650950D01*
G01*
X-12350Y35456550D02*
X3787650Y35456550D01*
D12*
X14592200Y87643600D03*
D13*
X21792200Y87643600D03*
D14*
X14062200Y88893600D03*
X22322200Y88893600D03*
X13702200Y94843600D03*
X22682200Y94843600D03*
D15*
X273456400Y56832500D03*
D16*
X273456400Y61912500D03*
X273456400Y51752500D03*
D17*
X280441400Y44894500D03*
X280441400Y68770500D03*
D15*
X265201400Y44894500D03*
X265201400Y68770500D03*
X97243900Y9207500D03*
D16*
X92163900Y9207500D03*
X102323900Y9207500D03*
D17*
X85305900Y2222500D03*
X109181900Y2222500D03*
D15*
X85305900Y17462500D03*
X109181900Y17462500D03*
X163918900Y9207500D03*
D16*
X158838900Y9207500D03*
X168998900Y9207500D03*
D17*
X151980900Y2222500D03*
X175856900Y2222500D03*
D15*
X151980900Y17462500D03*
X175856900Y17462500D03*
X11518900Y47307500D03*
D16*
X6438900Y47307500D03*
X16598900Y47307500D03*
D15*
X16281400Y47307500D03*
D16*
X11201400Y47307500D03*
X21361400Y47307500D03*
D15*
X273456400Y9207500D03*
D16*
X268376400Y9207500D03*
X278536400Y9207500D03*
D15*
X249643900Y9207500D03*
D16*
X244563900Y9207500D03*
X254723900Y9207500D03*
D15*
X223450150Y9207500D03*
D16*
X218370150Y9207500D03*
X228530150Y9207500D03*
D15*
X135343900Y9207500D03*
D16*
X130263900Y9207500D03*
X140423900Y9207500D03*
D15*
X59143900Y9207500D03*
D16*
X54063900Y9207500D03*
X64223900Y9207500D03*
D15*
X35331400Y9207500D03*
D16*
X30251400Y9207500D03*
X40411400Y9207500D03*
D15*
X182968900Y9207500D03*
D16*
X177888900Y9207500D03*
X188048900Y9207500D03*
D17*
X171030900Y2222500D03*
X194906900Y2222500D03*
D15*
X171030900Y17462500D03*
X194906900Y17462500D03*
X142487650Y9207500D03*
D16*
X137407650Y9207500D03*
X147567650Y9207500D03*
D15*
X102006400Y9207500D03*
D16*
X96926400Y9207500D03*
X107086400Y9207500D03*
D17*
X90068400Y2222500D03*
X113944400Y2222500D03*
D15*
X90068400Y17462500D03*
X113944400Y17462500D03*
X271075150Y9207500D03*
D16*
X265995150Y9207500D03*
X276155150Y9207500D03*
D15*
X247262650Y9207500D03*
D16*
X242182650Y9207500D03*
X252342650Y9207500D03*
D15*
X142487650Y9207500D03*
D16*
X137407650Y9207500D03*
X147567650Y9207500D03*
D17*
X85337650Y2222500D03*
X199637650Y2222500D03*
D15*
X85337650Y17462500D03*
X199637650Y17462500D03*
X61525150Y9207500D03*
D16*
X56445150Y9207500D03*
X66605150Y9207500D03*
D15*
X37712650Y9207500D03*
D16*
X32632650Y9207500D03*
X42792650Y9207500D03*
D15*
X168681400Y9207500D03*
D16*
X163601400Y9207500D03*
X173761400Y9207500D03*
D17*
X156743400Y2222500D03*
X180619400Y2222500D03*
D15*
X156743400Y17462500D03*
X180619400Y17462500D03*
X275837650Y9207500D03*
D16*
X270757650Y9207500D03*
X280917650Y9207500D03*
D15*
X256787650Y9207500D03*
D16*
X251707650Y9207500D03*
X261867650Y9207500D03*
D15*
X218687650Y9207500D03*
D16*
X213607650Y9207500D03*
X223767650Y9207500D03*
D15*
X199637650Y9207500D03*
D16*
X194557650Y9207500D03*
X204717650Y9207500D03*
D15*
X202018900Y9207500D03*
D16*
X196938900Y9207500D03*
X207098900Y9207500D03*
D15*
X125818900Y9207500D03*
D16*
X120738900Y9207500D03*
X130898900Y9207500D03*
D15*
X92481400Y9207500D03*
D16*
X87401400Y9207500D03*
X97561400Y9207500D03*
D17*
X80543400Y2222500D03*
X104419400Y2222500D03*
D15*
X80543400Y17462500D03*
X104419400Y17462500D03*
X225831400Y9207500D03*
D16*
X220751400Y9207500D03*
X230911400Y9207500D03*
D15*
X130581400Y9207500D03*
D16*
X125501400Y9207500D03*
X135661400Y9207500D03*
D17*
X80581500Y2222500D03*
X180581300Y2222500D03*
D15*
X80581500Y17462500D03*
X180581300Y17462500D03*
D18*
X46736000Y74803000D03*
D19*
X44196000Y74803000D03*
X41656000Y74803000D03*
X39116000Y74803000D03*
X36576000Y74803000D03*
X34036000Y74803000D03*
D15*
X37712650Y66357500D03*
D16*
X32632650Y66357500D03*
X42792650Y66357500D03*
D15*
X199637650Y85407500D03*
D16*
X194557650Y85407500D03*
X204717650Y85407500D03*
D15*
X28187650Y85407500D03*
D16*
X23107650Y85407500D03*
X33267650Y85407500D03*
D15*
X47237650Y85407500D03*
D16*
X42157650Y85407500D03*
X52317650Y85407500D03*
D15*
X66287650Y85407500D03*
D16*
X61207650Y85407500D03*
X71367650Y85407500D03*
D15*
X85337650Y85407500D03*
D16*
X80257650Y85407500D03*
X90417650Y85407500D03*
D15*
X104387650Y85407500D03*
D16*
X99307650Y85407500D03*
X109467650Y85407500D03*
D15*
X123437650Y85407500D03*
D16*
X118357650Y85407500D03*
X128517650Y85407500D03*
D15*
X142487650Y85407500D03*
D16*
X137407650Y85407500D03*
X147567650Y85407500D03*
D15*
X161537650Y85407500D03*
D16*
X156457650Y85407500D03*
X166617650Y85407500D03*
D15*
X180587650Y85407500D03*
D16*
X175507650Y85407500D03*
X185667650Y85407500D03*
D15*
X218687650Y85407500D03*
D16*
X213607650Y85407500D03*
X223767650Y85407500D03*
D15*
X237737650Y85407500D03*
D16*
X232657650Y85407500D03*
X242817650Y85407500D03*
D15*
X266312650Y85407500D03*
D16*
X261232650Y85407500D03*
X271392650Y85407500D03*
D17*
X254374650Y92392500D03*
X278250650Y92392500D03*
D15*
X254374650Y77152500D03*
X278250650Y77152500D03*
X275837650Y85407500D03*
D16*
X270757650Y85407500D03*
X280917650Y85407500D03*
D15*
X256787650Y85407500D03*
D16*
X251707650Y85407500D03*
X261867650Y85407500D03*
D15*
X9137650Y85407500D03*
D16*
X4057650Y85407500D03*
X14217650Y85407500D03*
D15*
X75812650Y66357500D03*
D16*
X70732650Y66357500D03*
X80892650Y66357500D03*
D15*
X171062650Y66357500D03*
D16*
X165982650Y66357500D03*
X176142650Y66357500D03*
D15*
X190112650Y66357500D03*
D16*
X185032650Y66357500D03*
X195192650Y66357500D03*
D15*
X209162650Y66357500D03*
D16*
X204082650Y66357500D03*
X214242650Y66357500D03*
D15*
X94862650Y66357500D03*
D16*
X89782650Y66357500D03*
X99942650Y66357500D03*
D15*
X113912650Y66357500D03*
D16*
X108832650Y66357500D03*
X118992650Y66357500D03*
D15*
X13900150Y66357500D03*
D16*
X8820150Y66357500D03*
X18980150Y66357500D03*
D15*
X152012650Y66357500D03*
D16*
X146932650Y66357500D03*
X157092650Y66357500D03*
D15*
X56762650Y66357500D03*
D16*
X51682650Y66357500D03*
X61842650Y66357500D03*
D15*
X132962650Y66357500D03*
D16*
X127882650Y66357500D03*
X138042650Y66357500D03*
D15*
X228212650Y66357500D03*
D16*
X223132650Y66357500D03*
X233292650Y66357500D03*
D15*
X271075150Y66357500D03*
D16*
X265995150Y66357500D03*
X276155150Y66357500D03*
D15*
X247262650Y66357500D03*
D16*
X242182650Y66357500D03*
X252342650Y66357500D03*
D15*
X232975150Y47307500D03*
D16*
X227895150Y47307500D03*
X238055150Y47307500D03*
D15*
X213925150Y47307500D03*
D16*
X208845150Y47307500D03*
X219005150Y47307500D03*
D15*
X42475150Y47307500D03*
D16*
X37395150Y47307500D03*
X47555150Y47307500D03*
D15*
X80575150Y47307500D03*
D16*
X75495150Y47307500D03*
X85655150Y47307500D03*
D15*
X263931400Y47307500D03*
D16*
X258851400Y47307500D03*
X269011400Y47307500D03*
D17*
X251993400Y54292500D03*
X275869400Y54292500D03*
D15*
X251993400Y39052500D03*
X275869400Y39052500D03*
X99625150Y47307500D03*
D16*
X94545150Y47307500D03*
X104705150Y47307500D03*
D15*
X118675150Y47307500D03*
D16*
X113595150Y47307500D03*
X123755150Y47307500D03*
D15*
X137725150Y47307500D03*
D16*
X132645150Y47307500D03*
X142805150Y47307500D03*
D15*
X252025150Y47307500D03*
D16*
X246945150Y47307500D03*
X257105150Y47307500D03*
D15*
X156775150Y47307500D03*
D16*
X151695150Y47307500D03*
X161855150Y47307500D03*
D15*
X175825150Y47307500D03*
D16*
X170745150Y47307500D03*
X180905150Y47307500D03*
D15*
X194875150Y47307500D03*
D16*
X189795150Y47307500D03*
X199955150Y47307500D03*
D15*
X61525150Y47307500D03*
D16*
X56445150Y47307500D03*
X66605150Y47307500D03*
D15*
X185350150Y28257500D03*
D16*
X180270150Y28257500D03*
X190430150Y28257500D03*
D15*
X204400150Y28257500D03*
D16*
X199320150Y28257500D03*
X209480150Y28257500D03*
D15*
X223450150Y28257500D03*
D16*
X218370150Y28257500D03*
X228530150Y28257500D03*
D15*
X128200150Y28257500D03*
D16*
X123120150Y28257500D03*
X133280150Y28257500D03*
D15*
X90100150Y28257500D03*
D16*
X85020150Y28257500D03*
X95180150Y28257500D03*
D15*
X275837650Y28257500D03*
D16*
X270757650Y28257500D03*
X280917650Y28257500D03*
D15*
X32950150Y28257500D03*
D16*
X27870150Y28257500D03*
X38030150Y28257500D03*
D15*
X21043900Y28257500D03*
D16*
X15963900Y28257500D03*
X26123900Y28257500D03*
D17*
X9105900Y35242500D03*
X32981900Y35242500D03*
D15*
X9105900Y20002500D03*
X32981900Y20002500D03*
X11518900Y28257500D03*
D16*
X6438900Y28257500D03*
X16598900Y28257500D03*
D15*
X166300150Y28257500D03*
D16*
X161220150Y28257500D03*
X171380150Y28257500D03*
D15*
X147250150Y28257500D03*
D16*
X142170150Y28257500D03*
X152330150Y28257500D03*
D15*
X259168900Y28257500D03*
D16*
X254088900Y28257500D03*
X264248900Y28257500D03*
D17*
X247230900Y35242500D03*
X271106900Y35242500D03*
D15*
X247230900Y20002500D03*
X271106900Y20002500D03*
X249643900Y28257500D03*
D16*
X244563900Y28257500D03*
X254723900Y28257500D03*
D15*
X109150150Y28257500D03*
D16*
X104070150Y28257500D03*
X114230150Y28257500D03*
D15*
X71050150Y28257500D03*
D16*
X65970150Y28257500D03*
X76130150Y28257500D03*
D15*
X52000150Y28257500D03*
D16*
X46920150Y28257500D03*
X57080150Y28257500D03*
D15*
X237737650Y9207500D03*
D16*
X232657650Y9207500D03*
X242817650Y9207500D03*
D15*
X11518900Y9207500D03*
D16*
X6438900Y9207500D03*
X16598900Y9207500D03*
D15*
X13900150Y9207500D03*
D16*
X8820150Y9207500D03*
X18980150Y9207500D03*
D20*
X25187650Y66707500D03*
D21*
X128187650Y47607500D03*
X190487650Y9407500D03*
X260037650Y66707500D03*
D22*
X25187650Y69007500D03*
X22887650Y66707500D03*
X27487650Y66707500D03*
X25187650Y64407500D03*
X23561304Y68333846D03*
X26813996Y68333846D03*
X23561304Y65081154D03*
X26813996Y65081154D03*
X260037650Y69007500D03*
X260037650Y64407500D03*
X261237650Y64407500D03*
X258837650Y64407500D03*
X258837650Y69007500D03*
X261237650Y69024500D03*
X190487650Y11707500D03*
X190487650Y7107500D03*
X191687650Y11707500D03*
X189287650Y11707500D03*
X189287650Y7107500D03*
X191687650Y7107500D03*
X128187650Y49907500D03*
X129387650Y49907500D03*
X126987650Y49907500D03*
X128187650Y45307500D03*
X126987650Y45307500D03*
X129387650Y45307500D03*
X6387650Y38107500D03*
X3787650Y40707500D03*
X3787650Y35507500D03*
X5626128Y39945978D03*
X5626128Y36269022D03*
X1745615Y40707500D03*
X1745615Y35507500D03*
X278587650Y38107500D03*
X279349172Y39945978D03*
X281187650Y40707500D03*
X283229685Y40707500D03*
X283229685Y35507500D03*
X281187650Y35507500D03*
X279349172Y36269022D03*
M02*
