G04 #@! TF.FileFunction,Legend,Top*
%FSLAX46Y46*%
G04 Gerber Fmt 4.6, Leading zero omitted, Abs format (unit mm)*
G04 Created by KiCad (PCBNEW 4.0.7-e2-6376~58~ubuntu16.04.1) date Mon Jun 18 20:04:42 2018*
%MOMM*%
%LPD*%
G01*
G04 APERTURE LIST*
%ADD10C,0.100000*%
%ADD11C,0.300000*%
%ADD12C,0.002540*%
G04 APERTURE END LIST*
D10*
D11*
X174033779Y74615238D02*
X174033779Y76615238D01*
X174890922Y74615238D02*
X174890922Y75662857D01*
X174795684Y75853333D01*
X174605208Y75948571D01*
X174319494Y75948571D01*
X174129018Y75853333D01*
X174033779Y75758095D01*
X175557589Y75948571D02*
X176319494Y75948571D01*
X175843303Y76615238D02*
X175843303Y74900952D01*
X175938542Y74710476D01*
X176129018Y74615238D01*
X176319494Y74615238D01*
X176700446Y75948571D02*
X177462351Y75948571D01*
X176986160Y76615238D02*
X176986160Y74900952D01*
X177081399Y74710476D01*
X177271875Y74615238D01*
X177462351Y74615238D01*
X178129017Y75948571D02*
X178129017Y73948571D01*
X178129017Y75853333D02*
X178319494Y75948571D01*
X178700446Y75948571D01*
X178890922Y75853333D01*
X178986160Y75758095D01*
X179081398Y75567619D01*
X179081398Y74996190D01*
X178986160Y74805714D01*
X178890922Y74710476D01*
X178700446Y74615238D01*
X178319494Y74615238D01*
X178129017Y74710476D01*
X179843303Y74710476D02*
X180033780Y74615238D01*
X180414732Y74615238D01*
X180605208Y74710476D01*
X180700446Y74900952D01*
X180700446Y74996190D01*
X180605208Y75186667D01*
X180414732Y75281905D01*
X180129018Y75281905D01*
X179938541Y75377143D01*
X179843303Y75567619D01*
X179843303Y75662857D01*
X179938541Y75853333D01*
X180129018Y75948571D01*
X180414732Y75948571D01*
X180605208Y75853333D01*
X181557589Y74805714D02*
X181652828Y74710476D01*
X181557589Y74615238D01*
X181462351Y74710476D01*
X181557589Y74805714D01*
X181557589Y74615238D01*
X181557589Y75853333D02*
X181652828Y75758095D01*
X181557589Y75662857D01*
X181462351Y75758095D01*
X181557589Y75853333D01*
X181557589Y75662857D01*
X183938542Y76710476D02*
X182224256Y74139048D01*
X186033780Y76710476D02*
X184319494Y74139048D01*
X187557589Y75948571D02*
X187557589Y74329524D01*
X187462351Y74139048D01*
X187367113Y74043810D01*
X187176637Y73948571D01*
X186890923Y73948571D01*
X186700446Y74043810D01*
X187557589Y74710476D02*
X187367113Y74615238D01*
X186986161Y74615238D01*
X186795685Y74710476D01*
X186700446Y74805714D01*
X186605208Y74996190D01*
X186605208Y75567619D01*
X186700446Y75758095D01*
X186795685Y75853333D01*
X186986161Y75948571D01*
X187367113Y75948571D01*
X187557589Y75853333D01*
X188509970Y74615238D02*
X188509970Y75948571D01*
X188509970Y76615238D02*
X188414732Y76520000D01*
X188509970Y76424762D01*
X188605209Y76520000D01*
X188509970Y76615238D01*
X188509970Y76424762D01*
X189176637Y75948571D02*
X189938542Y75948571D01*
X189462351Y76615238D02*
X189462351Y74900952D01*
X189557590Y74710476D01*
X189748066Y74615238D01*
X189938542Y74615238D01*
X190605208Y74615238D02*
X190605208Y76615238D01*
X191462351Y74615238D02*
X191462351Y75662857D01*
X191367113Y75853333D01*
X191176637Y75948571D01*
X190890923Y75948571D01*
X190700447Y75853333D01*
X190605208Y75758095D01*
X193271875Y75948571D02*
X193271875Y74615238D01*
X192414732Y75948571D02*
X192414732Y74900952D01*
X192509971Y74710476D01*
X192700447Y74615238D01*
X192986161Y74615238D01*
X193176637Y74710476D01*
X193271875Y74805714D01*
X194224256Y74615238D02*
X194224256Y76615238D01*
X194224256Y75853333D02*
X194414733Y75948571D01*
X194795685Y75948571D01*
X194986161Y75853333D01*
X195081399Y75758095D01*
X195176637Y75567619D01*
X195176637Y74996190D01*
X195081399Y74805714D01*
X194986161Y74710476D01*
X194795685Y74615238D01*
X194414733Y74615238D01*
X194224256Y74710476D01*
X196033780Y74805714D02*
X196129019Y74710476D01*
X196033780Y74615238D01*
X195938542Y74710476D01*
X196033780Y74805714D01*
X196033780Y74615238D01*
X197843304Y74710476D02*
X197652828Y74615238D01*
X197271876Y74615238D01*
X197081400Y74710476D01*
X196986161Y74805714D01*
X196890923Y74996190D01*
X196890923Y75567619D01*
X196986161Y75758095D01*
X197081400Y75853333D01*
X197271876Y75948571D01*
X197652828Y75948571D01*
X197843304Y75853333D01*
X198986162Y74615238D02*
X198795686Y74710476D01*
X198700447Y74805714D01*
X198605209Y74996190D01*
X198605209Y75567619D01*
X198700447Y75758095D01*
X198795686Y75853333D01*
X198986162Y75948571D01*
X199271876Y75948571D01*
X199462352Y75853333D01*
X199557590Y75758095D01*
X199652828Y75567619D01*
X199652828Y74996190D01*
X199557590Y74805714D01*
X199462352Y74710476D01*
X199271876Y74615238D01*
X198986162Y74615238D01*
X200509971Y74615238D02*
X200509971Y75948571D01*
X200509971Y75758095D02*
X200605210Y75853333D01*
X200795686Y75948571D01*
X201081400Y75948571D01*
X201271876Y75853333D01*
X201367114Y75662857D01*
X201367114Y74615238D01*
X201367114Y75662857D02*
X201462352Y75853333D01*
X201652829Y75948571D01*
X201938543Y75948571D01*
X202129019Y75853333D01*
X202224257Y75662857D01*
X202224257Y74615238D01*
X204605210Y76710476D02*
X202890924Y74139048D01*
X205271876Y75948571D02*
X205271876Y74234286D01*
X205176638Y74043810D01*
X204986162Y73948571D01*
X204890924Y73948571D01*
X205271876Y76615238D02*
X205176638Y76520000D01*
X205271876Y76424762D01*
X205367115Y76520000D01*
X205271876Y76615238D01*
X205271876Y76424762D01*
X206224257Y74615238D02*
X206224257Y75948571D01*
X206224257Y75758095D02*
X206319496Y75853333D01*
X206509972Y75948571D01*
X206795686Y75948571D01*
X206986162Y75853333D01*
X207081400Y75662857D01*
X207081400Y74615238D01*
X207081400Y75662857D02*
X207176638Y75853333D01*
X207367115Y75948571D01*
X207652829Y75948571D01*
X207843305Y75853333D01*
X207938543Y75662857D01*
X207938543Y74615238D01*
X209748067Y74615238D02*
X209748067Y76615238D01*
X209748067Y74710476D02*
X209557591Y74615238D01*
X209176639Y74615238D01*
X208986163Y74710476D01*
X208890924Y74805714D01*
X208795686Y74996190D01*
X208795686Y75567619D01*
X208890924Y75758095D01*
X208986163Y75853333D01*
X209176639Y75948571D01*
X209557591Y75948571D01*
X209748067Y75853333D01*
X211557591Y74615238D02*
X211557591Y75662857D01*
X211462353Y75853333D01*
X211271877Y75948571D01*
X210890925Y75948571D01*
X210700448Y75853333D01*
X211557591Y74710476D02*
X211367115Y74615238D01*
X210890925Y74615238D01*
X210700448Y74710476D01*
X210605210Y74900952D01*
X210605210Y75091429D01*
X210700448Y75281905D01*
X210890925Y75377143D01*
X211367115Y75377143D01*
X211557591Y75472381D01*
X212795687Y74615238D02*
X212605211Y74710476D01*
X212509972Y74900952D01*
X212509972Y76615238D01*
X213367115Y75948571D02*
X213843306Y74615238D01*
X214319496Y75948571D02*
X213843306Y74615238D01*
X213652830Y74139048D01*
X213557591Y74043810D01*
X213367115Y73948571D01*
X216509973Y76710476D02*
X214795687Y74139048D01*
X218319497Y74805714D02*
X218224259Y74710476D01*
X217938544Y74615238D01*
X217748068Y74615238D01*
X217462354Y74710476D01*
X217271878Y74900952D01*
X217176639Y75091429D01*
X217081401Y75472381D01*
X217081401Y75758095D01*
X217176639Y76139048D01*
X217271878Y76329524D01*
X217462354Y76520000D01*
X217748068Y76615238D01*
X217938544Y76615238D01*
X218224259Y76520000D01*
X218319497Y76424762D01*
X219557592Y76615238D02*
X219938544Y76615238D01*
X220129020Y76520000D01*
X220319497Y76329524D01*
X220414735Y75948571D01*
X220414735Y75281905D01*
X220319497Y74900952D01*
X220129020Y74710476D01*
X219938544Y74615238D01*
X219557592Y74615238D01*
X219367116Y74710476D01*
X219176639Y74900952D01*
X219081401Y75281905D01*
X219081401Y75948571D01*
X219176639Y76329524D01*
X219367116Y76520000D01*
X219557592Y76615238D01*
X222129020Y76615238D02*
X221748068Y76615238D01*
X221557592Y76520000D01*
X221462354Y76424762D01*
X221271877Y76139048D01*
X221176639Y75758095D01*
X221176639Y74996190D01*
X221271877Y74805714D01*
X221367116Y74710476D01*
X221557592Y74615238D01*
X221938544Y74615238D01*
X222129020Y74710476D01*
X222224258Y74805714D01*
X222319497Y74996190D01*
X222319497Y75472381D01*
X222224258Y75662857D01*
X222129020Y75758095D01*
X221938544Y75853333D01*
X221557592Y75853333D01*
X221367116Y75758095D01*
X221271877Y75662857D01*
X221176639Y75472381D01*
X223557592Y76615238D02*
X223748068Y76615238D01*
X223938544Y76520000D01*
X224033782Y76424762D01*
X224129020Y76234286D01*
X224224259Y75853333D01*
X224224259Y75377143D01*
X224129020Y74996190D01*
X224033782Y74805714D01*
X223938544Y74710476D01*
X223748068Y74615238D01*
X223557592Y74615238D01*
X223367116Y74710476D01*
X223271878Y74805714D01*
X223176639Y74996190D01*
X223081401Y75377143D01*
X223081401Y75853333D01*
X223176639Y76234286D01*
X223271878Y76424762D01*
X223367116Y76520000D01*
X223557592Y76615238D01*
X42914099Y36268114D02*
X42818861Y36172876D01*
X42533146Y36077638D01*
X42342670Y36077638D01*
X42056956Y36172876D01*
X41866480Y36363352D01*
X41771241Y36553829D01*
X41676003Y36934781D01*
X41676003Y37220495D01*
X41771241Y37601448D01*
X41866480Y37791924D01*
X42056956Y37982400D01*
X42342670Y38077638D01*
X42533146Y38077638D01*
X42818861Y37982400D01*
X42914099Y37887162D01*
X44152194Y38077638D02*
X44533146Y38077638D01*
X44723622Y37982400D01*
X44914099Y37791924D01*
X45009337Y37410971D01*
X45009337Y36744305D01*
X44914099Y36363352D01*
X44723622Y36172876D01*
X44533146Y36077638D01*
X44152194Y36077638D01*
X43961718Y36172876D01*
X43771241Y36363352D01*
X43676003Y36744305D01*
X43676003Y37410971D01*
X43771241Y37791924D01*
X43961718Y37982400D01*
X44152194Y38077638D01*
X46723622Y38077638D02*
X46342670Y38077638D01*
X46152194Y37982400D01*
X46056956Y37887162D01*
X45866479Y37601448D01*
X45771241Y37220495D01*
X45771241Y36458590D01*
X45866479Y36268114D01*
X45961718Y36172876D01*
X46152194Y36077638D01*
X46533146Y36077638D01*
X46723622Y36172876D01*
X46818860Y36268114D01*
X46914099Y36458590D01*
X46914099Y36934781D01*
X46818860Y37125257D01*
X46723622Y37220495D01*
X46533146Y37315733D01*
X46152194Y37315733D01*
X45961718Y37220495D01*
X45866479Y37125257D01*
X45771241Y36934781D01*
X48152194Y38077638D02*
X48342670Y38077638D01*
X48533146Y37982400D01*
X48628384Y37887162D01*
X48723622Y37696686D01*
X48818861Y37315733D01*
X48818861Y36839543D01*
X48723622Y36458590D01*
X48628384Y36268114D01*
X48533146Y36172876D01*
X48342670Y36077638D01*
X48152194Y36077638D01*
X47961718Y36172876D01*
X47866480Y36268114D01*
X47771241Y36458590D01*
X47676003Y36839543D01*
X47676003Y37315733D01*
X47771241Y37696686D01*
X47866480Y37887162D01*
X47961718Y37982400D01*
X48152194Y38077638D01*
X51199813Y36077638D02*
X51199813Y38077638D01*
X51961718Y38077638D01*
X52152194Y37982400D01*
X52247433Y37887162D01*
X52342671Y37696686D01*
X52342671Y37410971D01*
X52247433Y37220495D01*
X52152194Y37125257D01*
X51961718Y37030019D01*
X51199813Y37030019D01*
X54342671Y36268114D02*
X54247433Y36172876D01*
X53961718Y36077638D01*
X53771242Y36077638D01*
X53485528Y36172876D01*
X53295052Y36363352D01*
X53199813Y36553829D01*
X53104575Y36934781D01*
X53104575Y37220495D01*
X53199813Y37601448D01*
X53295052Y37791924D01*
X53485528Y37982400D01*
X53771242Y38077638D01*
X53961718Y38077638D01*
X54247433Y37982400D01*
X54342671Y37887162D01*
X55866480Y37125257D02*
X56152194Y37030019D01*
X56247433Y36934781D01*
X56342671Y36744305D01*
X56342671Y36458590D01*
X56247433Y36268114D01*
X56152194Y36172876D01*
X55961718Y36077638D01*
X55199813Y36077638D01*
X55199813Y38077638D01*
X55866480Y38077638D01*
X56056956Y37982400D01*
X56152194Y37887162D01*
X56247433Y37696686D01*
X56247433Y37506210D01*
X56152194Y37315733D01*
X56056956Y37220495D01*
X55866480Y37125257D01*
X55199813Y37125257D01*
X58723623Y36839543D02*
X60247433Y36839543D01*
X63866481Y36077638D02*
X63199814Y37030019D01*
X62723623Y36077638D02*
X62723623Y38077638D01*
X63485528Y38077638D01*
X63676004Y37982400D01*
X63771243Y37887162D01*
X63866481Y37696686D01*
X63866481Y37410971D01*
X63771243Y37220495D01*
X63676004Y37125257D01*
X63485528Y37030019D01*
X62723623Y37030019D01*
X65485528Y36172876D02*
X65295052Y36077638D01*
X64914100Y36077638D01*
X64723623Y36172876D01*
X64628385Y36363352D01*
X64628385Y37125257D01*
X64723623Y37315733D01*
X64914100Y37410971D01*
X65295052Y37410971D01*
X65485528Y37315733D01*
X65580766Y37125257D01*
X65580766Y36934781D01*
X64628385Y36744305D01*
X66247433Y37410971D02*
X66723624Y36077638D01*
X67199814Y37410971D01*
X67961719Y36268114D02*
X68056958Y36172876D01*
X67961719Y36077638D01*
X67866481Y36172876D01*
X67961719Y36268114D01*
X67961719Y36077638D01*
X70247434Y38077638D02*
X71485530Y38077638D01*
X70818863Y37315733D01*
X71104577Y37315733D01*
X71295053Y37220495D01*
X71390291Y37125257D01*
X71485530Y36934781D01*
X71485530Y36458590D01*
X71390291Y36268114D01*
X71295053Y36172876D01*
X71104577Y36077638D01*
X70533149Y36077638D01*
X70342672Y36172876D01*
X70247434Y36268114D01*
X72342672Y36268114D02*
X72437911Y36172876D01*
X72342672Y36077638D01*
X72247434Y36172876D01*
X72342672Y36268114D01*
X72342672Y36077638D01*
X74818863Y36077638D02*
X74818863Y38077638D01*
X75295054Y38077638D01*
X75580768Y37982400D01*
X75771244Y37791924D01*
X75866483Y37601448D01*
X75961721Y37220495D01*
X75961721Y36934781D01*
X75866483Y36553829D01*
X75771244Y36363352D01*
X75580768Y36172876D01*
X75295054Y36077638D01*
X74818863Y36077638D01*
X77580768Y36172876D02*
X77390292Y36077638D01*
X77009340Y36077638D01*
X76818863Y36172876D01*
X76723625Y36363352D01*
X76723625Y37125257D01*
X76818863Y37315733D01*
X77009340Y37410971D01*
X77390292Y37410971D01*
X77580768Y37315733D01*
X77676006Y37125257D01*
X77676006Y36934781D01*
X76723625Y36744305D01*
X78437911Y36172876D02*
X78628388Y36077638D01*
X79009340Y36077638D01*
X79199816Y36172876D01*
X79295054Y36363352D01*
X79295054Y36458590D01*
X79199816Y36649067D01*
X79009340Y36744305D01*
X78723626Y36744305D01*
X78533149Y36839543D01*
X78437911Y37030019D01*
X78437911Y37125257D01*
X78533149Y37315733D01*
X78723626Y37410971D01*
X79009340Y37410971D01*
X79199816Y37315733D01*
X80152197Y36077638D02*
X80152197Y37410971D01*
X80152197Y38077638D02*
X80056959Y37982400D01*
X80152197Y37887162D01*
X80247436Y37982400D01*
X80152197Y38077638D01*
X80152197Y37887162D01*
X81961721Y37410971D02*
X81961721Y35791924D01*
X81866483Y35601448D01*
X81771245Y35506210D01*
X81580769Y35410971D01*
X81295055Y35410971D01*
X81104578Y35506210D01*
X81961721Y36172876D02*
X81771245Y36077638D01*
X81390293Y36077638D01*
X81199817Y36172876D01*
X81104578Y36268114D01*
X81009340Y36458590D01*
X81009340Y37030019D01*
X81104578Y37220495D01*
X81199817Y37315733D01*
X81390293Y37410971D01*
X81771245Y37410971D01*
X81961721Y37315733D01*
X82914102Y37410971D02*
X82914102Y36077638D01*
X82914102Y37220495D02*
X83009341Y37315733D01*
X83199817Y37410971D01*
X83485531Y37410971D01*
X83676007Y37315733D01*
X83771245Y37125257D01*
X83771245Y36077638D01*
X86247436Y36077638D02*
X86247436Y38077638D01*
X86247436Y37315733D02*
X86437913Y37410971D01*
X86818865Y37410971D01*
X87009341Y37315733D01*
X87104579Y37220495D01*
X87199817Y37030019D01*
X87199817Y36458590D01*
X87104579Y36268114D01*
X87009341Y36172876D01*
X86818865Y36077638D01*
X86437913Y36077638D01*
X86247436Y36172876D01*
X87866484Y37410971D02*
X88342675Y36077638D01*
X88818865Y37410971D02*
X88342675Y36077638D01*
X88152199Y35601448D01*
X88056960Y35506210D01*
X87866484Y35410971D01*
X91104580Y37410971D02*
X91104580Y35696686D01*
X91009342Y35506210D01*
X90818866Y35410971D01*
X90723628Y35410971D01*
X91104580Y38077638D02*
X91009342Y37982400D01*
X91104580Y37887162D01*
X91199819Y37982400D01*
X91104580Y38077638D01*
X91104580Y37887162D01*
X92056961Y36077638D02*
X92056961Y37410971D01*
X92056961Y37220495D02*
X92152200Y37315733D01*
X92342676Y37410971D01*
X92628390Y37410971D01*
X92818866Y37315733D01*
X92914104Y37125257D01*
X92914104Y36077638D01*
X92914104Y37125257D02*
X93009342Y37315733D01*
X93199819Y37410971D01*
X93485533Y37410971D01*
X93676009Y37315733D01*
X93771247Y37125257D01*
X93771247Y36077638D01*
X95580771Y36077638D02*
X95580771Y38077638D01*
X95580771Y36172876D02*
X95390295Y36077638D01*
X95009343Y36077638D01*
X94818867Y36172876D01*
X94723628Y36268114D01*
X94628390Y36458590D01*
X94628390Y37030019D01*
X94723628Y37220495D01*
X94818867Y37315733D01*
X95009343Y37410971D01*
X95390295Y37410971D01*
X95580771Y37315733D01*
X97390295Y36077638D02*
X97390295Y37125257D01*
X97295057Y37315733D01*
X97104581Y37410971D01*
X96723629Y37410971D01*
X96533152Y37315733D01*
X97390295Y36172876D02*
X97199819Y36077638D01*
X96723629Y36077638D01*
X96533152Y36172876D01*
X96437914Y36363352D01*
X96437914Y36553829D01*
X96533152Y36744305D01*
X96723629Y36839543D01*
X97199819Y36839543D01*
X97390295Y36934781D01*
X98628391Y36077638D02*
X98437915Y36172876D01*
X98342676Y36363352D01*
X98342676Y38077638D01*
X99199819Y37410971D02*
X99676010Y36077638D01*
X100152200Y37410971D02*
X99676010Y36077638D01*
X99485534Y35601448D01*
X99390295Y35506210D01*
X99199819Y35410971D01*
X102247439Y37410971D02*
X102628392Y36077638D01*
X103009344Y37030019D01*
X103390296Y36077638D01*
X103771249Y37410971D01*
X104533153Y36077638D02*
X104533153Y37410971D01*
X104533153Y38077638D02*
X104437915Y37982400D01*
X104533153Y37887162D01*
X104628392Y37982400D01*
X104533153Y38077638D01*
X104533153Y37887162D01*
X105199820Y37410971D02*
X105961725Y37410971D01*
X105485534Y38077638D02*
X105485534Y36363352D01*
X105580773Y36172876D01*
X105771249Y36077638D01*
X105961725Y36077638D01*
X106628391Y36077638D02*
X106628391Y38077638D01*
X107485534Y36077638D02*
X107485534Y37125257D01*
X107390296Y37315733D01*
X107199820Y37410971D01*
X106914106Y37410971D01*
X106723630Y37315733D01*
X106628391Y37220495D01*
X109961725Y36077638D02*
X109961725Y38077638D01*
X110818868Y36077638D02*
X110818868Y37125257D01*
X110723630Y37315733D01*
X110533154Y37410971D01*
X110247440Y37410971D01*
X110056964Y37315733D01*
X109961725Y37220495D01*
X112533154Y36172876D02*
X112342678Y36077638D01*
X111961726Y36077638D01*
X111771249Y36172876D01*
X111676011Y36363352D01*
X111676011Y37125257D01*
X111771249Y37315733D01*
X111961726Y37410971D01*
X112342678Y37410971D01*
X112533154Y37315733D01*
X112628392Y37125257D01*
X112628392Y36934781D01*
X111676011Y36744305D01*
X113771250Y36077638D02*
X113580774Y36172876D01*
X113485535Y36363352D01*
X113485535Y38077638D01*
X114533154Y37410971D02*
X114533154Y35410971D01*
X114533154Y37315733D02*
X114723631Y37410971D01*
X115104583Y37410971D01*
X115295059Y37315733D01*
X115390297Y37220495D01*
X115485535Y37030019D01*
X115485535Y36458590D01*
X115390297Y36268114D01*
X115295059Y36172876D01*
X115104583Y36077638D01*
X114723631Y36077638D01*
X114533154Y36172876D01*
X117580774Y37410971D02*
X118342679Y37410971D01*
X117866488Y36077638D02*
X117866488Y37791924D01*
X117961727Y37982400D01*
X118152203Y38077638D01*
X118342679Y38077638D01*
X119009345Y36077638D02*
X119009345Y37410971D01*
X119009345Y37030019D02*
X119104584Y37220495D01*
X119199822Y37315733D01*
X119390298Y37410971D01*
X119580774Y37410971D01*
X120533155Y36077638D02*
X120342679Y36172876D01*
X120247440Y36268114D01*
X120152202Y36458590D01*
X120152202Y37030019D01*
X120247440Y37220495D01*
X120342679Y37315733D01*
X120533155Y37410971D01*
X120818869Y37410971D01*
X121009345Y37315733D01*
X121104583Y37220495D01*
X121199821Y37030019D01*
X121199821Y36458590D01*
X121104583Y36268114D01*
X121009345Y36172876D01*
X120818869Y36077638D01*
X120533155Y36077638D01*
X122056964Y36077638D02*
X122056964Y37410971D01*
X122056964Y37220495D02*
X122152203Y37315733D01*
X122342679Y37410971D01*
X122628393Y37410971D01*
X122818869Y37315733D01*
X122914107Y37125257D01*
X122914107Y36077638D01*
X122914107Y37125257D02*
X123009345Y37315733D01*
X123199822Y37410971D01*
X123485536Y37410971D01*
X123676012Y37315733D01*
X123771250Y37125257D01*
X123771250Y36077638D01*
X125961727Y37410971D02*
X126723632Y37410971D01*
X126247441Y38077638D02*
X126247441Y36363352D01*
X126342680Y36172876D01*
X126533156Y36077638D01*
X126723632Y36077638D01*
X127390298Y36077638D02*
X127390298Y38077638D01*
X128247441Y36077638D02*
X128247441Y37125257D01*
X128152203Y37315733D01*
X127961727Y37410971D01*
X127676013Y37410971D01*
X127485537Y37315733D01*
X127390298Y37220495D01*
X129961727Y36172876D02*
X129771251Y36077638D01*
X129390299Y36077638D01*
X129199822Y36172876D01*
X129104584Y36363352D01*
X129104584Y37125257D01*
X129199822Y37315733D01*
X129390299Y37410971D01*
X129771251Y37410971D01*
X129961727Y37315733D01*
X130056965Y37125257D01*
X130056965Y36934781D01*
X129104584Y36744305D01*
X132437918Y36077638D02*
X132437918Y38077638D01*
X133104585Y36649067D01*
X133771252Y38077638D01*
X133771252Y36077638D01*
X135485537Y36172876D02*
X135295061Y36077638D01*
X134914109Y36077638D01*
X134723632Y36172876D01*
X134628394Y36363352D01*
X134628394Y37125257D01*
X134723632Y37315733D01*
X134914109Y37410971D01*
X135295061Y37410971D01*
X135485537Y37315733D01*
X135580775Y37125257D01*
X135580775Y36934781D01*
X134628394Y36744305D01*
X137295061Y36172876D02*
X137104585Y36077638D01*
X136723633Y36077638D01*
X136533157Y36172876D01*
X136437918Y36268114D01*
X136342680Y36458590D01*
X136342680Y37030019D01*
X136437918Y37220495D01*
X136533157Y37315733D01*
X136723633Y37410971D01*
X137104585Y37410971D01*
X137295061Y37315733D01*
X138152204Y36077638D02*
X138152204Y38077638D01*
X139009347Y36077638D02*
X139009347Y37125257D01*
X138914109Y37315733D01*
X138723633Y37410971D01*
X138437919Y37410971D01*
X138247443Y37315733D01*
X138152204Y37220495D01*
X139961728Y36077638D02*
X139961728Y38077638D01*
X141104586Y36077638D02*
X140247443Y37220495D01*
X141104586Y38077638D02*
X139961728Y36934781D01*
X142723633Y36172876D02*
X142533157Y36077638D01*
X142152205Y36077638D01*
X141961728Y36172876D01*
X141866490Y36363352D01*
X141866490Y37125257D01*
X141961728Y37315733D01*
X142152205Y37410971D01*
X142533157Y37410971D01*
X142723633Y37315733D01*
X142818871Y37125257D01*
X142818871Y36934781D01*
X141866490Y36744305D01*
X143485538Y37410971D02*
X143961729Y36077638D01*
X144437919Y37410971D02*
X143961729Y36077638D01*
X143771253Y35601448D01*
X143676014Y35506210D01*
X143485538Y35410971D01*
X145104586Y36172876D02*
X145295063Y36077638D01*
X145676015Y36077638D01*
X145866491Y36172876D01*
X145961729Y36363352D01*
X145961729Y36458590D01*
X145866491Y36649067D01*
X145676015Y36744305D01*
X145390301Y36744305D01*
X145199824Y36839543D01*
X145104586Y37030019D01*
X145104586Y37125257D01*
X145199824Y37315733D01*
X145390301Y37410971D01*
X145676015Y37410971D01*
X145866491Y37315733D01*
X148342682Y36077638D02*
X148342682Y38077638D01*
X148818873Y38077638D01*
X149104587Y37982400D01*
X149295063Y37791924D01*
X149390302Y37601448D01*
X149485540Y37220495D01*
X149485540Y36934781D01*
X149390302Y36553829D01*
X149295063Y36363352D01*
X149104587Y36172876D01*
X148818873Y36077638D01*
X148342682Y36077638D01*
X150342682Y36077638D02*
X150342682Y37410971D01*
X150342682Y38077638D02*
X150247444Y37982400D01*
X150342682Y37887162D01*
X150437921Y37982400D01*
X150342682Y38077638D01*
X150342682Y37887162D01*
X151199825Y36172876D02*
X151390302Y36077638D01*
X151771254Y36077638D01*
X151961730Y36172876D01*
X152056968Y36363352D01*
X152056968Y36458590D01*
X151961730Y36649067D01*
X151771254Y36744305D01*
X151485540Y36744305D01*
X151295063Y36839543D01*
X151199825Y37030019D01*
X151199825Y37125257D01*
X151295063Y37315733D01*
X151485540Y37410971D01*
X151771254Y37410971D01*
X151961730Y37315733D01*
X153771254Y36172876D02*
X153580778Y36077638D01*
X153199826Y36077638D01*
X153009350Y36172876D01*
X152914111Y36268114D01*
X152818873Y36458590D01*
X152818873Y37030019D01*
X152914111Y37220495D01*
X153009350Y37315733D01*
X153199826Y37410971D01*
X153580778Y37410971D01*
X153771254Y37315733D01*
X154914112Y36077638D02*
X154723636Y36172876D01*
X154628397Y36268114D01*
X154533159Y36458590D01*
X154533159Y37030019D01*
X154628397Y37220495D01*
X154723636Y37315733D01*
X154914112Y37410971D01*
X155199826Y37410971D01*
X155390302Y37315733D01*
X155485540Y37220495D01*
X155580778Y37030019D01*
X155580778Y36458590D01*
X155485540Y36268114D01*
X155390302Y36172876D01*
X155199826Y36077638D01*
X154914112Y36077638D01*
X156437921Y36077638D02*
X156437921Y37410971D01*
X156437921Y37030019D02*
X156533160Y37220495D01*
X156628398Y37315733D01*
X156818874Y37410971D01*
X157009350Y37410971D01*
X158533159Y36077638D02*
X158533159Y38077638D01*
X158533159Y36172876D02*
X158342683Y36077638D01*
X157961731Y36077638D01*
X157771255Y36172876D01*
X157676016Y36268114D01*
X157580778Y36458590D01*
X157580778Y37030019D01*
X157676016Y37220495D01*
X157771255Y37315733D01*
X157961731Y37410971D01*
X158342683Y37410971D01*
X158533159Y37315733D01*
D12*
G36*
X132240760Y16305160D02*
X132309340Y16340720D01*
X132456660Y16434700D01*
X132670020Y16571860D01*
X132918940Y16742040D01*
X133170400Y16912220D01*
X133378680Y17049380D01*
X133523460Y17143360D01*
X133584420Y17176380D01*
X133614900Y17163680D01*
X133736820Y17105260D01*
X133909540Y17016360D01*
X134008600Y16965560D01*
X134168620Y16894440D01*
X134247360Y16881740D01*
X134260060Y16904600D01*
X134318480Y17026520D01*
X134409920Y17232260D01*
X134531840Y17509120D01*
X134669000Y17831700D01*
X134816320Y18179680D01*
X134963640Y18532740D01*
X135103340Y18870560D01*
X135227800Y19175360D01*
X135326860Y19421740D01*
X135392900Y19594460D01*
X135415760Y19668120D01*
X135408140Y19683360D01*
X135329400Y19762100D01*
X135189700Y19866240D01*
X134889980Y20110080D01*
X134592800Y20478380D01*
X134412460Y20900020D01*
X134354040Y21367380D01*
X134404840Y21801720D01*
X134575020Y22218280D01*
X134864580Y22591660D01*
X135217640Y22871060D01*
X135629120Y23046320D01*
X136091400Y23102200D01*
X136533360Y23053940D01*
X136960080Y22886300D01*
X137333460Y22601820D01*
X137490940Y22418940D01*
X137709380Y22037940D01*
X137833840Y21631540D01*
X137846540Y21527400D01*
X137828760Y21082900D01*
X137696680Y20656180D01*
X137460460Y20272640D01*
X137135340Y19960220D01*
X137094700Y19929740D01*
X136942300Y19817980D01*
X136840700Y19739240D01*
X136761960Y19673200D01*
X137328380Y18306680D01*
X137419820Y18088240D01*
X137574760Y17714860D01*
X137711920Y17394820D01*
X137821140Y17138280D01*
X137897340Y16965560D01*
X137930360Y16896980D01*
X137935440Y16894440D01*
X137983700Y16884280D01*
X138090380Y16922380D01*
X138278340Y17016360D01*
X138405340Y17079860D01*
X138550120Y17150980D01*
X138616160Y17176380D01*
X138672040Y17145900D01*
X138811740Y17054460D01*
X139014940Y16919840D01*
X139258780Y16754740D01*
X139489920Y16594720D01*
X139705820Y16455020D01*
X139863300Y16353420D01*
X139936960Y16312780D01*
X139949660Y16312780D01*
X140018240Y16350880D01*
X140140160Y16455020D01*
X140325580Y16630280D01*
X140589740Y16889360D01*
X140630380Y16930000D01*
X140846280Y17150980D01*
X141021540Y17333860D01*
X141140920Y17465940D01*
X141181560Y17526900D01*
X141181560Y17526900D01*
X141143460Y17600560D01*
X141044400Y17755500D01*
X140902160Y17973940D01*
X140729440Y18227940D01*
X140277320Y18885800D01*
X140526240Y19505560D01*
X140602440Y19696060D01*
X140698960Y19927200D01*
X140772620Y20089760D01*
X140808180Y20163420D01*
X140876760Y20186280D01*
X141046940Y20226920D01*
X141290780Y20277720D01*
X141585420Y20333600D01*
X141864820Y20384400D01*
X142118820Y20432660D01*
X142301700Y20468220D01*
X142382980Y20483460D01*
X142403300Y20496160D01*
X142418540Y20536800D01*
X142431240Y20620620D01*
X142436320Y20775560D01*
X142438860Y21016860D01*
X142438860Y21367380D01*
X142438860Y21405480D01*
X142436320Y21740760D01*
X142431240Y22004920D01*
X142421080Y22180180D01*
X142410920Y22248760D01*
X142408380Y22248760D01*
X142329640Y22269080D01*
X142151840Y22307180D01*
X141897840Y22355440D01*
X141598120Y22413860D01*
X141577800Y22416400D01*
X141278080Y22474820D01*
X141026620Y22528160D01*
X140851360Y22568800D01*
X140775160Y22591660D01*
X140759920Y22611980D01*
X140698960Y22728820D01*
X140615140Y22916780D01*
X140513540Y23142840D01*
X140417020Y23379060D01*
X140330660Y23589880D01*
X140274780Y23749900D01*
X140257000Y23821020D01*
X140257000Y23823560D01*
X140302720Y23894680D01*
X140406860Y24049620D01*
X140554180Y24265520D01*
X140726900Y24522060D01*
X140742140Y24542380D01*
X140914860Y24796380D01*
X141054560Y25009740D01*
X141148540Y25162140D01*
X141181560Y25230720D01*
X141181560Y25235800D01*
X141125680Y25312000D01*
X140996140Y25456780D01*
X140810720Y25649820D01*
X140587200Y25873340D01*
X140516080Y25944460D01*
X140269700Y26183220D01*
X140099520Y26343240D01*
X139992840Y26427060D01*
X139942040Y26444840D01*
X139939500Y26442300D01*
X139863300Y26396580D01*
X139703280Y26292440D01*
X139484840Y26145120D01*
X139228300Y25969860D01*
X139207980Y25957160D01*
X138956520Y25786980D01*
X138743160Y25642200D01*
X138593300Y25543140D01*
X138527260Y25502500D01*
X138517100Y25502500D01*
X138412960Y25532980D01*
X138232620Y25596480D01*
X138011640Y25682840D01*
X137775420Y25776820D01*
X137562060Y25868260D01*
X137402040Y25941920D01*
X137325840Y25982560D01*
X137325840Y25987640D01*
X137297900Y26079080D01*
X137254720Y26267040D01*
X137201380Y26528660D01*
X137140420Y26841080D01*
X137132800Y26889340D01*
X137074380Y27194140D01*
X137026120Y27443060D01*
X136990560Y27615780D01*
X136972780Y27686900D01*
X136929600Y27697060D01*
X136782280Y27707220D01*
X136556220Y27712300D01*
X136284440Y27717380D01*
X135994880Y27714840D01*
X135715480Y27707220D01*
X135474180Y27699600D01*
X135304000Y27686900D01*
X135232880Y27674200D01*
X135230340Y27669120D01*
X135202400Y27575140D01*
X135161760Y27384640D01*
X135108420Y27123020D01*
X135047460Y26810600D01*
X135037300Y26754720D01*
X134981420Y26455000D01*
X134930620Y26206080D01*
X134892520Y26035900D01*
X134874740Y25969860D01*
X134846800Y25954620D01*
X134722340Y25901280D01*
X134519140Y25817460D01*
X134270220Y25715860D01*
X133688560Y25479640D01*
X132974820Y25969860D01*
X132911320Y26013040D01*
X132654780Y26188300D01*
X132443960Y26328000D01*
X132296640Y26421980D01*
X132235680Y26457540D01*
X132230600Y26455000D01*
X132159480Y26391500D01*
X132019780Y26259420D01*
X131826740Y26071460D01*
X131600680Y25847940D01*
X131435580Y25682840D01*
X131240000Y25482180D01*
X131115540Y25347560D01*
X131046960Y25261200D01*
X131021560Y25210400D01*
X131029180Y25174840D01*
X131074900Y25101180D01*
X131179040Y24946240D01*
X131326360Y24727800D01*
X131499080Y24476340D01*
X131641320Y24265520D01*
X131796260Y24026760D01*
X131897860Y23856580D01*
X131933420Y23772760D01*
X131923260Y23737200D01*
X131875000Y23597500D01*
X131788640Y23386680D01*
X131681960Y23135220D01*
X131435580Y22571340D01*
X131064740Y22500220D01*
X130841220Y22459580D01*
X130526260Y22398620D01*
X130226540Y22340200D01*
X129759180Y22248760D01*
X129741400Y20526640D01*
X129815060Y20496160D01*
X129883640Y20478380D01*
X130056360Y20440280D01*
X130305280Y20389480D01*
X130597380Y20336140D01*
X130846300Y20287880D01*
X131097760Y20242160D01*
X131278100Y20206600D01*
X131356840Y20188820D01*
X131377160Y20163420D01*
X131440660Y20041500D01*
X131529560Y19848460D01*
X131628620Y19614780D01*
X131730220Y19373480D01*
X131816580Y19152500D01*
X131880080Y18982320D01*
X131902940Y18895960D01*
X131867380Y18829920D01*
X131773400Y18682600D01*
X131633700Y18471780D01*
X131463520Y18222860D01*
X131293340Y17973940D01*
X131151100Y17760580D01*
X131049500Y17605640D01*
X131008860Y17537060D01*
X131029180Y17488800D01*
X131128240Y17369420D01*
X131316200Y17173840D01*
X131595600Y16896980D01*
X131641320Y16851260D01*
X131864840Y16637900D01*
X132052800Y16465180D01*
X132184880Y16348340D01*
X132240760Y16305160D01*
X132240760Y16305160D01*
G37*
X132240760Y16305160D02*
X132309340Y16340720D01*
X132456660Y16434700D01*
X132670020Y16571860D01*
X132918940Y16742040D01*
X133170400Y16912220D01*
X133378680Y17049380D01*
X133523460Y17143360D01*
X133584420Y17176380D01*
X133614900Y17163680D01*
X133736820Y17105260D01*
X133909540Y17016360D01*
X134008600Y16965560D01*
X134168620Y16894440D01*
X134247360Y16881740D01*
X134260060Y16904600D01*
X134318480Y17026520D01*
X134409920Y17232260D01*
X134531840Y17509120D01*
X134669000Y17831700D01*
X134816320Y18179680D01*
X134963640Y18532740D01*
X135103340Y18870560D01*
X135227800Y19175360D01*
X135326860Y19421740D01*
X135392900Y19594460D01*
X135415760Y19668120D01*
X135408140Y19683360D01*
X135329400Y19762100D01*
X135189700Y19866240D01*
X134889980Y20110080D01*
X134592800Y20478380D01*
X134412460Y20900020D01*
X134354040Y21367380D01*
X134404840Y21801720D01*
X134575020Y22218280D01*
X134864580Y22591660D01*
X135217640Y22871060D01*
X135629120Y23046320D01*
X136091400Y23102200D01*
X136533360Y23053940D01*
X136960080Y22886300D01*
X137333460Y22601820D01*
X137490940Y22418940D01*
X137709380Y22037940D01*
X137833840Y21631540D01*
X137846540Y21527400D01*
X137828760Y21082900D01*
X137696680Y20656180D01*
X137460460Y20272640D01*
X137135340Y19960220D01*
X137094700Y19929740D01*
X136942300Y19817980D01*
X136840700Y19739240D01*
X136761960Y19673200D01*
X137328380Y18306680D01*
X137419820Y18088240D01*
X137574760Y17714860D01*
X137711920Y17394820D01*
X137821140Y17138280D01*
X137897340Y16965560D01*
X137930360Y16896980D01*
X137935440Y16894440D01*
X137983700Y16884280D01*
X138090380Y16922380D01*
X138278340Y17016360D01*
X138405340Y17079860D01*
X138550120Y17150980D01*
X138616160Y17176380D01*
X138672040Y17145900D01*
X138811740Y17054460D01*
X139014940Y16919840D01*
X139258780Y16754740D01*
X139489920Y16594720D01*
X139705820Y16455020D01*
X139863300Y16353420D01*
X139936960Y16312780D01*
X139949660Y16312780D01*
X140018240Y16350880D01*
X140140160Y16455020D01*
X140325580Y16630280D01*
X140589740Y16889360D01*
X140630380Y16930000D01*
X140846280Y17150980D01*
X141021540Y17333860D01*
X141140920Y17465940D01*
X141181560Y17526900D01*
X141181560Y17526900D01*
X141143460Y17600560D01*
X141044400Y17755500D01*
X140902160Y17973940D01*
X140729440Y18227940D01*
X140277320Y18885800D01*
X140526240Y19505560D01*
X140602440Y19696060D01*
X140698960Y19927200D01*
X140772620Y20089760D01*
X140808180Y20163420D01*
X140876760Y20186280D01*
X141046940Y20226920D01*
X141290780Y20277720D01*
X141585420Y20333600D01*
X141864820Y20384400D01*
X142118820Y20432660D01*
X142301700Y20468220D01*
X142382980Y20483460D01*
X142403300Y20496160D01*
X142418540Y20536800D01*
X142431240Y20620620D01*
X142436320Y20775560D01*
X142438860Y21016860D01*
X142438860Y21367380D01*
X142438860Y21405480D01*
X142436320Y21740760D01*
X142431240Y22004920D01*
X142421080Y22180180D01*
X142410920Y22248760D01*
X142408380Y22248760D01*
X142329640Y22269080D01*
X142151840Y22307180D01*
X141897840Y22355440D01*
X141598120Y22413860D01*
X141577800Y22416400D01*
X141278080Y22474820D01*
X141026620Y22528160D01*
X140851360Y22568800D01*
X140775160Y22591660D01*
X140759920Y22611980D01*
X140698960Y22728820D01*
X140615140Y22916780D01*
X140513540Y23142840D01*
X140417020Y23379060D01*
X140330660Y23589880D01*
X140274780Y23749900D01*
X140257000Y23821020D01*
X140257000Y23823560D01*
X140302720Y23894680D01*
X140406860Y24049620D01*
X140554180Y24265520D01*
X140726900Y24522060D01*
X140742140Y24542380D01*
X140914860Y24796380D01*
X141054560Y25009740D01*
X141148540Y25162140D01*
X141181560Y25230720D01*
X141181560Y25235800D01*
X141125680Y25312000D01*
X140996140Y25456780D01*
X140810720Y25649820D01*
X140587200Y25873340D01*
X140516080Y25944460D01*
X140269700Y26183220D01*
X140099520Y26343240D01*
X139992840Y26427060D01*
X139942040Y26444840D01*
X139939500Y26442300D01*
X139863300Y26396580D01*
X139703280Y26292440D01*
X139484840Y26145120D01*
X139228300Y25969860D01*
X139207980Y25957160D01*
X138956520Y25786980D01*
X138743160Y25642200D01*
X138593300Y25543140D01*
X138527260Y25502500D01*
X138517100Y25502500D01*
X138412960Y25532980D01*
X138232620Y25596480D01*
X138011640Y25682840D01*
X137775420Y25776820D01*
X137562060Y25868260D01*
X137402040Y25941920D01*
X137325840Y25982560D01*
X137325840Y25987640D01*
X137297900Y26079080D01*
X137254720Y26267040D01*
X137201380Y26528660D01*
X137140420Y26841080D01*
X137132800Y26889340D01*
X137074380Y27194140D01*
X137026120Y27443060D01*
X136990560Y27615780D01*
X136972780Y27686900D01*
X136929600Y27697060D01*
X136782280Y27707220D01*
X136556220Y27712300D01*
X136284440Y27717380D01*
X135994880Y27714840D01*
X135715480Y27707220D01*
X135474180Y27699600D01*
X135304000Y27686900D01*
X135232880Y27674200D01*
X135230340Y27669120D01*
X135202400Y27575140D01*
X135161760Y27384640D01*
X135108420Y27123020D01*
X135047460Y26810600D01*
X135037300Y26754720D01*
X134981420Y26455000D01*
X134930620Y26206080D01*
X134892520Y26035900D01*
X134874740Y25969860D01*
X134846800Y25954620D01*
X134722340Y25901280D01*
X134519140Y25817460D01*
X134270220Y25715860D01*
X133688560Y25479640D01*
X132974820Y25969860D01*
X132911320Y26013040D01*
X132654780Y26188300D01*
X132443960Y26328000D01*
X132296640Y26421980D01*
X132235680Y26457540D01*
X132230600Y26455000D01*
X132159480Y26391500D01*
X132019780Y26259420D01*
X131826740Y26071460D01*
X131600680Y25847940D01*
X131435580Y25682840D01*
X131240000Y25482180D01*
X131115540Y25347560D01*
X131046960Y25261200D01*
X131021560Y25210400D01*
X131029180Y25174840D01*
X131074900Y25101180D01*
X131179040Y24946240D01*
X131326360Y24727800D01*
X131499080Y24476340D01*
X131641320Y24265520D01*
X131796260Y24026760D01*
X131897860Y23856580D01*
X131933420Y23772760D01*
X131923260Y23737200D01*
X131875000Y23597500D01*
X131788640Y23386680D01*
X131681960Y23135220D01*
X131435580Y22571340D01*
X131064740Y22500220D01*
X130841220Y22459580D01*
X130526260Y22398620D01*
X130226540Y22340200D01*
X129759180Y22248760D01*
X129741400Y20526640D01*
X129815060Y20496160D01*
X129883640Y20478380D01*
X130056360Y20440280D01*
X130305280Y20389480D01*
X130597380Y20336140D01*
X130846300Y20287880D01*
X131097760Y20242160D01*
X131278100Y20206600D01*
X131356840Y20188820D01*
X131377160Y20163420D01*
X131440660Y20041500D01*
X131529560Y19848460D01*
X131628620Y19614780D01*
X131730220Y19373480D01*
X131816580Y19152500D01*
X131880080Y18982320D01*
X131902940Y18895960D01*
X131867380Y18829920D01*
X131773400Y18682600D01*
X131633700Y18471780D01*
X131463520Y18222860D01*
X131293340Y17973940D01*
X131151100Y17760580D01*
X131049500Y17605640D01*
X131008860Y17537060D01*
X131029180Y17488800D01*
X131128240Y17369420D01*
X131316200Y17173840D01*
X131595600Y16896980D01*
X131641320Y16851260D01*
X131864840Y16637900D01*
X132052800Y16465180D01*
X132184880Y16348340D01*
X132240760Y16305160D01*
M02*
