G04 #@! TF.GenerationSoftware,KiCad,Pcbnew,5.0.1-33cea8e~67~ubuntu16.04.1*
G04 #@! TF.CreationDate,2019-01-15T22:23:53+00:00*
G04 #@! TF.ProjectId,co60,636F36302E6B696361645F7063620000,rev?*
G04 #@! TF.SameCoordinates,PX4b4f718PY8c7ecc0*
G04 #@! TF.FileFunction,Paste,Bot*
G04 #@! TF.FilePolarity,Positive*
%FSLAX46Y46*%
G04 Gerber Fmt 4.6, Leading zero omitted, Abs format (unit mm)*
G04 Created by KiCad (PCBNEW 5.0.1-33cea8e~67~ubuntu16.04.1) date Tue 15 Jan 2019 10:23:53 PM UTC*
%MOMM*%
%LPD*%
G01*
G04 APERTURE LIST*
%ADD10R,0.600000X1.450000*%
%ADD11R,0.300000X1.450000*%
%ADD12R,0.900000X0.500000*%
%ADD13R,0.500000X0.900000*%
%ADD14R,1.300000X0.700000*%
%ADD15R,1.200000X0.900000*%
%ADD16R,0.900000X1.200000*%
%ADD17R,1.000000X1.700000*%
%ADD18R,0.600000X1.300000*%
%ADD19R,0.250000X1.300000*%
%ADD20R,1.300000X0.250000*%
%ADD21R,0.650000X1.060000*%
%ADD22R,1.600000X1.300000*%
%ADD23C,0.100000*%
%ADD24C,0.875000*%
%ADD25R,1.500000X1.000000*%
%ADD26R,0.420000X0.600000*%
%ADD27R,0.650000X0.400000*%
G04 APERTURE END LIST*
D10*
G04 #@! TO.C,USB1*
X21438400Y88875800D03*
X14988400Y88875800D03*
X20663400Y88875800D03*
X15763400Y88875800D03*
D11*
X16463400Y88875800D03*
X19963400Y88875800D03*
X16963400Y88875800D03*
X19463400Y88875800D03*
X17463400Y88875800D03*
X18963400Y88875800D03*
X18463400Y88875800D03*
X17963400Y88875800D03*
G04 #@! TD*
D12*
G04 #@! TO.C,R68*
X267741400Y1282000D03*
X267741400Y2782000D03*
G04 #@! TD*
G04 #@! TO.C,R67*
X253136400Y3163000D03*
X253136400Y1663000D03*
G04 #@! TD*
G04 #@! TO.C,R66*
X234165775Y2504375D03*
X234165775Y4004375D03*
G04 #@! TD*
G04 #@! TO.C,R65*
X230593900Y2504375D03*
X230593900Y4004375D03*
G04 #@! TD*
G04 #@! TO.C,R64*
X206781400Y2504375D03*
X206781400Y4004375D03*
G04 #@! TD*
G04 #@! TO.C,R63*
X159156400Y3695000D03*
X159156400Y5195000D03*
G04 #@! TD*
G04 #@! TO.C,R62*
X121056400Y2504375D03*
X121056400Y4004375D03*
G04 #@! TD*
G04 #@! TO.C,R61*
X117678200Y2475800D03*
X117678200Y3975800D03*
G04 #@! TD*
G04 #@! TO.C,R60*
X54381400Y2504375D03*
X54381400Y4004375D03*
G04 #@! TD*
G04 #@! TO.C,R59*
X30568900Y2504375D03*
X30568900Y4004375D03*
G04 #@! TD*
G04 #@! TO.C,R58*
X6756400Y2504375D03*
X6756400Y4004375D03*
G04 #@! TD*
D13*
G04 #@! TO.C,R57*
X275087650Y19923125D03*
X276587650Y19923125D03*
G04 #@! TD*
D12*
G04 #@! TO.C,R56*
X254406400Y21554375D03*
X254406400Y23054375D03*
G04 #@! TD*
G04 #@! TO.C,R55*
X218687650Y21554375D03*
X218687650Y23054375D03*
G04 #@! TD*
G04 #@! TO.C,R54*
X199637650Y21554375D03*
X199637650Y23054375D03*
G04 #@! TD*
G04 #@! TO.C,R53*
X180587650Y21554375D03*
X180587650Y23054375D03*
G04 #@! TD*
G04 #@! TO.C,R52*
X161441400Y22540000D03*
X161441400Y24040000D03*
G04 #@! TD*
G04 #@! TO.C,R51*
X142487650Y21554375D03*
X142487650Y23054375D03*
G04 #@! TD*
G04 #@! TO.C,R50*
X123281400Y22570000D03*
X123281400Y24070000D03*
G04 #@! TD*
G04 #@! TO.C,R49*
X104387650Y21554375D03*
X104387650Y23054375D03*
G04 #@! TD*
G04 #@! TO.C,R48*
X85337650Y21554375D03*
X85337650Y23054375D03*
G04 #@! TD*
G04 #@! TO.C,R47*
X66121400Y22670000D03*
X66121400Y24170000D03*
G04 #@! TD*
G04 #@! TO.C,R46*
X47237650Y21554375D03*
X47237650Y23054375D03*
G04 #@! TD*
G04 #@! TO.C,R45*
X28187650Y21554375D03*
X28187650Y23054375D03*
G04 #@! TD*
G04 #@! TO.C,R44*
X6756400Y23935625D03*
X6756400Y25435625D03*
G04 #@! TD*
G04 #@! TO.C,R43*
X259168900Y40604375D03*
X259168900Y42104375D03*
G04 #@! TD*
G04 #@! TO.C,R42*
X247262650Y40604375D03*
X247262650Y42104375D03*
G04 #@! TD*
G04 #@! TO.C,R41*
X228212650Y40604375D03*
X228212650Y42104375D03*
G04 #@! TD*
G04 #@! TO.C,R40*
X209162650Y40604375D03*
X209162650Y42104375D03*
G04 #@! TD*
G04 #@! TO.C,R39*
X190112650Y40604375D03*
X190112650Y42104375D03*
G04 #@! TD*
G04 #@! TO.C,R38*
X171062650Y40604375D03*
X171062650Y42104375D03*
G04 #@! TD*
G04 #@! TO.C,R37*
X152012650Y40604375D03*
X152012650Y42104375D03*
G04 #@! TD*
G04 #@! TO.C,R36*
X132962650Y40604375D03*
X132962650Y42104375D03*
G04 #@! TD*
G04 #@! TO.C,R35*
X113912650Y40604375D03*
X113912650Y42104375D03*
G04 #@! TD*
G04 #@! TO.C,R34*
X94862650Y40604375D03*
X94862650Y42104375D03*
G04 #@! TD*
G04 #@! TO.C,R33*
X75812650Y40604375D03*
X75812650Y42104375D03*
G04 #@! TD*
G04 #@! TO.C,R32*
X56762650Y40604375D03*
X56762650Y42104375D03*
G04 #@! TD*
G04 #@! TO.C,R31*
X37712650Y40604375D03*
X37712650Y42104375D03*
G04 #@! TD*
G04 #@! TO.C,R30*
X7947025Y42985625D03*
X7947025Y44485625D03*
G04 #@! TD*
G04 #@! TO.C,R29*
X266312650Y59654375D03*
X266312650Y61154375D03*
G04 #@! TD*
G04 #@! TO.C,R28*
X242500150Y59654375D03*
X242500150Y61154375D03*
G04 #@! TD*
G04 #@! TO.C,R27*
X223450150Y59654375D03*
X223450150Y61154375D03*
G04 #@! TD*
G04 #@! TO.C,R26*
X204400150Y59654375D03*
X204400150Y61154375D03*
G04 #@! TD*
G04 #@! TO.C,R25*
X185350150Y59654375D03*
X185350150Y61154375D03*
G04 #@! TD*
G04 #@! TO.C,R24*
X166300150Y59654375D03*
X166300150Y61154375D03*
G04 #@! TD*
G04 #@! TO.C,R23*
X147250150Y59654375D03*
X147250150Y61154375D03*
G04 #@! TD*
G04 #@! TO.C,R19*
X71050150Y59654375D03*
X71050150Y61154375D03*
G04 #@! TD*
G04 #@! TO.C,R18*
X62151400Y61170000D03*
X62151400Y59670000D03*
G04 #@! TD*
G04 #@! TO.C,R17*
X33031400Y62770000D03*
X33031400Y64270000D03*
G04 #@! TD*
G04 #@! TO.C,R16*
X9137650Y59654375D03*
X9137650Y61154375D03*
G04 #@! TD*
G04 #@! TO.C,R15*
X271075150Y78704375D03*
X271075150Y80204375D03*
G04 #@! TD*
G04 #@! TO.C,R14*
X250834525Y78704375D03*
X250834525Y80204375D03*
G04 #@! TD*
G04 #@! TO.C,R13*
X232851400Y79840000D03*
X232851400Y81340000D03*
G04 #@! TD*
G04 #@! TO.C,R12*
X213925150Y78704375D03*
X213925150Y80204375D03*
G04 #@! TD*
G04 #@! TO.C,R11*
X194161400Y79760000D03*
X194161400Y81260000D03*
G04 #@! TD*
G04 #@! TO.C,R10*
X175825150Y78704375D03*
X175825150Y80204375D03*
G04 #@! TD*
G04 #@! TO.C,R9*
X156775150Y78704375D03*
X156775150Y80204375D03*
G04 #@! TD*
G04 #@! TO.C,R8*
X137725150Y78704375D03*
X137725150Y80204375D03*
G04 #@! TD*
G04 #@! TO.C,R7*
X118675150Y78704375D03*
X118675150Y80204375D03*
G04 #@! TD*
G04 #@! TO.C,R6*
X99625150Y78704375D03*
X99625150Y80204375D03*
G04 #@! TD*
G04 #@! TO.C,R5*
X80575150Y78704375D03*
X80575150Y80204375D03*
G04 #@! TD*
G04 #@! TO.C,R4*
X61271400Y79770000D03*
X61271400Y81270000D03*
G04 #@! TD*
G04 #@! TO.C,R3*
X42475150Y78704375D03*
X42475150Y80204375D03*
G04 #@! TD*
G04 #@! TO.C,R2*
X23425150Y78704375D03*
X23425150Y80204375D03*
G04 #@! TD*
G04 #@! TO.C,R1*
X4375150Y78704375D03*
X4375150Y80204375D03*
G04 #@! TD*
D14*
G04 #@! TO.C,F1*
X14231400Y81320000D03*
X14231400Y83220000D03*
G04 #@! TD*
D15*
G04 #@! TO.C,D68*
X281790775Y12320000D03*
X281790775Y15620000D03*
G04 #@! TD*
G04 #@! TO.C,D67*
X263781400Y11420000D03*
X263781400Y14720000D03*
G04 #@! TD*
G04 #@! TO.C,D66*
X243690775Y14701250D03*
X243690775Y18001250D03*
G04 #@! TD*
G04 #@! TO.C,D65*
X211543900Y13510625D03*
X211543900Y16810625D03*
G04 #@! TD*
G04 #@! TO.C,D64*
X207972025Y13510625D03*
X207972025Y16810625D03*
G04 #@! TD*
G04 #@! TO.C,D63*
X155584525Y7557500D03*
X155584525Y10857500D03*
G04 #@! TD*
G04 #@! TO.C,D62*
X150822025Y7557500D03*
X150822025Y10857500D03*
G04 #@! TD*
G04 #@! TO.C,D61*
X110340775Y8748125D03*
X110340775Y12048125D03*
G04 #@! TD*
G04 #@! TO.C,D60*
X69859525Y8748125D03*
X69859525Y12048125D03*
G04 #@! TD*
G04 #@! TO.C,D59*
X46047025Y8748125D03*
X46047025Y12048125D03*
G04 #@! TD*
G04 #@! TO.C,D58*
X22733000Y12167600D03*
X22733000Y15467600D03*
G04 #@! TD*
G04 #@! TO.C,D57*
X281790775Y21845000D03*
X281790775Y25145000D03*
G04 #@! TD*
G04 #@! TO.C,D56*
X267503275Y27798125D03*
X267503275Y31098125D03*
G04 #@! TD*
G04 #@! TO.C,D55*
X231784525Y27798125D03*
X231784525Y31098125D03*
G04 #@! TD*
G04 #@! TO.C,D54*
X212734525Y27798125D03*
X212734525Y31098125D03*
G04 #@! TD*
G04 #@! TO.C,D53*
X193684525Y27798125D03*
X193684525Y31098125D03*
G04 #@! TD*
G04 #@! TO.C,D52*
X174634525Y27798125D03*
X174634525Y31098125D03*
G04 #@! TD*
G04 #@! TO.C,D51*
X155584525Y27798125D03*
X155584525Y31098125D03*
G04 #@! TD*
G04 #@! TO.C,D50*
X136534525Y27798125D03*
X136534525Y31098125D03*
G04 #@! TD*
G04 #@! TO.C,D49*
X117484525Y27798125D03*
X117484525Y31098125D03*
G04 #@! TD*
G04 #@! TO.C,D48*
X98434525Y27798125D03*
X98434525Y31098125D03*
G04 #@! TD*
G04 #@! TO.C,D47*
X79384525Y27798125D03*
X79384525Y31098125D03*
G04 #@! TD*
G04 #@! TO.C,D46*
X60334525Y27798125D03*
X60334525Y31098125D03*
G04 #@! TD*
G04 #@! TO.C,D45*
X41284525Y27798125D03*
X41284525Y31098125D03*
G04 #@! TD*
G04 #@! TO.C,D44*
X3184525Y27798125D03*
X3184525Y31098125D03*
G04 #@! TD*
G04 #@! TO.C,D43*
X272265775Y45657500D03*
X272265775Y48957500D03*
G04 #@! TD*
G04 #@! TO.C,D42*
X259168900Y52801250D03*
X259168900Y56101250D03*
G04 #@! TD*
G04 #@! TO.C,D41*
X241309525Y46848125D03*
X241309525Y50148125D03*
G04 #@! TD*
G04 #@! TO.C,D40*
X222259525Y46848125D03*
X222259525Y50148125D03*
G04 #@! TD*
G04 #@! TO.C,D39*
X203209525Y46848125D03*
X203209525Y50148125D03*
G04 #@! TD*
G04 #@! TO.C,D38*
X184159525Y46848125D03*
X184159525Y50148125D03*
G04 #@! TD*
G04 #@! TO.C,D37*
X165109525Y46848125D03*
X165109525Y50148125D03*
G04 #@! TD*
G04 #@! TO.C,D36*
X146059525Y46848125D03*
X146059525Y50148125D03*
G04 #@! TD*
G04 #@! TO.C,D35*
X110832900Y46850300D03*
X110832900Y50150300D03*
G04 #@! TD*
G04 #@! TO.C,D34*
X107959525Y46848125D03*
X107959525Y50148125D03*
G04 #@! TD*
G04 #@! TO.C,D33*
X88909525Y46848125D03*
X88909525Y50148125D03*
G04 #@! TD*
G04 #@! TO.C,D32*
X69859525Y46848125D03*
X69859525Y50148125D03*
G04 #@! TD*
G04 #@! TO.C,D31*
X50809525Y46848125D03*
X50809525Y50148125D03*
G04 #@! TD*
G04 #@! TO.C,D30*
X21043900Y40895000D03*
X21043900Y44195000D03*
G04 #@! TD*
G04 #@! TO.C,D29*
X277028275Y69470000D03*
X277028275Y72770000D03*
G04 #@! TD*
G04 #@! TO.C,D28*
X254406400Y68279375D03*
X254406400Y71579375D03*
G04 #@! TD*
G04 #@! TO.C,D27*
X236547025Y65898125D03*
X236547025Y69198125D03*
G04 #@! TD*
G04 #@! TO.C,D26*
X217497025Y65898125D03*
X217497025Y69198125D03*
G04 #@! TD*
G04 #@! TO.C,D25*
X198447025Y65898125D03*
X198447025Y69198125D03*
G04 #@! TD*
G04 #@! TO.C,D24*
X179397025Y65898125D03*
X179397025Y69198125D03*
G04 #@! TD*
G04 #@! TO.C,D23*
X160347025Y65898125D03*
X160347025Y69198125D03*
G04 #@! TD*
G04 #@! TO.C,D22*
X141297025Y65898125D03*
X141297025Y69198125D03*
G04 #@! TD*
G04 #@! TO.C,D21*
X122247025Y65898125D03*
X122247025Y69198125D03*
G04 #@! TD*
G04 #@! TO.C,D20*
X103197025Y65898125D03*
X103197025Y69198125D03*
G04 #@! TD*
G04 #@! TO.C,D19*
X84147025Y65898125D03*
X84147025Y69198125D03*
G04 #@! TD*
G04 #@! TO.C,D18*
X65097025Y65898125D03*
X65097025Y69198125D03*
G04 #@! TD*
G04 #@! TO.C,D17*
X45931400Y67770000D03*
X45931400Y71070000D03*
G04 #@! TD*
G04 #@! TO.C,D16*
X5565775Y69470000D03*
X5565775Y72770000D03*
G04 #@! TD*
G04 #@! TO.C,D15*
X281790775Y88520000D03*
X281790775Y91820000D03*
G04 #@! TD*
G04 #@! TO.C,D14*
X265709400Y88520000D03*
X265709400Y91820000D03*
G04 #@! TD*
G04 #@! TO.C,D13*
X246072025Y84948125D03*
X246072025Y88248125D03*
G04 #@! TD*
G04 #@! TO.C,D12*
X227022025Y84948125D03*
X227022025Y88248125D03*
G04 #@! TD*
G04 #@! TO.C,D11*
X207972025Y84948125D03*
X207972025Y88248125D03*
G04 #@! TD*
D16*
G04 #@! TO.C,D10*
X190421400Y88850000D03*
X187121400Y88850000D03*
G04 #@! TD*
D15*
G04 #@! TO.C,D9*
X169872025Y84948125D03*
X169872025Y88248125D03*
G04 #@! TD*
G04 #@! TO.C,D8*
X150822025Y84948125D03*
X150822025Y88248125D03*
G04 #@! TD*
G04 #@! TO.C,D7*
X131772025Y84948125D03*
X131772025Y88248125D03*
G04 #@! TD*
G04 #@! TO.C,D6*
X112722025Y84948125D03*
X112722025Y88248125D03*
G04 #@! TD*
G04 #@! TO.C,D5*
X93672025Y84948125D03*
X93672025Y88248125D03*
G04 #@! TD*
D16*
G04 #@! TO.C,D4*
X76431400Y88930000D03*
X73131400Y88930000D03*
G04 #@! TD*
D15*
G04 #@! TO.C,D3*
X55572025Y84948125D03*
X55572025Y88248125D03*
G04 #@! TD*
G04 #@! TO.C,D2*
X36522025Y84948125D03*
X36522025Y88248125D03*
G04 #@! TD*
D16*
G04 #@! TO.C,D1*
X7517400Y91440000D03*
X4217400Y91440000D03*
G04 #@! TD*
D17*
G04 #@! TO.C,SW1*
X26192400Y39726000D03*
X26192400Y33426000D03*
X29992400Y39726000D03*
X29992400Y33426000D03*
G04 #@! TD*
D13*
G04 #@! TO.C,RC7*
X26781400Y91070000D03*
X25281400Y91070000D03*
G04 #@! TD*
D12*
G04 #@! TO.C,RC6*
X12065000Y88176800D03*
X12065000Y86676800D03*
G04 #@! TD*
G04 #@! TO.C,R22*
X128200150Y59654375D03*
X128200150Y61154375D03*
G04 #@! TD*
G04 #@! TO.C,R21*
X109150150Y59654375D03*
X109150150Y61154375D03*
G04 #@! TD*
G04 #@! TO.C,R20*
X90100150Y59654375D03*
X90100150Y61154375D03*
G04 #@! TD*
D18*
G04 #@! TO.C,Q1*
X21107400Y36034000D03*
X22057400Y38134000D03*
X20157400Y38134000D03*
G04 #@! TD*
D13*
G04 #@! TO.C,RC8*
X23881400Y43720000D03*
X25381400Y43720000D03*
G04 #@! TD*
D19*
G04 #@! TO.C,U1*
X33281400Y58070000D03*
X32781400Y58070000D03*
X32281400Y58070000D03*
X31781400Y58070000D03*
X31281400Y58070000D03*
X30781400Y58070000D03*
X30281400Y58070000D03*
X29781400Y58070000D03*
X29281400Y58070000D03*
X28781400Y58070000D03*
X28281400Y58070000D03*
X27781400Y58070000D03*
D20*
X26181400Y56470000D03*
X26181400Y55970000D03*
X26181400Y55470000D03*
X26181400Y54970000D03*
X26181400Y54470000D03*
X26181400Y53970000D03*
X26181400Y53470000D03*
X26181400Y52970000D03*
X26181400Y52470000D03*
X26181400Y51970000D03*
X26181400Y51470000D03*
X26181400Y50970000D03*
D19*
X27781400Y49370000D03*
X28281400Y49370000D03*
X28781400Y49370000D03*
X29281400Y49370000D03*
X29781400Y49370000D03*
X30281400Y49370000D03*
X30781400Y49370000D03*
X31281400Y49370000D03*
X31781400Y49370000D03*
X32281400Y49370000D03*
X32781400Y49370000D03*
X33281400Y49370000D03*
D20*
X34881400Y50970000D03*
X34881400Y51470000D03*
X34881400Y51970000D03*
X34881400Y52470000D03*
X34881400Y52970000D03*
X34881400Y53470000D03*
X34881400Y53970000D03*
X34881400Y54470000D03*
X34881400Y54970000D03*
X34881400Y55470000D03*
X34881400Y55970000D03*
X34881400Y56470000D03*
G04 #@! TD*
D21*
G04 #@! TO.C,U2*
X17981400Y59220000D03*
X19881400Y59220000D03*
X19881400Y61420000D03*
X18931400Y61420000D03*
X17981400Y61420000D03*
G04 #@! TD*
D22*
G04 #@! TO.C,Y1*
X46031400Y60150000D03*
X42731400Y60150000D03*
X42731400Y58150000D03*
X46031400Y58150000D03*
G04 #@! TD*
D23*
G04 #@! TO.C,C12*
G36*
X42499091Y75828947D02*
X42520326Y75825797D01*
X42541150Y75820581D01*
X42561362Y75813349D01*
X42580768Y75804170D01*
X42599181Y75793134D01*
X42616424Y75780346D01*
X42632330Y75765930D01*
X42646746Y75750024D01*
X42659534Y75732781D01*
X42670570Y75714368D01*
X42679749Y75694962D01*
X42686981Y75674750D01*
X42692197Y75653926D01*
X42695347Y75632691D01*
X42696400Y75611250D01*
X42696400Y75173750D01*
X42695347Y75152309D01*
X42692197Y75131074D01*
X42686981Y75110250D01*
X42679749Y75090038D01*
X42670570Y75070632D01*
X42659534Y75052219D01*
X42646746Y75034976D01*
X42632330Y75019070D01*
X42616424Y75004654D01*
X42599181Y74991866D01*
X42580768Y74980830D01*
X42561362Y74971651D01*
X42541150Y74964419D01*
X42520326Y74959203D01*
X42499091Y74956053D01*
X42477650Y74955000D01*
X41965150Y74955000D01*
X41943709Y74956053D01*
X41922474Y74959203D01*
X41901650Y74964419D01*
X41881438Y74971651D01*
X41862032Y74980830D01*
X41843619Y74991866D01*
X41826376Y75004654D01*
X41810470Y75019070D01*
X41796054Y75034976D01*
X41783266Y75052219D01*
X41772230Y75070632D01*
X41763051Y75090038D01*
X41755819Y75110250D01*
X41750603Y75131074D01*
X41747453Y75152309D01*
X41746400Y75173750D01*
X41746400Y75611250D01*
X41747453Y75632691D01*
X41750603Y75653926D01*
X41755819Y75674750D01*
X41763051Y75694962D01*
X41772230Y75714368D01*
X41783266Y75732781D01*
X41796054Y75750024D01*
X41810470Y75765930D01*
X41826376Y75780346D01*
X41843619Y75793134D01*
X41862032Y75804170D01*
X41881438Y75813349D01*
X41901650Y75820581D01*
X41922474Y75825797D01*
X41943709Y75828947D01*
X41965150Y75830000D01*
X42477650Y75830000D01*
X42499091Y75828947D01*
X42499091Y75828947D01*
G37*
D24*
X42221400Y75392500D03*
D23*
G36*
X42499091Y77403947D02*
X42520326Y77400797D01*
X42541150Y77395581D01*
X42561362Y77388349D01*
X42580768Y77379170D01*
X42599181Y77368134D01*
X42616424Y77355346D01*
X42632330Y77340930D01*
X42646746Y77325024D01*
X42659534Y77307781D01*
X42670570Y77289368D01*
X42679749Y77269962D01*
X42686981Y77249750D01*
X42692197Y77228926D01*
X42695347Y77207691D01*
X42696400Y77186250D01*
X42696400Y76748750D01*
X42695347Y76727309D01*
X42692197Y76706074D01*
X42686981Y76685250D01*
X42679749Y76665038D01*
X42670570Y76645632D01*
X42659534Y76627219D01*
X42646746Y76609976D01*
X42632330Y76594070D01*
X42616424Y76579654D01*
X42599181Y76566866D01*
X42580768Y76555830D01*
X42561362Y76546651D01*
X42541150Y76539419D01*
X42520326Y76534203D01*
X42499091Y76531053D01*
X42477650Y76530000D01*
X41965150Y76530000D01*
X41943709Y76531053D01*
X41922474Y76534203D01*
X41901650Y76539419D01*
X41881438Y76546651D01*
X41862032Y76555830D01*
X41843619Y76566866D01*
X41826376Y76579654D01*
X41810470Y76594070D01*
X41796054Y76609976D01*
X41783266Y76627219D01*
X41772230Y76645632D01*
X41763051Y76665038D01*
X41755819Y76685250D01*
X41750603Y76706074D01*
X41747453Y76727309D01*
X41746400Y76748750D01*
X41746400Y77186250D01*
X41747453Y77207691D01*
X41750603Y77228926D01*
X41755819Y77249750D01*
X41763051Y77269962D01*
X41772230Y77289368D01*
X41783266Y77307781D01*
X41796054Y77325024D01*
X41810470Y77340930D01*
X41826376Y77355346D01*
X41843619Y77368134D01*
X41862032Y77379170D01*
X41881438Y77388349D01*
X41901650Y77395581D01*
X41922474Y77400797D01*
X41943709Y77403947D01*
X41965150Y77405000D01*
X42477650Y77405000D01*
X42499091Y77403947D01*
X42499091Y77403947D01*
G37*
D24*
X42221400Y76967500D03*
G04 #@! TD*
D23*
G04 #@! TO.C,C13*
G36*
X72929091Y76813947D02*
X72950326Y76810797D01*
X72971150Y76805581D01*
X72991362Y76798349D01*
X73010768Y76789170D01*
X73029181Y76778134D01*
X73046424Y76765346D01*
X73062330Y76750930D01*
X73076746Y76735024D01*
X73089534Y76717781D01*
X73100570Y76699368D01*
X73109749Y76679962D01*
X73116981Y76659750D01*
X73122197Y76638926D01*
X73125347Y76617691D01*
X73126400Y76596250D01*
X73126400Y76158750D01*
X73125347Y76137309D01*
X73122197Y76116074D01*
X73116981Y76095250D01*
X73109749Y76075038D01*
X73100570Y76055632D01*
X73089534Y76037219D01*
X73076746Y76019976D01*
X73062330Y76004070D01*
X73046424Y75989654D01*
X73029181Y75976866D01*
X73010768Y75965830D01*
X72991362Y75956651D01*
X72971150Y75949419D01*
X72950326Y75944203D01*
X72929091Y75941053D01*
X72907650Y75940000D01*
X72395150Y75940000D01*
X72373709Y75941053D01*
X72352474Y75944203D01*
X72331650Y75949419D01*
X72311438Y75956651D01*
X72292032Y75965830D01*
X72273619Y75976866D01*
X72256376Y75989654D01*
X72240470Y76004070D01*
X72226054Y76019976D01*
X72213266Y76037219D01*
X72202230Y76055632D01*
X72193051Y76075038D01*
X72185819Y76095250D01*
X72180603Y76116074D01*
X72177453Y76137309D01*
X72176400Y76158750D01*
X72176400Y76596250D01*
X72177453Y76617691D01*
X72180603Y76638926D01*
X72185819Y76659750D01*
X72193051Y76679962D01*
X72202230Y76699368D01*
X72213266Y76717781D01*
X72226054Y76735024D01*
X72240470Y76750930D01*
X72256376Y76765346D01*
X72273619Y76778134D01*
X72292032Y76789170D01*
X72311438Y76798349D01*
X72331650Y76805581D01*
X72352474Y76810797D01*
X72373709Y76813947D01*
X72395150Y76815000D01*
X72907650Y76815000D01*
X72929091Y76813947D01*
X72929091Y76813947D01*
G37*
D24*
X72651400Y76377500D03*
D23*
G36*
X72929091Y75238947D02*
X72950326Y75235797D01*
X72971150Y75230581D01*
X72991362Y75223349D01*
X73010768Y75214170D01*
X73029181Y75203134D01*
X73046424Y75190346D01*
X73062330Y75175930D01*
X73076746Y75160024D01*
X73089534Y75142781D01*
X73100570Y75124368D01*
X73109749Y75104962D01*
X73116981Y75084750D01*
X73122197Y75063926D01*
X73125347Y75042691D01*
X73126400Y75021250D01*
X73126400Y74583750D01*
X73125347Y74562309D01*
X73122197Y74541074D01*
X73116981Y74520250D01*
X73109749Y74500038D01*
X73100570Y74480632D01*
X73089534Y74462219D01*
X73076746Y74444976D01*
X73062330Y74429070D01*
X73046424Y74414654D01*
X73029181Y74401866D01*
X73010768Y74390830D01*
X72991362Y74381651D01*
X72971150Y74374419D01*
X72950326Y74369203D01*
X72929091Y74366053D01*
X72907650Y74365000D01*
X72395150Y74365000D01*
X72373709Y74366053D01*
X72352474Y74369203D01*
X72331650Y74374419D01*
X72311438Y74381651D01*
X72292032Y74390830D01*
X72273619Y74401866D01*
X72256376Y74414654D01*
X72240470Y74429070D01*
X72226054Y74444976D01*
X72213266Y74462219D01*
X72202230Y74480632D01*
X72193051Y74500038D01*
X72185819Y74520250D01*
X72180603Y74541074D01*
X72177453Y74562309D01*
X72176400Y74583750D01*
X72176400Y75021250D01*
X72177453Y75042691D01*
X72180603Y75063926D01*
X72185819Y75084750D01*
X72193051Y75104962D01*
X72202230Y75124368D01*
X72213266Y75142781D01*
X72226054Y75160024D01*
X72240470Y75175930D01*
X72256376Y75190346D01*
X72273619Y75203134D01*
X72292032Y75214170D01*
X72311438Y75223349D01*
X72331650Y75230581D01*
X72352474Y75235797D01*
X72373709Y75238947D01*
X72395150Y75240000D01*
X72907650Y75240000D01*
X72929091Y75238947D01*
X72929091Y75238947D01*
G37*
D24*
X72651400Y74802500D03*
G04 #@! TD*
D23*
G04 #@! TO.C,C14*
G36*
X99779091Y75308947D02*
X99800326Y75305797D01*
X99821150Y75300581D01*
X99841362Y75293349D01*
X99860768Y75284170D01*
X99879181Y75273134D01*
X99896424Y75260346D01*
X99912330Y75245930D01*
X99926746Y75230024D01*
X99939534Y75212781D01*
X99950570Y75194368D01*
X99959749Y75174962D01*
X99966981Y75154750D01*
X99972197Y75133926D01*
X99975347Y75112691D01*
X99976400Y75091250D01*
X99976400Y74653750D01*
X99975347Y74632309D01*
X99972197Y74611074D01*
X99966981Y74590250D01*
X99959749Y74570038D01*
X99950570Y74550632D01*
X99939534Y74532219D01*
X99926746Y74514976D01*
X99912330Y74499070D01*
X99896424Y74484654D01*
X99879181Y74471866D01*
X99860768Y74460830D01*
X99841362Y74451651D01*
X99821150Y74444419D01*
X99800326Y74439203D01*
X99779091Y74436053D01*
X99757650Y74435000D01*
X99245150Y74435000D01*
X99223709Y74436053D01*
X99202474Y74439203D01*
X99181650Y74444419D01*
X99161438Y74451651D01*
X99142032Y74460830D01*
X99123619Y74471866D01*
X99106376Y74484654D01*
X99090470Y74499070D01*
X99076054Y74514976D01*
X99063266Y74532219D01*
X99052230Y74550632D01*
X99043051Y74570038D01*
X99035819Y74590250D01*
X99030603Y74611074D01*
X99027453Y74632309D01*
X99026400Y74653750D01*
X99026400Y75091250D01*
X99027453Y75112691D01*
X99030603Y75133926D01*
X99035819Y75154750D01*
X99043051Y75174962D01*
X99052230Y75194368D01*
X99063266Y75212781D01*
X99076054Y75230024D01*
X99090470Y75245930D01*
X99106376Y75260346D01*
X99123619Y75273134D01*
X99142032Y75284170D01*
X99161438Y75293349D01*
X99181650Y75300581D01*
X99202474Y75305797D01*
X99223709Y75308947D01*
X99245150Y75310000D01*
X99757650Y75310000D01*
X99779091Y75308947D01*
X99779091Y75308947D01*
G37*
D24*
X99501400Y74872500D03*
D23*
G36*
X99779091Y76883947D02*
X99800326Y76880797D01*
X99821150Y76875581D01*
X99841362Y76868349D01*
X99860768Y76859170D01*
X99879181Y76848134D01*
X99896424Y76835346D01*
X99912330Y76820930D01*
X99926746Y76805024D01*
X99939534Y76787781D01*
X99950570Y76769368D01*
X99959749Y76749962D01*
X99966981Y76729750D01*
X99972197Y76708926D01*
X99975347Y76687691D01*
X99976400Y76666250D01*
X99976400Y76228750D01*
X99975347Y76207309D01*
X99972197Y76186074D01*
X99966981Y76165250D01*
X99959749Y76145038D01*
X99950570Y76125632D01*
X99939534Y76107219D01*
X99926746Y76089976D01*
X99912330Y76074070D01*
X99896424Y76059654D01*
X99879181Y76046866D01*
X99860768Y76035830D01*
X99841362Y76026651D01*
X99821150Y76019419D01*
X99800326Y76014203D01*
X99779091Y76011053D01*
X99757650Y76010000D01*
X99245150Y76010000D01*
X99223709Y76011053D01*
X99202474Y76014203D01*
X99181650Y76019419D01*
X99161438Y76026651D01*
X99142032Y76035830D01*
X99123619Y76046866D01*
X99106376Y76059654D01*
X99090470Y76074070D01*
X99076054Y76089976D01*
X99063266Y76107219D01*
X99052230Y76125632D01*
X99043051Y76145038D01*
X99035819Y76165250D01*
X99030603Y76186074D01*
X99027453Y76207309D01*
X99026400Y76228750D01*
X99026400Y76666250D01*
X99027453Y76687691D01*
X99030603Y76708926D01*
X99035819Y76729750D01*
X99043051Y76749962D01*
X99052230Y76769368D01*
X99063266Y76787781D01*
X99076054Y76805024D01*
X99090470Y76820930D01*
X99106376Y76835346D01*
X99123619Y76848134D01*
X99142032Y76859170D01*
X99161438Y76868349D01*
X99181650Y76875581D01*
X99202474Y76880797D01*
X99223709Y76883947D01*
X99245150Y76885000D01*
X99757650Y76885000D01*
X99779091Y76883947D01*
X99779091Y76883947D01*
G37*
D24*
X99501400Y76447500D03*
G04 #@! TD*
D23*
G04 #@! TO.C,C15*
G36*
X135309091Y76118947D02*
X135330326Y76115797D01*
X135351150Y76110581D01*
X135371362Y76103349D01*
X135390768Y76094170D01*
X135409181Y76083134D01*
X135426424Y76070346D01*
X135442330Y76055930D01*
X135456746Y76040024D01*
X135469534Y76022781D01*
X135480570Y76004368D01*
X135489749Y75984962D01*
X135496981Y75964750D01*
X135502197Y75943926D01*
X135505347Y75922691D01*
X135506400Y75901250D01*
X135506400Y75463750D01*
X135505347Y75442309D01*
X135502197Y75421074D01*
X135496981Y75400250D01*
X135489749Y75380038D01*
X135480570Y75360632D01*
X135469534Y75342219D01*
X135456746Y75324976D01*
X135442330Y75309070D01*
X135426424Y75294654D01*
X135409181Y75281866D01*
X135390768Y75270830D01*
X135371362Y75261651D01*
X135351150Y75254419D01*
X135330326Y75249203D01*
X135309091Y75246053D01*
X135287650Y75245000D01*
X134775150Y75245000D01*
X134753709Y75246053D01*
X134732474Y75249203D01*
X134711650Y75254419D01*
X134691438Y75261651D01*
X134672032Y75270830D01*
X134653619Y75281866D01*
X134636376Y75294654D01*
X134620470Y75309070D01*
X134606054Y75324976D01*
X134593266Y75342219D01*
X134582230Y75360632D01*
X134573051Y75380038D01*
X134565819Y75400250D01*
X134560603Y75421074D01*
X134557453Y75442309D01*
X134556400Y75463750D01*
X134556400Y75901250D01*
X134557453Y75922691D01*
X134560603Y75943926D01*
X134565819Y75964750D01*
X134573051Y75984962D01*
X134582230Y76004368D01*
X134593266Y76022781D01*
X134606054Y76040024D01*
X134620470Y76055930D01*
X134636376Y76070346D01*
X134653619Y76083134D01*
X134672032Y76094170D01*
X134691438Y76103349D01*
X134711650Y76110581D01*
X134732474Y76115797D01*
X134753709Y76118947D01*
X134775150Y76120000D01*
X135287650Y76120000D01*
X135309091Y76118947D01*
X135309091Y76118947D01*
G37*
D24*
X135031400Y75682500D03*
D23*
G36*
X135309091Y77693947D02*
X135330326Y77690797D01*
X135351150Y77685581D01*
X135371362Y77678349D01*
X135390768Y77669170D01*
X135409181Y77658134D01*
X135426424Y77645346D01*
X135442330Y77630930D01*
X135456746Y77615024D01*
X135469534Y77597781D01*
X135480570Y77579368D01*
X135489749Y77559962D01*
X135496981Y77539750D01*
X135502197Y77518926D01*
X135505347Y77497691D01*
X135506400Y77476250D01*
X135506400Y77038750D01*
X135505347Y77017309D01*
X135502197Y76996074D01*
X135496981Y76975250D01*
X135489749Y76955038D01*
X135480570Y76935632D01*
X135469534Y76917219D01*
X135456746Y76899976D01*
X135442330Y76884070D01*
X135426424Y76869654D01*
X135409181Y76856866D01*
X135390768Y76845830D01*
X135371362Y76836651D01*
X135351150Y76829419D01*
X135330326Y76824203D01*
X135309091Y76821053D01*
X135287650Y76820000D01*
X134775150Y76820000D01*
X134753709Y76821053D01*
X134732474Y76824203D01*
X134711650Y76829419D01*
X134691438Y76836651D01*
X134672032Y76845830D01*
X134653619Y76856866D01*
X134636376Y76869654D01*
X134620470Y76884070D01*
X134606054Y76899976D01*
X134593266Y76917219D01*
X134582230Y76935632D01*
X134573051Y76955038D01*
X134565819Y76975250D01*
X134560603Y76996074D01*
X134557453Y77017309D01*
X134556400Y77038750D01*
X134556400Y77476250D01*
X134557453Y77497691D01*
X134560603Y77518926D01*
X134565819Y77539750D01*
X134573051Y77559962D01*
X134582230Y77579368D01*
X134593266Y77597781D01*
X134606054Y77615024D01*
X134620470Y77630930D01*
X134636376Y77645346D01*
X134653619Y77658134D01*
X134672032Y77669170D01*
X134691438Y77678349D01*
X134711650Y77685581D01*
X134732474Y77690797D01*
X134753709Y77693947D01*
X134775150Y77695000D01*
X135287650Y77695000D01*
X135309091Y77693947D01*
X135309091Y77693947D01*
G37*
D24*
X135031400Y77257500D03*
G04 #@! TD*
D23*
G04 #@! TO.C,C16*
G36*
X168439091Y76903947D02*
X168460326Y76900797D01*
X168481150Y76895581D01*
X168501362Y76888349D01*
X168520768Y76879170D01*
X168539181Y76868134D01*
X168556424Y76855346D01*
X168572330Y76840930D01*
X168586746Y76825024D01*
X168599534Y76807781D01*
X168610570Y76789368D01*
X168619749Y76769962D01*
X168626981Y76749750D01*
X168632197Y76728926D01*
X168635347Y76707691D01*
X168636400Y76686250D01*
X168636400Y76248750D01*
X168635347Y76227309D01*
X168632197Y76206074D01*
X168626981Y76185250D01*
X168619749Y76165038D01*
X168610570Y76145632D01*
X168599534Y76127219D01*
X168586746Y76109976D01*
X168572330Y76094070D01*
X168556424Y76079654D01*
X168539181Y76066866D01*
X168520768Y76055830D01*
X168501362Y76046651D01*
X168481150Y76039419D01*
X168460326Y76034203D01*
X168439091Y76031053D01*
X168417650Y76030000D01*
X167905150Y76030000D01*
X167883709Y76031053D01*
X167862474Y76034203D01*
X167841650Y76039419D01*
X167821438Y76046651D01*
X167802032Y76055830D01*
X167783619Y76066866D01*
X167766376Y76079654D01*
X167750470Y76094070D01*
X167736054Y76109976D01*
X167723266Y76127219D01*
X167712230Y76145632D01*
X167703051Y76165038D01*
X167695819Y76185250D01*
X167690603Y76206074D01*
X167687453Y76227309D01*
X167686400Y76248750D01*
X167686400Y76686250D01*
X167687453Y76707691D01*
X167690603Y76728926D01*
X167695819Y76749750D01*
X167703051Y76769962D01*
X167712230Y76789368D01*
X167723266Y76807781D01*
X167736054Y76825024D01*
X167750470Y76840930D01*
X167766376Y76855346D01*
X167783619Y76868134D01*
X167802032Y76879170D01*
X167821438Y76888349D01*
X167841650Y76895581D01*
X167862474Y76900797D01*
X167883709Y76903947D01*
X167905150Y76905000D01*
X168417650Y76905000D01*
X168439091Y76903947D01*
X168439091Y76903947D01*
G37*
D24*
X168161400Y76467500D03*
D23*
G36*
X168439091Y75328947D02*
X168460326Y75325797D01*
X168481150Y75320581D01*
X168501362Y75313349D01*
X168520768Y75304170D01*
X168539181Y75293134D01*
X168556424Y75280346D01*
X168572330Y75265930D01*
X168586746Y75250024D01*
X168599534Y75232781D01*
X168610570Y75214368D01*
X168619749Y75194962D01*
X168626981Y75174750D01*
X168632197Y75153926D01*
X168635347Y75132691D01*
X168636400Y75111250D01*
X168636400Y74673750D01*
X168635347Y74652309D01*
X168632197Y74631074D01*
X168626981Y74610250D01*
X168619749Y74590038D01*
X168610570Y74570632D01*
X168599534Y74552219D01*
X168586746Y74534976D01*
X168572330Y74519070D01*
X168556424Y74504654D01*
X168539181Y74491866D01*
X168520768Y74480830D01*
X168501362Y74471651D01*
X168481150Y74464419D01*
X168460326Y74459203D01*
X168439091Y74456053D01*
X168417650Y74455000D01*
X167905150Y74455000D01*
X167883709Y74456053D01*
X167862474Y74459203D01*
X167841650Y74464419D01*
X167821438Y74471651D01*
X167802032Y74480830D01*
X167783619Y74491866D01*
X167766376Y74504654D01*
X167750470Y74519070D01*
X167736054Y74534976D01*
X167723266Y74552219D01*
X167712230Y74570632D01*
X167703051Y74590038D01*
X167695819Y74610250D01*
X167690603Y74631074D01*
X167687453Y74652309D01*
X167686400Y74673750D01*
X167686400Y75111250D01*
X167687453Y75132691D01*
X167690603Y75153926D01*
X167695819Y75174750D01*
X167703051Y75194962D01*
X167712230Y75214368D01*
X167723266Y75232781D01*
X167736054Y75250024D01*
X167750470Y75265930D01*
X167766376Y75280346D01*
X167783619Y75293134D01*
X167802032Y75304170D01*
X167821438Y75313349D01*
X167841650Y75320581D01*
X167862474Y75325797D01*
X167883709Y75328947D01*
X167905150Y75330000D01*
X168417650Y75330000D01*
X168439091Y75328947D01*
X168439091Y75328947D01*
G37*
D24*
X168161400Y74892500D03*
G04 #@! TD*
D23*
G04 #@! TO.C,C17*
G36*
X202949091Y75678947D02*
X202970326Y75675797D01*
X202991150Y75670581D01*
X203011362Y75663349D01*
X203030768Y75654170D01*
X203049181Y75643134D01*
X203066424Y75630346D01*
X203082330Y75615930D01*
X203096746Y75600024D01*
X203109534Y75582781D01*
X203120570Y75564368D01*
X203129749Y75544962D01*
X203136981Y75524750D01*
X203142197Y75503926D01*
X203145347Y75482691D01*
X203146400Y75461250D01*
X203146400Y75023750D01*
X203145347Y75002309D01*
X203142197Y74981074D01*
X203136981Y74960250D01*
X203129749Y74940038D01*
X203120570Y74920632D01*
X203109534Y74902219D01*
X203096746Y74884976D01*
X203082330Y74869070D01*
X203066424Y74854654D01*
X203049181Y74841866D01*
X203030768Y74830830D01*
X203011362Y74821651D01*
X202991150Y74814419D01*
X202970326Y74809203D01*
X202949091Y74806053D01*
X202927650Y74805000D01*
X202415150Y74805000D01*
X202393709Y74806053D01*
X202372474Y74809203D01*
X202351650Y74814419D01*
X202331438Y74821651D01*
X202312032Y74830830D01*
X202293619Y74841866D01*
X202276376Y74854654D01*
X202260470Y74869070D01*
X202246054Y74884976D01*
X202233266Y74902219D01*
X202222230Y74920632D01*
X202213051Y74940038D01*
X202205819Y74960250D01*
X202200603Y74981074D01*
X202197453Y75002309D01*
X202196400Y75023750D01*
X202196400Y75461250D01*
X202197453Y75482691D01*
X202200603Y75503926D01*
X202205819Y75524750D01*
X202213051Y75544962D01*
X202222230Y75564368D01*
X202233266Y75582781D01*
X202246054Y75600024D01*
X202260470Y75615930D01*
X202276376Y75630346D01*
X202293619Y75643134D01*
X202312032Y75654170D01*
X202331438Y75663349D01*
X202351650Y75670581D01*
X202372474Y75675797D01*
X202393709Y75678947D01*
X202415150Y75680000D01*
X202927650Y75680000D01*
X202949091Y75678947D01*
X202949091Y75678947D01*
G37*
D24*
X202671400Y75242500D03*
D23*
G36*
X202949091Y77253947D02*
X202970326Y77250797D01*
X202991150Y77245581D01*
X203011362Y77238349D01*
X203030768Y77229170D01*
X203049181Y77218134D01*
X203066424Y77205346D01*
X203082330Y77190930D01*
X203096746Y77175024D01*
X203109534Y77157781D01*
X203120570Y77139368D01*
X203129749Y77119962D01*
X203136981Y77099750D01*
X203142197Y77078926D01*
X203145347Y77057691D01*
X203146400Y77036250D01*
X203146400Y76598750D01*
X203145347Y76577309D01*
X203142197Y76556074D01*
X203136981Y76535250D01*
X203129749Y76515038D01*
X203120570Y76495632D01*
X203109534Y76477219D01*
X203096746Y76459976D01*
X203082330Y76444070D01*
X203066424Y76429654D01*
X203049181Y76416866D01*
X203030768Y76405830D01*
X203011362Y76396651D01*
X202991150Y76389419D01*
X202970326Y76384203D01*
X202949091Y76381053D01*
X202927650Y76380000D01*
X202415150Y76380000D01*
X202393709Y76381053D01*
X202372474Y76384203D01*
X202351650Y76389419D01*
X202331438Y76396651D01*
X202312032Y76405830D01*
X202293619Y76416866D01*
X202276376Y76429654D01*
X202260470Y76444070D01*
X202246054Y76459976D01*
X202233266Y76477219D01*
X202222230Y76495632D01*
X202213051Y76515038D01*
X202205819Y76535250D01*
X202200603Y76556074D01*
X202197453Y76577309D01*
X202196400Y76598750D01*
X202196400Y77036250D01*
X202197453Y77057691D01*
X202200603Y77078926D01*
X202205819Y77099750D01*
X202213051Y77119962D01*
X202222230Y77139368D01*
X202233266Y77157781D01*
X202246054Y77175024D01*
X202260470Y77190930D01*
X202276376Y77205346D01*
X202293619Y77218134D01*
X202312032Y77229170D01*
X202331438Y77238349D01*
X202351650Y77245581D01*
X202372474Y77250797D01*
X202393709Y77253947D01*
X202415150Y77255000D01*
X202927650Y77255000D01*
X202949091Y77253947D01*
X202949091Y77253947D01*
G37*
D24*
X202671400Y76817500D03*
G04 #@! TD*
D23*
G04 #@! TO.C,C18*
G36*
X236329091Y77143947D02*
X236350326Y77140797D01*
X236371150Y77135581D01*
X236391362Y77128349D01*
X236410768Y77119170D01*
X236429181Y77108134D01*
X236446424Y77095346D01*
X236462330Y77080930D01*
X236476746Y77065024D01*
X236489534Y77047781D01*
X236500570Y77029368D01*
X236509749Y77009962D01*
X236516981Y76989750D01*
X236522197Y76968926D01*
X236525347Y76947691D01*
X236526400Y76926250D01*
X236526400Y76488750D01*
X236525347Y76467309D01*
X236522197Y76446074D01*
X236516981Y76425250D01*
X236509749Y76405038D01*
X236500570Y76385632D01*
X236489534Y76367219D01*
X236476746Y76349976D01*
X236462330Y76334070D01*
X236446424Y76319654D01*
X236429181Y76306866D01*
X236410768Y76295830D01*
X236391362Y76286651D01*
X236371150Y76279419D01*
X236350326Y76274203D01*
X236329091Y76271053D01*
X236307650Y76270000D01*
X235795150Y76270000D01*
X235773709Y76271053D01*
X235752474Y76274203D01*
X235731650Y76279419D01*
X235711438Y76286651D01*
X235692032Y76295830D01*
X235673619Y76306866D01*
X235656376Y76319654D01*
X235640470Y76334070D01*
X235626054Y76349976D01*
X235613266Y76367219D01*
X235602230Y76385632D01*
X235593051Y76405038D01*
X235585819Y76425250D01*
X235580603Y76446074D01*
X235577453Y76467309D01*
X235576400Y76488750D01*
X235576400Y76926250D01*
X235577453Y76947691D01*
X235580603Y76968926D01*
X235585819Y76989750D01*
X235593051Y77009962D01*
X235602230Y77029368D01*
X235613266Y77047781D01*
X235626054Y77065024D01*
X235640470Y77080930D01*
X235656376Y77095346D01*
X235673619Y77108134D01*
X235692032Y77119170D01*
X235711438Y77128349D01*
X235731650Y77135581D01*
X235752474Y77140797D01*
X235773709Y77143947D01*
X235795150Y77145000D01*
X236307650Y77145000D01*
X236329091Y77143947D01*
X236329091Y77143947D01*
G37*
D24*
X236051400Y76707500D03*
D23*
G36*
X236329091Y75568947D02*
X236350326Y75565797D01*
X236371150Y75560581D01*
X236391362Y75553349D01*
X236410768Y75544170D01*
X236429181Y75533134D01*
X236446424Y75520346D01*
X236462330Y75505930D01*
X236476746Y75490024D01*
X236489534Y75472781D01*
X236500570Y75454368D01*
X236509749Y75434962D01*
X236516981Y75414750D01*
X236522197Y75393926D01*
X236525347Y75372691D01*
X236526400Y75351250D01*
X236526400Y74913750D01*
X236525347Y74892309D01*
X236522197Y74871074D01*
X236516981Y74850250D01*
X236509749Y74830038D01*
X236500570Y74810632D01*
X236489534Y74792219D01*
X236476746Y74774976D01*
X236462330Y74759070D01*
X236446424Y74744654D01*
X236429181Y74731866D01*
X236410768Y74720830D01*
X236391362Y74711651D01*
X236371150Y74704419D01*
X236350326Y74699203D01*
X236329091Y74696053D01*
X236307650Y74695000D01*
X235795150Y74695000D01*
X235773709Y74696053D01*
X235752474Y74699203D01*
X235731650Y74704419D01*
X235711438Y74711651D01*
X235692032Y74720830D01*
X235673619Y74731866D01*
X235656376Y74744654D01*
X235640470Y74759070D01*
X235626054Y74774976D01*
X235613266Y74792219D01*
X235602230Y74810632D01*
X235593051Y74830038D01*
X235585819Y74850250D01*
X235580603Y74871074D01*
X235577453Y74892309D01*
X235576400Y74913750D01*
X235576400Y75351250D01*
X235577453Y75372691D01*
X235580603Y75393926D01*
X235585819Y75414750D01*
X235593051Y75434962D01*
X235602230Y75454368D01*
X235613266Y75472781D01*
X235626054Y75490024D01*
X235640470Y75505930D01*
X235656376Y75520346D01*
X235673619Y75533134D01*
X235692032Y75544170D01*
X235711438Y75553349D01*
X235731650Y75560581D01*
X235752474Y75565797D01*
X235773709Y75568947D01*
X235795150Y75570000D01*
X236307650Y75570000D01*
X236329091Y75568947D01*
X236329091Y75568947D01*
G37*
D24*
X236051400Y75132500D03*
G04 #@! TD*
D23*
G04 #@! TO.C,C19*
G36*
X269759091Y75408947D02*
X269780326Y75405797D01*
X269801150Y75400581D01*
X269821362Y75393349D01*
X269840768Y75384170D01*
X269859181Y75373134D01*
X269876424Y75360346D01*
X269892330Y75345930D01*
X269906746Y75330024D01*
X269919534Y75312781D01*
X269930570Y75294368D01*
X269939749Y75274962D01*
X269946981Y75254750D01*
X269952197Y75233926D01*
X269955347Y75212691D01*
X269956400Y75191250D01*
X269956400Y74753750D01*
X269955347Y74732309D01*
X269952197Y74711074D01*
X269946981Y74690250D01*
X269939749Y74670038D01*
X269930570Y74650632D01*
X269919534Y74632219D01*
X269906746Y74614976D01*
X269892330Y74599070D01*
X269876424Y74584654D01*
X269859181Y74571866D01*
X269840768Y74560830D01*
X269821362Y74551651D01*
X269801150Y74544419D01*
X269780326Y74539203D01*
X269759091Y74536053D01*
X269737650Y74535000D01*
X269225150Y74535000D01*
X269203709Y74536053D01*
X269182474Y74539203D01*
X269161650Y74544419D01*
X269141438Y74551651D01*
X269122032Y74560830D01*
X269103619Y74571866D01*
X269086376Y74584654D01*
X269070470Y74599070D01*
X269056054Y74614976D01*
X269043266Y74632219D01*
X269032230Y74650632D01*
X269023051Y74670038D01*
X269015819Y74690250D01*
X269010603Y74711074D01*
X269007453Y74732309D01*
X269006400Y74753750D01*
X269006400Y75191250D01*
X269007453Y75212691D01*
X269010603Y75233926D01*
X269015819Y75254750D01*
X269023051Y75274962D01*
X269032230Y75294368D01*
X269043266Y75312781D01*
X269056054Y75330024D01*
X269070470Y75345930D01*
X269086376Y75360346D01*
X269103619Y75373134D01*
X269122032Y75384170D01*
X269141438Y75393349D01*
X269161650Y75400581D01*
X269182474Y75405797D01*
X269203709Y75408947D01*
X269225150Y75410000D01*
X269737650Y75410000D01*
X269759091Y75408947D01*
X269759091Y75408947D01*
G37*
D24*
X269481400Y74972500D03*
D23*
G36*
X269759091Y76983947D02*
X269780326Y76980797D01*
X269801150Y76975581D01*
X269821362Y76968349D01*
X269840768Y76959170D01*
X269859181Y76948134D01*
X269876424Y76935346D01*
X269892330Y76920930D01*
X269906746Y76905024D01*
X269919534Y76887781D01*
X269930570Y76869368D01*
X269939749Y76849962D01*
X269946981Y76829750D01*
X269952197Y76808926D01*
X269955347Y76787691D01*
X269956400Y76766250D01*
X269956400Y76328750D01*
X269955347Y76307309D01*
X269952197Y76286074D01*
X269946981Y76265250D01*
X269939749Y76245038D01*
X269930570Y76225632D01*
X269919534Y76207219D01*
X269906746Y76189976D01*
X269892330Y76174070D01*
X269876424Y76159654D01*
X269859181Y76146866D01*
X269840768Y76135830D01*
X269821362Y76126651D01*
X269801150Y76119419D01*
X269780326Y76114203D01*
X269759091Y76111053D01*
X269737650Y76110000D01*
X269225150Y76110000D01*
X269203709Y76111053D01*
X269182474Y76114203D01*
X269161650Y76119419D01*
X269141438Y76126651D01*
X269122032Y76135830D01*
X269103619Y76146866D01*
X269086376Y76159654D01*
X269070470Y76174070D01*
X269056054Y76189976D01*
X269043266Y76207219D01*
X269032230Y76225632D01*
X269023051Y76245038D01*
X269015819Y76265250D01*
X269010603Y76286074D01*
X269007453Y76307309D01*
X269006400Y76328750D01*
X269006400Y76766250D01*
X269007453Y76787691D01*
X269010603Y76808926D01*
X269015819Y76829750D01*
X269023051Y76849962D01*
X269032230Y76869368D01*
X269043266Y76887781D01*
X269056054Y76905024D01*
X269070470Y76920930D01*
X269086376Y76935346D01*
X269103619Y76948134D01*
X269122032Y76959170D01*
X269141438Y76968349D01*
X269161650Y76975581D01*
X269182474Y76980797D01*
X269203709Y76983947D01*
X269225150Y76985000D01*
X269737650Y76985000D01*
X269759091Y76983947D01*
X269759091Y76983947D01*
G37*
D24*
X269481400Y76547500D03*
G04 #@! TD*
D23*
G04 #@! TO.C,C20*
G36*
X267019091Y20113947D02*
X267040326Y20110797D01*
X267061150Y20105581D01*
X267081362Y20098349D01*
X267100768Y20089170D01*
X267119181Y20078134D01*
X267136424Y20065346D01*
X267152330Y20050930D01*
X267166746Y20035024D01*
X267179534Y20017781D01*
X267190570Y19999368D01*
X267199749Y19979962D01*
X267206981Y19959750D01*
X267212197Y19938926D01*
X267215347Y19917691D01*
X267216400Y19896250D01*
X267216400Y19458750D01*
X267215347Y19437309D01*
X267212197Y19416074D01*
X267206981Y19395250D01*
X267199749Y19375038D01*
X267190570Y19355632D01*
X267179534Y19337219D01*
X267166746Y19319976D01*
X267152330Y19304070D01*
X267136424Y19289654D01*
X267119181Y19276866D01*
X267100768Y19265830D01*
X267081362Y19256651D01*
X267061150Y19249419D01*
X267040326Y19244203D01*
X267019091Y19241053D01*
X266997650Y19240000D01*
X266485150Y19240000D01*
X266463709Y19241053D01*
X266442474Y19244203D01*
X266421650Y19249419D01*
X266401438Y19256651D01*
X266382032Y19265830D01*
X266363619Y19276866D01*
X266346376Y19289654D01*
X266330470Y19304070D01*
X266316054Y19319976D01*
X266303266Y19337219D01*
X266292230Y19355632D01*
X266283051Y19375038D01*
X266275819Y19395250D01*
X266270603Y19416074D01*
X266267453Y19437309D01*
X266266400Y19458750D01*
X266266400Y19896250D01*
X266267453Y19917691D01*
X266270603Y19938926D01*
X266275819Y19959750D01*
X266283051Y19979962D01*
X266292230Y19999368D01*
X266303266Y20017781D01*
X266316054Y20035024D01*
X266330470Y20050930D01*
X266346376Y20065346D01*
X266363619Y20078134D01*
X266382032Y20089170D01*
X266401438Y20098349D01*
X266421650Y20105581D01*
X266442474Y20110797D01*
X266463709Y20113947D01*
X266485150Y20115000D01*
X266997650Y20115000D01*
X267019091Y20113947D01*
X267019091Y20113947D01*
G37*
D24*
X266741400Y19677500D03*
D23*
G36*
X267019091Y18538947D02*
X267040326Y18535797D01*
X267061150Y18530581D01*
X267081362Y18523349D01*
X267100768Y18514170D01*
X267119181Y18503134D01*
X267136424Y18490346D01*
X267152330Y18475930D01*
X267166746Y18460024D01*
X267179534Y18442781D01*
X267190570Y18424368D01*
X267199749Y18404962D01*
X267206981Y18384750D01*
X267212197Y18363926D01*
X267215347Y18342691D01*
X267216400Y18321250D01*
X267216400Y17883750D01*
X267215347Y17862309D01*
X267212197Y17841074D01*
X267206981Y17820250D01*
X267199749Y17800038D01*
X267190570Y17780632D01*
X267179534Y17762219D01*
X267166746Y17744976D01*
X267152330Y17729070D01*
X267136424Y17714654D01*
X267119181Y17701866D01*
X267100768Y17690830D01*
X267081362Y17681651D01*
X267061150Y17674419D01*
X267040326Y17669203D01*
X267019091Y17666053D01*
X266997650Y17665000D01*
X266485150Y17665000D01*
X266463709Y17666053D01*
X266442474Y17669203D01*
X266421650Y17674419D01*
X266401438Y17681651D01*
X266382032Y17690830D01*
X266363619Y17701866D01*
X266346376Y17714654D01*
X266330470Y17729070D01*
X266316054Y17744976D01*
X266303266Y17762219D01*
X266292230Y17780632D01*
X266283051Y17800038D01*
X266275819Y17820250D01*
X266270603Y17841074D01*
X266267453Y17862309D01*
X266266400Y17883750D01*
X266266400Y18321250D01*
X266267453Y18342691D01*
X266270603Y18363926D01*
X266275819Y18384750D01*
X266283051Y18404962D01*
X266292230Y18424368D01*
X266303266Y18442781D01*
X266316054Y18460024D01*
X266330470Y18475930D01*
X266346376Y18490346D01*
X266363619Y18503134D01*
X266382032Y18514170D01*
X266401438Y18523349D01*
X266421650Y18530581D01*
X266442474Y18535797D01*
X266463709Y18538947D01*
X266485150Y18540000D01*
X266997650Y18540000D01*
X267019091Y18538947D01*
X267019091Y18538947D01*
G37*
D24*
X266741400Y18102500D03*
G04 #@! TD*
D23*
G04 #@! TO.C,C21*
G36*
X236349091Y19718947D02*
X236370326Y19715797D01*
X236391150Y19710581D01*
X236411362Y19703349D01*
X236430768Y19694170D01*
X236449181Y19683134D01*
X236466424Y19670346D01*
X236482330Y19655930D01*
X236496746Y19640024D01*
X236509534Y19622781D01*
X236520570Y19604368D01*
X236529749Y19584962D01*
X236536981Y19564750D01*
X236542197Y19543926D01*
X236545347Y19522691D01*
X236546400Y19501250D01*
X236546400Y19063750D01*
X236545347Y19042309D01*
X236542197Y19021074D01*
X236536981Y19000250D01*
X236529749Y18980038D01*
X236520570Y18960632D01*
X236509534Y18942219D01*
X236496746Y18924976D01*
X236482330Y18909070D01*
X236466424Y18894654D01*
X236449181Y18881866D01*
X236430768Y18870830D01*
X236411362Y18861651D01*
X236391150Y18854419D01*
X236370326Y18849203D01*
X236349091Y18846053D01*
X236327650Y18845000D01*
X235815150Y18845000D01*
X235793709Y18846053D01*
X235772474Y18849203D01*
X235751650Y18854419D01*
X235731438Y18861651D01*
X235712032Y18870830D01*
X235693619Y18881866D01*
X235676376Y18894654D01*
X235660470Y18909070D01*
X235646054Y18924976D01*
X235633266Y18942219D01*
X235622230Y18960632D01*
X235613051Y18980038D01*
X235605819Y19000250D01*
X235600603Y19021074D01*
X235597453Y19042309D01*
X235596400Y19063750D01*
X235596400Y19501250D01*
X235597453Y19522691D01*
X235600603Y19543926D01*
X235605819Y19564750D01*
X235613051Y19584962D01*
X235622230Y19604368D01*
X235633266Y19622781D01*
X235646054Y19640024D01*
X235660470Y19655930D01*
X235676376Y19670346D01*
X235693619Y19683134D01*
X235712032Y19694170D01*
X235731438Y19703349D01*
X235751650Y19710581D01*
X235772474Y19715797D01*
X235793709Y19718947D01*
X235815150Y19720000D01*
X236327650Y19720000D01*
X236349091Y19718947D01*
X236349091Y19718947D01*
G37*
D24*
X236071400Y19282500D03*
D23*
G36*
X236349091Y21293947D02*
X236370326Y21290797D01*
X236391150Y21285581D01*
X236411362Y21278349D01*
X236430768Y21269170D01*
X236449181Y21258134D01*
X236466424Y21245346D01*
X236482330Y21230930D01*
X236496746Y21215024D01*
X236509534Y21197781D01*
X236520570Y21179368D01*
X236529749Y21159962D01*
X236536981Y21139750D01*
X236542197Y21118926D01*
X236545347Y21097691D01*
X236546400Y21076250D01*
X236546400Y20638750D01*
X236545347Y20617309D01*
X236542197Y20596074D01*
X236536981Y20575250D01*
X236529749Y20555038D01*
X236520570Y20535632D01*
X236509534Y20517219D01*
X236496746Y20499976D01*
X236482330Y20484070D01*
X236466424Y20469654D01*
X236449181Y20456866D01*
X236430768Y20445830D01*
X236411362Y20436651D01*
X236391150Y20429419D01*
X236370326Y20424203D01*
X236349091Y20421053D01*
X236327650Y20420000D01*
X235815150Y20420000D01*
X235793709Y20421053D01*
X235772474Y20424203D01*
X235751650Y20429419D01*
X235731438Y20436651D01*
X235712032Y20445830D01*
X235693619Y20456866D01*
X235676376Y20469654D01*
X235660470Y20484070D01*
X235646054Y20499976D01*
X235633266Y20517219D01*
X235622230Y20535632D01*
X235613051Y20555038D01*
X235605819Y20575250D01*
X235600603Y20596074D01*
X235597453Y20617309D01*
X235596400Y20638750D01*
X235596400Y21076250D01*
X235597453Y21097691D01*
X235600603Y21118926D01*
X235605819Y21139750D01*
X235613051Y21159962D01*
X235622230Y21179368D01*
X235633266Y21197781D01*
X235646054Y21215024D01*
X235660470Y21230930D01*
X235676376Y21245346D01*
X235693619Y21258134D01*
X235712032Y21269170D01*
X235731438Y21278349D01*
X235751650Y21285581D01*
X235772474Y21290797D01*
X235793709Y21293947D01*
X235815150Y21295000D01*
X236327650Y21295000D01*
X236349091Y21293947D01*
X236349091Y21293947D01*
G37*
D24*
X236071400Y20857500D03*
G04 #@! TD*
D23*
G04 #@! TO.C,C22*
G36*
X193499091Y22458947D02*
X193520326Y22455797D01*
X193541150Y22450581D01*
X193561362Y22443349D01*
X193580768Y22434170D01*
X193599181Y22423134D01*
X193616424Y22410346D01*
X193632330Y22395930D01*
X193646746Y22380024D01*
X193659534Y22362781D01*
X193670570Y22344368D01*
X193679749Y22324962D01*
X193686981Y22304750D01*
X193692197Y22283926D01*
X193695347Y22262691D01*
X193696400Y22241250D01*
X193696400Y21803750D01*
X193695347Y21782309D01*
X193692197Y21761074D01*
X193686981Y21740250D01*
X193679749Y21720038D01*
X193670570Y21700632D01*
X193659534Y21682219D01*
X193646746Y21664976D01*
X193632330Y21649070D01*
X193616424Y21634654D01*
X193599181Y21621866D01*
X193580768Y21610830D01*
X193561362Y21601651D01*
X193541150Y21594419D01*
X193520326Y21589203D01*
X193499091Y21586053D01*
X193477650Y21585000D01*
X192965150Y21585000D01*
X192943709Y21586053D01*
X192922474Y21589203D01*
X192901650Y21594419D01*
X192881438Y21601651D01*
X192862032Y21610830D01*
X192843619Y21621866D01*
X192826376Y21634654D01*
X192810470Y21649070D01*
X192796054Y21664976D01*
X192783266Y21682219D01*
X192772230Y21700632D01*
X192763051Y21720038D01*
X192755819Y21740250D01*
X192750603Y21761074D01*
X192747453Y21782309D01*
X192746400Y21803750D01*
X192746400Y22241250D01*
X192747453Y22262691D01*
X192750603Y22283926D01*
X192755819Y22304750D01*
X192763051Y22324962D01*
X192772230Y22344368D01*
X192783266Y22362781D01*
X192796054Y22380024D01*
X192810470Y22395930D01*
X192826376Y22410346D01*
X192843619Y22423134D01*
X192862032Y22434170D01*
X192881438Y22443349D01*
X192901650Y22450581D01*
X192922474Y22455797D01*
X192943709Y22458947D01*
X192965150Y22460000D01*
X193477650Y22460000D01*
X193499091Y22458947D01*
X193499091Y22458947D01*
G37*
D24*
X193221400Y22022500D03*
D23*
G36*
X193499091Y24033947D02*
X193520326Y24030797D01*
X193541150Y24025581D01*
X193561362Y24018349D01*
X193580768Y24009170D01*
X193599181Y23998134D01*
X193616424Y23985346D01*
X193632330Y23970930D01*
X193646746Y23955024D01*
X193659534Y23937781D01*
X193670570Y23919368D01*
X193679749Y23899962D01*
X193686981Y23879750D01*
X193692197Y23858926D01*
X193695347Y23837691D01*
X193696400Y23816250D01*
X193696400Y23378750D01*
X193695347Y23357309D01*
X193692197Y23336074D01*
X193686981Y23315250D01*
X193679749Y23295038D01*
X193670570Y23275632D01*
X193659534Y23257219D01*
X193646746Y23239976D01*
X193632330Y23224070D01*
X193616424Y23209654D01*
X193599181Y23196866D01*
X193580768Y23185830D01*
X193561362Y23176651D01*
X193541150Y23169419D01*
X193520326Y23164203D01*
X193499091Y23161053D01*
X193477650Y23160000D01*
X192965150Y23160000D01*
X192943709Y23161053D01*
X192922474Y23164203D01*
X192901650Y23169419D01*
X192881438Y23176651D01*
X192862032Y23185830D01*
X192843619Y23196866D01*
X192826376Y23209654D01*
X192810470Y23224070D01*
X192796054Y23239976D01*
X192783266Y23257219D01*
X192772230Y23275632D01*
X192763051Y23295038D01*
X192755819Y23315250D01*
X192750603Y23336074D01*
X192747453Y23357309D01*
X192746400Y23378750D01*
X192746400Y23816250D01*
X192747453Y23837691D01*
X192750603Y23858926D01*
X192755819Y23879750D01*
X192763051Y23899962D01*
X192772230Y23919368D01*
X192783266Y23937781D01*
X192796054Y23955024D01*
X192810470Y23970930D01*
X192826376Y23985346D01*
X192843619Y23998134D01*
X192862032Y24009170D01*
X192881438Y24018349D01*
X192901650Y24025581D01*
X192922474Y24030797D01*
X192943709Y24033947D01*
X192965150Y24035000D01*
X193477650Y24035000D01*
X193499091Y24033947D01*
X193499091Y24033947D01*
G37*
D24*
X193221400Y23597500D03*
G04 #@! TD*
D23*
G04 #@! TO.C,C23*
G36*
X169999091Y21233947D02*
X170020326Y21230797D01*
X170041150Y21225581D01*
X170061362Y21218349D01*
X170080768Y21209170D01*
X170099181Y21198134D01*
X170116424Y21185346D01*
X170132330Y21170930D01*
X170146746Y21155024D01*
X170159534Y21137781D01*
X170170570Y21119368D01*
X170179749Y21099962D01*
X170186981Y21079750D01*
X170192197Y21058926D01*
X170195347Y21037691D01*
X170196400Y21016250D01*
X170196400Y20503750D01*
X170195347Y20482309D01*
X170192197Y20461074D01*
X170186981Y20440250D01*
X170179749Y20420038D01*
X170170570Y20400632D01*
X170159534Y20382219D01*
X170146746Y20364976D01*
X170132330Y20349070D01*
X170116424Y20334654D01*
X170099181Y20321866D01*
X170080768Y20310830D01*
X170061362Y20301651D01*
X170041150Y20294419D01*
X170020326Y20289203D01*
X169999091Y20286053D01*
X169977650Y20285000D01*
X169540150Y20285000D01*
X169518709Y20286053D01*
X169497474Y20289203D01*
X169476650Y20294419D01*
X169456438Y20301651D01*
X169437032Y20310830D01*
X169418619Y20321866D01*
X169401376Y20334654D01*
X169385470Y20349070D01*
X169371054Y20364976D01*
X169358266Y20382219D01*
X169347230Y20400632D01*
X169338051Y20420038D01*
X169330819Y20440250D01*
X169325603Y20461074D01*
X169322453Y20482309D01*
X169321400Y20503750D01*
X169321400Y21016250D01*
X169322453Y21037691D01*
X169325603Y21058926D01*
X169330819Y21079750D01*
X169338051Y21099962D01*
X169347230Y21119368D01*
X169358266Y21137781D01*
X169371054Y21155024D01*
X169385470Y21170930D01*
X169401376Y21185346D01*
X169418619Y21198134D01*
X169437032Y21209170D01*
X169456438Y21218349D01*
X169476650Y21225581D01*
X169497474Y21230797D01*
X169518709Y21233947D01*
X169540150Y21235000D01*
X169977650Y21235000D01*
X169999091Y21233947D01*
X169999091Y21233947D01*
G37*
D24*
X169758900Y20760000D03*
D23*
G36*
X168424091Y21233947D02*
X168445326Y21230797D01*
X168466150Y21225581D01*
X168486362Y21218349D01*
X168505768Y21209170D01*
X168524181Y21198134D01*
X168541424Y21185346D01*
X168557330Y21170930D01*
X168571746Y21155024D01*
X168584534Y21137781D01*
X168595570Y21119368D01*
X168604749Y21099962D01*
X168611981Y21079750D01*
X168617197Y21058926D01*
X168620347Y21037691D01*
X168621400Y21016250D01*
X168621400Y20503750D01*
X168620347Y20482309D01*
X168617197Y20461074D01*
X168611981Y20440250D01*
X168604749Y20420038D01*
X168595570Y20400632D01*
X168584534Y20382219D01*
X168571746Y20364976D01*
X168557330Y20349070D01*
X168541424Y20334654D01*
X168524181Y20321866D01*
X168505768Y20310830D01*
X168486362Y20301651D01*
X168466150Y20294419D01*
X168445326Y20289203D01*
X168424091Y20286053D01*
X168402650Y20285000D01*
X167965150Y20285000D01*
X167943709Y20286053D01*
X167922474Y20289203D01*
X167901650Y20294419D01*
X167881438Y20301651D01*
X167862032Y20310830D01*
X167843619Y20321866D01*
X167826376Y20334654D01*
X167810470Y20349070D01*
X167796054Y20364976D01*
X167783266Y20382219D01*
X167772230Y20400632D01*
X167763051Y20420038D01*
X167755819Y20440250D01*
X167750603Y20461074D01*
X167747453Y20482309D01*
X167746400Y20503750D01*
X167746400Y21016250D01*
X167747453Y21037691D01*
X167750603Y21058926D01*
X167755819Y21079750D01*
X167763051Y21099962D01*
X167772230Y21119368D01*
X167783266Y21137781D01*
X167796054Y21155024D01*
X167810470Y21170930D01*
X167826376Y21185346D01*
X167843619Y21198134D01*
X167862032Y21209170D01*
X167881438Y21218349D01*
X167901650Y21225581D01*
X167922474Y21230797D01*
X167943709Y21233947D01*
X167965150Y21235000D01*
X168402650Y21235000D01*
X168424091Y21233947D01*
X168424091Y21233947D01*
G37*
D24*
X168183900Y20760000D03*
G04 #@! TD*
D23*
G04 #@! TO.C,C24*
G36*
X134189091Y19663947D02*
X134210326Y19660797D01*
X134231150Y19655581D01*
X134251362Y19648349D01*
X134270768Y19639170D01*
X134289181Y19628134D01*
X134306424Y19615346D01*
X134322330Y19600930D01*
X134336746Y19585024D01*
X134349534Y19567781D01*
X134360570Y19549368D01*
X134369749Y19529962D01*
X134376981Y19509750D01*
X134382197Y19488926D01*
X134385347Y19467691D01*
X134386400Y19446250D01*
X134386400Y19008750D01*
X134385347Y18987309D01*
X134382197Y18966074D01*
X134376981Y18945250D01*
X134369749Y18925038D01*
X134360570Y18905632D01*
X134349534Y18887219D01*
X134336746Y18869976D01*
X134322330Y18854070D01*
X134306424Y18839654D01*
X134289181Y18826866D01*
X134270768Y18815830D01*
X134251362Y18806651D01*
X134231150Y18799419D01*
X134210326Y18794203D01*
X134189091Y18791053D01*
X134167650Y18790000D01*
X133655150Y18790000D01*
X133633709Y18791053D01*
X133612474Y18794203D01*
X133591650Y18799419D01*
X133571438Y18806651D01*
X133552032Y18815830D01*
X133533619Y18826866D01*
X133516376Y18839654D01*
X133500470Y18854070D01*
X133486054Y18869976D01*
X133473266Y18887219D01*
X133462230Y18905632D01*
X133453051Y18925038D01*
X133445819Y18945250D01*
X133440603Y18966074D01*
X133437453Y18987309D01*
X133436400Y19008750D01*
X133436400Y19446250D01*
X133437453Y19467691D01*
X133440603Y19488926D01*
X133445819Y19509750D01*
X133453051Y19529962D01*
X133462230Y19549368D01*
X133473266Y19567781D01*
X133486054Y19585024D01*
X133500470Y19600930D01*
X133516376Y19615346D01*
X133533619Y19628134D01*
X133552032Y19639170D01*
X133571438Y19648349D01*
X133591650Y19655581D01*
X133612474Y19660797D01*
X133633709Y19663947D01*
X133655150Y19665000D01*
X134167650Y19665000D01*
X134189091Y19663947D01*
X134189091Y19663947D01*
G37*
D24*
X133911400Y19227500D03*
D23*
G36*
X134189091Y18088947D02*
X134210326Y18085797D01*
X134231150Y18080581D01*
X134251362Y18073349D01*
X134270768Y18064170D01*
X134289181Y18053134D01*
X134306424Y18040346D01*
X134322330Y18025930D01*
X134336746Y18010024D01*
X134349534Y17992781D01*
X134360570Y17974368D01*
X134369749Y17954962D01*
X134376981Y17934750D01*
X134382197Y17913926D01*
X134385347Y17892691D01*
X134386400Y17871250D01*
X134386400Y17433750D01*
X134385347Y17412309D01*
X134382197Y17391074D01*
X134376981Y17370250D01*
X134369749Y17350038D01*
X134360570Y17330632D01*
X134349534Y17312219D01*
X134336746Y17294976D01*
X134322330Y17279070D01*
X134306424Y17264654D01*
X134289181Y17251866D01*
X134270768Y17240830D01*
X134251362Y17231651D01*
X134231150Y17224419D01*
X134210326Y17219203D01*
X134189091Y17216053D01*
X134167650Y17215000D01*
X133655150Y17215000D01*
X133633709Y17216053D01*
X133612474Y17219203D01*
X133591650Y17224419D01*
X133571438Y17231651D01*
X133552032Y17240830D01*
X133533619Y17251866D01*
X133516376Y17264654D01*
X133500470Y17279070D01*
X133486054Y17294976D01*
X133473266Y17312219D01*
X133462230Y17330632D01*
X133453051Y17350038D01*
X133445819Y17370250D01*
X133440603Y17391074D01*
X133437453Y17412309D01*
X133436400Y17433750D01*
X133436400Y17871250D01*
X133437453Y17892691D01*
X133440603Y17913926D01*
X133445819Y17934750D01*
X133453051Y17954962D01*
X133462230Y17974368D01*
X133473266Y17992781D01*
X133486054Y18010024D01*
X133500470Y18025930D01*
X133516376Y18040346D01*
X133533619Y18053134D01*
X133552032Y18064170D01*
X133571438Y18073349D01*
X133591650Y18080581D01*
X133612474Y18085797D01*
X133633709Y18088947D01*
X133655150Y18090000D01*
X134167650Y18090000D01*
X134189091Y18088947D01*
X134189091Y18088947D01*
G37*
D24*
X133911400Y17652500D03*
G04 #@! TD*
D23*
G04 #@! TO.C,C25*
G36*
X99484091Y23543947D02*
X99505326Y23540797D01*
X99526150Y23535581D01*
X99546362Y23528349D01*
X99565768Y23519170D01*
X99584181Y23508134D01*
X99601424Y23495346D01*
X99617330Y23480930D01*
X99631746Y23465024D01*
X99644534Y23447781D01*
X99655570Y23429368D01*
X99664749Y23409962D01*
X99671981Y23389750D01*
X99677197Y23368926D01*
X99680347Y23347691D01*
X99681400Y23326250D01*
X99681400Y22813750D01*
X99680347Y22792309D01*
X99677197Y22771074D01*
X99671981Y22750250D01*
X99664749Y22730038D01*
X99655570Y22710632D01*
X99644534Y22692219D01*
X99631746Y22674976D01*
X99617330Y22659070D01*
X99601424Y22644654D01*
X99584181Y22631866D01*
X99565768Y22620830D01*
X99546362Y22611651D01*
X99526150Y22604419D01*
X99505326Y22599203D01*
X99484091Y22596053D01*
X99462650Y22595000D01*
X99025150Y22595000D01*
X99003709Y22596053D01*
X98982474Y22599203D01*
X98961650Y22604419D01*
X98941438Y22611651D01*
X98922032Y22620830D01*
X98903619Y22631866D01*
X98886376Y22644654D01*
X98870470Y22659070D01*
X98856054Y22674976D01*
X98843266Y22692219D01*
X98832230Y22710632D01*
X98823051Y22730038D01*
X98815819Y22750250D01*
X98810603Y22771074D01*
X98807453Y22792309D01*
X98806400Y22813750D01*
X98806400Y23326250D01*
X98807453Y23347691D01*
X98810603Y23368926D01*
X98815819Y23389750D01*
X98823051Y23409962D01*
X98832230Y23429368D01*
X98843266Y23447781D01*
X98856054Y23465024D01*
X98870470Y23480930D01*
X98886376Y23495346D01*
X98903619Y23508134D01*
X98922032Y23519170D01*
X98941438Y23528349D01*
X98961650Y23535581D01*
X98982474Y23540797D01*
X99003709Y23543947D01*
X99025150Y23545000D01*
X99462650Y23545000D01*
X99484091Y23543947D01*
X99484091Y23543947D01*
G37*
D24*
X99243900Y23070000D03*
D23*
G36*
X101059091Y23543947D02*
X101080326Y23540797D01*
X101101150Y23535581D01*
X101121362Y23528349D01*
X101140768Y23519170D01*
X101159181Y23508134D01*
X101176424Y23495346D01*
X101192330Y23480930D01*
X101206746Y23465024D01*
X101219534Y23447781D01*
X101230570Y23429368D01*
X101239749Y23409962D01*
X101246981Y23389750D01*
X101252197Y23368926D01*
X101255347Y23347691D01*
X101256400Y23326250D01*
X101256400Y22813750D01*
X101255347Y22792309D01*
X101252197Y22771074D01*
X101246981Y22750250D01*
X101239749Y22730038D01*
X101230570Y22710632D01*
X101219534Y22692219D01*
X101206746Y22674976D01*
X101192330Y22659070D01*
X101176424Y22644654D01*
X101159181Y22631866D01*
X101140768Y22620830D01*
X101121362Y22611651D01*
X101101150Y22604419D01*
X101080326Y22599203D01*
X101059091Y22596053D01*
X101037650Y22595000D01*
X100600150Y22595000D01*
X100578709Y22596053D01*
X100557474Y22599203D01*
X100536650Y22604419D01*
X100516438Y22611651D01*
X100497032Y22620830D01*
X100478619Y22631866D01*
X100461376Y22644654D01*
X100445470Y22659070D01*
X100431054Y22674976D01*
X100418266Y22692219D01*
X100407230Y22710632D01*
X100398051Y22730038D01*
X100390819Y22750250D01*
X100385603Y22771074D01*
X100382453Y22792309D01*
X100381400Y22813750D01*
X100381400Y23326250D01*
X100382453Y23347691D01*
X100385603Y23368926D01*
X100390819Y23389750D01*
X100398051Y23409962D01*
X100407230Y23429368D01*
X100418266Y23447781D01*
X100431054Y23465024D01*
X100445470Y23480930D01*
X100461376Y23495346D01*
X100478619Y23508134D01*
X100497032Y23519170D01*
X100516438Y23528349D01*
X100536650Y23535581D01*
X100557474Y23540797D01*
X100578709Y23543947D01*
X100600150Y23545000D01*
X101037650Y23545000D01*
X101059091Y23543947D01*
X101059091Y23543947D01*
G37*
D24*
X100818900Y23070000D03*
G04 #@! TD*
D23*
G04 #@! TO.C,C26*
G36*
X72299091Y19703947D02*
X72320326Y19700797D01*
X72341150Y19695581D01*
X72361362Y19688349D01*
X72380768Y19679170D01*
X72399181Y19668134D01*
X72416424Y19655346D01*
X72432330Y19640930D01*
X72446746Y19625024D01*
X72459534Y19607781D01*
X72470570Y19589368D01*
X72479749Y19569962D01*
X72486981Y19549750D01*
X72492197Y19528926D01*
X72495347Y19507691D01*
X72496400Y19486250D01*
X72496400Y19048750D01*
X72495347Y19027309D01*
X72492197Y19006074D01*
X72486981Y18985250D01*
X72479749Y18965038D01*
X72470570Y18945632D01*
X72459534Y18927219D01*
X72446746Y18909976D01*
X72432330Y18894070D01*
X72416424Y18879654D01*
X72399181Y18866866D01*
X72380768Y18855830D01*
X72361362Y18846651D01*
X72341150Y18839419D01*
X72320326Y18834203D01*
X72299091Y18831053D01*
X72277650Y18830000D01*
X71765150Y18830000D01*
X71743709Y18831053D01*
X71722474Y18834203D01*
X71701650Y18839419D01*
X71681438Y18846651D01*
X71662032Y18855830D01*
X71643619Y18866866D01*
X71626376Y18879654D01*
X71610470Y18894070D01*
X71596054Y18909976D01*
X71583266Y18927219D01*
X71572230Y18945632D01*
X71563051Y18965038D01*
X71555819Y18985250D01*
X71550603Y19006074D01*
X71547453Y19027309D01*
X71546400Y19048750D01*
X71546400Y19486250D01*
X71547453Y19507691D01*
X71550603Y19528926D01*
X71555819Y19549750D01*
X71563051Y19569962D01*
X71572230Y19589368D01*
X71583266Y19607781D01*
X71596054Y19625024D01*
X71610470Y19640930D01*
X71626376Y19655346D01*
X71643619Y19668134D01*
X71662032Y19679170D01*
X71681438Y19688349D01*
X71701650Y19695581D01*
X71722474Y19700797D01*
X71743709Y19703947D01*
X71765150Y19705000D01*
X72277650Y19705000D01*
X72299091Y19703947D01*
X72299091Y19703947D01*
G37*
D24*
X72021400Y19267500D03*
D23*
G36*
X72299091Y18128947D02*
X72320326Y18125797D01*
X72341150Y18120581D01*
X72361362Y18113349D01*
X72380768Y18104170D01*
X72399181Y18093134D01*
X72416424Y18080346D01*
X72432330Y18065930D01*
X72446746Y18050024D01*
X72459534Y18032781D01*
X72470570Y18014368D01*
X72479749Y17994962D01*
X72486981Y17974750D01*
X72492197Y17953926D01*
X72495347Y17932691D01*
X72496400Y17911250D01*
X72496400Y17473750D01*
X72495347Y17452309D01*
X72492197Y17431074D01*
X72486981Y17410250D01*
X72479749Y17390038D01*
X72470570Y17370632D01*
X72459534Y17352219D01*
X72446746Y17334976D01*
X72432330Y17319070D01*
X72416424Y17304654D01*
X72399181Y17291866D01*
X72380768Y17280830D01*
X72361362Y17271651D01*
X72341150Y17264419D01*
X72320326Y17259203D01*
X72299091Y17256053D01*
X72277650Y17255000D01*
X71765150Y17255000D01*
X71743709Y17256053D01*
X71722474Y17259203D01*
X71701650Y17264419D01*
X71681438Y17271651D01*
X71662032Y17280830D01*
X71643619Y17291866D01*
X71626376Y17304654D01*
X71610470Y17319070D01*
X71596054Y17334976D01*
X71583266Y17352219D01*
X71572230Y17370632D01*
X71563051Y17390038D01*
X71555819Y17410250D01*
X71550603Y17431074D01*
X71547453Y17452309D01*
X71546400Y17473750D01*
X71546400Y17911250D01*
X71547453Y17932691D01*
X71550603Y17953926D01*
X71555819Y17974750D01*
X71563051Y17994962D01*
X71572230Y18014368D01*
X71583266Y18032781D01*
X71596054Y18050024D01*
X71610470Y18065930D01*
X71626376Y18080346D01*
X71643619Y18093134D01*
X71662032Y18104170D01*
X71681438Y18113349D01*
X71701650Y18120581D01*
X71722474Y18125797D01*
X71743709Y18128947D01*
X71765150Y18130000D01*
X72277650Y18130000D01*
X72299091Y18128947D01*
X72299091Y18128947D01*
G37*
D24*
X72021400Y17692500D03*
G04 #@! TD*
D23*
G04 #@! TO.C,C27*
G36*
X23359091Y20173947D02*
X23380326Y20170797D01*
X23401150Y20165581D01*
X23421362Y20158349D01*
X23440768Y20149170D01*
X23459181Y20138134D01*
X23476424Y20125346D01*
X23492330Y20110930D01*
X23506746Y20095024D01*
X23519534Y20077781D01*
X23530570Y20059368D01*
X23539749Y20039962D01*
X23546981Y20019750D01*
X23552197Y19998926D01*
X23555347Y19977691D01*
X23556400Y19956250D01*
X23556400Y19518750D01*
X23555347Y19497309D01*
X23552197Y19476074D01*
X23546981Y19455250D01*
X23539749Y19435038D01*
X23530570Y19415632D01*
X23519534Y19397219D01*
X23506746Y19379976D01*
X23492330Y19364070D01*
X23476424Y19349654D01*
X23459181Y19336866D01*
X23440768Y19325830D01*
X23421362Y19316651D01*
X23401150Y19309419D01*
X23380326Y19304203D01*
X23359091Y19301053D01*
X23337650Y19300000D01*
X22825150Y19300000D01*
X22803709Y19301053D01*
X22782474Y19304203D01*
X22761650Y19309419D01*
X22741438Y19316651D01*
X22722032Y19325830D01*
X22703619Y19336866D01*
X22686376Y19349654D01*
X22670470Y19364070D01*
X22656054Y19379976D01*
X22643266Y19397219D01*
X22632230Y19415632D01*
X22623051Y19435038D01*
X22615819Y19455250D01*
X22610603Y19476074D01*
X22607453Y19497309D01*
X22606400Y19518750D01*
X22606400Y19956250D01*
X22607453Y19977691D01*
X22610603Y19998926D01*
X22615819Y20019750D01*
X22623051Y20039962D01*
X22632230Y20059368D01*
X22643266Y20077781D01*
X22656054Y20095024D01*
X22670470Y20110930D01*
X22686376Y20125346D01*
X22703619Y20138134D01*
X22722032Y20149170D01*
X22741438Y20158349D01*
X22761650Y20165581D01*
X22782474Y20170797D01*
X22803709Y20173947D01*
X22825150Y20175000D01*
X23337650Y20175000D01*
X23359091Y20173947D01*
X23359091Y20173947D01*
G37*
D24*
X23081400Y19737500D03*
D23*
G36*
X23359091Y18598947D02*
X23380326Y18595797D01*
X23401150Y18590581D01*
X23421362Y18583349D01*
X23440768Y18574170D01*
X23459181Y18563134D01*
X23476424Y18550346D01*
X23492330Y18535930D01*
X23506746Y18520024D01*
X23519534Y18502781D01*
X23530570Y18484368D01*
X23539749Y18464962D01*
X23546981Y18444750D01*
X23552197Y18423926D01*
X23555347Y18402691D01*
X23556400Y18381250D01*
X23556400Y17943750D01*
X23555347Y17922309D01*
X23552197Y17901074D01*
X23546981Y17880250D01*
X23539749Y17860038D01*
X23530570Y17840632D01*
X23519534Y17822219D01*
X23506746Y17804976D01*
X23492330Y17789070D01*
X23476424Y17774654D01*
X23459181Y17761866D01*
X23440768Y17750830D01*
X23421362Y17741651D01*
X23401150Y17734419D01*
X23380326Y17729203D01*
X23359091Y17726053D01*
X23337650Y17725000D01*
X22825150Y17725000D01*
X22803709Y17726053D01*
X22782474Y17729203D01*
X22761650Y17734419D01*
X22741438Y17741651D01*
X22722032Y17750830D01*
X22703619Y17761866D01*
X22686376Y17774654D01*
X22670470Y17789070D01*
X22656054Y17804976D01*
X22643266Y17822219D01*
X22632230Y17840632D01*
X22623051Y17860038D01*
X22615819Y17880250D01*
X22610603Y17901074D01*
X22607453Y17922309D01*
X22606400Y17943750D01*
X22606400Y18381250D01*
X22607453Y18402691D01*
X22610603Y18423926D01*
X22615819Y18444750D01*
X22623051Y18464962D01*
X22632230Y18484368D01*
X22643266Y18502781D01*
X22656054Y18520024D01*
X22670470Y18535930D01*
X22686376Y18550346D01*
X22703619Y18563134D01*
X22722032Y18574170D01*
X22741438Y18583349D01*
X22761650Y18590581D01*
X22782474Y18595797D01*
X22803709Y18598947D01*
X22825150Y18600000D01*
X23337650Y18600000D01*
X23359091Y18598947D01*
X23359091Y18598947D01*
G37*
D24*
X23081400Y18162500D03*
G04 #@! TD*
D25*
G04 #@! TO.C,RGB1*
X39051400Y78470000D03*
X39051400Y75270000D03*
X34151400Y78470000D03*
X34151400Y75270000D03*
G04 #@! TD*
G04 #@! TO.C,RGB2*
X64601400Y73450000D03*
X64601400Y76650000D03*
X69501400Y73450000D03*
X69501400Y76650000D03*
G04 #@! TD*
G04 #@! TO.C,RGB3*
X96421400Y77840000D03*
X96421400Y74640000D03*
X91521400Y77840000D03*
X91521400Y74640000D03*
G04 #@! TD*
G04 #@! TO.C,RGB4*
X127051400Y74220000D03*
X127051400Y77420000D03*
X131951400Y74220000D03*
X131951400Y77420000D03*
G04 #@! TD*
G04 #@! TO.C,RGB5*
X165401400Y76590000D03*
X165401400Y73390000D03*
X160501400Y76590000D03*
X160501400Y73390000D03*
G04 #@! TD*
G04 #@! TO.C,RGB6*
X194701400Y74080000D03*
X194701400Y77280000D03*
X199601400Y74080000D03*
X199601400Y77280000D03*
G04 #@! TD*
G04 #@! TO.C,RGB7*
X232731400Y77670000D03*
X232731400Y74470000D03*
X227831400Y77670000D03*
X227831400Y74470000D03*
G04 #@! TD*
G04 #@! TO.C,RGB8*
X261421400Y73580000D03*
X261421400Y76780000D03*
X266321400Y73580000D03*
X266321400Y76780000D03*
G04 #@! TD*
G04 #@! TO.C,RGB9*
X264251400Y20350000D03*
X264251400Y17150000D03*
X259351400Y20350000D03*
X259351400Y17150000D03*
G04 #@! TD*
G04 #@! TO.C,RGB10*
X228041400Y18020000D03*
X228041400Y21220000D03*
X232941400Y18020000D03*
X232941400Y21220000D03*
G04 #@! TD*
G04 #@! TO.C,RGB11*
X190231400Y20420000D03*
X190231400Y17220000D03*
X185331400Y20420000D03*
X185331400Y17220000D03*
G04 #@! TD*
G04 #@! TO.C,RGB12*
X165871400Y20400000D03*
X165871400Y17200000D03*
X160971400Y20400000D03*
X160971400Y17200000D03*
G04 #@! TD*
G04 #@! TO.C,RGB13*
X125861400Y17050000D03*
X125861400Y20250000D03*
X130761400Y17050000D03*
X130761400Y20250000D03*
G04 #@! TD*
G04 #@! TO.C,RGB14*
X100481400Y20670000D03*
X100481400Y17470000D03*
X95581400Y20670000D03*
X95581400Y17470000D03*
G04 #@! TD*
G04 #@! TO.C,RGB15*
X64081400Y17220000D03*
X64081400Y20420000D03*
X68981400Y17220000D03*
X68981400Y20420000D03*
G04 #@! TD*
G04 #@! TO.C,RGB16*
X19411400Y20400000D03*
X19411400Y17200000D03*
X14511400Y20400000D03*
X14511400Y17200000D03*
G04 #@! TD*
D23*
G04 #@! TO.C,RC9*
G36*
X31596591Y77293947D02*
X31617826Y77290797D01*
X31638650Y77285581D01*
X31658862Y77278349D01*
X31678268Y77269170D01*
X31696681Y77258134D01*
X31713924Y77245346D01*
X31729830Y77230930D01*
X31744246Y77215024D01*
X31757034Y77197781D01*
X31768070Y77179368D01*
X31777249Y77159962D01*
X31784481Y77139750D01*
X31789697Y77118926D01*
X31792847Y77097691D01*
X31793900Y77076250D01*
X31793900Y76563750D01*
X31792847Y76542309D01*
X31789697Y76521074D01*
X31784481Y76500250D01*
X31777249Y76480038D01*
X31768070Y76460632D01*
X31757034Y76442219D01*
X31744246Y76424976D01*
X31729830Y76409070D01*
X31713924Y76394654D01*
X31696681Y76381866D01*
X31678268Y76370830D01*
X31658862Y76361651D01*
X31638650Y76354419D01*
X31617826Y76349203D01*
X31596591Y76346053D01*
X31575150Y76345000D01*
X31137650Y76345000D01*
X31116209Y76346053D01*
X31094974Y76349203D01*
X31074150Y76354419D01*
X31053938Y76361651D01*
X31034532Y76370830D01*
X31016119Y76381866D01*
X30998876Y76394654D01*
X30982970Y76409070D01*
X30968554Y76424976D01*
X30955766Y76442219D01*
X30944730Y76460632D01*
X30935551Y76480038D01*
X30928319Y76500250D01*
X30923103Y76521074D01*
X30919953Y76542309D01*
X30918900Y76563750D01*
X30918900Y77076250D01*
X30919953Y77097691D01*
X30923103Y77118926D01*
X30928319Y77139750D01*
X30935551Y77159962D01*
X30944730Y77179368D01*
X30955766Y77197781D01*
X30968554Y77215024D01*
X30982970Y77230930D01*
X30998876Y77245346D01*
X31016119Y77258134D01*
X31034532Y77269170D01*
X31053938Y77278349D01*
X31074150Y77285581D01*
X31094974Y77290797D01*
X31116209Y77293947D01*
X31137650Y77295000D01*
X31575150Y77295000D01*
X31596591Y77293947D01*
X31596591Y77293947D01*
G37*
D24*
X31356400Y76820000D03*
D23*
G36*
X30021591Y77293947D02*
X30042826Y77290797D01*
X30063650Y77285581D01*
X30083862Y77278349D01*
X30103268Y77269170D01*
X30121681Y77258134D01*
X30138924Y77245346D01*
X30154830Y77230930D01*
X30169246Y77215024D01*
X30182034Y77197781D01*
X30193070Y77179368D01*
X30202249Y77159962D01*
X30209481Y77139750D01*
X30214697Y77118926D01*
X30217847Y77097691D01*
X30218900Y77076250D01*
X30218900Y76563750D01*
X30217847Y76542309D01*
X30214697Y76521074D01*
X30209481Y76500250D01*
X30202249Y76480038D01*
X30193070Y76460632D01*
X30182034Y76442219D01*
X30169246Y76424976D01*
X30154830Y76409070D01*
X30138924Y76394654D01*
X30121681Y76381866D01*
X30103268Y76370830D01*
X30083862Y76361651D01*
X30063650Y76354419D01*
X30042826Y76349203D01*
X30021591Y76346053D01*
X30000150Y76345000D01*
X29562650Y76345000D01*
X29541209Y76346053D01*
X29519974Y76349203D01*
X29499150Y76354419D01*
X29478938Y76361651D01*
X29459532Y76370830D01*
X29441119Y76381866D01*
X29423876Y76394654D01*
X29407970Y76409070D01*
X29393554Y76424976D01*
X29380766Y76442219D01*
X29369730Y76460632D01*
X29360551Y76480038D01*
X29353319Y76500250D01*
X29348103Y76521074D01*
X29344953Y76542309D01*
X29343900Y76563750D01*
X29343900Y77076250D01*
X29344953Y77097691D01*
X29348103Y77118926D01*
X29353319Y77139750D01*
X29360551Y77159962D01*
X29369730Y77179368D01*
X29380766Y77197781D01*
X29393554Y77215024D01*
X29407970Y77230930D01*
X29423876Y77245346D01*
X29441119Y77258134D01*
X29459532Y77269170D01*
X29478938Y77278349D01*
X29499150Y77285581D01*
X29519974Y77290797D01*
X29541209Y77293947D01*
X29562650Y77295000D01*
X30000150Y77295000D01*
X30021591Y77293947D01*
X30021591Y77293947D01*
G37*
D24*
X29781400Y76820000D03*
G04 #@! TD*
D23*
G04 #@! TO.C,C1*
G36*
X43684091Y62823947D02*
X43705326Y62820797D01*
X43726150Y62815581D01*
X43746362Y62808349D01*
X43765768Y62799170D01*
X43784181Y62788134D01*
X43801424Y62775346D01*
X43817330Y62760930D01*
X43831746Y62745024D01*
X43844534Y62727781D01*
X43855570Y62709368D01*
X43864749Y62689962D01*
X43871981Y62669750D01*
X43877197Y62648926D01*
X43880347Y62627691D01*
X43881400Y62606250D01*
X43881400Y62093750D01*
X43880347Y62072309D01*
X43877197Y62051074D01*
X43871981Y62030250D01*
X43864749Y62010038D01*
X43855570Y61990632D01*
X43844534Y61972219D01*
X43831746Y61954976D01*
X43817330Y61939070D01*
X43801424Y61924654D01*
X43784181Y61911866D01*
X43765768Y61900830D01*
X43746362Y61891651D01*
X43726150Y61884419D01*
X43705326Y61879203D01*
X43684091Y61876053D01*
X43662650Y61875000D01*
X43225150Y61875000D01*
X43203709Y61876053D01*
X43182474Y61879203D01*
X43161650Y61884419D01*
X43141438Y61891651D01*
X43122032Y61900830D01*
X43103619Y61911866D01*
X43086376Y61924654D01*
X43070470Y61939070D01*
X43056054Y61954976D01*
X43043266Y61972219D01*
X43032230Y61990632D01*
X43023051Y62010038D01*
X43015819Y62030250D01*
X43010603Y62051074D01*
X43007453Y62072309D01*
X43006400Y62093750D01*
X43006400Y62606250D01*
X43007453Y62627691D01*
X43010603Y62648926D01*
X43015819Y62669750D01*
X43023051Y62689962D01*
X43032230Y62709368D01*
X43043266Y62727781D01*
X43056054Y62745024D01*
X43070470Y62760930D01*
X43086376Y62775346D01*
X43103619Y62788134D01*
X43122032Y62799170D01*
X43141438Y62808349D01*
X43161650Y62815581D01*
X43182474Y62820797D01*
X43203709Y62823947D01*
X43225150Y62825000D01*
X43662650Y62825000D01*
X43684091Y62823947D01*
X43684091Y62823947D01*
G37*
D24*
X43443900Y62350000D03*
D23*
G36*
X45259091Y62823947D02*
X45280326Y62820797D01*
X45301150Y62815581D01*
X45321362Y62808349D01*
X45340768Y62799170D01*
X45359181Y62788134D01*
X45376424Y62775346D01*
X45392330Y62760930D01*
X45406746Y62745024D01*
X45419534Y62727781D01*
X45430570Y62709368D01*
X45439749Y62689962D01*
X45446981Y62669750D01*
X45452197Y62648926D01*
X45455347Y62627691D01*
X45456400Y62606250D01*
X45456400Y62093750D01*
X45455347Y62072309D01*
X45452197Y62051074D01*
X45446981Y62030250D01*
X45439749Y62010038D01*
X45430570Y61990632D01*
X45419534Y61972219D01*
X45406746Y61954976D01*
X45392330Y61939070D01*
X45376424Y61924654D01*
X45359181Y61911866D01*
X45340768Y61900830D01*
X45321362Y61891651D01*
X45301150Y61884419D01*
X45280326Y61879203D01*
X45259091Y61876053D01*
X45237650Y61875000D01*
X44800150Y61875000D01*
X44778709Y61876053D01*
X44757474Y61879203D01*
X44736650Y61884419D01*
X44716438Y61891651D01*
X44697032Y61900830D01*
X44678619Y61911866D01*
X44661376Y61924654D01*
X44645470Y61939070D01*
X44631054Y61954976D01*
X44618266Y61972219D01*
X44607230Y61990632D01*
X44598051Y62010038D01*
X44590819Y62030250D01*
X44585603Y62051074D01*
X44582453Y62072309D01*
X44581400Y62093750D01*
X44581400Y62606250D01*
X44582453Y62627691D01*
X44585603Y62648926D01*
X44590819Y62669750D01*
X44598051Y62689962D01*
X44607230Y62709368D01*
X44618266Y62727781D01*
X44631054Y62745024D01*
X44645470Y62760930D01*
X44661376Y62775346D01*
X44678619Y62788134D01*
X44697032Y62799170D01*
X44716438Y62808349D01*
X44736650Y62815581D01*
X44757474Y62820797D01*
X44778709Y62823947D01*
X44800150Y62825000D01*
X45237650Y62825000D01*
X45259091Y62823947D01*
X45259091Y62823947D01*
G37*
D24*
X45018900Y62350000D03*
G04 #@! TD*
D23*
G04 #@! TO.C,C2*
G36*
X43634091Y56293947D02*
X43655326Y56290797D01*
X43676150Y56285581D01*
X43696362Y56278349D01*
X43715768Y56269170D01*
X43734181Y56258134D01*
X43751424Y56245346D01*
X43767330Y56230930D01*
X43781746Y56215024D01*
X43794534Y56197781D01*
X43805570Y56179368D01*
X43814749Y56159962D01*
X43821981Y56139750D01*
X43827197Y56118926D01*
X43830347Y56097691D01*
X43831400Y56076250D01*
X43831400Y55563750D01*
X43830347Y55542309D01*
X43827197Y55521074D01*
X43821981Y55500250D01*
X43814749Y55480038D01*
X43805570Y55460632D01*
X43794534Y55442219D01*
X43781746Y55424976D01*
X43767330Y55409070D01*
X43751424Y55394654D01*
X43734181Y55381866D01*
X43715768Y55370830D01*
X43696362Y55361651D01*
X43676150Y55354419D01*
X43655326Y55349203D01*
X43634091Y55346053D01*
X43612650Y55345000D01*
X43175150Y55345000D01*
X43153709Y55346053D01*
X43132474Y55349203D01*
X43111650Y55354419D01*
X43091438Y55361651D01*
X43072032Y55370830D01*
X43053619Y55381866D01*
X43036376Y55394654D01*
X43020470Y55409070D01*
X43006054Y55424976D01*
X42993266Y55442219D01*
X42982230Y55460632D01*
X42973051Y55480038D01*
X42965819Y55500250D01*
X42960603Y55521074D01*
X42957453Y55542309D01*
X42956400Y55563750D01*
X42956400Y56076250D01*
X42957453Y56097691D01*
X42960603Y56118926D01*
X42965819Y56139750D01*
X42973051Y56159962D01*
X42982230Y56179368D01*
X42993266Y56197781D01*
X43006054Y56215024D01*
X43020470Y56230930D01*
X43036376Y56245346D01*
X43053619Y56258134D01*
X43072032Y56269170D01*
X43091438Y56278349D01*
X43111650Y56285581D01*
X43132474Y56290797D01*
X43153709Y56293947D01*
X43175150Y56295000D01*
X43612650Y56295000D01*
X43634091Y56293947D01*
X43634091Y56293947D01*
G37*
D24*
X43393900Y55820000D03*
D23*
G36*
X45209091Y56293947D02*
X45230326Y56290797D01*
X45251150Y56285581D01*
X45271362Y56278349D01*
X45290768Y56269170D01*
X45309181Y56258134D01*
X45326424Y56245346D01*
X45342330Y56230930D01*
X45356746Y56215024D01*
X45369534Y56197781D01*
X45380570Y56179368D01*
X45389749Y56159962D01*
X45396981Y56139750D01*
X45402197Y56118926D01*
X45405347Y56097691D01*
X45406400Y56076250D01*
X45406400Y55563750D01*
X45405347Y55542309D01*
X45402197Y55521074D01*
X45396981Y55500250D01*
X45389749Y55480038D01*
X45380570Y55460632D01*
X45369534Y55442219D01*
X45356746Y55424976D01*
X45342330Y55409070D01*
X45326424Y55394654D01*
X45309181Y55381866D01*
X45290768Y55370830D01*
X45271362Y55361651D01*
X45251150Y55354419D01*
X45230326Y55349203D01*
X45209091Y55346053D01*
X45187650Y55345000D01*
X44750150Y55345000D01*
X44728709Y55346053D01*
X44707474Y55349203D01*
X44686650Y55354419D01*
X44666438Y55361651D01*
X44647032Y55370830D01*
X44628619Y55381866D01*
X44611376Y55394654D01*
X44595470Y55409070D01*
X44581054Y55424976D01*
X44568266Y55442219D01*
X44557230Y55460632D01*
X44548051Y55480038D01*
X44540819Y55500250D01*
X44535603Y55521074D01*
X44532453Y55542309D01*
X44531400Y55563750D01*
X44531400Y56076250D01*
X44532453Y56097691D01*
X44535603Y56118926D01*
X44540819Y56139750D01*
X44548051Y56159962D01*
X44557230Y56179368D01*
X44568266Y56197781D01*
X44581054Y56215024D01*
X44595470Y56230930D01*
X44611376Y56245346D01*
X44628619Y56258134D01*
X44647032Y56269170D01*
X44666438Y56278349D01*
X44686650Y56285581D01*
X44707474Y56290797D01*
X44728709Y56293947D01*
X44750150Y56295000D01*
X45187650Y56295000D01*
X45209091Y56293947D01*
X45209091Y56293947D01*
G37*
D24*
X44968900Y55820000D03*
G04 #@! TD*
D23*
G04 #@! TO.C,C3*
G36*
X34239091Y60883947D02*
X34260326Y60880797D01*
X34281150Y60875581D01*
X34301362Y60868349D01*
X34320768Y60859170D01*
X34339181Y60848134D01*
X34356424Y60835346D01*
X34372330Y60820930D01*
X34386746Y60805024D01*
X34399534Y60787781D01*
X34410570Y60769368D01*
X34419749Y60749962D01*
X34426981Y60729750D01*
X34432197Y60708926D01*
X34435347Y60687691D01*
X34436400Y60666250D01*
X34436400Y60153750D01*
X34435347Y60132309D01*
X34432197Y60111074D01*
X34426981Y60090250D01*
X34419749Y60070038D01*
X34410570Y60050632D01*
X34399534Y60032219D01*
X34386746Y60014976D01*
X34372330Y59999070D01*
X34356424Y59984654D01*
X34339181Y59971866D01*
X34320768Y59960830D01*
X34301362Y59951651D01*
X34281150Y59944419D01*
X34260326Y59939203D01*
X34239091Y59936053D01*
X34217650Y59935000D01*
X33780150Y59935000D01*
X33758709Y59936053D01*
X33737474Y59939203D01*
X33716650Y59944419D01*
X33696438Y59951651D01*
X33677032Y59960830D01*
X33658619Y59971866D01*
X33641376Y59984654D01*
X33625470Y59999070D01*
X33611054Y60014976D01*
X33598266Y60032219D01*
X33587230Y60050632D01*
X33578051Y60070038D01*
X33570819Y60090250D01*
X33565603Y60111074D01*
X33562453Y60132309D01*
X33561400Y60153750D01*
X33561400Y60666250D01*
X33562453Y60687691D01*
X33565603Y60708926D01*
X33570819Y60729750D01*
X33578051Y60749962D01*
X33587230Y60769368D01*
X33598266Y60787781D01*
X33611054Y60805024D01*
X33625470Y60820930D01*
X33641376Y60835346D01*
X33658619Y60848134D01*
X33677032Y60859170D01*
X33696438Y60868349D01*
X33716650Y60875581D01*
X33737474Y60880797D01*
X33758709Y60883947D01*
X33780150Y60885000D01*
X34217650Y60885000D01*
X34239091Y60883947D01*
X34239091Y60883947D01*
G37*
D24*
X33998900Y60410000D03*
D23*
G36*
X32664091Y60883947D02*
X32685326Y60880797D01*
X32706150Y60875581D01*
X32726362Y60868349D01*
X32745768Y60859170D01*
X32764181Y60848134D01*
X32781424Y60835346D01*
X32797330Y60820930D01*
X32811746Y60805024D01*
X32824534Y60787781D01*
X32835570Y60769368D01*
X32844749Y60749962D01*
X32851981Y60729750D01*
X32857197Y60708926D01*
X32860347Y60687691D01*
X32861400Y60666250D01*
X32861400Y60153750D01*
X32860347Y60132309D01*
X32857197Y60111074D01*
X32851981Y60090250D01*
X32844749Y60070038D01*
X32835570Y60050632D01*
X32824534Y60032219D01*
X32811746Y60014976D01*
X32797330Y59999070D01*
X32781424Y59984654D01*
X32764181Y59971866D01*
X32745768Y59960830D01*
X32726362Y59951651D01*
X32706150Y59944419D01*
X32685326Y59939203D01*
X32664091Y59936053D01*
X32642650Y59935000D01*
X32205150Y59935000D01*
X32183709Y59936053D01*
X32162474Y59939203D01*
X32141650Y59944419D01*
X32121438Y59951651D01*
X32102032Y59960830D01*
X32083619Y59971866D01*
X32066376Y59984654D01*
X32050470Y59999070D01*
X32036054Y60014976D01*
X32023266Y60032219D01*
X32012230Y60050632D01*
X32003051Y60070038D01*
X31995819Y60090250D01*
X31990603Y60111074D01*
X31987453Y60132309D01*
X31986400Y60153750D01*
X31986400Y60666250D01*
X31987453Y60687691D01*
X31990603Y60708926D01*
X31995819Y60729750D01*
X32003051Y60749962D01*
X32012230Y60769368D01*
X32023266Y60787781D01*
X32036054Y60805024D01*
X32050470Y60820930D01*
X32066376Y60835346D01*
X32083619Y60848134D01*
X32102032Y60859170D01*
X32121438Y60868349D01*
X32141650Y60875581D01*
X32162474Y60880797D01*
X32183709Y60883947D01*
X32205150Y60885000D01*
X32642650Y60885000D01*
X32664091Y60883947D01*
X32664091Y60883947D01*
G37*
D24*
X32423900Y60410000D03*
G04 #@! TD*
D23*
G04 #@! TO.C,C4*
G36*
X22539091Y55398947D02*
X22560326Y55395797D01*
X22581150Y55390581D01*
X22601362Y55383349D01*
X22620768Y55374170D01*
X22639181Y55363134D01*
X22656424Y55350346D01*
X22672330Y55335930D01*
X22686746Y55320024D01*
X22699534Y55302781D01*
X22710570Y55284368D01*
X22719749Y55264962D01*
X22726981Y55244750D01*
X22732197Y55223926D01*
X22735347Y55202691D01*
X22736400Y55181250D01*
X22736400Y54743750D01*
X22735347Y54722309D01*
X22732197Y54701074D01*
X22726981Y54680250D01*
X22719749Y54660038D01*
X22710570Y54640632D01*
X22699534Y54622219D01*
X22686746Y54604976D01*
X22672330Y54589070D01*
X22656424Y54574654D01*
X22639181Y54561866D01*
X22620768Y54550830D01*
X22601362Y54541651D01*
X22581150Y54534419D01*
X22560326Y54529203D01*
X22539091Y54526053D01*
X22517650Y54525000D01*
X22005150Y54525000D01*
X21983709Y54526053D01*
X21962474Y54529203D01*
X21941650Y54534419D01*
X21921438Y54541651D01*
X21902032Y54550830D01*
X21883619Y54561866D01*
X21866376Y54574654D01*
X21850470Y54589070D01*
X21836054Y54604976D01*
X21823266Y54622219D01*
X21812230Y54640632D01*
X21803051Y54660038D01*
X21795819Y54680250D01*
X21790603Y54701074D01*
X21787453Y54722309D01*
X21786400Y54743750D01*
X21786400Y55181250D01*
X21787453Y55202691D01*
X21790603Y55223926D01*
X21795819Y55244750D01*
X21803051Y55264962D01*
X21812230Y55284368D01*
X21823266Y55302781D01*
X21836054Y55320024D01*
X21850470Y55335930D01*
X21866376Y55350346D01*
X21883619Y55363134D01*
X21902032Y55374170D01*
X21921438Y55383349D01*
X21941650Y55390581D01*
X21962474Y55395797D01*
X21983709Y55398947D01*
X22005150Y55400000D01*
X22517650Y55400000D01*
X22539091Y55398947D01*
X22539091Y55398947D01*
G37*
D24*
X22261400Y54962500D03*
D23*
G36*
X22539091Y56973947D02*
X22560326Y56970797D01*
X22581150Y56965581D01*
X22601362Y56958349D01*
X22620768Y56949170D01*
X22639181Y56938134D01*
X22656424Y56925346D01*
X22672330Y56910930D01*
X22686746Y56895024D01*
X22699534Y56877781D01*
X22710570Y56859368D01*
X22719749Y56839962D01*
X22726981Y56819750D01*
X22732197Y56798926D01*
X22735347Y56777691D01*
X22736400Y56756250D01*
X22736400Y56318750D01*
X22735347Y56297309D01*
X22732197Y56276074D01*
X22726981Y56255250D01*
X22719749Y56235038D01*
X22710570Y56215632D01*
X22699534Y56197219D01*
X22686746Y56179976D01*
X22672330Y56164070D01*
X22656424Y56149654D01*
X22639181Y56136866D01*
X22620768Y56125830D01*
X22601362Y56116651D01*
X22581150Y56109419D01*
X22560326Y56104203D01*
X22539091Y56101053D01*
X22517650Y56100000D01*
X22005150Y56100000D01*
X21983709Y56101053D01*
X21962474Y56104203D01*
X21941650Y56109419D01*
X21921438Y56116651D01*
X21902032Y56125830D01*
X21883619Y56136866D01*
X21866376Y56149654D01*
X21850470Y56164070D01*
X21836054Y56179976D01*
X21823266Y56197219D01*
X21812230Y56215632D01*
X21803051Y56235038D01*
X21795819Y56255250D01*
X21790603Y56276074D01*
X21787453Y56297309D01*
X21786400Y56318750D01*
X21786400Y56756250D01*
X21787453Y56777691D01*
X21790603Y56798926D01*
X21795819Y56819750D01*
X21803051Y56839962D01*
X21812230Y56859368D01*
X21823266Y56877781D01*
X21836054Y56895024D01*
X21850470Y56910930D01*
X21866376Y56925346D01*
X21883619Y56938134D01*
X21902032Y56949170D01*
X21921438Y56958349D01*
X21941650Y56965581D01*
X21962474Y56970797D01*
X21983709Y56973947D01*
X22005150Y56975000D01*
X22517650Y56975000D01*
X22539091Y56973947D01*
X22539091Y56973947D01*
G37*
D24*
X22261400Y56537500D03*
G04 #@! TD*
D23*
G04 #@! TO.C,C5*
G36*
X20507091Y56973947D02*
X20528326Y56970797D01*
X20549150Y56965581D01*
X20569362Y56958349D01*
X20588768Y56949170D01*
X20607181Y56938134D01*
X20624424Y56925346D01*
X20640330Y56910930D01*
X20654746Y56895024D01*
X20667534Y56877781D01*
X20678570Y56859368D01*
X20687749Y56839962D01*
X20694981Y56819750D01*
X20700197Y56798926D01*
X20703347Y56777691D01*
X20704400Y56756250D01*
X20704400Y56318750D01*
X20703347Y56297309D01*
X20700197Y56276074D01*
X20694981Y56255250D01*
X20687749Y56235038D01*
X20678570Y56215632D01*
X20667534Y56197219D01*
X20654746Y56179976D01*
X20640330Y56164070D01*
X20624424Y56149654D01*
X20607181Y56136866D01*
X20588768Y56125830D01*
X20569362Y56116651D01*
X20549150Y56109419D01*
X20528326Y56104203D01*
X20507091Y56101053D01*
X20485650Y56100000D01*
X19973150Y56100000D01*
X19951709Y56101053D01*
X19930474Y56104203D01*
X19909650Y56109419D01*
X19889438Y56116651D01*
X19870032Y56125830D01*
X19851619Y56136866D01*
X19834376Y56149654D01*
X19818470Y56164070D01*
X19804054Y56179976D01*
X19791266Y56197219D01*
X19780230Y56215632D01*
X19771051Y56235038D01*
X19763819Y56255250D01*
X19758603Y56276074D01*
X19755453Y56297309D01*
X19754400Y56318750D01*
X19754400Y56756250D01*
X19755453Y56777691D01*
X19758603Y56798926D01*
X19763819Y56819750D01*
X19771051Y56839962D01*
X19780230Y56859368D01*
X19791266Y56877781D01*
X19804054Y56895024D01*
X19818470Y56910930D01*
X19834376Y56925346D01*
X19851619Y56938134D01*
X19870032Y56949170D01*
X19889438Y56958349D01*
X19909650Y56965581D01*
X19930474Y56970797D01*
X19951709Y56973947D01*
X19973150Y56975000D01*
X20485650Y56975000D01*
X20507091Y56973947D01*
X20507091Y56973947D01*
G37*
D24*
X20229400Y56537500D03*
D23*
G36*
X20507091Y55398947D02*
X20528326Y55395797D01*
X20549150Y55390581D01*
X20569362Y55383349D01*
X20588768Y55374170D01*
X20607181Y55363134D01*
X20624424Y55350346D01*
X20640330Y55335930D01*
X20654746Y55320024D01*
X20667534Y55302781D01*
X20678570Y55284368D01*
X20687749Y55264962D01*
X20694981Y55244750D01*
X20700197Y55223926D01*
X20703347Y55202691D01*
X20704400Y55181250D01*
X20704400Y54743750D01*
X20703347Y54722309D01*
X20700197Y54701074D01*
X20694981Y54680250D01*
X20687749Y54660038D01*
X20678570Y54640632D01*
X20667534Y54622219D01*
X20654746Y54604976D01*
X20640330Y54589070D01*
X20624424Y54574654D01*
X20607181Y54561866D01*
X20588768Y54550830D01*
X20569362Y54541651D01*
X20549150Y54534419D01*
X20528326Y54529203D01*
X20507091Y54526053D01*
X20485650Y54525000D01*
X19973150Y54525000D01*
X19951709Y54526053D01*
X19930474Y54529203D01*
X19909650Y54534419D01*
X19889438Y54541651D01*
X19870032Y54550830D01*
X19851619Y54561866D01*
X19834376Y54574654D01*
X19818470Y54589070D01*
X19804054Y54604976D01*
X19791266Y54622219D01*
X19780230Y54640632D01*
X19771051Y54660038D01*
X19763819Y54680250D01*
X19758603Y54701074D01*
X19755453Y54722309D01*
X19754400Y54743750D01*
X19754400Y55181250D01*
X19755453Y55202691D01*
X19758603Y55223926D01*
X19763819Y55244750D01*
X19771051Y55264962D01*
X19780230Y55284368D01*
X19791266Y55302781D01*
X19804054Y55320024D01*
X19818470Y55335930D01*
X19834376Y55350346D01*
X19851619Y55363134D01*
X19870032Y55374170D01*
X19889438Y55383349D01*
X19909650Y55390581D01*
X19930474Y55395797D01*
X19951709Y55398947D01*
X19973150Y55400000D01*
X20485650Y55400000D01*
X20507091Y55398947D01*
X20507091Y55398947D01*
G37*
D24*
X20229400Y54962500D03*
G04 #@! TD*
D23*
G04 #@! TO.C,C6*
G36*
X41791451Y52943227D02*
X41812686Y52940077D01*
X41833510Y52934861D01*
X41853722Y52927629D01*
X41873128Y52918450D01*
X41891541Y52907414D01*
X41908784Y52894626D01*
X41924690Y52880210D01*
X41939106Y52864304D01*
X41951894Y52847061D01*
X41962930Y52828648D01*
X41972109Y52809242D01*
X41979341Y52789030D01*
X41984557Y52768206D01*
X41987707Y52746971D01*
X41988760Y52725530D01*
X41988760Y52288030D01*
X41987707Y52266589D01*
X41984557Y52245354D01*
X41979341Y52224530D01*
X41972109Y52204318D01*
X41962930Y52184912D01*
X41951894Y52166499D01*
X41939106Y52149256D01*
X41924690Y52133350D01*
X41908784Y52118934D01*
X41891541Y52106146D01*
X41873128Y52095110D01*
X41853722Y52085931D01*
X41833510Y52078699D01*
X41812686Y52073483D01*
X41791451Y52070333D01*
X41770010Y52069280D01*
X41257510Y52069280D01*
X41236069Y52070333D01*
X41214834Y52073483D01*
X41194010Y52078699D01*
X41173798Y52085931D01*
X41154392Y52095110D01*
X41135979Y52106146D01*
X41118736Y52118934D01*
X41102830Y52133350D01*
X41088414Y52149256D01*
X41075626Y52166499D01*
X41064590Y52184912D01*
X41055411Y52204318D01*
X41048179Y52224530D01*
X41042963Y52245354D01*
X41039813Y52266589D01*
X41038760Y52288030D01*
X41038760Y52725530D01*
X41039813Y52746971D01*
X41042963Y52768206D01*
X41048179Y52789030D01*
X41055411Y52809242D01*
X41064590Y52828648D01*
X41075626Y52847061D01*
X41088414Y52864304D01*
X41102830Y52880210D01*
X41118736Y52894626D01*
X41135979Y52907414D01*
X41154392Y52918450D01*
X41173798Y52927629D01*
X41194010Y52934861D01*
X41214834Y52940077D01*
X41236069Y52943227D01*
X41257510Y52944280D01*
X41770010Y52944280D01*
X41791451Y52943227D01*
X41791451Y52943227D01*
G37*
D24*
X41513760Y52506780D03*
D23*
G36*
X41791451Y54518227D02*
X41812686Y54515077D01*
X41833510Y54509861D01*
X41853722Y54502629D01*
X41873128Y54493450D01*
X41891541Y54482414D01*
X41908784Y54469626D01*
X41924690Y54455210D01*
X41939106Y54439304D01*
X41951894Y54422061D01*
X41962930Y54403648D01*
X41972109Y54384242D01*
X41979341Y54364030D01*
X41984557Y54343206D01*
X41987707Y54321971D01*
X41988760Y54300530D01*
X41988760Y53863030D01*
X41987707Y53841589D01*
X41984557Y53820354D01*
X41979341Y53799530D01*
X41972109Y53779318D01*
X41962930Y53759912D01*
X41951894Y53741499D01*
X41939106Y53724256D01*
X41924690Y53708350D01*
X41908784Y53693934D01*
X41891541Y53681146D01*
X41873128Y53670110D01*
X41853722Y53660931D01*
X41833510Y53653699D01*
X41812686Y53648483D01*
X41791451Y53645333D01*
X41770010Y53644280D01*
X41257510Y53644280D01*
X41236069Y53645333D01*
X41214834Y53648483D01*
X41194010Y53653699D01*
X41173798Y53660931D01*
X41154392Y53670110D01*
X41135979Y53681146D01*
X41118736Y53693934D01*
X41102830Y53708350D01*
X41088414Y53724256D01*
X41075626Y53741499D01*
X41064590Y53759912D01*
X41055411Y53779318D01*
X41048179Y53799530D01*
X41042963Y53820354D01*
X41039813Y53841589D01*
X41038760Y53863030D01*
X41038760Y54300530D01*
X41039813Y54321971D01*
X41042963Y54343206D01*
X41048179Y54364030D01*
X41055411Y54384242D01*
X41064590Y54403648D01*
X41075626Y54422061D01*
X41088414Y54439304D01*
X41102830Y54455210D01*
X41118736Y54469626D01*
X41135979Y54482414D01*
X41154392Y54493450D01*
X41173798Y54502629D01*
X41194010Y54509861D01*
X41214834Y54515077D01*
X41236069Y54518227D01*
X41257510Y54519280D01*
X41770010Y54519280D01*
X41791451Y54518227D01*
X41791451Y54518227D01*
G37*
D24*
X41513760Y54081780D03*
G04 #@! TD*
D23*
G04 #@! TO.C,C7*
G36*
X39609091Y54509947D02*
X39630326Y54506797D01*
X39651150Y54501581D01*
X39671362Y54494349D01*
X39690768Y54485170D01*
X39709181Y54474134D01*
X39726424Y54461346D01*
X39742330Y54446930D01*
X39756746Y54431024D01*
X39769534Y54413781D01*
X39780570Y54395368D01*
X39789749Y54375962D01*
X39796981Y54355750D01*
X39802197Y54334926D01*
X39805347Y54313691D01*
X39806400Y54292250D01*
X39806400Y53854750D01*
X39805347Y53833309D01*
X39802197Y53812074D01*
X39796981Y53791250D01*
X39789749Y53771038D01*
X39780570Y53751632D01*
X39769534Y53733219D01*
X39756746Y53715976D01*
X39742330Y53700070D01*
X39726424Y53685654D01*
X39709181Y53672866D01*
X39690768Y53661830D01*
X39671362Y53652651D01*
X39651150Y53645419D01*
X39630326Y53640203D01*
X39609091Y53637053D01*
X39587650Y53636000D01*
X39075150Y53636000D01*
X39053709Y53637053D01*
X39032474Y53640203D01*
X39011650Y53645419D01*
X38991438Y53652651D01*
X38972032Y53661830D01*
X38953619Y53672866D01*
X38936376Y53685654D01*
X38920470Y53700070D01*
X38906054Y53715976D01*
X38893266Y53733219D01*
X38882230Y53751632D01*
X38873051Y53771038D01*
X38865819Y53791250D01*
X38860603Y53812074D01*
X38857453Y53833309D01*
X38856400Y53854750D01*
X38856400Y54292250D01*
X38857453Y54313691D01*
X38860603Y54334926D01*
X38865819Y54355750D01*
X38873051Y54375962D01*
X38882230Y54395368D01*
X38893266Y54413781D01*
X38906054Y54431024D01*
X38920470Y54446930D01*
X38936376Y54461346D01*
X38953619Y54474134D01*
X38972032Y54485170D01*
X38991438Y54494349D01*
X39011650Y54501581D01*
X39032474Y54506797D01*
X39053709Y54509947D01*
X39075150Y54511000D01*
X39587650Y54511000D01*
X39609091Y54509947D01*
X39609091Y54509947D01*
G37*
D24*
X39331400Y54073500D03*
D23*
G36*
X39609091Y52934947D02*
X39630326Y52931797D01*
X39651150Y52926581D01*
X39671362Y52919349D01*
X39690768Y52910170D01*
X39709181Y52899134D01*
X39726424Y52886346D01*
X39742330Y52871930D01*
X39756746Y52856024D01*
X39769534Y52838781D01*
X39780570Y52820368D01*
X39789749Y52800962D01*
X39796981Y52780750D01*
X39802197Y52759926D01*
X39805347Y52738691D01*
X39806400Y52717250D01*
X39806400Y52279750D01*
X39805347Y52258309D01*
X39802197Y52237074D01*
X39796981Y52216250D01*
X39789749Y52196038D01*
X39780570Y52176632D01*
X39769534Y52158219D01*
X39756746Y52140976D01*
X39742330Y52125070D01*
X39726424Y52110654D01*
X39709181Y52097866D01*
X39690768Y52086830D01*
X39671362Y52077651D01*
X39651150Y52070419D01*
X39630326Y52065203D01*
X39609091Y52062053D01*
X39587650Y52061000D01*
X39075150Y52061000D01*
X39053709Y52062053D01*
X39032474Y52065203D01*
X39011650Y52070419D01*
X38991438Y52077651D01*
X38972032Y52086830D01*
X38953619Y52097866D01*
X38936376Y52110654D01*
X38920470Y52125070D01*
X38906054Y52140976D01*
X38893266Y52158219D01*
X38882230Y52176632D01*
X38873051Y52196038D01*
X38865819Y52216250D01*
X38860603Y52237074D01*
X38857453Y52258309D01*
X38856400Y52279750D01*
X38856400Y52717250D01*
X38857453Y52738691D01*
X38860603Y52759926D01*
X38865819Y52780750D01*
X38873051Y52800962D01*
X38882230Y52820368D01*
X38893266Y52838781D01*
X38906054Y52856024D01*
X38920470Y52871930D01*
X38936376Y52886346D01*
X38953619Y52899134D01*
X38972032Y52910170D01*
X38991438Y52919349D01*
X39011650Y52926581D01*
X39032474Y52931797D01*
X39053709Y52934947D01*
X39075150Y52936000D01*
X39587650Y52936000D01*
X39609091Y52934947D01*
X39609091Y52934947D01*
G37*
D24*
X39331400Y52498500D03*
G04 #@! TD*
D23*
G04 #@! TO.C,C8*
G36*
X26294091Y47463347D02*
X26315326Y47460197D01*
X26336150Y47454981D01*
X26356362Y47447749D01*
X26375768Y47438570D01*
X26394181Y47427534D01*
X26411424Y47414746D01*
X26427330Y47400330D01*
X26441746Y47384424D01*
X26454534Y47367181D01*
X26465570Y47348768D01*
X26474749Y47329362D01*
X26481981Y47309150D01*
X26487197Y47288326D01*
X26490347Y47267091D01*
X26491400Y47245650D01*
X26491400Y46733150D01*
X26490347Y46711709D01*
X26487197Y46690474D01*
X26481981Y46669650D01*
X26474749Y46649438D01*
X26465570Y46630032D01*
X26454534Y46611619D01*
X26441746Y46594376D01*
X26427330Y46578470D01*
X26411424Y46564054D01*
X26394181Y46551266D01*
X26375768Y46540230D01*
X26356362Y46531051D01*
X26336150Y46523819D01*
X26315326Y46518603D01*
X26294091Y46515453D01*
X26272650Y46514400D01*
X25835150Y46514400D01*
X25813709Y46515453D01*
X25792474Y46518603D01*
X25771650Y46523819D01*
X25751438Y46531051D01*
X25732032Y46540230D01*
X25713619Y46551266D01*
X25696376Y46564054D01*
X25680470Y46578470D01*
X25666054Y46594376D01*
X25653266Y46611619D01*
X25642230Y46630032D01*
X25633051Y46649438D01*
X25625819Y46669650D01*
X25620603Y46690474D01*
X25617453Y46711709D01*
X25616400Y46733150D01*
X25616400Y47245650D01*
X25617453Y47267091D01*
X25620603Y47288326D01*
X25625819Y47309150D01*
X25633051Y47329362D01*
X25642230Y47348768D01*
X25653266Y47367181D01*
X25666054Y47384424D01*
X25680470Y47400330D01*
X25696376Y47414746D01*
X25713619Y47427534D01*
X25732032Y47438570D01*
X25751438Y47447749D01*
X25771650Y47454981D01*
X25792474Y47460197D01*
X25813709Y47463347D01*
X25835150Y47464400D01*
X26272650Y47464400D01*
X26294091Y47463347D01*
X26294091Y47463347D01*
G37*
D24*
X26053900Y46989400D03*
D23*
G36*
X27869091Y47463347D02*
X27890326Y47460197D01*
X27911150Y47454981D01*
X27931362Y47447749D01*
X27950768Y47438570D01*
X27969181Y47427534D01*
X27986424Y47414746D01*
X28002330Y47400330D01*
X28016746Y47384424D01*
X28029534Y47367181D01*
X28040570Y47348768D01*
X28049749Y47329362D01*
X28056981Y47309150D01*
X28062197Y47288326D01*
X28065347Y47267091D01*
X28066400Y47245650D01*
X28066400Y46733150D01*
X28065347Y46711709D01*
X28062197Y46690474D01*
X28056981Y46669650D01*
X28049749Y46649438D01*
X28040570Y46630032D01*
X28029534Y46611619D01*
X28016746Y46594376D01*
X28002330Y46578470D01*
X27986424Y46564054D01*
X27969181Y46551266D01*
X27950768Y46540230D01*
X27931362Y46531051D01*
X27911150Y46523819D01*
X27890326Y46518603D01*
X27869091Y46515453D01*
X27847650Y46514400D01*
X27410150Y46514400D01*
X27388709Y46515453D01*
X27367474Y46518603D01*
X27346650Y46523819D01*
X27326438Y46531051D01*
X27307032Y46540230D01*
X27288619Y46551266D01*
X27271376Y46564054D01*
X27255470Y46578470D01*
X27241054Y46594376D01*
X27228266Y46611619D01*
X27217230Y46630032D01*
X27208051Y46649438D01*
X27200819Y46669650D01*
X27195603Y46690474D01*
X27192453Y46711709D01*
X27191400Y46733150D01*
X27191400Y47245650D01*
X27192453Y47267091D01*
X27195603Y47288326D01*
X27200819Y47309150D01*
X27208051Y47329362D01*
X27217230Y47348768D01*
X27228266Y47367181D01*
X27241054Y47384424D01*
X27255470Y47400330D01*
X27271376Y47414746D01*
X27288619Y47427534D01*
X27307032Y47438570D01*
X27326438Y47447749D01*
X27346650Y47454981D01*
X27367474Y47460197D01*
X27388709Y47463347D01*
X27410150Y47464400D01*
X27847650Y47464400D01*
X27869091Y47463347D01*
X27869091Y47463347D01*
G37*
D24*
X27628900Y46989400D03*
G04 #@! TD*
D23*
G04 #@! TO.C,C9*
G36*
X42959091Y51093947D02*
X42980326Y51090797D01*
X43001150Y51085581D01*
X43021362Y51078349D01*
X43040768Y51069170D01*
X43059181Y51058134D01*
X43076424Y51045346D01*
X43092330Y51030930D01*
X43106746Y51015024D01*
X43119534Y50997781D01*
X43130570Y50979368D01*
X43139749Y50959962D01*
X43146981Y50939750D01*
X43152197Y50918926D01*
X43155347Y50897691D01*
X43156400Y50876250D01*
X43156400Y50363750D01*
X43155347Y50342309D01*
X43152197Y50321074D01*
X43146981Y50300250D01*
X43139749Y50280038D01*
X43130570Y50260632D01*
X43119534Y50242219D01*
X43106746Y50224976D01*
X43092330Y50209070D01*
X43076424Y50194654D01*
X43059181Y50181866D01*
X43040768Y50170830D01*
X43021362Y50161651D01*
X43001150Y50154419D01*
X42980326Y50149203D01*
X42959091Y50146053D01*
X42937650Y50145000D01*
X42500150Y50145000D01*
X42478709Y50146053D01*
X42457474Y50149203D01*
X42436650Y50154419D01*
X42416438Y50161651D01*
X42397032Y50170830D01*
X42378619Y50181866D01*
X42361376Y50194654D01*
X42345470Y50209070D01*
X42331054Y50224976D01*
X42318266Y50242219D01*
X42307230Y50260632D01*
X42298051Y50280038D01*
X42290819Y50300250D01*
X42285603Y50321074D01*
X42282453Y50342309D01*
X42281400Y50363750D01*
X42281400Y50876250D01*
X42282453Y50897691D01*
X42285603Y50918926D01*
X42290819Y50939750D01*
X42298051Y50959962D01*
X42307230Y50979368D01*
X42318266Y50997781D01*
X42331054Y51015024D01*
X42345470Y51030930D01*
X42361376Y51045346D01*
X42378619Y51058134D01*
X42397032Y51069170D01*
X42416438Y51078349D01*
X42436650Y51085581D01*
X42457474Y51090797D01*
X42478709Y51093947D01*
X42500150Y51095000D01*
X42937650Y51095000D01*
X42959091Y51093947D01*
X42959091Y51093947D01*
G37*
D24*
X42718900Y50620000D03*
D23*
G36*
X41384091Y51093947D02*
X41405326Y51090797D01*
X41426150Y51085581D01*
X41446362Y51078349D01*
X41465768Y51069170D01*
X41484181Y51058134D01*
X41501424Y51045346D01*
X41517330Y51030930D01*
X41531746Y51015024D01*
X41544534Y50997781D01*
X41555570Y50979368D01*
X41564749Y50959962D01*
X41571981Y50939750D01*
X41577197Y50918926D01*
X41580347Y50897691D01*
X41581400Y50876250D01*
X41581400Y50363750D01*
X41580347Y50342309D01*
X41577197Y50321074D01*
X41571981Y50300250D01*
X41564749Y50280038D01*
X41555570Y50260632D01*
X41544534Y50242219D01*
X41531746Y50224976D01*
X41517330Y50209070D01*
X41501424Y50194654D01*
X41484181Y50181866D01*
X41465768Y50170830D01*
X41446362Y50161651D01*
X41426150Y50154419D01*
X41405326Y50149203D01*
X41384091Y50146053D01*
X41362650Y50145000D01*
X40925150Y50145000D01*
X40903709Y50146053D01*
X40882474Y50149203D01*
X40861650Y50154419D01*
X40841438Y50161651D01*
X40822032Y50170830D01*
X40803619Y50181866D01*
X40786376Y50194654D01*
X40770470Y50209070D01*
X40756054Y50224976D01*
X40743266Y50242219D01*
X40732230Y50260632D01*
X40723051Y50280038D01*
X40715819Y50300250D01*
X40710603Y50321074D01*
X40707453Y50342309D01*
X40706400Y50363750D01*
X40706400Y50876250D01*
X40707453Y50897691D01*
X40710603Y50918926D01*
X40715819Y50939750D01*
X40723051Y50959962D01*
X40732230Y50979368D01*
X40743266Y50997781D01*
X40756054Y51015024D01*
X40770470Y51030930D01*
X40786376Y51045346D01*
X40803619Y51058134D01*
X40822032Y51069170D01*
X40841438Y51078349D01*
X40861650Y51085581D01*
X40882474Y51090797D01*
X40903709Y51093947D01*
X40925150Y51095000D01*
X41362650Y51095000D01*
X41384091Y51093947D01*
X41384091Y51093947D01*
G37*
D24*
X41143900Y50620000D03*
G04 #@! TD*
D23*
G04 #@! TO.C,C10*
G36*
X19359091Y64393947D02*
X19380326Y64390797D01*
X19401150Y64385581D01*
X19421362Y64378349D01*
X19440768Y64369170D01*
X19459181Y64358134D01*
X19476424Y64345346D01*
X19492330Y64330930D01*
X19506746Y64315024D01*
X19519534Y64297781D01*
X19530570Y64279368D01*
X19539749Y64259962D01*
X19546981Y64239750D01*
X19552197Y64218926D01*
X19555347Y64197691D01*
X19556400Y64176250D01*
X19556400Y63663750D01*
X19555347Y63642309D01*
X19552197Y63621074D01*
X19546981Y63600250D01*
X19539749Y63580038D01*
X19530570Y63560632D01*
X19519534Y63542219D01*
X19506746Y63524976D01*
X19492330Y63509070D01*
X19476424Y63494654D01*
X19459181Y63481866D01*
X19440768Y63470830D01*
X19421362Y63461651D01*
X19401150Y63454419D01*
X19380326Y63449203D01*
X19359091Y63446053D01*
X19337650Y63445000D01*
X18900150Y63445000D01*
X18878709Y63446053D01*
X18857474Y63449203D01*
X18836650Y63454419D01*
X18816438Y63461651D01*
X18797032Y63470830D01*
X18778619Y63481866D01*
X18761376Y63494654D01*
X18745470Y63509070D01*
X18731054Y63524976D01*
X18718266Y63542219D01*
X18707230Y63560632D01*
X18698051Y63580038D01*
X18690819Y63600250D01*
X18685603Y63621074D01*
X18682453Y63642309D01*
X18681400Y63663750D01*
X18681400Y64176250D01*
X18682453Y64197691D01*
X18685603Y64218926D01*
X18690819Y64239750D01*
X18698051Y64259962D01*
X18707230Y64279368D01*
X18718266Y64297781D01*
X18731054Y64315024D01*
X18745470Y64330930D01*
X18761376Y64345346D01*
X18778619Y64358134D01*
X18797032Y64369170D01*
X18816438Y64378349D01*
X18836650Y64385581D01*
X18857474Y64390797D01*
X18878709Y64393947D01*
X18900150Y64395000D01*
X19337650Y64395000D01*
X19359091Y64393947D01*
X19359091Y64393947D01*
G37*
D24*
X19118900Y63920000D03*
D23*
G36*
X17784091Y64393947D02*
X17805326Y64390797D01*
X17826150Y64385581D01*
X17846362Y64378349D01*
X17865768Y64369170D01*
X17884181Y64358134D01*
X17901424Y64345346D01*
X17917330Y64330930D01*
X17931746Y64315024D01*
X17944534Y64297781D01*
X17955570Y64279368D01*
X17964749Y64259962D01*
X17971981Y64239750D01*
X17977197Y64218926D01*
X17980347Y64197691D01*
X17981400Y64176250D01*
X17981400Y63663750D01*
X17980347Y63642309D01*
X17977197Y63621074D01*
X17971981Y63600250D01*
X17964749Y63580038D01*
X17955570Y63560632D01*
X17944534Y63542219D01*
X17931746Y63524976D01*
X17917330Y63509070D01*
X17901424Y63494654D01*
X17884181Y63481866D01*
X17865768Y63470830D01*
X17846362Y63461651D01*
X17826150Y63454419D01*
X17805326Y63449203D01*
X17784091Y63446053D01*
X17762650Y63445000D01*
X17325150Y63445000D01*
X17303709Y63446053D01*
X17282474Y63449203D01*
X17261650Y63454419D01*
X17241438Y63461651D01*
X17222032Y63470830D01*
X17203619Y63481866D01*
X17186376Y63494654D01*
X17170470Y63509070D01*
X17156054Y63524976D01*
X17143266Y63542219D01*
X17132230Y63560632D01*
X17123051Y63580038D01*
X17115819Y63600250D01*
X17110603Y63621074D01*
X17107453Y63642309D01*
X17106400Y63663750D01*
X17106400Y64176250D01*
X17107453Y64197691D01*
X17110603Y64218926D01*
X17115819Y64239750D01*
X17123051Y64259962D01*
X17132230Y64279368D01*
X17143266Y64297781D01*
X17156054Y64315024D01*
X17170470Y64330930D01*
X17186376Y64345346D01*
X17203619Y64358134D01*
X17222032Y64369170D01*
X17241438Y64378349D01*
X17261650Y64385581D01*
X17282474Y64390797D01*
X17303709Y64393947D01*
X17325150Y64395000D01*
X17762650Y64395000D01*
X17784091Y64393947D01*
X17784091Y64393947D01*
G37*
D24*
X17543900Y63920000D03*
G04 #@! TD*
D23*
G04 #@! TO.C,C11*
G36*
X16025691Y59618547D02*
X16046926Y59615397D01*
X16067750Y59610181D01*
X16087962Y59602949D01*
X16107368Y59593770D01*
X16125781Y59582734D01*
X16143024Y59569946D01*
X16158930Y59555530D01*
X16173346Y59539624D01*
X16186134Y59522381D01*
X16197170Y59503968D01*
X16206349Y59484562D01*
X16213581Y59464350D01*
X16218797Y59443526D01*
X16221947Y59422291D01*
X16223000Y59400850D01*
X16223000Y58963350D01*
X16221947Y58941909D01*
X16218797Y58920674D01*
X16213581Y58899850D01*
X16206349Y58879638D01*
X16197170Y58860232D01*
X16186134Y58841819D01*
X16173346Y58824576D01*
X16158930Y58808670D01*
X16143024Y58794254D01*
X16125781Y58781466D01*
X16107368Y58770430D01*
X16087962Y58761251D01*
X16067750Y58754019D01*
X16046926Y58748803D01*
X16025691Y58745653D01*
X16004250Y58744600D01*
X15491750Y58744600D01*
X15470309Y58745653D01*
X15449074Y58748803D01*
X15428250Y58754019D01*
X15408038Y58761251D01*
X15388632Y58770430D01*
X15370219Y58781466D01*
X15352976Y58794254D01*
X15337070Y58808670D01*
X15322654Y58824576D01*
X15309866Y58841819D01*
X15298830Y58860232D01*
X15289651Y58879638D01*
X15282419Y58899850D01*
X15277203Y58920674D01*
X15274053Y58941909D01*
X15273000Y58963350D01*
X15273000Y59400850D01*
X15274053Y59422291D01*
X15277203Y59443526D01*
X15282419Y59464350D01*
X15289651Y59484562D01*
X15298830Y59503968D01*
X15309866Y59522381D01*
X15322654Y59539624D01*
X15337070Y59555530D01*
X15352976Y59569946D01*
X15370219Y59582734D01*
X15388632Y59593770D01*
X15408038Y59602949D01*
X15428250Y59610181D01*
X15449074Y59615397D01*
X15470309Y59618547D01*
X15491750Y59619600D01*
X16004250Y59619600D01*
X16025691Y59618547D01*
X16025691Y59618547D01*
G37*
D24*
X15748000Y59182100D03*
D23*
G36*
X16025691Y58043547D02*
X16046926Y58040397D01*
X16067750Y58035181D01*
X16087962Y58027949D01*
X16107368Y58018770D01*
X16125781Y58007734D01*
X16143024Y57994946D01*
X16158930Y57980530D01*
X16173346Y57964624D01*
X16186134Y57947381D01*
X16197170Y57928968D01*
X16206349Y57909562D01*
X16213581Y57889350D01*
X16218797Y57868526D01*
X16221947Y57847291D01*
X16223000Y57825850D01*
X16223000Y57388350D01*
X16221947Y57366909D01*
X16218797Y57345674D01*
X16213581Y57324850D01*
X16206349Y57304638D01*
X16197170Y57285232D01*
X16186134Y57266819D01*
X16173346Y57249576D01*
X16158930Y57233670D01*
X16143024Y57219254D01*
X16125781Y57206466D01*
X16107368Y57195430D01*
X16087962Y57186251D01*
X16067750Y57179019D01*
X16046926Y57173803D01*
X16025691Y57170653D01*
X16004250Y57169600D01*
X15491750Y57169600D01*
X15470309Y57170653D01*
X15449074Y57173803D01*
X15428250Y57179019D01*
X15408038Y57186251D01*
X15388632Y57195430D01*
X15370219Y57206466D01*
X15352976Y57219254D01*
X15337070Y57233670D01*
X15322654Y57249576D01*
X15309866Y57266819D01*
X15298830Y57285232D01*
X15289651Y57304638D01*
X15282419Y57324850D01*
X15277203Y57345674D01*
X15274053Y57366909D01*
X15273000Y57388350D01*
X15273000Y57825850D01*
X15274053Y57847291D01*
X15277203Y57868526D01*
X15282419Y57889350D01*
X15289651Y57909562D01*
X15298830Y57928968D01*
X15309866Y57947381D01*
X15322654Y57964624D01*
X15337070Y57980530D01*
X15352976Y57994946D01*
X15370219Y58007734D01*
X15388632Y58018770D01*
X15408038Y58027949D01*
X15428250Y58035181D01*
X15449074Y58040397D01*
X15470309Y58043547D01*
X15491750Y58044600D01*
X16004250Y58044600D01*
X16025691Y58043547D01*
X16025691Y58043547D01*
G37*
D24*
X15748000Y57607100D03*
G04 #@! TD*
D23*
G04 #@! TO.C,RC1*
G36*
X28688091Y43653947D02*
X28709326Y43650797D01*
X28730150Y43645581D01*
X28750362Y43638349D01*
X28769768Y43629170D01*
X28788181Y43618134D01*
X28805424Y43605346D01*
X28821330Y43590930D01*
X28835746Y43575024D01*
X28848534Y43557781D01*
X28859570Y43539368D01*
X28868749Y43519962D01*
X28875981Y43499750D01*
X28881197Y43478926D01*
X28884347Y43457691D01*
X28885400Y43436250D01*
X28885400Y42923750D01*
X28884347Y42902309D01*
X28881197Y42881074D01*
X28875981Y42860250D01*
X28868749Y42840038D01*
X28859570Y42820632D01*
X28848534Y42802219D01*
X28835746Y42784976D01*
X28821330Y42769070D01*
X28805424Y42754654D01*
X28788181Y42741866D01*
X28769768Y42730830D01*
X28750362Y42721651D01*
X28730150Y42714419D01*
X28709326Y42709203D01*
X28688091Y42706053D01*
X28666650Y42705000D01*
X28229150Y42705000D01*
X28207709Y42706053D01*
X28186474Y42709203D01*
X28165650Y42714419D01*
X28145438Y42721651D01*
X28126032Y42730830D01*
X28107619Y42741866D01*
X28090376Y42754654D01*
X28074470Y42769070D01*
X28060054Y42784976D01*
X28047266Y42802219D01*
X28036230Y42820632D01*
X28027051Y42840038D01*
X28019819Y42860250D01*
X28014603Y42881074D01*
X28011453Y42902309D01*
X28010400Y42923750D01*
X28010400Y43436250D01*
X28011453Y43457691D01*
X28014603Y43478926D01*
X28019819Y43499750D01*
X28027051Y43519962D01*
X28036230Y43539368D01*
X28047266Y43557781D01*
X28060054Y43575024D01*
X28074470Y43590930D01*
X28090376Y43605346D01*
X28107619Y43618134D01*
X28126032Y43629170D01*
X28145438Y43638349D01*
X28165650Y43645581D01*
X28186474Y43650797D01*
X28207709Y43653947D01*
X28229150Y43655000D01*
X28666650Y43655000D01*
X28688091Y43653947D01*
X28688091Y43653947D01*
G37*
D24*
X28447900Y43180000D03*
D23*
G36*
X30263091Y43653947D02*
X30284326Y43650797D01*
X30305150Y43645581D01*
X30325362Y43638349D01*
X30344768Y43629170D01*
X30363181Y43618134D01*
X30380424Y43605346D01*
X30396330Y43590930D01*
X30410746Y43575024D01*
X30423534Y43557781D01*
X30434570Y43539368D01*
X30443749Y43519962D01*
X30450981Y43499750D01*
X30456197Y43478926D01*
X30459347Y43457691D01*
X30460400Y43436250D01*
X30460400Y42923750D01*
X30459347Y42902309D01*
X30456197Y42881074D01*
X30450981Y42860250D01*
X30443749Y42840038D01*
X30434570Y42820632D01*
X30423534Y42802219D01*
X30410746Y42784976D01*
X30396330Y42769070D01*
X30380424Y42754654D01*
X30363181Y42741866D01*
X30344768Y42730830D01*
X30325362Y42721651D01*
X30305150Y42714419D01*
X30284326Y42709203D01*
X30263091Y42706053D01*
X30241650Y42705000D01*
X29804150Y42705000D01*
X29782709Y42706053D01*
X29761474Y42709203D01*
X29740650Y42714419D01*
X29720438Y42721651D01*
X29701032Y42730830D01*
X29682619Y42741866D01*
X29665376Y42754654D01*
X29649470Y42769070D01*
X29635054Y42784976D01*
X29622266Y42802219D01*
X29611230Y42820632D01*
X29602051Y42840038D01*
X29594819Y42860250D01*
X29589603Y42881074D01*
X29586453Y42902309D01*
X29585400Y42923750D01*
X29585400Y43436250D01*
X29586453Y43457691D01*
X29589603Y43478926D01*
X29594819Y43499750D01*
X29602051Y43519962D01*
X29611230Y43539368D01*
X29622266Y43557781D01*
X29635054Y43575024D01*
X29649470Y43590930D01*
X29665376Y43605346D01*
X29682619Y43618134D01*
X29701032Y43629170D01*
X29720438Y43638349D01*
X29740650Y43645581D01*
X29761474Y43650797D01*
X29782709Y43653947D01*
X29804150Y43655000D01*
X30241650Y43655000D01*
X30263091Y43653947D01*
X30263091Y43653947D01*
G37*
D24*
X30022900Y43180000D03*
G04 #@! TD*
D26*
G04 #@! TO.C,U3*
X18760200Y81137800D03*
X18110200Y81137800D03*
X17460200Y81137800D03*
X18760200Y79237800D03*
X18110200Y79237800D03*
X17460200Y79237800D03*
G04 #@! TD*
D27*
G04 #@! TO.C,U4*
X23451400Y74630000D03*
X23451400Y75930000D03*
X23451400Y75280000D03*
X25351400Y75930000D03*
X25351400Y74630000D03*
G04 #@! TD*
M02*
