G04 #@! TF.GenerationSoftware,KiCad,Pcbnew,5.0.0-fee4fd1~65~ubuntu16.04.1*
G04 #@! TF.CreationDate,2018-08-30T21:22:59-04:00*
G04 #@! TF.ProjectId,co60,636F36302E6B696361645F7063620000,rev?*
G04 #@! TF.SameCoordinates,PX4b4f718PY8c7ecc0*
G04 #@! TF.FileFunction,Soldermask,Top*
G04 #@! TF.FilePolarity,Negative*
%FSLAX46Y46*%
G04 Gerber Fmt 4.6, Leading zero omitted, Abs format (unit mm)*
G04 Created by KiCad (PCBNEW 5.0.0-fee4fd1~65~ubuntu16.04.1) date Thu Aug 30 21:22:59 2018*
%MOMM*%
%LPD*%
G01*
G04 APERTURE LIST*
%ADD10C,2.501900*%
%ADD11C,1.400000*%
%ADD12C,7.400240*%
%ADD13C,7.401300*%
%ADD14C,4.387800*%
%ADD15C,2.150000*%
%ADD16C,3.448000*%
%ADD17R,2.100000X2.100000*%
%ADD18O,2.100000X2.100000*%
%ADD19C,1.050000*%
%ADD20O,1.400000X2.500000*%
%ADD21O,1.400000X2.000000*%
G04 APERTURE END LIST*
D10*
G04 #@! TO.C,REF\002A\002A*
X-12350Y35456550D02*
X3787650Y35456550D01*
X3787650Y35456550D02*
G75*
G03X6438600Y38107500I0J2650950D01*
G01*
X6438600Y38107500D02*
G75*
G03X3787650Y40758450I-2650950J0D01*
G01*
X-12350Y40758450D02*
X3787650Y40758450D01*
X281187650Y35456550D02*
X285037650Y35456550D01*
X281187650Y35456550D02*
G75*
G02X278536700Y38107500I0J2650950D01*
G01*
X278536700Y38107500D02*
G75*
G02X281187650Y40758450I2650950J0D01*
G01*
X281187650Y40758450D02*
X284987650Y40758450D01*
G04 #@! TD*
D11*
G04 #@! TO.C,REF\002A\002A*
X279349172Y36269022D03*
X281187650Y35507500D03*
X283229685Y35507500D03*
X283229685Y40707500D03*
X281187650Y40707500D03*
X279349172Y39945978D03*
X278587650Y38107500D03*
X1745615Y35507500D03*
X1745615Y40707500D03*
X5626128Y36269022D03*
X5626128Y39945978D03*
X3787650Y35507500D03*
X3787650Y40707500D03*
X6387650Y38107500D03*
X129387650Y45307500D03*
X126987650Y45307500D03*
X128187650Y45307500D03*
X126987650Y49907500D03*
X129387650Y49907500D03*
X128187650Y49907500D03*
X191687650Y7107500D03*
X189287650Y7107500D03*
X189287650Y11707500D03*
X191687650Y11707500D03*
X190487650Y7107500D03*
X190487650Y11707500D03*
X261237650Y69024500D03*
X258837650Y69007500D03*
X258837650Y64407500D03*
X261237650Y64407500D03*
X260037650Y64407500D03*
X260037650Y69007500D03*
X26813996Y65081154D03*
X23561304Y65081154D03*
X26813996Y68333846D03*
X23561304Y68333846D03*
X25187650Y64407500D03*
X27487650Y66707500D03*
X22887650Y66707500D03*
X25187650Y69007500D03*
D12*
X260037650Y66707500D03*
X190487650Y9407500D03*
X128187650Y47607500D03*
D13*
X25187650Y66707500D03*
G04 #@! TD*
D14*
G04 #@! TO.C,K_ISOENTER1*
X273456400Y56832500D03*
D15*
X273456400Y61912500D03*
X273456400Y51752500D03*
D16*
X280441400Y44894500D03*
X280441400Y68770500D03*
D14*
X265201400Y44894500D03*
X265201400Y68770500D03*
G04 #@! TD*
G04 #@! TO.C,K_SPACE1_2*
X97243900Y9207500D03*
D15*
X92163900Y9207500D03*
X102323900Y9207500D03*
D16*
X85305900Y2222500D03*
X109181900Y2222500D03*
D14*
X85305900Y17462500D03*
X109181900Y17462500D03*
G04 #@! TD*
G04 #@! TO.C,K_SPACE3_1*
X163918900Y9207500D03*
D15*
X158838900Y9207500D03*
X168998900Y9207500D03*
D16*
X151980900Y2222500D03*
X175856900Y2222500D03*
D14*
X151980900Y17462500D03*
X175856900Y17462500D03*
G04 #@! TD*
G04 #@! TO.C,K_CAPS2*
X11518900Y47307500D03*
D15*
X6438900Y47307500D03*
X16598900Y47307500D03*
G04 #@! TD*
D14*
G04 #@! TO.C,K_CAPS1*
X16281400Y47307500D03*
D15*
X11201400Y47307500D03*
X21361400Y47307500D03*
G04 #@! TD*
D14*
G04 #@! TO.C,K_RCTL1*
X273456400Y9207500D03*
D15*
X268376400Y9207500D03*
X278536400Y9207500D03*
G04 #@! TD*
D14*
G04 #@! TO.C,K_RFN1*
X249643900Y9207500D03*
D15*
X244563900Y9207500D03*
X254723900Y9207500D03*
G04 #@! TD*
D14*
G04 #@! TO.C,K_RMOD3*
X223450150Y9207500D03*
D15*
X218370150Y9207500D03*
X228530150Y9207500D03*
G04 #@! TD*
D14*
G04 #@! TO.C,K_SPACE2_5*
X135343900Y9207500D03*
D15*
X130263900Y9207500D03*
X140423900Y9207500D03*
G04 #@! TD*
D14*
G04 #@! TO.C,K_LALT1*
X59143900Y9207500D03*
D15*
X54063900Y9207500D03*
X64223900Y9207500D03*
G04 #@! TD*
D14*
G04 #@! TO.C,K_LGUI1*
X35331400Y9207500D03*
D15*
X30251400Y9207500D03*
X40411400Y9207500D03*
G04 #@! TD*
D14*
G04 #@! TO.C,K_SPACE3_3*
X182968900Y9207500D03*
D15*
X177888900Y9207500D03*
X188048900Y9207500D03*
D16*
X171030900Y2222500D03*
X194906900Y2222500D03*
D14*
X171030900Y17462500D03*
X194906900Y17462500D03*
G04 #@! TD*
G04 #@! TO.C,K_SPACE2_4*
X142487650Y9207500D03*
D15*
X137407650Y9207500D03*
X147567650Y9207500D03*
G04 #@! TD*
D14*
G04 #@! TO.C,K_SPACE1_3*
X102006400Y9207500D03*
D15*
X96926400Y9207500D03*
X107086400Y9207500D03*
D16*
X90068400Y2222500D03*
X113944400Y2222500D03*
D14*
X90068400Y17462500D03*
X113944400Y17462500D03*
G04 #@! TD*
G04 #@! TO.C,K_RCTL3*
X271075150Y9207500D03*
D15*
X265995150Y9207500D03*
X276155150Y9207500D03*
G04 #@! TD*
D14*
G04 #@! TO.C,K_RFN3*
X247262650Y9207500D03*
D15*
X242182650Y9207500D03*
X252342650Y9207500D03*
G04 #@! TD*
D14*
G04 #@! TO.C,K_SPACE2_3*
X142487650Y9207500D03*
D15*
X137407650Y9207500D03*
X147567650Y9207500D03*
D16*
X85337650Y2222500D03*
X199637650Y2222500D03*
D14*
X85337650Y17462500D03*
X199637650Y17462500D03*
G04 #@! TD*
G04 #@! TO.C,K_LALT2*
X61525150Y9207500D03*
D15*
X56445150Y9207500D03*
X66605150Y9207500D03*
G04 #@! TD*
D14*
G04 #@! TO.C,K_LGUI2*
X37712650Y9207500D03*
D15*
X32632650Y9207500D03*
X42792650Y9207500D03*
G04 #@! TD*
D14*
G04 #@! TO.C,K_SPACE3_2*
X168681400Y9207500D03*
D15*
X163601400Y9207500D03*
X173761400Y9207500D03*
D16*
X156743400Y2222500D03*
X180619400Y2222500D03*
D14*
X156743400Y17462500D03*
X180619400Y17462500D03*
G04 #@! TD*
G04 #@! TO.C,K_RCTL2*
X275837650Y9207500D03*
D15*
X270757650Y9207500D03*
X280917650Y9207500D03*
G04 #@! TD*
D14*
G04 #@! TO.C,K_RFN2*
X256787650Y9207500D03*
D15*
X251707650Y9207500D03*
X261867650Y9207500D03*
G04 #@! TD*
D14*
G04 #@! TO.C,K_RMOD2*
X218687650Y9207500D03*
D15*
X213607650Y9207500D03*
X223767650Y9207500D03*
G04 #@! TD*
D14*
G04 #@! TO.C,K_RALT3*
X199637650Y9207500D03*
D15*
X194557650Y9207500D03*
X204717650Y9207500D03*
G04 #@! TD*
D14*
G04 #@! TO.C,K_RALT1*
X202018900Y9207500D03*
D15*
X196938900Y9207500D03*
X207098900Y9207500D03*
G04 #@! TD*
D14*
G04 #@! TO.C,K_SPACE2_1*
X125818900Y9207500D03*
D15*
X120738900Y9207500D03*
X130898900Y9207500D03*
G04 #@! TD*
D14*
G04 #@! TO.C,K_SPACE1_1*
X92481400Y9207500D03*
D15*
X87401400Y9207500D03*
X97561400Y9207500D03*
D16*
X80543400Y2222500D03*
X104419400Y2222500D03*
D14*
X80543400Y17462500D03*
X104419400Y17462500D03*
G04 #@! TD*
G04 #@! TO.C,K_RMOD1*
X225831400Y9207500D03*
D15*
X220751400Y9207500D03*
X230911400Y9207500D03*
G04 #@! TD*
D14*
G04 #@! TO.C,K_SPACE2_2*
X130581400Y9207500D03*
D15*
X125501400Y9207500D03*
X135661400Y9207500D03*
D16*
X80581500Y2222500D03*
X180581300Y2222500D03*
D14*
X80581500Y17462500D03*
X180581300Y17462500D03*
G04 #@! TD*
D17*
G04 #@! TO.C,J1*
X46736000Y74803000D03*
D18*
X44196000Y74803000D03*
X41656000Y74803000D03*
X39116000Y74803000D03*
X36576000Y74803000D03*
X34036000Y74803000D03*
G04 #@! TD*
D14*
G04 #@! TO.C,K_Q1*
X37712650Y66357500D03*
D15*
X32632650Y66357500D03*
X42792650Y66357500D03*
G04 #@! TD*
D14*
G04 #@! TO.C,K_#0_1*
X199637650Y85407500D03*
D15*
X194557650Y85407500D03*
X204717650Y85407500D03*
G04 #@! TD*
D14*
G04 #@! TO.C,K_#1*
X28187650Y85407500D03*
D15*
X23107650Y85407500D03*
X33267650Y85407500D03*
G04 #@! TD*
D14*
G04 #@! TO.C,K_#2*
X47237650Y85407500D03*
D15*
X42157650Y85407500D03*
X52317650Y85407500D03*
G04 #@! TD*
D14*
G04 #@! TO.C,K_#3*
X66287650Y85407500D03*
D15*
X61207650Y85407500D03*
X71367650Y85407500D03*
G04 #@! TD*
D14*
G04 #@! TO.C,K_#4*
X85337650Y85407500D03*
D15*
X80257650Y85407500D03*
X90417650Y85407500D03*
G04 #@! TD*
D14*
G04 #@! TO.C,K_#5*
X104387650Y85407500D03*
D15*
X99307650Y85407500D03*
X109467650Y85407500D03*
G04 #@! TD*
D14*
G04 #@! TO.C,K_#6*
X123437650Y85407500D03*
D15*
X118357650Y85407500D03*
X128517650Y85407500D03*
G04 #@! TD*
D14*
G04 #@! TO.C,K_#7*
X142487650Y85407500D03*
D15*
X137407650Y85407500D03*
X147567650Y85407500D03*
G04 #@! TD*
D14*
G04 #@! TO.C,K_#8*
X161537650Y85407500D03*
D15*
X156457650Y85407500D03*
X166617650Y85407500D03*
G04 #@! TD*
D14*
G04 #@! TO.C,K_#9*
X180587650Y85407500D03*
D15*
X175507650Y85407500D03*
X185667650Y85407500D03*
G04 #@! TD*
D14*
G04 #@! TO.C,K_-1*
X218687650Y85407500D03*
D15*
X213607650Y85407500D03*
X223767650Y85407500D03*
G04 #@! TD*
D14*
G04 #@! TO.C,K_=1*
X237737650Y85407500D03*
D15*
X232657650Y85407500D03*
X242817650Y85407500D03*
G04 #@! TD*
D14*
G04 #@! TO.C,K_BACK1*
X266312650Y85407500D03*
D15*
X261232650Y85407500D03*
X271392650Y85407500D03*
D16*
X254374650Y92392500D03*
X278250650Y92392500D03*
D14*
X254374650Y77152500D03*
X278250650Y77152500D03*
G04 #@! TD*
G04 #@! TO.C,K_BACK2*
X275837650Y85407500D03*
D15*
X270757650Y85407500D03*
X280917650Y85407500D03*
G04 #@! TD*
D14*
G04 #@! TO.C,K_DEL1*
X256787650Y85407500D03*
D15*
X251707650Y85407500D03*
X261867650Y85407500D03*
G04 #@! TD*
D14*
G04 #@! TO.C,K_ESC1*
X9137650Y85407500D03*
D15*
X4057650Y85407500D03*
X14217650Y85407500D03*
G04 #@! TD*
D14*
G04 #@! TO.C,K_E1*
X75812650Y66357500D03*
D15*
X70732650Y66357500D03*
X80892650Y66357500D03*
G04 #@! TD*
D14*
G04 #@! TO.C,K_I1*
X171062650Y66357500D03*
D15*
X165982650Y66357500D03*
X176142650Y66357500D03*
G04 #@! TD*
D14*
G04 #@! TO.C,K_O1*
X190112650Y66357500D03*
D15*
X185032650Y66357500D03*
X195192650Y66357500D03*
G04 #@! TD*
D14*
G04 #@! TO.C,K_P1*
X209162650Y66357500D03*
D15*
X204082650Y66357500D03*
X214242650Y66357500D03*
G04 #@! TD*
D14*
G04 #@! TO.C,K_R1*
X94862650Y66357500D03*
D15*
X89782650Y66357500D03*
X99942650Y66357500D03*
G04 #@! TD*
D14*
G04 #@! TO.C,K_T1*
X113912650Y66357500D03*
D15*
X108832650Y66357500D03*
X118992650Y66357500D03*
G04 #@! TD*
D14*
G04 #@! TO.C,K_TAB1*
X13900150Y66357500D03*
D15*
X8820150Y66357500D03*
X18980150Y66357500D03*
G04 #@! TD*
D14*
G04 #@! TO.C,K_U1*
X152012650Y66357500D03*
D15*
X146932650Y66357500D03*
X157092650Y66357500D03*
G04 #@! TD*
D14*
G04 #@! TO.C,K_W1*
X56762650Y66357500D03*
D15*
X51682650Y66357500D03*
X61842650Y66357500D03*
G04 #@! TD*
D14*
G04 #@! TO.C,K_Y1*
X132962650Y66357500D03*
D15*
X127882650Y66357500D03*
X138042650Y66357500D03*
G04 #@! TD*
D14*
G04 #@! TO.C,K_[1*
X228212650Y66357500D03*
D15*
X223132650Y66357500D03*
X233292650Y66357500D03*
G04 #@! TD*
D14*
G04 #@! TO.C,K_\005C1*
X271075150Y66357500D03*
D15*
X265995150Y66357500D03*
X276155150Y66357500D03*
G04 #@! TD*
D14*
G04 #@! TO.C,K_]1*
X247262650Y66357500D03*
D15*
X242182650Y66357500D03*
X252342650Y66357500D03*
G04 #@! TD*
D14*
G04 #@! TO.C,K_'1*
X232975150Y47307500D03*
D15*
X227895150Y47307500D03*
X238055150Y47307500D03*
G04 #@! TD*
D14*
G04 #@! TO.C,K_;1*
X213925150Y47307500D03*
D15*
X208845150Y47307500D03*
X219005150Y47307500D03*
G04 #@! TD*
D14*
G04 #@! TO.C,K_A1*
X42475150Y47307500D03*
D15*
X37395150Y47307500D03*
X47555150Y47307500D03*
G04 #@! TD*
D14*
G04 #@! TO.C,K_D1*
X80575150Y47307500D03*
D15*
X75495150Y47307500D03*
X85655150Y47307500D03*
G04 #@! TD*
D14*
G04 #@! TO.C,K_ENTER1*
X263931400Y47307500D03*
D15*
X258851400Y47307500D03*
X269011400Y47307500D03*
D16*
X251993400Y54292500D03*
X275869400Y54292500D03*
D14*
X251993400Y39052500D03*
X275869400Y39052500D03*
G04 #@! TD*
G04 #@! TO.C,K_F1*
X99625150Y47307500D03*
D15*
X94545150Y47307500D03*
X104705150Y47307500D03*
G04 #@! TD*
D14*
G04 #@! TO.C,K_G1*
X118675150Y47307500D03*
D15*
X113595150Y47307500D03*
X123755150Y47307500D03*
G04 #@! TD*
D14*
G04 #@! TO.C,K_H1*
X137725150Y47307500D03*
D15*
X132645150Y47307500D03*
X142805150Y47307500D03*
G04 #@! TD*
D14*
G04 #@! TO.C,K_ISO#1*
X252025150Y47307500D03*
D15*
X246945150Y47307500D03*
X257105150Y47307500D03*
G04 #@! TD*
D14*
G04 #@! TO.C,K_J1*
X156775150Y47307500D03*
D15*
X151695150Y47307500D03*
X161855150Y47307500D03*
G04 #@! TD*
D14*
G04 #@! TO.C,K_K1*
X175825150Y47307500D03*
D15*
X170745150Y47307500D03*
X180905150Y47307500D03*
G04 #@! TD*
D14*
G04 #@! TO.C,K_L1*
X194875150Y47307500D03*
D15*
X189795150Y47307500D03*
X199955150Y47307500D03*
G04 #@! TD*
D14*
G04 #@! TO.C,K_S1*
X61525150Y47307500D03*
D15*
X56445150Y47307500D03*
X66605150Y47307500D03*
G04 #@! TD*
D14*
G04 #@! TO.C,K_\002C1*
X185350150Y28257500D03*
D15*
X180270150Y28257500D03*
X190430150Y28257500D03*
G04 #@! TD*
D14*
G04 #@! TO.C,K_.1*
X204400150Y28257500D03*
D15*
X199320150Y28257500D03*
X209480150Y28257500D03*
G04 #@! TD*
D14*
G04 #@! TO.C,K_/1*
X223450150Y28257500D03*
D15*
X218370150Y28257500D03*
X228530150Y28257500D03*
G04 #@! TD*
D14*
G04 #@! TO.C,K_B1*
X128200150Y28257500D03*
D15*
X123120150Y28257500D03*
X133280150Y28257500D03*
G04 #@! TD*
D14*
G04 #@! TO.C,K_C1*
X90100150Y28257500D03*
D15*
X85020150Y28257500D03*
X95180150Y28257500D03*
G04 #@! TD*
D14*
G04 #@! TO.C,K_FN1*
X275837650Y28257500D03*
D15*
X270757650Y28257500D03*
X280917650Y28257500D03*
G04 #@! TD*
D14*
G04 #@! TO.C,K_ISO\005C1*
X32950150Y28257500D03*
D15*
X27870150Y28257500D03*
X38030150Y28257500D03*
G04 #@! TD*
D14*
G04 #@! TO.C,K_LSHIFT1*
X21043900Y28257500D03*
D15*
X15963900Y28257500D03*
X26123900Y28257500D03*
D16*
X9105900Y35242500D03*
X32981900Y35242500D03*
D14*
X9105900Y20002500D03*
X32981900Y20002500D03*
G04 #@! TD*
G04 #@! TO.C,K_LSHIFT2*
X11518900Y28257500D03*
D15*
X6438900Y28257500D03*
X16598900Y28257500D03*
G04 #@! TD*
D14*
G04 #@! TO.C,K_M1*
X166300150Y28257500D03*
D15*
X161220150Y28257500D03*
X171380150Y28257500D03*
G04 #@! TD*
D14*
G04 #@! TO.C,K_N1*
X147250150Y28257500D03*
D15*
X142170150Y28257500D03*
X152330150Y28257500D03*
G04 #@! TD*
D14*
G04 #@! TO.C,K_RSHIFT1*
X259168900Y28257500D03*
D15*
X254088900Y28257500D03*
X264248900Y28257500D03*
D16*
X247230900Y35242500D03*
X271106900Y35242500D03*
D14*
X247230900Y20002500D03*
X271106900Y20002500D03*
G04 #@! TD*
G04 #@! TO.C,K_RSHIFT2*
X249643900Y28257500D03*
D15*
X244563900Y28257500D03*
X254723900Y28257500D03*
G04 #@! TD*
D14*
G04 #@! TO.C,K_V1*
X109150150Y28257500D03*
D15*
X104070150Y28257500D03*
X114230150Y28257500D03*
G04 #@! TD*
D14*
G04 #@! TO.C,K_X1*
X71050150Y28257500D03*
D15*
X65970150Y28257500D03*
X76130150Y28257500D03*
G04 #@! TD*
D14*
G04 #@! TO.C,K_Z1*
X52000150Y28257500D03*
D15*
X46920150Y28257500D03*
X57080150Y28257500D03*
G04 #@! TD*
D14*
G04 #@! TO.C,K_RGUI1*
X237737650Y9207500D03*
D15*
X232657650Y9207500D03*
X242817650Y9207500D03*
G04 #@! TD*
D14*
G04 #@! TO.C,K_LCTL1*
X11518900Y9207500D03*
D15*
X6438900Y9207500D03*
X16598900Y9207500D03*
G04 #@! TD*
D14*
G04 #@! TO.C,K_LCTL2*
X13900150Y9207500D03*
D15*
X8820150Y9207500D03*
X18980150Y9207500D03*
G04 #@! TD*
D19*
G04 #@! TO.C,USB1*
X21103400Y90320800D03*
X15323400Y90320800D03*
D20*
X13893400Y89790800D03*
X22533400Y89790800D03*
D21*
X13893400Y93970800D03*
X22533400Y93970800D03*
G04 #@! TD*
M02*
