M48
;DRILL file {KiCad 4.0.7-e2-6376~58~ubuntu16.04.1} date Mon Jun 18 12:14:41 2018
;FORMAT={-:-/ absolute / inch / decimal}
FMAT,2
INCH,TZ
T1C0.026
T2C0.069
T3C0.120
T4C0.157
%
G90
G05
M72
T1
X0.5745Y3.4505
T2
X0.1598Y3.3625
X0.2535Y1.8625
X0.2535Y1.1125
X0.2535Y0.3625
X0.3473Y2.6125
X0.3473Y0.3625
X0.441Y1.8625
X0.5597Y3.3625
X0.6285Y1.1125
X0.6535Y1.8625
X0.6535Y1.1125
X0.6535Y0.3625
X0.7472Y2.6125
X0.7472Y0.3625
X0.841Y1.8625
X0.9097Y3.3625
X1.0285Y1.1125
X1.0973Y1.1125
X1.191Y0.3625
X1.2848Y2.6125
X1.2848Y0.3625
X1.3097Y3.3625
X1.4723Y1.8625
X1.4972Y1.1125
X1.591Y0.3625
X1.6598Y3.3625
X1.6847Y2.6125
X1.6847Y0.3625
X1.8473Y1.1125
X1.8722Y1.8625
X2.0347Y2.6125
X2.0597Y3.3625
X2.1285Y0.3625
X2.2222Y1.8625
X2.2222Y0.3625
X2.2472Y1.1125
X2.4097Y3.3625
X2.4347Y2.6125
X2.5285Y0.3625
X2.5972Y1.1125
X2.6222Y1.8625
X2.6222Y0.3625
X2.7847Y2.6125
X2.8097Y3.3625
X2.9722Y1.8625
X2.9972Y1.1125
X3.1597Y3.3625
X3.1847Y2.6125
X3.3472Y1.1125
X3.3722Y1.8625
X3.441Y0.3625
X3.5347Y2.6125
X3.5597Y3.3625
X3.6285Y0.3625
X3.7222Y1.8625
X3.7472Y1.1125
X3.816Y0.3625
X3.841Y0.3625
X3.9097Y3.3625
X3.9347Y2.6125
X4.0285Y0.3625
X4.0972Y1.1125
X4.1223Y1.8625
X4.216Y0.3625
X4.2847Y2.6125
X4.3098Y3.3625
X4.4722Y1.8625
X4.4973Y1.1125
X4.6597Y3.3625
X4.6848Y2.6125
X4.7535Y0.3625
X4.8472Y1.1125
X4.8723Y1.8625
X4.941Y0.3625
X5.0347Y2.6125
X5.0598Y3.3625
X5.1285Y0.3625
X5.1535Y0.3625
X5.2222Y1.8625
X5.2473Y1.1125
X5.341Y0.3625
X5.4097Y3.3625
X5.4097Y0.3625
X5.4097Y0.3625
X5.4348Y2.6125
X5.5285Y0.3625
X5.5972Y1.1125
X5.6223Y1.8625
X5.7847Y2.6125
X5.8098Y3.3625
X5.8098Y0.3625
X5.8098Y0.3625
X5.9722Y1.8625
X5.9973Y1.1125
X6.1597Y3.3625
X6.1848Y2.6125
X6.2535Y0.3625
X6.3472Y1.1125
X6.3723Y1.8625
X6.441Y0.3625
X6.5347Y2.6125
X6.5598Y3.3625
X6.6535Y0.3625
X6.7222Y1.8625
X6.7473Y1.1125
X6.841Y0.3625
X6.9097Y3.3625
X6.9348Y2.6125
X7.0035Y0.3625
X7.0972Y1.1125
X7.1223Y1.8625
X7.2847Y2.6125
X7.3098Y3.3625
X7.4035Y0.3625
X7.4722Y1.8625
X7.4973Y1.1125
X7.6597Y3.3625
X7.6597Y0.3625
X7.6848Y2.6125
X7.7535Y0.3625
X7.8472Y1.1125
X7.8723Y1.8625
X8.0347Y2.6125
X8.0597Y3.3625
X8.0597Y0.3625
X8.1535Y0.3625
X8.2222Y1.8625
X8.2472Y1.1125
X8.4097Y3.3625
X8.4097Y0.3625
X8.4347Y2.6125
X8.5972Y1.1125
X8.5972Y0.3625
X8.6222Y1.8625
X8.691Y0.3625
X8.7847Y2.6125
X8.8097Y3.3625
X8.8097Y0.3625
X8.9722Y1.8625
X8.9972Y1.1125
X8.9972Y0.3625
X9.091Y0.3625
X9.1597Y3.3625
X9.1597Y0.3625
X9.1847Y2.6125
X9.3722Y1.8625
X9.5347Y2.6125
X9.5347Y0.3625
X9.5597Y3.3625
X9.5597Y0.3625
X9.6285Y1.1125
X9.6285Y0.3625
X9.7222Y1.8625
X9.9097Y3.3625
X9.9097Y0.3625
X9.9347Y2.6125
X9.9347Y0.3625
X10.0035Y1.1125
X10.0285Y1.1125
X10.0285Y0.3625
X10.1222Y1.8625
X10.191Y1.8625
X10.2847Y3.3625
X10.3097Y3.3625
X10.3097Y0.3625
X10.4035Y1.1125
X10.4722Y2.6125
X10.4722Y0.3625
X10.566Y0.3625
X10.591Y1.8625
X10.6597Y3.3625
X10.6597Y1.1125
X10.6597Y0.3625
X10.6847Y3.3625
X10.766Y2.4375
X10.766Y2.0375
X10.8722Y2.6125
X10.8722Y0.3625
X10.966Y0.3625
X11.0597Y3.3625
X11.0597Y1.1125
X11.0597Y0.3625
T3
X0.3585Y1.3875
X1.2985Y1.3875
X3.171Y0.0875
X3.1725Y0.0875
X3.3585Y0.0875
X3.3598Y0.0875
X3.546Y0.0875
X4.111Y0.0875
X4.2985Y0.0875
X4.486Y0.0875
X5.9835Y0.0875
X6.171Y0.0875
X6.7335Y0.0875
X6.9235Y0.0875
X7.1095Y0.0875
X7.111Y0.0875
X7.6735Y0.0875
X7.8598Y0.0875
X9.7335Y1.3875
X9.921Y2.1375
X10.0147Y3.6375
X10.6735Y1.3875
X10.861Y2.1375
X10.9547Y3.6375
X11.041Y2.7075
X11.041Y1.7675
T4
X0.3585Y0.7875
X0.3598Y3.3625
X0.4535Y1.8625
X0.4535Y1.1125
X0.4535Y0.3625
X0.5473Y2.6125
X0.5473Y0.3625
X0.641Y1.8625
X0.8285Y1.1125
X1.1098Y3.3625
X1.2973Y1.1125
X1.2985Y0.7875
X1.391Y0.3625
X1.4848Y2.6125
X1.4848Y0.3625
X1.6723Y1.8625
X1.8598Y3.3625
X2.0473Y1.1125
X2.2348Y2.6125
X2.3285Y0.3625
X2.4223Y1.8625
X2.4223Y0.3625
X2.6098Y3.3625
X2.7973Y1.1125
X2.9848Y2.6125
X3.171Y0.6875
X3.1723Y1.8625
X3.1725Y0.6875
X3.3585Y0.6875
X3.3598Y3.3625
X3.3598Y0.6875
X3.546Y0.6875
X3.5473Y1.1125
X3.641Y0.3625
X3.7348Y2.6125
X3.8285Y0.3625
X3.9223Y1.8625
X4.016Y0.3625
X4.1098Y3.3625
X4.111Y0.6875
X4.2973Y1.1125
X4.2985Y0.6875
X4.4848Y2.6125
X4.486Y0.6875
X4.6723Y1.8625
X4.8598Y3.3625
X4.9535Y0.3625
X5.0473Y1.1125
X5.141Y0.3625
X5.2348Y2.6125
X5.3285Y0.3625
X5.4223Y1.8625
X5.6098Y3.3625
X5.6098Y0.3625
X5.6098Y0.3625
X5.7973Y1.1125
X5.9835Y0.6875
X5.9848Y2.6125
X6.171Y0.6875
X6.1723Y1.8625
X6.3598Y3.3625
X6.4535Y0.3625
X6.5473Y1.1125
X6.641Y0.3625
X6.7335Y0.6875
X6.7348Y2.6125
X6.9223Y1.8625
X6.9235Y0.6875
X7.1095Y0.6875
X7.1098Y3.3625
X7.111Y0.6875
X7.2035Y0.3625
X7.2973Y1.1125
X7.4848Y2.6125
X7.6723Y1.8625
X7.6735Y0.6875
X7.8598Y3.3625
X7.8598Y0.6875
X7.8598Y0.3625
X7.9535Y0.3625
X8.0473Y1.1125
X8.2348Y2.6125
X8.4223Y1.8625
X8.6098Y3.3625
X8.6098Y0.3625
X8.7973Y1.1125
X8.7973Y0.3625
X8.891Y0.3625
X8.9848Y2.6125
X9.1723Y1.8625
X9.3598Y3.3625
X9.3598Y0.3625
X9.7335Y0.7875
X9.7348Y2.6125
X9.7348Y0.3625
X9.8285Y1.1125
X9.8285Y0.3625
X9.921Y1.5375
X9.9223Y1.8625
X10.0147Y3.0375
X10.1098Y3.3625
X10.1098Y0.3625
X10.2035Y1.1125
X10.391Y1.8625
X10.441Y2.7075
X10.441Y1.7675
X10.4848Y3.3625
X10.6723Y2.6125
X10.6723Y0.3625
X10.6735Y0.7875
X10.766Y2.2375
X10.766Y0.3625
X10.8598Y3.3625
X10.8598Y1.1125
X10.8598Y0.3625
X10.861Y1.5375
X10.9547Y3.0375
T1
X0.8521Y3.4505G85X0.8639Y3.4505
G05
T0
M30
