M48
;DRILL file {KiCad 4.0.7-e2-6376~58~ubuntu16.04.1} date Thu Jun  7 22:08:11 2018
;FORMAT={-:-/ absolute / inch / decimal}
FMAT,2
INCH,TZ
T1C0.012
T2C0.016
T3C0.020
T4C0.039
T5C0.041
T6C0.058
T7C0.098
T8C0.098
%
G90
G05
M72
T1
X3.45Y-2.77
X3.472Y-4.294
X3.49Y-5.22
X3.543Y-3.292
X3.562Y-3.508
X3.575Y-3.659
X3.586Y-2.48
X3.72Y-4.3
X3.74Y-4.9
X3.779Y-4.426
X3.89Y-5.03
X4.01Y-2.58
X4.08Y-5.68
X4.12Y-4.59
X4.14Y-5.35
X4.3Y-5.58
X4.44Y-5.2
X4.506Y-2.519
X4.56Y-2.66
X4.607Y-2.935
X4.667Y-4.004
X4.724Y-4.772
X4.734Y-4.897
X4.78Y-2.58
X4.78Y-4.24
X4.858Y-3.606
X4.87Y-4.566
X4.878Y-2.948
X4.925Y-4.22
X4.93Y-5.53
X4.941Y-4.829
X4.9961Y-4.1181
X5.Y-4.02
X5.001Y-3.672
X5.019Y-3.48
X5.04Y-5.68
X5.07Y-4.266
X5.079Y-3.113
X5.1Y-5.47
X5.16Y-5.09
X5.218Y-4.107
X5.24Y-5.58
X5.43Y-2.58
X5.49Y-4.77
X5.5Y-4.9
X5.68Y-3.27
X5.7Y-4.83
X5.857Y-4.105
X5.86Y-4.01
X5.87Y-5.53
X5.88Y-3.34
X5.979Y-2.518
X6.03Y-5.67
X6.1Y-5.38
X6.197Y-4.766
X6.28Y-2.58
X6.39Y-5.27
X6.415Y-3.269
X6.45Y-4.83
X6.61Y-4.02
X6.644Y-3.342
X6.728Y-2.521
X6.826Y-4.086
X6.98Y-4.78
X7.Y-4.91
X7.03Y-2.574
X7.162Y-3.269
X7.2Y-4.83
X7.37Y-4.1
X7.394Y-3.344
X7.45Y-5.53
X7.475Y-2.523
X7.5545Y-3.809
X7.69Y-5.34
X7.73Y-4.78
X7.758Y-2.57
X7.77Y-5.58
X7.904Y-3.26
X7.96Y-4.83
X7.966Y-4.442
X8.Y-3.81
X8.018Y-4.052
X8.1Y-5.05
X8.219Y-2.522
X8.32Y-4.02
X8.436Y-5.295
X8.489Y-4.774
X8.5Y-4.9
X8.52Y-2.58
X8.676Y-3.276
X8.706Y-4.831
X8.79Y-4.01
X8.876Y-3.32
X8.98Y-3.8425
X8.981Y-2.516
X9.054Y-4.09
X9.19Y-5.61
X9.215Y-4.777
X9.27Y-2.58
X9.421Y-3.281
X9.428Y-5.711
X9.454Y-4.832
X9.482Y-4.448
X9.59Y-4.02
X9.62Y-5.04
X9.752Y-2.516
X9.752Y-2.516
X9.824Y-4.084
X9.83Y-2.65
X9.982Y-4.778
X10.02Y-5.28
X10.028Y-2.582
X10.18Y-3.28
X10.196Y-5.518
X10.21Y-4.835
X10.354Y-4.022
X10.384Y-3.324
X10.43Y-5.508
X10.498Y-5.698
X10.524Y-2.516
X10.582Y-4.086
X10.727Y-4.776
X10.77Y-2.57
X10.92Y-3.28
X10.964Y-4.432
X10.978Y-4.838
X11.129Y-4.018
X11.13Y-3.334
X11.258Y-2.516
X11.43Y-5.55
X11.48Y-5.69
X11.483Y-4.779
X11.532Y-2.576
X11.67Y-4.36
X11.683Y-4.83
X11.712Y-3.275
X11.87Y-4.02
X11.882Y-3.326
X12.082Y-4.076
X12.186Y-5.516
X12.215Y-4.778
X12.25Y-5.58
X12.288Y-2.571
X12.414Y-3.282
X12.53Y-5.72
X12.636Y-3.33
X12.72Y-4.91
X12.85Y-4.03
X13.01Y-2.58
X13.1Y-3.32
X13.28Y-3.44
X13.31Y-4.04
X13.474Y-2.508
X13.49Y-5.61
X13.51Y-3.58
X13.518Y-3.258
X13.6Y-2.87
X13.6Y-2.87
X13.606Y-4.77
X13.656Y-3.238
X13.712Y-2.342
X13.72Y-4.52
X13.73Y-3.
X13.73Y-5.22
X13.75Y-4.88
X13.94Y-2.28
X13.974Y-3.273
X14.Y-3.95
X14.02Y-3.54
X14.114Y-5.512
T2
X3.233Y-4.877
X3.284Y-5.642
X3.355Y-4.019
X3.365Y-3.3925
X3.606Y-2.538
X3.607Y-2.6
X3.738Y-2.553
X3.7807Y-2.4587
X3.783Y-2.785
X3.805Y-2.27
X3.8138Y-2.433
X3.842Y-2.266
X3.867Y-2.786
X3.9Y-2.615
X3.9173Y-2.5689
X3.9173Y-3.6969
X3.9213Y-4.2441
X3.938Y-4.442
X3.94Y-2.469
X3.965Y-3.778
X4.027Y-2.215
X4.0431Y-3.4647
X4.0459Y-3.3839
X4.0475Y-3.35
X4.0708Y-3.91
X4.117Y-3.577
X4.12Y-3.83
X4.133Y-2.849
X4.1693Y-4.
X4.184Y-4.482
X4.186Y-4.236
X4.1866Y-4.1964
X4.2057Y-4.841
X4.226Y-4.486
X4.23Y-4.236
X4.234Y-3.542
X4.2455Y-4.0355
X4.26Y-4.83
X4.2697Y-3.2126
X4.287Y-4.149
X4.2927Y-3.2492
X4.2954Y-4.1827
X4.317Y-3.671
X4.3443Y-4.1343
X4.3695Y-4.1595
X4.3711Y-3.5778
X4.3788Y-3.6127
X4.379Y-4.2351
X4.381Y-3.023
X4.3839Y-3.8618
X4.403Y-3.553
X4.4409Y-3.4055
X4.4445Y-3.2828
X4.4449Y-3.248
X4.475Y-3.4808
X4.489Y-2.983
X4.494Y-3.955
X4.512Y-3.054
X4.527Y-3.977
X4.5339Y-3.5052
X4.5522Y-3.531
X4.557Y-3.7358
X4.5852Y-3.7501
X4.6008Y-3.4988
X4.6036Y-3.5378
X4.6601Y-3.504
X4.6957Y-3.3447
X4.71Y-3.2624
X4.7848Y-3.046
X4.882Y-4.667
X4.91Y-3.609
X4.938Y-4.028
X4.965Y-3.601
X5.Y-4.225
X5.0264Y-3.6354
X5.0294Y-3.5972
X5.0575Y-3.3445
X5.0836Y-3.2641
X5.086Y-5.395
X5.089Y-3.603
X5.0946Y-3.4925
X5.104Y-4.0277
X5.152Y-4.45
X5.167Y-3.645
X5.1748Y-2.5426
X5.326Y-4.4348
X5.4Y-4.4588
X5.512Y-4.3988
X5.677Y-4.048
X6.1612Y-4.0334
X6.28Y-4.4012
X6.992Y-4.38
X7.275Y-4.0307
X7.688Y-4.0282
X7.772Y-4.426
X8.1425Y-3.3225
X8.4808Y-3.4632
X8.9065Y-3.669
X9.048Y-3.4685
X9.42Y-5.155
X9.705Y-5.15
X9.894Y-5.592
X9.992Y-4.388
X10.131Y-5.592
X10.482Y-5.611
X10.662Y-4.3308
X10.672Y-5.609
X11.028Y-3.403
X11.31Y-4.089
X11.376Y-4.306
X11.635Y-5.155
X11.957Y-5.739
X11.9725Y-4.0477
X11.995Y-5.155
X12.043Y-5.767
X12.131Y-5.5748
X12.589Y-3.6868
X13.515Y-3.3664
X13.583Y-3.2997
X13.663Y-2.542
X13.669Y-5.126
X13.7444Y-2.8224
X13.781Y-2.594
X13.797Y-3.01
X13.8319Y-2.643
X13.892Y-3.228
X13.9675Y-4.815
X14.089Y-5.014
T3
X3.1777Y-4.1973
X3.1777Y-4.4021
X3.2581Y-4.1973
X3.2581Y-4.4021
X3.3305Y-4.2273
X3.3305Y-4.3721
X3.3605Y-4.2997
X4.0101Y-3.1737
X4.0366Y-3.1097
X4.0366Y-3.2377
X4.1006Y-3.0832
X4.1006Y-3.2643
X4.1647Y-3.1097
X4.1647Y-3.2377
X4.1912Y-3.1737
X8.1085Y-3.8351
X8.1085Y-4.0162
X8.1558Y-3.8351
X8.1558Y-4.0162
X8.203Y-3.8351
X8.203Y-4.0162
X10.5613Y-5.3391
X10.5613Y-5.5202
X10.6085Y-5.3391
X10.6085Y-5.5202
X10.6558Y-5.3391
X10.6558Y-5.5202
X13.2995Y-3.0832
X13.2995Y-3.2643
X13.3467Y-3.0832
X13.3467Y-3.2643
X13.3939Y-3.0825
X13.3939Y-3.2643
X14.077Y-4.2997
X14.107Y-4.2273
X14.107Y-4.3721
X14.1794Y-4.1973
X14.1794Y-4.4021
X14.2598Y-4.1973
X14.2598Y-4.4021
T4
X4.449Y-2.855
X4.549Y-2.855
X4.649Y-2.855
X4.749Y-2.855
X4.849Y-2.855
X4.949Y-2.855
T5
X3.4187Y-2.6375
X3.5125Y-4.1375
X3.5125Y-4.8875
X3.5125Y-5.6375
X3.5187Y-2.6375
X3.6062Y-3.3875
X3.6062Y-5.6375
X3.6125Y-4.1375
X3.6125Y-4.8875
X3.6125Y-5.6375
X3.7Y-4.1375
X3.7062Y-3.3875
X3.7062Y-5.6375
X3.8Y-4.1375
X3.8875Y-4.8875
X3.9875Y-4.8875
X4.1688Y-2.6375
X4.2687Y-2.6375
X4.3563Y-4.8875
X4.45Y-5.6375
X4.4562Y-4.8875
X4.5438Y-3.3875
X4.5438Y-5.6375
X4.55Y-5.6375
X4.6437Y-3.3875
X4.6437Y-5.6375
X4.7313Y-4.1375
X4.8312Y-4.1375
X4.9188Y-2.6375
X5.0187Y-2.6375
X5.1063Y-4.8875
X5.2062Y-4.8875
X5.2938Y-3.3875
X5.3875Y-5.6375
X5.3937Y-3.3875
X5.4813Y-4.1375
X5.4813Y-5.6375
X5.4875Y-5.6375
X5.5812Y-4.1375
X5.5812Y-5.6375
X5.6688Y-2.6375
X5.7687Y-2.6375
X5.8563Y-4.8875
X5.9562Y-4.8875
X6.0438Y-3.3875
X6.1437Y-3.3875
X6.2313Y-4.1375
X6.3312Y-4.1375
X6.4188Y-2.6375
X6.5187Y-2.6375
X6.6063Y-4.8875
X6.7Y-5.6375
X6.7062Y-4.8875
X6.7938Y-3.3875
X6.8Y-5.6375
X6.8875Y-5.6375
X6.8937Y-3.3875
X6.9813Y-4.1375
X6.9875Y-5.6375
X7.075Y-5.6375
X7.0812Y-4.1375
X7.1688Y-2.6375
X7.175Y-5.6375
X7.2687Y-2.6375
X7.3563Y-4.8875
X7.4562Y-4.8875
X7.5438Y-3.3875
X7.6437Y-3.3875
X7.7313Y-4.1375
X7.8312Y-4.1375
X7.9188Y-2.6375
X8.0125Y-5.6375
X8.0187Y-2.6375
X8.1062Y-4.8875
X8.1125Y-5.6375
X8.2Y-5.6375
X8.2062Y-4.8875
X8.2937Y-3.3875
X8.3Y-5.6375
X8.3875Y-5.6375
X8.3937Y-3.3875
X8.4812Y-4.1375
X8.4875Y-5.6375
X8.5812Y-4.1375
X8.6687Y-2.6375
X8.6687Y-5.6375
X8.6687Y-5.6375
X8.7687Y-2.6375
X8.7687Y-5.6375
X8.7687Y-5.6375
X8.8562Y-4.8875
X8.9562Y-4.8875
X9.0437Y-3.3875
X9.1437Y-3.3875
X9.2312Y-4.1375
X9.3312Y-4.1375
X9.4187Y-2.6375
X9.5125Y-5.6375
X9.5187Y-2.6375
X9.6062Y-4.8875
X9.6125Y-5.6375
X9.7Y-5.6375
X9.7062Y-4.8875
X9.7937Y-3.3875
X9.8Y-5.6375
X9.8937Y-3.3875
X9.9812Y-4.1375
X10.0812Y-4.1375
X10.1687Y-2.6375
X10.2625Y-5.6375
X10.2687Y-2.6375
X10.3562Y-4.8875
X10.3625Y-5.6375
X10.4562Y-4.8875
X10.5437Y-3.3875
X10.6437Y-3.3875
X10.7312Y-4.1375
X10.8312Y-4.1375
X10.9187Y-2.6375
X10.9187Y-5.6375
X11.0125Y-5.6375
X11.0187Y-2.6375
X11.0187Y-5.6375
X11.1062Y-4.8875
X11.1125Y-5.6375
X11.2062Y-4.8875
X11.2937Y-3.3875
X11.3937Y-3.3875
X11.4812Y-4.1375
X11.5812Y-4.1375
X11.6687Y-2.6375
X11.6687Y-5.6375
X11.7687Y-2.6375
X11.7687Y-5.6375
X11.8562Y-4.8875
X11.8562Y-5.6375
X11.95Y-5.6375
X11.9562Y-4.8875
X11.9562Y-5.6375
X12.0437Y-3.3875
X12.05Y-5.6375
X12.1437Y-3.3875
X12.2312Y-4.1375
X12.3312Y-4.1375
X12.4187Y-2.6375
X12.4187Y-5.6375
X12.5187Y-2.6375
X12.5187Y-5.6375
X12.7937Y-3.3875
X12.7937Y-5.6375
X12.8875Y-4.8875
X12.8875Y-5.6375
X12.8937Y-3.3875
X12.8937Y-5.6375
X12.9812Y-4.1375
X12.9875Y-4.8875
X12.9875Y-5.6375
X13.0812Y-4.1375
X13.1687Y-2.6375
X13.1687Y-5.6375
X13.2625Y-4.8875
X13.2687Y-2.6375
X13.2687Y-5.6375
X13.3625Y-4.8875
X13.45Y-4.1375
X13.5437Y-2.6375
X13.55Y-4.1375
X13.6437Y-2.6375
X13.675Y-3.5125
X13.675Y-3.6125
X13.7312Y-3.3875
X13.7312Y-5.6375
X13.825Y-5.6375
X13.8312Y-3.3875
X13.8312Y-5.6375
X13.9187Y-2.6375
X13.9187Y-4.8875
X13.9187Y-5.6375
X13.925Y-5.6375
X14.0187Y-2.6375
X14.0187Y-4.8875
X14.0187Y-5.6375
T6
X3.3188Y-2.3375
X3.4125Y-3.8375
X3.4125Y-4.5875
X3.4125Y-5.3375
X3.5063Y-3.0875
X3.5063Y-5.3375
X3.5688Y-2.2375
X3.6Y-3.8375
X3.6625Y-3.7375
X3.6625Y-4.4875
X3.6625Y-5.2375
X3.7563Y-2.9875
X3.7563Y-5.2375
X3.7875Y-4.5875
X3.85Y-3.7375
X4.0375Y-4.4875
X4.0687Y-2.3375
X4.2562Y-4.5875
X4.3187Y-2.2375
X4.35Y-5.3375
X4.4437Y-3.0875
X4.4437Y-5.3375
X4.5062Y-4.4875
X4.6Y-5.2375
X4.6312Y-3.8375
X4.6937Y-2.9875
X4.6937Y-5.2375
X4.8187Y-2.3375
X4.8812Y-3.7375
X5.0062Y-4.5875
X5.0687Y-2.2375
X5.1937Y-3.0875
X5.2562Y-4.4875
X5.2875Y-5.3375
X5.3812Y-3.8375
X5.3812Y-5.3375
X5.4437Y-2.9875
X5.5375Y-5.2375
X5.5687Y-2.3375
X5.6312Y-3.7375
X5.6312Y-5.2375
X5.7562Y-4.5875
X5.8187Y-2.2375
X5.9437Y-3.0875
X6.0062Y-4.4875
X6.1312Y-3.8375
X6.1937Y-2.9875
X6.3187Y-2.3375
X6.3812Y-3.7375
X6.5062Y-4.5875
X6.5687Y-2.2375
X6.6Y-5.3375
X6.6937Y-3.0875
X6.7562Y-4.4875
X6.7875Y-5.3375
X6.85Y-5.2375
X6.8812Y-3.8375
X6.9437Y-2.9875
X6.975Y-5.3375
X7.0375Y-5.2375
X7.0687Y-2.3375
X7.1312Y-3.7375
X7.225Y-5.2375
X7.2562Y-4.5875
X7.3187Y-2.2375
X7.4437Y-3.0875
X7.5062Y-4.4875
X7.6312Y-3.8375
X7.6937Y-2.9875
X7.8187Y-2.3375
X7.8812Y-3.7375
X7.9125Y-5.3375
X8.0062Y-4.5875
X8.0687Y-2.2375
X8.1Y-5.3375
X8.1625Y-5.2375
X8.1937Y-3.0875
X8.2562Y-4.4875
X8.2875Y-5.3375
X8.35Y-5.2375
X8.3812Y-3.8375
X8.4437Y-2.9875
X8.5375Y-5.2375
X8.5687Y-2.3375
X8.5687Y-5.3375
X8.5687Y-5.3375
X8.6312Y-3.7375
X8.7562Y-4.5875
X8.8187Y-2.2375
X8.8187Y-5.2375
X8.8187Y-5.2375
X8.9437Y-3.0875
X9.0062Y-4.4875
X9.1312Y-3.8375
X9.1937Y-2.9875
X9.3187Y-2.3375
X9.3812Y-3.7375
X9.4125Y-5.3375
X9.5062Y-4.5875
X9.5687Y-2.2375
X9.6Y-5.3375
X9.6625Y-5.2375
X9.6937Y-3.0875
X9.7562Y-4.4875
X9.85Y-5.2375
X9.8812Y-3.8375
X9.9437Y-2.9875
X10.0687Y-2.3375
X10.1312Y-3.7375
X10.1625Y-5.3375
X10.2562Y-4.5875
X10.3187Y-2.2375
X10.4125Y-5.2375
X10.4437Y-3.0875
X10.5062Y-4.4875
X10.6312Y-3.8375
X10.6937Y-2.9875
X10.8187Y-2.3375
X10.8187Y-5.3375
X10.8812Y-3.7375
X10.9125Y-5.3375
X11.0062Y-4.5875
X11.0687Y-2.2375
X11.0687Y-5.2375
X11.1625Y-5.2375
X11.1937Y-3.0875
X11.2562Y-4.4875
X11.3812Y-3.8375
X11.4437Y-2.9875
X11.5687Y-2.3375
X11.5687Y-5.3375
X11.6312Y-3.7375
X11.7562Y-4.5875
X11.7562Y-5.3375
X11.8187Y-2.2375
X11.8187Y-5.2375
X11.85Y-5.3375
X11.9437Y-3.0875
X12.0062Y-4.4875
X12.0062Y-5.2375
X12.1Y-5.2375
X12.1312Y-3.8375
X12.1937Y-2.9875
X12.3187Y-2.3375
X12.3187Y-5.3375
X12.3812Y-3.7375
X12.5687Y-2.2375
X12.5687Y-5.2375
X12.6937Y-3.0875
X12.6937Y-5.3375
X12.7875Y-4.5875
X12.7875Y-5.3375
X12.8812Y-3.8375
X12.9437Y-2.9875
X12.9437Y-5.2375
X13.0375Y-4.4875
X13.0375Y-5.2375
X13.0687Y-2.3375
X13.0687Y-5.3375
X13.1312Y-3.7375
X13.1625Y-4.5875
X13.3187Y-2.2375
X13.3187Y-5.2375
X13.35Y-3.8375
X13.4125Y-4.4875
X13.4437Y-2.3375
X13.6Y-3.7375
X13.6312Y-3.0875
X13.6312Y-5.3375
X13.6937Y-2.2375
X13.725Y-5.3375
X13.8187Y-2.3375
X13.8187Y-4.5875
X13.8187Y-5.3375
X13.8812Y-2.9875
X13.8812Y-5.2375
X13.975Y-3.4125
X13.975Y-5.2375
X14.0687Y-2.2375
X14.0687Y-4.4875
X14.0687Y-5.2375
X14.075Y-3.6625
T8
X4.1006Y-3.1737
T3
X3.6485Y-2.0542G85X3.6485Y-2.0778
G05
X3.6626Y-2.2884G85X3.6626Y-2.3121
G05
X3.9878Y-2.2884G85X3.9878Y-2.3121
G05
X4.002Y-2.0542G85X4.002Y-2.0778
G05
T7
X8.1065Y-3.9257G85X8.205Y-3.9257
G05
X10.5593Y-5.4296G85X10.6578Y-5.4296
G05
X13.2975Y-3.1737G85X13.396Y-3.1737
G05
T0
M30
