G04 #@! TF.FileFunction,Legend,Top*
%FSLAX46Y46*%
G04 Gerber Fmt 4.6, Leading zero omitted, Abs format (unit mm)*
G04 Created by KiCad (PCBNEW 4.0.7-e2-6376~58~ubuntu16.04.1) date Thu Jun  7 22:53:12 2018*
%MOMM*%
%LPD*%
G01*
G04 APERTURE LIST*
%ADD10C,0.100000*%
%ADD11C,0.300000*%
G04 APERTURE END LIST*
D10*
D11*
X117612284Y-128440571D02*
X117612284Y-126940571D01*
X118255141Y-128440571D02*
X118255141Y-127654857D01*
X118183712Y-127512000D01*
X118040855Y-127440571D01*
X117826570Y-127440571D01*
X117683712Y-127512000D01*
X117612284Y-127583429D01*
X118755141Y-127440571D02*
X119326570Y-127440571D01*
X118969427Y-126940571D02*
X118969427Y-128226286D01*
X119040855Y-128369143D01*
X119183713Y-128440571D01*
X119326570Y-128440571D01*
X119612284Y-127440571D02*
X120183713Y-127440571D01*
X119826570Y-126940571D02*
X119826570Y-128226286D01*
X119897998Y-128369143D01*
X120040856Y-128440571D01*
X120183713Y-128440571D01*
X120683713Y-127440571D02*
X120683713Y-128940571D01*
X120683713Y-127512000D02*
X120826570Y-127440571D01*
X121112284Y-127440571D01*
X121255141Y-127512000D01*
X121326570Y-127583429D01*
X121397999Y-127726286D01*
X121397999Y-128154857D01*
X121326570Y-128297714D01*
X121255141Y-128369143D01*
X121112284Y-128440571D01*
X120826570Y-128440571D01*
X120683713Y-128369143D01*
X121969427Y-128369143D02*
X122112284Y-128440571D01*
X122397999Y-128440571D01*
X122540856Y-128369143D01*
X122612284Y-128226286D01*
X122612284Y-128154857D01*
X122540856Y-128012000D01*
X122397999Y-127940571D01*
X122183713Y-127940571D01*
X122040856Y-127869143D01*
X121969427Y-127726286D01*
X121969427Y-127654857D01*
X122040856Y-127512000D01*
X122183713Y-127440571D01*
X122397999Y-127440571D01*
X122540856Y-127512000D01*
X123255142Y-128297714D02*
X123326570Y-128369143D01*
X123255142Y-128440571D01*
X123183713Y-128369143D01*
X123255142Y-128297714D01*
X123255142Y-128440571D01*
X123255142Y-127512000D02*
X123326570Y-127583429D01*
X123255142Y-127654857D01*
X123183713Y-127583429D01*
X123255142Y-127512000D01*
X123255142Y-127654857D01*
X125040856Y-126869143D02*
X123755142Y-128797714D01*
X126612285Y-126869143D02*
X125326571Y-128797714D01*
X127755143Y-127440571D02*
X127755143Y-128654857D01*
X127683714Y-128797714D01*
X127612286Y-128869143D01*
X127469429Y-128940571D01*
X127255143Y-128940571D01*
X127112286Y-128869143D01*
X127755143Y-128369143D02*
X127612286Y-128440571D01*
X127326572Y-128440571D01*
X127183714Y-128369143D01*
X127112286Y-128297714D01*
X127040857Y-128154857D01*
X127040857Y-127726286D01*
X127112286Y-127583429D01*
X127183714Y-127512000D01*
X127326572Y-127440571D01*
X127612286Y-127440571D01*
X127755143Y-127512000D01*
X128469429Y-128440571D02*
X128469429Y-127440571D01*
X128469429Y-126940571D02*
X128398000Y-127012000D01*
X128469429Y-127083429D01*
X128540857Y-127012000D01*
X128469429Y-126940571D01*
X128469429Y-127083429D01*
X128969429Y-127440571D02*
X129540858Y-127440571D01*
X129183715Y-126940571D02*
X129183715Y-128226286D01*
X129255143Y-128369143D01*
X129398001Y-128440571D01*
X129540858Y-128440571D01*
X130040858Y-128440571D02*
X130040858Y-126940571D01*
X130683715Y-128440571D02*
X130683715Y-127654857D01*
X130612286Y-127512000D01*
X130469429Y-127440571D01*
X130255144Y-127440571D01*
X130112286Y-127512000D01*
X130040858Y-127583429D01*
X132040858Y-127440571D02*
X132040858Y-128440571D01*
X131398001Y-127440571D02*
X131398001Y-128226286D01*
X131469429Y-128369143D01*
X131612287Y-128440571D01*
X131826572Y-128440571D01*
X131969429Y-128369143D01*
X132040858Y-128297714D01*
X132755144Y-128440571D02*
X132755144Y-126940571D01*
X132755144Y-127512000D02*
X132898001Y-127440571D01*
X133183715Y-127440571D01*
X133326572Y-127512000D01*
X133398001Y-127583429D01*
X133469430Y-127726286D01*
X133469430Y-128154857D01*
X133398001Y-128297714D01*
X133326572Y-128369143D01*
X133183715Y-128440571D01*
X132898001Y-128440571D01*
X132755144Y-128369143D01*
X134112287Y-128297714D02*
X134183715Y-128369143D01*
X134112287Y-128440571D01*
X134040858Y-128369143D01*
X134112287Y-128297714D01*
X134112287Y-128440571D01*
X135469430Y-128369143D02*
X135326573Y-128440571D01*
X135040859Y-128440571D01*
X134898001Y-128369143D01*
X134826573Y-128297714D01*
X134755144Y-128154857D01*
X134755144Y-127726286D01*
X134826573Y-127583429D01*
X134898001Y-127512000D01*
X135040859Y-127440571D01*
X135326573Y-127440571D01*
X135469430Y-127512000D01*
X136326573Y-128440571D02*
X136183715Y-128369143D01*
X136112287Y-128297714D01*
X136040858Y-128154857D01*
X136040858Y-127726286D01*
X136112287Y-127583429D01*
X136183715Y-127512000D01*
X136326573Y-127440571D01*
X136540858Y-127440571D01*
X136683715Y-127512000D01*
X136755144Y-127583429D01*
X136826573Y-127726286D01*
X136826573Y-128154857D01*
X136755144Y-128297714D01*
X136683715Y-128369143D01*
X136540858Y-128440571D01*
X136326573Y-128440571D01*
X137469430Y-128440571D02*
X137469430Y-127440571D01*
X137469430Y-127583429D02*
X137540858Y-127512000D01*
X137683716Y-127440571D01*
X137898001Y-127440571D01*
X138040858Y-127512000D01*
X138112287Y-127654857D01*
X138112287Y-128440571D01*
X138112287Y-127654857D02*
X138183716Y-127512000D01*
X138326573Y-127440571D01*
X138540858Y-127440571D01*
X138683716Y-127512000D01*
X138755144Y-127654857D01*
X138755144Y-128440571D01*
X140540858Y-126869143D02*
X139255144Y-128797714D01*
X141040859Y-127440571D02*
X141040859Y-128726286D01*
X140969430Y-128869143D01*
X140826573Y-128940571D01*
X140755145Y-128940571D01*
X141040859Y-126940571D02*
X140969430Y-127012000D01*
X141040859Y-127083429D01*
X141112287Y-127012000D01*
X141040859Y-126940571D01*
X141040859Y-127083429D01*
X141755145Y-128440571D02*
X141755145Y-127440571D01*
X141755145Y-127583429D02*
X141826573Y-127512000D01*
X141969431Y-127440571D01*
X142183716Y-127440571D01*
X142326573Y-127512000D01*
X142398002Y-127654857D01*
X142398002Y-128440571D01*
X142398002Y-127654857D02*
X142469431Y-127512000D01*
X142612288Y-127440571D01*
X142826573Y-127440571D01*
X142969431Y-127512000D01*
X143040859Y-127654857D01*
X143040859Y-128440571D01*
X144398002Y-128440571D02*
X144398002Y-126940571D01*
X144398002Y-128369143D02*
X144255145Y-128440571D01*
X143969431Y-128440571D01*
X143826573Y-128369143D01*
X143755145Y-128297714D01*
X143683716Y-128154857D01*
X143683716Y-127726286D01*
X143755145Y-127583429D01*
X143826573Y-127512000D01*
X143969431Y-127440571D01*
X144255145Y-127440571D01*
X144398002Y-127512000D01*
X145755145Y-128440571D02*
X145755145Y-127654857D01*
X145683716Y-127512000D01*
X145540859Y-127440571D01*
X145255145Y-127440571D01*
X145112288Y-127512000D01*
X145755145Y-128369143D02*
X145612288Y-128440571D01*
X145255145Y-128440571D01*
X145112288Y-128369143D01*
X145040859Y-128226286D01*
X145040859Y-128083429D01*
X145112288Y-127940571D01*
X145255145Y-127869143D01*
X145612288Y-127869143D01*
X145755145Y-127797714D01*
X146683717Y-128440571D02*
X146540859Y-128369143D01*
X146469431Y-128226286D01*
X146469431Y-126940571D01*
X147112288Y-127440571D02*
X147469431Y-128440571D01*
X147826573Y-127440571D02*
X147469431Y-128440571D01*
X147326573Y-128797714D01*
X147255145Y-128869143D01*
X147112288Y-128940571D01*
X149469430Y-126869143D02*
X148183716Y-128797714D01*
X150826574Y-128297714D02*
X150755145Y-128369143D01*
X150540859Y-128440571D01*
X150398002Y-128440571D01*
X150183717Y-128369143D01*
X150040859Y-128226286D01*
X149969431Y-128083429D01*
X149898002Y-127797714D01*
X149898002Y-127583429D01*
X149969431Y-127297714D01*
X150040859Y-127154857D01*
X150183717Y-127012000D01*
X150398002Y-126940571D01*
X150540859Y-126940571D01*
X150755145Y-127012000D01*
X150826574Y-127083429D01*
X151755145Y-126940571D02*
X152040859Y-126940571D01*
X152183717Y-127012000D01*
X152326574Y-127154857D01*
X152398002Y-127440571D01*
X152398002Y-127940571D01*
X152326574Y-128226286D01*
X152183717Y-128369143D01*
X152040859Y-128440571D01*
X151755145Y-128440571D01*
X151612288Y-128369143D01*
X151469431Y-128226286D01*
X151398002Y-127940571D01*
X151398002Y-127440571D01*
X151469431Y-127154857D01*
X151612288Y-127012000D01*
X151755145Y-126940571D01*
X153683717Y-126940571D02*
X153398003Y-126940571D01*
X153255146Y-127012000D01*
X153183717Y-127083429D01*
X153040860Y-127297714D01*
X152969431Y-127583429D01*
X152969431Y-128154857D01*
X153040860Y-128297714D01*
X153112288Y-128369143D01*
X153255146Y-128440571D01*
X153540860Y-128440571D01*
X153683717Y-128369143D01*
X153755146Y-128297714D01*
X153826574Y-128154857D01*
X153826574Y-127797714D01*
X153755146Y-127654857D01*
X153683717Y-127583429D01*
X153540860Y-127512000D01*
X153255146Y-127512000D01*
X153112288Y-127583429D01*
X153040860Y-127654857D01*
X152969431Y-127797714D01*
X154755145Y-126940571D02*
X154898002Y-126940571D01*
X155040859Y-127012000D01*
X155112288Y-127083429D01*
X155183717Y-127226286D01*
X155255145Y-127512000D01*
X155255145Y-127869143D01*
X155183717Y-128154857D01*
X155112288Y-128297714D01*
X155040859Y-128369143D01*
X154898002Y-128440571D01*
X154755145Y-128440571D01*
X154612288Y-128369143D01*
X154540859Y-128297714D01*
X154469431Y-128154857D01*
X154398002Y-127869143D01*
X154398002Y-127512000D01*
X154469431Y-127226286D01*
X154540859Y-127083429D01*
X154612288Y-127012000D01*
X154755145Y-126940571D01*
X121882699Y-111051886D02*
X121787461Y-111147124D01*
X121501746Y-111242362D01*
X121311270Y-111242362D01*
X121025556Y-111147124D01*
X120835080Y-110956648D01*
X120739841Y-110766171D01*
X120644603Y-110385219D01*
X120644603Y-110099505D01*
X120739841Y-109718552D01*
X120835080Y-109528076D01*
X121025556Y-109337600D01*
X121311270Y-109242362D01*
X121501746Y-109242362D01*
X121787461Y-109337600D01*
X121882699Y-109432838D01*
X123120794Y-109242362D02*
X123501746Y-109242362D01*
X123692222Y-109337600D01*
X123882699Y-109528076D01*
X123977937Y-109909029D01*
X123977937Y-110575695D01*
X123882699Y-110956648D01*
X123692222Y-111147124D01*
X123501746Y-111242362D01*
X123120794Y-111242362D01*
X122930318Y-111147124D01*
X122739841Y-110956648D01*
X122644603Y-110575695D01*
X122644603Y-109909029D01*
X122739841Y-109528076D01*
X122930318Y-109337600D01*
X123120794Y-109242362D01*
X125692222Y-109242362D02*
X125311270Y-109242362D01*
X125120794Y-109337600D01*
X125025556Y-109432838D01*
X124835079Y-109718552D01*
X124739841Y-110099505D01*
X124739841Y-110861410D01*
X124835079Y-111051886D01*
X124930318Y-111147124D01*
X125120794Y-111242362D01*
X125501746Y-111242362D01*
X125692222Y-111147124D01*
X125787460Y-111051886D01*
X125882699Y-110861410D01*
X125882699Y-110385219D01*
X125787460Y-110194743D01*
X125692222Y-110099505D01*
X125501746Y-110004267D01*
X125120794Y-110004267D01*
X124930318Y-110099505D01*
X124835079Y-110194743D01*
X124739841Y-110385219D01*
X127120794Y-109242362D02*
X127311270Y-109242362D01*
X127501746Y-109337600D01*
X127596984Y-109432838D01*
X127692222Y-109623314D01*
X127787461Y-110004267D01*
X127787461Y-110480457D01*
X127692222Y-110861410D01*
X127596984Y-111051886D01*
X127501746Y-111147124D01*
X127311270Y-111242362D01*
X127120794Y-111242362D01*
X126930318Y-111147124D01*
X126835080Y-111051886D01*
X126739841Y-110861410D01*
X126644603Y-110480457D01*
X126644603Y-110004267D01*
X126739841Y-109623314D01*
X126835080Y-109432838D01*
X126930318Y-109337600D01*
X127120794Y-109242362D01*
X130168413Y-111242362D02*
X130168413Y-109242362D01*
X130930318Y-109242362D01*
X131120794Y-109337600D01*
X131216033Y-109432838D01*
X131311271Y-109623314D01*
X131311271Y-109909029D01*
X131216033Y-110099505D01*
X131120794Y-110194743D01*
X130930318Y-110289981D01*
X130168413Y-110289981D01*
X133311271Y-111051886D02*
X133216033Y-111147124D01*
X132930318Y-111242362D01*
X132739842Y-111242362D01*
X132454128Y-111147124D01*
X132263652Y-110956648D01*
X132168413Y-110766171D01*
X132073175Y-110385219D01*
X132073175Y-110099505D01*
X132168413Y-109718552D01*
X132263652Y-109528076D01*
X132454128Y-109337600D01*
X132739842Y-109242362D01*
X132930318Y-109242362D01*
X133216033Y-109337600D01*
X133311271Y-109432838D01*
X134835080Y-110194743D02*
X135120794Y-110289981D01*
X135216033Y-110385219D01*
X135311271Y-110575695D01*
X135311271Y-110861410D01*
X135216033Y-111051886D01*
X135120794Y-111147124D01*
X134930318Y-111242362D01*
X134168413Y-111242362D01*
X134168413Y-109242362D01*
X134835080Y-109242362D01*
X135025556Y-109337600D01*
X135120794Y-109432838D01*
X135216033Y-109623314D01*
X135216033Y-109813790D01*
X135120794Y-110004267D01*
X135025556Y-110099505D01*
X134835080Y-110194743D01*
X134168413Y-110194743D01*
X137692223Y-110480457D02*
X139216033Y-110480457D01*
X142835081Y-111242362D02*
X142168414Y-110289981D01*
X141692223Y-111242362D02*
X141692223Y-109242362D01*
X142454128Y-109242362D01*
X142644604Y-109337600D01*
X142739843Y-109432838D01*
X142835081Y-109623314D01*
X142835081Y-109909029D01*
X142739843Y-110099505D01*
X142644604Y-110194743D01*
X142454128Y-110289981D01*
X141692223Y-110289981D01*
X144454128Y-111147124D02*
X144263652Y-111242362D01*
X143882700Y-111242362D01*
X143692223Y-111147124D01*
X143596985Y-110956648D01*
X143596985Y-110194743D01*
X143692223Y-110004267D01*
X143882700Y-109909029D01*
X144263652Y-109909029D01*
X144454128Y-110004267D01*
X144549366Y-110194743D01*
X144549366Y-110385219D01*
X143596985Y-110575695D01*
X145216033Y-109909029D02*
X145692224Y-111242362D01*
X146168414Y-109909029D01*
X146930319Y-111051886D02*
X147025558Y-111147124D01*
X146930319Y-111242362D01*
X146835081Y-111147124D01*
X146930319Y-111051886D01*
X146930319Y-111242362D01*
X149311272Y-109432838D02*
X149406510Y-109337600D01*
X149596987Y-109242362D01*
X150073177Y-109242362D01*
X150263653Y-109337600D01*
X150358891Y-109432838D01*
X150454130Y-109623314D01*
X150454130Y-109813790D01*
X150358891Y-110099505D01*
X149216034Y-111242362D01*
X150454130Y-111242362D01*
X151311272Y-111051886D02*
X151406511Y-111147124D01*
X151311272Y-111242362D01*
X151216034Y-111147124D01*
X151311272Y-111051886D01*
X151311272Y-111242362D01*
X153787463Y-111242362D02*
X153787463Y-109242362D01*
X154263654Y-109242362D01*
X154549368Y-109337600D01*
X154739844Y-109528076D01*
X154835083Y-109718552D01*
X154930321Y-110099505D01*
X154930321Y-110385219D01*
X154835083Y-110766171D01*
X154739844Y-110956648D01*
X154549368Y-111147124D01*
X154263654Y-111242362D01*
X153787463Y-111242362D01*
X156549368Y-111147124D02*
X156358892Y-111242362D01*
X155977940Y-111242362D01*
X155787463Y-111147124D01*
X155692225Y-110956648D01*
X155692225Y-110194743D01*
X155787463Y-110004267D01*
X155977940Y-109909029D01*
X156358892Y-109909029D01*
X156549368Y-110004267D01*
X156644606Y-110194743D01*
X156644606Y-110385219D01*
X155692225Y-110575695D01*
X157406511Y-111147124D02*
X157596988Y-111242362D01*
X157977940Y-111242362D01*
X158168416Y-111147124D01*
X158263654Y-110956648D01*
X158263654Y-110861410D01*
X158168416Y-110670933D01*
X157977940Y-110575695D01*
X157692226Y-110575695D01*
X157501749Y-110480457D01*
X157406511Y-110289981D01*
X157406511Y-110194743D01*
X157501749Y-110004267D01*
X157692226Y-109909029D01*
X157977940Y-109909029D01*
X158168416Y-110004267D01*
X159120797Y-111242362D02*
X159120797Y-109909029D01*
X159120797Y-109242362D02*
X159025559Y-109337600D01*
X159120797Y-109432838D01*
X159216036Y-109337600D01*
X159120797Y-109242362D01*
X159120797Y-109432838D01*
X160930321Y-109909029D02*
X160930321Y-111528076D01*
X160835083Y-111718552D01*
X160739845Y-111813790D01*
X160549369Y-111909029D01*
X160263655Y-111909029D01*
X160073178Y-111813790D01*
X160930321Y-111147124D02*
X160739845Y-111242362D01*
X160358893Y-111242362D01*
X160168417Y-111147124D01*
X160073178Y-111051886D01*
X159977940Y-110861410D01*
X159977940Y-110289981D01*
X160073178Y-110099505D01*
X160168417Y-110004267D01*
X160358893Y-109909029D01*
X160739845Y-109909029D01*
X160930321Y-110004267D01*
X161882702Y-109909029D02*
X161882702Y-111242362D01*
X161882702Y-110099505D02*
X161977941Y-110004267D01*
X162168417Y-109909029D01*
X162454131Y-109909029D01*
X162644607Y-110004267D01*
X162739845Y-110194743D01*
X162739845Y-111242362D01*
X165216036Y-111242362D02*
X165216036Y-109242362D01*
X165216036Y-110004267D02*
X165406513Y-109909029D01*
X165787465Y-109909029D01*
X165977941Y-110004267D01*
X166073179Y-110099505D01*
X166168417Y-110289981D01*
X166168417Y-110861410D01*
X166073179Y-111051886D01*
X165977941Y-111147124D01*
X165787465Y-111242362D01*
X165406513Y-111242362D01*
X165216036Y-111147124D01*
X166835084Y-109909029D02*
X167311275Y-111242362D01*
X167787465Y-109909029D02*
X167311275Y-111242362D01*
X167120799Y-111718552D01*
X167025560Y-111813790D01*
X166835084Y-111909029D01*
X170073180Y-109909029D02*
X170073180Y-111623314D01*
X169977942Y-111813790D01*
X169787466Y-111909029D01*
X169692228Y-111909029D01*
X170073180Y-109242362D02*
X169977942Y-109337600D01*
X170073180Y-109432838D01*
X170168419Y-109337600D01*
X170073180Y-109242362D01*
X170073180Y-109432838D01*
X171025561Y-111242362D02*
X171025561Y-109909029D01*
X171025561Y-110099505D02*
X171120800Y-110004267D01*
X171311276Y-109909029D01*
X171596990Y-109909029D01*
X171787466Y-110004267D01*
X171882704Y-110194743D01*
X171882704Y-111242362D01*
X171882704Y-110194743D02*
X171977942Y-110004267D01*
X172168419Y-109909029D01*
X172454133Y-109909029D01*
X172644609Y-110004267D01*
X172739847Y-110194743D01*
X172739847Y-111242362D01*
X174549371Y-111242362D02*
X174549371Y-109242362D01*
X174549371Y-111147124D02*
X174358895Y-111242362D01*
X173977943Y-111242362D01*
X173787467Y-111147124D01*
X173692228Y-111051886D01*
X173596990Y-110861410D01*
X173596990Y-110289981D01*
X173692228Y-110099505D01*
X173787467Y-110004267D01*
X173977943Y-109909029D01*
X174358895Y-109909029D01*
X174549371Y-110004267D01*
X176358895Y-111242362D02*
X176358895Y-110194743D01*
X176263657Y-110004267D01*
X176073181Y-109909029D01*
X175692229Y-109909029D01*
X175501752Y-110004267D01*
X176358895Y-111147124D02*
X176168419Y-111242362D01*
X175692229Y-111242362D01*
X175501752Y-111147124D01*
X175406514Y-110956648D01*
X175406514Y-110766171D01*
X175501752Y-110575695D01*
X175692229Y-110480457D01*
X176168419Y-110480457D01*
X176358895Y-110385219D01*
X177596991Y-111242362D02*
X177406515Y-111147124D01*
X177311276Y-110956648D01*
X177311276Y-109242362D01*
X178168419Y-109909029D02*
X178644610Y-111242362D01*
X179120800Y-109909029D02*
X178644610Y-111242362D01*
X178454134Y-111718552D01*
X178358895Y-111813790D01*
X178168419Y-111909029D01*
X181216039Y-109909029D02*
X181596992Y-111242362D01*
X181977944Y-110289981D01*
X182358896Y-111242362D01*
X182739849Y-109909029D01*
X183501753Y-111242362D02*
X183501753Y-109909029D01*
X183501753Y-109242362D02*
X183406515Y-109337600D01*
X183501753Y-109432838D01*
X183596992Y-109337600D01*
X183501753Y-109242362D01*
X183501753Y-109432838D01*
X184168420Y-109909029D02*
X184930325Y-109909029D01*
X184454134Y-109242362D02*
X184454134Y-110956648D01*
X184549373Y-111147124D01*
X184739849Y-111242362D01*
X184930325Y-111242362D01*
X185596991Y-111242362D02*
X185596991Y-109242362D01*
X186454134Y-111242362D02*
X186454134Y-110194743D01*
X186358896Y-110004267D01*
X186168420Y-109909029D01*
X185882706Y-109909029D01*
X185692230Y-110004267D01*
X185596991Y-110099505D01*
X188930325Y-111242362D02*
X188930325Y-109242362D01*
X189787468Y-111242362D02*
X189787468Y-110194743D01*
X189692230Y-110004267D01*
X189501754Y-109909029D01*
X189216040Y-109909029D01*
X189025564Y-110004267D01*
X188930325Y-110099505D01*
X191501754Y-111147124D02*
X191311278Y-111242362D01*
X190930326Y-111242362D01*
X190739849Y-111147124D01*
X190644611Y-110956648D01*
X190644611Y-110194743D01*
X190739849Y-110004267D01*
X190930326Y-109909029D01*
X191311278Y-109909029D01*
X191501754Y-110004267D01*
X191596992Y-110194743D01*
X191596992Y-110385219D01*
X190644611Y-110575695D01*
X192739850Y-111242362D02*
X192549374Y-111147124D01*
X192454135Y-110956648D01*
X192454135Y-109242362D01*
X193501754Y-109909029D02*
X193501754Y-111909029D01*
X193501754Y-110004267D02*
X193692231Y-109909029D01*
X194073183Y-109909029D01*
X194263659Y-110004267D01*
X194358897Y-110099505D01*
X194454135Y-110289981D01*
X194454135Y-110861410D01*
X194358897Y-111051886D01*
X194263659Y-111147124D01*
X194073183Y-111242362D01*
X193692231Y-111242362D01*
X193501754Y-111147124D01*
X196549374Y-109909029D02*
X197311279Y-109909029D01*
X196835088Y-111242362D02*
X196835088Y-109528076D01*
X196930327Y-109337600D01*
X197120803Y-109242362D01*
X197311279Y-109242362D01*
X197977945Y-111242362D02*
X197977945Y-109909029D01*
X197977945Y-110289981D02*
X198073184Y-110099505D01*
X198168422Y-110004267D01*
X198358898Y-109909029D01*
X198549374Y-109909029D01*
X199501755Y-111242362D02*
X199311279Y-111147124D01*
X199216040Y-111051886D01*
X199120802Y-110861410D01*
X199120802Y-110289981D01*
X199216040Y-110099505D01*
X199311279Y-110004267D01*
X199501755Y-109909029D01*
X199787469Y-109909029D01*
X199977945Y-110004267D01*
X200073183Y-110099505D01*
X200168421Y-110289981D01*
X200168421Y-110861410D01*
X200073183Y-111051886D01*
X199977945Y-111147124D01*
X199787469Y-111242362D01*
X199501755Y-111242362D01*
X201025564Y-111242362D02*
X201025564Y-109909029D01*
X201025564Y-110099505D02*
X201120803Y-110004267D01*
X201311279Y-109909029D01*
X201596993Y-109909029D01*
X201787469Y-110004267D01*
X201882707Y-110194743D01*
X201882707Y-111242362D01*
X201882707Y-110194743D02*
X201977945Y-110004267D01*
X202168422Y-109909029D01*
X202454136Y-109909029D01*
X202644612Y-110004267D01*
X202739850Y-110194743D01*
X202739850Y-111242362D01*
X204930327Y-109909029D02*
X205692232Y-109909029D01*
X205216041Y-109242362D02*
X205216041Y-110956648D01*
X205311280Y-111147124D01*
X205501756Y-111242362D01*
X205692232Y-111242362D01*
X206358898Y-111242362D02*
X206358898Y-109242362D01*
X207216041Y-111242362D02*
X207216041Y-110194743D01*
X207120803Y-110004267D01*
X206930327Y-109909029D01*
X206644613Y-109909029D01*
X206454137Y-110004267D01*
X206358898Y-110099505D01*
X208930327Y-111147124D02*
X208739851Y-111242362D01*
X208358899Y-111242362D01*
X208168422Y-111147124D01*
X208073184Y-110956648D01*
X208073184Y-110194743D01*
X208168422Y-110004267D01*
X208358899Y-109909029D01*
X208739851Y-109909029D01*
X208930327Y-110004267D01*
X209025565Y-110194743D01*
X209025565Y-110385219D01*
X208073184Y-110575695D01*
X211406518Y-111242362D02*
X211406518Y-109242362D01*
X212073185Y-110670933D01*
X212739852Y-109242362D01*
X212739852Y-111242362D01*
X214454137Y-111147124D02*
X214263661Y-111242362D01*
X213882709Y-111242362D01*
X213692232Y-111147124D01*
X213596994Y-110956648D01*
X213596994Y-110194743D01*
X213692232Y-110004267D01*
X213882709Y-109909029D01*
X214263661Y-109909029D01*
X214454137Y-110004267D01*
X214549375Y-110194743D01*
X214549375Y-110385219D01*
X213596994Y-110575695D01*
X216263661Y-111147124D02*
X216073185Y-111242362D01*
X215692233Y-111242362D01*
X215501757Y-111147124D01*
X215406518Y-111051886D01*
X215311280Y-110861410D01*
X215311280Y-110289981D01*
X215406518Y-110099505D01*
X215501757Y-110004267D01*
X215692233Y-109909029D01*
X216073185Y-109909029D01*
X216263661Y-110004267D01*
X217120804Y-111242362D02*
X217120804Y-109242362D01*
X217977947Y-111242362D02*
X217977947Y-110194743D01*
X217882709Y-110004267D01*
X217692233Y-109909029D01*
X217406519Y-109909029D01*
X217216043Y-110004267D01*
X217120804Y-110099505D01*
X218930328Y-111242362D02*
X218930328Y-109242362D01*
X220073186Y-111242362D02*
X219216043Y-110099505D01*
X220073186Y-109242362D02*
X218930328Y-110385219D01*
X221692233Y-111147124D02*
X221501757Y-111242362D01*
X221120805Y-111242362D01*
X220930328Y-111147124D01*
X220835090Y-110956648D01*
X220835090Y-110194743D01*
X220930328Y-110004267D01*
X221120805Y-109909029D01*
X221501757Y-109909029D01*
X221692233Y-110004267D01*
X221787471Y-110194743D01*
X221787471Y-110385219D01*
X220835090Y-110575695D01*
X222454138Y-109909029D02*
X222930329Y-111242362D01*
X223406519Y-109909029D02*
X222930329Y-111242362D01*
X222739853Y-111718552D01*
X222644614Y-111813790D01*
X222454138Y-111909029D01*
X224073186Y-111147124D02*
X224263663Y-111242362D01*
X224644615Y-111242362D01*
X224835091Y-111147124D01*
X224930329Y-110956648D01*
X224930329Y-110861410D01*
X224835091Y-110670933D01*
X224644615Y-110575695D01*
X224358901Y-110575695D01*
X224168424Y-110480457D01*
X224073186Y-110289981D01*
X224073186Y-110194743D01*
X224168424Y-110004267D01*
X224358901Y-109909029D01*
X224644615Y-109909029D01*
X224835091Y-110004267D01*
X227311282Y-111242362D02*
X227311282Y-109242362D01*
X227787473Y-109242362D01*
X228073187Y-109337600D01*
X228263663Y-109528076D01*
X228358902Y-109718552D01*
X228454140Y-110099505D01*
X228454140Y-110385219D01*
X228358902Y-110766171D01*
X228263663Y-110956648D01*
X228073187Y-111147124D01*
X227787473Y-111242362D01*
X227311282Y-111242362D01*
X229311282Y-111242362D02*
X229311282Y-109909029D01*
X229311282Y-109242362D02*
X229216044Y-109337600D01*
X229311282Y-109432838D01*
X229406521Y-109337600D01*
X229311282Y-109242362D01*
X229311282Y-109432838D01*
X230168425Y-111147124D02*
X230358902Y-111242362D01*
X230739854Y-111242362D01*
X230930330Y-111147124D01*
X231025568Y-110956648D01*
X231025568Y-110861410D01*
X230930330Y-110670933D01*
X230739854Y-110575695D01*
X230454140Y-110575695D01*
X230263663Y-110480457D01*
X230168425Y-110289981D01*
X230168425Y-110194743D01*
X230263663Y-110004267D01*
X230454140Y-109909029D01*
X230739854Y-109909029D01*
X230930330Y-110004267D01*
X232739854Y-111147124D02*
X232549378Y-111242362D01*
X232168426Y-111242362D01*
X231977950Y-111147124D01*
X231882711Y-111051886D01*
X231787473Y-110861410D01*
X231787473Y-110289981D01*
X231882711Y-110099505D01*
X231977950Y-110004267D01*
X232168426Y-109909029D01*
X232549378Y-109909029D01*
X232739854Y-110004267D01*
X233882712Y-111242362D02*
X233692236Y-111147124D01*
X233596997Y-111051886D01*
X233501759Y-110861410D01*
X233501759Y-110289981D01*
X233596997Y-110099505D01*
X233692236Y-110004267D01*
X233882712Y-109909029D01*
X234168426Y-109909029D01*
X234358902Y-110004267D01*
X234454140Y-110099505D01*
X234549378Y-110289981D01*
X234549378Y-110861410D01*
X234454140Y-111051886D01*
X234358902Y-111147124D01*
X234168426Y-111242362D01*
X233882712Y-111242362D01*
X235406521Y-111242362D02*
X235406521Y-109909029D01*
X235406521Y-110289981D02*
X235501760Y-110099505D01*
X235596998Y-110004267D01*
X235787474Y-109909029D01*
X235977950Y-109909029D01*
X237501759Y-111242362D02*
X237501759Y-109242362D01*
X237501759Y-111147124D02*
X237311283Y-111242362D01*
X236930331Y-111242362D01*
X236739855Y-111147124D01*
X236644616Y-111051886D01*
X236549378Y-110861410D01*
X236549378Y-110289981D01*
X236644616Y-110099505D01*
X236739855Y-110004267D01*
X236930331Y-109909029D01*
X237311283Y-109909029D01*
X237501759Y-110004267D01*
M02*
