M48
;DRILL file {KiCad 5.0.1-33cea8e~67~ubuntu16.04.1} date Tue 15 Jan 2019 10:23:57 PM UTC
;FORMAT={-:-/ absolute / inch / decimal}
FMAT,2
INCH,TZ
T1C0.0157
T2C0.0197
T3C0.0236
T4C0.0394
T5C0.0409
T6C0.0579
T7C0.0984
T8C0.0984
%
G90
G05
M72
T1
X0.124Y0.923
X0.1387Y1.895
X0.175Y0.158
X0.1961Y0.9012
X0.2462Y1.7534
X0.256Y2.4075
X0.3197Y2.0545
X0.3209Y2.2311
X0.3579Y2.8189
X0.3709Y0.5988
X0.3721Y2.915
X0.4245Y2.2862
X0.4461Y1.3118
X0.4556Y2.5039
X0.4658Y2.101
X0.497Y3.262
X0.5016Y0.7433
X0.513Y2.739
X0.5177Y3.119
X0.537Y2.3
X0.5536Y2.1866
X0.5697Y2.2547
X0.5812Y0.7425
X0.5839Y3.1307
X0.6027Y2.714
X0.6161Y1.2629
X0.6198Y0.905
X0.621Y3.445
X0.623Y1.5024
X0.632Y3.352
X0.6357Y2.154
X0.6366Y2.0051
X0.637Y2.9689
X0.6437Y2.718
X0.6504Y2.0984
X0.6548Y2.3787
X0.6646Y1.3653
X0.6823Y2.2252
X0.7217Y1.9921
X0.7249Y0.6087
X0.7361Y2.9338
X0.7481Y2.2683
X0.7611Y2.9575
X0.7623Y1.3556
X0.7705Y2.6969
X0.787Y3.604
X0.7905Y3.1855
X0.7977Y2.0213
X0.809Y3.398
X0.8103Y1.9882
X0.8162Y2.5472
X0.8213Y2.2606
X0.824Y3.131
X0.8247Y3.241
X0.826Y2.7571
X0.8343Y2.9642
X0.8343Y0.7551
X0.8371Y3.0165
X0.8445Y2.4835
X0.8477Y2.0874
X0.8619Y2.7484
X0.8741Y3.1398
X0.8753Y2.115
X0.8809Y2.8026
X0.8823Y2.4614
X0.8867Y1.6382
X0.8958Y2.3399
X0.9056Y1.8823
X0.9067Y1.739
X0.9306Y2.8287
X0.936Y2.189
X0.937Y3.612
X0.9376Y1.8226
X0.9382Y1.5598
X0.9406Y0.9724
X0.968Y2.223
X0.9717Y1.4
X0.9974Y1.6216
X1.0178Y2.3562
X1.0217Y0.8425
X1.0249Y1.9335
X1.0391Y1.7267
X1.0427Y1.8073
X1.0548Y2.3543
X1.0552Y0.9583
X1.0701Y1.6924
X1.0738Y2.8107
X1.0743Y1.8093
X1.0745Y2.9606
X1.075Y1.318
X1.077Y1.564
X1.0819Y2.1354
X1.0997Y2.1016
X1.1025Y1.767
X1.117Y1.314
X1.1186Y2.0177
X1.121Y1.564
X1.1256Y2.8413
X1.1391Y1.7636
X1.1469Y0.5768
X1.147Y2.0386
X1.1784Y1.6465
X1.1792Y0.7386
X1.1808Y1.3906
X1.1834Y0.219
X1.1837Y2.1705
X1.1896Y2.2206
X1.1982Y2.006
X1.213Y2.9555
X1.215Y2.3559
X1.215Y2.1752
X1.2172Y2.0826
X1.254Y2.5256
X1.2548Y2.898
X1.2736Y3.1898
X1.278Y2.0063
X1.2918Y0.572
X1.293Y2.0622
X1.3183Y1.5292
X1.3229Y2.1335
X1.3461Y2.4303
X1.351Y2.505
X1.369Y1.8921
X1.3909Y3.2732
X1.4178Y1.7205
X1.4224Y1.1897
X1.4382Y3.0343
X1.4536Y2.8067
X1.4595Y2.3331
X1.461Y2.074
X1.4654Y1.4256
X1.4756Y0.863
X1.5363Y1.1819
X1.5367Y3.1732
X1.5465Y1.7724
X1.5504Y2.2414
X1.5687Y2.019
X1.6103Y2.6756
X1.6279Y1.024
X1.6574Y1.5759
X1.6631Y3.2139
X1.667Y0.8921
X1.7052Y2.7988
X1.7772Y2.9555
X1.7923Y2.5737
X1.819Y1.7886
X1.8196Y0.2828
X1.8446Y1.9399
X1.8469Y0.9672
X1.8478Y2.6038
X1.8528Y1.6898
X1.8603Y2.135
X1.8621Y0.6083
X1.8632Y3.0026
X1.8839Y0.1374
X1.891Y1.575
X1.9926Y1.2579
X1.995Y1.7723
X2.0028Y2.2142
X2.0036Y2.8961
X2.0205Y1.6394
X2.043Y1.35
X2.0695Y1.3783
X2.0752Y2.5086
X2.0765Y1.5858
X2.1174Y1.9126
X2.1339Y3.2768
X2.1382Y1.7213
X2.258Y1.546
X2.2599Y3.0358
X2.2681Y3.1882
X2.2768Y2.0874
X2.3699Y1.0275
X2.3713Y0.8906
X2.3949Y1.3669
X2.568Y1.752
X2.5747Y2.5136
X2.6032Y1.3709
X2.6079Y0.8047
X2.7327Y1.5953
X2.7514Y0.2785
X2.7537Y1.7856
X2.7587Y2.4736
X2.7725Y0.1559
X2.7808Y1.7028
X2.9355Y0.8295
X2.9843Y0.7783
X3.0016Y2.0992
X3.008Y1.563
X3.0544Y1.753
X3.0909Y1.0205
X3.1503Y3.2164
X3.326Y1.3894
X3.327Y2.5239
X3.3428Y0.9626
X3.4817Y1.652
X3.5008Y1.7726
X3.531Y2.4759
X3.6426Y3.2768
X3.6725Y0.8394
X3.7088Y1.7226
X3.7347Y3.105
X3.772Y1.542
X3.828Y0.8067
X3.854Y0.9208
X3.8788Y1.0226
X3.9223Y3.2164
X4.071Y2.5219
X4.0948Y0.9666
X4.166Y1.7693
X4.2128Y0.5926
X4.2497Y1.6
X4.271Y2.4739
X4.319Y1.7091
X4.3402Y0.8035
X4.3453Y0.2751
X4.3855Y3.2714
X4.3926Y0.1547
X4.483Y1.527
X4.579Y1.7718
X4.6364Y1.0181
X4.6564Y3.2147
X4.6733Y0.8449
X4.7256Y0.215
X4.7335Y0.6386
X4.775Y2.3343
X4.815Y2.5177
X4.8319Y1.3665
X5.0021Y2.4779
X5.1348Y3.2784
X5.2119Y1.7319
X5.252Y1.517
X5.3674Y0.9043
X5.3749Y1.0181
X5.4103Y3.2189
X5.428Y0.685
X5.5595Y0.676
X5.5701Y2.5139
X5.5717Y2.3843
X5.5954Y0.9691
X5.765Y2.4751
X5.803Y2.28
X5.8107Y0.4693
X5.8355Y0.1626
X5.8828Y3.2819
X6.1239Y1.0181
X6.1593Y3.2224
X6.3167Y2.5258
X6.3178Y0.6327
X6.3217Y0.0866
X6.326Y1.4063
X6.3328Y0.3194
X6.4379Y0.8012
X6.4825Y1.7668
X6.5468Y2.486
X6.549Y2.264
X6.6423Y3.2784
X6.7165Y1.7183
X6.785Y0.208
X6.7989Y0.8031
X6.8764Y1.0251
X6.9059Y3.2189
X6.9087Y0.5055
X6.9158Y0.3106
X6.9186Y0.928
X7.0028Y0.8567
X7.022Y0.208
X7.0647Y2.5158
X7.0981Y0.2902
X7.2137Y2.559
X7.25Y1.7693
X7.2708Y2.468
X7.303Y2.258
X7.3225Y0.2866
X7.3808Y0.6772
X7.3812Y2.5433
X7.4469Y0.1055
X7.471Y1.7199
X7.4792Y2.1154
X7.6246Y1.0228
X7.6819Y0.9335
X7.7949Y1.4378
X7.8206Y2.5078
X7.8665Y0.9666
X7.919Y2.397
X7.9992Y1.7742
X8.0248Y2.476
X8.069Y2.261
X8.1336Y1.724
X8.1407Y3.2854
X8.2168Y1.7196
X8.289Y0.4378
X8.3524Y0.8717
X8.3678Y1.0223
X8.3705Y0.1665
X8.4172Y3.2189
X8.4469Y0.7248
X8.526Y0.645
X8.5308Y1.4378
X8.5586Y2.5118
X8.68Y0.7673
X8.7622Y1.7742
X8.7823Y2.463
X8.831Y2.276
X8.854Y0.7634
X8.8932Y3.2819
X8.9402Y0.0642
X8.9599Y3.1228
X8.9739Y1.7184
X9.022Y0.2252
X9.0941Y0.8319
X9.1253Y1.0309
X9.1347Y0.2087
X9.2434Y0.6402
X9.3123Y0.9181
X9.3275Y2.5185
X9.493Y0.0992
X9.5101Y2.9231
X9.5243Y2.469
X9.5465Y1.7697
X9.563Y2.271
X9.5977Y0.6402
X9.6291Y2.9217
X9.646Y3.2774
X9.7355Y0.5638
X9.7382Y1.7654
X9.898Y3.2319
X9.9087Y0.7126
X9.9902Y2.4894
X10.0489Y2.2268
X10.1292Y2.8374
X10.2Y2.269
X10.3064Y0.8
X10.3445Y0.176
X10.406Y2.4336
X10.417Y2.2173
X10.4465Y0.9335
X10.474Y2.5003
X10.4954Y1.0232
X10.554Y3.258
X10.5686Y3.0634
X10.5737Y2.8185
X10.605Y3.4559
X10.6115Y0.6043
X10.6335Y0.9291
X10.6394Y0.6654
X10.6615Y1.637
X10.672Y3.206
X10.6804Y2.9795
X10.688Y2.79
X10.7229Y3.157
X10.783Y2.572
X10.801Y3.5224
X10.8585Y0.985
X10.9166Y2.2677
X10.98Y0.786
T2
X0.0687Y1.6027
X0.0687Y1.3979
X0.1491Y1.6027
X0.1491Y1.3979
X0.2215Y1.5727
X0.2215Y1.4279
X0.2515Y1.5003
X0.9011Y2.6263
X0.9276Y2.6903
X0.9276Y2.5623
X0.9916Y2.7168
X0.9916Y2.5357
X1.0557Y2.6903
X1.0557Y2.5623
X1.0822Y2.6263
X4.9995Y1.9649
X4.9995Y1.7838
X5.0468Y1.9649
X5.0468Y1.7838
X5.094Y1.9649
X5.094Y1.7838
X7.4523Y0.4609
X7.4523Y0.2798
X7.4995Y0.4609
X7.4995Y0.2798
X7.5468Y0.4609
X7.5468Y0.2798
X10.1905Y2.7168
X10.1905Y2.5357
X10.2377Y2.7168
X10.2377Y2.5357
X10.2849Y2.7175
X10.2849Y2.5357
X10.968Y1.5003
X10.998Y1.5727
X10.998Y1.4279
X11.0704Y1.6027
X11.0704Y1.3979
X11.1508Y1.6027
X11.1508Y1.3979
T4
X0.143Y2.5008
X0.143Y2.4008
X0.143Y2.3008
X0.143Y2.2008
X0.143Y2.1008
T5
X8.5597Y0.1625
X8.6597Y0.1625
X3.6847Y2.4125
X3.7847Y2.4125
X10.1535Y0.9125
X10.2535Y0.9125
X7.8098Y3.1625
X7.9097Y3.1625
X10.6222Y0.1625
X10.7222Y0.1625
X2.7472Y0.9125
X2.8472Y0.9125
X5.091Y0.1625
X5.191Y0.1625
X1.6222Y1.6625
X1.7223Y1.6625
X3.8722Y1.6625
X3.9722Y1.6625
X2.5597Y3.1625
X2.6597Y3.1625
X1.8097Y3.1625
X1.9098Y3.1625
X5.5598Y0.1625
X5.6597Y0.1625
X0.4972Y2.4125
X0.5972Y2.4125
X3.7785Y0.1625
X3.8785Y0.1625
X8.841Y0.1625
X8.941Y0.1625
X8.7472Y0.1625
X8.8472Y0.1625
X8.5597Y3.1625
X8.6597Y3.1625
X6.4035Y0.1625
X6.5035Y0.1625
X3.1222Y1.6625
X3.2222Y1.6625
X0.3097Y3.1625
X0.4098Y3.1625
X9.7785Y0.9125
X9.8785Y0.9125
X10.0597Y3.1625
X10.1597Y3.1625
X9.1222Y1.6625
X9.2222Y1.6625
X6.8723Y1.6625
X6.9722Y1.6625
X4.0598Y3.1625
X4.1597Y3.1625
X4.8098Y3.1625
X4.9097Y3.1625
X3.591Y0.1625
X3.691Y0.1625
X5.2785Y0.1625
X5.3785Y0.1625
X2.2785Y0.1625
X2.3785Y0.1625
X8.7472Y0.9125
X8.8472Y0.9125
X6.3098Y3.1625
X6.4097Y3.1625
X2.1847Y2.4125
X2.2847Y2.4125
X5.3723Y1.6625
X5.4722Y1.6625
X2.3722Y1.6625
X2.4722Y1.6625
X6.591Y0.1625
X6.691Y0.1625
X9.3097Y3.1625
X9.4097Y3.1625
X9.3097Y0.1625
X9.4097Y0.1625
X5.5598Y0.1625
X5.6597Y0.1625
X7.4348Y2.4125
X7.5347Y2.4125
X10.8097Y0.1625
X10.9097Y0.1625
X10.6222Y2.4125
X10.7222Y2.4125
X7.9035Y0.1625
X8.0035Y0.1625
X0.4035Y0.1625
X0.5035Y0.1625
X10.8097Y3.1625
X10.9097Y3.1625
X10.8097Y0.9125
X10.9097Y0.9125
X4.9035Y0.1625
X5.0035Y0.1625
X7.0598Y3.1625
X7.1597Y3.1625
X5.9348Y2.4125
X6.0347Y2.4125
X6.1223Y1.6625
X6.2222Y1.6625
X5.5598Y3.1625
X5.6597Y3.1625
X10.716Y0.1625
X10.816Y0.1625
X9.6847Y0.1625
X9.7847Y0.1625
X3.3097Y3.1625
X3.4097Y3.1625
X3.4972Y0.9125
X3.5972Y0.9125
X0.7785Y0.9125
X0.8785Y0.9125
X6.4973Y0.9125
X6.5972Y0.9125
X10.0597Y0.1625
X10.1597Y0.1625
X5.1848Y2.4125
X5.2847Y2.4125
X7.8098Y0.1625
X7.9097Y0.1625
X7.2473Y0.9125
X7.3472Y0.9125
X7.6223Y1.6625
X7.7222Y1.6625
X4.6223Y1.6625
X4.7222Y1.6625
X1.341Y0.1625
X1.441Y0.1625
X4.2473Y0.9125
X4.3472Y0.9125
X6.6848Y2.4125
X6.7847Y2.4125
X9.7785Y0.1625
X9.8785Y0.1625
X1.0597Y3.1625
X1.1598Y3.1625
X0.4972Y0.1625
X0.5972Y0.1625
X7.9973Y0.9125
X8.0972Y0.9125
X2.9347Y2.4125
X3.0347Y2.4125
X1.4347Y0.1625
X1.5348Y0.1625
X1.4347Y2.4125
X1.5348Y2.4125
X10.566Y2.2875
X10.566Y2.1875
X10.4347Y3.1625
X10.5347Y3.1625
X1.9972Y0.9125
X2.0972Y0.9125
X4.4348Y2.4125
X4.5347Y2.4125
X2.3722Y0.1625
X2.4722Y0.1625
X8.1847Y2.4125
X8.2847Y2.4125
X0.4035Y0.9125
X0.5035Y0.9125
X9.6847Y2.4125
X9.7847Y2.4125
X9.8722Y1.6625
X9.9722Y1.6625
X8.3722Y1.6625
X8.4722Y1.6625
X0.591Y1.6625
X0.691Y1.6625
X1.2472Y0.9125
X1.3473Y0.9125
X7.1535Y0.1625
X7.2535Y0.1625
X3.966Y0.1625
X4.066Y0.1625
X0.4035Y1.6625
X0.5035Y1.6625
X10.341Y1.6625
X10.441Y1.6625
X8.9347Y2.4125
X9.0347Y2.4125
X5.7473Y0.9125
X5.8472Y0.9125
X4.9973Y0.9125
X5.0972Y0.9125
T6
X5.4597Y0.4625
X5.7097Y0.5625
X0.3972Y2.7125
X0.6472Y2.8125
X3.6785Y0.4625
X3.9285Y0.5625
X8.741Y0.4625
X8.991Y0.5625
X8.6472Y0.4625
X8.8972Y0.5625
X8.4597Y3.4625
X8.7097Y3.5625
X6.3035Y0.4625
X6.5535Y0.5625
X3.0223Y1.9625
X3.2723Y2.0625
X0.2097Y3.4625
X0.4597Y3.5625
X9.6785Y1.2125
X9.9285Y1.3125
X9.9597Y3.4625
X10.2097Y3.5625
X9.0222Y1.9625
X9.2722Y2.0625
X6.7722Y1.9625
X7.0222Y2.0625
X3.9598Y3.4625
X4.2097Y3.5625
X4.7097Y3.4625
X4.9597Y3.5625
X3.491Y0.4625
X3.741Y0.5625
X5.1785Y0.4625
X5.4285Y0.5625
X2.1785Y0.4625
X2.4285Y0.5625
X8.6472Y1.2125
X8.8972Y1.3125
X6.2097Y3.4625
X6.4597Y3.5625
X2.0848Y2.7125
X2.3348Y2.8125
X5.2722Y1.9625
X5.5222Y2.0625
X2.2723Y1.9625
X2.5223Y2.0625
X6.491Y0.4625
X6.741Y0.5625
X9.2097Y3.4625
X9.4597Y3.5625
X9.2097Y0.4625
X9.4597Y0.5625
X5.4597Y0.4625
X5.7097Y0.5625
X7.3347Y2.7125
X7.5847Y2.8125
X10.7097Y0.4625
X10.9597Y0.5625
X10.5222Y2.7125
X10.7722Y2.8125
X7.8035Y0.4625
X8.0535Y0.5625
X0.3035Y0.4625
X0.5535Y0.5625
X10.7097Y3.4625
X10.9597Y3.5625
X10.7097Y1.2125
X10.9597Y1.3125
X4.8035Y0.4625
X5.0535Y0.5625
X6.9597Y3.4625
X7.2097Y3.5625
X5.8347Y2.7125
X6.0847Y2.8125
X6.0222Y1.9625
X6.2722Y2.0625
X5.4597Y3.4625
X5.7097Y3.5625
X10.616Y0.4625
X10.866Y0.5625
X9.5847Y0.4625
X9.8347Y0.5625
X3.2098Y3.4625
X3.4598Y3.5625
X3.3973Y1.2125
X3.6473Y1.3125
X0.6785Y1.2125
X0.9285Y1.3125
X6.3972Y1.2125
X6.6472Y1.3125
X9.9597Y0.4625
X10.2097Y0.5625
X5.0847Y2.7125
X5.3347Y2.8125
X7.7097Y0.4625
X7.9597Y0.5625
X7.1472Y1.2125
X7.3972Y1.3125
X7.5222Y1.9625
X7.7722Y2.0625
X4.5222Y1.9625
X4.7722Y2.0625
X1.241Y0.4625
X1.491Y0.5625
X4.1472Y1.2125
X4.3972Y1.3125
X6.5847Y2.7125
X6.8347Y2.8125
X9.6785Y0.4625
X9.9285Y0.5625
X0.9597Y3.4625
X1.2097Y3.5625
X0.3972Y0.4625
X0.6472Y0.5625
X7.8972Y1.2125
X8.1472Y1.3125
X2.8348Y2.7125
X3.0848Y2.8125
X1.3347Y0.4625
X1.5847Y0.5625
X1.3347Y2.7125
X1.5847Y2.8125
X10.866Y2.3875
X10.966Y2.1375
X10.3347Y3.4625
X10.5847Y3.5625
X1.8972Y1.2125
X2.1473Y1.3125
X4.3347Y2.7125
X4.5847Y2.8125
X2.2723Y0.4625
X2.5223Y0.5625
X8.0847Y2.7125
X8.3347Y2.8125
X0.3035Y1.2125
X0.5535Y1.3125
X9.5847Y2.7125
X9.8347Y2.8125
X9.7722Y1.9625
X10.0222Y2.0625
X8.2722Y1.9625
X8.5222Y2.0625
X0.491Y1.9625
X0.741Y2.0625
X1.1472Y1.2125
X1.3972Y1.3125
X7.0535Y0.4625
X7.3035Y0.5625
X3.866Y0.4625
X4.116Y0.5625
X0.3035Y1.9625
X0.5535Y2.0625
X10.241Y1.9625
X10.491Y2.0625
X8.8347Y2.7125
X9.0847Y2.8125
X5.6472Y1.2125
X5.8972Y1.3125
X4.8972Y1.2125
X5.1472Y1.3125
X8.4597Y0.4625
X8.7097Y0.5625
X3.5848Y2.7125
X3.8348Y2.8125
X10.0535Y1.2125
X10.3035Y1.3125
X7.7097Y3.4625
X7.9597Y3.5625
X10.5222Y0.4625
X10.7722Y0.5625
X2.6473Y1.2125
X2.8973Y1.3125
X4.991Y0.4625
X5.241Y0.5625
X1.5222Y1.9625
X1.7722Y2.0625
X3.7723Y1.9625
X4.0222Y2.0625
X2.4598Y3.4625
X2.7098Y3.5625
X1.7097Y3.4625
X1.9597Y3.5625
T8
X0.9916Y2.6263
T3
X0.547Y3.7114G85X0.547Y3.6878
G05
X0.547Y3.5567G85X0.547Y3.5134
G05
X0.8871Y3.7114G85X0.8871Y3.6878
G05
X0.8871Y3.5567G85X0.8871Y3.5134
G05
T7
X4.9975Y1.8743G85X5.096Y1.8743
G05
X7.4503Y0.3704G85X7.5488Y0.3704
G05
X10.1885Y2.6263G85X10.287Y2.6263
G05
T0
M30
