G04 #@! TF.GenerationSoftware,KiCad,Pcbnew,5.0.0-fee4fd1~65~ubuntu16.04.1*
G04 #@! TF.CreationDate,2018-07-30T21:12:11-04:00*
G04 #@! TF.ProjectId,co60,636F36302E6B696361645F7063620000,rev?*
G04 #@! TF.SameCoordinates,PX4b4f718PY8c7ecc0*
G04 #@! TF.FileFunction,Legend,Bot*
G04 #@! TF.FilePolarity,Positive*
%FSLAX46Y46*%
G04 Gerber Fmt 4.6, Leading zero omitted, Abs format (unit mm)*
G04 Created by KiCad (PCBNEW 5.0.0-fee4fd1~65~ubuntu16.04.1) date Mon Jul 30 21:12:11 2018*
%MOMM*%
%LPD*%
G01*
G04 APERTURE LIST*
%ADD10C,0.150000*%
%ADD11C,0.120000*%
%ADD12C,0.304800*%
%ADD13C,0.203200*%
%ADD14C,0.100000*%
%ADD15C,0.200000*%
G04 APERTURE END LIST*
D10*
X46325285Y78368400D02*
X47075285Y78118400D01*
X46325285Y77868400D01*
X47003857Y77189829D02*
X47039571Y77225543D01*
X47075285Y77332686D01*
X47075285Y77404115D01*
X47039571Y77511258D01*
X46968142Y77582686D01*
X46896714Y77618400D01*
X46753857Y77654115D01*
X46646714Y77654115D01*
X46503857Y77618400D01*
X46432428Y77582686D01*
X46361000Y77511258D01*
X46325285Y77404115D01*
X46325285Y77332686D01*
X46361000Y77225543D01*
X46396714Y77189829D01*
X47003857Y76439829D02*
X47039571Y76475543D01*
X47075285Y76582686D01*
X47075285Y76654115D01*
X47039571Y76761258D01*
X46968142Y76832686D01*
X46896714Y76868400D01*
X46753857Y76904115D01*
X46646714Y76904115D01*
X46503857Y76868400D01*
X46432428Y76832686D01*
X46361000Y76761258D01*
X46325285Y76654115D01*
X46325285Y76582686D01*
X46361000Y76475543D01*
X46396714Y76439829D01*
X44497185Y77690215D02*
X44140042Y77940215D01*
X44497185Y78118786D02*
X43747185Y78118786D01*
X43747185Y77833072D01*
X43782900Y77761643D01*
X43818614Y77725929D01*
X43890042Y77690215D01*
X43997185Y77690215D01*
X44068614Y77725929D01*
X44104328Y77761643D01*
X44140042Y77833072D01*
X44140042Y78118786D01*
X44461471Y77404500D02*
X44497185Y77297358D01*
X44497185Y77118786D01*
X44461471Y77047358D01*
X44425757Y77011643D01*
X44354328Y76975929D01*
X44282900Y76975929D01*
X44211471Y77011643D01*
X44175757Y77047358D01*
X44140042Y77118786D01*
X44104328Y77261643D01*
X44068614Y77333072D01*
X44032900Y77368786D01*
X43961471Y77404500D01*
X43890042Y77404500D01*
X43818614Y77368786D01*
X43782900Y77333072D01*
X43747185Y77261643D01*
X43747185Y77083072D01*
X43782900Y76975929D01*
X43747185Y76761643D02*
X43747185Y76333072D01*
X44497185Y76547358D02*
X43747185Y76547358D01*
X41639685Y78839072D02*
X40889685Y78839072D01*
X41425400Y78589072D01*
X40889685Y78339072D01*
X41639685Y78339072D01*
X41639685Y77981929D02*
X40889685Y77981929D01*
X41603971Y77660500D02*
X41639685Y77553358D01*
X41639685Y77374786D01*
X41603971Y77303358D01*
X41568257Y77267643D01*
X41496828Y77231929D01*
X41425400Y77231929D01*
X41353971Y77267643D01*
X41318257Y77303358D01*
X41282542Y77374786D01*
X41246828Y77517643D01*
X41211114Y77589072D01*
X41175400Y77624786D01*
X41103971Y77660500D01*
X41032542Y77660500D01*
X40961114Y77624786D01*
X40925400Y77589072D01*
X40889685Y77517643D01*
X40889685Y77339072D01*
X40925400Y77231929D01*
X40889685Y76767643D02*
X40889685Y76624786D01*
X40925400Y76553358D01*
X40996828Y76481929D01*
X41139685Y76446215D01*
X41389685Y76446215D01*
X41532542Y76481929D01*
X41603971Y76553358D01*
X41639685Y76624786D01*
X41639685Y76767643D01*
X41603971Y76839072D01*
X41532542Y76910500D01*
X41389685Y76946215D01*
X41139685Y76946215D01*
X40996828Y76910500D01*
X40925400Y76839072D01*
X40889685Y76767643D01*
X39480685Y78839072D02*
X38730685Y78839072D01*
X39266400Y78589072D01*
X38730685Y78339072D01*
X39480685Y78339072D01*
X38730685Y77839072D02*
X38730685Y77696215D01*
X38766400Y77624786D01*
X38837828Y77553358D01*
X38980685Y77517643D01*
X39230685Y77517643D01*
X39373542Y77553358D01*
X39444971Y77624786D01*
X39480685Y77696215D01*
X39480685Y77839072D01*
X39444971Y77910500D01*
X39373542Y77981929D01*
X39230685Y78017643D01*
X38980685Y78017643D01*
X38837828Y77981929D01*
X38766400Y77910500D01*
X38730685Y77839072D01*
X39444971Y77231929D02*
X39480685Y77124786D01*
X39480685Y76946215D01*
X39444971Y76874786D01*
X39409257Y76839072D01*
X39337828Y76803358D01*
X39266400Y76803358D01*
X39194971Y76839072D01*
X39159257Y76874786D01*
X39123542Y76946215D01*
X39087828Y77089072D01*
X39052114Y77160500D01*
X39016400Y77196215D01*
X38944971Y77231929D01*
X38873542Y77231929D01*
X38802114Y77196215D01*
X38766400Y77160500D01*
X38730685Y77089072D01*
X38730685Y76910500D01*
X38766400Y76803358D01*
X39480685Y76481929D02*
X38730685Y76481929D01*
X36904971Y78991858D02*
X36940685Y78884715D01*
X36940685Y78706143D01*
X36904971Y78634715D01*
X36869257Y78599000D01*
X36797828Y78563286D01*
X36726400Y78563286D01*
X36654971Y78599000D01*
X36619257Y78634715D01*
X36583542Y78706143D01*
X36547828Y78849000D01*
X36512114Y78920429D01*
X36476400Y78956143D01*
X36404971Y78991858D01*
X36333542Y78991858D01*
X36262114Y78956143D01*
X36226400Y78920429D01*
X36190685Y78849000D01*
X36190685Y78670429D01*
X36226400Y78563286D01*
X36869257Y77813286D02*
X36904971Y77849000D01*
X36940685Y77956143D01*
X36940685Y78027572D01*
X36904971Y78134715D01*
X36833542Y78206143D01*
X36762114Y78241858D01*
X36619257Y78277572D01*
X36512114Y78277572D01*
X36369257Y78241858D01*
X36297828Y78206143D01*
X36226400Y78134715D01*
X36190685Y78027572D01*
X36190685Y77956143D01*
X36226400Y77849000D01*
X36262114Y77813286D01*
X36940685Y77134715D02*
X36940685Y77491858D01*
X36190685Y77491858D01*
X36940685Y76884715D02*
X36190685Y76884715D01*
X36940685Y76456143D02*
X36512114Y76777572D01*
X36190685Y76456143D02*
X36619257Y76884715D01*
X33686400Y78041429D02*
X33650685Y78112858D01*
X33650685Y78220000D01*
X33686400Y78327143D01*
X33757828Y78398572D01*
X33829257Y78434286D01*
X33972114Y78470000D01*
X34079257Y78470000D01*
X34222114Y78434286D01*
X34293542Y78398572D01*
X34364971Y78327143D01*
X34400685Y78220000D01*
X34400685Y78148572D01*
X34364971Y78041429D01*
X34329257Y78005715D01*
X34079257Y78005715D01*
X34079257Y78148572D01*
X34400685Y77684286D02*
X33650685Y77684286D01*
X34400685Y77255715D01*
X33650685Y77255715D01*
X34400685Y76898572D02*
X33650685Y76898572D01*
X33650685Y76720000D01*
X33686400Y76612858D01*
X33757828Y76541429D01*
X33829257Y76505715D01*
X33972114Y76470000D01*
X34079257Y76470000D01*
X34222114Y76505715D01*
X34293542Y76541429D01*
X34364971Y76612858D01*
X34400685Y76720000D01*
X34400685Y76898572D01*
G04 #@! TO.C,USB1*
X13692200Y86743600D02*
X14992200Y86743600D01*
X22692200Y86743600D02*
X21392200Y86743600D01*
X22692200Y97243600D02*
X22692200Y86743600D01*
X13692200Y97243600D02*
X22692200Y97243600D01*
X13692200Y86743600D02*
X13692200Y97243600D01*
D11*
G04 #@! TO.C,R68*
X267061400Y2532000D02*
X267061400Y1532000D01*
X268421400Y1532000D02*
X268421400Y2532000D01*
G04 #@! TO.C,R67*
X253816400Y1913000D02*
X253816400Y2913000D01*
X252456400Y2913000D02*
X252456400Y1913000D01*
G04 #@! TO.C,R66*
X233485775Y3754375D02*
X233485775Y2754375D01*
X234845775Y2754375D02*
X234845775Y3754375D01*
G04 #@! TO.C,R65*
X229913900Y3754375D02*
X229913900Y2754375D01*
X231273900Y2754375D02*
X231273900Y3754375D01*
G04 #@! TO.C,R64*
X206101400Y3754375D02*
X206101400Y2754375D01*
X207461400Y2754375D02*
X207461400Y3754375D01*
G04 #@! TO.C,R63*
X158476400Y4945000D02*
X158476400Y3945000D01*
X159836400Y3945000D02*
X159836400Y4945000D01*
G04 #@! TO.C,R62*
X120376400Y3754375D02*
X120376400Y2754375D01*
X121736400Y2754375D02*
X121736400Y3754375D01*
G04 #@! TO.C,R61*
X116998200Y3725800D02*
X116998200Y2725800D01*
X118358200Y2725800D02*
X118358200Y3725800D01*
G04 #@! TO.C,R60*
X53701400Y3754375D02*
X53701400Y2754375D01*
X55061400Y2754375D02*
X55061400Y3754375D01*
G04 #@! TO.C,R59*
X29888900Y3754375D02*
X29888900Y2754375D01*
X31248900Y2754375D02*
X31248900Y3754375D01*
G04 #@! TO.C,R58*
X6076400Y3754375D02*
X6076400Y2754375D01*
X7436400Y2754375D02*
X7436400Y3754375D01*
G04 #@! TO.C,R57*
X276337650Y20603125D02*
X275337650Y20603125D01*
X275337650Y19243125D02*
X276337650Y19243125D01*
G04 #@! TO.C,R56*
X253726400Y22804375D02*
X253726400Y21804375D01*
X255086400Y21804375D02*
X255086400Y22804375D01*
G04 #@! TO.C,R55*
X218007650Y22804375D02*
X218007650Y21804375D01*
X219367650Y21804375D02*
X219367650Y22804375D01*
G04 #@! TO.C,R54*
X198957650Y22804375D02*
X198957650Y21804375D01*
X200317650Y21804375D02*
X200317650Y22804375D01*
G04 #@! TO.C,R53*
X179907650Y22804375D02*
X179907650Y21804375D01*
X181267650Y21804375D02*
X181267650Y22804375D01*
G04 #@! TO.C,R52*
X160857650Y22804375D02*
X160857650Y21804375D01*
X162217650Y21804375D02*
X162217650Y22804375D01*
G04 #@! TO.C,R51*
X141807650Y22804375D02*
X141807650Y21804375D01*
X143167650Y21804375D02*
X143167650Y22804375D01*
G04 #@! TO.C,R50*
X122757650Y22804375D02*
X122757650Y21804375D01*
X124117650Y21804375D02*
X124117650Y22804375D01*
G04 #@! TO.C,R49*
X103707650Y22804375D02*
X103707650Y21804375D01*
X105067650Y21804375D02*
X105067650Y22804375D01*
G04 #@! TO.C,R48*
X84657650Y22804375D02*
X84657650Y21804375D01*
X86017650Y21804375D02*
X86017650Y22804375D01*
G04 #@! TO.C,R47*
X65607650Y22804375D02*
X65607650Y21804375D01*
X66967650Y21804375D02*
X66967650Y22804375D01*
G04 #@! TO.C,R46*
X46557650Y22804375D02*
X46557650Y21804375D01*
X47917650Y21804375D02*
X47917650Y22804375D01*
G04 #@! TO.C,R45*
X27507650Y22804375D02*
X27507650Y21804375D01*
X28867650Y21804375D02*
X28867650Y22804375D01*
G04 #@! TO.C,R44*
X6076400Y25185625D02*
X6076400Y24185625D01*
X7436400Y24185625D02*
X7436400Y25185625D01*
G04 #@! TO.C,R43*
X258488900Y41854375D02*
X258488900Y40854375D01*
X259848900Y40854375D02*
X259848900Y41854375D01*
G04 #@! TO.C,R42*
X246582650Y41854375D02*
X246582650Y40854375D01*
X247942650Y40854375D02*
X247942650Y41854375D01*
G04 #@! TO.C,R41*
X227532650Y41854375D02*
X227532650Y40854375D01*
X228892650Y40854375D02*
X228892650Y41854375D01*
G04 #@! TO.C,R40*
X208482650Y41854375D02*
X208482650Y40854375D01*
X209842650Y40854375D02*
X209842650Y41854375D01*
G04 #@! TO.C,R39*
X189432650Y41854375D02*
X189432650Y40854375D01*
X190792650Y40854375D02*
X190792650Y41854375D01*
G04 #@! TO.C,R38*
X170382650Y41854375D02*
X170382650Y40854375D01*
X171742650Y40854375D02*
X171742650Y41854375D01*
G04 #@! TO.C,R37*
X151332650Y41854375D02*
X151332650Y40854375D01*
X152692650Y40854375D02*
X152692650Y41854375D01*
G04 #@! TO.C,R36*
X132282650Y41854375D02*
X132282650Y40854375D01*
X133642650Y40854375D02*
X133642650Y41854375D01*
G04 #@! TO.C,R35*
X113232650Y41854375D02*
X113232650Y40854375D01*
X114592650Y40854375D02*
X114592650Y41854375D01*
G04 #@! TO.C,R34*
X94182650Y41854375D02*
X94182650Y40854375D01*
X95542650Y40854375D02*
X95542650Y41854375D01*
G04 #@! TO.C,R33*
X75132650Y41854375D02*
X75132650Y40854375D01*
X76492650Y40854375D02*
X76492650Y41854375D01*
G04 #@! TO.C,R32*
X56082650Y41854375D02*
X56082650Y40854375D01*
X57442650Y40854375D02*
X57442650Y41854375D01*
G04 #@! TO.C,R31*
X37032650Y41854375D02*
X37032650Y40854375D01*
X38392650Y40854375D02*
X38392650Y41854375D01*
G04 #@! TO.C,R30*
X7267025Y44235625D02*
X7267025Y43235625D01*
X8627025Y43235625D02*
X8627025Y44235625D01*
G04 #@! TO.C,R29*
X265632650Y60904375D02*
X265632650Y59904375D01*
X266992650Y59904375D02*
X266992650Y60904375D01*
G04 #@! TO.C,R28*
X241820150Y60904375D02*
X241820150Y59904375D01*
X243180150Y59904375D02*
X243180150Y60904375D01*
G04 #@! TO.C,R27*
X222770150Y60904375D02*
X222770150Y59904375D01*
X224130150Y59904375D02*
X224130150Y60904375D01*
G04 #@! TO.C,R26*
X203720150Y60904375D02*
X203720150Y59904375D01*
X205080150Y59904375D02*
X205080150Y60904375D01*
G04 #@! TO.C,R25*
X184670150Y60904375D02*
X184670150Y59904375D01*
X186030150Y59904375D02*
X186030150Y60904375D01*
G04 #@! TO.C,R24*
X165620150Y60904375D02*
X165620150Y59904375D01*
X166980150Y59904375D02*
X166980150Y60904375D01*
G04 #@! TO.C,R23*
X146570150Y60904375D02*
X146570150Y59904375D01*
X147930150Y59904375D02*
X147930150Y60904375D01*
G04 #@! TO.C,R19*
X70370150Y60904375D02*
X70370150Y59904375D01*
X71730150Y59904375D02*
X71730150Y60904375D01*
G04 #@! TO.C,R18*
X51390000Y61879800D02*
X51390000Y60879800D01*
X52750000Y60879800D02*
X52750000Y61879800D01*
G04 #@! TO.C,R17*
X32270150Y63285625D02*
X32270150Y62285625D01*
X33630150Y62285625D02*
X33630150Y63285625D01*
G04 #@! TO.C,R16*
X8457650Y60904375D02*
X8457650Y59904375D01*
X9817650Y59904375D02*
X9817650Y60904375D01*
G04 #@! TO.C,R15*
X270395150Y79954375D02*
X270395150Y78954375D01*
X271755150Y78954375D02*
X271755150Y79954375D01*
G04 #@! TO.C,R14*
X250154525Y79954375D02*
X250154525Y78954375D01*
X251514525Y78954375D02*
X251514525Y79954375D01*
G04 #@! TO.C,R13*
X232295150Y79954375D02*
X232295150Y78954375D01*
X233655150Y78954375D02*
X233655150Y79954375D01*
G04 #@! TO.C,R12*
X213245150Y79954375D02*
X213245150Y78954375D01*
X214605150Y78954375D02*
X214605150Y79954375D01*
G04 #@! TO.C,R11*
X194195150Y79954375D02*
X194195150Y78954375D01*
X195555150Y78954375D02*
X195555150Y79954375D01*
G04 #@! TO.C,R10*
X175145150Y79954375D02*
X175145150Y78954375D01*
X176505150Y78954375D02*
X176505150Y79954375D01*
G04 #@! TO.C,R9*
X156095150Y79954375D02*
X156095150Y78954375D01*
X157455150Y78954375D02*
X157455150Y79954375D01*
G04 #@! TO.C,R8*
X137045150Y79954375D02*
X137045150Y78954375D01*
X138405150Y78954375D02*
X138405150Y79954375D01*
G04 #@! TO.C,R7*
X117995150Y79954375D02*
X117995150Y78954375D01*
X119355150Y78954375D02*
X119355150Y79954375D01*
G04 #@! TO.C,R6*
X98945150Y79954375D02*
X98945150Y78954375D01*
X100305150Y78954375D02*
X100305150Y79954375D01*
G04 #@! TO.C,R5*
X79895150Y79954375D02*
X79895150Y78954375D01*
X81255150Y78954375D02*
X81255150Y79954375D01*
G04 #@! TO.C,R4*
X60845150Y79954375D02*
X60845150Y78954375D01*
X62205150Y78954375D02*
X62205150Y79954375D01*
G04 #@! TO.C,R3*
X41795150Y79954375D02*
X41795150Y78954375D01*
X43155150Y78954375D02*
X43155150Y79954375D01*
G04 #@! TO.C,R2*
X22745150Y79954375D02*
X22745150Y78954375D01*
X24105150Y78954375D02*
X24105150Y79954375D01*
G04 #@! TO.C,R1*
X3695150Y79954375D02*
X3695150Y78954375D01*
X5055150Y78954375D02*
X5055150Y79954375D01*
G04 #@! TO.C,F1*
X13351400Y82870000D02*
X13351400Y81670000D01*
X15111400Y81670000D02*
X15111400Y82870000D01*
G04 #@! TO.C,D68*
X282790775Y11720000D02*
X280790775Y11720000D01*
X280790775Y11720000D02*
X280790775Y15620000D01*
X282790775Y11720000D02*
X282790775Y15620000D01*
G04 #@! TO.C,D67*
X263740775Y11720000D02*
X261740775Y11720000D01*
X261740775Y11720000D02*
X261740775Y15620000D01*
X263740775Y11720000D02*
X263740775Y15620000D01*
G04 #@! TO.C,D66*
X244690775Y14101250D02*
X242690775Y14101250D01*
X242690775Y14101250D02*
X242690775Y18001250D01*
X244690775Y14101250D02*
X244690775Y18001250D01*
G04 #@! TO.C,D65*
X212543900Y12910625D02*
X210543900Y12910625D01*
X210543900Y12910625D02*
X210543900Y16810625D01*
X212543900Y12910625D02*
X212543900Y16810625D01*
G04 #@! TO.C,D64*
X208972025Y12910625D02*
X206972025Y12910625D01*
X206972025Y12910625D02*
X206972025Y16810625D01*
X208972025Y12910625D02*
X208972025Y16810625D01*
G04 #@! TO.C,D63*
X156584525Y6957500D02*
X154584525Y6957500D01*
X154584525Y6957500D02*
X154584525Y10857500D01*
X156584525Y6957500D02*
X156584525Y10857500D01*
G04 #@! TO.C,D62*
X151822025Y6957500D02*
X149822025Y6957500D01*
X149822025Y6957500D02*
X149822025Y10857500D01*
X151822025Y6957500D02*
X151822025Y10857500D01*
G04 #@! TO.C,D61*
X111340775Y8148125D02*
X109340775Y8148125D01*
X109340775Y8148125D02*
X109340775Y12048125D01*
X111340775Y8148125D02*
X111340775Y12048125D01*
G04 #@! TO.C,D60*
X70859525Y8148125D02*
X68859525Y8148125D01*
X68859525Y8148125D02*
X68859525Y12048125D01*
X70859525Y8148125D02*
X70859525Y12048125D01*
G04 #@! TO.C,D59*
X47047025Y8148125D02*
X45047025Y8148125D01*
X45047025Y8148125D02*
X45047025Y12048125D01*
X47047025Y8148125D02*
X47047025Y12048125D01*
G04 #@! TO.C,D58*
X23733000Y11567600D02*
X21733000Y11567600D01*
X21733000Y11567600D02*
X21733000Y15467600D01*
X23733000Y11567600D02*
X23733000Y15467600D01*
G04 #@! TO.C,D57*
X282790775Y21245000D02*
X280790775Y21245000D01*
X280790775Y21245000D02*
X280790775Y25145000D01*
X282790775Y21245000D02*
X282790775Y25145000D01*
G04 #@! TO.C,D56*
X268503275Y27198125D02*
X266503275Y27198125D01*
X266503275Y27198125D02*
X266503275Y31098125D01*
X268503275Y27198125D02*
X268503275Y31098125D01*
G04 #@! TO.C,D55*
X232784525Y27198125D02*
X230784525Y27198125D01*
X230784525Y27198125D02*
X230784525Y31098125D01*
X232784525Y27198125D02*
X232784525Y31098125D01*
G04 #@! TO.C,D54*
X213734525Y27198125D02*
X211734525Y27198125D01*
X211734525Y27198125D02*
X211734525Y31098125D01*
X213734525Y27198125D02*
X213734525Y31098125D01*
G04 #@! TO.C,D53*
X194684525Y27198125D02*
X192684525Y27198125D01*
X192684525Y27198125D02*
X192684525Y31098125D01*
X194684525Y27198125D02*
X194684525Y31098125D01*
G04 #@! TO.C,D52*
X175634525Y27198125D02*
X173634525Y27198125D01*
X173634525Y27198125D02*
X173634525Y31098125D01*
X175634525Y27198125D02*
X175634525Y31098125D01*
G04 #@! TO.C,D51*
X156584525Y27198125D02*
X154584525Y27198125D01*
X154584525Y27198125D02*
X154584525Y31098125D01*
X156584525Y27198125D02*
X156584525Y31098125D01*
G04 #@! TO.C,D50*
X137534525Y27198125D02*
X135534525Y27198125D01*
X135534525Y27198125D02*
X135534525Y31098125D01*
X137534525Y27198125D02*
X137534525Y31098125D01*
G04 #@! TO.C,D49*
X118484525Y27198125D02*
X116484525Y27198125D01*
X116484525Y27198125D02*
X116484525Y31098125D01*
X118484525Y27198125D02*
X118484525Y31098125D01*
G04 #@! TO.C,D48*
X99434525Y27198125D02*
X97434525Y27198125D01*
X97434525Y27198125D02*
X97434525Y31098125D01*
X99434525Y27198125D02*
X99434525Y31098125D01*
G04 #@! TO.C,D47*
X80384525Y27198125D02*
X78384525Y27198125D01*
X78384525Y27198125D02*
X78384525Y31098125D01*
X80384525Y27198125D02*
X80384525Y31098125D01*
G04 #@! TO.C,D46*
X61334525Y27198125D02*
X59334525Y27198125D01*
X59334525Y27198125D02*
X59334525Y31098125D01*
X61334525Y27198125D02*
X61334525Y31098125D01*
G04 #@! TO.C,D45*
X42284525Y27198125D02*
X40284525Y27198125D01*
X40284525Y27198125D02*
X40284525Y31098125D01*
X42284525Y27198125D02*
X42284525Y31098125D01*
G04 #@! TO.C,D44*
X4184525Y27198125D02*
X2184525Y27198125D01*
X2184525Y27198125D02*
X2184525Y31098125D01*
X4184525Y27198125D02*
X4184525Y31098125D01*
G04 #@! TO.C,D43*
X273265775Y45057500D02*
X271265775Y45057500D01*
X271265775Y45057500D02*
X271265775Y48957500D01*
X273265775Y45057500D02*
X273265775Y48957500D01*
G04 #@! TO.C,D42*
X260168900Y52201250D02*
X258168900Y52201250D01*
X258168900Y52201250D02*
X258168900Y56101250D01*
X260168900Y52201250D02*
X260168900Y56101250D01*
G04 #@! TO.C,D41*
X242309525Y46248125D02*
X240309525Y46248125D01*
X240309525Y46248125D02*
X240309525Y50148125D01*
X242309525Y46248125D02*
X242309525Y50148125D01*
G04 #@! TO.C,D40*
X223259525Y46248125D02*
X221259525Y46248125D01*
X221259525Y46248125D02*
X221259525Y50148125D01*
X223259525Y46248125D02*
X223259525Y50148125D01*
G04 #@! TO.C,D39*
X204209525Y46248125D02*
X202209525Y46248125D01*
X202209525Y46248125D02*
X202209525Y50148125D01*
X204209525Y46248125D02*
X204209525Y50148125D01*
G04 #@! TO.C,D38*
X185159525Y46248125D02*
X183159525Y46248125D01*
X183159525Y46248125D02*
X183159525Y50148125D01*
X185159525Y46248125D02*
X185159525Y50148125D01*
G04 #@! TO.C,D37*
X166109525Y46248125D02*
X164109525Y46248125D01*
X164109525Y46248125D02*
X164109525Y50148125D01*
X166109525Y46248125D02*
X166109525Y50148125D01*
G04 #@! TO.C,D36*
X147059525Y46248125D02*
X145059525Y46248125D01*
X145059525Y46248125D02*
X145059525Y50148125D01*
X147059525Y46248125D02*
X147059525Y50148125D01*
G04 #@! TO.C,D35*
X111832900Y46250300D02*
X109832900Y46250300D01*
X109832900Y46250300D02*
X109832900Y50150300D01*
X111832900Y46250300D02*
X111832900Y50150300D01*
G04 #@! TO.C,D34*
X108959525Y46248125D02*
X106959525Y46248125D01*
X106959525Y46248125D02*
X106959525Y50148125D01*
X108959525Y46248125D02*
X108959525Y50148125D01*
G04 #@! TO.C,D33*
X89909525Y46248125D02*
X87909525Y46248125D01*
X87909525Y46248125D02*
X87909525Y50148125D01*
X89909525Y46248125D02*
X89909525Y50148125D01*
G04 #@! TO.C,D32*
X70859525Y46248125D02*
X68859525Y46248125D01*
X68859525Y46248125D02*
X68859525Y50148125D01*
X70859525Y46248125D02*
X70859525Y50148125D01*
G04 #@! TO.C,D31*
X51809525Y46248125D02*
X49809525Y46248125D01*
X49809525Y46248125D02*
X49809525Y50148125D01*
X51809525Y46248125D02*
X51809525Y50148125D01*
G04 #@! TO.C,D30*
X22043900Y40295000D02*
X20043900Y40295000D01*
X20043900Y40295000D02*
X20043900Y44195000D01*
X22043900Y40295000D02*
X22043900Y44195000D01*
G04 #@! TO.C,D29*
X278028275Y68870000D02*
X276028275Y68870000D01*
X276028275Y68870000D02*
X276028275Y72770000D01*
X278028275Y68870000D02*
X278028275Y72770000D01*
G04 #@! TO.C,D28*
X255406400Y67679375D02*
X253406400Y67679375D01*
X253406400Y67679375D02*
X253406400Y71579375D01*
X255406400Y67679375D02*
X255406400Y71579375D01*
G04 #@! TO.C,D27*
X237547025Y65298125D02*
X235547025Y65298125D01*
X235547025Y65298125D02*
X235547025Y69198125D01*
X237547025Y65298125D02*
X237547025Y69198125D01*
G04 #@! TO.C,D26*
X218497025Y65298125D02*
X216497025Y65298125D01*
X216497025Y65298125D02*
X216497025Y69198125D01*
X218497025Y65298125D02*
X218497025Y69198125D01*
G04 #@! TO.C,D25*
X199447025Y65298125D02*
X197447025Y65298125D01*
X197447025Y65298125D02*
X197447025Y69198125D01*
X199447025Y65298125D02*
X199447025Y69198125D01*
G04 #@! TO.C,D24*
X180397025Y65298125D02*
X178397025Y65298125D01*
X178397025Y65298125D02*
X178397025Y69198125D01*
X180397025Y65298125D02*
X180397025Y69198125D01*
G04 #@! TO.C,D23*
X161347025Y65298125D02*
X159347025Y65298125D01*
X159347025Y65298125D02*
X159347025Y69198125D01*
X161347025Y65298125D02*
X161347025Y69198125D01*
G04 #@! TO.C,D22*
X142297025Y65298125D02*
X140297025Y65298125D01*
X140297025Y65298125D02*
X140297025Y69198125D01*
X142297025Y65298125D02*
X142297025Y69198125D01*
G04 #@! TO.C,D21*
X123247025Y65298125D02*
X121247025Y65298125D01*
X121247025Y65298125D02*
X121247025Y69198125D01*
X123247025Y65298125D02*
X123247025Y69198125D01*
G04 #@! TO.C,D20*
X104197025Y65298125D02*
X102197025Y65298125D01*
X102197025Y65298125D02*
X102197025Y69198125D01*
X104197025Y65298125D02*
X104197025Y69198125D01*
G04 #@! TO.C,D19*
X85147025Y65298125D02*
X83147025Y65298125D01*
X83147025Y65298125D02*
X83147025Y69198125D01*
X85147025Y65298125D02*
X85147025Y69198125D01*
G04 #@! TO.C,D18*
X66097025Y65298125D02*
X64097025Y65298125D01*
X64097025Y65298125D02*
X64097025Y69198125D01*
X66097025Y65298125D02*
X66097025Y69198125D01*
G04 #@! TO.C,D17*
X47047025Y65298125D02*
X45047025Y65298125D01*
X45047025Y65298125D02*
X45047025Y69198125D01*
X47047025Y65298125D02*
X47047025Y69198125D01*
G04 #@! TO.C,D16*
X6565775Y68870000D02*
X4565775Y68870000D01*
X4565775Y68870000D02*
X4565775Y72770000D01*
X6565775Y68870000D02*
X6565775Y72770000D01*
G04 #@! TO.C,D15*
X282790775Y87920000D02*
X280790775Y87920000D01*
X280790775Y87920000D02*
X280790775Y91820000D01*
X282790775Y87920000D02*
X282790775Y91820000D01*
G04 #@! TO.C,D14*
X266709400Y87920000D02*
X264709400Y87920000D01*
X264709400Y87920000D02*
X264709400Y91820000D01*
X266709400Y87920000D02*
X266709400Y91820000D01*
G04 #@! TO.C,D13*
X247072025Y84348125D02*
X245072025Y84348125D01*
X245072025Y84348125D02*
X245072025Y88248125D01*
X247072025Y84348125D02*
X247072025Y88248125D01*
G04 #@! TO.C,D12*
X228022025Y84348125D02*
X226022025Y84348125D01*
X226022025Y84348125D02*
X226022025Y88248125D01*
X228022025Y84348125D02*
X228022025Y88248125D01*
G04 #@! TO.C,D11*
X208972025Y84348125D02*
X206972025Y84348125D01*
X206972025Y84348125D02*
X206972025Y88248125D01*
X208972025Y84348125D02*
X208972025Y88248125D01*
G04 #@! TO.C,D10*
X191021400Y89850000D02*
X191021400Y87850000D01*
X191021400Y87850000D02*
X187121400Y87850000D01*
X191021400Y89850000D02*
X187121400Y89850000D01*
G04 #@! TO.C,D9*
X170872025Y84348125D02*
X168872025Y84348125D01*
X168872025Y84348125D02*
X168872025Y88248125D01*
X170872025Y84348125D02*
X170872025Y88248125D01*
G04 #@! TO.C,D8*
X151822025Y84348125D02*
X149822025Y84348125D01*
X149822025Y84348125D02*
X149822025Y88248125D01*
X151822025Y84348125D02*
X151822025Y88248125D01*
G04 #@! TO.C,D7*
X132772025Y84348125D02*
X130772025Y84348125D01*
X130772025Y84348125D02*
X130772025Y88248125D01*
X132772025Y84348125D02*
X132772025Y88248125D01*
G04 #@! TO.C,D6*
X113722025Y84348125D02*
X111722025Y84348125D01*
X111722025Y84348125D02*
X111722025Y88248125D01*
X113722025Y84348125D02*
X113722025Y88248125D01*
G04 #@! TO.C,D5*
X94672025Y84348125D02*
X92672025Y84348125D01*
X92672025Y84348125D02*
X92672025Y88248125D01*
X94672025Y84348125D02*
X94672025Y88248125D01*
G04 #@! TO.C,D4*
X77031400Y89930000D02*
X77031400Y87930000D01*
X77031400Y87930000D02*
X73131400Y87930000D01*
X77031400Y89930000D02*
X73131400Y89930000D01*
G04 #@! TO.C,D3*
X56572025Y84348125D02*
X54572025Y84348125D01*
X54572025Y84348125D02*
X54572025Y88248125D01*
X56572025Y84348125D02*
X56572025Y88248125D01*
G04 #@! TO.C,D2*
X37522025Y84348125D02*
X35522025Y84348125D01*
X35522025Y84348125D02*
X35522025Y88248125D01*
X37522025Y84348125D02*
X37522025Y88248125D01*
G04 #@! TO.C,D1*
X3617400Y90440000D02*
X3617400Y92440000D01*
X3617400Y92440000D02*
X7517400Y92440000D01*
X3617400Y90440000D02*
X7517400Y90440000D01*
G04 #@! TO.C,Y1*
X43866800Y57858200D02*
X43866800Y60658200D01*
X43866800Y60658200D02*
X47166800Y60658200D01*
D12*
G04 #@! TO.C,U1*
X24374475Y48256825D02*
X34382075Y48256825D01*
X34382075Y48256825D02*
X34382075Y58264425D01*
X24857075Y58264425D02*
X34382075Y58264425D01*
X24374475Y57781825D02*
X24374475Y48256825D01*
X24857075Y58264425D02*
X24374475Y57781825D01*
D13*
X26203275Y57070625D02*
G75*
G03X26203275Y57070625I-635000J0D01*
G01*
D11*
G04 #@! TO.C,SW1*
X30392400Y38276000D02*
X30842400Y37826000D01*
X30392400Y34876000D02*
X30842400Y35326000D01*
X25792400Y34876000D02*
X25342400Y35326000D01*
X25792400Y38276000D02*
X25342400Y37826000D01*
X27092400Y33826000D02*
X29092400Y33826000D01*
X30842400Y37826000D02*
X30842400Y35326000D01*
X27092400Y39326000D02*
X29092400Y39326000D01*
X25342400Y37826000D02*
X25342400Y35326000D01*
G04 #@! TO.C,RC7*
X25531400Y90390000D02*
X26531400Y90390000D01*
X26531400Y91750000D02*
X25531400Y91750000D01*
G04 #@! TO.C,RC6*
X12745000Y86926800D02*
X12745000Y87926800D01*
X11385000Y87926800D02*
X11385000Y86926800D01*
G04 #@! TO.C,RC5*
X16451400Y79320000D02*
X16451400Y78320000D01*
X17811400Y78320000D02*
X17811400Y79320000D01*
G04 #@! TO.C,RC4*
X18601400Y79320000D02*
X18601400Y78320000D01*
X19961400Y78320000D02*
X19961400Y79320000D01*
G04 #@! TO.C,RC3*
X38895400Y57486000D02*
X39895400Y57486000D01*
X39895400Y58846000D02*
X38895400Y58846000D01*
G04 #@! TO.C,RC2*
X24115775Y43055625D02*
X25115775Y43055625D01*
X25115775Y44415625D02*
X24115775Y44415625D01*
G04 #@! TO.C,RC1*
X29735400Y43860000D02*
X28735400Y43860000D01*
X28735400Y42500000D02*
X29735400Y42500000D01*
G04 #@! TO.C,R22*
X127520150Y60904375D02*
X127520150Y59904375D01*
X128880150Y59904375D02*
X128880150Y60904375D01*
G04 #@! TO.C,R21*
X108470150Y60904375D02*
X108470150Y59904375D01*
X109830150Y59904375D02*
X109830150Y60904375D01*
G04 #@! TO.C,R20*
X89420150Y60904375D02*
X89420150Y59904375D01*
X90780150Y59904375D02*
X90780150Y60904375D01*
D10*
G04 #@! TO.C,DP1*
X18831400Y81620000D02*
X17531400Y81620000D01*
X18831400Y84520000D02*
X18831400Y81620000D01*
X17531400Y84520000D02*
X18831400Y84520000D01*
X17531400Y84520000D02*
X17531400Y81620000D01*
D11*
G04 #@! TO.C,C8*
X19503275Y58613750D02*
X20203275Y58613750D01*
X20203275Y59813750D02*
X19503275Y59813750D01*
G04 #@! TO.C,C7*
X35631400Y45620000D02*
X34931400Y45620000D01*
X34931400Y44420000D02*
X35631400Y44420000D01*
G04 #@! TO.C,C6*
X19503275Y49088750D02*
X20203275Y49088750D01*
X20203275Y50288750D02*
X19503275Y50288750D01*
G04 #@! TO.C,C5*
X20453275Y55291875D02*
X20453275Y55991875D01*
X19253275Y55991875D02*
X19253275Y55291875D01*
G04 #@! TO.C,C4*
X38983400Y56480000D02*
X38283400Y56480000D01*
X38283400Y55280000D02*
X38983400Y55280000D01*
G04 #@! TO.C,C3*
X29968900Y63135625D02*
X29968900Y62435625D01*
X31168900Y62435625D02*
X31168900Y63135625D01*
G04 #@! TO.C,C2*
X45892200Y62220000D02*
X45192200Y62220000D01*
X45192200Y61020000D02*
X45892200Y61020000D01*
G04 #@! TO.C,C1*
X45211400Y56280000D02*
X45911400Y56280000D01*
X45911400Y57480000D02*
X45211400Y57480000D01*
G04 #@! TO.C,J1*
X45466000Y73473000D02*
X32706000Y73473000D01*
X32706000Y73473000D02*
X32706000Y76133000D01*
X32706000Y76133000D02*
X45466000Y76133000D01*
X45466000Y76133000D02*
X45466000Y73473000D01*
X46736000Y73473000D02*
X48066000Y73473000D01*
X48066000Y73473000D02*
X48066000Y74803000D01*
D14*
G04 #@! TO.C,Q1*
X19457400Y37259000D02*
X19457400Y37534000D01*
X19457400Y37534000D02*
X19732400Y37909000D01*
X19732400Y37909000D02*
X19782400Y37909000D01*
X19782400Y37909000D02*
X19782400Y38684000D01*
X22757400Y37434000D02*
X22757400Y37909000D01*
X22757400Y37909000D02*
X22407400Y37909000D01*
X22532400Y36259000D02*
X22407400Y36259000D01*
X22457400Y36259000D02*
X22757400Y36259000D01*
X22757400Y36259000D02*
X22757400Y36709000D01*
X19457400Y36634000D02*
X19457400Y36259000D01*
X19457400Y36259000D02*
X19757400Y36259000D01*
G04 #@! TO.C,USB1*
D10*
X19930295Y85991220D02*
X19930295Y85181696D01*
X19882676Y85086458D01*
X19835057Y85038839D01*
X19739819Y84991220D01*
X19549342Y84991220D01*
X19454104Y85038839D01*
X19406485Y85086458D01*
X19358866Y85181696D01*
X19358866Y85991220D01*
X18930295Y85038839D02*
X18787438Y84991220D01*
X18549342Y84991220D01*
X18454104Y85038839D01*
X18406485Y85086458D01*
X18358866Y85181696D01*
X18358866Y85276934D01*
X18406485Y85372172D01*
X18454104Y85419791D01*
X18549342Y85467410D01*
X18739819Y85515029D01*
X18835057Y85562648D01*
X18882676Y85610267D01*
X18930295Y85705505D01*
X18930295Y85800743D01*
X18882676Y85895981D01*
X18835057Y85943600D01*
X18739819Y85991220D01*
X18501723Y85991220D01*
X18358866Y85943600D01*
X17596961Y85515029D02*
X17454104Y85467410D01*
X17406485Y85419791D01*
X17358866Y85324553D01*
X17358866Y85181696D01*
X17406485Y85086458D01*
X17454104Y85038839D01*
X17549342Y84991220D01*
X17930295Y84991220D01*
X17930295Y85991220D01*
X17596961Y85991220D01*
X17501723Y85943600D01*
X17454104Y85895981D01*
X17406485Y85800743D01*
X17406485Y85705505D01*
X17454104Y85610267D01*
X17501723Y85562648D01*
X17596961Y85515029D01*
X17930295Y85515029D01*
X16406485Y84991220D02*
X16977914Y84991220D01*
X16692200Y84991220D02*
X16692200Y85991220D01*
X16787438Y85848362D01*
X16882676Y85753124D01*
X16977914Y85705505D01*
G04 #@! TO.C,R68*
X266669780Y2700258D02*
X266193590Y3033591D01*
X266669780Y3271686D02*
X265669780Y3271686D01*
X265669780Y2890734D01*
X265717400Y2795496D01*
X265765019Y2747877D01*
X265860257Y2700258D01*
X266003114Y2700258D01*
X266098352Y2747877D01*
X266145971Y2795496D01*
X266193590Y2890734D01*
X266193590Y3271686D01*
X265669780Y1843115D02*
X265669780Y2033591D01*
X265717400Y2128829D01*
X265765019Y2176448D01*
X265907876Y2271686D01*
X266098352Y2319305D01*
X266479304Y2319305D01*
X266574542Y2271686D01*
X266622161Y2224067D01*
X266669780Y2128829D01*
X266669780Y1938353D01*
X266622161Y1843115D01*
X266574542Y1795496D01*
X266479304Y1747877D01*
X266241209Y1747877D01*
X266145971Y1795496D01*
X266098352Y1843115D01*
X266050733Y1938353D01*
X266050733Y2128829D01*
X266098352Y2224067D01*
X266145971Y2271686D01*
X266241209Y2319305D01*
X266098352Y1176448D02*
X266050733Y1271686D01*
X266003114Y1319305D01*
X265907876Y1366924D01*
X265860257Y1366924D01*
X265765019Y1319305D01*
X265717400Y1271686D01*
X265669780Y1176448D01*
X265669780Y985972D01*
X265717400Y890734D01*
X265765019Y843115D01*
X265860257Y795496D01*
X265907876Y795496D01*
X266003114Y843115D01*
X266050733Y890734D01*
X266098352Y985972D01*
X266098352Y1176448D01*
X266145971Y1271686D01*
X266193590Y1319305D01*
X266288828Y1366924D01*
X266479304Y1366924D01*
X266574542Y1319305D01*
X266622161Y1271686D01*
X266669780Y1176448D01*
X266669780Y985972D01*
X266622161Y890734D01*
X266574542Y843115D01*
X266479304Y795496D01*
X266288828Y795496D01*
X266193590Y843115D01*
X266145971Y890734D01*
X266098352Y985972D01*
G04 #@! TO.C,R67*
X251544057Y1173220D02*
X251877390Y1649410D01*
X252115485Y1173220D02*
X252115485Y2173220D01*
X251734533Y2173220D01*
X251639295Y2125600D01*
X251591676Y2077981D01*
X251544057Y1982743D01*
X251544057Y1839886D01*
X251591676Y1744648D01*
X251639295Y1697029D01*
X251734533Y1649410D01*
X252115485Y1649410D01*
X250686914Y2173220D02*
X250877390Y2173220D01*
X250972628Y2125600D01*
X251020247Y2077981D01*
X251115485Y1935124D01*
X251163104Y1744648D01*
X251163104Y1363696D01*
X251115485Y1268458D01*
X251067866Y1220839D01*
X250972628Y1173220D01*
X250782152Y1173220D01*
X250686914Y1220839D01*
X250639295Y1268458D01*
X250591676Y1363696D01*
X250591676Y1601791D01*
X250639295Y1697029D01*
X250686914Y1744648D01*
X250782152Y1792267D01*
X250972628Y1792267D01*
X251067866Y1744648D01*
X251115485Y1697029D01*
X251163104Y1601791D01*
X250258342Y2173220D02*
X249591676Y2173220D01*
X250020247Y1173220D01*
G04 #@! TO.C,R66*
X237091457Y1503420D02*
X237424790Y1979610D01*
X237662885Y1503420D02*
X237662885Y2503420D01*
X237281933Y2503420D01*
X237186695Y2455800D01*
X237139076Y2408181D01*
X237091457Y2312943D01*
X237091457Y2170086D01*
X237139076Y2074848D01*
X237186695Y2027229D01*
X237281933Y1979610D01*
X237662885Y1979610D01*
X236234314Y2503420D02*
X236424790Y2503420D01*
X236520028Y2455800D01*
X236567647Y2408181D01*
X236662885Y2265324D01*
X236710504Y2074848D01*
X236710504Y1693896D01*
X236662885Y1598658D01*
X236615266Y1551039D01*
X236520028Y1503420D01*
X236329552Y1503420D01*
X236234314Y1551039D01*
X236186695Y1598658D01*
X236139076Y1693896D01*
X236139076Y1931991D01*
X236186695Y2027229D01*
X236234314Y2074848D01*
X236329552Y2122467D01*
X236520028Y2122467D01*
X236615266Y2074848D01*
X236662885Y2027229D01*
X236710504Y1931991D01*
X235281933Y2503420D02*
X235472409Y2503420D01*
X235567647Y2455800D01*
X235615266Y2408181D01*
X235710504Y2265324D01*
X235758123Y2074848D01*
X235758123Y1693896D01*
X235710504Y1598658D01*
X235662885Y1551039D01*
X235567647Y1503420D01*
X235377171Y1503420D01*
X235281933Y1551039D01*
X235234314Y1598658D01*
X235186695Y1693896D01*
X235186695Y1931991D01*
X235234314Y2027229D01*
X235281933Y2074848D01*
X235377171Y2122467D01*
X235567647Y2122467D01*
X235662885Y2074848D01*
X235710504Y2027229D01*
X235758123Y1931991D01*
G04 #@! TO.C,R65*
X232496280Y3897233D02*
X232020090Y4230566D01*
X232496280Y4468661D02*
X231496280Y4468661D01*
X231496280Y4087709D01*
X231543900Y3992471D01*
X231591519Y3944852D01*
X231686757Y3897233D01*
X231829614Y3897233D01*
X231924852Y3944852D01*
X231972471Y3992471D01*
X232020090Y4087709D01*
X232020090Y4468661D01*
X231496280Y3040090D02*
X231496280Y3230566D01*
X231543900Y3325804D01*
X231591519Y3373423D01*
X231734376Y3468661D01*
X231924852Y3516280D01*
X232305804Y3516280D01*
X232401042Y3468661D01*
X232448661Y3421042D01*
X232496280Y3325804D01*
X232496280Y3135328D01*
X232448661Y3040090D01*
X232401042Y2992471D01*
X232305804Y2944852D01*
X232067709Y2944852D01*
X231972471Y2992471D01*
X231924852Y3040090D01*
X231877233Y3135328D01*
X231877233Y3325804D01*
X231924852Y3421042D01*
X231972471Y3468661D01*
X232067709Y3516280D01*
X231496280Y2040090D02*
X231496280Y2516280D01*
X231972471Y2563899D01*
X231924852Y2516280D01*
X231877233Y2421042D01*
X231877233Y2182947D01*
X231924852Y2087709D01*
X231972471Y2040090D01*
X232067709Y1992471D01*
X232305804Y1992471D01*
X232401042Y2040090D01*
X232448661Y2087709D01*
X232496280Y2182947D01*
X232496280Y2421042D01*
X232448661Y2516280D01*
X232401042Y2563899D01*
G04 #@! TO.C,R64*
X208683780Y3897233D02*
X208207590Y4230566D01*
X208683780Y4468661D02*
X207683780Y4468661D01*
X207683780Y4087709D01*
X207731400Y3992471D01*
X207779019Y3944852D01*
X207874257Y3897233D01*
X208017114Y3897233D01*
X208112352Y3944852D01*
X208159971Y3992471D01*
X208207590Y4087709D01*
X208207590Y4468661D01*
X207683780Y3040090D02*
X207683780Y3230566D01*
X207731400Y3325804D01*
X207779019Y3373423D01*
X207921876Y3468661D01*
X208112352Y3516280D01*
X208493304Y3516280D01*
X208588542Y3468661D01*
X208636161Y3421042D01*
X208683780Y3325804D01*
X208683780Y3135328D01*
X208636161Y3040090D01*
X208588542Y2992471D01*
X208493304Y2944852D01*
X208255209Y2944852D01*
X208159971Y2992471D01*
X208112352Y3040090D01*
X208064733Y3135328D01*
X208064733Y3325804D01*
X208112352Y3421042D01*
X208159971Y3468661D01*
X208255209Y3516280D01*
X208017114Y2087709D02*
X208683780Y2087709D01*
X207636161Y2325804D02*
X208350447Y2563899D01*
X208350447Y1944852D01*
G04 #@! TO.C,R63*
X161058780Y5087858D02*
X160582590Y5421191D01*
X161058780Y5659286D02*
X160058780Y5659286D01*
X160058780Y5278334D01*
X160106400Y5183096D01*
X160154019Y5135477D01*
X160249257Y5087858D01*
X160392114Y5087858D01*
X160487352Y5135477D01*
X160534971Y5183096D01*
X160582590Y5278334D01*
X160582590Y5659286D01*
X160058780Y4230715D02*
X160058780Y4421191D01*
X160106400Y4516429D01*
X160154019Y4564048D01*
X160296876Y4659286D01*
X160487352Y4706905D01*
X160868304Y4706905D01*
X160963542Y4659286D01*
X161011161Y4611667D01*
X161058780Y4516429D01*
X161058780Y4325953D01*
X161011161Y4230715D01*
X160963542Y4183096D01*
X160868304Y4135477D01*
X160630209Y4135477D01*
X160534971Y4183096D01*
X160487352Y4230715D01*
X160439733Y4325953D01*
X160439733Y4516429D01*
X160487352Y4611667D01*
X160534971Y4659286D01*
X160630209Y4706905D01*
X160058780Y3802143D02*
X160058780Y3183096D01*
X160439733Y3516429D01*
X160439733Y3373572D01*
X160487352Y3278334D01*
X160534971Y3230715D01*
X160630209Y3183096D01*
X160868304Y3183096D01*
X160963542Y3230715D01*
X161011161Y3278334D01*
X161058780Y3373572D01*
X161058780Y3659286D01*
X161011161Y3754524D01*
X160963542Y3802143D01*
G04 #@! TO.C,R62*
X122958780Y3897233D02*
X122482590Y4230566D01*
X122958780Y4468661D02*
X121958780Y4468661D01*
X121958780Y4087709D01*
X122006400Y3992471D01*
X122054019Y3944852D01*
X122149257Y3897233D01*
X122292114Y3897233D01*
X122387352Y3944852D01*
X122434971Y3992471D01*
X122482590Y4087709D01*
X122482590Y4468661D01*
X121958780Y3040090D02*
X121958780Y3230566D01*
X122006400Y3325804D01*
X122054019Y3373423D01*
X122196876Y3468661D01*
X122387352Y3516280D01*
X122768304Y3516280D01*
X122863542Y3468661D01*
X122911161Y3421042D01*
X122958780Y3325804D01*
X122958780Y3135328D01*
X122911161Y3040090D01*
X122863542Y2992471D01*
X122768304Y2944852D01*
X122530209Y2944852D01*
X122434971Y2992471D01*
X122387352Y3040090D01*
X122339733Y3135328D01*
X122339733Y3325804D01*
X122387352Y3421042D01*
X122434971Y3468661D01*
X122530209Y3516280D01*
X122054019Y2563899D02*
X122006400Y2516280D01*
X121958780Y2421042D01*
X121958780Y2182947D01*
X122006400Y2087709D01*
X122054019Y2040090D01*
X122149257Y1992471D01*
X122244495Y1992471D01*
X122387352Y2040090D01*
X122958780Y2611518D01*
X122958780Y1992471D01*
G04 #@! TO.C,R61*
X119580580Y3868658D02*
X119104390Y4201991D01*
X119580580Y4440086D02*
X118580580Y4440086D01*
X118580580Y4059134D01*
X118628200Y3963896D01*
X118675819Y3916277D01*
X118771057Y3868658D01*
X118913914Y3868658D01*
X119009152Y3916277D01*
X119056771Y3963896D01*
X119104390Y4059134D01*
X119104390Y4440086D01*
X118580580Y3011515D02*
X118580580Y3201991D01*
X118628200Y3297229D01*
X118675819Y3344848D01*
X118818676Y3440086D01*
X119009152Y3487705D01*
X119390104Y3487705D01*
X119485342Y3440086D01*
X119532961Y3392467D01*
X119580580Y3297229D01*
X119580580Y3106753D01*
X119532961Y3011515D01*
X119485342Y2963896D01*
X119390104Y2916277D01*
X119152009Y2916277D01*
X119056771Y2963896D01*
X119009152Y3011515D01*
X118961533Y3106753D01*
X118961533Y3297229D01*
X119009152Y3392467D01*
X119056771Y3440086D01*
X119152009Y3487705D01*
X119580580Y1963896D02*
X119580580Y2535324D01*
X119580580Y2249610D02*
X118580580Y2249610D01*
X118723438Y2344848D01*
X118818676Y2440086D01*
X118866295Y2535324D01*
G04 #@! TO.C,R60*
X56283780Y3897233D02*
X55807590Y4230566D01*
X56283780Y4468661D02*
X55283780Y4468661D01*
X55283780Y4087709D01*
X55331400Y3992471D01*
X55379019Y3944852D01*
X55474257Y3897233D01*
X55617114Y3897233D01*
X55712352Y3944852D01*
X55759971Y3992471D01*
X55807590Y4087709D01*
X55807590Y4468661D01*
X55283780Y3040090D02*
X55283780Y3230566D01*
X55331400Y3325804D01*
X55379019Y3373423D01*
X55521876Y3468661D01*
X55712352Y3516280D01*
X56093304Y3516280D01*
X56188542Y3468661D01*
X56236161Y3421042D01*
X56283780Y3325804D01*
X56283780Y3135328D01*
X56236161Y3040090D01*
X56188542Y2992471D01*
X56093304Y2944852D01*
X55855209Y2944852D01*
X55759971Y2992471D01*
X55712352Y3040090D01*
X55664733Y3135328D01*
X55664733Y3325804D01*
X55712352Y3421042D01*
X55759971Y3468661D01*
X55855209Y3516280D01*
X55283780Y2325804D02*
X55283780Y2230566D01*
X55331400Y2135328D01*
X55379019Y2087709D01*
X55474257Y2040090D01*
X55664733Y1992471D01*
X55902828Y1992471D01*
X56093304Y2040090D01*
X56188542Y2087709D01*
X56236161Y2135328D01*
X56283780Y2230566D01*
X56283780Y2325804D01*
X56236161Y2421042D01*
X56188542Y2468661D01*
X56093304Y2516280D01*
X55902828Y2563899D01*
X55664733Y2563899D01*
X55474257Y2516280D01*
X55379019Y2468661D01*
X55331400Y2421042D01*
X55283780Y2325804D01*
G04 #@! TO.C,R59*
X32471280Y3897233D02*
X31995090Y4230566D01*
X32471280Y4468661D02*
X31471280Y4468661D01*
X31471280Y4087709D01*
X31518900Y3992471D01*
X31566519Y3944852D01*
X31661757Y3897233D01*
X31804614Y3897233D01*
X31899852Y3944852D01*
X31947471Y3992471D01*
X31995090Y4087709D01*
X31995090Y4468661D01*
X31471280Y2992471D02*
X31471280Y3468661D01*
X31947471Y3516280D01*
X31899852Y3468661D01*
X31852233Y3373423D01*
X31852233Y3135328D01*
X31899852Y3040090D01*
X31947471Y2992471D01*
X32042709Y2944852D01*
X32280804Y2944852D01*
X32376042Y2992471D01*
X32423661Y3040090D01*
X32471280Y3135328D01*
X32471280Y3373423D01*
X32423661Y3468661D01*
X32376042Y3516280D01*
X32471280Y2468661D02*
X32471280Y2278185D01*
X32423661Y2182947D01*
X32376042Y2135328D01*
X32233185Y2040090D01*
X32042709Y1992471D01*
X31661757Y1992471D01*
X31566519Y2040090D01*
X31518900Y2087709D01*
X31471280Y2182947D01*
X31471280Y2373423D01*
X31518900Y2468661D01*
X31566519Y2516280D01*
X31661757Y2563899D01*
X31899852Y2563899D01*
X31995090Y2516280D01*
X32042709Y2468661D01*
X32090328Y2373423D01*
X32090328Y2182947D01*
X32042709Y2087709D01*
X31995090Y2040090D01*
X31899852Y1992471D01*
G04 #@! TO.C,R58*
X8658780Y3897233D02*
X8182590Y4230566D01*
X8658780Y4468661D02*
X7658780Y4468661D01*
X7658780Y4087709D01*
X7706400Y3992471D01*
X7754019Y3944852D01*
X7849257Y3897233D01*
X7992114Y3897233D01*
X8087352Y3944852D01*
X8134971Y3992471D01*
X8182590Y4087709D01*
X8182590Y4468661D01*
X7658780Y2992471D02*
X7658780Y3468661D01*
X8134971Y3516280D01*
X8087352Y3468661D01*
X8039733Y3373423D01*
X8039733Y3135328D01*
X8087352Y3040090D01*
X8134971Y2992471D01*
X8230209Y2944852D01*
X8468304Y2944852D01*
X8563542Y2992471D01*
X8611161Y3040090D01*
X8658780Y3135328D01*
X8658780Y3373423D01*
X8611161Y3468661D01*
X8563542Y3516280D01*
X8087352Y2373423D02*
X8039733Y2468661D01*
X7992114Y2516280D01*
X7896876Y2563899D01*
X7849257Y2563899D01*
X7754019Y2516280D01*
X7706400Y2468661D01*
X7658780Y2373423D01*
X7658780Y2182947D01*
X7706400Y2087709D01*
X7754019Y2040090D01*
X7849257Y1992471D01*
X7896876Y1992471D01*
X7992114Y2040090D01*
X8039733Y2087709D01*
X8087352Y2182947D01*
X8087352Y2373423D01*
X8134971Y2468661D01*
X8182590Y2516280D01*
X8277828Y2563899D01*
X8468304Y2563899D01*
X8563542Y2516280D01*
X8611161Y2468661D01*
X8658780Y2373423D01*
X8658780Y2182947D01*
X8611161Y2087709D01*
X8563542Y2040090D01*
X8468304Y1992471D01*
X8277828Y1992471D01*
X8182590Y2040090D01*
X8134971Y2087709D01*
X8087352Y2182947D01*
G04 #@! TO.C,R57*
X276480507Y18020745D02*
X276813840Y18496935D01*
X277051935Y18020745D02*
X277051935Y19020745D01*
X276670983Y19020745D01*
X276575745Y18973125D01*
X276528126Y18925506D01*
X276480507Y18830268D01*
X276480507Y18687411D01*
X276528126Y18592173D01*
X276575745Y18544554D01*
X276670983Y18496935D01*
X277051935Y18496935D01*
X275575745Y19020745D02*
X276051935Y19020745D01*
X276099554Y18544554D01*
X276051935Y18592173D01*
X275956697Y18639792D01*
X275718602Y18639792D01*
X275623364Y18592173D01*
X275575745Y18544554D01*
X275528126Y18449316D01*
X275528126Y18211221D01*
X275575745Y18115983D01*
X275623364Y18068364D01*
X275718602Y18020745D01*
X275956697Y18020745D01*
X276051935Y18068364D01*
X276099554Y18115983D01*
X275194792Y19020745D02*
X274528126Y19020745D01*
X274956697Y18020745D01*
G04 #@! TO.C,R56*
X256308780Y22947233D02*
X255832590Y23280566D01*
X256308780Y23518661D02*
X255308780Y23518661D01*
X255308780Y23137709D01*
X255356400Y23042471D01*
X255404019Y22994852D01*
X255499257Y22947233D01*
X255642114Y22947233D01*
X255737352Y22994852D01*
X255784971Y23042471D01*
X255832590Y23137709D01*
X255832590Y23518661D01*
X255308780Y22042471D02*
X255308780Y22518661D01*
X255784971Y22566280D01*
X255737352Y22518661D01*
X255689733Y22423423D01*
X255689733Y22185328D01*
X255737352Y22090090D01*
X255784971Y22042471D01*
X255880209Y21994852D01*
X256118304Y21994852D01*
X256213542Y22042471D01*
X256261161Y22090090D01*
X256308780Y22185328D01*
X256308780Y22423423D01*
X256261161Y22518661D01*
X256213542Y22566280D01*
X255308780Y21137709D02*
X255308780Y21328185D01*
X255356400Y21423423D01*
X255404019Y21471042D01*
X255546876Y21566280D01*
X255737352Y21613899D01*
X256118304Y21613899D01*
X256213542Y21566280D01*
X256261161Y21518661D01*
X256308780Y21423423D01*
X256308780Y21232947D01*
X256261161Y21137709D01*
X256213542Y21090090D01*
X256118304Y21042471D01*
X255880209Y21042471D01*
X255784971Y21090090D01*
X255737352Y21137709D01*
X255689733Y21232947D01*
X255689733Y21423423D01*
X255737352Y21518661D01*
X255784971Y21566280D01*
X255880209Y21613899D01*
G04 #@! TO.C,R55*
X220590030Y22947233D02*
X220113840Y23280566D01*
X220590030Y23518661D02*
X219590030Y23518661D01*
X219590030Y23137709D01*
X219637650Y23042471D01*
X219685269Y22994852D01*
X219780507Y22947233D01*
X219923364Y22947233D01*
X220018602Y22994852D01*
X220066221Y23042471D01*
X220113840Y23137709D01*
X220113840Y23518661D01*
X219590030Y22042471D02*
X219590030Y22518661D01*
X220066221Y22566280D01*
X220018602Y22518661D01*
X219970983Y22423423D01*
X219970983Y22185328D01*
X220018602Y22090090D01*
X220066221Y22042471D01*
X220161459Y21994852D01*
X220399554Y21994852D01*
X220494792Y22042471D01*
X220542411Y22090090D01*
X220590030Y22185328D01*
X220590030Y22423423D01*
X220542411Y22518661D01*
X220494792Y22566280D01*
X219590030Y21090090D02*
X219590030Y21566280D01*
X220066221Y21613899D01*
X220018602Y21566280D01*
X219970983Y21471042D01*
X219970983Y21232947D01*
X220018602Y21137709D01*
X220066221Y21090090D01*
X220161459Y21042471D01*
X220399554Y21042471D01*
X220494792Y21090090D01*
X220542411Y21137709D01*
X220590030Y21232947D01*
X220590030Y21471042D01*
X220542411Y21566280D01*
X220494792Y21613899D01*
G04 #@! TO.C,R54*
X201540030Y22947233D02*
X201063840Y23280566D01*
X201540030Y23518661D02*
X200540030Y23518661D01*
X200540030Y23137709D01*
X200587650Y23042471D01*
X200635269Y22994852D01*
X200730507Y22947233D01*
X200873364Y22947233D01*
X200968602Y22994852D01*
X201016221Y23042471D01*
X201063840Y23137709D01*
X201063840Y23518661D01*
X200540030Y22042471D02*
X200540030Y22518661D01*
X201016221Y22566280D01*
X200968602Y22518661D01*
X200920983Y22423423D01*
X200920983Y22185328D01*
X200968602Y22090090D01*
X201016221Y22042471D01*
X201111459Y21994852D01*
X201349554Y21994852D01*
X201444792Y22042471D01*
X201492411Y22090090D01*
X201540030Y22185328D01*
X201540030Y22423423D01*
X201492411Y22518661D01*
X201444792Y22566280D01*
X200873364Y21137709D02*
X201540030Y21137709D01*
X200492411Y21375804D02*
X201206697Y21613899D01*
X201206697Y20994852D01*
G04 #@! TO.C,R53*
X182490030Y22947233D02*
X182013840Y23280566D01*
X182490030Y23518661D02*
X181490030Y23518661D01*
X181490030Y23137709D01*
X181537650Y23042471D01*
X181585269Y22994852D01*
X181680507Y22947233D01*
X181823364Y22947233D01*
X181918602Y22994852D01*
X181966221Y23042471D01*
X182013840Y23137709D01*
X182013840Y23518661D01*
X181490030Y22042471D02*
X181490030Y22518661D01*
X181966221Y22566280D01*
X181918602Y22518661D01*
X181870983Y22423423D01*
X181870983Y22185328D01*
X181918602Y22090090D01*
X181966221Y22042471D01*
X182061459Y21994852D01*
X182299554Y21994852D01*
X182394792Y22042471D01*
X182442411Y22090090D01*
X182490030Y22185328D01*
X182490030Y22423423D01*
X182442411Y22518661D01*
X182394792Y22566280D01*
X181490030Y21661518D02*
X181490030Y21042471D01*
X181870983Y21375804D01*
X181870983Y21232947D01*
X181918602Y21137709D01*
X181966221Y21090090D01*
X182061459Y21042471D01*
X182299554Y21042471D01*
X182394792Y21090090D01*
X182442411Y21137709D01*
X182490030Y21232947D01*
X182490030Y21518661D01*
X182442411Y21613899D01*
X182394792Y21661518D01*
G04 #@! TO.C,R52*
X163440030Y22947233D02*
X162963840Y23280566D01*
X163440030Y23518661D02*
X162440030Y23518661D01*
X162440030Y23137709D01*
X162487650Y23042471D01*
X162535269Y22994852D01*
X162630507Y22947233D01*
X162773364Y22947233D01*
X162868602Y22994852D01*
X162916221Y23042471D01*
X162963840Y23137709D01*
X162963840Y23518661D01*
X162440030Y22042471D02*
X162440030Y22518661D01*
X162916221Y22566280D01*
X162868602Y22518661D01*
X162820983Y22423423D01*
X162820983Y22185328D01*
X162868602Y22090090D01*
X162916221Y22042471D01*
X163011459Y21994852D01*
X163249554Y21994852D01*
X163344792Y22042471D01*
X163392411Y22090090D01*
X163440030Y22185328D01*
X163440030Y22423423D01*
X163392411Y22518661D01*
X163344792Y22566280D01*
X162535269Y21613899D02*
X162487650Y21566280D01*
X162440030Y21471042D01*
X162440030Y21232947D01*
X162487650Y21137709D01*
X162535269Y21090090D01*
X162630507Y21042471D01*
X162725745Y21042471D01*
X162868602Y21090090D01*
X163440030Y21661518D01*
X163440030Y21042471D01*
G04 #@! TO.C,R51*
X144390030Y22947233D02*
X143913840Y23280566D01*
X144390030Y23518661D02*
X143390030Y23518661D01*
X143390030Y23137709D01*
X143437650Y23042471D01*
X143485269Y22994852D01*
X143580507Y22947233D01*
X143723364Y22947233D01*
X143818602Y22994852D01*
X143866221Y23042471D01*
X143913840Y23137709D01*
X143913840Y23518661D01*
X143390030Y22042471D02*
X143390030Y22518661D01*
X143866221Y22566280D01*
X143818602Y22518661D01*
X143770983Y22423423D01*
X143770983Y22185328D01*
X143818602Y22090090D01*
X143866221Y22042471D01*
X143961459Y21994852D01*
X144199554Y21994852D01*
X144294792Y22042471D01*
X144342411Y22090090D01*
X144390030Y22185328D01*
X144390030Y22423423D01*
X144342411Y22518661D01*
X144294792Y22566280D01*
X144390030Y21042471D02*
X144390030Y21613899D01*
X144390030Y21328185D02*
X143390030Y21328185D01*
X143532888Y21423423D01*
X143628126Y21518661D01*
X143675745Y21613899D01*
G04 #@! TO.C,R50*
X125340030Y22947233D02*
X124863840Y23280566D01*
X125340030Y23518661D02*
X124340030Y23518661D01*
X124340030Y23137709D01*
X124387650Y23042471D01*
X124435269Y22994852D01*
X124530507Y22947233D01*
X124673364Y22947233D01*
X124768602Y22994852D01*
X124816221Y23042471D01*
X124863840Y23137709D01*
X124863840Y23518661D01*
X124340030Y22042471D02*
X124340030Y22518661D01*
X124816221Y22566280D01*
X124768602Y22518661D01*
X124720983Y22423423D01*
X124720983Y22185328D01*
X124768602Y22090090D01*
X124816221Y22042471D01*
X124911459Y21994852D01*
X125149554Y21994852D01*
X125244792Y22042471D01*
X125292411Y22090090D01*
X125340030Y22185328D01*
X125340030Y22423423D01*
X125292411Y22518661D01*
X125244792Y22566280D01*
X124340030Y21375804D02*
X124340030Y21280566D01*
X124387650Y21185328D01*
X124435269Y21137709D01*
X124530507Y21090090D01*
X124720983Y21042471D01*
X124959078Y21042471D01*
X125149554Y21090090D01*
X125244792Y21137709D01*
X125292411Y21185328D01*
X125340030Y21280566D01*
X125340030Y21375804D01*
X125292411Y21471042D01*
X125244792Y21518661D01*
X125149554Y21566280D01*
X124959078Y21613899D01*
X124720983Y21613899D01*
X124530507Y21566280D01*
X124435269Y21518661D01*
X124387650Y21471042D01*
X124340030Y21375804D01*
G04 #@! TO.C,R49*
X106290030Y22947233D02*
X105813840Y23280566D01*
X106290030Y23518661D02*
X105290030Y23518661D01*
X105290030Y23137709D01*
X105337650Y23042471D01*
X105385269Y22994852D01*
X105480507Y22947233D01*
X105623364Y22947233D01*
X105718602Y22994852D01*
X105766221Y23042471D01*
X105813840Y23137709D01*
X105813840Y23518661D01*
X105623364Y22090090D02*
X106290030Y22090090D01*
X105242411Y22328185D02*
X105956697Y22566280D01*
X105956697Y21947233D01*
X106290030Y21518661D02*
X106290030Y21328185D01*
X106242411Y21232947D01*
X106194792Y21185328D01*
X106051935Y21090090D01*
X105861459Y21042471D01*
X105480507Y21042471D01*
X105385269Y21090090D01*
X105337650Y21137709D01*
X105290030Y21232947D01*
X105290030Y21423423D01*
X105337650Y21518661D01*
X105385269Y21566280D01*
X105480507Y21613899D01*
X105718602Y21613899D01*
X105813840Y21566280D01*
X105861459Y21518661D01*
X105909078Y21423423D01*
X105909078Y21232947D01*
X105861459Y21137709D01*
X105813840Y21090090D01*
X105718602Y21042471D01*
G04 #@! TO.C,R48*
X87240030Y22947233D02*
X86763840Y23280566D01*
X87240030Y23518661D02*
X86240030Y23518661D01*
X86240030Y23137709D01*
X86287650Y23042471D01*
X86335269Y22994852D01*
X86430507Y22947233D01*
X86573364Y22947233D01*
X86668602Y22994852D01*
X86716221Y23042471D01*
X86763840Y23137709D01*
X86763840Y23518661D01*
X86573364Y22090090D02*
X87240030Y22090090D01*
X86192411Y22328185D02*
X86906697Y22566280D01*
X86906697Y21947233D01*
X86668602Y21423423D02*
X86620983Y21518661D01*
X86573364Y21566280D01*
X86478126Y21613899D01*
X86430507Y21613899D01*
X86335269Y21566280D01*
X86287650Y21518661D01*
X86240030Y21423423D01*
X86240030Y21232947D01*
X86287650Y21137709D01*
X86335269Y21090090D01*
X86430507Y21042471D01*
X86478126Y21042471D01*
X86573364Y21090090D01*
X86620983Y21137709D01*
X86668602Y21232947D01*
X86668602Y21423423D01*
X86716221Y21518661D01*
X86763840Y21566280D01*
X86859078Y21613899D01*
X87049554Y21613899D01*
X87144792Y21566280D01*
X87192411Y21518661D01*
X87240030Y21423423D01*
X87240030Y21232947D01*
X87192411Y21137709D01*
X87144792Y21090090D01*
X87049554Y21042471D01*
X86859078Y21042471D01*
X86763840Y21090090D01*
X86716221Y21137709D01*
X86668602Y21232947D01*
G04 #@! TO.C,R47*
X68190030Y22947233D02*
X67713840Y23280566D01*
X68190030Y23518661D02*
X67190030Y23518661D01*
X67190030Y23137709D01*
X67237650Y23042471D01*
X67285269Y22994852D01*
X67380507Y22947233D01*
X67523364Y22947233D01*
X67618602Y22994852D01*
X67666221Y23042471D01*
X67713840Y23137709D01*
X67713840Y23518661D01*
X67523364Y22090090D02*
X68190030Y22090090D01*
X67142411Y22328185D02*
X67856697Y22566280D01*
X67856697Y21947233D01*
X67190030Y21661518D02*
X67190030Y20994852D01*
X68190030Y21423423D01*
G04 #@! TO.C,R46*
X49140030Y22947233D02*
X48663840Y23280566D01*
X49140030Y23518661D02*
X48140030Y23518661D01*
X48140030Y23137709D01*
X48187650Y23042471D01*
X48235269Y22994852D01*
X48330507Y22947233D01*
X48473364Y22947233D01*
X48568602Y22994852D01*
X48616221Y23042471D01*
X48663840Y23137709D01*
X48663840Y23518661D01*
X48473364Y22090090D02*
X49140030Y22090090D01*
X48092411Y22328185D02*
X48806697Y22566280D01*
X48806697Y21947233D01*
X48140030Y21137709D02*
X48140030Y21328185D01*
X48187650Y21423423D01*
X48235269Y21471042D01*
X48378126Y21566280D01*
X48568602Y21613899D01*
X48949554Y21613899D01*
X49044792Y21566280D01*
X49092411Y21518661D01*
X49140030Y21423423D01*
X49140030Y21232947D01*
X49092411Y21137709D01*
X49044792Y21090090D01*
X48949554Y21042471D01*
X48711459Y21042471D01*
X48616221Y21090090D01*
X48568602Y21137709D01*
X48520983Y21232947D01*
X48520983Y21423423D01*
X48568602Y21518661D01*
X48616221Y21566280D01*
X48711459Y21613899D01*
G04 #@! TO.C,R45*
X30090030Y22947233D02*
X29613840Y23280566D01*
X30090030Y23518661D02*
X29090030Y23518661D01*
X29090030Y23137709D01*
X29137650Y23042471D01*
X29185269Y22994852D01*
X29280507Y22947233D01*
X29423364Y22947233D01*
X29518602Y22994852D01*
X29566221Y23042471D01*
X29613840Y23137709D01*
X29613840Y23518661D01*
X29423364Y22090090D02*
X30090030Y22090090D01*
X29042411Y22328185D02*
X29756697Y22566280D01*
X29756697Y21947233D01*
X29090030Y21090090D02*
X29090030Y21566280D01*
X29566221Y21613899D01*
X29518602Y21566280D01*
X29470983Y21471042D01*
X29470983Y21232947D01*
X29518602Y21137709D01*
X29566221Y21090090D01*
X29661459Y21042471D01*
X29899554Y21042471D01*
X29994792Y21090090D01*
X30042411Y21137709D01*
X30090030Y21232947D01*
X30090030Y21471042D01*
X30042411Y21566280D01*
X29994792Y21613899D01*
G04 #@! TO.C,R44*
X8658780Y25328483D02*
X8182590Y25661816D01*
X8658780Y25899911D02*
X7658780Y25899911D01*
X7658780Y25518959D01*
X7706400Y25423721D01*
X7754019Y25376102D01*
X7849257Y25328483D01*
X7992114Y25328483D01*
X8087352Y25376102D01*
X8134971Y25423721D01*
X8182590Y25518959D01*
X8182590Y25899911D01*
X7992114Y24471340D02*
X8658780Y24471340D01*
X7611161Y24709435D02*
X8325447Y24947530D01*
X8325447Y24328483D01*
X7992114Y23518959D02*
X8658780Y23518959D01*
X7611161Y23757054D02*
X8325447Y23995149D01*
X8325447Y23376102D01*
G04 #@! TO.C,R43*
X261071280Y41997233D02*
X260595090Y42330566D01*
X261071280Y42568661D02*
X260071280Y42568661D01*
X260071280Y42187709D01*
X260118900Y42092471D01*
X260166519Y42044852D01*
X260261757Y41997233D01*
X260404614Y41997233D01*
X260499852Y42044852D01*
X260547471Y42092471D01*
X260595090Y42187709D01*
X260595090Y42568661D01*
X260404614Y41140090D02*
X261071280Y41140090D01*
X260023661Y41378185D02*
X260737947Y41616280D01*
X260737947Y40997233D01*
X260071280Y40711518D02*
X260071280Y40092471D01*
X260452233Y40425804D01*
X260452233Y40282947D01*
X260499852Y40187709D01*
X260547471Y40140090D01*
X260642709Y40092471D01*
X260880804Y40092471D01*
X260976042Y40140090D01*
X261023661Y40187709D01*
X261071280Y40282947D01*
X261071280Y40568661D01*
X261023661Y40663899D01*
X260976042Y40711518D01*
G04 #@! TO.C,R42*
X249165030Y41997233D02*
X248688840Y42330566D01*
X249165030Y42568661D02*
X248165030Y42568661D01*
X248165030Y42187709D01*
X248212650Y42092471D01*
X248260269Y42044852D01*
X248355507Y41997233D01*
X248498364Y41997233D01*
X248593602Y42044852D01*
X248641221Y42092471D01*
X248688840Y42187709D01*
X248688840Y42568661D01*
X248498364Y41140090D02*
X249165030Y41140090D01*
X248117411Y41378185D02*
X248831697Y41616280D01*
X248831697Y40997233D01*
X248260269Y40663899D02*
X248212650Y40616280D01*
X248165030Y40521042D01*
X248165030Y40282947D01*
X248212650Y40187709D01*
X248260269Y40140090D01*
X248355507Y40092471D01*
X248450745Y40092471D01*
X248593602Y40140090D01*
X249165030Y40711518D01*
X249165030Y40092471D01*
G04 #@! TO.C,R41*
X230115030Y41997233D02*
X229638840Y42330566D01*
X230115030Y42568661D02*
X229115030Y42568661D01*
X229115030Y42187709D01*
X229162650Y42092471D01*
X229210269Y42044852D01*
X229305507Y41997233D01*
X229448364Y41997233D01*
X229543602Y42044852D01*
X229591221Y42092471D01*
X229638840Y42187709D01*
X229638840Y42568661D01*
X229448364Y41140090D02*
X230115030Y41140090D01*
X229067411Y41378185D02*
X229781697Y41616280D01*
X229781697Y40997233D01*
X230115030Y40092471D02*
X230115030Y40663899D01*
X230115030Y40378185D02*
X229115030Y40378185D01*
X229257888Y40473423D01*
X229353126Y40568661D01*
X229400745Y40663899D01*
G04 #@! TO.C,R40*
X211065030Y41997233D02*
X210588840Y42330566D01*
X211065030Y42568661D02*
X210065030Y42568661D01*
X210065030Y42187709D01*
X210112650Y42092471D01*
X210160269Y42044852D01*
X210255507Y41997233D01*
X210398364Y41997233D01*
X210493602Y42044852D01*
X210541221Y42092471D01*
X210588840Y42187709D01*
X210588840Y42568661D01*
X210398364Y41140090D02*
X211065030Y41140090D01*
X210017411Y41378185D02*
X210731697Y41616280D01*
X210731697Y40997233D01*
X210065030Y40425804D02*
X210065030Y40330566D01*
X210112650Y40235328D01*
X210160269Y40187709D01*
X210255507Y40140090D01*
X210445983Y40092471D01*
X210684078Y40092471D01*
X210874554Y40140090D01*
X210969792Y40187709D01*
X211017411Y40235328D01*
X211065030Y40330566D01*
X211065030Y40425804D01*
X211017411Y40521042D01*
X210969792Y40568661D01*
X210874554Y40616280D01*
X210684078Y40663899D01*
X210445983Y40663899D01*
X210255507Y40616280D01*
X210160269Y40568661D01*
X210112650Y40521042D01*
X210065030Y40425804D01*
G04 #@! TO.C,R39*
X192015030Y41997233D02*
X191538840Y42330566D01*
X192015030Y42568661D02*
X191015030Y42568661D01*
X191015030Y42187709D01*
X191062650Y42092471D01*
X191110269Y42044852D01*
X191205507Y41997233D01*
X191348364Y41997233D01*
X191443602Y42044852D01*
X191491221Y42092471D01*
X191538840Y42187709D01*
X191538840Y42568661D01*
X191015030Y41663899D02*
X191015030Y41044852D01*
X191395983Y41378185D01*
X191395983Y41235328D01*
X191443602Y41140090D01*
X191491221Y41092471D01*
X191586459Y41044852D01*
X191824554Y41044852D01*
X191919792Y41092471D01*
X191967411Y41140090D01*
X192015030Y41235328D01*
X192015030Y41521042D01*
X191967411Y41616280D01*
X191919792Y41663899D01*
X192015030Y40568661D02*
X192015030Y40378185D01*
X191967411Y40282947D01*
X191919792Y40235328D01*
X191776935Y40140090D01*
X191586459Y40092471D01*
X191205507Y40092471D01*
X191110269Y40140090D01*
X191062650Y40187709D01*
X191015030Y40282947D01*
X191015030Y40473423D01*
X191062650Y40568661D01*
X191110269Y40616280D01*
X191205507Y40663899D01*
X191443602Y40663899D01*
X191538840Y40616280D01*
X191586459Y40568661D01*
X191634078Y40473423D01*
X191634078Y40282947D01*
X191586459Y40187709D01*
X191538840Y40140090D01*
X191443602Y40092471D01*
G04 #@! TO.C,R38*
X172965030Y41997233D02*
X172488840Y42330566D01*
X172965030Y42568661D02*
X171965030Y42568661D01*
X171965030Y42187709D01*
X172012650Y42092471D01*
X172060269Y42044852D01*
X172155507Y41997233D01*
X172298364Y41997233D01*
X172393602Y42044852D01*
X172441221Y42092471D01*
X172488840Y42187709D01*
X172488840Y42568661D01*
X171965030Y41663899D02*
X171965030Y41044852D01*
X172345983Y41378185D01*
X172345983Y41235328D01*
X172393602Y41140090D01*
X172441221Y41092471D01*
X172536459Y41044852D01*
X172774554Y41044852D01*
X172869792Y41092471D01*
X172917411Y41140090D01*
X172965030Y41235328D01*
X172965030Y41521042D01*
X172917411Y41616280D01*
X172869792Y41663899D01*
X172393602Y40473423D02*
X172345983Y40568661D01*
X172298364Y40616280D01*
X172203126Y40663899D01*
X172155507Y40663899D01*
X172060269Y40616280D01*
X172012650Y40568661D01*
X171965030Y40473423D01*
X171965030Y40282947D01*
X172012650Y40187709D01*
X172060269Y40140090D01*
X172155507Y40092471D01*
X172203126Y40092471D01*
X172298364Y40140090D01*
X172345983Y40187709D01*
X172393602Y40282947D01*
X172393602Y40473423D01*
X172441221Y40568661D01*
X172488840Y40616280D01*
X172584078Y40663899D01*
X172774554Y40663899D01*
X172869792Y40616280D01*
X172917411Y40568661D01*
X172965030Y40473423D01*
X172965030Y40282947D01*
X172917411Y40187709D01*
X172869792Y40140090D01*
X172774554Y40092471D01*
X172584078Y40092471D01*
X172488840Y40140090D01*
X172441221Y40187709D01*
X172393602Y40282947D01*
G04 #@! TO.C,R37*
X153915030Y41997233D02*
X153438840Y42330566D01*
X153915030Y42568661D02*
X152915030Y42568661D01*
X152915030Y42187709D01*
X152962650Y42092471D01*
X153010269Y42044852D01*
X153105507Y41997233D01*
X153248364Y41997233D01*
X153343602Y42044852D01*
X153391221Y42092471D01*
X153438840Y42187709D01*
X153438840Y42568661D01*
X152915030Y41663899D02*
X152915030Y41044852D01*
X153295983Y41378185D01*
X153295983Y41235328D01*
X153343602Y41140090D01*
X153391221Y41092471D01*
X153486459Y41044852D01*
X153724554Y41044852D01*
X153819792Y41092471D01*
X153867411Y41140090D01*
X153915030Y41235328D01*
X153915030Y41521042D01*
X153867411Y41616280D01*
X153819792Y41663899D01*
X152915030Y40711518D02*
X152915030Y40044852D01*
X153915030Y40473423D01*
G04 #@! TO.C,R36*
X134865030Y41997233D02*
X134388840Y42330566D01*
X134865030Y42568661D02*
X133865030Y42568661D01*
X133865030Y42187709D01*
X133912650Y42092471D01*
X133960269Y42044852D01*
X134055507Y41997233D01*
X134198364Y41997233D01*
X134293602Y42044852D01*
X134341221Y42092471D01*
X134388840Y42187709D01*
X134388840Y42568661D01*
X133865030Y41663899D02*
X133865030Y41044852D01*
X134245983Y41378185D01*
X134245983Y41235328D01*
X134293602Y41140090D01*
X134341221Y41092471D01*
X134436459Y41044852D01*
X134674554Y41044852D01*
X134769792Y41092471D01*
X134817411Y41140090D01*
X134865030Y41235328D01*
X134865030Y41521042D01*
X134817411Y41616280D01*
X134769792Y41663899D01*
X133865030Y40187709D02*
X133865030Y40378185D01*
X133912650Y40473423D01*
X133960269Y40521042D01*
X134103126Y40616280D01*
X134293602Y40663899D01*
X134674554Y40663899D01*
X134769792Y40616280D01*
X134817411Y40568661D01*
X134865030Y40473423D01*
X134865030Y40282947D01*
X134817411Y40187709D01*
X134769792Y40140090D01*
X134674554Y40092471D01*
X134436459Y40092471D01*
X134341221Y40140090D01*
X134293602Y40187709D01*
X134245983Y40282947D01*
X134245983Y40473423D01*
X134293602Y40568661D01*
X134341221Y40616280D01*
X134436459Y40663899D01*
G04 #@! TO.C,R35*
X115815030Y41997233D02*
X115338840Y42330566D01*
X115815030Y42568661D02*
X114815030Y42568661D01*
X114815030Y42187709D01*
X114862650Y42092471D01*
X114910269Y42044852D01*
X115005507Y41997233D01*
X115148364Y41997233D01*
X115243602Y42044852D01*
X115291221Y42092471D01*
X115338840Y42187709D01*
X115338840Y42568661D01*
X114815030Y41663899D02*
X114815030Y41044852D01*
X115195983Y41378185D01*
X115195983Y41235328D01*
X115243602Y41140090D01*
X115291221Y41092471D01*
X115386459Y41044852D01*
X115624554Y41044852D01*
X115719792Y41092471D01*
X115767411Y41140090D01*
X115815030Y41235328D01*
X115815030Y41521042D01*
X115767411Y41616280D01*
X115719792Y41663899D01*
X114815030Y40140090D02*
X114815030Y40616280D01*
X115291221Y40663899D01*
X115243602Y40616280D01*
X115195983Y40521042D01*
X115195983Y40282947D01*
X115243602Y40187709D01*
X115291221Y40140090D01*
X115386459Y40092471D01*
X115624554Y40092471D01*
X115719792Y40140090D01*
X115767411Y40187709D01*
X115815030Y40282947D01*
X115815030Y40521042D01*
X115767411Y40616280D01*
X115719792Y40663899D01*
G04 #@! TO.C,R34*
X96765030Y41997233D02*
X96288840Y42330566D01*
X96765030Y42568661D02*
X95765030Y42568661D01*
X95765030Y42187709D01*
X95812650Y42092471D01*
X95860269Y42044852D01*
X95955507Y41997233D01*
X96098364Y41997233D01*
X96193602Y42044852D01*
X96241221Y42092471D01*
X96288840Y42187709D01*
X96288840Y42568661D01*
X95765030Y41663899D02*
X95765030Y41044852D01*
X96145983Y41378185D01*
X96145983Y41235328D01*
X96193602Y41140090D01*
X96241221Y41092471D01*
X96336459Y41044852D01*
X96574554Y41044852D01*
X96669792Y41092471D01*
X96717411Y41140090D01*
X96765030Y41235328D01*
X96765030Y41521042D01*
X96717411Y41616280D01*
X96669792Y41663899D01*
X96098364Y40187709D02*
X96765030Y40187709D01*
X95717411Y40425804D02*
X96431697Y40663899D01*
X96431697Y40044852D01*
G04 #@! TO.C,R33*
X77715030Y41997233D02*
X77238840Y42330566D01*
X77715030Y42568661D02*
X76715030Y42568661D01*
X76715030Y42187709D01*
X76762650Y42092471D01*
X76810269Y42044852D01*
X76905507Y41997233D01*
X77048364Y41997233D01*
X77143602Y42044852D01*
X77191221Y42092471D01*
X77238840Y42187709D01*
X77238840Y42568661D01*
X76715030Y41663899D02*
X76715030Y41044852D01*
X77095983Y41378185D01*
X77095983Y41235328D01*
X77143602Y41140090D01*
X77191221Y41092471D01*
X77286459Y41044852D01*
X77524554Y41044852D01*
X77619792Y41092471D01*
X77667411Y41140090D01*
X77715030Y41235328D01*
X77715030Y41521042D01*
X77667411Y41616280D01*
X77619792Y41663899D01*
X76715030Y40711518D02*
X76715030Y40092471D01*
X77095983Y40425804D01*
X77095983Y40282947D01*
X77143602Y40187709D01*
X77191221Y40140090D01*
X77286459Y40092471D01*
X77524554Y40092471D01*
X77619792Y40140090D01*
X77667411Y40187709D01*
X77715030Y40282947D01*
X77715030Y40568661D01*
X77667411Y40663899D01*
X77619792Y40711518D01*
G04 #@! TO.C,R32*
X58665030Y41997233D02*
X58188840Y42330566D01*
X58665030Y42568661D02*
X57665030Y42568661D01*
X57665030Y42187709D01*
X57712650Y42092471D01*
X57760269Y42044852D01*
X57855507Y41997233D01*
X57998364Y41997233D01*
X58093602Y42044852D01*
X58141221Y42092471D01*
X58188840Y42187709D01*
X58188840Y42568661D01*
X57665030Y41663899D02*
X57665030Y41044852D01*
X58045983Y41378185D01*
X58045983Y41235328D01*
X58093602Y41140090D01*
X58141221Y41092471D01*
X58236459Y41044852D01*
X58474554Y41044852D01*
X58569792Y41092471D01*
X58617411Y41140090D01*
X58665030Y41235328D01*
X58665030Y41521042D01*
X58617411Y41616280D01*
X58569792Y41663899D01*
X57760269Y40663899D02*
X57712650Y40616280D01*
X57665030Y40521042D01*
X57665030Y40282947D01*
X57712650Y40187709D01*
X57760269Y40140090D01*
X57855507Y40092471D01*
X57950745Y40092471D01*
X58093602Y40140090D01*
X58665030Y40711518D01*
X58665030Y40092471D01*
G04 #@! TO.C,R31*
X39615030Y41997233D02*
X39138840Y42330566D01*
X39615030Y42568661D02*
X38615030Y42568661D01*
X38615030Y42187709D01*
X38662650Y42092471D01*
X38710269Y42044852D01*
X38805507Y41997233D01*
X38948364Y41997233D01*
X39043602Y42044852D01*
X39091221Y42092471D01*
X39138840Y42187709D01*
X39138840Y42568661D01*
X38615030Y41663899D02*
X38615030Y41044852D01*
X38995983Y41378185D01*
X38995983Y41235328D01*
X39043602Y41140090D01*
X39091221Y41092471D01*
X39186459Y41044852D01*
X39424554Y41044852D01*
X39519792Y41092471D01*
X39567411Y41140090D01*
X39615030Y41235328D01*
X39615030Y41521042D01*
X39567411Y41616280D01*
X39519792Y41663899D01*
X39615030Y40092471D02*
X39615030Y40663899D01*
X39615030Y40378185D02*
X38615030Y40378185D01*
X38757888Y40473423D01*
X38853126Y40568661D01*
X38900745Y40663899D01*
G04 #@! TO.C,R30*
X6929380Y44407058D02*
X6453190Y44740391D01*
X6929380Y44978486D02*
X5929380Y44978486D01*
X5929380Y44597534D01*
X5977000Y44502296D01*
X6024619Y44454677D01*
X6119857Y44407058D01*
X6262714Y44407058D01*
X6357952Y44454677D01*
X6405571Y44502296D01*
X6453190Y44597534D01*
X6453190Y44978486D01*
X5929380Y44073724D02*
X5929380Y43454677D01*
X6310333Y43788010D01*
X6310333Y43645153D01*
X6357952Y43549915D01*
X6405571Y43502296D01*
X6500809Y43454677D01*
X6738904Y43454677D01*
X6834142Y43502296D01*
X6881761Y43549915D01*
X6929380Y43645153D01*
X6929380Y43930867D01*
X6881761Y44026105D01*
X6834142Y44073724D01*
X5929380Y42835629D02*
X5929380Y42740391D01*
X5977000Y42645153D01*
X6024619Y42597534D01*
X6119857Y42549915D01*
X6310333Y42502296D01*
X6548428Y42502296D01*
X6738904Y42549915D01*
X6834142Y42597534D01*
X6881761Y42645153D01*
X6929380Y42740391D01*
X6929380Y42835629D01*
X6881761Y42930867D01*
X6834142Y42978486D01*
X6738904Y43026105D01*
X6548428Y43073724D01*
X6310333Y43073724D01*
X6119857Y43026105D01*
X6024619Y42978486D01*
X5977000Y42930867D01*
X5929380Y42835629D01*
G04 #@! TO.C,R29*
X268193780Y61298058D02*
X267717590Y61631391D01*
X268193780Y61869486D02*
X267193780Y61869486D01*
X267193780Y61488534D01*
X267241400Y61393296D01*
X267289019Y61345677D01*
X267384257Y61298058D01*
X267527114Y61298058D01*
X267622352Y61345677D01*
X267669971Y61393296D01*
X267717590Y61488534D01*
X267717590Y61869486D01*
X267289019Y60917105D02*
X267241400Y60869486D01*
X267193780Y60774248D01*
X267193780Y60536153D01*
X267241400Y60440915D01*
X267289019Y60393296D01*
X267384257Y60345677D01*
X267479495Y60345677D01*
X267622352Y60393296D01*
X268193780Y60964724D01*
X268193780Y60345677D01*
X268193780Y59869486D02*
X268193780Y59679010D01*
X268146161Y59583772D01*
X268098542Y59536153D01*
X267955685Y59440915D01*
X267765209Y59393296D01*
X267384257Y59393296D01*
X267289019Y59440915D01*
X267241400Y59488534D01*
X267193780Y59583772D01*
X267193780Y59774248D01*
X267241400Y59869486D01*
X267289019Y59917105D01*
X267384257Y59964724D01*
X267622352Y59964724D01*
X267717590Y59917105D01*
X267765209Y59869486D01*
X267812828Y59774248D01*
X267812828Y59583772D01*
X267765209Y59488534D01*
X267717590Y59440915D01*
X267622352Y59393296D01*
G04 #@! TO.C,R28*
X244402530Y61047233D02*
X243926340Y61380566D01*
X244402530Y61618661D02*
X243402530Y61618661D01*
X243402530Y61237709D01*
X243450150Y61142471D01*
X243497769Y61094852D01*
X243593007Y61047233D01*
X243735864Y61047233D01*
X243831102Y61094852D01*
X243878721Y61142471D01*
X243926340Y61237709D01*
X243926340Y61618661D01*
X243497769Y60666280D02*
X243450150Y60618661D01*
X243402530Y60523423D01*
X243402530Y60285328D01*
X243450150Y60190090D01*
X243497769Y60142471D01*
X243593007Y60094852D01*
X243688245Y60094852D01*
X243831102Y60142471D01*
X244402530Y60713899D01*
X244402530Y60094852D01*
X243831102Y59523423D02*
X243783483Y59618661D01*
X243735864Y59666280D01*
X243640626Y59713899D01*
X243593007Y59713899D01*
X243497769Y59666280D01*
X243450150Y59618661D01*
X243402530Y59523423D01*
X243402530Y59332947D01*
X243450150Y59237709D01*
X243497769Y59190090D01*
X243593007Y59142471D01*
X243640626Y59142471D01*
X243735864Y59190090D01*
X243783483Y59237709D01*
X243831102Y59332947D01*
X243831102Y59523423D01*
X243878721Y59618661D01*
X243926340Y59666280D01*
X244021578Y59713899D01*
X244212054Y59713899D01*
X244307292Y59666280D01*
X244354911Y59618661D01*
X244402530Y59523423D01*
X244402530Y59332947D01*
X244354911Y59237709D01*
X244307292Y59190090D01*
X244212054Y59142471D01*
X244021578Y59142471D01*
X243926340Y59190090D01*
X243878721Y59237709D01*
X243831102Y59332947D01*
G04 #@! TO.C,R27*
X225352530Y61047233D02*
X224876340Y61380566D01*
X225352530Y61618661D02*
X224352530Y61618661D01*
X224352530Y61237709D01*
X224400150Y61142471D01*
X224447769Y61094852D01*
X224543007Y61047233D01*
X224685864Y61047233D01*
X224781102Y61094852D01*
X224828721Y61142471D01*
X224876340Y61237709D01*
X224876340Y61618661D01*
X224447769Y60666280D02*
X224400150Y60618661D01*
X224352530Y60523423D01*
X224352530Y60285328D01*
X224400150Y60190090D01*
X224447769Y60142471D01*
X224543007Y60094852D01*
X224638245Y60094852D01*
X224781102Y60142471D01*
X225352530Y60713899D01*
X225352530Y60094852D01*
X224352530Y59761518D02*
X224352530Y59094852D01*
X225352530Y59523423D01*
G04 #@! TO.C,R26*
X206302530Y61047233D02*
X205826340Y61380566D01*
X206302530Y61618661D02*
X205302530Y61618661D01*
X205302530Y61237709D01*
X205350150Y61142471D01*
X205397769Y61094852D01*
X205493007Y61047233D01*
X205635864Y61047233D01*
X205731102Y61094852D01*
X205778721Y61142471D01*
X205826340Y61237709D01*
X205826340Y61618661D01*
X205397769Y60666280D02*
X205350150Y60618661D01*
X205302530Y60523423D01*
X205302530Y60285328D01*
X205350150Y60190090D01*
X205397769Y60142471D01*
X205493007Y60094852D01*
X205588245Y60094852D01*
X205731102Y60142471D01*
X206302530Y60713899D01*
X206302530Y60094852D01*
X205302530Y59237709D02*
X205302530Y59428185D01*
X205350150Y59523423D01*
X205397769Y59571042D01*
X205540626Y59666280D01*
X205731102Y59713899D01*
X206112054Y59713899D01*
X206207292Y59666280D01*
X206254911Y59618661D01*
X206302530Y59523423D01*
X206302530Y59332947D01*
X206254911Y59237709D01*
X206207292Y59190090D01*
X206112054Y59142471D01*
X205873959Y59142471D01*
X205778721Y59190090D01*
X205731102Y59237709D01*
X205683483Y59332947D01*
X205683483Y59523423D01*
X205731102Y59618661D01*
X205778721Y59666280D01*
X205873959Y59713899D01*
G04 #@! TO.C,R25*
X187252530Y61047233D02*
X186776340Y61380566D01*
X187252530Y61618661D02*
X186252530Y61618661D01*
X186252530Y61237709D01*
X186300150Y61142471D01*
X186347769Y61094852D01*
X186443007Y61047233D01*
X186585864Y61047233D01*
X186681102Y61094852D01*
X186728721Y61142471D01*
X186776340Y61237709D01*
X186776340Y61618661D01*
X186347769Y60666280D02*
X186300150Y60618661D01*
X186252530Y60523423D01*
X186252530Y60285328D01*
X186300150Y60190090D01*
X186347769Y60142471D01*
X186443007Y60094852D01*
X186538245Y60094852D01*
X186681102Y60142471D01*
X187252530Y60713899D01*
X187252530Y60094852D01*
X186252530Y59190090D02*
X186252530Y59666280D01*
X186728721Y59713899D01*
X186681102Y59666280D01*
X186633483Y59571042D01*
X186633483Y59332947D01*
X186681102Y59237709D01*
X186728721Y59190090D01*
X186823959Y59142471D01*
X187062054Y59142471D01*
X187157292Y59190090D01*
X187204911Y59237709D01*
X187252530Y59332947D01*
X187252530Y59571042D01*
X187204911Y59666280D01*
X187157292Y59713899D01*
G04 #@! TO.C,R24*
X168202530Y61047233D02*
X167726340Y61380566D01*
X168202530Y61618661D02*
X167202530Y61618661D01*
X167202530Y61237709D01*
X167250150Y61142471D01*
X167297769Y61094852D01*
X167393007Y61047233D01*
X167535864Y61047233D01*
X167631102Y61094852D01*
X167678721Y61142471D01*
X167726340Y61237709D01*
X167726340Y61618661D01*
X167297769Y60666280D02*
X167250150Y60618661D01*
X167202530Y60523423D01*
X167202530Y60285328D01*
X167250150Y60190090D01*
X167297769Y60142471D01*
X167393007Y60094852D01*
X167488245Y60094852D01*
X167631102Y60142471D01*
X168202530Y60713899D01*
X168202530Y60094852D01*
X167535864Y59237709D02*
X168202530Y59237709D01*
X167154911Y59475804D02*
X167869197Y59713899D01*
X167869197Y59094852D01*
G04 #@! TO.C,R23*
X149152530Y61047233D02*
X148676340Y61380566D01*
X149152530Y61618661D02*
X148152530Y61618661D01*
X148152530Y61237709D01*
X148200150Y61142471D01*
X148247769Y61094852D01*
X148343007Y61047233D01*
X148485864Y61047233D01*
X148581102Y61094852D01*
X148628721Y61142471D01*
X148676340Y61237709D01*
X148676340Y61618661D01*
X148247769Y60666280D02*
X148200150Y60618661D01*
X148152530Y60523423D01*
X148152530Y60285328D01*
X148200150Y60190090D01*
X148247769Y60142471D01*
X148343007Y60094852D01*
X148438245Y60094852D01*
X148581102Y60142471D01*
X149152530Y60713899D01*
X149152530Y60094852D01*
X148152530Y59761518D02*
X148152530Y59142471D01*
X148533483Y59475804D01*
X148533483Y59332947D01*
X148581102Y59237709D01*
X148628721Y59190090D01*
X148723959Y59142471D01*
X148962054Y59142471D01*
X149057292Y59190090D01*
X149104911Y59237709D01*
X149152530Y59332947D01*
X149152530Y59618661D01*
X149104911Y59713899D01*
X149057292Y59761518D01*
G04 #@! TO.C,R19*
X72952530Y61047233D02*
X72476340Y61380566D01*
X72952530Y61618661D02*
X71952530Y61618661D01*
X71952530Y61237709D01*
X72000150Y61142471D01*
X72047769Y61094852D01*
X72143007Y61047233D01*
X72285864Y61047233D01*
X72381102Y61094852D01*
X72428721Y61142471D01*
X72476340Y61237709D01*
X72476340Y61618661D01*
X72952530Y60094852D02*
X72952530Y60666280D01*
X72952530Y60380566D02*
X71952530Y60380566D01*
X72095388Y60475804D01*
X72190626Y60571042D01*
X72238245Y60666280D01*
X72952530Y59618661D02*
X72952530Y59428185D01*
X72904911Y59332947D01*
X72857292Y59285328D01*
X72714435Y59190090D01*
X72523959Y59142471D01*
X72143007Y59142471D01*
X72047769Y59190090D01*
X72000150Y59237709D01*
X71952530Y59332947D01*
X71952530Y59523423D01*
X72000150Y59618661D01*
X72047769Y59666280D01*
X72143007Y59713899D01*
X72381102Y59713899D01*
X72476340Y59666280D01*
X72523959Y59618661D01*
X72571578Y59523423D01*
X72571578Y59332947D01*
X72523959Y59237709D01*
X72476340Y59190090D01*
X72381102Y59142471D01*
G04 #@! TO.C,R18*
X53972380Y62022658D02*
X53496190Y62355991D01*
X53972380Y62594086D02*
X52972380Y62594086D01*
X52972380Y62213134D01*
X53020000Y62117896D01*
X53067619Y62070277D01*
X53162857Y62022658D01*
X53305714Y62022658D01*
X53400952Y62070277D01*
X53448571Y62117896D01*
X53496190Y62213134D01*
X53496190Y62594086D01*
X53972380Y61070277D02*
X53972380Y61641705D01*
X53972380Y61355991D02*
X52972380Y61355991D01*
X53115238Y61451229D01*
X53210476Y61546467D01*
X53258095Y61641705D01*
X53400952Y60498848D02*
X53353333Y60594086D01*
X53305714Y60641705D01*
X53210476Y60689324D01*
X53162857Y60689324D01*
X53067619Y60641705D01*
X53020000Y60594086D01*
X52972380Y60498848D01*
X52972380Y60308372D01*
X53020000Y60213134D01*
X53067619Y60165515D01*
X53162857Y60117896D01*
X53210476Y60117896D01*
X53305714Y60165515D01*
X53353333Y60213134D01*
X53400952Y60308372D01*
X53400952Y60498848D01*
X53448571Y60594086D01*
X53496190Y60641705D01*
X53591428Y60689324D01*
X53781904Y60689324D01*
X53877142Y60641705D01*
X53924761Y60594086D01*
X53972380Y60498848D01*
X53972380Y60308372D01*
X53924761Y60213134D01*
X53877142Y60165515D01*
X53781904Y60117896D01*
X53591428Y60117896D01*
X53496190Y60165515D01*
X53448571Y60213134D01*
X53400952Y60308372D01*
G04 #@! TO.C,R17*
X34852530Y63428483D02*
X34376340Y63761816D01*
X34852530Y63999911D02*
X33852530Y63999911D01*
X33852530Y63618959D01*
X33900150Y63523721D01*
X33947769Y63476102D01*
X34043007Y63428483D01*
X34185864Y63428483D01*
X34281102Y63476102D01*
X34328721Y63523721D01*
X34376340Y63618959D01*
X34376340Y63999911D01*
X34852530Y62476102D02*
X34852530Y63047530D01*
X34852530Y62761816D02*
X33852530Y62761816D01*
X33995388Y62857054D01*
X34090626Y62952292D01*
X34138245Y63047530D01*
X33852530Y62142768D02*
X33852530Y61476102D01*
X34852530Y61904673D01*
G04 #@! TO.C,R16*
X11040030Y61047233D02*
X10563840Y61380566D01*
X11040030Y61618661D02*
X10040030Y61618661D01*
X10040030Y61237709D01*
X10087650Y61142471D01*
X10135269Y61094852D01*
X10230507Y61047233D01*
X10373364Y61047233D01*
X10468602Y61094852D01*
X10516221Y61142471D01*
X10563840Y61237709D01*
X10563840Y61618661D01*
X11040030Y60094852D02*
X11040030Y60666280D01*
X11040030Y60380566D02*
X10040030Y60380566D01*
X10182888Y60475804D01*
X10278126Y60571042D01*
X10325745Y60666280D01*
X10040030Y59237709D02*
X10040030Y59428185D01*
X10087650Y59523423D01*
X10135269Y59571042D01*
X10278126Y59666280D01*
X10468602Y59713899D01*
X10849554Y59713899D01*
X10944792Y59666280D01*
X10992411Y59618661D01*
X11040030Y59523423D01*
X11040030Y59332947D01*
X10992411Y59237709D01*
X10944792Y59190090D01*
X10849554Y59142471D01*
X10611459Y59142471D01*
X10516221Y59190090D01*
X10468602Y59237709D01*
X10420983Y59332947D01*
X10420983Y59523423D01*
X10468602Y59618661D01*
X10516221Y59666280D01*
X10611459Y59713899D01*
G04 #@! TO.C,R15*
X272977530Y80097233D02*
X272501340Y80430566D01*
X272977530Y80668661D02*
X271977530Y80668661D01*
X271977530Y80287709D01*
X272025150Y80192471D01*
X272072769Y80144852D01*
X272168007Y80097233D01*
X272310864Y80097233D01*
X272406102Y80144852D01*
X272453721Y80192471D01*
X272501340Y80287709D01*
X272501340Y80668661D01*
X272977530Y79144852D02*
X272977530Y79716280D01*
X272977530Y79430566D02*
X271977530Y79430566D01*
X272120388Y79525804D01*
X272215626Y79621042D01*
X272263245Y79716280D01*
X271977530Y78240090D02*
X271977530Y78716280D01*
X272453721Y78763899D01*
X272406102Y78716280D01*
X272358483Y78621042D01*
X272358483Y78382947D01*
X272406102Y78287709D01*
X272453721Y78240090D01*
X272548959Y78192471D01*
X272787054Y78192471D01*
X272882292Y78240090D01*
X272929911Y78287709D01*
X272977530Y78382947D01*
X272977530Y78621042D01*
X272929911Y78716280D01*
X272882292Y78763899D01*
G04 #@! TO.C,R14*
X249778780Y80119458D02*
X249302590Y80452791D01*
X249778780Y80690886D02*
X248778780Y80690886D01*
X248778780Y80309934D01*
X248826400Y80214696D01*
X248874019Y80167077D01*
X248969257Y80119458D01*
X249112114Y80119458D01*
X249207352Y80167077D01*
X249254971Y80214696D01*
X249302590Y80309934D01*
X249302590Y80690886D01*
X249778780Y79167077D02*
X249778780Y79738505D01*
X249778780Y79452791D02*
X248778780Y79452791D01*
X248921638Y79548029D01*
X249016876Y79643267D01*
X249064495Y79738505D01*
X249112114Y78309934D02*
X249778780Y78309934D01*
X248731161Y78548029D02*
X249445447Y78786124D01*
X249445447Y78167077D01*
G04 #@! TO.C,R13*
X234877530Y80097233D02*
X234401340Y80430566D01*
X234877530Y80668661D02*
X233877530Y80668661D01*
X233877530Y80287709D01*
X233925150Y80192471D01*
X233972769Y80144852D01*
X234068007Y80097233D01*
X234210864Y80097233D01*
X234306102Y80144852D01*
X234353721Y80192471D01*
X234401340Y80287709D01*
X234401340Y80668661D01*
X234877530Y79144852D02*
X234877530Y79716280D01*
X234877530Y79430566D02*
X233877530Y79430566D01*
X234020388Y79525804D01*
X234115626Y79621042D01*
X234163245Y79716280D01*
X233877530Y78811518D02*
X233877530Y78192471D01*
X234258483Y78525804D01*
X234258483Y78382947D01*
X234306102Y78287709D01*
X234353721Y78240090D01*
X234448959Y78192471D01*
X234687054Y78192471D01*
X234782292Y78240090D01*
X234829911Y78287709D01*
X234877530Y78382947D01*
X234877530Y78668661D01*
X234829911Y78763899D01*
X234782292Y78811518D01*
G04 #@! TO.C,R12*
X215827530Y80097233D02*
X215351340Y80430566D01*
X215827530Y80668661D02*
X214827530Y80668661D01*
X214827530Y80287709D01*
X214875150Y80192471D01*
X214922769Y80144852D01*
X215018007Y80097233D01*
X215160864Y80097233D01*
X215256102Y80144852D01*
X215303721Y80192471D01*
X215351340Y80287709D01*
X215351340Y80668661D01*
X215827530Y79144852D02*
X215827530Y79716280D01*
X215827530Y79430566D02*
X214827530Y79430566D01*
X214970388Y79525804D01*
X215065626Y79621042D01*
X215113245Y79716280D01*
X214922769Y78763899D02*
X214875150Y78716280D01*
X214827530Y78621042D01*
X214827530Y78382947D01*
X214875150Y78287709D01*
X214922769Y78240090D01*
X215018007Y78192471D01*
X215113245Y78192471D01*
X215256102Y78240090D01*
X215827530Y78811518D01*
X215827530Y78192471D01*
G04 #@! TO.C,R11*
X196777530Y80097233D02*
X196301340Y80430566D01*
X196777530Y80668661D02*
X195777530Y80668661D01*
X195777530Y80287709D01*
X195825150Y80192471D01*
X195872769Y80144852D01*
X195968007Y80097233D01*
X196110864Y80097233D01*
X196206102Y80144852D01*
X196253721Y80192471D01*
X196301340Y80287709D01*
X196301340Y80668661D01*
X196777530Y79144852D02*
X196777530Y79716280D01*
X196777530Y79430566D02*
X195777530Y79430566D01*
X195920388Y79525804D01*
X196015626Y79621042D01*
X196063245Y79716280D01*
X196777530Y78192471D02*
X196777530Y78763899D01*
X196777530Y78478185D02*
X195777530Y78478185D01*
X195920388Y78573423D01*
X196015626Y78668661D01*
X196063245Y78763899D01*
G04 #@! TO.C,R10*
X177727530Y80097233D02*
X177251340Y80430566D01*
X177727530Y80668661D02*
X176727530Y80668661D01*
X176727530Y80287709D01*
X176775150Y80192471D01*
X176822769Y80144852D01*
X176918007Y80097233D01*
X177060864Y80097233D01*
X177156102Y80144852D01*
X177203721Y80192471D01*
X177251340Y80287709D01*
X177251340Y80668661D01*
X177727530Y79144852D02*
X177727530Y79716280D01*
X177727530Y79430566D02*
X176727530Y79430566D01*
X176870388Y79525804D01*
X176965626Y79621042D01*
X177013245Y79716280D01*
X176727530Y78525804D02*
X176727530Y78430566D01*
X176775150Y78335328D01*
X176822769Y78287709D01*
X176918007Y78240090D01*
X177108483Y78192471D01*
X177346578Y78192471D01*
X177537054Y78240090D01*
X177632292Y78287709D01*
X177679911Y78335328D01*
X177727530Y78430566D01*
X177727530Y78525804D01*
X177679911Y78621042D01*
X177632292Y78668661D01*
X177537054Y78716280D01*
X177346578Y78763899D01*
X177108483Y78763899D01*
X176918007Y78716280D01*
X176822769Y78668661D01*
X176775150Y78621042D01*
X176727530Y78525804D01*
G04 #@! TO.C,R9*
X158677530Y79621042D02*
X158201340Y79954375D01*
X158677530Y80192471D02*
X157677530Y80192471D01*
X157677530Y79811518D01*
X157725150Y79716280D01*
X157772769Y79668661D01*
X157868007Y79621042D01*
X158010864Y79621042D01*
X158106102Y79668661D01*
X158153721Y79716280D01*
X158201340Y79811518D01*
X158201340Y80192471D01*
X158677530Y79144852D02*
X158677530Y78954375D01*
X158629911Y78859137D01*
X158582292Y78811518D01*
X158439435Y78716280D01*
X158248959Y78668661D01*
X157868007Y78668661D01*
X157772769Y78716280D01*
X157725150Y78763899D01*
X157677530Y78859137D01*
X157677530Y79049614D01*
X157725150Y79144852D01*
X157772769Y79192471D01*
X157868007Y79240090D01*
X158106102Y79240090D01*
X158201340Y79192471D01*
X158248959Y79144852D01*
X158296578Y79049614D01*
X158296578Y78859137D01*
X158248959Y78763899D01*
X158201340Y78716280D01*
X158106102Y78668661D01*
G04 #@! TO.C,R8*
X139627530Y79621042D02*
X139151340Y79954375D01*
X139627530Y80192471D02*
X138627530Y80192471D01*
X138627530Y79811518D01*
X138675150Y79716280D01*
X138722769Y79668661D01*
X138818007Y79621042D01*
X138960864Y79621042D01*
X139056102Y79668661D01*
X139103721Y79716280D01*
X139151340Y79811518D01*
X139151340Y80192471D01*
X139056102Y79049614D02*
X139008483Y79144852D01*
X138960864Y79192471D01*
X138865626Y79240090D01*
X138818007Y79240090D01*
X138722769Y79192471D01*
X138675150Y79144852D01*
X138627530Y79049614D01*
X138627530Y78859137D01*
X138675150Y78763899D01*
X138722769Y78716280D01*
X138818007Y78668661D01*
X138865626Y78668661D01*
X138960864Y78716280D01*
X139008483Y78763899D01*
X139056102Y78859137D01*
X139056102Y79049614D01*
X139103721Y79144852D01*
X139151340Y79192471D01*
X139246578Y79240090D01*
X139437054Y79240090D01*
X139532292Y79192471D01*
X139579911Y79144852D01*
X139627530Y79049614D01*
X139627530Y78859137D01*
X139579911Y78763899D01*
X139532292Y78716280D01*
X139437054Y78668661D01*
X139246578Y78668661D01*
X139151340Y78716280D01*
X139103721Y78763899D01*
X139056102Y78859137D01*
G04 #@! TO.C,R7*
X120577530Y79621042D02*
X120101340Y79954375D01*
X120577530Y80192471D02*
X119577530Y80192471D01*
X119577530Y79811518D01*
X119625150Y79716280D01*
X119672769Y79668661D01*
X119768007Y79621042D01*
X119910864Y79621042D01*
X120006102Y79668661D01*
X120053721Y79716280D01*
X120101340Y79811518D01*
X120101340Y80192471D01*
X119577530Y79287709D02*
X119577530Y78621042D01*
X120577530Y79049614D01*
G04 #@! TO.C,R6*
X101527530Y79621042D02*
X101051340Y79954375D01*
X101527530Y80192471D02*
X100527530Y80192471D01*
X100527530Y79811518D01*
X100575150Y79716280D01*
X100622769Y79668661D01*
X100718007Y79621042D01*
X100860864Y79621042D01*
X100956102Y79668661D01*
X101003721Y79716280D01*
X101051340Y79811518D01*
X101051340Y80192471D01*
X100527530Y78763899D02*
X100527530Y78954375D01*
X100575150Y79049614D01*
X100622769Y79097233D01*
X100765626Y79192471D01*
X100956102Y79240090D01*
X101337054Y79240090D01*
X101432292Y79192471D01*
X101479911Y79144852D01*
X101527530Y79049614D01*
X101527530Y78859137D01*
X101479911Y78763899D01*
X101432292Y78716280D01*
X101337054Y78668661D01*
X101098959Y78668661D01*
X101003721Y78716280D01*
X100956102Y78763899D01*
X100908483Y78859137D01*
X100908483Y79049614D01*
X100956102Y79144852D01*
X101003721Y79192471D01*
X101098959Y79240090D01*
G04 #@! TO.C,R5*
X82477530Y79621042D02*
X82001340Y79954375D01*
X82477530Y80192471D02*
X81477530Y80192471D01*
X81477530Y79811518D01*
X81525150Y79716280D01*
X81572769Y79668661D01*
X81668007Y79621042D01*
X81810864Y79621042D01*
X81906102Y79668661D01*
X81953721Y79716280D01*
X82001340Y79811518D01*
X82001340Y80192471D01*
X81477530Y78716280D02*
X81477530Y79192471D01*
X81953721Y79240090D01*
X81906102Y79192471D01*
X81858483Y79097233D01*
X81858483Y78859137D01*
X81906102Y78763899D01*
X81953721Y78716280D01*
X82048959Y78668661D01*
X82287054Y78668661D01*
X82382292Y78716280D01*
X82429911Y78763899D01*
X82477530Y78859137D01*
X82477530Y79097233D01*
X82429911Y79192471D01*
X82382292Y79240090D01*
G04 #@! TO.C,R4*
X63427530Y79621042D02*
X62951340Y79954375D01*
X63427530Y80192471D02*
X62427530Y80192471D01*
X62427530Y79811518D01*
X62475150Y79716280D01*
X62522769Y79668661D01*
X62618007Y79621042D01*
X62760864Y79621042D01*
X62856102Y79668661D01*
X62903721Y79716280D01*
X62951340Y79811518D01*
X62951340Y80192471D01*
X62760864Y78763899D02*
X63427530Y78763899D01*
X62379911Y79001995D02*
X63094197Y79240090D01*
X63094197Y78621042D01*
G04 #@! TO.C,R3*
X44377530Y79621042D02*
X43901340Y79954375D01*
X44377530Y80192471D02*
X43377530Y80192471D01*
X43377530Y79811518D01*
X43425150Y79716280D01*
X43472769Y79668661D01*
X43568007Y79621042D01*
X43710864Y79621042D01*
X43806102Y79668661D01*
X43853721Y79716280D01*
X43901340Y79811518D01*
X43901340Y80192471D01*
X43377530Y79287709D02*
X43377530Y78668661D01*
X43758483Y79001995D01*
X43758483Y78859137D01*
X43806102Y78763899D01*
X43853721Y78716280D01*
X43948959Y78668661D01*
X44187054Y78668661D01*
X44282292Y78716280D01*
X44329911Y78763899D01*
X44377530Y78859137D01*
X44377530Y79144852D01*
X44329911Y79240090D01*
X44282292Y79287709D01*
G04 #@! TO.C,R2*
X25327530Y79621042D02*
X24851340Y79954375D01*
X25327530Y80192471D02*
X24327530Y80192471D01*
X24327530Y79811518D01*
X24375150Y79716280D01*
X24422769Y79668661D01*
X24518007Y79621042D01*
X24660864Y79621042D01*
X24756102Y79668661D01*
X24803721Y79716280D01*
X24851340Y79811518D01*
X24851340Y80192471D01*
X24422769Y79240090D02*
X24375150Y79192471D01*
X24327530Y79097233D01*
X24327530Y78859137D01*
X24375150Y78763899D01*
X24422769Y78716280D01*
X24518007Y78668661D01*
X24613245Y78668661D01*
X24756102Y78716280D01*
X25327530Y79287709D01*
X25327530Y78668661D01*
G04 #@! TO.C,R1*
X6277530Y79621042D02*
X5801340Y79954375D01*
X6277530Y80192471D02*
X5277530Y80192471D01*
X5277530Y79811518D01*
X5325150Y79716280D01*
X5372769Y79668661D01*
X5468007Y79621042D01*
X5610864Y79621042D01*
X5706102Y79668661D01*
X5753721Y79716280D01*
X5801340Y79811518D01*
X5801340Y80192471D01*
X6277530Y78668661D02*
X6277530Y79240090D01*
X6277530Y78954375D02*
X5277530Y78954375D01*
X5420388Y79049614D01*
X5515626Y79144852D01*
X5563245Y79240090D01*
G04 #@! TO.C,F1*
X12222171Y82959534D02*
X12222171Y83292867D01*
X12745980Y83292867D02*
X11745980Y83292867D01*
X11745980Y82816677D01*
X12745980Y81911915D02*
X12745980Y82483343D01*
X12745980Y82197629D02*
X11745980Y82197629D01*
X11888838Y82292867D01*
X11984076Y82388105D01*
X12031695Y82483343D01*
G04 #@! TO.C,D68*
X284243155Y15184286D02*
X283243155Y15184286D01*
X283243155Y14946191D01*
X283290775Y14803334D01*
X283386013Y14708096D01*
X283481251Y14660477D01*
X283671727Y14612858D01*
X283814584Y14612858D01*
X284005060Y14660477D01*
X284100298Y14708096D01*
X284195536Y14803334D01*
X284243155Y14946191D01*
X284243155Y15184286D01*
X283243155Y13755715D02*
X283243155Y13946191D01*
X283290775Y14041429D01*
X283338394Y14089048D01*
X283481251Y14184286D01*
X283671727Y14231905D01*
X284052679Y14231905D01*
X284147917Y14184286D01*
X284195536Y14136667D01*
X284243155Y14041429D01*
X284243155Y13850953D01*
X284195536Y13755715D01*
X284147917Y13708096D01*
X284052679Y13660477D01*
X283814584Y13660477D01*
X283719346Y13708096D01*
X283671727Y13755715D01*
X283624108Y13850953D01*
X283624108Y14041429D01*
X283671727Y14136667D01*
X283719346Y14184286D01*
X283814584Y14231905D01*
X283671727Y13089048D02*
X283624108Y13184286D01*
X283576489Y13231905D01*
X283481251Y13279524D01*
X283433632Y13279524D01*
X283338394Y13231905D01*
X283290775Y13184286D01*
X283243155Y13089048D01*
X283243155Y12898572D01*
X283290775Y12803334D01*
X283338394Y12755715D01*
X283433632Y12708096D01*
X283481251Y12708096D01*
X283576489Y12755715D01*
X283624108Y12803334D01*
X283671727Y12898572D01*
X283671727Y13089048D01*
X283719346Y13184286D01*
X283766965Y13231905D01*
X283862203Y13279524D01*
X284052679Y13279524D01*
X284147917Y13231905D01*
X284195536Y13184286D01*
X284243155Y13089048D01*
X284243155Y12898572D01*
X284195536Y12803334D01*
X284147917Y12755715D01*
X284052679Y12708096D01*
X283862203Y12708096D01*
X283766965Y12755715D01*
X283719346Y12803334D01*
X283671727Y12898572D01*
G04 #@! TO.C,D67*
X265193155Y15184286D02*
X264193155Y15184286D01*
X264193155Y14946191D01*
X264240775Y14803334D01*
X264336013Y14708096D01*
X264431251Y14660477D01*
X264621727Y14612858D01*
X264764584Y14612858D01*
X264955060Y14660477D01*
X265050298Y14708096D01*
X265145536Y14803334D01*
X265193155Y14946191D01*
X265193155Y15184286D01*
X264193155Y13755715D02*
X264193155Y13946191D01*
X264240775Y14041429D01*
X264288394Y14089048D01*
X264431251Y14184286D01*
X264621727Y14231905D01*
X265002679Y14231905D01*
X265097917Y14184286D01*
X265145536Y14136667D01*
X265193155Y14041429D01*
X265193155Y13850953D01*
X265145536Y13755715D01*
X265097917Y13708096D01*
X265002679Y13660477D01*
X264764584Y13660477D01*
X264669346Y13708096D01*
X264621727Y13755715D01*
X264574108Y13850953D01*
X264574108Y14041429D01*
X264621727Y14136667D01*
X264669346Y14184286D01*
X264764584Y14231905D01*
X264193155Y13327143D02*
X264193155Y12660477D01*
X265193155Y13089048D01*
G04 #@! TO.C,D66*
X246143155Y17565536D02*
X245143155Y17565536D01*
X245143155Y17327441D01*
X245190775Y17184584D01*
X245286013Y17089346D01*
X245381251Y17041727D01*
X245571727Y16994108D01*
X245714584Y16994108D01*
X245905060Y17041727D01*
X246000298Y17089346D01*
X246095536Y17184584D01*
X246143155Y17327441D01*
X246143155Y17565536D01*
X245143155Y16136965D02*
X245143155Y16327441D01*
X245190775Y16422679D01*
X245238394Y16470298D01*
X245381251Y16565536D01*
X245571727Y16613155D01*
X245952679Y16613155D01*
X246047917Y16565536D01*
X246095536Y16517917D01*
X246143155Y16422679D01*
X246143155Y16232203D01*
X246095536Y16136965D01*
X246047917Y16089346D01*
X245952679Y16041727D01*
X245714584Y16041727D01*
X245619346Y16089346D01*
X245571727Y16136965D01*
X245524108Y16232203D01*
X245524108Y16422679D01*
X245571727Y16517917D01*
X245619346Y16565536D01*
X245714584Y16613155D01*
X245143155Y15184584D02*
X245143155Y15375060D01*
X245190775Y15470298D01*
X245238394Y15517917D01*
X245381251Y15613155D01*
X245571727Y15660774D01*
X245952679Y15660774D01*
X246047917Y15613155D01*
X246095536Y15565536D01*
X246143155Y15470298D01*
X246143155Y15279822D01*
X246095536Y15184584D01*
X246047917Y15136965D01*
X245952679Y15089346D01*
X245714584Y15089346D01*
X245619346Y15136965D01*
X245571727Y15184584D01*
X245524108Y15279822D01*
X245524108Y15470298D01*
X245571727Y15565536D01*
X245619346Y15613155D01*
X245714584Y15660774D01*
G04 #@! TO.C,D65*
X213996280Y16374911D02*
X212996280Y16374911D01*
X212996280Y16136816D01*
X213043900Y15993959D01*
X213139138Y15898721D01*
X213234376Y15851102D01*
X213424852Y15803483D01*
X213567709Y15803483D01*
X213758185Y15851102D01*
X213853423Y15898721D01*
X213948661Y15993959D01*
X213996280Y16136816D01*
X213996280Y16374911D01*
X212996280Y14946340D02*
X212996280Y15136816D01*
X213043900Y15232054D01*
X213091519Y15279673D01*
X213234376Y15374911D01*
X213424852Y15422530D01*
X213805804Y15422530D01*
X213901042Y15374911D01*
X213948661Y15327292D01*
X213996280Y15232054D01*
X213996280Y15041578D01*
X213948661Y14946340D01*
X213901042Y14898721D01*
X213805804Y14851102D01*
X213567709Y14851102D01*
X213472471Y14898721D01*
X213424852Y14946340D01*
X213377233Y15041578D01*
X213377233Y15232054D01*
X213424852Y15327292D01*
X213472471Y15374911D01*
X213567709Y15422530D01*
X212996280Y13946340D02*
X212996280Y14422530D01*
X213472471Y14470149D01*
X213424852Y14422530D01*
X213377233Y14327292D01*
X213377233Y14089197D01*
X213424852Y13993959D01*
X213472471Y13946340D01*
X213567709Y13898721D01*
X213805804Y13898721D01*
X213901042Y13946340D01*
X213948661Y13993959D01*
X213996280Y14089197D01*
X213996280Y14327292D01*
X213948661Y14422530D01*
X213901042Y14470149D01*
G04 #@! TO.C,D64*
X210424405Y16374911D02*
X209424405Y16374911D01*
X209424405Y16136816D01*
X209472025Y15993959D01*
X209567263Y15898721D01*
X209662501Y15851102D01*
X209852977Y15803483D01*
X209995834Y15803483D01*
X210186310Y15851102D01*
X210281548Y15898721D01*
X210376786Y15993959D01*
X210424405Y16136816D01*
X210424405Y16374911D01*
X209424405Y14946340D02*
X209424405Y15136816D01*
X209472025Y15232054D01*
X209519644Y15279673D01*
X209662501Y15374911D01*
X209852977Y15422530D01*
X210233929Y15422530D01*
X210329167Y15374911D01*
X210376786Y15327292D01*
X210424405Y15232054D01*
X210424405Y15041578D01*
X210376786Y14946340D01*
X210329167Y14898721D01*
X210233929Y14851102D01*
X209995834Y14851102D01*
X209900596Y14898721D01*
X209852977Y14946340D01*
X209805358Y15041578D01*
X209805358Y15232054D01*
X209852977Y15327292D01*
X209900596Y15374911D01*
X209995834Y15422530D01*
X209757739Y13993959D02*
X210424405Y13993959D01*
X209376786Y14232054D02*
X210091072Y14470149D01*
X210091072Y13851102D01*
G04 #@! TO.C,D63*
X157906980Y12517286D02*
X156906980Y12517286D01*
X156906980Y12279191D01*
X156954600Y12136334D01*
X157049838Y12041096D01*
X157145076Y11993477D01*
X157335552Y11945858D01*
X157478409Y11945858D01*
X157668885Y11993477D01*
X157764123Y12041096D01*
X157859361Y12136334D01*
X157906980Y12279191D01*
X157906980Y12517286D01*
X156906980Y11088715D02*
X156906980Y11279191D01*
X156954600Y11374429D01*
X157002219Y11422048D01*
X157145076Y11517286D01*
X157335552Y11564905D01*
X157716504Y11564905D01*
X157811742Y11517286D01*
X157859361Y11469667D01*
X157906980Y11374429D01*
X157906980Y11183953D01*
X157859361Y11088715D01*
X157811742Y11041096D01*
X157716504Y10993477D01*
X157478409Y10993477D01*
X157383171Y11041096D01*
X157335552Y11088715D01*
X157287933Y11183953D01*
X157287933Y11374429D01*
X157335552Y11469667D01*
X157383171Y11517286D01*
X157478409Y11564905D01*
X156906980Y10660143D02*
X156906980Y10041096D01*
X157287933Y10374429D01*
X157287933Y10231572D01*
X157335552Y10136334D01*
X157383171Y10088715D01*
X157478409Y10041096D01*
X157716504Y10041096D01*
X157811742Y10088715D01*
X157859361Y10136334D01*
X157906980Y10231572D01*
X157906980Y10517286D01*
X157859361Y10612524D01*
X157811742Y10660143D01*
G04 #@! TO.C,D62*
X153274405Y10421786D02*
X152274405Y10421786D01*
X152274405Y10183691D01*
X152322025Y10040834D01*
X152417263Y9945596D01*
X152512501Y9897977D01*
X152702977Y9850358D01*
X152845834Y9850358D01*
X153036310Y9897977D01*
X153131548Y9945596D01*
X153226786Y10040834D01*
X153274405Y10183691D01*
X153274405Y10421786D01*
X152274405Y8993215D02*
X152274405Y9183691D01*
X152322025Y9278929D01*
X152369644Y9326548D01*
X152512501Y9421786D01*
X152702977Y9469405D01*
X153083929Y9469405D01*
X153179167Y9421786D01*
X153226786Y9374167D01*
X153274405Y9278929D01*
X153274405Y9088453D01*
X153226786Y8993215D01*
X153179167Y8945596D01*
X153083929Y8897977D01*
X152845834Y8897977D01*
X152750596Y8945596D01*
X152702977Y8993215D01*
X152655358Y9088453D01*
X152655358Y9278929D01*
X152702977Y9374167D01*
X152750596Y9421786D01*
X152845834Y9469405D01*
X152369644Y8517024D02*
X152322025Y8469405D01*
X152274405Y8374167D01*
X152274405Y8136072D01*
X152322025Y8040834D01*
X152369644Y7993215D01*
X152464882Y7945596D01*
X152560120Y7945596D01*
X152702977Y7993215D01*
X153274405Y8564643D01*
X153274405Y7945596D01*
G04 #@! TO.C,D61*
X112793155Y11612411D02*
X111793155Y11612411D01*
X111793155Y11374316D01*
X111840775Y11231459D01*
X111936013Y11136221D01*
X112031251Y11088602D01*
X112221727Y11040983D01*
X112364584Y11040983D01*
X112555060Y11088602D01*
X112650298Y11136221D01*
X112745536Y11231459D01*
X112793155Y11374316D01*
X112793155Y11612411D01*
X111793155Y10183840D02*
X111793155Y10374316D01*
X111840775Y10469554D01*
X111888394Y10517173D01*
X112031251Y10612411D01*
X112221727Y10660030D01*
X112602679Y10660030D01*
X112697917Y10612411D01*
X112745536Y10564792D01*
X112793155Y10469554D01*
X112793155Y10279078D01*
X112745536Y10183840D01*
X112697917Y10136221D01*
X112602679Y10088602D01*
X112364584Y10088602D01*
X112269346Y10136221D01*
X112221727Y10183840D01*
X112174108Y10279078D01*
X112174108Y10469554D01*
X112221727Y10564792D01*
X112269346Y10612411D01*
X112364584Y10660030D01*
X112793155Y9136221D02*
X112793155Y9707649D01*
X112793155Y9421935D02*
X111793155Y9421935D01*
X111936013Y9517173D01*
X112031251Y9612411D01*
X112078870Y9707649D01*
G04 #@! TO.C,D60*
X72311905Y11612411D02*
X71311905Y11612411D01*
X71311905Y11374316D01*
X71359525Y11231459D01*
X71454763Y11136221D01*
X71550001Y11088602D01*
X71740477Y11040983D01*
X71883334Y11040983D01*
X72073810Y11088602D01*
X72169048Y11136221D01*
X72264286Y11231459D01*
X72311905Y11374316D01*
X72311905Y11612411D01*
X71311905Y10183840D02*
X71311905Y10374316D01*
X71359525Y10469554D01*
X71407144Y10517173D01*
X71550001Y10612411D01*
X71740477Y10660030D01*
X72121429Y10660030D01*
X72216667Y10612411D01*
X72264286Y10564792D01*
X72311905Y10469554D01*
X72311905Y10279078D01*
X72264286Y10183840D01*
X72216667Y10136221D01*
X72121429Y10088602D01*
X71883334Y10088602D01*
X71788096Y10136221D01*
X71740477Y10183840D01*
X71692858Y10279078D01*
X71692858Y10469554D01*
X71740477Y10564792D01*
X71788096Y10612411D01*
X71883334Y10660030D01*
X71311905Y9469554D02*
X71311905Y9374316D01*
X71359525Y9279078D01*
X71407144Y9231459D01*
X71502382Y9183840D01*
X71692858Y9136221D01*
X71930953Y9136221D01*
X72121429Y9183840D01*
X72216667Y9231459D01*
X72264286Y9279078D01*
X72311905Y9374316D01*
X72311905Y9469554D01*
X72264286Y9564792D01*
X72216667Y9612411D01*
X72121429Y9660030D01*
X71930953Y9707649D01*
X71692858Y9707649D01*
X71502382Y9660030D01*
X71407144Y9612411D01*
X71359525Y9564792D01*
X71311905Y9469554D01*
G04 #@! TO.C,D59*
X48499405Y11612411D02*
X47499405Y11612411D01*
X47499405Y11374316D01*
X47547025Y11231459D01*
X47642263Y11136221D01*
X47737501Y11088602D01*
X47927977Y11040983D01*
X48070834Y11040983D01*
X48261310Y11088602D01*
X48356548Y11136221D01*
X48451786Y11231459D01*
X48499405Y11374316D01*
X48499405Y11612411D01*
X47499405Y10136221D02*
X47499405Y10612411D01*
X47975596Y10660030D01*
X47927977Y10612411D01*
X47880358Y10517173D01*
X47880358Y10279078D01*
X47927977Y10183840D01*
X47975596Y10136221D01*
X48070834Y10088602D01*
X48308929Y10088602D01*
X48404167Y10136221D01*
X48451786Y10183840D01*
X48499405Y10279078D01*
X48499405Y10517173D01*
X48451786Y10612411D01*
X48404167Y10660030D01*
X48499405Y9612411D02*
X48499405Y9421935D01*
X48451786Y9326697D01*
X48404167Y9279078D01*
X48261310Y9183840D01*
X48070834Y9136221D01*
X47689882Y9136221D01*
X47594644Y9183840D01*
X47547025Y9231459D01*
X47499405Y9326697D01*
X47499405Y9517173D01*
X47547025Y9612411D01*
X47594644Y9660030D01*
X47689882Y9707649D01*
X47927977Y9707649D01*
X48023215Y9660030D01*
X48070834Y9612411D01*
X48118453Y9517173D01*
X48118453Y9326697D01*
X48070834Y9231459D01*
X48023215Y9183840D01*
X47927977Y9136221D01*
G04 #@! TO.C,D58*
X25185380Y15031886D02*
X24185380Y15031886D01*
X24185380Y14793791D01*
X24233000Y14650934D01*
X24328238Y14555696D01*
X24423476Y14508077D01*
X24613952Y14460458D01*
X24756809Y14460458D01*
X24947285Y14508077D01*
X25042523Y14555696D01*
X25137761Y14650934D01*
X25185380Y14793791D01*
X25185380Y15031886D01*
X24185380Y13555696D02*
X24185380Y14031886D01*
X24661571Y14079505D01*
X24613952Y14031886D01*
X24566333Y13936648D01*
X24566333Y13698553D01*
X24613952Y13603315D01*
X24661571Y13555696D01*
X24756809Y13508077D01*
X24994904Y13508077D01*
X25090142Y13555696D01*
X25137761Y13603315D01*
X25185380Y13698553D01*
X25185380Y13936648D01*
X25137761Y14031886D01*
X25090142Y14079505D01*
X24613952Y12936648D02*
X24566333Y13031886D01*
X24518714Y13079505D01*
X24423476Y13127124D01*
X24375857Y13127124D01*
X24280619Y13079505D01*
X24233000Y13031886D01*
X24185380Y12936648D01*
X24185380Y12746172D01*
X24233000Y12650934D01*
X24280619Y12603315D01*
X24375857Y12555696D01*
X24423476Y12555696D01*
X24518714Y12603315D01*
X24566333Y12650934D01*
X24613952Y12746172D01*
X24613952Y12936648D01*
X24661571Y13031886D01*
X24709190Y13079505D01*
X24804428Y13127124D01*
X24994904Y13127124D01*
X25090142Y13079505D01*
X25137761Y13031886D01*
X25185380Y12936648D01*
X25185380Y12746172D01*
X25137761Y12650934D01*
X25090142Y12603315D01*
X24994904Y12555696D01*
X24804428Y12555696D01*
X24709190Y12603315D01*
X24661571Y12650934D01*
X24613952Y12746172D01*
G04 #@! TO.C,D57*
X284243155Y24709286D02*
X283243155Y24709286D01*
X283243155Y24471191D01*
X283290775Y24328334D01*
X283386013Y24233096D01*
X283481251Y24185477D01*
X283671727Y24137858D01*
X283814584Y24137858D01*
X284005060Y24185477D01*
X284100298Y24233096D01*
X284195536Y24328334D01*
X284243155Y24471191D01*
X284243155Y24709286D01*
X283243155Y23233096D02*
X283243155Y23709286D01*
X283719346Y23756905D01*
X283671727Y23709286D01*
X283624108Y23614048D01*
X283624108Y23375953D01*
X283671727Y23280715D01*
X283719346Y23233096D01*
X283814584Y23185477D01*
X284052679Y23185477D01*
X284147917Y23233096D01*
X284195536Y23280715D01*
X284243155Y23375953D01*
X284243155Y23614048D01*
X284195536Y23709286D01*
X284147917Y23756905D01*
X283243155Y22852143D02*
X283243155Y22185477D01*
X284243155Y22614048D01*
G04 #@! TO.C,D56*
X269946380Y31541886D02*
X268946380Y31541886D01*
X268946380Y31303791D01*
X268994000Y31160934D01*
X269089238Y31065696D01*
X269184476Y31018077D01*
X269374952Y30970458D01*
X269517809Y30970458D01*
X269708285Y31018077D01*
X269803523Y31065696D01*
X269898761Y31160934D01*
X269946380Y31303791D01*
X269946380Y31541886D01*
X268946380Y30065696D02*
X268946380Y30541886D01*
X269422571Y30589505D01*
X269374952Y30541886D01*
X269327333Y30446648D01*
X269327333Y30208553D01*
X269374952Y30113315D01*
X269422571Y30065696D01*
X269517809Y30018077D01*
X269755904Y30018077D01*
X269851142Y30065696D01*
X269898761Y30113315D01*
X269946380Y30208553D01*
X269946380Y30446648D01*
X269898761Y30541886D01*
X269851142Y30589505D01*
X268946380Y29160934D02*
X268946380Y29351410D01*
X268994000Y29446648D01*
X269041619Y29494267D01*
X269184476Y29589505D01*
X269374952Y29637124D01*
X269755904Y29637124D01*
X269851142Y29589505D01*
X269898761Y29541886D01*
X269946380Y29446648D01*
X269946380Y29256172D01*
X269898761Y29160934D01*
X269851142Y29113315D01*
X269755904Y29065696D01*
X269517809Y29065696D01*
X269422571Y29113315D01*
X269374952Y29160934D01*
X269327333Y29256172D01*
X269327333Y29446648D01*
X269374952Y29541886D01*
X269422571Y29589505D01*
X269517809Y29637124D01*
G04 #@! TO.C,D55*
X234236905Y30662411D02*
X233236905Y30662411D01*
X233236905Y30424316D01*
X233284525Y30281459D01*
X233379763Y30186221D01*
X233475001Y30138602D01*
X233665477Y30090983D01*
X233808334Y30090983D01*
X233998810Y30138602D01*
X234094048Y30186221D01*
X234189286Y30281459D01*
X234236905Y30424316D01*
X234236905Y30662411D01*
X233236905Y29186221D02*
X233236905Y29662411D01*
X233713096Y29710030D01*
X233665477Y29662411D01*
X233617858Y29567173D01*
X233617858Y29329078D01*
X233665477Y29233840D01*
X233713096Y29186221D01*
X233808334Y29138602D01*
X234046429Y29138602D01*
X234141667Y29186221D01*
X234189286Y29233840D01*
X234236905Y29329078D01*
X234236905Y29567173D01*
X234189286Y29662411D01*
X234141667Y29710030D01*
X233236905Y28233840D02*
X233236905Y28710030D01*
X233713096Y28757649D01*
X233665477Y28710030D01*
X233617858Y28614792D01*
X233617858Y28376697D01*
X233665477Y28281459D01*
X233713096Y28233840D01*
X233808334Y28186221D01*
X234046429Y28186221D01*
X234141667Y28233840D01*
X234189286Y28281459D01*
X234236905Y28376697D01*
X234236905Y28614792D01*
X234189286Y28710030D01*
X234141667Y28757649D01*
G04 #@! TO.C,D54*
X215186905Y30662411D02*
X214186905Y30662411D01*
X214186905Y30424316D01*
X214234525Y30281459D01*
X214329763Y30186221D01*
X214425001Y30138602D01*
X214615477Y30090983D01*
X214758334Y30090983D01*
X214948810Y30138602D01*
X215044048Y30186221D01*
X215139286Y30281459D01*
X215186905Y30424316D01*
X215186905Y30662411D01*
X214186905Y29186221D02*
X214186905Y29662411D01*
X214663096Y29710030D01*
X214615477Y29662411D01*
X214567858Y29567173D01*
X214567858Y29329078D01*
X214615477Y29233840D01*
X214663096Y29186221D01*
X214758334Y29138602D01*
X214996429Y29138602D01*
X215091667Y29186221D01*
X215139286Y29233840D01*
X215186905Y29329078D01*
X215186905Y29567173D01*
X215139286Y29662411D01*
X215091667Y29710030D01*
X214520239Y28281459D02*
X215186905Y28281459D01*
X214139286Y28519554D02*
X214853572Y28757649D01*
X214853572Y28138602D01*
G04 #@! TO.C,D53*
X196136905Y30662411D02*
X195136905Y30662411D01*
X195136905Y30424316D01*
X195184525Y30281459D01*
X195279763Y30186221D01*
X195375001Y30138602D01*
X195565477Y30090983D01*
X195708334Y30090983D01*
X195898810Y30138602D01*
X195994048Y30186221D01*
X196089286Y30281459D01*
X196136905Y30424316D01*
X196136905Y30662411D01*
X195136905Y29186221D02*
X195136905Y29662411D01*
X195613096Y29710030D01*
X195565477Y29662411D01*
X195517858Y29567173D01*
X195517858Y29329078D01*
X195565477Y29233840D01*
X195613096Y29186221D01*
X195708334Y29138602D01*
X195946429Y29138602D01*
X196041667Y29186221D01*
X196089286Y29233840D01*
X196136905Y29329078D01*
X196136905Y29567173D01*
X196089286Y29662411D01*
X196041667Y29710030D01*
X195136905Y28805268D02*
X195136905Y28186221D01*
X195517858Y28519554D01*
X195517858Y28376697D01*
X195565477Y28281459D01*
X195613096Y28233840D01*
X195708334Y28186221D01*
X195946429Y28186221D01*
X196041667Y28233840D01*
X196089286Y28281459D01*
X196136905Y28376697D01*
X196136905Y28662411D01*
X196089286Y28757649D01*
X196041667Y28805268D01*
G04 #@! TO.C,D52*
X177086905Y30662411D02*
X176086905Y30662411D01*
X176086905Y30424316D01*
X176134525Y30281459D01*
X176229763Y30186221D01*
X176325001Y30138602D01*
X176515477Y30090983D01*
X176658334Y30090983D01*
X176848810Y30138602D01*
X176944048Y30186221D01*
X177039286Y30281459D01*
X177086905Y30424316D01*
X177086905Y30662411D01*
X176086905Y29186221D02*
X176086905Y29662411D01*
X176563096Y29710030D01*
X176515477Y29662411D01*
X176467858Y29567173D01*
X176467858Y29329078D01*
X176515477Y29233840D01*
X176563096Y29186221D01*
X176658334Y29138602D01*
X176896429Y29138602D01*
X176991667Y29186221D01*
X177039286Y29233840D01*
X177086905Y29329078D01*
X177086905Y29567173D01*
X177039286Y29662411D01*
X176991667Y29710030D01*
X176182144Y28757649D02*
X176134525Y28710030D01*
X176086905Y28614792D01*
X176086905Y28376697D01*
X176134525Y28281459D01*
X176182144Y28233840D01*
X176277382Y28186221D01*
X176372620Y28186221D01*
X176515477Y28233840D01*
X177086905Y28805268D01*
X177086905Y28186221D01*
G04 #@! TO.C,D51*
X158036905Y30662411D02*
X157036905Y30662411D01*
X157036905Y30424316D01*
X157084525Y30281459D01*
X157179763Y30186221D01*
X157275001Y30138602D01*
X157465477Y30090983D01*
X157608334Y30090983D01*
X157798810Y30138602D01*
X157894048Y30186221D01*
X157989286Y30281459D01*
X158036905Y30424316D01*
X158036905Y30662411D01*
X157036905Y29186221D02*
X157036905Y29662411D01*
X157513096Y29710030D01*
X157465477Y29662411D01*
X157417858Y29567173D01*
X157417858Y29329078D01*
X157465477Y29233840D01*
X157513096Y29186221D01*
X157608334Y29138602D01*
X157846429Y29138602D01*
X157941667Y29186221D01*
X157989286Y29233840D01*
X158036905Y29329078D01*
X158036905Y29567173D01*
X157989286Y29662411D01*
X157941667Y29710030D01*
X158036905Y28186221D02*
X158036905Y28757649D01*
X158036905Y28471935D02*
X157036905Y28471935D01*
X157179763Y28567173D01*
X157275001Y28662411D01*
X157322620Y28757649D01*
G04 #@! TO.C,D50*
X138986905Y30662411D02*
X137986905Y30662411D01*
X137986905Y30424316D01*
X138034525Y30281459D01*
X138129763Y30186221D01*
X138225001Y30138602D01*
X138415477Y30090983D01*
X138558334Y30090983D01*
X138748810Y30138602D01*
X138844048Y30186221D01*
X138939286Y30281459D01*
X138986905Y30424316D01*
X138986905Y30662411D01*
X137986905Y29186221D02*
X137986905Y29662411D01*
X138463096Y29710030D01*
X138415477Y29662411D01*
X138367858Y29567173D01*
X138367858Y29329078D01*
X138415477Y29233840D01*
X138463096Y29186221D01*
X138558334Y29138602D01*
X138796429Y29138602D01*
X138891667Y29186221D01*
X138939286Y29233840D01*
X138986905Y29329078D01*
X138986905Y29567173D01*
X138939286Y29662411D01*
X138891667Y29710030D01*
X137986905Y28519554D02*
X137986905Y28424316D01*
X138034525Y28329078D01*
X138082144Y28281459D01*
X138177382Y28233840D01*
X138367858Y28186221D01*
X138605953Y28186221D01*
X138796429Y28233840D01*
X138891667Y28281459D01*
X138939286Y28329078D01*
X138986905Y28424316D01*
X138986905Y28519554D01*
X138939286Y28614792D01*
X138891667Y28662411D01*
X138796429Y28710030D01*
X138605953Y28757649D01*
X138367858Y28757649D01*
X138177382Y28710030D01*
X138082144Y28662411D01*
X138034525Y28614792D01*
X137986905Y28519554D01*
G04 #@! TO.C,D49*
X119936905Y30662411D02*
X118936905Y30662411D01*
X118936905Y30424316D01*
X118984525Y30281459D01*
X119079763Y30186221D01*
X119175001Y30138602D01*
X119365477Y30090983D01*
X119508334Y30090983D01*
X119698810Y30138602D01*
X119794048Y30186221D01*
X119889286Y30281459D01*
X119936905Y30424316D01*
X119936905Y30662411D01*
X119270239Y29233840D02*
X119936905Y29233840D01*
X118889286Y29471935D02*
X119603572Y29710030D01*
X119603572Y29090983D01*
X119936905Y28662411D02*
X119936905Y28471935D01*
X119889286Y28376697D01*
X119841667Y28329078D01*
X119698810Y28233840D01*
X119508334Y28186221D01*
X119127382Y28186221D01*
X119032144Y28233840D01*
X118984525Y28281459D01*
X118936905Y28376697D01*
X118936905Y28567173D01*
X118984525Y28662411D01*
X119032144Y28710030D01*
X119127382Y28757649D01*
X119365477Y28757649D01*
X119460715Y28710030D01*
X119508334Y28662411D01*
X119555953Y28567173D01*
X119555953Y28376697D01*
X119508334Y28281459D01*
X119460715Y28233840D01*
X119365477Y28186221D01*
G04 #@! TO.C,D48*
X100886905Y30662411D02*
X99886905Y30662411D01*
X99886905Y30424316D01*
X99934525Y30281459D01*
X100029763Y30186221D01*
X100125001Y30138602D01*
X100315477Y30090983D01*
X100458334Y30090983D01*
X100648810Y30138602D01*
X100744048Y30186221D01*
X100839286Y30281459D01*
X100886905Y30424316D01*
X100886905Y30662411D01*
X100220239Y29233840D02*
X100886905Y29233840D01*
X99839286Y29471935D02*
X100553572Y29710030D01*
X100553572Y29090983D01*
X100315477Y28567173D02*
X100267858Y28662411D01*
X100220239Y28710030D01*
X100125001Y28757649D01*
X100077382Y28757649D01*
X99982144Y28710030D01*
X99934525Y28662411D01*
X99886905Y28567173D01*
X99886905Y28376697D01*
X99934525Y28281459D01*
X99982144Y28233840D01*
X100077382Y28186221D01*
X100125001Y28186221D01*
X100220239Y28233840D01*
X100267858Y28281459D01*
X100315477Y28376697D01*
X100315477Y28567173D01*
X100363096Y28662411D01*
X100410715Y28710030D01*
X100505953Y28757649D01*
X100696429Y28757649D01*
X100791667Y28710030D01*
X100839286Y28662411D01*
X100886905Y28567173D01*
X100886905Y28376697D01*
X100839286Y28281459D01*
X100791667Y28233840D01*
X100696429Y28186221D01*
X100505953Y28186221D01*
X100410715Y28233840D01*
X100363096Y28281459D01*
X100315477Y28376697D01*
G04 #@! TO.C,D47*
X81836905Y30662411D02*
X80836905Y30662411D01*
X80836905Y30424316D01*
X80884525Y30281459D01*
X80979763Y30186221D01*
X81075001Y30138602D01*
X81265477Y30090983D01*
X81408334Y30090983D01*
X81598810Y30138602D01*
X81694048Y30186221D01*
X81789286Y30281459D01*
X81836905Y30424316D01*
X81836905Y30662411D01*
X81170239Y29233840D02*
X81836905Y29233840D01*
X80789286Y29471935D02*
X81503572Y29710030D01*
X81503572Y29090983D01*
X80836905Y28805268D02*
X80836905Y28138602D01*
X81836905Y28567173D01*
G04 #@! TO.C,D46*
X62786905Y30662411D02*
X61786905Y30662411D01*
X61786905Y30424316D01*
X61834525Y30281459D01*
X61929763Y30186221D01*
X62025001Y30138602D01*
X62215477Y30090983D01*
X62358334Y30090983D01*
X62548810Y30138602D01*
X62644048Y30186221D01*
X62739286Y30281459D01*
X62786905Y30424316D01*
X62786905Y30662411D01*
X62120239Y29233840D02*
X62786905Y29233840D01*
X61739286Y29471935D02*
X62453572Y29710030D01*
X62453572Y29090983D01*
X61786905Y28281459D02*
X61786905Y28471935D01*
X61834525Y28567173D01*
X61882144Y28614792D01*
X62025001Y28710030D01*
X62215477Y28757649D01*
X62596429Y28757649D01*
X62691667Y28710030D01*
X62739286Y28662411D01*
X62786905Y28567173D01*
X62786905Y28376697D01*
X62739286Y28281459D01*
X62691667Y28233840D01*
X62596429Y28186221D01*
X62358334Y28186221D01*
X62263096Y28233840D01*
X62215477Y28281459D01*
X62167858Y28376697D01*
X62167858Y28567173D01*
X62215477Y28662411D01*
X62263096Y28710030D01*
X62358334Y28757649D01*
G04 #@! TO.C,D45*
X43736905Y30662411D02*
X42736905Y30662411D01*
X42736905Y30424316D01*
X42784525Y30281459D01*
X42879763Y30186221D01*
X42975001Y30138602D01*
X43165477Y30090983D01*
X43308334Y30090983D01*
X43498810Y30138602D01*
X43594048Y30186221D01*
X43689286Y30281459D01*
X43736905Y30424316D01*
X43736905Y30662411D01*
X43070239Y29233840D02*
X43736905Y29233840D01*
X42689286Y29471935D02*
X43403572Y29710030D01*
X43403572Y29090983D01*
X42736905Y28233840D02*
X42736905Y28710030D01*
X43213096Y28757649D01*
X43165477Y28710030D01*
X43117858Y28614792D01*
X43117858Y28376697D01*
X43165477Y28281459D01*
X43213096Y28233840D01*
X43308334Y28186221D01*
X43546429Y28186221D01*
X43641667Y28233840D01*
X43689286Y28281459D01*
X43736905Y28376697D01*
X43736905Y28614792D01*
X43689286Y28710030D01*
X43641667Y28757649D01*
G04 #@! TO.C,D44*
X5636905Y32075286D02*
X4636905Y32075286D01*
X4636905Y31837191D01*
X4684525Y31694334D01*
X4779763Y31599096D01*
X4875001Y31551477D01*
X5065477Y31503858D01*
X5208334Y31503858D01*
X5398810Y31551477D01*
X5494048Y31599096D01*
X5589286Y31694334D01*
X5636905Y31837191D01*
X5636905Y32075286D01*
X4970239Y30646715D02*
X5636905Y30646715D01*
X4589286Y30884810D02*
X5303572Y31122905D01*
X5303572Y30503858D01*
X4970239Y29694334D02*
X5636905Y29694334D01*
X4589286Y29932429D02*
X5303572Y30170524D01*
X5303572Y29551477D01*
G04 #@! TO.C,D43*
X274718155Y48521786D02*
X273718155Y48521786D01*
X273718155Y48283691D01*
X273765775Y48140834D01*
X273861013Y48045596D01*
X273956251Y47997977D01*
X274146727Y47950358D01*
X274289584Y47950358D01*
X274480060Y47997977D01*
X274575298Y48045596D01*
X274670536Y48140834D01*
X274718155Y48283691D01*
X274718155Y48521786D01*
X274051489Y47093215D02*
X274718155Y47093215D01*
X273670536Y47331310D02*
X274384822Y47569405D01*
X274384822Y46950358D01*
X273718155Y46664643D02*
X273718155Y46045596D01*
X274099108Y46378929D01*
X274099108Y46236072D01*
X274146727Y46140834D01*
X274194346Y46093215D01*
X274289584Y46045596D01*
X274527679Y46045596D01*
X274622917Y46093215D01*
X274670536Y46140834D01*
X274718155Y46236072D01*
X274718155Y46521786D01*
X274670536Y46617024D01*
X274622917Y46664643D01*
G04 #@! TO.C,D42*
X261621280Y55665536D02*
X260621280Y55665536D01*
X260621280Y55427441D01*
X260668900Y55284584D01*
X260764138Y55189346D01*
X260859376Y55141727D01*
X261049852Y55094108D01*
X261192709Y55094108D01*
X261383185Y55141727D01*
X261478423Y55189346D01*
X261573661Y55284584D01*
X261621280Y55427441D01*
X261621280Y55665536D01*
X260954614Y54236965D02*
X261621280Y54236965D01*
X260573661Y54475060D02*
X261287947Y54713155D01*
X261287947Y54094108D01*
X260716519Y53760774D02*
X260668900Y53713155D01*
X260621280Y53617917D01*
X260621280Y53379822D01*
X260668900Y53284584D01*
X260716519Y53236965D01*
X260811757Y53189346D01*
X260906995Y53189346D01*
X261049852Y53236965D01*
X261621280Y53808393D01*
X261621280Y53189346D01*
G04 #@! TO.C,D41*
X243761905Y49712411D02*
X242761905Y49712411D01*
X242761905Y49474316D01*
X242809525Y49331459D01*
X242904763Y49236221D01*
X243000001Y49188602D01*
X243190477Y49140983D01*
X243333334Y49140983D01*
X243523810Y49188602D01*
X243619048Y49236221D01*
X243714286Y49331459D01*
X243761905Y49474316D01*
X243761905Y49712411D01*
X243095239Y48283840D02*
X243761905Y48283840D01*
X242714286Y48521935D02*
X243428572Y48760030D01*
X243428572Y48140983D01*
X243761905Y47236221D02*
X243761905Y47807649D01*
X243761905Y47521935D02*
X242761905Y47521935D01*
X242904763Y47617173D01*
X243000001Y47712411D01*
X243047620Y47807649D01*
G04 #@! TO.C,D40*
X224711905Y49712411D02*
X223711905Y49712411D01*
X223711905Y49474316D01*
X223759525Y49331459D01*
X223854763Y49236221D01*
X223950001Y49188602D01*
X224140477Y49140983D01*
X224283334Y49140983D01*
X224473810Y49188602D01*
X224569048Y49236221D01*
X224664286Y49331459D01*
X224711905Y49474316D01*
X224711905Y49712411D01*
X224045239Y48283840D02*
X224711905Y48283840D01*
X223664286Y48521935D02*
X224378572Y48760030D01*
X224378572Y48140983D01*
X223711905Y47569554D02*
X223711905Y47474316D01*
X223759525Y47379078D01*
X223807144Y47331459D01*
X223902382Y47283840D01*
X224092858Y47236221D01*
X224330953Y47236221D01*
X224521429Y47283840D01*
X224616667Y47331459D01*
X224664286Y47379078D01*
X224711905Y47474316D01*
X224711905Y47569554D01*
X224664286Y47664792D01*
X224616667Y47712411D01*
X224521429Y47760030D01*
X224330953Y47807649D01*
X224092858Y47807649D01*
X223902382Y47760030D01*
X223807144Y47712411D01*
X223759525Y47664792D01*
X223711905Y47569554D01*
G04 #@! TO.C,D39*
X205661905Y49712411D02*
X204661905Y49712411D01*
X204661905Y49474316D01*
X204709525Y49331459D01*
X204804763Y49236221D01*
X204900001Y49188602D01*
X205090477Y49140983D01*
X205233334Y49140983D01*
X205423810Y49188602D01*
X205519048Y49236221D01*
X205614286Y49331459D01*
X205661905Y49474316D01*
X205661905Y49712411D01*
X204661905Y48807649D02*
X204661905Y48188602D01*
X205042858Y48521935D01*
X205042858Y48379078D01*
X205090477Y48283840D01*
X205138096Y48236221D01*
X205233334Y48188602D01*
X205471429Y48188602D01*
X205566667Y48236221D01*
X205614286Y48283840D01*
X205661905Y48379078D01*
X205661905Y48664792D01*
X205614286Y48760030D01*
X205566667Y48807649D01*
X205661905Y47712411D02*
X205661905Y47521935D01*
X205614286Y47426697D01*
X205566667Y47379078D01*
X205423810Y47283840D01*
X205233334Y47236221D01*
X204852382Y47236221D01*
X204757144Y47283840D01*
X204709525Y47331459D01*
X204661905Y47426697D01*
X204661905Y47617173D01*
X204709525Y47712411D01*
X204757144Y47760030D01*
X204852382Y47807649D01*
X205090477Y47807649D01*
X205185715Y47760030D01*
X205233334Y47712411D01*
X205280953Y47617173D01*
X205280953Y47426697D01*
X205233334Y47331459D01*
X205185715Y47283840D01*
X205090477Y47236221D01*
G04 #@! TO.C,D38*
X186611905Y49712411D02*
X185611905Y49712411D01*
X185611905Y49474316D01*
X185659525Y49331459D01*
X185754763Y49236221D01*
X185850001Y49188602D01*
X186040477Y49140983D01*
X186183334Y49140983D01*
X186373810Y49188602D01*
X186469048Y49236221D01*
X186564286Y49331459D01*
X186611905Y49474316D01*
X186611905Y49712411D01*
X185611905Y48807649D02*
X185611905Y48188602D01*
X185992858Y48521935D01*
X185992858Y48379078D01*
X186040477Y48283840D01*
X186088096Y48236221D01*
X186183334Y48188602D01*
X186421429Y48188602D01*
X186516667Y48236221D01*
X186564286Y48283840D01*
X186611905Y48379078D01*
X186611905Y48664792D01*
X186564286Y48760030D01*
X186516667Y48807649D01*
X186040477Y47617173D02*
X185992858Y47712411D01*
X185945239Y47760030D01*
X185850001Y47807649D01*
X185802382Y47807649D01*
X185707144Y47760030D01*
X185659525Y47712411D01*
X185611905Y47617173D01*
X185611905Y47426697D01*
X185659525Y47331459D01*
X185707144Y47283840D01*
X185802382Y47236221D01*
X185850001Y47236221D01*
X185945239Y47283840D01*
X185992858Y47331459D01*
X186040477Y47426697D01*
X186040477Y47617173D01*
X186088096Y47712411D01*
X186135715Y47760030D01*
X186230953Y47807649D01*
X186421429Y47807649D01*
X186516667Y47760030D01*
X186564286Y47712411D01*
X186611905Y47617173D01*
X186611905Y47426697D01*
X186564286Y47331459D01*
X186516667Y47283840D01*
X186421429Y47236221D01*
X186230953Y47236221D01*
X186135715Y47283840D01*
X186088096Y47331459D01*
X186040477Y47426697D01*
G04 #@! TO.C,D37*
X167561905Y49712411D02*
X166561905Y49712411D01*
X166561905Y49474316D01*
X166609525Y49331459D01*
X166704763Y49236221D01*
X166800001Y49188602D01*
X166990477Y49140983D01*
X167133334Y49140983D01*
X167323810Y49188602D01*
X167419048Y49236221D01*
X167514286Y49331459D01*
X167561905Y49474316D01*
X167561905Y49712411D01*
X166561905Y48807649D02*
X166561905Y48188602D01*
X166942858Y48521935D01*
X166942858Y48379078D01*
X166990477Y48283840D01*
X167038096Y48236221D01*
X167133334Y48188602D01*
X167371429Y48188602D01*
X167466667Y48236221D01*
X167514286Y48283840D01*
X167561905Y48379078D01*
X167561905Y48664792D01*
X167514286Y48760030D01*
X167466667Y48807649D01*
X166561905Y47855268D02*
X166561905Y47188602D01*
X167561905Y47617173D01*
G04 #@! TO.C,D36*
X148511905Y49712411D02*
X147511905Y49712411D01*
X147511905Y49474316D01*
X147559525Y49331459D01*
X147654763Y49236221D01*
X147750001Y49188602D01*
X147940477Y49140983D01*
X148083334Y49140983D01*
X148273810Y49188602D01*
X148369048Y49236221D01*
X148464286Y49331459D01*
X148511905Y49474316D01*
X148511905Y49712411D01*
X147511905Y48807649D02*
X147511905Y48188602D01*
X147892858Y48521935D01*
X147892858Y48379078D01*
X147940477Y48283840D01*
X147988096Y48236221D01*
X148083334Y48188602D01*
X148321429Y48188602D01*
X148416667Y48236221D01*
X148464286Y48283840D01*
X148511905Y48379078D01*
X148511905Y48664792D01*
X148464286Y48760030D01*
X148416667Y48807649D01*
X147511905Y47331459D02*
X147511905Y47521935D01*
X147559525Y47617173D01*
X147607144Y47664792D01*
X147750001Y47760030D01*
X147940477Y47807649D01*
X148321429Y47807649D01*
X148416667Y47760030D01*
X148464286Y47712411D01*
X148511905Y47617173D01*
X148511905Y47426697D01*
X148464286Y47331459D01*
X148416667Y47283840D01*
X148321429Y47236221D01*
X148083334Y47236221D01*
X147988096Y47283840D01*
X147940477Y47331459D01*
X147892858Y47426697D01*
X147892858Y47617173D01*
X147940477Y47712411D01*
X147988096Y47760030D01*
X148083334Y47807649D01*
G04 #@! TO.C,D35*
X113228380Y51455486D02*
X112228380Y51455486D01*
X112228380Y51217391D01*
X112276000Y51074534D01*
X112371238Y50979296D01*
X112466476Y50931677D01*
X112656952Y50884058D01*
X112799809Y50884058D01*
X112990285Y50931677D01*
X113085523Y50979296D01*
X113180761Y51074534D01*
X113228380Y51217391D01*
X113228380Y51455486D01*
X112228380Y50550724D02*
X112228380Y49931677D01*
X112609333Y50265010D01*
X112609333Y50122153D01*
X112656952Y50026915D01*
X112704571Y49979296D01*
X112799809Y49931677D01*
X113037904Y49931677D01*
X113133142Y49979296D01*
X113180761Y50026915D01*
X113228380Y50122153D01*
X113228380Y50407867D01*
X113180761Y50503105D01*
X113133142Y50550724D01*
X112228380Y49026915D02*
X112228380Y49503105D01*
X112704571Y49550724D01*
X112656952Y49503105D01*
X112609333Y49407867D01*
X112609333Y49169772D01*
X112656952Y49074534D01*
X112704571Y49026915D01*
X112799809Y48979296D01*
X113037904Y48979296D01*
X113133142Y49026915D01*
X113180761Y49074534D01*
X113228380Y49169772D01*
X113228380Y49407867D01*
X113180761Y49503105D01*
X113133142Y49550724D01*
G04 #@! TO.C,D34*
X106497380Y51430086D02*
X105497380Y51430086D01*
X105497380Y51191991D01*
X105545000Y51049134D01*
X105640238Y50953896D01*
X105735476Y50906277D01*
X105925952Y50858658D01*
X106068809Y50858658D01*
X106259285Y50906277D01*
X106354523Y50953896D01*
X106449761Y51049134D01*
X106497380Y51191991D01*
X106497380Y51430086D01*
X105497380Y50525324D02*
X105497380Y49906277D01*
X105878333Y50239610D01*
X105878333Y50096753D01*
X105925952Y50001515D01*
X105973571Y49953896D01*
X106068809Y49906277D01*
X106306904Y49906277D01*
X106402142Y49953896D01*
X106449761Y50001515D01*
X106497380Y50096753D01*
X106497380Y50382467D01*
X106449761Y50477705D01*
X106402142Y50525324D01*
X105830714Y49049134D02*
X106497380Y49049134D01*
X105449761Y49287229D02*
X106164047Y49525324D01*
X106164047Y48906277D01*
G04 #@! TO.C,D33*
X91361905Y49712411D02*
X90361905Y49712411D01*
X90361905Y49474316D01*
X90409525Y49331459D01*
X90504763Y49236221D01*
X90600001Y49188602D01*
X90790477Y49140983D01*
X90933334Y49140983D01*
X91123810Y49188602D01*
X91219048Y49236221D01*
X91314286Y49331459D01*
X91361905Y49474316D01*
X91361905Y49712411D01*
X90361905Y48807649D02*
X90361905Y48188602D01*
X90742858Y48521935D01*
X90742858Y48379078D01*
X90790477Y48283840D01*
X90838096Y48236221D01*
X90933334Y48188602D01*
X91171429Y48188602D01*
X91266667Y48236221D01*
X91314286Y48283840D01*
X91361905Y48379078D01*
X91361905Y48664792D01*
X91314286Y48760030D01*
X91266667Y48807649D01*
X90361905Y47855268D02*
X90361905Y47236221D01*
X90742858Y47569554D01*
X90742858Y47426697D01*
X90790477Y47331459D01*
X90838096Y47283840D01*
X90933334Y47236221D01*
X91171429Y47236221D01*
X91266667Y47283840D01*
X91314286Y47331459D01*
X91361905Y47426697D01*
X91361905Y47712411D01*
X91314286Y47807649D01*
X91266667Y47855268D01*
G04 #@! TO.C,D32*
X72311905Y49712411D02*
X71311905Y49712411D01*
X71311905Y49474316D01*
X71359525Y49331459D01*
X71454763Y49236221D01*
X71550001Y49188602D01*
X71740477Y49140983D01*
X71883334Y49140983D01*
X72073810Y49188602D01*
X72169048Y49236221D01*
X72264286Y49331459D01*
X72311905Y49474316D01*
X72311905Y49712411D01*
X71311905Y48807649D02*
X71311905Y48188602D01*
X71692858Y48521935D01*
X71692858Y48379078D01*
X71740477Y48283840D01*
X71788096Y48236221D01*
X71883334Y48188602D01*
X72121429Y48188602D01*
X72216667Y48236221D01*
X72264286Y48283840D01*
X72311905Y48379078D01*
X72311905Y48664792D01*
X72264286Y48760030D01*
X72216667Y48807649D01*
X71407144Y47807649D02*
X71359525Y47760030D01*
X71311905Y47664792D01*
X71311905Y47426697D01*
X71359525Y47331459D01*
X71407144Y47283840D01*
X71502382Y47236221D01*
X71597620Y47236221D01*
X71740477Y47283840D01*
X72311905Y47855268D01*
X72311905Y47236221D01*
G04 #@! TO.C,D31*
X53261905Y49712411D02*
X52261905Y49712411D01*
X52261905Y49474316D01*
X52309525Y49331459D01*
X52404763Y49236221D01*
X52500001Y49188602D01*
X52690477Y49140983D01*
X52833334Y49140983D01*
X53023810Y49188602D01*
X53119048Y49236221D01*
X53214286Y49331459D01*
X53261905Y49474316D01*
X53261905Y49712411D01*
X52261905Y48807649D02*
X52261905Y48188602D01*
X52642858Y48521935D01*
X52642858Y48379078D01*
X52690477Y48283840D01*
X52738096Y48236221D01*
X52833334Y48188602D01*
X53071429Y48188602D01*
X53166667Y48236221D01*
X53214286Y48283840D01*
X53261905Y48379078D01*
X53261905Y48664792D01*
X53214286Y48760030D01*
X53166667Y48807649D01*
X53261905Y47236221D02*
X53261905Y47807649D01*
X53261905Y47521935D02*
X52261905Y47521935D01*
X52404763Y47617173D01*
X52500001Y47712411D01*
X52547620Y47807649D01*
G04 #@! TO.C,D30*
X23496280Y43759286D02*
X22496280Y43759286D01*
X22496280Y43521191D01*
X22543900Y43378334D01*
X22639138Y43283096D01*
X22734376Y43235477D01*
X22924852Y43187858D01*
X23067709Y43187858D01*
X23258185Y43235477D01*
X23353423Y43283096D01*
X23448661Y43378334D01*
X23496280Y43521191D01*
X23496280Y43759286D01*
X22496280Y42854524D02*
X22496280Y42235477D01*
X22877233Y42568810D01*
X22877233Y42425953D01*
X22924852Y42330715D01*
X22972471Y42283096D01*
X23067709Y42235477D01*
X23305804Y42235477D01*
X23401042Y42283096D01*
X23448661Y42330715D01*
X23496280Y42425953D01*
X23496280Y42711667D01*
X23448661Y42806905D01*
X23401042Y42854524D01*
X22496280Y41616429D02*
X22496280Y41521191D01*
X22543900Y41425953D01*
X22591519Y41378334D01*
X22686757Y41330715D01*
X22877233Y41283096D01*
X23115328Y41283096D01*
X23305804Y41330715D01*
X23401042Y41378334D01*
X23448661Y41425953D01*
X23496280Y41521191D01*
X23496280Y41616429D01*
X23448661Y41711667D01*
X23401042Y41759286D01*
X23305804Y41806905D01*
X23115328Y41854524D01*
X22877233Y41854524D01*
X22686757Y41806905D01*
X22591519Y41759286D01*
X22543900Y41711667D01*
X22496280Y41616429D01*
G04 #@! TO.C,D29*
X279480655Y72334286D02*
X278480655Y72334286D01*
X278480655Y72096191D01*
X278528275Y71953334D01*
X278623513Y71858096D01*
X278718751Y71810477D01*
X278909227Y71762858D01*
X279052084Y71762858D01*
X279242560Y71810477D01*
X279337798Y71858096D01*
X279433036Y71953334D01*
X279480655Y72096191D01*
X279480655Y72334286D01*
X278575894Y71381905D02*
X278528275Y71334286D01*
X278480655Y71239048D01*
X278480655Y71000953D01*
X278528275Y70905715D01*
X278575894Y70858096D01*
X278671132Y70810477D01*
X278766370Y70810477D01*
X278909227Y70858096D01*
X279480655Y71429524D01*
X279480655Y70810477D01*
X279480655Y70334286D02*
X279480655Y70143810D01*
X279433036Y70048572D01*
X279385417Y70000953D01*
X279242560Y69905715D01*
X279052084Y69858096D01*
X278671132Y69858096D01*
X278575894Y69905715D01*
X278528275Y69953334D01*
X278480655Y70048572D01*
X278480655Y70239048D01*
X278528275Y70334286D01*
X278575894Y70381905D01*
X278671132Y70429524D01*
X278909227Y70429524D01*
X279004465Y70381905D01*
X279052084Y70334286D01*
X279099703Y70239048D01*
X279099703Y70048572D01*
X279052084Y69953334D01*
X279004465Y69905715D01*
X278909227Y69858096D01*
G04 #@! TO.C,D28*
X256858780Y71143661D02*
X255858780Y71143661D01*
X255858780Y70905566D01*
X255906400Y70762709D01*
X256001638Y70667471D01*
X256096876Y70619852D01*
X256287352Y70572233D01*
X256430209Y70572233D01*
X256620685Y70619852D01*
X256715923Y70667471D01*
X256811161Y70762709D01*
X256858780Y70905566D01*
X256858780Y71143661D01*
X255954019Y70191280D02*
X255906400Y70143661D01*
X255858780Y70048423D01*
X255858780Y69810328D01*
X255906400Y69715090D01*
X255954019Y69667471D01*
X256049257Y69619852D01*
X256144495Y69619852D01*
X256287352Y69667471D01*
X256858780Y70238899D01*
X256858780Y69619852D01*
X256287352Y69048423D02*
X256239733Y69143661D01*
X256192114Y69191280D01*
X256096876Y69238899D01*
X256049257Y69238899D01*
X255954019Y69191280D01*
X255906400Y69143661D01*
X255858780Y69048423D01*
X255858780Y68857947D01*
X255906400Y68762709D01*
X255954019Y68715090D01*
X256049257Y68667471D01*
X256096876Y68667471D01*
X256192114Y68715090D01*
X256239733Y68762709D01*
X256287352Y68857947D01*
X256287352Y69048423D01*
X256334971Y69143661D01*
X256382590Y69191280D01*
X256477828Y69238899D01*
X256668304Y69238899D01*
X256763542Y69191280D01*
X256811161Y69143661D01*
X256858780Y69048423D01*
X256858780Y68857947D01*
X256811161Y68762709D01*
X256763542Y68715090D01*
X256668304Y68667471D01*
X256477828Y68667471D01*
X256382590Y68715090D01*
X256334971Y68762709D01*
X256287352Y68857947D01*
G04 #@! TO.C,D27*
X238999405Y68762411D02*
X237999405Y68762411D01*
X237999405Y68524316D01*
X238047025Y68381459D01*
X238142263Y68286221D01*
X238237501Y68238602D01*
X238427977Y68190983D01*
X238570834Y68190983D01*
X238761310Y68238602D01*
X238856548Y68286221D01*
X238951786Y68381459D01*
X238999405Y68524316D01*
X238999405Y68762411D01*
X238094644Y67810030D02*
X238047025Y67762411D01*
X237999405Y67667173D01*
X237999405Y67429078D01*
X238047025Y67333840D01*
X238094644Y67286221D01*
X238189882Y67238602D01*
X238285120Y67238602D01*
X238427977Y67286221D01*
X238999405Y67857649D01*
X238999405Y67238602D01*
X237999405Y66905268D02*
X237999405Y66238602D01*
X238999405Y66667173D01*
G04 #@! TO.C,D26*
X219949405Y68762411D02*
X218949405Y68762411D01*
X218949405Y68524316D01*
X218997025Y68381459D01*
X219092263Y68286221D01*
X219187501Y68238602D01*
X219377977Y68190983D01*
X219520834Y68190983D01*
X219711310Y68238602D01*
X219806548Y68286221D01*
X219901786Y68381459D01*
X219949405Y68524316D01*
X219949405Y68762411D01*
X219044644Y67810030D02*
X218997025Y67762411D01*
X218949405Y67667173D01*
X218949405Y67429078D01*
X218997025Y67333840D01*
X219044644Y67286221D01*
X219139882Y67238602D01*
X219235120Y67238602D01*
X219377977Y67286221D01*
X219949405Y67857649D01*
X219949405Y67238602D01*
X218949405Y66381459D02*
X218949405Y66571935D01*
X218997025Y66667173D01*
X219044644Y66714792D01*
X219187501Y66810030D01*
X219377977Y66857649D01*
X219758929Y66857649D01*
X219854167Y66810030D01*
X219901786Y66762411D01*
X219949405Y66667173D01*
X219949405Y66476697D01*
X219901786Y66381459D01*
X219854167Y66333840D01*
X219758929Y66286221D01*
X219520834Y66286221D01*
X219425596Y66333840D01*
X219377977Y66381459D01*
X219330358Y66476697D01*
X219330358Y66667173D01*
X219377977Y66762411D01*
X219425596Y66810030D01*
X219520834Y66857649D01*
G04 #@! TO.C,D25*
X200899405Y68762411D02*
X199899405Y68762411D01*
X199899405Y68524316D01*
X199947025Y68381459D01*
X200042263Y68286221D01*
X200137501Y68238602D01*
X200327977Y68190983D01*
X200470834Y68190983D01*
X200661310Y68238602D01*
X200756548Y68286221D01*
X200851786Y68381459D01*
X200899405Y68524316D01*
X200899405Y68762411D01*
X199994644Y67810030D02*
X199947025Y67762411D01*
X199899405Y67667173D01*
X199899405Y67429078D01*
X199947025Y67333840D01*
X199994644Y67286221D01*
X200089882Y67238602D01*
X200185120Y67238602D01*
X200327977Y67286221D01*
X200899405Y67857649D01*
X200899405Y67238602D01*
X199899405Y66333840D02*
X199899405Y66810030D01*
X200375596Y66857649D01*
X200327977Y66810030D01*
X200280358Y66714792D01*
X200280358Y66476697D01*
X200327977Y66381459D01*
X200375596Y66333840D01*
X200470834Y66286221D01*
X200708929Y66286221D01*
X200804167Y66333840D01*
X200851786Y66381459D01*
X200899405Y66476697D01*
X200899405Y66714792D01*
X200851786Y66810030D01*
X200804167Y66857649D01*
G04 #@! TO.C,D24*
X181849405Y68762411D02*
X180849405Y68762411D01*
X180849405Y68524316D01*
X180897025Y68381459D01*
X180992263Y68286221D01*
X181087501Y68238602D01*
X181277977Y68190983D01*
X181420834Y68190983D01*
X181611310Y68238602D01*
X181706548Y68286221D01*
X181801786Y68381459D01*
X181849405Y68524316D01*
X181849405Y68762411D01*
X180944644Y67810030D02*
X180897025Y67762411D01*
X180849405Y67667173D01*
X180849405Y67429078D01*
X180897025Y67333840D01*
X180944644Y67286221D01*
X181039882Y67238602D01*
X181135120Y67238602D01*
X181277977Y67286221D01*
X181849405Y67857649D01*
X181849405Y67238602D01*
X181182739Y66381459D02*
X181849405Y66381459D01*
X180801786Y66619554D02*
X181516072Y66857649D01*
X181516072Y66238602D01*
G04 #@! TO.C,D23*
X162799405Y68762411D02*
X161799405Y68762411D01*
X161799405Y68524316D01*
X161847025Y68381459D01*
X161942263Y68286221D01*
X162037501Y68238602D01*
X162227977Y68190983D01*
X162370834Y68190983D01*
X162561310Y68238602D01*
X162656548Y68286221D01*
X162751786Y68381459D01*
X162799405Y68524316D01*
X162799405Y68762411D01*
X161894644Y67810030D02*
X161847025Y67762411D01*
X161799405Y67667173D01*
X161799405Y67429078D01*
X161847025Y67333840D01*
X161894644Y67286221D01*
X161989882Y67238602D01*
X162085120Y67238602D01*
X162227977Y67286221D01*
X162799405Y67857649D01*
X162799405Y67238602D01*
X161799405Y66905268D02*
X161799405Y66286221D01*
X162180358Y66619554D01*
X162180358Y66476697D01*
X162227977Y66381459D01*
X162275596Y66333840D01*
X162370834Y66286221D01*
X162608929Y66286221D01*
X162704167Y66333840D01*
X162751786Y66381459D01*
X162799405Y66476697D01*
X162799405Y66762411D01*
X162751786Y66857649D01*
X162704167Y66905268D01*
G04 #@! TO.C,D22*
X143749405Y68762411D02*
X142749405Y68762411D01*
X142749405Y68524316D01*
X142797025Y68381459D01*
X142892263Y68286221D01*
X142987501Y68238602D01*
X143177977Y68190983D01*
X143320834Y68190983D01*
X143511310Y68238602D01*
X143606548Y68286221D01*
X143701786Y68381459D01*
X143749405Y68524316D01*
X143749405Y68762411D01*
X142844644Y67810030D02*
X142797025Y67762411D01*
X142749405Y67667173D01*
X142749405Y67429078D01*
X142797025Y67333840D01*
X142844644Y67286221D01*
X142939882Y67238602D01*
X143035120Y67238602D01*
X143177977Y67286221D01*
X143749405Y67857649D01*
X143749405Y67238602D01*
X142844644Y66857649D02*
X142797025Y66810030D01*
X142749405Y66714792D01*
X142749405Y66476697D01*
X142797025Y66381459D01*
X142844644Y66333840D01*
X142939882Y66286221D01*
X143035120Y66286221D01*
X143177977Y66333840D01*
X143749405Y66905268D01*
X143749405Y66286221D01*
G04 #@! TO.C,D21*
X124699405Y68762411D02*
X123699405Y68762411D01*
X123699405Y68524316D01*
X123747025Y68381459D01*
X123842263Y68286221D01*
X123937501Y68238602D01*
X124127977Y68190983D01*
X124270834Y68190983D01*
X124461310Y68238602D01*
X124556548Y68286221D01*
X124651786Y68381459D01*
X124699405Y68524316D01*
X124699405Y68762411D01*
X123794644Y67810030D02*
X123747025Y67762411D01*
X123699405Y67667173D01*
X123699405Y67429078D01*
X123747025Y67333840D01*
X123794644Y67286221D01*
X123889882Y67238602D01*
X123985120Y67238602D01*
X124127977Y67286221D01*
X124699405Y67857649D01*
X124699405Y67238602D01*
X124699405Y66286221D02*
X124699405Y66857649D01*
X124699405Y66571935D02*
X123699405Y66571935D01*
X123842263Y66667173D01*
X123937501Y66762411D01*
X123985120Y66857649D01*
G04 #@! TO.C,D20*
X105649405Y68762411D02*
X104649405Y68762411D01*
X104649405Y68524316D01*
X104697025Y68381459D01*
X104792263Y68286221D01*
X104887501Y68238602D01*
X105077977Y68190983D01*
X105220834Y68190983D01*
X105411310Y68238602D01*
X105506548Y68286221D01*
X105601786Y68381459D01*
X105649405Y68524316D01*
X105649405Y68762411D01*
X104744644Y67810030D02*
X104697025Y67762411D01*
X104649405Y67667173D01*
X104649405Y67429078D01*
X104697025Y67333840D01*
X104744644Y67286221D01*
X104839882Y67238602D01*
X104935120Y67238602D01*
X105077977Y67286221D01*
X105649405Y67857649D01*
X105649405Y67238602D01*
X104649405Y66619554D02*
X104649405Y66524316D01*
X104697025Y66429078D01*
X104744644Y66381459D01*
X104839882Y66333840D01*
X105030358Y66286221D01*
X105268453Y66286221D01*
X105458929Y66333840D01*
X105554167Y66381459D01*
X105601786Y66429078D01*
X105649405Y66524316D01*
X105649405Y66619554D01*
X105601786Y66714792D01*
X105554167Y66762411D01*
X105458929Y66810030D01*
X105268453Y66857649D01*
X105030358Y66857649D01*
X104839882Y66810030D01*
X104744644Y66762411D01*
X104697025Y66714792D01*
X104649405Y66619554D01*
G04 #@! TO.C,D19*
X86599405Y68762411D02*
X85599405Y68762411D01*
X85599405Y68524316D01*
X85647025Y68381459D01*
X85742263Y68286221D01*
X85837501Y68238602D01*
X86027977Y68190983D01*
X86170834Y68190983D01*
X86361310Y68238602D01*
X86456548Y68286221D01*
X86551786Y68381459D01*
X86599405Y68524316D01*
X86599405Y68762411D01*
X86599405Y67238602D02*
X86599405Y67810030D01*
X86599405Y67524316D02*
X85599405Y67524316D01*
X85742263Y67619554D01*
X85837501Y67714792D01*
X85885120Y67810030D01*
X86599405Y66762411D02*
X86599405Y66571935D01*
X86551786Y66476697D01*
X86504167Y66429078D01*
X86361310Y66333840D01*
X86170834Y66286221D01*
X85789882Y66286221D01*
X85694644Y66333840D01*
X85647025Y66381459D01*
X85599405Y66476697D01*
X85599405Y66667173D01*
X85647025Y66762411D01*
X85694644Y66810030D01*
X85789882Y66857649D01*
X86027977Y66857649D01*
X86123215Y66810030D01*
X86170834Y66762411D01*
X86218453Y66667173D01*
X86218453Y66476697D01*
X86170834Y66381459D01*
X86123215Y66333840D01*
X86027977Y66286221D01*
G04 #@! TO.C,D18*
X67549405Y68762411D02*
X66549405Y68762411D01*
X66549405Y68524316D01*
X66597025Y68381459D01*
X66692263Y68286221D01*
X66787501Y68238602D01*
X66977977Y68190983D01*
X67120834Y68190983D01*
X67311310Y68238602D01*
X67406548Y68286221D01*
X67501786Y68381459D01*
X67549405Y68524316D01*
X67549405Y68762411D01*
X67549405Y67238602D02*
X67549405Y67810030D01*
X67549405Y67524316D02*
X66549405Y67524316D01*
X66692263Y67619554D01*
X66787501Y67714792D01*
X66835120Y67810030D01*
X66977977Y66667173D02*
X66930358Y66762411D01*
X66882739Y66810030D01*
X66787501Y66857649D01*
X66739882Y66857649D01*
X66644644Y66810030D01*
X66597025Y66762411D01*
X66549405Y66667173D01*
X66549405Y66476697D01*
X66597025Y66381459D01*
X66644644Y66333840D01*
X66739882Y66286221D01*
X66787501Y66286221D01*
X66882739Y66333840D01*
X66930358Y66381459D01*
X66977977Y66476697D01*
X66977977Y66667173D01*
X67025596Y66762411D01*
X67073215Y66810030D01*
X67168453Y66857649D01*
X67358929Y66857649D01*
X67454167Y66810030D01*
X67501786Y66762411D01*
X67549405Y66667173D01*
X67549405Y66476697D01*
X67501786Y66381459D01*
X67454167Y66333840D01*
X67358929Y66286221D01*
X67168453Y66286221D01*
X67073215Y66333840D01*
X67025596Y66381459D01*
X66977977Y66476697D01*
G04 #@! TO.C,D17*
X48499405Y68762411D02*
X47499405Y68762411D01*
X47499405Y68524316D01*
X47547025Y68381459D01*
X47642263Y68286221D01*
X47737501Y68238602D01*
X47927977Y68190983D01*
X48070834Y68190983D01*
X48261310Y68238602D01*
X48356548Y68286221D01*
X48451786Y68381459D01*
X48499405Y68524316D01*
X48499405Y68762411D01*
X48499405Y67238602D02*
X48499405Y67810030D01*
X48499405Y67524316D02*
X47499405Y67524316D01*
X47642263Y67619554D01*
X47737501Y67714792D01*
X47785120Y67810030D01*
X47499405Y66905268D02*
X47499405Y66238602D01*
X48499405Y66667173D01*
G04 #@! TO.C,D16*
X8018155Y72334286D02*
X7018155Y72334286D01*
X7018155Y72096191D01*
X7065775Y71953334D01*
X7161013Y71858096D01*
X7256251Y71810477D01*
X7446727Y71762858D01*
X7589584Y71762858D01*
X7780060Y71810477D01*
X7875298Y71858096D01*
X7970536Y71953334D01*
X8018155Y72096191D01*
X8018155Y72334286D01*
X8018155Y70810477D02*
X8018155Y71381905D01*
X8018155Y71096191D02*
X7018155Y71096191D01*
X7161013Y71191429D01*
X7256251Y71286667D01*
X7303870Y71381905D01*
X7018155Y69953334D02*
X7018155Y70143810D01*
X7065775Y70239048D01*
X7113394Y70286667D01*
X7256251Y70381905D01*
X7446727Y70429524D01*
X7827679Y70429524D01*
X7922917Y70381905D01*
X7970536Y70334286D01*
X8018155Y70239048D01*
X8018155Y70048572D01*
X7970536Y69953334D01*
X7922917Y69905715D01*
X7827679Y69858096D01*
X7589584Y69858096D01*
X7494346Y69905715D01*
X7446727Y69953334D01*
X7399108Y70048572D01*
X7399108Y70239048D01*
X7446727Y70334286D01*
X7494346Y70381905D01*
X7589584Y70429524D01*
G04 #@! TO.C,D15*
X284243155Y91384286D02*
X283243155Y91384286D01*
X283243155Y91146191D01*
X283290775Y91003334D01*
X283386013Y90908096D01*
X283481251Y90860477D01*
X283671727Y90812858D01*
X283814584Y90812858D01*
X284005060Y90860477D01*
X284100298Y90908096D01*
X284195536Y91003334D01*
X284243155Y91146191D01*
X284243155Y91384286D01*
X284243155Y89860477D02*
X284243155Y90431905D01*
X284243155Y90146191D02*
X283243155Y90146191D01*
X283386013Y90241429D01*
X283481251Y90336667D01*
X283528870Y90431905D01*
X283243155Y88955715D02*
X283243155Y89431905D01*
X283719346Y89479524D01*
X283671727Y89431905D01*
X283624108Y89336667D01*
X283624108Y89098572D01*
X283671727Y89003334D01*
X283719346Y88955715D01*
X283814584Y88908096D01*
X284052679Y88908096D01*
X284147917Y88955715D01*
X284195536Y89003334D01*
X284243155Y89098572D01*
X284243155Y89336667D01*
X284195536Y89431905D01*
X284147917Y89479524D01*
G04 #@! TO.C,D14*
X264104380Y92425686D02*
X263104380Y92425686D01*
X263104380Y92187591D01*
X263152000Y92044734D01*
X263247238Y91949496D01*
X263342476Y91901877D01*
X263532952Y91854258D01*
X263675809Y91854258D01*
X263866285Y91901877D01*
X263961523Y91949496D01*
X264056761Y92044734D01*
X264104380Y92187591D01*
X264104380Y92425686D01*
X264104380Y90901877D02*
X264104380Y91473305D01*
X264104380Y91187591D02*
X263104380Y91187591D01*
X263247238Y91282829D01*
X263342476Y91378067D01*
X263390095Y91473305D01*
X263437714Y90044734D02*
X264104380Y90044734D01*
X263056761Y90282829D02*
X263771047Y90520924D01*
X263771047Y89901877D01*
G04 #@! TO.C,D13*
X248524405Y87812411D02*
X247524405Y87812411D01*
X247524405Y87574316D01*
X247572025Y87431459D01*
X247667263Y87336221D01*
X247762501Y87288602D01*
X247952977Y87240983D01*
X248095834Y87240983D01*
X248286310Y87288602D01*
X248381548Y87336221D01*
X248476786Y87431459D01*
X248524405Y87574316D01*
X248524405Y87812411D01*
X248524405Y86288602D02*
X248524405Y86860030D01*
X248524405Y86574316D02*
X247524405Y86574316D01*
X247667263Y86669554D01*
X247762501Y86764792D01*
X247810120Y86860030D01*
X247524405Y85955268D02*
X247524405Y85336221D01*
X247905358Y85669554D01*
X247905358Y85526697D01*
X247952977Y85431459D01*
X248000596Y85383840D01*
X248095834Y85336221D01*
X248333929Y85336221D01*
X248429167Y85383840D01*
X248476786Y85431459D01*
X248524405Y85526697D01*
X248524405Y85812411D01*
X248476786Y85907649D01*
X248429167Y85955268D01*
G04 #@! TO.C,D12*
X229474405Y87812411D02*
X228474405Y87812411D01*
X228474405Y87574316D01*
X228522025Y87431459D01*
X228617263Y87336221D01*
X228712501Y87288602D01*
X228902977Y87240983D01*
X229045834Y87240983D01*
X229236310Y87288602D01*
X229331548Y87336221D01*
X229426786Y87431459D01*
X229474405Y87574316D01*
X229474405Y87812411D01*
X229474405Y86288602D02*
X229474405Y86860030D01*
X229474405Y86574316D02*
X228474405Y86574316D01*
X228617263Y86669554D01*
X228712501Y86764792D01*
X228760120Y86860030D01*
X228569644Y85907649D02*
X228522025Y85860030D01*
X228474405Y85764792D01*
X228474405Y85526697D01*
X228522025Y85431459D01*
X228569644Y85383840D01*
X228664882Y85336221D01*
X228760120Y85336221D01*
X228902977Y85383840D01*
X229474405Y85955268D01*
X229474405Y85336221D01*
G04 #@! TO.C,D11*
X210424405Y87812411D02*
X209424405Y87812411D01*
X209424405Y87574316D01*
X209472025Y87431459D01*
X209567263Y87336221D01*
X209662501Y87288602D01*
X209852977Y87240983D01*
X209995834Y87240983D01*
X210186310Y87288602D01*
X210281548Y87336221D01*
X210376786Y87431459D01*
X210424405Y87574316D01*
X210424405Y87812411D01*
X210424405Y86288602D02*
X210424405Y86860030D01*
X210424405Y86574316D02*
X209424405Y86574316D01*
X209567263Y86669554D01*
X209662501Y86764792D01*
X209710120Y86860030D01*
X210424405Y85336221D02*
X210424405Y85907649D01*
X210424405Y85621935D02*
X209424405Y85621935D01*
X209567263Y85717173D01*
X209662501Y85812411D01*
X209710120Y85907649D01*
G04 #@! TO.C,D10*
X189685685Y86447620D02*
X189685685Y87447620D01*
X189447590Y87447620D01*
X189304733Y87400000D01*
X189209495Y87304762D01*
X189161876Y87209524D01*
X189114257Y87019048D01*
X189114257Y86876191D01*
X189161876Y86685715D01*
X189209495Y86590477D01*
X189304733Y86495239D01*
X189447590Y86447620D01*
X189685685Y86447620D01*
X188161876Y86447620D02*
X188733304Y86447620D01*
X188447590Y86447620D02*
X188447590Y87447620D01*
X188542828Y87304762D01*
X188638066Y87209524D01*
X188733304Y87161905D01*
X187542828Y87447620D02*
X187447590Y87447620D01*
X187352352Y87400000D01*
X187304733Y87352381D01*
X187257114Y87257143D01*
X187209495Y87066667D01*
X187209495Y86828572D01*
X187257114Y86638096D01*
X187304733Y86542858D01*
X187352352Y86495239D01*
X187447590Y86447620D01*
X187542828Y86447620D01*
X187638066Y86495239D01*
X187685685Y86542858D01*
X187733304Y86638096D01*
X187780923Y86828572D01*
X187780923Y87066667D01*
X187733304Y87257143D01*
X187685685Y87352381D01*
X187638066Y87400000D01*
X187542828Y87447620D01*
G04 #@! TO.C,D9*
X172324405Y87336221D02*
X171324405Y87336221D01*
X171324405Y87098125D01*
X171372025Y86955268D01*
X171467263Y86860030D01*
X171562501Y86812411D01*
X171752977Y86764792D01*
X171895834Y86764792D01*
X172086310Y86812411D01*
X172181548Y86860030D01*
X172276786Y86955268D01*
X172324405Y87098125D01*
X172324405Y87336221D01*
X172324405Y86288602D02*
X172324405Y86098125D01*
X172276786Y86002887D01*
X172229167Y85955268D01*
X172086310Y85860030D01*
X171895834Y85812411D01*
X171514882Y85812411D01*
X171419644Y85860030D01*
X171372025Y85907649D01*
X171324405Y86002887D01*
X171324405Y86193364D01*
X171372025Y86288602D01*
X171419644Y86336221D01*
X171514882Y86383840D01*
X171752977Y86383840D01*
X171848215Y86336221D01*
X171895834Y86288602D01*
X171943453Y86193364D01*
X171943453Y86002887D01*
X171895834Y85907649D01*
X171848215Y85860030D01*
X171752977Y85812411D01*
G04 #@! TO.C,D8*
X153274405Y87336221D02*
X152274405Y87336221D01*
X152274405Y87098125D01*
X152322025Y86955268D01*
X152417263Y86860030D01*
X152512501Y86812411D01*
X152702977Y86764792D01*
X152845834Y86764792D01*
X153036310Y86812411D01*
X153131548Y86860030D01*
X153226786Y86955268D01*
X153274405Y87098125D01*
X153274405Y87336221D01*
X152702977Y86193364D02*
X152655358Y86288602D01*
X152607739Y86336221D01*
X152512501Y86383840D01*
X152464882Y86383840D01*
X152369644Y86336221D01*
X152322025Y86288602D01*
X152274405Y86193364D01*
X152274405Y86002887D01*
X152322025Y85907649D01*
X152369644Y85860030D01*
X152464882Y85812411D01*
X152512501Y85812411D01*
X152607739Y85860030D01*
X152655358Y85907649D01*
X152702977Y86002887D01*
X152702977Y86193364D01*
X152750596Y86288602D01*
X152798215Y86336221D01*
X152893453Y86383840D01*
X153083929Y86383840D01*
X153179167Y86336221D01*
X153226786Y86288602D01*
X153274405Y86193364D01*
X153274405Y86002887D01*
X153226786Y85907649D01*
X153179167Y85860030D01*
X153083929Y85812411D01*
X152893453Y85812411D01*
X152798215Y85860030D01*
X152750596Y85907649D01*
X152702977Y86002887D01*
G04 #@! TO.C,D7*
X134224405Y87336221D02*
X133224405Y87336221D01*
X133224405Y87098125D01*
X133272025Y86955268D01*
X133367263Y86860030D01*
X133462501Y86812411D01*
X133652977Y86764792D01*
X133795834Y86764792D01*
X133986310Y86812411D01*
X134081548Y86860030D01*
X134176786Y86955268D01*
X134224405Y87098125D01*
X134224405Y87336221D01*
X133224405Y86431459D02*
X133224405Y85764792D01*
X134224405Y86193364D01*
G04 #@! TO.C,D6*
X115174405Y87336221D02*
X114174405Y87336221D01*
X114174405Y87098125D01*
X114222025Y86955268D01*
X114317263Y86860030D01*
X114412501Y86812411D01*
X114602977Y86764792D01*
X114745834Y86764792D01*
X114936310Y86812411D01*
X115031548Y86860030D01*
X115126786Y86955268D01*
X115174405Y87098125D01*
X115174405Y87336221D01*
X114174405Y85907649D02*
X114174405Y86098125D01*
X114222025Y86193364D01*
X114269644Y86240983D01*
X114412501Y86336221D01*
X114602977Y86383840D01*
X114983929Y86383840D01*
X115079167Y86336221D01*
X115126786Y86288602D01*
X115174405Y86193364D01*
X115174405Y86002887D01*
X115126786Y85907649D01*
X115079167Y85860030D01*
X114983929Y85812411D01*
X114745834Y85812411D01*
X114650596Y85860030D01*
X114602977Y85907649D01*
X114555358Y86002887D01*
X114555358Y86193364D01*
X114602977Y86288602D01*
X114650596Y86336221D01*
X114745834Y86383840D01*
G04 #@! TO.C,D5*
X96124405Y87336221D02*
X95124405Y87336221D01*
X95124405Y87098125D01*
X95172025Y86955268D01*
X95267263Y86860030D01*
X95362501Y86812411D01*
X95552977Y86764792D01*
X95695834Y86764792D01*
X95886310Y86812411D01*
X95981548Y86860030D01*
X96076786Y86955268D01*
X96124405Y87098125D01*
X96124405Y87336221D01*
X95124405Y85860030D02*
X95124405Y86336221D01*
X95600596Y86383840D01*
X95552977Y86336221D01*
X95505358Y86240983D01*
X95505358Y86002887D01*
X95552977Y85907649D01*
X95600596Y85860030D01*
X95695834Y85812411D01*
X95933929Y85812411D01*
X96029167Y85860030D01*
X96076786Y85907649D01*
X96124405Y86002887D01*
X96124405Y86240983D01*
X96076786Y86336221D01*
X96029167Y86383840D01*
G04 #@! TO.C,D4*
X75399495Y86347620D02*
X75399495Y87347620D01*
X75161400Y87347620D01*
X75018542Y87300000D01*
X74923304Y87204762D01*
X74875685Y87109524D01*
X74828066Y86919048D01*
X74828066Y86776191D01*
X74875685Y86585715D01*
X74923304Y86490477D01*
X75018542Y86395239D01*
X75161400Y86347620D01*
X75399495Y86347620D01*
X73970923Y87014286D02*
X73970923Y86347620D01*
X74209019Y87395239D02*
X74447114Y86680953D01*
X73828066Y86680953D01*
G04 #@! TO.C,D3*
X58024405Y87336221D02*
X57024405Y87336221D01*
X57024405Y87098125D01*
X57072025Y86955268D01*
X57167263Y86860030D01*
X57262501Y86812411D01*
X57452977Y86764792D01*
X57595834Y86764792D01*
X57786310Y86812411D01*
X57881548Y86860030D01*
X57976786Y86955268D01*
X58024405Y87098125D01*
X58024405Y87336221D01*
X57024405Y86431459D02*
X57024405Y85812411D01*
X57405358Y86145745D01*
X57405358Y86002887D01*
X57452977Y85907649D01*
X57500596Y85860030D01*
X57595834Y85812411D01*
X57833929Y85812411D01*
X57929167Y85860030D01*
X57976786Y85907649D01*
X58024405Y86002887D01*
X58024405Y86288602D01*
X57976786Y86383840D01*
X57929167Y86431459D01*
G04 #@! TO.C,D2*
X38974405Y87336221D02*
X37974405Y87336221D01*
X37974405Y87098125D01*
X38022025Y86955268D01*
X38117263Y86860030D01*
X38212501Y86812411D01*
X38402977Y86764792D01*
X38545834Y86764792D01*
X38736310Y86812411D01*
X38831548Y86860030D01*
X38926786Y86955268D01*
X38974405Y87098125D01*
X38974405Y87336221D01*
X38069644Y86383840D02*
X38022025Y86336221D01*
X37974405Y86240983D01*
X37974405Y86002887D01*
X38022025Y85907649D01*
X38069644Y85860030D01*
X38164882Y85812411D01*
X38260120Y85812411D01*
X38402977Y85860030D01*
X38974405Y86431459D01*
X38974405Y85812411D01*
G04 #@! TO.C,D1*
X6478495Y92791020D02*
X6478495Y93791020D01*
X6240400Y93791020D01*
X6097542Y93743400D01*
X6002304Y93648162D01*
X5954685Y93552924D01*
X5907066Y93362448D01*
X5907066Y93219591D01*
X5954685Y93029115D01*
X6002304Y92933877D01*
X6097542Y92838639D01*
X6240400Y92791020D01*
X6478495Y92791020D01*
X4954685Y92791020D02*
X5526114Y92791020D01*
X5240400Y92791020D02*
X5240400Y93791020D01*
X5335638Y93648162D01*
X5430876Y93552924D01*
X5526114Y93505305D01*
G04 #@! TO.C,Y1*
X43316390Y57880410D02*
X43316390Y57404220D01*
X43649723Y58404220D02*
X43316390Y57880410D01*
X42983057Y58404220D01*
X42125914Y57404220D02*
X42697342Y57404220D01*
X42411628Y57404220D02*
X42411628Y58404220D01*
X42506866Y58261362D01*
X42602104Y58166124D01*
X42697342Y58118505D01*
G04 #@! TO.C,U1*
D15*
X25020655Y54022530D02*
X25830179Y54022530D01*
X25925417Y53974911D01*
X25973036Y53927292D01*
X26020655Y53832054D01*
X26020655Y53641578D01*
X25973036Y53546340D01*
X25925417Y53498721D01*
X25830179Y53451102D01*
X25020655Y53451102D01*
X26020655Y52451102D02*
X26020655Y53022530D01*
X26020655Y52736816D02*
X25020655Y52736816D01*
X25163513Y52832054D01*
X25258751Y52927292D01*
X25306370Y53022530D01*
G04 #@! TO.C,SW1*
D10*
X24747161Y37909334D02*
X24794780Y37766477D01*
X24794780Y37528381D01*
X24747161Y37433143D01*
X24699542Y37385524D01*
X24604304Y37337905D01*
X24509066Y37337905D01*
X24413828Y37385524D01*
X24366209Y37433143D01*
X24318590Y37528381D01*
X24270971Y37718858D01*
X24223352Y37814096D01*
X24175733Y37861715D01*
X24080495Y37909334D01*
X23985257Y37909334D01*
X23890019Y37861715D01*
X23842400Y37814096D01*
X23794780Y37718858D01*
X23794780Y37480762D01*
X23842400Y37337905D01*
X23794780Y37004572D02*
X24794780Y36766477D01*
X24080495Y36576000D01*
X24794780Y36385524D01*
X23794780Y36147429D01*
X24794780Y35242667D02*
X24794780Y35814096D01*
X24794780Y35528381D02*
X23794780Y35528381D01*
X23937638Y35623620D01*
X24032876Y35718858D01*
X24080495Y35814096D01*
G04 #@! TO.C,RC7*
X26698066Y92067620D02*
X27031400Y92543810D01*
X27269495Y92067620D02*
X27269495Y93067620D01*
X26888542Y93067620D01*
X26793304Y93020000D01*
X26745685Y92972381D01*
X26698066Y92877143D01*
X26698066Y92734286D01*
X26745685Y92639048D01*
X26793304Y92591429D01*
X26888542Y92543810D01*
X27269495Y92543810D01*
X25698066Y92162858D02*
X25745685Y92115239D01*
X25888542Y92067620D01*
X25983780Y92067620D01*
X26126638Y92115239D01*
X26221876Y92210477D01*
X26269495Y92305715D01*
X26317114Y92496191D01*
X26317114Y92639048D01*
X26269495Y92829524D01*
X26221876Y92924762D01*
X26126638Y93020000D01*
X25983780Y93067620D01*
X25888542Y93067620D01*
X25745685Y93020000D01*
X25698066Y92972381D01*
X25364733Y93067620D02*
X24698066Y93067620D01*
X25126638Y92067620D01*
G04 #@! TO.C,RC6*
X10457866Y87870220D02*
X10791200Y88346410D01*
X11029295Y87870220D02*
X11029295Y88870220D01*
X10648342Y88870220D01*
X10553104Y88822600D01*
X10505485Y88774981D01*
X10457866Y88679743D01*
X10457866Y88536886D01*
X10505485Y88441648D01*
X10553104Y88394029D01*
X10648342Y88346410D01*
X11029295Y88346410D01*
X9457866Y87965458D02*
X9505485Y87917839D01*
X9648342Y87870220D01*
X9743580Y87870220D01*
X9886438Y87917839D01*
X9981676Y88013077D01*
X10029295Y88108315D01*
X10076914Y88298791D01*
X10076914Y88441648D01*
X10029295Y88632124D01*
X9981676Y88727362D01*
X9886438Y88822600D01*
X9743580Y88870220D01*
X9648342Y88870220D01*
X9505485Y88822600D01*
X9457866Y88774981D01*
X8600723Y88870220D02*
X8791200Y88870220D01*
X8886438Y88822600D01*
X8934057Y88774981D01*
X9029295Y88632124D01*
X9076914Y88441648D01*
X9076914Y88060696D01*
X9029295Y87965458D01*
X8981676Y87917839D01*
X8886438Y87870220D01*
X8695961Y87870220D01*
X8600723Y87917839D01*
X8553104Y87965458D01*
X8505485Y88060696D01*
X8505485Y88298791D01*
X8553104Y88394029D01*
X8600723Y88441648D01*
X8695961Y88489267D01*
X8886438Y88489267D01*
X8981676Y88441648D01*
X9029295Y88394029D01*
X9076914Y88298791D01*
G04 #@! TO.C,RC5*
X16047980Y79457467D02*
X15571790Y79790800D01*
X16047980Y80028896D02*
X15047980Y80028896D01*
X15047980Y79647943D01*
X15095600Y79552705D01*
X15143219Y79505086D01*
X15238457Y79457467D01*
X15381314Y79457467D01*
X15476552Y79505086D01*
X15524171Y79552705D01*
X15571790Y79647943D01*
X15571790Y80028896D01*
X15952742Y78457467D02*
X16000361Y78505086D01*
X16047980Y78647943D01*
X16047980Y78743181D01*
X16000361Y78886039D01*
X15905123Y78981277D01*
X15809885Y79028896D01*
X15619409Y79076515D01*
X15476552Y79076515D01*
X15286076Y79028896D01*
X15190838Y78981277D01*
X15095600Y78886039D01*
X15047980Y78743181D01*
X15047980Y78647943D01*
X15095600Y78505086D01*
X15143219Y78457467D01*
X15047980Y77552705D02*
X15047980Y78028896D01*
X15524171Y78076515D01*
X15476552Y78028896D01*
X15428933Y77933658D01*
X15428933Y77695562D01*
X15476552Y77600324D01*
X15524171Y77552705D01*
X15619409Y77505086D01*
X15857504Y77505086D01*
X15952742Y77552705D01*
X16000361Y77600324D01*
X16047980Y77695562D01*
X16047980Y77933658D01*
X16000361Y78028896D01*
X15952742Y78076515D01*
G04 #@! TO.C,RC4*
X21183780Y79486667D02*
X20707590Y79820000D01*
X21183780Y80058096D02*
X20183780Y80058096D01*
X20183780Y79677143D01*
X20231400Y79581905D01*
X20279019Y79534286D01*
X20374257Y79486667D01*
X20517114Y79486667D01*
X20612352Y79534286D01*
X20659971Y79581905D01*
X20707590Y79677143D01*
X20707590Y80058096D01*
X21088542Y78486667D02*
X21136161Y78534286D01*
X21183780Y78677143D01*
X21183780Y78772381D01*
X21136161Y78915239D01*
X21040923Y79010477D01*
X20945685Y79058096D01*
X20755209Y79105715D01*
X20612352Y79105715D01*
X20421876Y79058096D01*
X20326638Y79010477D01*
X20231400Y78915239D01*
X20183780Y78772381D01*
X20183780Y78677143D01*
X20231400Y78534286D01*
X20279019Y78486667D01*
X20517114Y77629524D02*
X21183780Y77629524D01*
X20136161Y77867620D02*
X20850447Y78105715D01*
X20850447Y77486667D01*
G04 #@! TO.C,RC3*
X40062066Y59163620D02*
X40395400Y59639810D01*
X40633495Y59163620D02*
X40633495Y60163620D01*
X40252542Y60163620D01*
X40157304Y60116000D01*
X40109685Y60068381D01*
X40062066Y59973143D01*
X40062066Y59830286D01*
X40109685Y59735048D01*
X40157304Y59687429D01*
X40252542Y59639810D01*
X40633495Y59639810D01*
X39062066Y59258858D02*
X39109685Y59211239D01*
X39252542Y59163620D01*
X39347780Y59163620D01*
X39490638Y59211239D01*
X39585876Y59306477D01*
X39633495Y59401715D01*
X39681114Y59592191D01*
X39681114Y59735048D01*
X39633495Y59925524D01*
X39585876Y60020762D01*
X39490638Y60116000D01*
X39347780Y60163620D01*
X39252542Y60163620D01*
X39109685Y60116000D01*
X39062066Y60068381D01*
X38728733Y60163620D02*
X38109685Y60163620D01*
X38443019Y59782667D01*
X38300161Y59782667D01*
X38204923Y59735048D01*
X38157304Y59687429D01*
X38109685Y59592191D01*
X38109685Y59354096D01*
X38157304Y59258858D01*
X38204923Y59211239D01*
X38300161Y59163620D01*
X38585876Y59163620D01*
X38681114Y59211239D01*
X38728733Y59258858D01*
G04 #@! TO.C,RC2*
X25282441Y44733245D02*
X25615775Y45209435D01*
X25853870Y44733245D02*
X25853870Y45733245D01*
X25472917Y45733245D01*
X25377679Y45685625D01*
X25330060Y45638006D01*
X25282441Y45542768D01*
X25282441Y45399911D01*
X25330060Y45304673D01*
X25377679Y45257054D01*
X25472917Y45209435D01*
X25853870Y45209435D01*
X24282441Y44828483D02*
X24330060Y44780864D01*
X24472917Y44733245D01*
X24568155Y44733245D01*
X24711013Y44780864D01*
X24806251Y44876102D01*
X24853870Y44971340D01*
X24901489Y45161816D01*
X24901489Y45304673D01*
X24853870Y45495149D01*
X24806251Y45590387D01*
X24711013Y45685625D01*
X24568155Y45733245D01*
X24472917Y45733245D01*
X24330060Y45685625D01*
X24282441Y45638006D01*
X23901489Y45638006D02*
X23853870Y45685625D01*
X23758632Y45733245D01*
X23520536Y45733245D01*
X23425298Y45685625D01*
X23377679Y45638006D01*
X23330060Y45542768D01*
X23330060Y45447530D01*
X23377679Y45304673D01*
X23949108Y44733245D01*
X23330060Y44733245D01*
G04 #@! TO.C,RC1*
X29902066Y41277620D02*
X30235400Y41753810D01*
X30473495Y41277620D02*
X30473495Y42277620D01*
X30092542Y42277620D01*
X29997304Y42230000D01*
X29949685Y42182381D01*
X29902066Y42087143D01*
X29902066Y41944286D01*
X29949685Y41849048D01*
X29997304Y41801429D01*
X30092542Y41753810D01*
X30473495Y41753810D01*
X28902066Y41372858D02*
X28949685Y41325239D01*
X29092542Y41277620D01*
X29187780Y41277620D01*
X29330638Y41325239D01*
X29425876Y41420477D01*
X29473495Y41515715D01*
X29521114Y41706191D01*
X29521114Y41849048D01*
X29473495Y42039524D01*
X29425876Y42134762D01*
X29330638Y42230000D01*
X29187780Y42277620D01*
X29092542Y42277620D01*
X28949685Y42230000D01*
X28902066Y42182381D01*
X27949685Y41277620D02*
X28521114Y41277620D01*
X28235400Y41277620D02*
X28235400Y42277620D01*
X28330638Y42134762D01*
X28425876Y42039524D01*
X28521114Y41991905D01*
G04 #@! TO.C,R22*
X130102530Y61047233D02*
X129626340Y61380566D01*
X130102530Y61618661D02*
X129102530Y61618661D01*
X129102530Y61237709D01*
X129150150Y61142471D01*
X129197769Y61094852D01*
X129293007Y61047233D01*
X129435864Y61047233D01*
X129531102Y61094852D01*
X129578721Y61142471D01*
X129626340Y61237709D01*
X129626340Y61618661D01*
X129197769Y60666280D02*
X129150150Y60618661D01*
X129102530Y60523423D01*
X129102530Y60285328D01*
X129150150Y60190090D01*
X129197769Y60142471D01*
X129293007Y60094852D01*
X129388245Y60094852D01*
X129531102Y60142471D01*
X130102530Y60713899D01*
X130102530Y60094852D01*
X129197769Y59713899D02*
X129150150Y59666280D01*
X129102530Y59571042D01*
X129102530Y59332947D01*
X129150150Y59237709D01*
X129197769Y59190090D01*
X129293007Y59142471D01*
X129388245Y59142471D01*
X129531102Y59190090D01*
X130102530Y59761518D01*
X130102530Y59142471D01*
G04 #@! TO.C,R21*
X111052530Y61047233D02*
X110576340Y61380566D01*
X111052530Y61618661D02*
X110052530Y61618661D01*
X110052530Y61237709D01*
X110100150Y61142471D01*
X110147769Y61094852D01*
X110243007Y61047233D01*
X110385864Y61047233D01*
X110481102Y61094852D01*
X110528721Y61142471D01*
X110576340Y61237709D01*
X110576340Y61618661D01*
X110147769Y60666280D02*
X110100150Y60618661D01*
X110052530Y60523423D01*
X110052530Y60285328D01*
X110100150Y60190090D01*
X110147769Y60142471D01*
X110243007Y60094852D01*
X110338245Y60094852D01*
X110481102Y60142471D01*
X111052530Y60713899D01*
X111052530Y60094852D01*
X111052530Y59142471D02*
X111052530Y59713899D01*
X111052530Y59428185D02*
X110052530Y59428185D01*
X110195388Y59523423D01*
X110290626Y59618661D01*
X110338245Y59713899D01*
G04 #@! TO.C,R20*
X92002530Y61047233D02*
X91526340Y61380566D01*
X92002530Y61618661D02*
X91002530Y61618661D01*
X91002530Y61237709D01*
X91050150Y61142471D01*
X91097769Y61094852D01*
X91193007Y61047233D01*
X91335864Y61047233D01*
X91431102Y61094852D01*
X91478721Y61142471D01*
X91526340Y61237709D01*
X91526340Y61618661D01*
X91097769Y60666280D02*
X91050150Y60618661D01*
X91002530Y60523423D01*
X91002530Y60285328D01*
X91050150Y60190090D01*
X91097769Y60142471D01*
X91193007Y60094852D01*
X91288245Y60094852D01*
X91431102Y60142471D01*
X92002530Y60713899D01*
X92002530Y60094852D01*
X91002530Y59475804D02*
X91002530Y59380566D01*
X91050150Y59285328D01*
X91097769Y59237709D01*
X91193007Y59190090D01*
X91383483Y59142471D01*
X91621578Y59142471D01*
X91812054Y59190090D01*
X91907292Y59237709D01*
X91954911Y59285328D01*
X92002530Y59380566D01*
X92002530Y59475804D01*
X91954911Y59571042D01*
X91907292Y59618661D01*
X91812054Y59666280D01*
X91621578Y59713899D01*
X91383483Y59713899D01*
X91193007Y59666280D01*
X91097769Y59618661D01*
X91050150Y59571042D01*
X91002530Y59475804D01*
G04 #@! TO.C,DP1*
X20873980Y84702496D02*
X19873980Y84702496D01*
X19873980Y84464400D01*
X19921600Y84321543D01*
X20016838Y84226305D01*
X20112076Y84178686D01*
X20302552Y84131067D01*
X20445409Y84131067D01*
X20635885Y84178686D01*
X20731123Y84226305D01*
X20826361Y84321543D01*
X20873980Y84464400D01*
X20873980Y84702496D01*
X20873980Y83702496D02*
X19873980Y83702496D01*
X19873980Y83321543D01*
X19921600Y83226305D01*
X19969219Y83178686D01*
X20064457Y83131067D01*
X20207314Y83131067D01*
X20302552Y83178686D01*
X20350171Y83226305D01*
X20397790Y83321543D01*
X20397790Y83702496D01*
X20873980Y82178686D02*
X20873980Y82750115D01*
X20873980Y82464400D02*
X19873980Y82464400D01*
X20016838Y82559639D01*
X20112076Y82654877D01*
X20159695Y82750115D01*
G04 #@! TO.C,C8*
X20019941Y60356608D02*
X20067560Y60308989D01*
X20210417Y60261370D01*
X20305655Y60261370D01*
X20448513Y60308989D01*
X20543751Y60404227D01*
X20591370Y60499465D01*
X20638989Y60689941D01*
X20638989Y60832798D01*
X20591370Y61023274D01*
X20543751Y61118512D01*
X20448513Y61213750D01*
X20305655Y61261370D01*
X20210417Y61261370D01*
X20067560Y61213750D01*
X20019941Y61166131D01*
X19448513Y60832798D02*
X19543751Y60880417D01*
X19591370Y60928036D01*
X19638989Y61023274D01*
X19638989Y61070893D01*
X19591370Y61166131D01*
X19543751Y61213750D01*
X19448513Y61261370D01*
X19258036Y61261370D01*
X19162798Y61213750D01*
X19115179Y61166131D01*
X19067560Y61070893D01*
X19067560Y61023274D01*
X19115179Y60928036D01*
X19162798Y60880417D01*
X19258036Y60832798D01*
X19448513Y60832798D01*
X19543751Y60785179D01*
X19591370Y60737560D01*
X19638989Y60642322D01*
X19638989Y60451846D01*
X19591370Y60356608D01*
X19543751Y60308989D01*
X19448513Y60261370D01*
X19258036Y60261370D01*
X19162798Y60308989D01*
X19115179Y60356608D01*
X19067560Y60451846D01*
X19067560Y60642322D01*
X19115179Y60737560D01*
X19162798Y60785179D01*
X19258036Y60832798D01*
G04 #@! TO.C,C7*
X35448066Y43162858D02*
X35495685Y43115239D01*
X35638542Y43067620D01*
X35733780Y43067620D01*
X35876638Y43115239D01*
X35971876Y43210477D01*
X36019495Y43305715D01*
X36067114Y43496191D01*
X36067114Y43639048D01*
X36019495Y43829524D01*
X35971876Y43924762D01*
X35876638Y44020000D01*
X35733780Y44067620D01*
X35638542Y44067620D01*
X35495685Y44020000D01*
X35448066Y43972381D01*
X35114733Y44067620D02*
X34448066Y44067620D01*
X34876638Y43067620D01*
G04 #@! TO.C,C6*
X17565666Y49909458D02*
X17613285Y49861839D01*
X17756142Y49814220D01*
X17851380Y49814220D01*
X17994238Y49861839D01*
X18089476Y49957077D01*
X18137095Y50052315D01*
X18184714Y50242791D01*
X18184714Y50385648D01*
X18137095Y50576124D01*
X18089476Y50671362D01*
X17994238Y50766600D01*
X17851380Y50814220D01*
X17756142Y50814220D01*
X17613285Y50766600D01*
X17565666Y50718981D01*
X16708523Y50814220D02*
X16899000Y50814220D01*
X16994238Y50766600D01*
X17041857Y50718981D01*
X17137095Y50576124D01*
X17184714Y50385648D01*
X17184714Y50004696D01*
X17137095Y49909458D01*
X17089476Y49861839D01*
X16994238Y49814220D01*
X16803761Y49814220D01*
X16708523Y49861839D01*
X16660904Y49909458D01*
X16613285Y50004696D01*
X16613285Y50242791D01*
X16660904Y50338029D01*
X16708523Y50385648D01*
X16803761Y50433267D01*
X16994238Y50433267D01*
X17089476Y50385648D01*
X17137095Y50338029D01*
X17184714Y50242791D01*
G04 #@! TO.C,C5*
X18710417Y55808542D02*
X18758036Y55856161D01*
X18805655Y55999018D01*
X18805655Y56094256D01*
X18758036Y56237114D01*
X18662798Y56332352D01*
X18567560Y56379971D01*
X18377084Y56427590D01*
X18234227Y56427590D01*
X18043751Y56379971D01*
X17948513Y56332352D01*
X17853275Y56237114D01*
X17805655Y56094256D01*
X17805655Y55999018D01*
X17853275Y55856161D01*
X17900894Y55808542D01*
X17805655Y54903780D02*
X17805655Y55379971D01*
X18281846Y55427590D01*
X18234227Y55379971D01*
X18186608Y55284733D01*
X18186608Y55046637D01*
X18234227Y54951399D01*
X18281846Y54903780D01*
X18377084Y54856161D01*
X18615179Y54856161D01*
X18710417Y54903780D01*
X18758036Y54951399D01*
X18805655Y55046637D01*
X18805655Y55284733D01*
X18758036Y55379971D01*
X18710417Y55427590D01*
G04 #@! TO.C,C4*
X38419066Y54100458D02*
X38466685Y54052839D01*
X38609542Y54005220D01*
X38704780Y54005220D01*
X38847638Y54052839D01*
X38942876Y54148077D01*
X38990495Y54243315D01*
X39038114Y54433791D01*
X39038114Y54576648D01*
X38990495Y54767124D01*
X38942876Y54862362D01*
X38847638Y54957600D01*
X38704780Y55005220D01*
X38609542Y55005220D01*
X38466685Y54957600D01*
X38419066Y54909981D01*
X37561923Y54671886D02*
X37561923Y54005220D01*
X37800019Y55052839D02*
X38038114Y54338553D01*
X37419066Y54338553D01*
G04 #@! TO.C,C3*
X29490942Y62955467D02*
X29538561Y63003086D01*
X29586180Y63145943D01*
X29586180Y63241181D01*
X29538561Y63384039D01*
X29443323Y63479277D01*
X29348085Y63526896D01*
X29157609Y63574515D01*
X29014752Y63574515D01*
X28824276Y63526896D01*
X28729038Y63479277D01*
X28633800Y63384039D01*
X28586180Y63241181D01*
X28586180Y63145943D01*
X28633800Y63003086D01*
X28681419Y62955467D01*
X28586180Y62622134D02*
X28586180Y62003086D01*
X28967133Y62336420D01*
X28967133Y62193562D01*
X29014752Y62098324D01*
X29062371Y62050705D01*
X29157609Y62003086D01*
X29395704Y62003086D01*
X29490942Y62050705D01*
X29538561Y62098324D01*
X29586180Y62193562D01*
X29586180Y62479277D01*
X29538561Y62574515D01*
X29490942Y62622134D01*
G04 #@! TO.C,C2*
X45666866Y62673858D02*
X45714485Y62626239D01*
X45857342Y62578620D01*
X45952580Y62578620D01*
X46095438Y62626239D01*
X46190676Y62721477D01*
X46238295Y62816715D01*
X46285914Y63007191D01*
X46285914Y63150048D01*
X46238295Y63340524D01*
X46190676Y63435762D01*
X46095438Y63531000D01*
X45952580Y63578620D01*
X45857342Y63578620D01*
X45714485Y63531000D01*
X45666866Y63483381D01*
X45285914Y63483381D02*
X45238295Y63531000D01*
X45143057Y63578620D01*
X44904961Y63578620D01*
X44809723Y63531000D01*
X44762104Y63483381D01*
X44714485Y63388143D01*
X44714485Y63292905D01*
X44762104Y63150048D01*
X45333533Y62578620D01*
X44714485Y62578620D01*
G04 #@! TO.C,C1*
X45601066Y54922658D02*
X45648685Y54875039D01*
X45791542Y54827420D01*
X45886780Y54827420D01*
X46029638Y54875039D01*
X46124876Y54970277D01*
X46172495Y55065515D01*
X46220114Y55255991D01*
X46220114Y55398848D01*
X46172495Y55589324D01*
X46124876Y55684562D01*
X46029638Y55779800D01*
X45886780Y55827420D01*
X45791542Y55827420D01*
X45648685Y55779800D01*
X45601066Y55732181D01*
X44648685Y54827420D02*
X45220114Y54827420D01*
X44934400Y54827420D02*
X44934400Y55827420D01*
X45029638Y55684562D01*
X45124876Y55589324D01*
X45220114Y55541705D01*
G04 #@! TO.C,J1*
X48518380Y75136334D02*
X49232666Y75136334D01*
X49375523Y75183953D01*
X49470761Y75279191D01*
X49518380Y75422048D01*
X49518380Y75517286D01*
X49518380Y74136334D02*
X49518380Y74707762D01*
X49518380Y74422048D02*
X48518380Y74422048D01*
X48661238Y74517286D01*
X48756476Y74612524D01*
X48804095Y74707762D01*
G04 #@! TO.C,Q1*
X18280019Y37154239D02*
X18232400Y37249477D01*
X18137161Y37344715D01*
X17994304Y37487572D01*
X17946685Y37582810D01*
X17946685Y37678048D01*
X18184780Y37630429D02*
X18137161Y37725667D01*
X18041923Y37820905D01*
X17851447Y37868524D01*
X17518114Y37868524D01*
X17327638Y37820905D01*
X17232400Y37725667D01*
X17184780Y37630429D01*
X17184780Y37439953D01*
X17232400Y37344715D01*
X17327638Y37249477D01*
X17518114Y37201858D01*
X17851447Y37201858D01*
X18041923Y37249477D01*
X18137161Y37344715D01*
X18184780Y37439953D01*
X18184780Y37630429D01*
X18184780Y36249477D02*
X18184780Y36820905D01*
X18184780Y36535191D02*
X17184780Y36535191D01*
X17327638Y36630429D01*
X17422876Y36725667D01*
X17470495Y36820905D01*
G04 #@! TD*
M02*
