G04 #@! TF.FileFunction,Legend,Top*
%FSLAX46Y46*%
G04 Gerber Fmt 4.6, Leading zero omitted, Abs format (unit mm)*
G04 Created by KiCad (PCBNEW 4.0.7-e2-6376~58~ubuntu16.04.1) date Wed Jun 13 09:42:48 2018*
%MOMM*%
%LPD*%
G01*
G04 APERTURE LIST*
%ADD10C,0.100000*%
%ADD11C,0.300000*%
G04 APERTURE END LIST*
D10*
D11*
X38643684Y18879429D02*
X38643684Y20379429D01*
X39286541Y18879429D02*
X39286541Y19665143D01*
X39215112Y19808000D01*
X39072255Y19879429D01*
X38857970Y19879429D01*
X38715112Y19808000D01*
X38643684Y19736571D01*
X39786541Y19879429D02*
X40357970Y19879429D01*
X40000827Y20379429D02*
X40000827Y19093714D01*
X40072255Y18950857D01*
X40215113Y18879429D01*
X40357970Y18879429D01*
X40643684Y19879429D02*
X41215113Y19879429D01*
X40857970Y20379429D02*
X40857970Y19093714D01*
X40929398Y18950857D01*
X41072256Y18879429D01*
X41215113Y18879429D01*
X41715113Y19879429D02*
X41715113Y18379429D01*
X41715113Y19808000D02*
X41857970Y19879429D01*
X42143684Y19879429D01*
X42286541Y19808000D01*
X42357970Y19736571D01*
X42429399Y19593714D01*
X42429399Y19165143D01*
X42357970Y19022286D01*
X42286541Y18950857D01*
X42143684Y18879429D01*
X41857970Y18879429D01*
X41715113Y18950857D01*
X43000827Y18950857D02*
X43143684Y18879429D01*
X43429399Y18879429D01*
X43572256Y18950857D01*
X43643684Y19093714D01*
X43643684Y19165143D01*
X43572256Y19308000D01*
X43429399Y19379429D01*
X43215113Y19379429D01*
X43072256Y19450857D01*
X43000827Y19593714D01*
X43000827Y19665143D01*
X43072256Y19808000D01*
X43215113Y19879429D01*
X43429399Y19879429D01*
X43572256Y19808000D01*
X44286542Y19022286D02*
X44357970Y18950857D01*
X44286542Y18879429D01*
X44215113Y18950857D01*
X44286542Y19022286D01*
X44286542Y18879429D01*
X44286542Y19808000D02*
X44357970Y19736571D01*
X44286542Y19665143D01*
X44215113Y19736571D01*
X44286542Y19808000D01*
X44286542Y19665143D01*
X46072256Y20450857D02*
X44786542Y18522286D01*
X47643685Y20450857D02*
X46357971Y18522286D01*
X48786543Y19879429D02*
X48786543Y18665143D01*
X48715114Y18522286D01*
X48643686Y18450857D01*
X48500829Y18379429D01*
X48286543Y18379429D01*
X48143686Y18450857D01*
X48786543Y18950857D02*
X48643686Y18879429D01*
X48357972Y18879429D01*
X48215114Y18950857D01*
X48143686Y19022286D01*
X48072257Y19165143D01*
X48072257Y19593714D01*
X48143686Y19736571D01*
X48215114Y19808000D01*
X48357972Y19879429D01*
X48643686Y19879429D01*
X48786543Y19808000D01*
X49500829Y18879429D02*
X49500829Y19879429D01*
X49500829Y20379429D02*
X49429400Y20308000D01*
X49500829Y20236571D01*
X49572257Y20308000D01*
X49500829Y20379429D01*
X49500829Y20236571D01*
X50000829Y19879429D02*
X50572258Y19879429D01*
X50215115Y20379429D02*
X50215115Y19093714D01*
X50286543Y18950857D01*
X50429401Y18879429D01*
X50572258Y18879429D01*
X51072258Y18879429D02*
X51072258Y20379429D01*
X51715115Y18879429D02*
X51715115Y19665143D01*
X51643686Y19808000D01*
X51500829Y19879429D01*
X51286544Y19879429D01*
X51143686Y19808000D01*
X51072258Y19736571D01*
X53072258Y19879429D02*
X53072258Y18879429D01*
X52429401Y19879429D02*
X52429401Y19093714D01*
X52500829Y18950857D01*
X52643687Y18879429D01*
X52857972Y18879429D01*
X53000829Y18950857D01*
X53072258Y19022286D01*
X53786544Y18879429D02*
X53786544Y20379429D01*
X53786544Y19808000D02*
X53929401Y19879429D01*
X54215115Y19879429D01*
X54357972Y19808000D01*
X54429401Y19736571D01*
X54500830Y19593714D01*
X54500830Y19165143D01*
X54429401Y19022286D01*
X54357972Y18950857D01*
X54215115Y18879429D01*
X53929401Y18879429D01*
X53786544Y18950857D01*
X55143687Y19022286D02*
X55215115Y18950857D01*
X55143687Y18879429D01*
X55072258Y18950857D01*
X55143687Y19022286D01*
X55143687Y18879429D01*
X56500830Y18950857D02*
X56357973Y18879429D01*
X56072259Y18879429D01*
X55929401Y18950857D01*
X55857973Y19022286D01*
X55786544Y19165143D01*
X55786544Y19593714D01*
X55857973Y19736571D01*
X55929401Y19808000D01*
X56072259Y19879429D01*
X56357973Y19879429D01*
X56500830Y19808000D01*
X57357973Y18879429D02*
X57215115Y18950857D01*
X57143687Y19022286D01*
X57072258Y19165143D01*
X57072258Y19593714D01*
X57143687Y19736571D01*
X57215115Y19808000D01*
X57357973Y19879429D01*
X57572258Y19879429D01*
X57715115Y19808000D01*
X57786544Y19736571D01*
X57857973Y19593714D01*
X57857973Y19165143D01*
X57786544Y19022286D01*
X57715115Y18950857D01*
X57572258Y18879429D01*
X57357973Y18879429D01*
X58500830Y18879429D02*
X58500830Y19879429D01*
X58500830Y19736571D02*
X58572258Y19808000D01*
X58715116Y19879429D01*
X58929401Y19879429D01*
X59072258Y19808000D01*
X59143687Y19665143D01*
X59143687Y18879429D01*
X59143687Y19665143D02*
X59215116Y19808000D01*
X59357973Y19879429D01*
X59572258Y19879429D01*
X59715116Y19808000D01*
X59786544Y19665143D01*
X59786544Y18879429D01*
X61572258Y20450857D02*
X60286544Y18522286D01*
X62072259Y19879429D02*
X62072259Y18593714D01*
X62000830Y18450857D01*
X61857973Y18379429D01*
X61786545Y18379429D01*
X62072259Y20379429D02*
X62000830Y20308000D01*
X62072259Y20236571D01*
X62143687Y20308000D01*
X62072259Y20379429D01*
X62072259Y20236571D01*
X62786545Y18879429D02*
X62786545Y19879429D01*
X62786545Y19736571D02*
X62857973Y19808000D01*
X63000831Y19879429D01*
X63215116Y19879429D01*
X63357973Y19808000D01*
X63429402Y19665143D01*
X63429402Y18879429D01*
X63429402Y19665143D02*
X63500831Y19808000D01*
X63643688Y19879429D01*
X63857973Y19879429D01*
X64000831Y19808000D01*
X64072259Y19665143D01*
X64072259Y18879429D01*
X65429402Y18879429D02*
X65429402Y20379429D01*
X65429402Y18950857D02*
X65286545Y18879429D01*
X65000831Y18879429D01*
X64857973Y18950857D01*
X64786545Y19022286D01*
X64715116Y19165143D01*
X64715116Y19593714D01*
X64786545Y19736571D01*
X64857973Y19808000D01*
X65000831Y19879429D01*
X65286545Y19879429D01*
X65429402Y19808000D01*
X66786545Y18879429D02*
X66786545Y19665143D01*
X66715116Y19808000D01*
X66572259Y19879429D01*
X66286545Y19879429D01*
X66143688Y19808000D01*
X66786545Y18950857D02*
X66643688Y18879429D01*
X66286545Y18879429D01*
X66143688Y18950857D01*
X66072259Y19093714D01*
X66072259Y19236571D01*
X66143688Y19379429D01*
X66286545Y19450857D01*
X66643688Y19450857D01*
X66786545Y19522286D01*
X67715117Y18879429D02*
X67572259Y18950857D01*
X67500831Y19093714D01*
X67500831Y20379429D01*
X68143688Y19879429D02*
X68500831Y18879429D01*
X68857973Y19879429D02*
X68500831Y18879429D01*
X68357973Y18522286D01*
X68286545Y18450857D01*
X68143688Y18379429D01*
X70500830Y20450857D02*
X69215116Y18522286D01*
X71857974Y19022286D02*
X71786545Y18950857D01*
X71572259Y18879429D01*
X71429402Y18879429D01*
X71215117Y18950857D01*
X71072259Y19093714D01*
X71000831Y19236571D01*
X70929402Y19522286D01*
X70929402Y19736571D01*
X71000831Y20022286D01*
X71072259Y20165143D01*
X71215117Y20308000D01*
X71429402Y20379429D01*
X71572259Y20379429D01*
X71786545Y20308000D01*
X71857974Y20236571D01*
X72786545Y20379429D02*
X73072259Y20379429D01*
X73215117Y20308000D01*
X73357974Y20165143D01*
X73429402Y19879429D01*
X73429402Y19379429D01*
X73357974Y19093714D01*
X73215117Y18950857D01*
X73072259Y18879429D01*
X72786545Y18879429D01*
X72643688Y18950857D01*
X72500831Y19093714D01*
X72429402Y19379429D01*
X72429402Y19879429D01*
X72500831Y20165143D01*
X72643688Y20308000D01*
X72786545Y20379429D01*
X74715117Y20379429D02*
X74429403Y20379429D01*
X74286546Y20308000D01*
X74215117Y20236571D01*
X74072260Y20022286D01*
X74000831Y19736571D01*
X74000831Y19165143D01*
X74072260Y19022286D01*
X74143688Y18950857D01*
X74286546Y18879429D01*
X74572260Y18879429D01*
X74715117Y18950857D01*
X74786546Y19022286D01*
X74857974Y19165143D01*
X74857974Y19522286D01*
X74786546Y19665143D01*
X74715117Y19736571D01*
X74572260Y19808000D01*
X74286546Y19808000D01*
X74143688Y19736571D01*
X74072260Y19665143D01*
X74000831Y19522286D01*
X75786545Y20379429D02*
X75929402Y20379429D01*
X76072259Y20308000D01*
X76143688Y20236571D01*
X76215117Y20093714D01*
X76286545Y19808000D01*
X76286545Y19450857D01*
X76215117Y19165143D01*
X76143688Y19022286D01*
X76072259Y18950857D01*
X75929402Y18879429D01*
X75786545Y18879429D01*
X75643688Y18950857D01*
X75572259Y19022286D01*
X75500831Y19165143D01*
X75429402Y19450857D01*
X75429402Y19808000D01*
X75500831Y20093714D01*
X75572259Y20236571D01*
X75643688Y20308000D01*
X75786545Y20379429D01*
X42914099Y36268114D02*
X42818861Y36172876D01*
X42533146Y36077638D01*
X42342670Y36077638D01*
X42056956Y36172876D01*
X41866480Y36363352D01*
X41771241Y36553829D01*
X41676003Y36934781D01*
X41676003Y37220495D01*
X41771241Y37601448D01*
X41866480Y37791924D01*
X42056956Y37982400D01*
X42342670Y38077638D01*
X42533146Y38077638D01*
X42818861Y37982400D01*
X42914099Y37887162D01*
X44152194Y38077638D02*
X44533146Y38077638D01*
X44723622Y37982400D01*
X44914099Y37791924D01*
X45009337Y37410971D01*
X45009337Y36744305D01*
X44914099Y36363352D01*
X44723622Y36172876D01*
X44533146Y36077638D01*
X44152194Y36077638D01*
X43961718Y36172876D01*
X43771241Y36363352D01*
X43676003Y36744305D01*
X43676003Y37410971D01*
X43771241Y37791924D01*
X43961718Y37982400D01*
X44152194Y38077638D01*
X46723622Y38077638D02*
X46342670Y38077638D01*
X46152194Y37982400D01*
X46056956Y37887162D01*
X45866479Y37601448D01*
X45771241Y37220495D01*
X45771241Y36458590D01*
X45866479Y36268114D01*
X45961718Y36172876D01*
X46152194Y36077638D01*
X46533146Y36077638D01*
X46723622Y36172876D01*
X46818860Y36268114D01*
X46914099Y36458590D01*
X46914099Y36934781D01*
X46818860Y37125257D01*
X46723622Y37220495D01*
X46533146Y37315733D01*
X46152194Y37315733D01*
X45961718Y37220495D01*
X45866479Y37125257D01*
X45771241Y36934781D01*
X48152194Y38077638D02*
X48342670Y38077638D01*
X48533146Y37982400D01*
X48628384Y37887162D01*
X48723622Y37696686D01*
X48818861Y37315733D01*
X48818861Y36839543D01*
X48723622Y36458590D01*
X48628384Y36268114D01*
X48533146Y36172876D01*
X48342670Y36077638D01*
X48152194Y36077638D01*
X47961718Y36172876D01*
X47866480Y36268114D01*
X47771241Y36458590D01*
X47676003Y36839543D01*
X47676003Y37315733D01*
X47771241Y37696686D01*
X47866480Y37887162D01*
X47961718Y37982400D01*
X48152194Y38077638D01*
X51199813Y36077638D02*
X51199813Y38077638D01*
X51961718Y38077638D01*
X52152194Y37982400D01*
X52247433Y37887162D01*
X52342671Y37696686D01*
X52342671Y37410971D01*
X52247433Y37220495D01*
X52152194Y37125257D01*
X51961718Y37030019D01*
X51199813Y37030019D01*
X54342671Y36268114D02*
X54247433Y36172876D01*
X53961718Y36077638D01*
X53771242Y36077638D01*
X53485528Y36172876D01*
X53295052Y36363352D01*
X53199813Y36553829D01*
X53104575Y36934781D01*
X53104575Y37220495D01*
X53199813Y37601448D01*
X53295052Y37791924D01*
X53485528Y37982400D01*
X53771242Y38077638D01*
X53961718Y38077638D01*
X54247433Y37982400D01*
X54342671Y37887162D01*
X55866480Y37125257D02*
X56152194Y37030019D01*
X56247433Y36934781D01*
X56342671Y36744305D01*
X56342671Y36458590D01*
X56247433Y36268114D01*
X56152194Y36172876D01*
X55961718Y36077638D01*
X55199813Y36077638D01*
X55199813Y38077638D01*
X55866480Y38077638D01*
X56056956Y37982400D01*
X56152194Y37887162D01*
X56247433Y37696686D01*
X56247433Y37506210D01*
X56152194Y37315733D01*
X56056956Y37220495D01*
X55866480Y37125257D01*
X55199813Y37125257D01*
X58723623Y36839543D02*
X60247433Y36839543D01*
X63866481Y36077638D02*
X63199814Y37030019D01*
X62723623Y36077638D02*
X62723623Y38077638D01*
X63485528Y38077638D01*
X63676004Y37982400D01*
X63771243Y37887162D01*
X63866481Y37696686D01*
X63866481Y37410971D01*
X63771243Y37220495D01*
X63676004Y37125257D01*
X63485528Y37030019D01*
X62723623Y37030019D01*
X65485528Y36172876D02*
X65295052Y36077638D01*
X64914100Y36077638D01*
X64723623Y36172876D01*
X64628385Y36363352D01*
X64628385Y37125257D01*
X64723623Y37315733D01*
X64914100Y37410971D01*
X65295052Y37410971D01*
X65485528Y37315733D01*
X65580766Y37125257D01*
X65580766Y36934781D01*
X64628385Y36744305D01*
X66247433Y37410971D02*
X66723624Y36077638D01*
X67199814Y37410971D01*
X67961719Y36268114D02*
X68056958Y36172876D01*
X67961719Y36077638D01*
X67866481Y36172876D01*
X67961719Y36268114D01*
X67961719Y36077638D01*
X70342672Y37887162D02*
X70437910Y37982400D01*
X70628387Y38077638D01*
X71104577Y38077638D01*
X71295053Y37982400D01*
X71390291Y37887162D01*
X71485530Y37696686D01*
X71485530Y37506210D01*
X71390291Y37220495D01*
X70247434Y36077638D01*
X71485530Y36077638D01*
X72342672Y36268114D02*
X72437911Y36172876D01*
X72342672Y36077638D01*
X72247434Y36172876D01*
X72342672Y36268114D01*
X72342672Y36077638D01*
X74818863Y36077638D02*
X74818863Y38077638D01*
X75295054Y38077638D01*
X75580768Y37982400D01*
X75771244Y37791924D01*
X75866483Y37601448D01*
X75961721Y37220495D01*
X75961721Y36934781D01*
X75866483Y36553829D01*
X75771244Y36363352D01*
X75580768Y36172876D01*
X75295054Y36077638D01*
X74818863Y36077638D01*
X77580768Y36172876D02*
X77390292Y36077638D01*
X77009340Y36077638D01*
X76818863Y36172876D01*
X76723625Y36363352D01*
X76723625Y37125257D01*
X76818863Y37315733D01*
X77009340Y37410971D01*
X77390292Y37410971D01*
X77580768Y37315733D01*
X77676006Y37125257D01*
X77676006Y36934781D01*
X76723625Y36744305D01*
X78437911Y36172876D02*
X78628388Y36077638D01*
X79009340Y36077638D01*
X79199816Y36172876D01*
X79295054Y36363352D01*
X79295054Y36458590D01*
X79199816Y36649067D01*
X79009340Y36744305D01*
X78723626Y36744305D01*
X78533149Y36839543D01*
X78437911Y37030019D01*
X78437911Y37125257D01*
X78533149Y37315733D01*
X78723626Y37410971D01*
X79009340Y37410971D01*
X79199816Y37315733D01*
X80152197Y36077638D02*
X80152197Y37410971D01*
X80152197Y38077638D02*
X80056959Y37982400D01*
X80152197Y37887162D01*
X80247436Y37982400D01*
X80152197Y38077638D01*
X80152197Y37887162D01*
X81961721Y37410971D02*
X81961721Y35791924D01*
X81866483Y35601448D01*
X81771245Y35506210D01*
X81580769Y35410971D01*
X81295055Y35410971D01*
X81104578Y35506210D01*
X81961721Y36172876D02*
X81771245Y36077638D01*
X81390293Y36077638D01*
X81199817Y36172876D01*
X81104578Y36268114D01*
X81009340Y36458590D01*
X81009340Y37030019D01*
X81104578Y37220495D01*
X81199817Y37315733D01*
X81390293Y37410971D01*
X81771245Y37410971D01*
X81961721Y37315733D01*
X82914102Y37410971D02*
X82914102Y36077638D01*
X82914102Y37220495D02*
X83009341Y37315733D01*
X83199817Y37410971D01*
X83485531Y37410971D01*
X83676007Y37315733D01*
X83771245Y37125257D01*
X83771245Y36077638D01*
X86247436Y36077638D02*
X86247436Y38077638D01*
X86247436Y37315733D02*
X86437913Y37410971D01*
X86818865Y37410971D01*
X87009341Y37315733D01*
X87104579Y37220495D01*
X87199817Y37030019D01*
X87199817Y36458590D01*
X87104579Y36268114D01*
X87009341Y36172876D01*
X86818865Y36077638D01*
X86437913Y36077638D01*
X86247436Y36172876D01*
X87866484Y37410971D02*
X88342675Y36077638D01*
X88818865Y37410971D02*
X88342675Y36077638D01*
X88152199Y35601448D01*
X88056960Y35506210D01*
X87866484Y35410971D01*
X91104580Y37410971D02*
X91104580Y35696686D01*
X91009342Y35506210D01*
X90818866Y35410971D01*
X90723628Y35410971D01*
X91104580Y38077638D02*
X91009342Y37982400D01*
X91104580Y37887162D01*
X91199819Y37982400D01*
X91104580Y38077638D01*
X91104580Y37887162D01*
X92056961Y36077638D02*
X92056961Y37410971D01*
X92056961Y37220495D02*
X92152200Y37315733D01*
X92342676Y37410971D01*
X92628390Y37410971D01*
X92818866Y37315733D01*
X92914104Y37125257D01*
X92914104Y36077638D01*
X92914104Y37125257D02*
X93009342Y37315733D01*
X93199819Y37410971D01*
X93485533Y37410971D01*
X93676009Y37315733D01*
X93771247Y37125257D01*
X93771247Y36077638D01*
X95580771Y36077638D02*
X95580771Y38077638D01*
X95580771Y36172876D02*
X95390295Y36077638D01*
X95009343Y36077638D01*
X94818867Y36172876D01*
X94723628Y36268114D01*
X94628390Y36458590D01*
X94628390Y37030019D01*
X94723628Y37220495D01*
X94818867Y37315733D01*
X95009343Y37410971D01*
X95390295Y37410971D01*
X95580771Y37315733D01*
X97390295Y36077638D02*
X97390295Y37125257D01*
X97295057Y37315733D01*
X97104581Y37410971D01*
X96723629Y37410971D01*
X96533152Y37315733D01*
X97390295Y36172876D02*
X97199819Y36077638D01*
X96723629Y36077638D01*
X96533152Y36172876D01*
X96437914Y36363352D01*
X96437914Y36553829D01*
X96533152Y36744305D01*
X96723629Y36839543D01*
X97199819Y36839543D01*
X97390295Y36934781D01*
X98628391Y36077638D02*
X98437915Y36172876D01*
X98342676Y36363352D01*
X98342676Y38077638D01*
X99199819Y37410971D02*
X99676010Y36077638D01*
X100152200Y37410971D02*
X99676010Y36077638D01*
X99485534Y35601448D01*
X99390295Y35506210D01*
X99199819Y35410971D01*
X102247439Y37410971D02*
X102628392Y36077638D01*
X103009344Y37030019D01*
X103390296Y36077638D01*
X103771249Y37410971D01*
X104533153Y36077638D02*
X104533153Y37410971D01*
X104533153Y38077638D02*
X104437915Y37982400D01*
X104533153Y37887162D01*
X104628392Y37982400D01*
X104533153Y38077638D01*
X104533153Y37887162D01*
X105199820Y37410971D02*
X105961725Y37410971D01*
X105485534Y38077638D02*
X105485534Y36363352D01*
X105580773Y36172876D01*
X105771249Y36077638D01*
X105961725Y36077638D01*
X106628391Y36077638D02*
X106628391Y38077638D01*
X107485534Y36077638D02*
X107485534Y37125257D01*
X107390296Y37315733D01*
X107199820Y37410971D01*
X106914106Y37410971D01*
X106723630Y37315733D01*
X106628391Y37220495D01*
X109961725Y36077638D02*
X109961725Y38077638D01*
X110818868Y36077638D02*
X110818868Y37125257D01*
X110723630Y37315733D01*
X110533154Y37410971D01*
X110247440Y37410971D01*
X110056964Y37315733D01*
X109961725Y37220495D01*
X112533154Y36172876D02*
X112342678Y36077638D01*
X111961726Y36077638D01*
X111771249Y36172876D01*
X111676011Y36363352D01*
X111676011Y37125257D01*
X111771249Y37315733D01*
X111961726Y37410971D01*
X112342678Y37410971D01*
X112533154Y37315733D01*
X112628392Y37125257D01*
X112628392Y36934781D01*
X111676011Y36744305D01*
X113771250Y36077638D02*
X113580774Y36172876D01*
X113485535Y36363352D01*
X113485535Y38077638D01*
X114533154Y37410971D02*
X114533154Y35410971D01*
X114533154Y37315733D02*
X114723631Y37410971D01*
X115104583Y37410971D01*
X115295059Y37315733D01*
X115390297Y37220495D01*
X115485535Y37030019D01*
X115485535Y36458590D01*
X115390297Y36268114D01*
X115295059Y36172876D01*
X115104583Y36077638D01*
X114723631Y36077638D01*
X114533154Y36172876D01*
X117580774Y37410971D02*
X118342679Y37410971D01*
X117866488Y36077638D02*
X117866488Y37791924D01*
X117961727Y37982400D01*
X118152203Y38077638D01*
X118342679Y38077638D01*
X119009345Y36077638D02*
X119009345Y37410971D01*
X119009345Y37030019D02*
X119104584Y37220495D01*
X119199822Y37315733D01*
X119390298Y37410971D01*
X119580774Y37410971D01*
X120533155Y36077638D02*
X120342679Y36172876D01*
X120247440Y36268114D01*
X120152202Y36458590D01*
X120152202Y37030019D01*
X120247440Y37220495D01*
X120342679Y37315733D01*
X120533155Y37410971D01*
X120818869Y37410971D01*
X121009345Y37315733D01*
X121104583Y37220495D01*
X121199821Y37030019D01*
X121199821Y36458590D01*
X121104583Y36268114D01*
X121009345Y36172876D01*
X120818869Y36077638D01*
X120533155Y36077638D01*
X122056964Y36077638D02*
X122056964Y37410971D01*
X122056964Y37220495D02*
X122152203Y37315733D01*
X122342679Y37410971D01*
X122628393Y37410971D01*
X122818869Y37315733D01*
X122914107Y37125257D01*
X122914107Y36077638D01*
X122914107Y37125257D02*
X123009345Y37315733D01*
X123199822Y37410971D01*
X123485536Y37410971D01*
X123676012Y37315733D01*
X123771250Y37125257D01*
X123771250Y36077638D01*
X125961727Y37410971D02*
X126723632Y37410971D01*
X126247441Y38077638D02*
X126247441Y36363352D01*
X126342680Y36172876D01*
X126533156Y36077638D01*
X126723632Y36077638D01*
X127390298Y36077638D02*
X127390298Y38077638D01*
X128247441Y36077638D02*
X128247441Y37125257D01*
X128152203Y37315733D01*
X127961727Y37410971D01*
X127676013Y37410971D01*
X127485537Y37315733D01*
X127390298Y37220495D01*
X129961727Y36172876D02*
X129771251Y36077638D01*
X129390299Y36077638D01*
X129199822Y36172876D01*
X129104584Y36363352D01*
X129104584Y37125257D01*
X129199822Y37315733D01*
X129390299Y37410971D01*
X129771251Y37410971D01*
X129961727Y37315733D01*
X130056965Y37125257D01*
X130056965Y36934781D01*
X129104584Y36744305D01*
X132437918Y36077638D02*
X132437918Y38077638D01*
X133104585Y36649067D01*
X133771252Y38077638D01*
X133771252Y36077638D01*
X135485537Y36172876D02*
X135295061Y36077638D01*
X134914109Y36077638D01*
X134723632Y36172876D01*
X134628394Y36363352D01*
X134628394Y37125257D01*
X134723632Y37315733D01*
X134914109Y37410971D01*
X135295061Y37410971D01*
X135485537Y37315733D01*
X135580775Y37125257D01*
X135580775Y36934781D01*
X134628394Y36744305D01*
X137295061Y36172876D02*
X137104585Y36077638D01*
X136723633Y36077638D01*
X136533157Y36172876D01*
X136437918Y36268114D01*
X136342680Y36458590D01*
X136342680Y37030019D01*
X136437918Y37220495D01*
X136533157Y37315733D01*
X136723633Y37410971D01*
X137104585Y37410971D01*
X137295061Y37315733D01*
X138152204Y36077638D02*
X138152204Y38077638D01*
X139009347Y36077638D02*
X139009347Y37125257D01*
X138914109Y37315733D01*
X138723633Y37410971D01*
X138437919Y37410971D01*
X138247443Y37315733D01*
X138152204Y37220495D01*
X139961728Y36077638D02*
X139961728Y38077638D01*
X141104586Y36077638D02*
X140247443Y37220495D01*
X141104586Y38077638D02*
X139961728Y36934781D01*
X142723633Y36172876D02*
X142533157Y36077638D01*
X142152205Y36077638D01*
X141961728Y36172876D01*
X141866490Y36363352D01*
X141866490Y37125257D01*
X141961728Y37315733D01*
X142152205Y37410971D01*
X142533157Y37410971D01*
X142723633Y37315733D01*
X142818871Y37125257D01*
X142818871Y36934781D01*
X141866490Y36744305D01*
X143485538Y37410971D02*
X143961729Y36077638D01*
X144437919Y37410971D02*
X143961729Y36077638D01*
X143771253Y35601448D01*
X143676014Y35506210D01*
X143485538Y35410971D01*
X145104586Y36172876D02*
X145295063Y36077638D01*
X145676015Y36077638D01*
X145866491Y36172876D01*
X145961729Y36363352D01*
X145961729Y36458590D01*
X145866491Y36649067D01*
X145676015Y36744305D01*
X145390301Y36744305D01*
X145199824Y36839543D01*
X145104586Y37030019D01*
X145104586Y37125257D01*
X145199824Y37315733D01*
X145390301Y37410971D01*
X145676015Y37410971D01*
X145866491Y37315733D01*
X148342682Y36077638D02*
X148342682Y38077638D01*
X148818873Y38077638D01*
X149104587Y37982400D01*
X149295063Y37791924D01*
X149390302Y37601448D01*
X149485540Y37220495D01*
X149485540Y36934781D01*
X149390302Y36553829D01*
X149295063Y36363352D01*
X149104587Y36172876D01*
X148818873Y36077638D01*
X148342682Y36077638D01*
X150342682Y36077638D02*
X150342682Y37410971D01*
X150342682Y38077638D02*
X150247444Y37982400D01*
X150342682Y37887162D01*
X150437921Y37982400D01*
X150342682Y38077638D01*
X150342682Y37887162D01*
X151199825Y36172876D02*
X151390302Y36077638D01*
X151771254Y36077638D01*
X151961730Y36172876D01*
X152056968Y36363352D01*
X152056968Y36458590D01*
X151961730Y36649067D01*
X151771254Y36744305D01*
X151485540Y36744305D01*
X151295063Y36839543D01*
X151199825Y37030019D01*
X151199825Y37125257D01*
X151295063Y37315733D01*
X151485540Y37410971D01*
X151771254Y37410971D01*
X151961730Y37315733D01*
X153771254Y36172876D02*
X153580778Y36077638D01*
X153199826Y36077638D01*
X153009350Y36172876D01*
X152914111Y36268114D01*
X152818873Y36458590D01*
X152818873Y37030019D01*
X152914111Y37220495D01*
X153009350Y37315733D01*
X153199826Y37410971D01*
X153580778Y37410971D01*
X153771254Y37315733D01*
X154914112Y36077638D02*
X154723636Y36172876D01*
X154628397Y36268114D01*
X154533159Y36458590D01*
X154533159Y37030019D01*
X154628397Y37220495D01*
X154723636Y37315733D01*
X154914112Y37410971D01*
X155199826Y37410971D01*
X155390302Y37315733D01*
X155485540Y37220495D01*
X155580778Y37030019D01*
X155580778Y36458590D01*
X155485540Y36268114D01*
X155390302Y36172876D01*
X155199826Y36077638D01*
X154914112Y36077638D01*
X156437921Y36077638D02*
X156437921Y37410971D01*
X156437921Y37030019D02*
X156533160Y37220495D01*
X156628398Y37315733D01*
X156818874Y37410971D01*
X157009350Y37410971D01*
X158533159Y36077638D02*
X158533159Y38077638D01*
X158533159Y36172876D02*
X158342683Y36077638D01*
X157961731Y36077638D01*
X157771255Y36172876D01*
X157676016Y36268114D01*
X157580778Y36458590D01*
X157580778Y37030019D01*
X157676016Y37220495D01*
X157771255Y37315733D01*
X157961731Y37410971D01*
X158342683Y37410971D01*
X158533159Y37315733D01*
M02*
