M48
;DRILL file {KiCad 4.0.7-e2-6376~58~ubuntu16.04.1} date Wed Jun 13 15:46:54 2018
;FORMAT={-:-/ absolute / inch / decimal}
FMAT,2
INCH,TZ
T1C0.012
T2C0.016
T3C0.020
T4C0.039
T5C0.041
T6C0.058
T7C0.098
T8C0.098
%
G90
G05
M72
T1
X0.341Y3.03
X0.363Y1.506
X0.381Y0.58
X0.434Y2.508
X0.453Y2.292
X0.466Y2.141
X0.477Y3.32
X0.611Y1.5
X0.631Y0.9
X0.67Y1.374
X0.781Y0.77
X0.901Y3.22
X0.971Y0.12
X1.011Y1.21
X1.031Y0.45
X1.191Y0.22
X1.331Y0.6
X1.397Y3.281
X1.451Y3.14
X1.498Y2.865
X1.558Y1.796
X1.615Y1.028
X1.625Y0.903
X1.671Y3.22
X1.671Y1.56
X1.749Y2.194
X1.761Y1.234
X1.769Y2.852
X1.816Y1.58
X1.821Y0.27
X1.832Y0.971
X1.8871Y1.6819
X1.891Y1.78
X1.892Y2.128
X1.91Y2.32
X1.931Y0.12
X1.961Y1.534
X1.97Y2.687
X1.991Y0.33
X2.051Y0.71
X2.109Y1.693
X2.131Y0.22
X2.321Y3.22
X2.381Y1.03
X2.391Y0.9
X2.571Y2.53
X2.591Y0.97
X2.748Y1.695
X2.751Y1.79
X2.761Y0.27
X2.771Y2.46
X2.87Y3.282
X2.921Y0.13
X2.991Y0.42
X3.088Y1.034
X3.171Y3.22
X3.281Y0.53
X3.306Y2.531
X3.341Y0.97
X3.501Y1.78
X3.535Y2.458
X3.619Y3.279
X3.717Y1.714
X3.871Y1.02
X3.891Y0.89
X3.921Y3.226
X4.053Y2.531
X4.091Y0.97
X4.206Y0.15
X4.261Y1.7
X4.285Y2.456
X4.341Y0.27
X4.366Y3.277
X4.392Y0.147
X4.4455Y1.991
X4.581Y0.46
X4.621Y1.02
X4.649Y3.23
X4.661Y0.22
X4.795Y2.54
X4.851Y0.97
X4.857Y1.358
X4.891Y1.99
X4.909Y1.748
X4.991Y0.75
X5.11Y3.278
X5.211Y1.78
X5.327Y0.505
X5.38Y1.026
X5.391Y0.9
X5.411Y3.22
X5.561Y2.39
X5.567Y2.524
X5.597Y0.969
X5.681Y1.79
X5.767Y2.48
X5.871Y1.9575
X5.872Y3.284
X5.945Y1.71
X6.081Y0.19
X6.106Y1.023
X6.161Y3.22
X6.312Y2.519
X6.319Y0.089
X6.345Y0.968
X6.373Y1.352
X6.481Y1.78
X6.511Y0.76
X6.643Y3.284
X6.643Y3.284
X6.715Y1.716
X6.721Y3.15
X6.873Y1.022
X6.911Y0.52
X6.919Y3.218
X7.071Y2.52
X7.087Y0.282
X7.101Y0.965
X7.245Y1.778
X7.275Y2.476
X7.321Y0.292
X7.389Y0.102
X7.415Y3.284
X7.473Y1.714
X7.618Y1.024
X7.661Y3.23
X7.811Y2.52
X7.855Y1.368
X7.869Y0.962
X8.02Y1.782
X8.021Y2.466
X8.149Y3.284
X8.321Y0.25
X8.371Y0.11
X8.374Y1.021
X8.423Y3.224
X8.561Y1.44
X8.574Y0.97
X8.603Y2.525
X8.761Y1.78
X8.773Y2.474
X8.886Y3.28
X8.973Y1.724
X9.077Y0.284
X9.106Y1.022
X9.141Y0.22
X9.179Y3.229
X9.305Y2.518
X9.384Y2.096
X9.421Y0.08
X9.527Y2.47
X9.611Y0.89
X9.644Y3.283
X9.741Y1.77
X9.901Y3.22
X9.991Y2.48
X10.171Y2.36
X10.201Y1.76
X10.365Y3.292
X10.381Y0.19
X10.401Y2.22
X10.409Y2.542
X10.491Y2.93
X10.491Y2.93
X10.497Y1.03
X10.547Y2.562
X10.603Y3.458
X10.611Y1.28
X10.621Y2.8
X10.621Y0.58
X10.641Y0.92
X10.831Y3.52
X10.865Y2.527
X10.891Y1.85
X10.911Y2.26
X11.005Y0.288
T2
X0.124Y0.923
X0.175Y0.158
X0.246Y1.781
X0.256Y2.4075
X0.497Y3.262
X0.498Y3.2
X0.629Y3.247
X0.6717Y3.3413
X0.674Y3.015
X0.696Y3.53
X0.7048Y3.367
X0.733Y3.534
X0.758Y3.014
X0.791Y3.185
X0.8083Y3.2311
X0.8083Y2.1031
X0.8123Y1.5559
X0.829Y1.358
X0.831Y3.331
X0.856Y2.022
X0.918Y3.585
X0.9341Y2.3353
X0.9369Y2.4161
X0.9385Y2.45
X0.9618Y1.89
X1.008Y2.223
X1.011Y1.97
X1.024Y2.951
X1.0603Y1.8
X1.075Y1.318
X1.077Y1.564
X1.0776Y1.6036
X1.0967Y0.959
X1.117Y1.314
X1.121Y1.564
X1.125Y2.258
X1.1365Y1.7645
X1.151Y0.97
X1.1607Y2.5874
X1.178Y1.651
X1.1837Y2.5508
X1.1864Y1.6173
X1.208Y2.129
X1.2353Y1.6657
X1.2605Y1.6405
X1.2621Y2.2222
X1.2698Y2.1873
X1.27Y1.5649
X1.272Y2.777
X1.2749Y1.9382
X1.294Y2.247
X1.3319Y2.3945
X1.3355Y2.5172
X1.3359Y2.552
X1.366Y2.3192
X1.38Y2.817
X1.385Y1.845
X1.403Y2.746
X1.418Y1.823
X1.4249Y2.2948
X1.4432Y2.269
X1.448Y2.0642
X1.4762Y2.0499
X1.4918Y2.3012
X1.4946Y2.2622
X1.5511Y2.296
X1.5867Y2.4553
X1.601Y2.5376
X1.6758Y2.754
X1.773Y1.133
X1.801Y2.191
X1.829Y1.772
X1.856Y2.199
X1.891Y1.575
X1.9174Y2.1646
X1.9204Y2.2028
X1.9485Y2.4555
X1.9746Y2.5359
X1.977Y0.405
X1.98Y2.197
X1.9856Y2.3075
X1.995Y1.7723
X2.043Y1.35
X2.058Y2.155
X2.0658Y3.2574
X2.217Y1.3652
X2.291Y1.3412
X2.403Y1.4012
X2.568Y1.752
X3.0522Y1.7666
X3.171Y1.3988
X3.883Y1.42
X4.166Y1.7693
X4.579Y1.7718
X4.663Y1.374
X5.0335Y2.4775
X5.7975Y2.131
X6.311Y0.645
X6.596Y0.65
X6.785Y0.208
X6.883Y1.412
X7.022Y0.208
X7.373Y0.189
X7.553Y1.4692
X7.563Y0.191
X7.919Y2.397
X8.201Y1.711
X8.267Y1.494
X8.526Y0.645
X8.848Y0.061
X8.8635Y1.7523
X8.886Y0.645
X8.934Y0.033
X9.022Y0.2252
X9.48Y2.1132
X10.406Y2.4336
X10.474Y2.5003
X10.554Y3.258
X10.56Y0.674
X10.6354Y2.9776
X10.672Y3.206
X10.688Y2.79
X10.7229Y3.157
X10.783Y2.572
X10.8585Y0.985
X10.98Y0.786
T3
X0.0687Y1.6027
X0.0687Y1.3979
X0.1491Y1.6027
X0.1491Y1.3979
X0.2215Y1.5727
X0.2215Y1.4279
X0.2515Y1.5003
X0.9011Y2.6263
X0.9276Y2.6903
X0.9276Y2.5623
X0.9916Y2.7168
X0.9916Y2.5357
X1.0557Y2.6903
X1.0557Y2.5623
X1.0822Y2.6263
X4.9995Y1.9649
X4.9995Y1.7838
X5.0468Y1.9649
X5.0468Y1.7838
X5.094Y1.9649
X5.094Y1.7838
X7.4523Y0.4609
X7.4523Y0.2798
X7.4995Y0.4609
X7.4995Y0.2798
X7.5468Y0.4609
X7.5468Y0.2798
X10.1905Y2.7168
X10.1905Y2.5357
X10.2377Y2.7168
X10.2377Y2.5357
X10.2849Y2.7175
X10.2849Y2.5357
X10.968Y1.5003
X10.998Y1.5727
X10.998Y1.4279
X11.0704Y1.6027
X11.0704Y1.3979
X11.1508Y1.6027
X11.1508Y1.3979
T4
X1.34Y2.945
X1.44Y2.945
X1.54Y2.945
X1.64Y2.945
X1.74Y2.945
X1.84Y2.945
T5
X0.3097Y3.1625
X0.4035Y1.6625
X0.4035Y0.9125
X0.4035Y0.1625
X0.4098Y3.1625
X0.4972Y2.4125
X0.4972Y0.1625
X0.5035Y1.6625
X0.5035Y0.9125
X0.5035Y0.1625
X0.591Y1.6625
X0.5972Y2.4125
X0.5972Y0.1625
X0.691Y1.6625
X0.7785Y0.9125
X0.8785Y0.9125
X1.0597Y3.1625
X1.1598Y3.1625
X1.2472Y0.9125
X1.341Y0.1625
X1.3473Y0.9125
X1.4347Y2.4125
X1.4347Y0.1625
X1.441Y0.1625
X1.5348Y2.4125
X1.5348Y0.1625
X1.6222Y1.6625
X1.7223Y1.6625
X1.8097Y3.1625
X1.9098Y3.1625
X1.9972Y0.9125
X2.0972Y0.9125
X2.1847Y2.4125
X2.2785Y0.1625
X2.2847Y2.4125
X2.3722Y1.6625
X2.3722Y0.1625
X2.3785Y0.1625
X2.4722Y1.6625
X2.4722Y0.1625
X2.5597Y3.1625
X2.6597Y3.1625
X2.7472Y0.9125
X2.8472Y0.9125
X2.9347Y2.4125
X3.0347Y2.4125
X3.1222Y1.6625
X3.2222Y1.6625
X3.3097Y3.1625
X3.4097Y3.1625
X3.4972Y0.9125
X3.591Y0.1625
X3.5972Y0.9125
X3.6847Y2.4125
X3.691Y0.1625
X3.7785Y0.1625
X3.7847Y2.4125
X3.8722Y1.6625
X3.8785Y0.1625
X3.966Y0.1625
X3.9722Y1.6625
X4.0598Y3.1625
X4.066Y0.1625
X4.1597Y3.1625
X4.2473Y0.9125
X4.3472Y0.9125
X4.4348Y2.4125
X4.5347Y2.4125
X4.6223Y1.6625
X4.7222Y1.6625
X4.8098Y3.1625
X4.9035Y0.1625
X4.9097Y3.1625
X4.9973Y0.9125
X5.0035Y0.1625
X5.091Y0.1625
X5.0972Y0.9125
X5.1848Y2.4125
X5.191Y0.1625
X5.2785Y0.1625
X5.2847Y2.4125
X5.3723Y1.6625
X5.3785Y0.1625
X5.4722Y1.6625
X5.5598Y3.1625
X5.5598Y0.1625
X5.5598Y0.1625
X5.6597Y3.1625
X5.6597Y0.1625
X5.6597Y0.1625
X5.7473Y0.9125
X5.8472Y0.9125
X5.9348Y2.4125
X6.0347Y2.4125
X6.1223Y1.6625
X6.2222Y1.6625
X6.3098Y3.1625
X6.4035Y0.1625
X6.4097Y3.1625
X6.4973Y0.9125
X6.5035Y0.1625
X6.591Y0.1625
X6.5972Y0.9125
X6.6848Y2.4125
X6.691Y0.1625
X6.7847Y2.4125
X6.8723Y1.6625
X6.9722Y1.6625
X7.0598Y3.1625
X7.1535Y0.1625
X7.1597Y3.1625
X7.2473Y0.9125
X7.2535Y0.1625
X7.3472Y0.9125
X7.4348Y2.4125
X7.5347Y2.4125
X7.6223Y1.6625
X7.7222Y1.6625
X7.8098Y3.1625
X7.8098Y0.1625
X7.9035Y0.1625
X7.9097Y3.1625
X7.9097Y0.1625
X7.9973Y0.9125
X8.0035Y0.1625
X8.0972Y0.9125
X8.1847Y2.4125
X8.2847Y2.4125
X8.3722Y1.6625
X8.4722Y1.6625
X8.5597Y3.1625
X8.5597Y0.1625
X8.6597Y3.1625
X8.6597Y0.1625
X8.7472Y0.9125
X8.7472Y0.1625
X8.841Y0.1625
X8.8472Y0.9125
X8.8472Y0.1625
X8.9347Y2.4125
X8.941Y0.1625
X9.0347Y2.4125
X9.1222Y1.6625
X9.2222Y1.6625
X9.3097Y3.1625
X9.3097Y0.1625
X9.4097Y3.1625
X9.4097Y0.1625
X9.6847Y2.4125
X9.6847Y0.1625
X9.7785Y0.9125
X9.7785Y0.1625
X9.7847Y2.4125
X9.7847Y0.1625
X9.8722Y1.6625
X9.8785Y0.9125
X9.8785Y0.1625
X9.9722Y1.6625
X10.0597Y3.1625
X10.0597Y0.1625
X10.1535Y0.9125
X10.1597Y3.1625
X10.1597Y0.1625
X10.2535Y0.9125
X10.341Y1.6625
X10.4347Y3.1625
X10.441Y1.6625
X10.5347Y3.1625
X10.566Y2.2875
X10.566Y2.1875
X10.6222Y2.4125
X10.6222Y0.1625
X10.716Y0.1625
X10.7222Y2.4125
X10.7222Y0.1625
X10.8097Y3.1625
X10.8097Y0.9125
X10.8097Y0.1625
X10.816Y0.1625
X10.9097Y3.1625
X10.9097Y0.9125
X10.9097Y0.1625
T6
X0.2097Y3.4625
X0.3035Y1.9625
X0.3035Y1.2125
X0.3035Y0.4625
X0.3972Y2.7125
X0.3972Y0.4625
X0.4597Y3.5625
X0.491Y1.9625
X0.5535Y2.0625
X0.5535Y1.3125
X0.5535Y0.5625
X0.6472Y2.8125
X0.6472Y0.5625
X0.6785Y1.2125
X0.741Y2.0625
X0.9285Y1.3125
X0.9597Y3.4625
X1.1472Y1.2125
X1.2097Y3.5625
X1.241Y0.4625
X1.3347Y2.7125
X1.3347Y0.4625
X1.3972Y1.3125
X1.491Y0.5625
X1.5222Y1.9625
X1.5847Y2.8125
X1.5847Y0.5625
X1.7097Y3.4625
X1.7722Y2.0625
X1.8972Y1.2125
X1.9597Y3.5625
X2.0848Y2.7125
X2.1473Y1.3125
X2.1785Y0.4625
X2.2723Y1.9625
X2.2723Y0.4625
X2.3348Y2.8125
X2.4285Y0.5625
X2.4598Y3.4625
X2.5223Y2.0625
X2.5223Y0.5625
X2.6473Y1.2125
X2.7098Y3.5625
X2.8348Y2.7125
X2.8973Y1.3125
X3.0223Y1.9625
X3.0848Y2.8125
X3.2098Y3.4625
X3.2723Y2.0625
X3.3973Y1.2125
X3.4598Y3.5625
X3.491Y0.4625
X3.5848Y2.7125
X3.6473Y1.3125
X3.6785Y0.4625
X3.741Y0.5625
X3.7723Y1.9625
X3.8348Y2.8125
X3.866Y0.4625
X3.9285Y0.5625
X3.9598Y3.4625
X4.0222Y2.0625
X4.116Y0.5625
X4.1472Y1.2125
X4.2097Y3.5625
X4.3347Y2.7125
X4.3972Y1.3125
X4.5222Y1.9625
X4.5847Y2.8125
X4.7097Y3.4625
X4.7722Y2.0625
X4.8035Y0.4625
X4.8972Y1.2125
X4.9597Y3.5625
X4.991Y0.4625
X5.0535Y0.5625
X5.0847Y2.7125
X5.1472Y1.3125
X5.1785Y0.4625
X5.241Y0.5625
X5.2722Y1.9625
X5.3347Y2.8125
X5.4285Y0.5625
X5.4597Y3.4625
X5.4597Y0.4625
X5.4597Y0.4625
X5.5222Y2.0625
X5.6472Y1.2125
X5.7097Y3.5625
X5.7097Y0.5625
X5.7097Y0.5625
X5.8347Y2.7125
X5.8972Y1.3125
X6.0222Y1.9625
X6.0847Y2.8125
X6.2097Y3.4625
X6.2722Y2.0625
X6.3035Y0.4625
X6.3972Y1.2125
X6.4597Y3.5625
X6.491Y0.4625
X6.5535Y0.5625
X6.5847Y2.7125
X6.6472Y1.3125
X6.741Y0.5625
X6.7722Y1.9625
X6.8347Y2.8125
X6.9597Y3.4625
X7.0222Y2.0625
X7.0535Y0.4625
X7.1472Y1.2125
X7.2097Y3.5625
X7.3035Y0.5625
X7.3347Y2.7125
X7.3972Y1.3125
X7.5222Y1.9625
X7.5847Y2.8125
X7.7097Y3.4625
X7.7097Y0.4625
X7.7722Y2.0625
X7.8035Y0.4625
X7.8972Y1.2125
X7.9597Y3.5625
X7.9597Y0.5625
X8.0535Y0.5625
X8.0847Y2.7125
X8.1472Y1.3125
X8.2722Y1.9625
X8.3347Y2.8125
X8.4597Y3.4625
X8.4597Y0.4625
X8.5222Y2.0625
X8.6472Y1.2125
X8.6472Y0.4625
X8.7097Y3.5625
X8.7097Y0.5625
X8.741Y0.4625
X8.8347Y2.7125
X8.8972Y1.3125
X8.8972Y0.5625
X8.991Y0.5625
X9.0222Y1.9625
X9.0847Y2.8125
X9.2097Y3.4625
X9.2097Y0.4625
X9.2722Y2.0625
X9.4597Y3.5625
X9.4597Y0.5625
X9.5847Y2.7125
X9.5847Y0.4625
X9.6785Y1.2125
X9.6785Y0.4625
X9.7722Y1.9625
X9.8347Y2.8125
X9.8347Y0.5625
X9.9285Y1.3125
X9.9285Y0.5625
X9.9597Y3.4625
X9.9597Y0.4625
X10.0222Y2.0625
X10.0535Y1.2125
X10.2097Y3.5625
X10.2097Y0.5625
X10.241Y1.9625
X10.3035Y1.3125
X10.3347Y3.4625
X10.491Y2.0625
X10.5222Y2.7125
X10.5222Y0.4625
X10.5847Y3.5625
X10.616Y0.4625
X10.7097Y3.4625
X10.7097Y1.2125
X10.7097Y0.4625
X10.7722Y2.8125
X10.7722Y0.5625
X10.866Y2.3875
X10.866Y0.5625
X10.9597Y3.5625
X10.9597Y1.3125
X10.9597Y0.5625
X10.966Y2.1375
T8
X0.9916Y2.6263
T3
X0.5395Y3.7458G85X0.5395Y3.7222
G05
X0.5536Y3.5116G85X0.5536Y3.4879
G05
X0.8788Y3.5116G85X0.8788Y3.4879
G05
X0.893Y3.7458G85X0.893Y3.7222
G05
T7
X4.9975Y1.8743G85X5.096Y1.8743
G05
X7.4503Y0.3704G85X7.5488Y0.3704
G05
X10.1885Y2.6263G85X10.287Y2.6263
G05
T0
M30
