G04 #@! TF.GenerationSoftware,KiCad,Pcbnew,5.0.1-33cea8e~67~ubuntu16.04.1*
G04 #@! TF.CreationDate,2018-11-01T18:02:05+00:00*
G04 #@! TF.ProjectId,co60,636F36302E6B696361645F7063620000,rev?*
G04 #@! TF.SameCoordinates,PX4b4f718PY8c7ecc0*
G04 #@! TF.FileFunction,Paste,Bot*
G04 #@! TF.FilePolarity,Positive*
%FSLAX46Y46*%
G04 Gerber Fmt 4.6, Leading zero omitted, Abs format (unit mm)*
G04 Created by KiCad (PCBNEW 5.0.1-33cea8e~67~ubuntu16.04.1) date Thu 01 Nov 2018 06:02:05 PM UTC*
%MOMM*%
%LPD*%
G01*
G04 APERTURE LIST*
%ADD10R,0.600000X1.450000*%
%ADD11R,0.300000X1.450000*%
%ADD12R,0.900000X0.500000*%
%ADD13R,0.500000X0.900000*%
%ADD14R,1.300000X0.700000*%
%ADD15R,1.200000X0.900000*%
%ADD16R,0.900000X1.200000*%
%ADD17R,1.000000X1.700000*%
%ADD18R,0.800000X0.750000*%
%ADD19R,0.750000X0.800000*%
%ADD20R,0.600000X1.300000*%
%ADD21R,0.700000X0.600000*%
%ADD22R,0.700000X1.000000*%
%ADD23R,0.250000X1.300000*%
%ADD24R,1.300000X0.250000*%
%ADD25R,0.650000X1.060000*%
%ADD26R,1.600000X1.300000*%
%ADD27C,0.100000*%
%ADD28C,0.875000*%
G04 APERTURE END LIST*
D10*
G04 #@! TO.C,USB1*
X21438400Y88875800D03*
X14988400Y88875800D03*
X20663400Y88875800D03*
X15763400Y88875800D03*
D11*
X16463400Y88875800D03*
X19963400Y88875800D03*
X16963400Y88875800D03*
X19463400Y88875800D03*
X17463400Y88875800D03*
X18963400Y88875800D03*
X18463400Y88875800D03*
X17963400Y88875800D03*
G04 #@! TD*
D12*
G04 #@! TO.C,R68*
X267741400Y1282000D03*
X267741400Y2782000D03*
G04 #@! TD*
G04 #@! TO.C,R67*
X253136400Y3163000D03*
X253136400Y1663000D03*
G04 #@! TD*
G04 #@! TO.C,R66*
X234165775Y2504375D03*
X234165775Y4004375D03*
G04 #@! TD*
G04 #@! TO.C,R65*
X230593900Y2504375D03*
X230593900Y4004375D03*
G04 #@! TD*
G04 #@! TO.C,R64*
X206781400Y2504375D03*
X206781400Y4004375D03*
G04 #@! TD*
G04 #@! TO.C,R63*
X159156400Y3695000D03*
X159156400Y5195000D03*
G04 #@! TD*
G04 #@! TO.C,R62*
X121056400Y2504375D03*
X121056400Y4004375D03*
G04 #@! TD*
G04 #@! TO.C,R61*
X117678200Y2475800D03*
X117678200Y3975800D03*
G04 #@! TD*
G04 #@! TO.C,R60*
X54381400Y2504375D03*
X54381400Y4004375D03*
G04 #@! TD*
G04 #@! TO.C,R59*
X30568900Y2504375D03*
X30568900Y4004375D03*
G04 #@! TD*
G04 #@! TO.C,R58*
X6756400Y2504375D03*
X6756400Y4004375D03*
G04 #@! TD*
D13*
G04 #@! TO.C,R57*
X275087650Y19923125D03*
X276587650Y19923125D03*
G04 #@! TD*
D12*
G04 #@! TO.C,R56*
X254406400Y21554375D03*
X254406400Y23054375D03*
G04 #@! TD*
G04 #@! TO.C,R55*
X218687650Y21554375D03*
X218687650Y23054375D03*
G04 #@! TD*
G04 #@! TO.C,R54*
X199637650Y21554375D03*
X199637650Y23054375D03*
G04 #@! TD*
G04 #@! TO.C,R53*
X180587650Y21554375D03*
X180587650Y23054375D03*
G04 #@! TD*
G04 #@! TO.C,R52*
X161537650Y21554375D03*
X161537650Y23054375D03*
G04 #@! TD*
G04 #@! TO.C,R51*
X142487650Y21554375D03*
X142487650Y23054375D03*
G04 #@! TD*
G04 #@! TO.C,R50*
X123437650Y21554375D03*
X123437650Y23054375D03*
G04 #@! TD*
G04 #@! TO.C,R49*
X104387650Y21554375D03*
X104387650Y23054375D03*
G04 #@! TD*
G04 #@! TO.C,R48*
X85337650Y21554375D03*
X85337650Y23054375D03*
G04 #@! TD*
G04 #@! TO.C,R47*
X66287650Y21554375D03*
X66287650Y23054375D03*
G04 #@! TD*
G04 #@! TO.C,R46*
X47237650Y21554375D03*
X47237650Y23054375D03*
G04 #@! TD*
G04 #@! TO.C,R45*
X28187650Y21554375D03*
X28187650Y23054375D03*
G04 #@! TD*
G04 #@! TO.C,R44*
X6756400Y23935625D03*
X6756400Y25435625D03*
G04 #@! TD*
G04 #@! TO.C,R43*
X259168900Y40604375D03*
X259168900Y42104375D03*
G04 #@! TD*
G04 #@! TO.C,R42*
X247262650Y40604375D03*
X247262650Y42104375D03*
G04 #@! TD*
G04 #@! TO.C,R41*
X228212650Y40604375D03*
X228212650Y42104375D03*
G04 #@! TD*
G04 #@! TO.C,R40*
X209162650Y40604375D03*
X209162650Y42104375D03*
G04 #@! TD*
G04 #@! TO.C,R39*
X190112650Y40604375D03*
X190112650Y42104375D03*
G04 #@! TD*
G04 #@! TO.C,R38*
X171062650Y40604375D03*
X171062650Y42104375D03*
G04 #@! TD*
G04 #@! TO.C,R37*
X152012650Y40604375D03*
X152012650Y42104375D03*
G04 #@! TD*
G04 #@! TO.C,R36*
X132962650Y40604375D03*
X132962650Y42104375D03*
G04 #@! TD*
G04 #@! TO.C,R35*
X113912650Y40604375D03*
X113912650Y42104375D03*
G04 #@! TD*
G04 #@! TO.C,R34*
X94862650Y40604375D03*
X94862650Y42104375D03*
G04 #@! TD*
G04 #@! TO.C,R33*
X75812650Y40604375D03*
X75812650Y42104375D03*
G04 #@! TD*
G04 #@! TO.C,R32*
X56762650Y40604375D03*
X56762650Y42104375D03*
G04 #@! TD*
G04 #@! TO.C,R31*
X37712650Y40604375D03*
X37712650Y42104375D03*
G04 #@! TD*
G04 #@! TO.C,R30*
X7947025Y42985625D03*
X7947025Y44485625D03*
G04 #@! TD*
G04 #@! TO.C,R29*
X266312650Y59654375D03*
X266312650Y61154375D03*
G04 #@! TD*
G04 #@! TO.C,R28*
X242500150Y59654375D03*
X242500150Y61154375D03*
G04 #@! TD*
G04 #@! TO.C,R27*
X223450150Y59654375D03*
X223450150Y61154375D03*
G04 #@! TD*
G04 #@! TO.C,R26*
X204400150Y59654375D03*
X204400150Y61154375D03*
G04 #@! TD*
G04 #@! TO.C,R25*
X185350150Y59654375D03*
X185350150Y61154375D03*
G04 #@! TD*
G04 #@! TO.C,R24*
X166300150Y59654375D03*
X166300150Y61154375D03*
G04 #@! TD*
G04 #@! TO.C,R23*
X147250150Y59654375D03*
X147250150Y61154375D03*
G04 #@! TD*
G04 #@! TO.C,R19*
X71050150Y59654375D03*
X71050150Y61154375D03*
G04 #@! TD*
G04 #@! TO.C,R18*
X52070000Y60629800D03*
X52070000Y62129800D03*
G04 #@! TD*
G04 #@! TO.C,R17*
X33031400Y62770000D03*
X33031400Y64270000D03*
G04 #@! TD*
G04 #@! TO.C,R16*
X9137650Y59654375D03*
X9137650Y61154375D03*
G04 #@! TD*
G04 #@! TO.C,R15*
X271075150Y78704375D03*
X271075150Y80204375D03*
G04 #@! TD*
G04 #@! TO.C,R14*
X250834525Y78704375D03*
X250834525Y80204375D03*
G04 #@! TD*
G04 #@! TO.C,R13*
X232975150Y78704375D03*
X232975150Y80204375D03*
G04 #@! TD*
G04 #@! TO.C,R12*
X213925150Y78704375D03*
X213925150Y80204375D03*
G04 #@! TD*
G04 #@! TO.C,R11*
X194875150Y78704375D03*
X194875150Y80204375D03*
G04 #@! TD*
G04 #@! TO.C,R10*
X175825150Y78704375D03*
X175825150Y80204375D03*
G04 #@! TD*
G04 #@! TO.C,R9*
X156775150Y78704375D03*
X156775150Y80204375D03*
G04 #@! TD*
G04 #@! TO.C,R8*
X137725150Y78704375D03*
X137725150Y80204375D03*
G04 #@! TD*
G04 #@! TO.C,R7*
X118675150Y78704375D03*
X118675150Y80204375D03*
G04 #@! TD*
G04 #@! TO.C,R6*
X99625150Y78704375D03*
X99625150Y80204375D03*
G04 #@! TD*
G04 #@! TO.C,R5*
X80575150Y78704375D03*
X80575150Y80204375D03*
G04 #@! TD*
G04 #@! TO.C,R4*
X61525150Y78704375D03*
X61525150Y80204375D03*
G04 #@! TD*
G04 #@! TO.C,R3*
X42475150Y78704375D03*
X42475150Y80204375D03*
G04 #@! TD*
G04 #@! TO.C,R2*
X23425150Y78704375D03*
X23425150Y80204375D03*
G04 #@! TD*
G04 #@! TO.C,R1*
X4375150Y78704375D03*
X4375150Y80204375D03*
G04 #@! TD*
D14*
G04 #@! TO.C,F1*
X14231400Y81320000D03*
X14231400Y83220000D03*
G04 #@! TD*
D15*
G04 #@! TO.C,D68*
X281790775Y12320000D03*
X281790775Y15620000D03*
G04 #@! TD*
G04 #@! TO.C,D67*
X262740775Y12320000D03*
X262740775Y15620000D03*
G04 #@! TD*
G04 #@! TO.C,D66*
X243690775Y14701250D03*
X243690775Y18001250D03*
G04 #@! TD*
G04 #@! TO.C,D65*
X211543900Y13510625D03*
X211543900Y16810625D03*
G04 #@! TD*
G04 #@! TO.C,D64*
X207972025Y13510625D03*
X207972025Y16810625D03*
G04 #@! TD*
G04 #@! TO.C,D63*
X155584525Y7557500D03*
X155584525Y10857500D03*
G04 #@! TD*
G04 #@! TO.C,D62*
X150822025Y7557500D03*
X150822025Y10857500D03*
G04 #@! TD*
G04 #@! TO.C,D61*
X110340775Y8748125D03*
X110340775Y12048125D03*
G04 #@! TD*
G04 #@! TO.C,D60*
X69859525Y8748125D03*
X69859525Y12048125D03*
G04 #@! TD*
G04 #@! TO.C,D59*
X46047025Y8748125D03*
X46047025Y12048125D03*
G04 #@! TD*
G04 #@! TO.C,D58*
X22733000Y12167600D03*
X22733000Y15467600D03*
G04 #@! TD*
G04 #@! TO.C,D57*
X281790775Y21845000D03*
X281790775Y25145000D03*
G04 #@! TD*
G04 #@! TO.C,D56*
X267503275Y27798125D03*
X267503275Y31098125D03*
G04 #@! TD*
G04 #@! TO.C,D55*
X231784525Y27798125D03*
X231784525Y31098125D03*
G04 #@! TD*
G04 #@! TO.C,D54*
X212734525Y27798125D03*
X212734525Y31098125D03*
G04 #@! TD*
G04 #@! TO.C,D53*
X193684525Y27798125D03*
X193684525Y31098125D03*
G04 #@! TD*
G04 #@! TO.C,D52*
X174634525Y27798125D03*
X174634525Y31098125D03*
G04 #@! TD*
G04 #@! TO.C,D51*
X155584525Y27798125D03*
X155584525Y31098125D03*
G04 #@! TD*
G04 #@! TO.C,D50*
X136534525Y27798125D03*
X136534525Y31098125D03*
G04 #@! TD*
G04 #@! TO.C,D49*
X117484525Y27798125D03*
X117484525Y31098125D03*
G04 #@! TD*
G04 #@! TO.C,D48*
X98434525Y27798125D03*
X98434525Y31098125D03*
G04 #@! TD*
G04 #@! TO.C,D47*
X79384525Y27798125D03*
X79384525Y31098125D03*
G04 #@! TD*
G04 #@! TO.C,D46*
X60334525Y27798125D03*
X60334525Y31098125D03*
G04 #@! TD*
G04 #@! TO.C,D45*
X41284525Y27798125D03*
X41284525Y31098125D03*
G04 #@! TD*
G04 #@! TO.C,D44*
X3184525Y27798125D03*
X3184525Y31098125D03*
G04 #@! TD*
G04 #@! TO.C,D43*
X272265775Y45657500D03*
X272265775Y48957500D03*
G04 #@! TD*
G04 #@! TO.C,D42*
X259168900Y52801250D03*
X259168900Y56101250D03*
G04 #@! TD*
G04 #@! TO.C,D41*
X241309525Y46848125D03*
X241309525Y50148125D03*
G04 #@! TD*
G04 #@! TO.C,D40*
X222259525Y46848125D03*
X222259525Y50148125D03*
G04 #@! TD*
G04 #@! TO.C,D39*
X203209525Y46848125D03*
X203209525Y50148125D03*
G04 #@! TD*
G04 #@! TO.C,D38*
X184159525Y46848125D03*
X184159525Y50148125D03*
G04 #@! TD*
G04 #@! TO.C,D37*
X165109525Y46848125D03*
X165109525Y50148125D03*
G04 #@! TD*
G04 #@! TO.C,D36*
X146059525Y46848125D03*
X146059525Y50148125D03*
G04 #@! TD*
G04 #@! TO.C,D35*
X110832900Y46850300D03*
X110832900Y50150300D03*
G04 #@! TD*
G04 #@! TO.C,D34*
X107959525Y46848125D03*
X107959525Y50148125D03*
G04 #@! TD*
G04 #@! TO.C,D33*
X88909525Y46848125D03*
X88909525Y50148125D03*
G04 #@! TD*
G04 #@! TO.C,D32*
X69859525Y46848125D03*
X69859525Y50148125D03*
G04 #@! TD*
G04 #@! TO.C,D31*
X50809525Y46848125D03*
X50809525Y50148125D03*
G04 #@! TD*
G04 #@! TO.C,D30*
X21043900Y40895000D03*
X21043900Y44195000D03*
G04 #@! TD*
G04 #@! TO.C,D29*
X277028275Y69470000D03*
X277028275Y72770000D03*
G04 #@! TD*
G04 #@! TO.C,D28*
X254406400Y68279375D03*
X254406400Y71579375D03*
G04 #@! TD*
G04 #@! TO.C,D27*
X236547025Y65898125D03*
X236547025Y69198125D03*
G04 #@! TD*
G04 #@! TO.C,D26*
X217497025Y65898125D03*
X217497025Y69198125D03*
G04 #@! TD*
G04 #@! TO.C,D25*
X198447025Y65898125D03*
X198447025Y69198125D03*
G04 #@! TD*
G04 #@! TO.C,D24*
X179397025Y65898125D03*
X179397025Y69198125D03*
G04 #@! TD*
G04 #@! TO.C,D23*
X160347025Y65898125D03*
X160347025Y69198125D03*
G04 #@! TD*
G04 #@! TO.C,D22*
X141297025Y65898125D03*
X141297025Y69198125D03*
G04 #@! TD*
G04 #@! TO.C,D21*
X122247025Y65898125D03*
X122247025Y69198125D03*
G04 #@! TD*
G04 #@! TO.C,D20*
X103197025Y65898125D03*
X103197025Y69198125D03*
G04 #@! TD*
G04 #@! TO.C,D19*
X84147025Y65898125D03*
X84147025Y69198125D03*
G04 #@! TD*
G04 #@! TO.C,D18*
X65097025Y65898125D03*
X65097025Y69198125D03*
G04 #@! TD*
G04 #@! TO.C,D17*
X45931400Y67770000D03*
X45931400Y71070000D03*
G04 #@! TD*
G04 #@! TO.C,D16*
X5565775Y69470000D03*
X5565775Y72770000D03*
G04 #@! TD*
G04 #@! TO.C,D15*
X281790775Y88520000D03*
X281790775Y91820000D03*
G04 #@! TD*
G04 #@! TO.C,D14*
X265709400Y88520000D03*
X265709400Y91820000D03*
G04 #@! TD*
G04 #@! TO.C,D13*
X246072025Y84948125D03*
X246072025Y88248125D03*
G04 #@! TD*
G04 #@! TO.C,D12*
X227022025Y84948125D03*
X227022025Y88248125D03*
G04 #@! TD*
G04 #@! TO.C,D11*
X207972025Y84948125D03*
X207972025Y88248125D03*
G04 #@! TD*
D16*
G04 #@! TO.C,D10*
X190421400Y88850000D03*
X187121400Y88850000D03*
G04 #@! TD*
D15*
G04 #@! TO.C,D9*
X169872025Y84948125D03*
X169872025Y88248125D03*
G04 #@! TD*
G04 #@! TO.C,D8*
X150822025Y84948125D03*
X150822025Y88248125D03*
G04 #@! TD*
G04 #@! TO.C,D7*
X131772025Y84948125D03*
X131772025Y88248125D03*
G04 #@! TD*
G04 #@! TO.C,D6*
X112722025Y84948125D03*
X112722025Y88248125D03*
G04 #@! TD*
G04 #@! TO.C,D5*
X93672025Y84948125D03*
X93672025Y88248125D03*
G04 #@! TD*
D16*
G04 #@! TO.C,D4*
X76431400Y88930000D03*
X73131400Y88930000D03*
G04 #@! TD*
D15*
G04 #@! TO.C,D3*
X55572025Y84948125D03*
X55572025Y88248125D03*
G04 #@! TD*
G04 #@! TO.C,D2*
X36522025Y84948125D03*
X36522025Y88248125D03*
G04 #@! TD*
D16*
G04 #@! TO.C,D1*
X7517400Y91440000D03*
X4217400Y91440000D03*
G04 #@! TD*
D17*
G04 #@! TO.C,SW1*
X26192400Y39726000D03*
X26192400Y33426000D03*
X29992400Y39726000D03*
X29992400Y33426000D03*
G04 #@! TD*
D13*
G04 #@! TO.C,RC7*
X26781400Y91070000D03*
X25281400Y91070000D03*
G04 #@! TD*
D12*
G04 #@! TO.C,RC6*
X12065000Y88176800D03*
X12065000Y86676800D03*
G04 #@! TD*
G04 #@! TO.C,RC5*
X17131400Y78070000D03*
X17131400Y79570000D03*
G04 #@! TD*
G04 #@! TO.C,RC4*
X19281400Y78070000D03*
X19281400Y79570000D03*
G04 #@! TD*
D13*
G04 #@! TO.C,RC1*
X28485400Y43180000D03*
X29985400Y43180000D03*
G04 #@! TD*
D12*
G04 #@! TO.C,R22*
X128200150Y59654375D03*
X128200150Y61154375D03*
G04 #@! TD*
G04 #@! TO.C,R21*
X109150150Y59654375D03*
X109150150Y61154375D03*
G04 #@! TD*
G04 #@! TO.C,R20*
X90100150Y59654375D03*
X90100150Y61154375D03*
G04 #@! TD*
D18*
G04 #@! TO.C,C8*
X27591400Y46989400D03*
X26091400Y46989400D03*
G04 #@! TD*
D19*
G04 #@! TO.C,C7*
X39331400Y54036000D03*
X39331400Y52536000D03*
G04 #@! TD*
G04 #@! TO.C,C6*
X42031400Y54036000D03*
X42031400Y52536000D03*
G04 #@! TD*
G04 #@! TO.C,C5*
X22261400Y55000000D03*
X22261400Y56500000D03*
G04 #@! TD*
G04 #@! TO.C,C4*
X20229400Y55000000D03*
X20229400Y56500000D03*
G04 #@! TD*
D18*
G04 #@! TO.C,C3*
X32081400Y60920000D03*
X33581400Y60920000D03*
G04 #@! TD*
G04 #@! TO.C,C2*
X46331400Y62320000D03*
X44831400Y62320000D03*
G04 #@! TD*
G04 #@! TO.C,C1*
X44781400Y56020000D03*
X46281400Y56020000D03*
G04 #@! TD*
D20*
G04 #@! TO.C,Q1*
X21107400Y36034000D03*
X22057400Y38134000D03*
X20157400Y38134000D03*
G04 #@! TD*
D21*
G04 #@! TO.C,ESD1*
X17186400Y82108000D03*
X19186400Y82108000D03*
X17186400Y84008000D03*
D22*
X19186400Y83808000D03*
G04 #@! TD*
D18*
G04 #@! TO.C,C9*
X41181400Y50620000D03*
X42681400Y50620000D03*
G04 #@! TD*
G04 #@! TO.C,C10*
X19081400Y63920000D03*
X17581400Y63920000D03*
G04 #@! TD*
G04 #@! TO.C,C11*
X17781400Y56920000D03*
X16281400Y56920000D03*
G04 #@! TD*
D13*
G04 #@! TO.C,RC8*
X23881400Y43720000D03*
X25381400Y43720000D03*
G04 #@! TD*
G04 #@! TO.C,RC9*
X26311400Y76250000D03*
X24811400Y76250000D03*
G04 #@! TD*
D23*
G04 #@! TO.C,U1*
X33281400Y58070000D03*
X32781400Y58070000D03*
X32281400Y58070000D03*
X31781400Y58070000D03*
X31281400Y58070000D03*
X30781400Y58070000D03*
X30281400Y58070000D03*
X29781400Y58070000D03*
X29281400Y58070000D03*
X28781400Y58070000D03*
X28281400Y58070000D03*
X27781400Y58070000D03*
D24*
X26181400Y56470000D03*
X26181400Y55970000D03*
X26181400Y55470000D03*
X26181400Y54970000D03*
X26181400Y54470000D03*
X26181400Y53970000D03*
X26181400Y53470000D03*
X26181400Y52970000D03*
X26181400Y52470000D03*
X26181400Y51970000D03*
X26181400Y51470000D03*
X26181400Y50970000D03*
D23*
X27781400Y49370000D03*
X28281400Y49370000D03*
X28781400Y49370000D03*
X29281400Y49370000D03*
X29781400Y49370000D03*
X30281400Y49370000D03*
X30781400Y49370000D03*
X31281400Y49370000D03*
X31781400Y49370000D03*
X32281400Y49370000D03*
X32781400Y49370000D03*
X33281400Y49370000D03*
D24*
X34881400Y50970000D03*
X34881400Y51470000D03*
X34881400Y51970000D03*
X34881400Y52470000D03*
X34881400Y52970000D03*
X34881400Y53470000D03*
X34881400Y53970000D03*
X34881400Y54470000D03*
X34881400Y54970000D03*
X34881400Y55470000D03*
X34881400Y55970000D03*
X34881400Y56470000D03*
G04 #@! TD*
D25*
G04 #@! TO.C,U2*
X17981400Y59220000D03*
X19881400Y59220000D03*
X19881400Y61420000D03*
X18931400Y61420000D03*
X17981400Y61420000D03*
G04 #@! TD*
D26*
G04 #@! TO.C,Y1*
X44081400Y58120000D03*
X47381400Y58120000D03*
X47381400Y60120000D03*
X44081400Y60120000D03*
G04 #@! TD*
D27*
G04 #@! TO.C,C12*
G36*
X13859091Y78293947D02*
X13880326Y78290797D01*
X13901150Y78285581D01*
X13921362Y78278349D01*
X13940768Y78269170D01*
X13959181Y78258134D01*
X13976424Y78245346D01*
X13992330Y78230930D01*
X14006746Y78215024D01*
X14019534Y78197781D01*
X14030570Y78179368D01*
X14039749Y78159962D01*
X14046981Y78139750D01*
X14052197Y78118926D01*
X14055347Y78097691D01*
X14056400Y78076250D01*
X14056400Y77563750D01*
X14055347Y77542309D01*
X14052197Y77521074D01*
X14046981Y77500250D01*
X14039749Y77480038D01*
X14030570Y77460632D01*
X14019534Y77442219D01*
X14006746Y77424976D01*
X13992330Y77409070D01*
X13976424Y77394654D01*
X13959181Y77381866D01*
X13940768Y77370830D01*
X13921362Y77361651D01*
X13901150Y77354419D01*
X13880326Y77349203D01*
X13859091Y77346053D01*
X13837650Y77345000D01*
X13400150Y77345000D01*
X13378709Y77346053D01*
X13357474Y77349203D01*
X13336650Y77354419D01*
X13316438Y77361651D01*
X13297032Y77370830D01*
X13278619Y77381866D01*
X13261376Y77394654D01*
X13245470Y77409070D01*
X13231054Y77424976D01*
X13218266Y77442219D01*
X13207230Y77460632D01*
X13198051Y77480038D01*
X13190819Y77500250D01*
X13185603Y77521074D01*
X13182453Y77542309D01*
X13181400Y77563750D01*
X13181400Y78076250D01*
X13182453Y78097691D01*
X13185603Y78118926D01*
X13190819Y78139750D01*
X13198051Y78159962D01*
X13207230Y78179368D01*
X13218266Y78197781D01*
X13231054Y78215024D01*
X13245470Y78230930D01*
X13261376Y78245346D01*
X13278619Y78258134D01*
X13297032Y78269170D01*
X13316438Y78278349D01*
X13336650Y78285581D01*
X13357474Y78290797D01*
X13378709Y78293947D01*
X13400150Y78295000D01*
X13837650Y78295000D01*
X13859091Y78293947D01*
X13859091Y78293947D01*
G37*
D28*
X13618900Y77820000D03*
D27*
G36*
X12284091Y78293947D02*
X12305326Y78290797D01*
X12326150Y78285581D01*
X12346362Y78278349D01*
X12365768Y78269170D01*
X12384181Y78258134D01*
X12401424Y78245346D01*
X12417330Y78230930D01*
X12431746Y78215024D01*
X12444534Y78197781D01*
X12455570Y78179368D01*
X12464749Y78159962D01*
X12471981Y78139750D01*
X12477197Y78118926D01*
X12480347Y78097691D01*
X12481400Y78076250D01*
X12481400Y77563750D01*
X12480347Y77542309D01*
X12477197Y77521074D01*
X12471981Y77500250D01*
X12464749Y77480038D01*
X12455570Y77460632D01*
X12444534Y77442219D01*
X12431746Y77424976D01*
X12417330Y77409070D01*
X12401424Y77394654D01*
X12384181Y77381866D01*
X12365768Y77370830D01*
X12346362Y77361651D01*
X12326150Y77354419D01*
X12305326Y77349203D01*
X12284091Y77346053D01*
X12262650Y77345000D01*
X11825150Y77345000D01*
X11803709Y77346053D01*
X11782474Y77349203D01*
X11761650Y77354419D01*
X11741438Y77361651D01*
X11722032Y77370830D01*
X11703619Y77381866D01*
X11686376Y77394654D01*
X11670470Y77409070D01*
X11656054Y77424976D01*
X11643266Y77442219D01*
X11632230Y77460632D01*
X11623051Y77480038D01*
X11615819Y77500250D01*
X11610603Y77521074D01*
X11607453Y77542309D01*
X11606400Y77563750D01*
X11606400Y78076250D01*
X11607453Y78097691D01*
X11610603Y78118926D01*
X11615819Y78139750D01*
X11623051Y78159962D01*
X11632230Y78179368D01*
X11643266Y78197781D01*
X11656054Y78215024D01*
X11670470Y78230930D01*
X11686376Y78245346D01*
X11703619Y78258134D01*
X11722032Y78269170D01*
X11741438Y78278349D01*
X11761650Y78285581D01*
X11782474Y78290797D01*
X11803709Y78293947D01*
X11825150Y78295000D01*
X12262650Y78295000D01*
X12284091Y78293947D01*
X12284091Y78293947D01*
G37*
D28*
X12043900Y77820000D03*
G04 #@! TD*
D27*
G04 #@! TO.C,C13*
G36*
X22496591Y76633947D02*
X22517826Y76630797D01*
X22538650Y76625581D01*
X22558862Y76618349D01*
X22578268Y76609170D01*
X22596681Y76598134D01*
X22613924Y76585346D01*
X22629830Y76570930D01*
X22644246Y76555024D01*
X22657034Y76537781D01*
X22668070Y76519368D01*
X22677249Y76499962D01*
X22684481Y76479750D01*
X22689697Y76458926D01*
X22692847Y76437691D01*
X22693900Y76416250D01*
X22693900Y75903750D01*
X22692847Y75882309D01*
X22689697Y75861074D01*
X22684481Y75840250D01*
X22677249Y75820038D01*
X22668070Y75800632D01*
X22657034Y75782219D01*
X22644246Y75764976D01*
X22629830Y75749070D01*
X22613924Y75734654D01*
X22596681Y75721866D01*
X22578268Y75710830D01*
X22558862Y75701651D01*
X22538650Y75694419D01*
X22517826Y75689203D01*
X22496591Y75686053D01*
X22475150Y75685000D01*
X22037650Y75685000D01*
X22016209Y75686053D01*
X21994974Y75689203D01*
X21974150Y75694419D01*
X21953938Y75701651D01*
X21934532Y75710830D01*
X21916119Y75721866D01*
X21898876Y75734654D01*
X21882970Y75749070D01*
X21868554Y75764976D01*
X21855766Y75782219D01*
X21844730Y75800632D01*
X21835551Y75820038D01*
X21828319Y75840250D01*
X21823103Y75861074D01*
X21819953Y75882309D01*
X21818900Y75903750D01*
X21818900Y76416250D01*
X21819953Y76437691D01*
X21823103Y76458926D01*
X21828319Y76479750D01*
X21835551Y76499962D01*
X21844730Y76519368D01*
X21855766Y76537781D01*
X21868554Y76555024D01*
X21882970Y76570930D01*
X21898876Y76585346D01*
X21916119Y76598134D01*
X21934532Y76609170D01*
X21953938Y76618349D01*
X21974150Y76625581D01*
X21994974Y76630797D01*
X22016209Y76633947D01*
X22037650Y76635000D01*
X22475150Y76635000D01*
X22496591Y76633947D01*
X22496591Y76633947D01*
G37*
D28*
X22256400Y76160000D03*
D27*
G36*
X20921591Y76633947D02*
X20942826Y76630797D01*
X20963650Y76625581D01*
X20983862Y76618349D01*
X21003268Y76609170D01*
X21021681Y76598134D01*
X21038924Y76585346D01*
X21054830Y76570930D01*
X21069246Y76555024D01*
X21082034Y76537781D01*
X21093070Y76519368D01*
X21102249Y76499962D01*
X21109481Y76479750D01*
X21114697Y76458926D01*
X21117847Y76437691D01*
X21118900Y76416250D01*
X21118900Y75903750D01*
X21117847Y75882309D01*
X21114697Y75861074D01*
X21109481Y75840250D01*
X21102249Y75820038D01*
X21093070Y75800632D01*
X21082034Y75782219D01*
X21069246Y75764976D01*
X21054830Y75749070D01*
X21038924Y75734654D01*
X21021681Y75721866D01*
X21003268Y75710830D01*
X20983862Y75701651D01*
X20963650Y75694419D01*
X20942826Y75689203D01*
X20921591Y75686053D01*
X20900150Y75685000D01*
X20462650Y75685000D01*
X20441209Y75686053D01*
X20419974Y75689203D01*
X20399150Y75694419D01*
X20378938Y75701651D01*
X20359532Y75710830D01*
X20341119Y75721866D01*
X20323876Y75734654D01*
X20307970Y75749070D01*
X20293554Y75764976D01*
X20280766Y75782219D01*
X20269730Y75800632D01*
X20260551Y75820038D01*
X20253319Y75840250D01*
X20248103Y75861074D01*
X20244953Y75882309D01*
X20243900Y75903750D01*
X20243900Y76416250D01*
X20244953Y76437691D01*
X20248103Y76458926D01*
X20253319Y76479750D01*
X20260551Y76499962D01*
X20269730Y76519368D01*
X20280766Y76537781D01*
X20293554Y76555024D01*
X20307970Y76570930D01*
X20323876Y76585346D01*
X20341119Y76598134D01*
X20359532Y76609170D01*
X20378938Y76618349D01*
X20399150Y76625581D01*
X20419974Y76630797D01*
X20441209Y76633947D01*
X20462650Y76635000D01*
X20900150Y76635000D01*
X20921591Y76633947D01*
X20921591Y76633947D01*
G37*
D28*
X20681400Y76160000D03*
G04 #@! TD*
M02*
