G04 #@! TF.FileFunction,Soldermask,Bot*
%FSLAX46Y46*%
G04 Gerber Fmt 4.6, Leading zero omitted, Abs format (unit mm)*
G04 Created by KiCad (PCBNEW 4.0.7-e2-6376~58~ubuntu16.04.1) date Tue Jun  5 12:18:59 2018*
%MOMM*%
%LPD*%
G01*
G04 APERTURE LIST*
%ADD10C,0.100000*%
%ADD11C,2.501900*%
%ADD12C,1.050000*%
%ADD13O,1.350000X1.050000*%
%ADD14R,0.700000X1.100000*%
%ADD15C,2.650000*%
%ADD16C,4.387800*%
%ADD17C,2.305000*%
%ADD18R,2.305000X2.305000*%
%ADD19C,2.150000*%
%ADD20C,3.448000*%
%ADD21R,1.300000X0.900000*%
%ADD22R,0.900000X1.300000*%
%ADD23R,1.700000X1.100000*%
%ADD24R,1.600000X1.300000*%
%ADD25R,1.300000X1.600000*%
%ADD26R,1.550000X1.400000*%
%ADD27O,2.299920X0.806400*%
%ADD28O,0.806400X2.299920*%
%ADD29R,1.400000X2.100000*%
%ADD30R,1.100000X1.000000*%
%ADD31R,1.100000X1.400000*%
%ADD32R,1.200000X1.150000*%
%ADD33R,1.150000X1.200000*%
%ADD34R,2.100000X2.100000*%
%ADD35O,2.100000X2.100000*%
%ADD36R,0.740000X1.440000*%
%ADD37C,7.401300*%
%ADD38C,7.400240*%
%ADD39C,1.400000*%
G04 APERTURE END LIST*
D10*
D11*
X360156250Y-106561550D02*
X363956250Y-106561550D01*
X357505300Y-109212500D02*
G75*
G02X360156250Y-106561550I2650950J0D01*
G01*
X360156250Y-111863450D02*
G75*
G02X357505300Y-109212500I0J2650950D01*
G01*
X360156250Y-111863450D02*
X364006250Y-111863450D01*
X78956250Y-106561550D02*
X82756250Y-106561550D01*
X85407200Y-109212500D02*
G75*
G03X82756250Y-106561550I-2650950J0D01*
G01*
X82756250Y-111863450D02*
G75*
G03X85407200Y-109212500I0J2650950D01*
G01*
X78956250Y-111863450D02*
X82756250Y-111863450D01*
D12*
X93560800Y-59676400D03*
D13*
X100760800Y-59676400D03*
D14*
X97160800Y-58636400D03*
X96660800Y-58636400D03*
X96160800Y-58636400D03*
X95660800Y-58636400D03*
X95160800Y-58636400D03*
X94660800Y-58636400D03*
X94160800Y-58636400D03*
X97660800Y-58636400D03*
X98160800Y-58636400D03*
X99160800Y-58636400D03*
X98660800Y-58636400D03*
X99660800Y-58636400D03*
X98410800Y-60336400D03*
X97910800Y-60336400D03*
X97410800Y-60336400D03*
X96910800Y-60336400D03*
X96410800Y-60336400D03*
X98910800Y-60336400D03*
X99410800Y-60336400D03*
X99910800Y-60336400D03*
X95910800Y-60336400D03*
X95410800Y-60336400D03*
X94910800Y-60336400D03*
X94410800Y-60336400D03*
D15*
X357505000Y-93027500D03*
D16*
X352425000Y-90487500D03*
D15*
X354965000Y-86677500D03*
D17*
X347345000Y-89217500D03*
D18*
X347345000Y-91757500D03*
D19*
X352425000Y-85407500D03*
X352425000Y-95567500D03*
D20*
X359410000Y-102425500D03*
X359410000Y-78549500D03*
D16*
X344170000Y-102425500D03*
X344170000Y-78549500D03*
D21*
X346710000Y-146038000D03*
X346710000Y-144538000D03*
X332105000Y-144157000D03*
X332105000Y-145657000D03*
X313134375Y-144815625D03*
X313134375Y-143315625D03*
X309562500Y-144815625D03*
X309562500Y-143315625D03*
X285750000Y-144815625D03*
X285750000Y-143315625D03*
X238125000Y-143625000D03*
X238125000Y-142125000D03*
X200025000Y-144815625D03*
X200025000Y-143315625D03*
X196646800Y-144844200D03*
X196646800Y-143344200D03*
X133350000Y-144815625D03*
X133350000Y-143315625D03*
X109537500Y-144815625D03*
X109537500Y-143315625D03*
X85725000Y-144815625D03*
X85725000Y-143315625D03*
D22*
X354056250Y-127396875D03*
X355556250Y-127396875D03*
D21*
X333375000Y-125765625D03*
X333375000Y-124265625D03*
X297656250Y-125765625D03*
X297656250Y-124265625D03*
X278606250Y-125765625D03*
X278606250Y-124265625D03*
X259556250Y-125765625D03*
X259556250Y-124265625D03*
X240506250Y-125765625D03*
X240506250Y-124265625D03*
X221456250Y-125765625D03*
X221456250Y-124265625D03*
X202406250Y-125765625D03*
X202406250Y-124265625D03*
X183356250Y-125765625D03*
X183356250Y-124265625D03*
X164306250Y-125765625D03*
X164306250Y-124265625D03*
X145256250Y-125765625D03*
X145256250Y-124265625D03*
X126206250Y-125765625D03*
X126206250Y-124265625D03*
X107156250Y-125765625D03*
X107156250Y-124265625D03*
X85725000Y-123384375D03*
X85725000Y-121884375D03*
X338137500Y-106715625D03*
X338137500Y-105215625D03*
X326231250Y-106715625D03*
X326231250Y-105215625D03*
X307181250Y-106715625D03*
X307181250Y-105215625D03*
X288131250Y-106715625D03*
X288131250Y-105215625D03*
X269081250Y-106715625D03*
X269081250Y-105215625D03*
X250031250Y-106715625D03*
X250031250Y-105215625D03*
X230981250Y-106715625D03*
X230981250Y-105215625D03*
X211931250Y-106715625D03*
X211931250Y-105215625D03*
X192881250Y-106715625D03*
X192881250Y-105215625D03*
X173831250Y-106715625D03*
X173831250Y-105215625D03*
X154781250Y-106715625D03*
X154781250Y-105215625D03*
X135731250Y-106715625D03*
X135731250Y-105215625D03*
X116681250Y-106715625D03*
X116681250Y-105215625D03*
X86915625Y-104334375D03*
X86915625Y-102834375D03*
X345281250Y-87665625D03*
X345281250Y-86165625D03*
X321468750Y-87665625D03*
X321468750Y-86165625D03*
X302418750Y-87665625D03*
X302418750Y-86165625D03*
X283368750Y-87665625D03*
X283368750Y-86165625D03*
X264318750Y-87665625D03*
X264318750Y-86165625D03*
X245268750Y-87665625D03*
X245268750Y-86165625D03*
X226218750Y-87665625D03*
X226218750Y-86165625D03*
X150018750Y-87665625D03*
X150018750Y-86165625D03*
X130968750Y-87665625D03*
X130968750Y-86165625D03*
X111918750Y-85284375D03*
X111918750Y-83784375D03*
X88106250Y-87665625D03*
X88106250Y-86165625D03*
X350043750Y-68615625D03*
X350043750Y-67115625D03*
X329803125Y-68615625D03*
X329803125Y-67115625D03*
X311943750Y-68615625D03*
X311943750Y-67115625D03*
X292893750Y-68615625D03*
X292893750Y-67115625D03*
X273843750Y-68615625D03*
X273843750Y-67115625D03*
X254793750Y-68615625D03*
X254793750Y-67115625D03*
X235743750Y-68615625D03*
X235743750Y-67115625D03*
X216693750Y-68615625D03*
X216693750Y-67115625D03*
X197643750Y-68615625D03*
X197643750Y-67115625D03*
X178593750Y-68615625D03*
X178593750Y-67115625D03*
X159543750Y-68615625D03*
X159543750Y-67115625D03*
X140493750Y-68615625D03*
X140493750Y-67115625D03*
X121443750Y-68615625D03*
X121443750Y-67115625D03*
X102393750Y-68615625D03*
X102393750Y-67115625D03*
X83343750Y-68615625D03*
X83343750Y-67115625D03*
D23*
X93200000Y-66000000D03*
X93200000Y-64100000D03*
D15*
X178752500Y-133032500D03*
D16*
X176212500Y-138112500D03*
D15*
X172402500Y-135572500D03*
D17*
X177482500Y-143192500D03*
D18*
X174942500Y-143192500D03*
D19*
X171132500Y-138112500D03*
X181292500Y-138112500D03*
D20*
X164274500Y-145097500D03*
X188150500Y-145097500D03*
D16*
X164274500Y-129857500D03*
X188150500Y-129857500D03*
D15*
X245427500Y-133032500D03*
D16*
X242887500Y-138112500D03*
D15*
X239077500Y-135572500D03*
D17*
X244157500Y-143192500D03*
D18*
X241617500Y-143192500D03*
D19*
X237807500Y-138112500D03*
X247967500Y-138112500D03*
D20*
X230949500Y-145097500D03*
X254825500Y-145097500D03*
D16*
X230949500Y-129857500D03*
X254825500Y-129857500D03*
D24*
X360759375Y-135000000D03*
X360759375Y-131700000D03*
X341709375Y-135000000D03*
X341709375Y-131700000D03*
X322659375Y-132618750D03*
X322659375Y-129318750D03*
X290512500Y-133809375D03*
X290512500Y-130509375D03*
X286940625Y-133809375D03*
X286940625Y-130509375D03*
X234553125Y-139762500D03*
X234553125Y-136462500D03*
X229790625Y-139762500D03*
X229790625Y-136462500D03*
X189309375Y-138571875D03*
X189309375Y-135271875D03*
X148828125Y-138571875D03*
X148828125Y-135271875D03*
X125015625Y-138571875D03*
X125015625Y-135271875D03*
X101701600Y-135152400D03*
X101701600Y-131852400D03*
X360759375Y-125475000D03*
X360759375Y-122175000D03*
X346471875Y-119521875D03*
X346471875Y-116221875D03*
X310753125Y-119521875D03*
X310753125Y-116221875D03*
X291703125Y-119521875D03*
X291703125Y-116221875D03*
X272653125Y-119521875D03*
X272653125Y-116221875D03*
X253603125Y-119521875D03*
X253603125Y-116221875D03*
X234553125Y-119521875D03*
X234553125Y-116221875D03*
X215503125Y-119521875D03*
X215503125Y-116221875D03*
X196453125Y-119521875D03*
X196453125Y-116221875D03*
X177403125Y-119521875D03*
X177403125Y-116221875D03*
X158353125Y-119521875D03*
X158353125Y-116221875D03*
X139303125Y-119521875D03*
X139303125Y-116221875D03*
X120253125Y-119521875D03*
X120253125Y-116221875D03*
X82153125Y-119521875D03*
X82153125Y-116221875D03*
X351234375Y-101662500D03*
X351234375Y-98362500D03*
X338137500Y-94518750D03*
X338137500Y-91218750D03*
X320278125Y-100471875D03*
X320278125Y-97171875D03*
X301228125Y-100471875D03*
X301228125Y-97171875D03*
X282178125Y-100471875D03*
X282178125Y-97171875D03*
X263128125Y-100471875D03*
X263128125Y-97171875D03*
X244078125Y-100471875D03*
X244078125Y-97171875D03*
X225028125Y-100471875D03*
X225028125Y-97171875D03*
X189801500Y-100469700D03*
X189801500Y-97169700D03*
X186928125Y-100471875D03*
X186928125Y-97171875D03*
X167878125Y-100471875D03*
X167878125Y-97171875D03*
X148828125Y-100471875D03*
X148828125Y-97171875D03*
X129778125Y-100471875D03*
X129778125Y-97171875D03*
X100012500Y-106425000D03*
X100012500Y-103125000D03*
X355996875Y-77850000D03*
X355996875Y-74550000D03*
X333375000Y-79040625D03*
X333375000Y-75740625D03*
X315515625Y-81421875D03*
X315515625Y-78121875D03*
X296465625Y-81421875D03*
X296465625Y-78121875D03*
X277415625Y-81421875D03*
X277415625Y-78121875D03*
X258365625Y-81421875D03*
X258365625Y-78121875D03*
X239315625Y-81421875D03*
X239315625Y-78121875D03*
X220265625Y-81421875D03*
X220265625Y-78121875D03*
X201215625Y-81421875D03*
X201215625Y-78121875D03*
X182165625Y-81421875D03*
X182165625Y-78121875D03*
X163115625Y-81421875D03*
X163115625Y-78121875D03*
X144065625Y-81421875D03*
X144065625Y-78121875D03*
X125015625Y-81421875D03*
X125015625Y-78121875D03*
X84534375Y-77850000D03*
X84534375Y-74550000D03*
X360759375Y-58800000D03*
X360759375Y-55500000D03*
X344678000Y-58800000D03*
X344678000Y-55500000D03*
X325040625Y-62371875D03*
X325040625Y-59071875D03*
X305990625Y-62371875D03*
X305990625Y-59071875D03*
X286940625Y-62371875D03*
X286940625Y-59071875D03*
X267890625Y-62371875D03*
X267890625Y-59071875D03*
X248840625Y-62371875D03*
X248840625Y-59071875D03*
X229790625Y-62371875D03*
X229790625Y-59071875D03*
X210740625Y-62371875D03*
X210740625Y-59071875D03*
X191690625Y-62371875D03*
X191690625Y-59071875D03*
X172640625Y-62371875D03*
X172640625Y-59071875D03*
X153590625Y-62371875D03*
X153590625Y-59071875D03*
X134540625Y-62371875D03*
X134540625Y-59071875D03*
X115490625Y-62371875D03*
X115490625Y-59071875D03*
D25*
X83186000Y-55880000D03*
X86486000Y-55880000D03*
D26*
X123610400Y-87361800D03*
X125360400Y-87361800D03*
X125360400Y-88761800D03*
X123610400Y-88761800D03*
D27*
X102631875Y-94059375D03*
X102631875Y-93259275D03*
X102631875Y-92459175D03*
X102631875Y-91659075D03*
X102631875Y-90858975D03*
X102631875Y-90058875D03*
X102631875Y-94859475D03*
X102631875Y-95659575D03*
X102631875Y-96459675D03*
X102631875Y-97259775D03*
X102631875Y-98059875D03*
X114061875Y-94059375D03*
X114061875Y-93259275D03*
X114061875Y-92459175D03*
X114061875Y-91659075D03*
X114061875Y-90858975D03*
X114061875Y-90058875D03*
X114061875Y-94859475D03*
X114061875Y-95659575D03*
X114061875Y-96459675D03*
X114061875Y-97259775D03*
X114061875Y-98059875D03*
D28*
X108346875Y-88344375D03*
X108346875Y-99774375D03*
X109146975Y-88344375D03*
X109146975Y-99774375D03*
X109947075Y-99774375D03*
X109947075Y-88344375D03*
X110747175Y-88344375D03*
X110747175Y-99774375D03*
X111547275Y-99774375D03*
X111547275Y-88344375D03*
X112347375Y-88344375D03*
X112347375Y-99774375D03*
X107546775Y-99774375D03*
X107546775Y-88344375D03*
X106746675Y-88344375D03*
X106746675Y-99774375D03*
X105946575Y-99774375D03*
X105946575Y-88344375D03*
X105146475Y-88344375D03*
X105146475Y-99774375D03*
X104346375Y-99774375D03*
X104346375Y-88344375D03*
D29*
X105161000Y-107594000D03*
X105161000Y-113894000D03*
X108961000Y-107594000D03*
X108961000Y-113894000D03*
D22*
X105750000Y-56250000D03*
X104250000Y-56250000D03*
D21*
X91033600Y-59143200D03*
X91033600Y-60643200D03*
X96100000Y-69250000D03*
X96100000Y-67750000D03*
X98250000Y-69250000D03*
X98250000Y-67750000D03*
D22*
X119114000Y-89154000D03*
X117614000Y-89154000D03*
X104334375Y-103584375D03*
X102834375Y-103584375D03*
X107454000Y-104140000D03*
X108954000Y-104140000D03*
D21*
X207168750Y-87665625D03*
X207168750Y-86165625D03*
X188118750Y-87665625D03*
X188118750Y-86165625D03*
X169068750Y-87665625D03*
X169068750Y-86165625D03*
D15*
X93027500Y-94932500D03*
D16*
X90487500Y-100012500D03*
D15*
X86677500Y-97472500D03*
D17*
X91757500Y-105092500D03*
D18*
X89217500Y-105092500D03*
D19*
X85407500Y-100012500D03*
X95567500Y-100012500D03*
D15*
X97790000Y-94932500D03*
D16*
X95250000Y-100012500D03*
D15*
X91440000Y-97472500D03*
D17*
X93980000Y-105092500D03*
D18*
X96520000Y-105092500D03*
D19*
X90170000Y-100012500D03*
X100330000Y-100012500D03*
D30*
X96150000Y-65200000D03*
X98150000Y-65200000D03*
X96150000Y-63300000D03*
D31*
X98150000Y-63500000D03*
D32*
X98071875Y-88106250D03*
X99571875Y-88106250D03*
X115000000Y-102300000D03*
X113500000Y-102300000D03*
X98071875Y-97631250D03*
X99571875Y-97631250D03*
D33*
X98821875Y-92428125D03*
X98821875Y-90928125D03*
D32*
X118352000Y-91440000D03*
X116852000Y-91440000D03*
D33*
X109537500Y-83784375D03*
X109537500Y-85284375D03*
D32*
X125260800Y-85877400D03*
X123760800Y-85877400D03*
X123786200Y-90271600D03*
X125286200Y-90271600D03*
D15*
X354965000Y-133032500D03*
D16*
X352425000Y-138112500D03*
D15*
X348615000Y-135572500D03*
D17*
X353695000Y-143192500D03*
D18*
X351155000Y-143192500D03*
D19*
X347345000Y-138112500D03*
X357505000Y-138112500D03*
D15*
X331152500Y-133032500D03*
D16*
X328612500Y-138112500D03*
D15*
X324802500Y-135572500D03*
D17*
X329882500Y-143192500D03*
D18*
X327342500Y-143192500D03*
D19*
X323532500Y-138112500D03*
X333692500Y-138112500D03*
D15*
X304958750Y-133032500D03*
D16*
X302418750Y-138112500D03*
D15*
X298608750Y-135572500D03*
D17*
X303688750Y-143192500D03*
D18*
X301148750Y-143192500D03*
D19*
X297338750Y-138112500D03*
X307498750Y-138112500D03*
D15*
X216852500Y-133032500D03*
D16*
X214312500Y-138112500D03*
D15*
X210502500Y-135572500D03*
D17*
X215582500Y-143192500D03*
D18*
X213042500Y-143192500D03*
D19*
X209232500Y-138112500D03*
X219392500Y-138112500D03*
D15*
X140652500Y-133032500D03*
D16*
X138112500Y-138112500D03*
D15*
X134302500Y-135572500D03*
D17*
X139382500Y-143192500D03*
D18*
X136842500Y-143192500D03*
D19*
X133032500Y-138112500D03*
X143192500Y-138112500D03*
D15*
X116840000Y-133032500D03*
D16*
X114300000Y-138112500D03*
D15*
X110490000Y-135572500D03*
D17*
X115570000Y-143192500D03*
D18*
X113030000Y-143192500D03*
D19*
X109220000Y-138112500D03*
X119380000Y-138112500D03*
D15*
X264477500Y-133032500D03*
D16*
X261937500Y-138112500D03*
D15*
X258127500Y-135572500D03*
D17*
X260667500Y-143192500D03*
D18*
X263207500Y-143192500D03*
D19*
X256857500Y-138112500D03*
X267017500Y-138112500D03*
D20*
X249999500Y-145097500D03*
X273875500Y-145097500D03*
D16*
X249999500Y-129857500D03*
X273875500Y-129857500D03*
D15*
X223996250Y-133032500D03*
D16*
X221456250Y-138112500D03*
D15*
X217646250Y-135572500D03*
D17*
X220186250Y-143192500D03*
D18*
X222726250Y-143192500D03*
D19*
X216376250Y-138112500D03*
X226536250Y-138112500D03*
D15*
X183515000Y-133032500D03*
D16*
X180975000Y-138112500D03*
D15*
X177165000Y-135572500D03*
D17*
X179705000Y-143192500D03*
D18*
X182245000Y-143192500D03*
D19*
X175895000Y-138112500D03*
X186055000Y-138112500D03*
D20*
X169037000Y-145097500D03*
X192913000Y-145097500D03*
D16*
X169037000Y-129857500D03*
X192913000Y-129857500D03*
D15*
X352583750Y-133032500D03*
D16*
X350043750Y-138112500D03*
D15*
X346233750Y-135572500D03*
D17*
X348773750Y-143192500D03*
D18*
X351313750Y-143192500D03*
D19*
X344963750Y-138112500D03*
X355123750Y-138112500D03*
D15*
X328771250Y-133032500D03*
D16*
X326231250Y-138112500D03*
D15*
X322421250Y-135572500D03*
D17*
X324961250Y-143192500D03*
D18*
X327501250Y-143192500D03*
D19*
X321151250Y-138112500D03*
X331311250Y-138112500D03*
D15*
X223996250Y-133032500D03*
D16*
X221456250Y-138112500D03*
D15*
X217646250Y-135572500D03*
D17*
X220186250Y-143192500D03*
D18*
X222726250Y-143192500D03*
D19*
X216376250Y-138112500D03*
X226536250Y-138112500D03*
D20*
X164306250Y-145097500D03*
X278606250Y-145097500D03*
D16*
X164306250Y-129857500D03*
X278606250Y-129857500D03*
D15*
X143033750Y-133032500D03*
D16*
X140493750Y-138112500D03*
D15*
X136683750Y-135572500D03*
D17*
X139223750Y-143192500D03*
D18*
X141763750Y-143192500D03*
D19*
X135413750Y-138112500D03*
X145573750Y-138112500D03*
D15*
X119221250Y-133032500D03*
D16*
X116681250Y-138112500D03*
D15*
X112871250Y-135572500D03*
D17*
X115411250Y-143192500D03*
D18*
X117951250Y-143192500D03*
D19*
X111601250Y-138112500D03*
X121761250Y-138112500D03*
D15*
X250190000Y-133032500D03*
D16*
X247650000Y-138112500D03*
D15*
X243840000Y-135572500D03*
D17*
X246380000Y-143192500D03*
D18*
X248920000Y-143192500D03*
D19*
X242570000Y-138112500D03*
X252730000Y-138112500D03*
D20*
X235712000Y-145097500D03*
X259588000Y-145097500D03*
D16*
X235712000Y-129857500D03*
X259588000Y-129857500D03*
D15*
X357346250Y-133032500D03*
D16*
X354806250Y-138112500D03*
D15*
X350996250Y-135572500D03*
D17*
X353536250Y-143192500D03*
D18*
X356076250Y-143192500D03*
D19*
X349726250Y-138112500D03*
X359886250Y-138112500D03*
D15*
X338296250Y-133032500D03*
D16*
X335756250Y-138112500D03*
D15*
X331946250Y-135572500D03*
D17*
X334486250Y-143192500D03*
D18*
X337026250Y-143192500D03*
D19*
X330676250Y-138112500D03*
X340836250Y-138112500D03*
D15*
X300196250Y-133032500D03*
D16*
X297656250Y-138112500D03*
D15*
X293846250Y-135572500D03*
D17*
X296386250Y-143192500D03*
D18*
X298926250Y-143192500D03*
D19*
X292576250Y-138112500D03*
X302736250Y-138112500D03*
D15*
X281146250Y-133032500D03*
D16*
X278606250Y-138112500D03*
D15*
X274796250Y-135572500D03*
D17*
X277336250Y-143192500D03*
D18*
X279876250Y-143192500D03*
D19*
X273526250Y-138112500D03*
X283686250Y-138112500D03*
D15*
X283527500Y-133032500D03*
D16*
X280987500Y-138112500D03*
D15*
X277177500Y-135572500D03*
D17*
X282257500Y-143192500D03*
D18*
X279717500Y-143192500D03*
D19*
X275907500Y-138112500D03*
X286067500Y-138112500D03*
D15*
X207327500Y-133032500D03*
D16*
X204787500Y-138112500D03*
D15*
X200977500Y-135572500D03*
D17*
X206057500Y-143192500D03*
D18*
X203517500Y-143192500D03*
D19*
X199707500Y-138112500D03*
X209867500Y-138112500D03*
D15*
X173990000Y-133032500D03*
D16*
X171450000Y-138112500D03*
D15*
X167640000Y-135572500D03*
D17*
X170180000Y-143192500D03*
D18*
X172720000Y-143192500D03*
D19*
X166370000Y-138112500D03*
X176530000Y-138112500D03*
D20*
X159512000Y-145097500D03*
X183388000Y-145097500D03*
D16*
X159512000Y-129857500D03*
X183388000Y-129857500D03*
D15*
X307340000Y-133032500D03*
D16*
X304800000Y-138112500D03*
D15*
X300990000Y-135572500D03*
D17*
X303530000Y-143192500D03*
D18*
X306070000Y-143192500D03*
D19*
X299720000Y-138112500D03*
X309880000Y-138112500D03*
D15*
X212090000Y-133032500D03*
D16*
X209550000Y-138112500D03*
D15*
X205740000Y-135572500D03*
D17*
X208280000Y-143192500D03*
D18*
X210820000Y-143192500D03*
D19*
X204470000Y-138112500D03*
X214630000Y-138112500D03*
D20*
X159550100Y-145097500D03*
X259549900Y-145097500D03*
D16*
X159550100Y-129857500D03*
X259549900Y-129857500D03*
D34*
X125704600Y-72517000D03*
D35*
X123164600Y-72517000D03*
X120624600Y-72517000D03*
X118084600Y-72517000D03*
X115544600Y-72517000D03*
X113004600Y-72517000D03*
D15*
X119221250Y-75882500D03*
D16*
X116681250Y-80962500D03*
D15*
X112871250Y-78422500D03*
D17*
X117951250Y-86042500D03*
D18*
X115411250Y-86042500D03*
D19*
X111601250Y-80962500D03*
X121761250Y-80962500D03*
D15*
X281146250Y-56832500D03*
D16*
X278606250Y-61912500D03*
D15*
X274796250Y-59372500D03*
D17*
X279876250Y-66992500D03*
D18*
X277336250Y-66992500D03*
D19*
X273526250Y-61912500D03*
X283686250Y-61912500D03*
D15*
X109696250Y-56832500D03*
D16*
X107156250Y-61912500D03*
D15*
X103346250Y-59372500D03*
D17*
X108426250Y-66992500D03*
D18*
X105886250Y-66992500D03*
D19*
X102076250Y-61912500D03*
X112236250Y-61912500D03*
D15*
X128746250Y-56832500D03*
D16*
X126206250Y-61912500D03*
D15*
X122396250Y-59372500D03*
D17*
X127476250Y-66992500D03*
D18*
X124936250Y-66992500D03*
D19*
X121126250Y-61912500D03*
X131286250Y-61912500D03*
D15*
X147796250Y-56832500D03*
D16*
X145256250Y-61912500D03*
D15*
X141446250Y-59372500D03*
D17*
X146526250Y-66992500D03*
D18*
X143986250Y-66992500D03*
D19*
X140176250Y-61912500D03*
X150336250Y-61912500D03*
D15*
X166846250Y-56832500D03*
D16*
X164306250Y-61912500D03*
D15*
X160496250Y-59372500D03*
D17*
X165576250Y-66992500D03*
D18*
X163036250Y-66992500D03*
D19*
X159226250Y-61912500D03*
X169386250Y-61912500D03*
D15*
X185896250Y-56832500D03*
D16*
X183356250Y-61912500D03*
D15*
X179546250Y-59372500D03*
D17*
X184626250Y-66992500D03*
D18*
X182086250Y-66992500D03*
D19*
X178276250Y-61912500D03*
X188436250Y-61912500D03*
D15*
X204946250Y-56832500D03*
D16*
X202406250Y-61912500D03*
D15*
X198596250Y-59372500D03*
D17*
X203676250Y-66992500D03*
D18*
X201136250Y-66992500D03*
D19*
X197326250Y-61912500D03*
X207486250Y-61912500D03*
D15*
X223996250Y-56832500D03*
D16*
X221456250Y-61912500D03*
D15*
X217646250Y-59372500D03*
D17*
X222726250Y-66992500D03*
D18*
X220186250Y-66992500D03*
D19*
X216376250Y-61912500D03*
X226536250Y-61912500D03*
D15*
X243046250Y-56832500D03*
D16*
X240506250Y-61912500D03*
D15*
X236696250Y-59372500D03*
D17*
X241776250Y-66992500D03*
D18*
X239236250Y-66992500D03*
D19*
X235426250Y-61912500D03*
X245586250Y-61912500D03*
D15*
X262096250Y-56832500D03*
D16*
X259556250Y-61912500D03*
D15*
X255746250Y-59372500D03*
D17*
X260826250Y-66992500D03*
D18*
X258286250Y-66992500D03*
D19*
X254476250Y-61912500D03*
X264636250Y-61912500D03*
D15*
X300196250Y-56832500D03*
D16*
X297656250Y-61912500D03*
D15*
X293846250Y-59372500D03*
D17*
X298926250Y-66992500D03*
D18*
X296386250Y-66992500D03*
D19*
X292576250Y-61912500D03*
X302736250Y-61912500D03*
D15*
X319246250Y-56832500D03*
D16*
X316706250Y-61912500D03*
D15*
X312896250Y-59372500D03*
D17*
X317976250Y-66992500D03*
D18*
X315436250Y-66992500D03*
D19*
X311626250Y-61912500D03*
X321786250Y-61912500D03*
D15*
X347821250Y-56832500D03*
D16*
X345281250Y-61912500D03*
D15*
X341471250Y-59372500D03*
D17*
X346551250Y-66992500D03*
D18*
X344011250Y-66992500D03*
D19*
X340201250Y-61912500D03*
X350361250Y-61912500D03*
D20*
X333343250Y-54927500D03*
X357219250Y-54927500D03*
D16*
X333343250Y-70167500D03*
X357219250Y-70167500D03*
D15*
X357346250Y-56832500D03*
D16*
X354806250Y-61912500D03*
D15*
X350996250Y-59372500D03*
D17*
X356076250Y-66992500D03*
D18*
X353536250Y-66992500D03*
D19*
X349726250Y-61912500D03*
X359886250Y-61912500D03*
D15*
X338296250Y-56832500D03*
D16*
X335756250Y-61912500D03*
D15*
X331946250Y-59372500D03*
D17*
X337026250Y-66992500D03*
D18*
X334486250Y-66992500D03*
D19*
X330676250Y-61912500D03*
X340836250Y-61912500D03*
D15*
X90646250Y-56832500D03*
D16*
X88106250Y-61912500D03*
D15*
X84296250Y-59372500D03*
D17*
X89376250Y-66992500D03*
D18*
X86836250Y-66992500D03*
D19*
X83026250Y-61912500D03*
X93186250Y-61912500D03*
D15*
X157321250Y-75882500D03*
D16*
X154781250Y-80962500D03*
D15*
X150971250Y-78422500D03*
D17*
X156051250Y-86042500D03*
D18*
X153511250Y-86042500D03*
D19*
X149701250Y-80962500D03*
X159861250Y-80962500D03*
D15*
X252571250Y-75882500D03*
D16*
X250031250Y-80962500D03*
D15*
X246221250Y-78422500D03*
D17*
X251301250Y-86042500D03*
D18*
X248761250Y-86042500D03*
D19*
X244951250Y-80962500D03*
X255111250Y-80962500D03*
D15*
X271621250Y-75882500D03*
D16*
X269081250Y-80962500D03*
D15*
X265271250Y-78422500D03*
D17*
X270351250Y-86042500D03*
D18*
X267811250Y-86042500D03*
D19*
X264001250Y-80962500D03*
X274161250Y-80962500D03*
D15*
X290671250Y-75882500D03*
D16*
X288131250Y-80962500D03*
D15*
X284321250Y-78422500D03*
D17*
X289401250Y-86042500D03*
D18*
X286861250Y-86042500D03*
D19*
X283051250Y-80962500D03*
X293211250Y-80962500D03*
D15*
X176371250Y-75882500D03*
D16*
X173831250Y-80962500D03*
D15*
X170021250Y-78422500D03*
D17*
X175101250Y-86042500D03*
D18*
X172561250Y-86042500D03*
D19*
X168751250Y-80962500D03*
X178911250Y-80962500D03*
D15*
X195421250Y-75882500D03*
D16*
X192881250Y-80962500D03*
D15*
X189071250Y-78422500D03*
D17*
X194151250Y-86042500D03*
D18*
X191611250Y-86042500D03*
D19*
X187801250Y-80962500D03*
X197961250Y-80962500D03*
D15*
X95408750Y-75882500D03*
D16*
X92868750Y-80962500D03*
D15*
X89058750Y-78422500D03*
D17*
X94138750Y-86042500D03*
D18*
X91598750Y-86042500D03*
D19*
X87788750Y-80962500D03*
X97948750Y-80962500D03*
D15*
X233521250Y-75882500D03*
D16*
X230981250Y-80962500D03*
D15*
X227171250Y-78422500D03*
D17*
X232251250Y-86042500D03*
D18*
X229711250Y-86042500D03*
D19*
X225901250Y-80962500D03*
X236061250Y-80962500D03*
D15*
X138271250Y-75882500D03*
D16*
X135731250Y-80962500D03*
D15*
X131921250Y-78422500D03*
D17*
X137001250Y-86042500D03*
D18*
X134461250Y-86042500D03*
D19*
X130651250Y-80962500D03*
X140811250Y-80962500D03*
D15*
X214471250Y-75882500D03*
D16*
X211931250Y-80962500D03*
D15*
X208121250Y-78422500D03*
D17*
X213201250Y-86042500D03*
D18*
X210661250Y-86042500D03*
D19*
X206851250Y-80962500D03*
X217011250Y-80962500D03*
D15*
X309721250Y-75882500D03*
D16*
X307181250Y-80962500D03*
D15*
X303371250Y-78422500D03*
D17*
X308451250Y-86042500D03*
D18*
X305911250Y-86042500D03*
D19*
X302101250Y-80962500D03*
X312261250Y-80962500D03*
D15*
X352583750Y-75882500D03*
D16*
X350043750Y-80962500D03*
D15*
X346233750Y-78422500D03*
D17*
X351313750Y-86042500D03*
D18*
X348773750Y-86042500D03*
D19*
X344963750Y-80962500D03*
X355123750Y-80962500D03*
D15*
X328771250Y-75882500D03*
D16*
X326231250Y-80962500D03*
D15*
X322421250Y-78422500D03*
D17*
X327501250Y-86042500D03*
D18*
X324961250Y-86042500D03*
D19*
X321151250Y-80962500D03*
X331311250Y-80962500D03*
D15*
X314483750Y-94932500D03*
D16*
X311943750Y-100012500D03*
D15*
X308133750Y-97472500D03*
D17*
X313213750Y-105092500D03*
D18*
X310673750Y-105092500D03*
D19*
X306863750Y-100012500D03*
X317023750Y-100012500D03*
D15*
X295433750Y-94932500D03*
D16*
X292893750Y-100012500D03*
D15*
X289083750Y-97472500D03*
D17*
X294163750Y-105092500D03*
D18*
X291623750Y-105092500D03*
D19*
X287813750Y-100012500D03*
X297973750Y-100012500D03*
D15*
X123983750Y-94932500D03*
D16*
X121443750Y-100012500D03*
D15*
X117633750Y-97472500D03*
D17*
X122713750Y-105092500D03*
D18*
X120173750Y-105092500D03*
D19*
X116363750Y-100012500D03*
X126523750Y-100012500D03*
D15*
X162083750Y-94932500D03*
D16*
X159543750Y-100012500D03*
D15*
X155733750Y-97472500D03*
D17*
X160813750Y-105092500D03*
D18*
X158273750Y-105092500D03*
D19*
X154463750Y-100012500D03*
X164623750Y-100012500D03*
D15*
X345440000Y-94932500D03*
D16*
X342900000Y-100012500D03*
D15*
X339090000Y-97472500D03*
D17*
X344170000Y-105092500D03*
D18*
X341630000Y-105092500D03*
D19*
X337820000Y-100012500D03*
X347980000Y-100012500D03*
D20*
X330962000Y-93027500D03*
X354838000Y-93027500D03*
D16*
X330962000Y-108267500D03*
X354838000Y-108267500D03*
D15*
X181133750Y-94932500D03*
D16*
X178593750Y-100012500D03*
D15*
X174783750Y-97472500D03*
D17*
X179863750Y-105092500D03*
D18*
X177323750Y-105092500D03*
D19*
X173513750Y-100012500D03*
X183673750Y-100012500D03*
D15*
X200183750Y-94932500D03*
D16*
X197643750Y-100012500D03*
D15*
X193833750Y-97472500D03*
D17*
X198913750Y-105092500D03*
D18*
X196373750Y-105092500D03*
D19*
X192563750Y-100012500D03*
X202723750Y-100012500D03*
D15*
X219233750Y-94932500D03*
D16*
X216693750Y-100012500D03*
D15*
X212883750Y-97472500D03*
D17*
X217963750Y-105092500D03*
D18*
X215423750Y-105092500D03*
D19*
X211613750Y-100012500D03*
X221773750Y-100012500D03*
D15*
X333533750Y-94932500D03*
D16*
X330993750Y-100012500D03*
D15*
X327183750Y-97472500D03*
D17*
X332263750Y-105092500D03*
D18*
X329723750Y-105092500D03*
D19*
X325913750Y-100012500D03*
X336073750Y-100012500D03*
D15*
X238283750Y-94932500D03*
D16*
X235743750Y-100012500D03*
D15*
X231933750Y-97472500D03*
D17*
X237013750Y-105092500D03*
D18*
X234473750Y-105092500D03*
D19*
X230663750Y-100012500D03*
X240823750Y-100012500D03*
D15*
X257333750Y-94932500D03*
D16*
X254793750Y-100012500D03*
D15*
X250983750Y-97472500D03*
D17*
X256063750Y-105092500D03*
D18*
X253523750Y-105092500D03*
D19*
X249713750Y-100012500D03*
X259873750Y-100012500D03*
D15*
X276383750Y-94932500D03*
D16*
X273843750Y-100012500D03*
D15*
X270033750Y-97472500D03*
D17*
X275113750Y-105092500D03*
D18*
X272573750Y-105092500D03*
D19*
X268763750Y-100012500D03*
X278923750Y-100012500D03*
D15*
X143033750Y-94932500D03*
D16*
X140493750Y-100012500D03*
D15*
X136683750Y-97472500D03*
D17*
X141763750Y-105092500D03*
D18*
X139223750Y-105092500D03*
D19*
X135413750Y-100012500D03*
X145573750Y-100012500D03*
D15*
X266858750Y-113982500D03*
D16*
X264318750Y-119062500D03*
D15*
X260508750Y-116522500D03*
D17*
X265588750Y-124142500D03*
D18*
X263048750Y-124142500D03*
D19*
X259238750Y-119062500D03*
X269398750Y-119062500D03*
D15*
X285908750Y-113982500D03*
D16*
X283368750Y-119062500D03*
D15*
X279558750Y-116522500D03*
D17*
X284638750Y-124142500D03*
D18*
X282098750Y-124142500D03*
D19*
X278288750Y-119062500D03*
X288448750Y-119062500D03*
D15*
X304958750Y-113982500D03*
D16*
X302418750Y-119062500D03*
D15*
X298608750Y-116522500D03*
D17*
X303688750Y-124142500D03*
D18*
X301148750Y-124142500D03*
D19*
X297338750Y-119062500D03*
X307498750Y-119062500D03*
D15*
X209708750Y-113982500D03*
D16*
X207168750Y-119062500D03*
D15*
X203358750Y-116522500D03*
D17*
X208438750Y-124142500D03*
D18*
X205898750Y-124142500D03*
D19*
X202088750Y-119062500D03*
X212248750Y-119062500D03*
D15*
X171608750Y-113982500D03*
D16*
X169068750Y-119062500D03*
D15*
X165258750Y-116522500D03*
D17*
X170338750Y-124142500D03*
D18*
X167798750Y-124142500D03*
D19*
X163988750Y-119062500D03*
X174148750Y-119062500D03*
D15*
X357346250Y-113982500D03*
D16*
X354806250Y-119062500D03*
D15*
X350996250Y-116522500D03*
D17*
X356076250Y-124142500D03*
D18*
X353536250Y-124142500D03*
D19*
X349726250Y-119062500D03*
X359886250Y-119062500D03*
D15*
X114458750Y-113982500D03*
D16*
X111918750Y-119062500D03*
D15*
X108108750Y-116522500D03*
D17*
X113188750Y-124142500D03*
D18*
X110648750Y-124142500D03*
D19*
X106838750Y-119062500D03*
X116998750Y-119062500D03*
D15*
X102552500Y-113982500D03*
D16*
X100012500Y-119062500D03*
D15*
X96202500Y-116522500D03*
D17*
X101282500Y-124142500D03*
D18*
X98742500Y-124142500D03*
D19*
X94932500Y-119062500D03*
X105092500Y-119062500D03*
D20*
X88074500Y-112077500D03*
X111950500Y-112077500D03*
D16*
X88074500Y-127317500D03*
X111950500Y-127317500D03*
D15*
X93027500Y-113982500D03*
D16*
X90487500Y-119062500D03*
D15*
X86677500Y-116522500D03*
D17*
X91757500Y-124142500D03*
D18*
X89217500Y-124142500D03*
D19*
X85407500Y-119062500D03*
X95567500Y-119062500D03*
D15*
X247808750Y-113982500D03*
D16*
X245268750Y-119062500D03*
D15*
X241458750Y-116522500D03*
D17*
X246538750Y-124142500D03*
D18*
X243998750Y-124142500D03*
D19*
X240188750Y-119062500D03*
X250348750Y-119062500D03*
D15*
X228758750Y-113982500D03*
D16*
X226218750Y-119062500D03*
D15*
X222408750Y-116522500D03*
D17*
X227488750Y-124142500D03*
D18*
X224948750Y-124142500D03*
D19*
X221138750Y-119062500D03*
X231298750Y-119062500D03*
D15*
X340677500Y-113982500D03*
D16*
X338137500Y-119062500D03*
D15*
X334327500Y-116522500D03*
D17*
X339407500Y-124142500D03*
D18*
X336867500Y-124142500D03*
D19*
X333057500Y-119062500D03*
X343217500Y-119062500D03*
D20*
X326199500Y-112077500D03*
X350075500Y-112077500D03*
D16*
X326199500Y-127317500D03*
X350075500Y-127317500D03*
D15*
X331152500Y-113982500D03*
D16*
X328612500Y-119062500D03*
D15*
X324802500Y-116522500D03*
D17*
X329882500Y-124142500D03*
D18*
X327342500Y-124142500D03*
D19*
X323532500Y-119062500D03*
X333692500Y-119062500D03*
D15*
X190658750Y-113982500D03*
D16*
X188118750Y-119062500D03*
D15*
X184308750Y-116522500D03*
D17*
X189388750Y-124142500D03*
D18*
X186848750Y-124142500D03*
D19*
X183038750Y-119062500D03*
X193198750Y-119062500D03*
D15*
X152558750Y-113982500D03*
D16*
X150018750Y-119062500D03*
D15*
X146208750Y-116522500D03*
D17*
X151288750Y-124142500D03*
D18*
X148748750Y-124142500D03*
D19*
X144938750Y-119062500D03*
X155098750Y-119062500D03*
D15*
X133508750Y-113982500D03*
D16*
X130968750Y-119062500D03*
D15*
X127158750Y-116522500D03*
D17*
X132238750Y-124142500D03*
D18*
X129698750Y-124142500D03*
D19*
X125888750Y-119062500D03*
X136048750Y-119062500D03*
D15*
X319246250Y-133032500D03*
D16*
X316706250Y-138112500D03*
D15*
X312896250Y-135572500D03*
D17*
X317976250Y-143192500D03*
D18*
X315436250Y-143192500D03*
D19*
X311626250Y-138112500D03*
X321786250Y-138112500D03*
D36*
X100076000Y-111286000D03*
X101026000Y-109186000D03*
X99126000Y-109186000D03*
D15*
X93027500Y-133032500D03*
D16*
X90487500Y-138112500D03*
D15*
X86677500Y-135572500D03*
D17*
X91757500Y-143192500D03*
D18*
X89217500Y-143192500D03*
D19*
X85407500Y-138112500D03*
X95567500Y-138112500D03*
D15*
X95408750Y-133032500D03*
D16*
X92868750Y-138112500D03*
D15*
X89058750Y-135572500D03*
D17*
X91598750Y-143192500D03*
D18*
X94138750Y-143192500D03*
D19*
X87788750Y-138112500D03*
X97948750Y-138112500D03*
D37*
X104156250Y-80612500D03*
D38*
X207156250Y-99712500D03*
X269456250Y-137912500D03*
X339006250Y-80612500D03*
D39*
X104156250Y-78312500D03*
X101856250Y-80612500D03*
X106456250Y-80612500D03*
X104156250Y-82912500D03*
X102529904Y-78986154D03*
X105782596Y-78986154D03*
X102529904Y-82238846D03*
X105782596Y-82238846D03*
X339006250Y-78312500D03*
X339006250Y-82912500D03*
X340206250Y-82912500D03*
X337806250Y-82912500D03*
X337806250Y-78312500D03*
X340206250Y-78295500D03*
X269456250Y-135612500D03*
X269456250Y-140212500D03*
X270656250Y-135612500D03*
X268256250Y-135612500D03*
X268256250Y-140212500D03*
X270656250Y-140212500D03*
X207156250Y-97412500D03*
X208356250Y-97412500D03*
X205956250Y-97412500D03*
X207156250Y-102012500D03*
X205956250Y-102012500D03*
X208356250Y-102012500D03*
X85356250Y-109212500D03*
X82756250Y-106612500D03*
X82756250Y-111812500D03*
X84594728Y-107374022D03*
X84594728Y-111050978D03*
X80714215Y-106612500D03*
X80714215Y-111812500D03*
X357556250Y-109212500D03*
X358317772Y-107374022D03*
X360156250Y-106612500D03*
X362198285Y-106612500D03*
X362198285Y-111812500D03*
X360156250Y-111812500D03*
X358317772Y-111050978D03*
M02*
