G04 #@! TF.GenerationSoftware,KiCad,Pcbnew,5.0.0-fee4fd1~66~ubuntu16.04.1*
G04 #@! TF.CreationDate,2018-09-14T21:54:44-04:00*
G04 #@! TF.ProjectId,co60,636F36302E6B696361645F7063620000,rev?*
G04 #@! TF.SameCoordinates,PX4b4f718PY8c7ecc0*
G04 #@! TF.FileFunction,Legend,Top*
G04 #@! TF.FilePolarity,Positive*
%FSLAX46Y46*%
G04 Gerber Fmt 4.6, Leading zero omitted, Abs format (unit mm)*
G04 Created by KiCad (PCBNEW 5.0.0-fee4fd1~66~ubuntu16.04.1) date Fri Sep 14 21:54:44 2018*
%MOMM*%
%LPD*%
G01*
G04 APERTURE LIST*
%ADD10C,0.300000*%
%ADD11C,0.002540*%
G04 APERTURE END LIST*
D10*
X174033780Y74615239D02*
X174033780Y76615239D01*
X174890923Y74615239D02*
X174890923Y75662858D01*
X174795685Y75853334D01*
X174605209Y75948572D01*
X174319495Y75948572D01*
X174129019Y75853334D01*
X174033780Y75758096D01*
X175557590Y75948572D02*
X176319495Y75948572D01*
X175843304Y76615239D02*
X175843304Y74900953D01*
X175938542Y74710477D01*
X176129019Y74615239D01*
X176319495Y74615239D01*
X176700447Y75948572D02*
X177462352Y75948572D01*
X176986161Y76615239D02*
X176986161Y74900953D01*
X177081400Y74710477D01*
X177271876Y74615239D01*
X177462352Y74615239D01*
X178129019Y75948572D02*
X178129019Y73948572D01*
X178129019Y75853334D02*
X178319495Y75948572D01*
X178700447Y75948572D01*
X178890923Y75853334D01*
X178986161Y75758096D01*
X179081400Y75567620D01*
X179081400Y74996191D01*
X178986161Y74805715D01*
X178890923Y74710477D01*
X178700447Y74615239D01*
X178319495Y74615239D01*
X178129019Y74710477D01*
X179843304Y74710477D02*
X180033780Y74615239D01*
X180414733Y74615239D01*
X180605209Y74710477D01*
X180700447Y74900953D01*
X180700447Y74996191D01*
X180605209Y75186667D01*
X180414733Y75281905D01*
X180129019Y75281905D01*
X179938542Y75377143D01*
X179843304Y75567620D01*
X179843304Y75662858D01*
X179938542Y75853334D01*
X180129019Y75948572D01*
X180414733Y75948572D01*
X180605209Y75853334D01*
X181557590Y74805715D02*
X181652828Y74710477D01*
X181557590Y74615239D01*
X181462352Y74710477D01*
X181557590Y74805715D01*
X181557590Y74615239D01*
X181557590Y75853334D02*
X181652828Y75758096D01*
X181557590Y75662858D01*
X181462352Y75758096D01*
X181557590Y75853334D01*
X181557590Y75662858D01*
X183938542Y76710477D02*
X182224257Y74139048D01*
X186033780Y76710477D02*
X184319495Y74139048D01*
X187557590Y75948572D02*
X187557590Y74329524D01*
X187462352Y74139048D01*
X187367114Y74043810D01*
X187176638Y73948572D01*
X186890923Y73948572D01*
X186700447Y74043810D01*
X187557590Y74710477D02*
X187367114Y74615239D01*
X186986161Y74615239D01*
X186795685Y74710477D01*
X186700447Y74805715D01*
X186605209Y74996191D01*
X186605209Y75567620D01*
X186700447Y75758096D01*
X186795685Y75853334D01*
X186986161Y75948572D01*
X187367114Y75948572D01*
X187557590Y75853334D01*
X188509971Y74615239D02*
X188509971Y75948572D01*
X188509971Y76615239D02*
X188414733Y76520000D01*
X188509971Y76424762D01*
X188605209Y76520000D01*
X188509971Y76615239D01*
X188509971Y76424762D01*
X189176638Y75948572D02*
X189938542Y75948572D01*
X189462352Y76615239D02*
X189462352Y74900953D01*
X189557590Y74710477D01*
X189748066Y74615239D01*
X189938542Y74615239D01*
X190605209Y74615239D02*
X190605209Y76615239D01*
X191462352Y74615239D02*
X191462352Y75662858D01*
X191367114Y75853334D01*
X191176638Y75948572D01*
X190890923Y75948572D01*
X190700447Y75853334D01*
X190605209Y75758096D01*
X193271876Y75948572D02*
X193271876Y74615239D01*
X192414733Y75948572D02*
X192414733Y74900953D01*
X192509971Y74710477D01*
X192700447Y74615239D01*
X192986161Y74615239D01*
X193176638Y74710477D01*
X193271876Y74805715D01*
X194224257Y74615239D02*
X194224257Y76615239D01*
X194224257Y75853334D02*
X194414733Y75948572D01*
X194795685Y75948572D01*
X194986161Y75853334D01*
X195081400Y75758096D01*
X195176638Y75567620D01*
X195176638Y74996191D01*
X195081400Y74805715D01*
X194986161Y74710477D01*
X194795685Y74615239D01*
X194414733Y74615239D01*
X194224257Y74710477D01*
X196033780Y74805715D02*
X196129019Y74710477D01*
X196033780Y74615239D01*
X195938542Y74710477D01*
X196033780Y74805715D01*
X196033780Y74615239D01*
X197843304Y74710477D02*
X197652828Y74615239D01*
X197271876Y74615239D01*
X197081400Y74710477D01*
X196986161Y74805715D01*
X196890923Y74996191D01*
X196890923Y75567620D01*
X196986161Y75758096D01*
X197081400Y75853334D01*
X197271876Y75948572D01*
X197652828Y75948572D01*
X197843304Y75853334D01*
X198986161Y74615239D02*
X198795685Y74710477D01*
X198700447Y74805715D01*
X198605209Y74996191D01*
X198605209Y75567620D01*
X198700447Y75758096D01*
X198795685Y75853334D01*
X198986161Y75948572D01*
X199271876Y75948572D01*
X199462352Y75853334D01*
X199557590Y75758096D01*
X199652828Y75567620D01*
X199652828Y74996191D01*
X199557590Y74805715D01*
X199462352Y74710477D01*
X199271876Y74615239D01*
X198986161Y74615239D01*
X200509971Y74615239D02*
X200509971Y75948572D01*
X200509971Y75758096D02*
X200605209Y75853334D01*
X200795685Y75948572D01*
X201081400Y75948572D01*
X201271876Y75853334D01*
X201367114Y75662858D01*
X201367114Y74615239D01*
X201367114Y75662858D02*
X201462352Y75853334D01*
X201652828Y75948572D01*
X201938542Y75948572D01*
X202129019Y75853334D01*
X202224257Y75662858D01*
X202224257Y74615239D01*
X204605209Y76710477D02*
X202890923Y74139048D01*
X205271876Y75948572D02*
X205271876Y74234286D01*
X205176638Y74043810D01*
X204986161Y73948572D01*
X204890923Y73948572D01*
X205271876Y76615239D02*
X205176638Y76520000D01*
X205271876Y76424762D01*
X205367114Y76520000D01*
X205271876Y76615239D01*
X205271876Y76424762D01*
X206224257Y74615239D02*
X206224257Y75948572D01*
X206224257Y75758096D02*
X206319495Y75853334D01*
X206509971Y75948572D01*
X206795685Y75948572D01*
X206986161Y75853334D01*
X207081400Y75662858D01*
X207081400Y74615239D01*
X207081400Y75662858D02*
X207176638Y75853334D01*
X207367114Y75948572D01*
X207652828Y75948572D01*
X207843304Y75853334D01*
X207938542Y75662858D01*
X207938542Y74615239D01*
X209748066Y74615239D02*
X209748066Y76615239D01*
X209748066Y74710477D02*
X209557590Y74615239D01*
X209176638Y74615239D01*
X208986161Y74710477D01*
X208890923Y74805715D01*
X208795685Y74996191D01*
X208795685Y75567620D01*
X208890923Y75758096D01*
X208986161Y75853334D01*
X209176638Y75948572D01*
X209557590Y75948572D01*
X209748066Y75853334D01*
X211557590Y74615239D02*
X211557590Y75662858D01*
X211462352Y75853334D01*
X211271876Y75948572D01*
X210890923Y75948572D01*
X210700447Y75853334D01*
X211557590Y74710477D02*
X211367114Y74615239D01*
X210890923Y74615239D01*
X210700447Y74710477D01*
X210605209Y74900953D01*
X210605209Y75091429D01*
X210700447Y75281905D01*
X210890923Y75377143D01*
X211367114Y75377143D01*
X211557590Y75472381D01*
X212795685Y74615239D02*
X212605209Y74710477D01*
X212509971Y74900953D01*
X212509971Y76615239D01*
X213367114Y75948572D02*
X213843304Y74615239D01*
X214319495Y75948572D02*
X213843304Y74615239D01*
X213652828Y74139048D01*
X213557590Y74043810D01*
X213367114Y73948572D01*
X216509971Y76710477D02*
X214795685Y74139048D01*
X218319495Y74805715D02*
X218224257Y74710477D01*
X217938542Y74615239D01*
X217748066Y74615239D01*
X217462352Y74710477D01*
X217271876Y74900953D01*
X217176638Y75091429D01*
X217081400Y75472381D01*
X217081400Y75758096D01*
X217176638Y76139048D01*
X217271876Y76329524D01*
X217462352Y76520000D01*
X217748066Y76615239D01*
X217938542Y76615239D01*
X218224257Y76520000D01*
X218319495Y76424762D01*
X219557590Y76615239D02*
X219938542Y76615239D01*
X220129019Y76520000D01*
X220319495Y76329524D01*
X220414733Y75948572D01*
X220414733Y75281905D01*
X220319495Y74900953D01*
X220129019Y74710477D01*
X219938542Y74615239D01*
X219557590Y74615239D01*
X219367114Y74710477D01*
X219176638Y74900953D01*
X219081400Y75281905D01*
X219081400Y75948572D01*
X219176638Y76329524D01*
X219367114Y76520000D01*
X219557590Y76615239D01*
X222129019Y76615239D02*
X221748066Y76615239D01*
X221557590Y76520000D01*
X221462352Y76424762D01*
X221271876Y76139048D01*
X221176638Y75758096D01*
X221176638Y74996191D01*
X221271876Y74805715D01*
X221367114Y74710477D01*
X221557590Y74615239D01*
X221938542Y74615239D01*
X222129019Y74710477D01*
X222224257Y74805715D01*
X222319495Y74996191D01*
X222319495Y75472381D01*
X222224257Y75662858D01*
X222129019Y75758096D01*
X221938542Y75853334D01*
X221557590Y75853334D01*
X221367114Y75758096D01*
X221271876Y75662858D01*
X221176638Y75472381D01*
X223557590Y76615239D02*
X223748066Y76615239D01*
X223938542Y76520000D01*
X224033780Y76424762D01*
X224129019Y76234286D01*
X224224257Y75853334D01*
X224224257Y75377143D01*
X224129019Y74996191D01*
X224033780Y74805715D01*
X223938542Y74710477D01*
X223748066Y74615239D01*
X223557590Y74615239D01*
X223367114Y74710477D01*
X223271876Y74805715D01*
X223176638Y74996191D01*
X223081400Y75377143D01*
X223081400Y75853334D01*
X223176638Y76234286D01*
X223271876Y76424762D01*
X223367114Y76520000D01*
X223557590Y76615239D01*
X42914104Y36268115D02*
X42818866Y36172877D01*
X42533152Y36077639D01*
X42342676Y36077639D01*
X42056961Y36172877D01*
X41866485Y36363353D01*
X41771247Y36553829D01*
X41676009Y36934781D01*
X41676009Y37220496D01*
X41771247Y37601448D01*
X41866485Y37791924D01*
X42056961Y37982400D01*
X42342676Y38077639D01*
X42533152Y38077639D01*
X42818866Y37982400D01*
X42914104Y37887162D01*
X44152200Y38077639D02*
X44533152Y38077639D01*
X44723628Y37982400D01*
X44914104Y37791924D01*
X45009342Y37410972D01*
X45009342Y36744305D01*
X44914104Y36363353D01*
X44723628Y36172877D01*
X44533152Y36077639D01*
X44152200Y36077639D01*
X43961723Y36172877D01*
X43771247Y36363353D01*
X43676009Y36744305D01*
X43676009Y37410972D01*
X43771247Y37791924D01*
X43961723Y37982400D01*
X44152200Y38077639D01*
X46723628Y38077639D02*
X46342676Y38077639D01*
X46152200Y37982400D01*
X46056961Y37887162D01*
X45866485Y37601448D01*
X45771247Y37220496D01*
X45771247Y36458591D01*
X45866485Y36268115D01*
X45961723Y36172877D01*
X46152200Y36077639D01*
X46533152Y36077639D01*
X46723628Y36172877D01*
X46818866Y36268115D01*
X46914104Y36458591D01*
X46914104Y36934781D01*
X46818866Y37125258D01*
X46723628Y37220496D01*
X46533152Y37315734D01*
X46152200Y37315734D01*
X45961723Y37220496D01*
X45866485Y37125258D01*
X45771247Y36934781D01*
X48152200Y38077639D02*
X48342676Y38077639D01*
X48533152Y37982400D01*
X48628390Y37887162D01*
X48723628Y37696686D01*
X48818866Y37315734D01*
X48818866Y36839543D01*
X48723628Y36458591D01*
X48628390Y36268115D01*
X48533152Y36172877D01*
X48342676Y36077639D01*
X48152200Y36077639D01*
X47961723Y36172877D01*
X47866485Y36268115D01*
X47771247Y36458591D01*
X47676009Y36839543D01*
X47676009Y37315734D01*
X47771247Y37696686D01*
X47866485Y37887162D01*
X47961723Y37982400D01*
X48152200Y38077639D01*
X51199819Y36077639D02*
X51199819Y38077639D01*
X51961723Y38077639D01*
X52152200Y37982400D01*
X52247438Y37887162D01*
X52342676Y37696686D01*
X52342676Y37410972D01*
X52247438Y37220496D01*
X52152200Y37125258D01*
X51961723Y37030020D01*
X51199819Y37030020D01*
X54342676Y36268115D02*
X54247438Y36172877D01*
X53961723Y36077639D01*
X53771247Y36077639D01*
X53485533Y36172877D01*
X53295057Y36363353D01*
X53199819Y36553829D01*
X53104580Y36934781D01*
X53104580Y37220496D01*
X53199819Y37601448D01*
X53295057Y37791924D01*
X53485533Y37982400D01*
X53771247Y38077639D01*
X53961723Y38077639D01*
X54247438Y37982400D01*
X54342676Y37887162D01*
X55866485Y37125258D02*
X56152200Y37030020D01*
X56247438Y36934781D01*
X56342676Y36744305D01*
X56342676Y36458591D01*
X56247438Y36268115D01*
X56152200Y36172877D01*
X55961723Y36077639D01*
X55199819Y36077639D01*
X55199819Y38077639D01*
X55866485Y38077639D01*
X56056961Y37982400D01*
X56152200Y37887162D01*
X56247438Y37696686D01*
X56247438Y37506210D01*
X56152200Y37315734D01*
X56056961Y37220496D01*
X55866485Y37125258D01*
X55199819Y37125258D01*
X58723628Y36839543D02*
X60247438Y36839543D01*
X63866485Y36077639D02*
X63199819Y37030020D01*
X62723628Y36077639D02*
X62723628Y38077639D01*
X63485533Y38077639D01*
X63676009Y37982400D01*
X63771247Y37887162D01*
X63866485Y37696686D01*
X63866485Y37410972D01*
X63771247Y37220496D01*
X63676009Y37125258D01*
X63485533Y37030020D01*
X62723628Y37030020D01*
X65485533Y36172877D02*
X65295057Y36077639D01*
X64914104Y36077639D01*
X64723628Y36172877D01*
X64628390Y36363353D01*
X64628390Y37125258D01*
X64723628Y37315734D01*
X64914104Y37410972D01*
X65295057Y37410972D01*
X65485533Y37315734D01*
X65580771Y37125258D01*
X65580771Y36934781D01*
X64628390Y36744305D01*
X66247438Y37410972D02*
X66723628Y36077639D01*
X67199819Y37410972D01*
X67961723Y36268115D02*
X68056961Y36172877D01*
X67961723Y36077639D01*
X67866485Y36172877D01*
X67961723Y36268115D01*
X67961723Y36077639D01*
X71390295Y38077639D02*
X70437914Y38077639D01*
X70342676Y37125258D01*
X70437914Y37220496D01*
X70628390Y37315734D01*
X71104580Y37315734D01*
X71295057Y37220496D01*
X71390295Y37125258D01*
X71485533Y36934781D01*
X71485533Y36458591D01*
X71390295Y36268115D01*
X71295057Y36172877D01*
X71104580Y36077639D01*
X70628390Y36077639D01*
X70437914Y36172877D01*
X70342676Y36268115D01*
X72342676Y36268115D02*
X72437914Y36172877D01*
X72342676Y36077639D01*
X72247438Y36172877D01*
X72342676Y36268115D01*
X72342676Y36077639D01*
X74818866Y36077639D02*
X74818866Y38077639D01*
X75295057Y38077639D01*
X75580771Y37982400D01*
X75771247Y37791924D01*
X75866485Y37601448D01*
X75961723Y37220496D01*
X75961723Y36934781D01*
X75866485Y36553829D01*
X75771247Y36363353D01*
X75580771Y36172877D01*
X75295057Y36077639D01*
X74818866Y36077639D01*
X77580771Y36172877D02*
X77390295Y36077639D01*
X77009342Y36077639D01*
X76818866Y36172877D01*
X76723628Y36363353D01*
X76723628Y37125258D01*
X76818866Y37315734D01*
X77009342Y37410972D01*
X77390295Y37410972D01*
X77580771Y37315734D01*
X77676009Y37125258D01*
X77676009Y36934781D01*
X76723628Y36744305D01*
X78437914Y36172877D02*
X78628390Y36077639D01*
X79009342Y36077639D01*
X79199819Y36172877D01*
X79295057Y36363353D01*
X79295057Y36458591D01*
X79199819Y36649067D01*
X79009342Y36744305D01*
X78723628Y36744305D01*
X78533152Y36839543D01*
X78437914Y37030020D01*
X78437914Y37125258D01*
X78533152Y37315734D01*
X78723628Y37410972D01*
X79009342Y37410972D01*
X79199819Y37315734D01*
X80152200Y36077639D02*
X80152200Y37410972D01*
X80152200Y38077639D02*
X80056961Y37982400D01*
X80152200Y37887162D01*
X80247438Y37982400D01*
X80152200Y38077639D01*
X80152200Y37887162D01*
X81961723Y37410972D02*
X81961723Y35791924D01*
X81866485Y35601448D01*
X81771247Y35506210D01*
X81580771Y35410972D01*
X81295057Y35410972D01*
X81104580Y35506210D01*
X81961723Y36172877D02*
X81771247Y36077639D01*
X81390295Y36077639D01*
X81199819Y36172877D01*
X81104580Y36268115D01*
X81009342Y36458591D01*
X81009342Y37030020D01*
X81104580Y37220496D01*
X81199819Y37315734D01*
X81390295Y37410972D01*
X81771247Y37410972D01*
X81961723Y37315734D01*
X82914104Y37410972D02*
X82914104Y36077639D01*
X82914104Y37220496D02*
X83009342Y37315734D01*
X83199819Y37410972D01*
X83485533Y37410972D01*
X83676009Y37315734D01*
X83771247Y37125258D01*
X83771247Y36077639D01*
X86247438Y36077639D02*
X86247438Y38077639D01*
X86247438Y37315734D02*
X86437914Y37410972D01*
X86818866Y37410972D01*
X87009342Y37315734D01*
X87104580Y37220496D01*
X87199819Y37030020D01*
X87199819Y36458591D01*
X87104580Y36268115D01*
X87009342Y36172877D01*
X86818866Y36077639D01*
X86437914Y36077639D01*
X86247438Y36172877D01*
X87866485Y37410972D02*
X88342676Y36077639D01*
X88818866Y37410972D02*
X88342676Y36077639D01*
X88152200Y35601448D01*
X88056961Y35506210D01*
X87866485Y35410972D01*
X91104580Y37410972D02*
X91104580Y35696686D01*
X91009342Y35506210D01*
X90818866Y35410972D01*
X90723628Y35410972D01*
X91104580Y38077639D02*
X91009342Y37982400D01*
X91104580Y37887162D01*
X91199819Y37982400D01*
X91104580Y38077639D01*
X91104580Y37887162D01*
X92056961Y36077639D02*
X92056961Y37410972D01*
X92056961Y37220496D02*
X92152200Y37315734D01*
X92342676Y37410972D01*
X92628390Y37410972D01*
X92818866Y37315734D01*
X92914104Y37125258D01*
X92914104Y36077639D01*
X92914104Y37125258D02*
X93009342Y37315734D01*
X93199819Y37410972D01*
X93485533Y37410972D01*
X93676009Y37315734D01*
X93771247Y37125258D01*
X93771247Y36077639D01*
X95580771Y36077639D02*
X95580771Y38077639D01*
X95580771Y36172877D02*
X95390295Y36077639D01*
X95009342Y36077639D01*
X94818866Y36172877D01*
X94723628Y36268115D01*
X94628390Y36458591D01*
X94628390Y37030020D01*
X94723628Y37220496D01*
X94818866Y37315734D01*
X95009342Y37410972D01*
X95390295Y37410972D01*
X95580771Y37315734D01*
X97390295Y36077639D02*
X97390295Y37125258D01*
X97295057Y37315734D01*
X97104580Y37410972D01*
X96723628Y37410972D01*
X96533152Y37315734D01*
X97390295Y36172877D02*
X97199819Y36077639D01*
X96723628Y36077639D01*
X96533152Y36172877D01*
X96437914Y36363353D01*
X96437914Y36553829D01*
X96533152Y36744305D01*
X96723628Y36839543D01*
X97199819Y36839543D01*
X97390295Y36934781D01*
X98628390Y36077639D02*
X98437914Y36172877D01*
X98342676Y36363353D01*
X98342676Y38077639D01*
X99199819Y37410972D02*
X99676009Y36077639D01*
X100152200Y37410972D02*
X99676009Y36077639D01*
X99485533Y35601448D01*
X99390295Y35506210D01*
X99199819Y35410972D01*
X102247438Y37410972D02*
X102628390Y36077639D01*
X103009342Y37030020D01*
X103390295Y36077639D01*
X103771247Y37410972D01*
X104533152Y36077639D02*
X104533152Y37410972D01*
X104533152Y38077639D02*
X104437914Y37982400D01*
X104533152Y37887162D01*
X104628390Y37982400D01*
X104533152Y38077639D01*
X104533152Y37887162D01*
X105199819Y37410972D02*
X105961723Y37410972D01*
X105485533Y38077639D02*
X105485533Y36363353D01*
X105580771Y36172877D01*
X105771247Y36077639D01*
X105961723Y36077639D01*
X106628390Y36077639D02*
X106628390Y38077639D01*
X107485533Y36077639D02*
X107485533Y37125258D01*
X107390295Y37315734D01*
X107199819Y37410972D01*
X106914104Y37410972D01*
X106723628Y37315734D01*
X106628390Y37220496D01*
X109961723Y36077639D02*
X109961723Y38077639D01*
X110818866Y36077639D02*
X110818866Y37125258D01*
X110723628Y37315734D01*
X110533152Y37410972D01*
X110247438Y37410972D01*
X110056961Y37315734D01*
X109961723Y37220496D01*
X112533152Y36172877D02*
X112342676Y36077639D01*
X111961723Y36077639D01*
X111771247Y36172877D01*
X111676009Y36363353D01*
X111676009Y37125258D01*
X111771247Y37315734D01*
X111961723Y37410972D01*
X112342676Y37410972D01*
X112533152Y37315734D01*
X112628390Y37125258D01*
X112628390Y36934781D01*
X111676009Y36744305D01*
X113771247Y36077639D02*
X113580771Y36172877D01*
X113485533Y36363353D01*
X113485533Y38077639D01*
X114533152Y37410972D02*
X114533152Y35410972D01*
X114533152Y37315734D02*
X114723628Y37410972D01*
X115104580Y37410972D01*
X115295057Y37315734D01*
X115390295Y37220496D01*
X115485533Y37030020D01*
X115485533Y36458591D01*
X115390295Y36268115D01*
X115295057Y36172877D01*
X115104580Y36077639D01*
X114723628Y36077639D01*
X114533152Y36172877D01*
X117580771Y37410972D02*
X118342676Y37410972D01*
X117866485Y36077639D02*
X117866485Y37791924D01*
X117961723Y37982400D01*
X118152200Y38077639D01*
X118342676Y38077639D01*
X119009342Y36077639D02*
X119009342Y37410972D01*
X119009342Y37030020D02*
X119104580Y37220496D01*
X119199819Y37315734D01*
X119390295Y37410972D01*
X119580771Y37410972D01*
X120533152Y36077639D02*
X120342676Y36172877D01*
X120247438Y36268115D01*
X120152200Y36458591D01*
X120152200Y37030020D01*
X120247438Y37220496D01*
X120342676Y37315734D01*
X120533152Y37410972D01*
X120818866Y37410972D01*
X121009342Y37315734D01*
X121104580Y37220496D01*
X121199819Y37030020D01*
X121199819Y36458591D01*
X121104580Y36268115D01*
X121009342Y36172877D01*
X120818866Y36077639D01*
X120533152Y36077639D01*
X122056961Y36077639D02*
X122056961Y37410972D01*
X122056961Y37220496D02*
X122152200Y37315734D01*
X122342676Y37410972D01*
X122628390Y37410972D01*
X122818866Y37315734D01*
X122914104Y37125258D01*
X122914104Y36077639D01*
X122914104Y37125258D02*
X123009342Y37315734D01*
X123199819Y37410972D01*
X123485533Y37410972D01*
X123676009Y37315734D01*
X123771247Y37125258D01*
X123771247Y36077639D01*
X125961723Y37410972D02*
X126723628Y37410972D01*
X126247438Y38077639D02*
X126247438Y36363353D01*
X126342676Y36172877D01*
X126533152Y36077639D01*
X126723628Y36077639D01*
X127390295Y36077639D02*
X127390295Y38077639D01*
X128247438Y36077639D02*
X128247438Y37125258D01*
X128152200Y37315734D01*
X127961723Y37410972D01*
X127676009Y37410972D01*
X127485533Y37315734D01*
X127390295Y37220496D01*
X129961723Y36172877D02*
X129771247Y36077639D01*
X129390295Y36077639D01*
X129199819Y36172877D01*
X129104580Y36363353D01*
X129104580Y37125258D01*
X129199819Y37315734D01*
X129390295Y37410972D01*
X129771247Y37410972D01*
X129961723Y37315734D01*
X130056961Y37125258D01*
X130056961Y36934781D01*
X129104580Y36744305D01*
X132437914Y36077639D02*
X132437914Y38077639D01*
X133104580Y36649067D01*
X133771247Y38077639D01*
X133771247Y36077639D01*
X135485533Y36172877D02*
X135295057Y36077639D01*
X134914104Y36077639D01*
X134723628Y36172877D01*
X134628390Y36363353D01*
X134628390Y37125258D01*
X134723628Y37315734D01*
X134914104Y37410972D01*
X135295057Y37410972D01*
X135485533Y37315734D01*
X135580771Y37125258D01*
X135580771Y36934781D01*
X134628390Y36744305D01*
X137295057Y36172877D02*
X137104580Y36077639D01*
X136723628Y36077639D01*
X136533152Y36172877D01*
X136437914Y36268115D01*
X136342676Y36458591D01*
X136342676Y37030020D01*
X136437914Y37220496D01*
X136533152Y37315734D01*
X136723628Y37410972D01*
X137104580Y37410972D01*
X137295057Y37315734D01*
X138152200Y36077639D02*
X138152200Y38077639D01*
X139009342Y36077639D02*
X139009342Y37125258D01*
X138914104Y37315734D01*
X138723628Y37410972D01*
X138437914Y37410972D01*
X138247438Y37315734D01*
X138152200Y37220496D01*
X139961723Y36077639D02*
X139961723Y38077639D01*
X141104580Y36077639D02*
X140247438Y37220496D01*
X141104580Y38077639D02*
X139961723Y36934781D01*
X142723628Y36172877D02*
X142533152Y36077639D01*
X142152200Y36077639D01*
X141961723Y36172877D01*
X141866485Y36363353D01*
X141866485Y37125258D01*
X141961723Y37315734D01*
X142152200Y37410972D01*
X142533152Y37410972D01*
X142723628Y37315734D01*
X142818866Y37125258D01*
X142818866Y36934781D01*
X141866485Y36744305D01*
X143485533Y37410972D02*
X143961723Y36077639D01*
X144437914Y37410972D02*
X143961723Y36077639D01*
X143771247Y35601448D01*
X143676009Y35506210D01*
X143485533Y35410972D01*
X145104580Y36172877D02*
X145295057Y36077639D01*
X145676009Y36077639D01*
X145866485Y36172877D01*
X145961723Y36363353D01*
X145961723Y36458591D01*
X145866485Y36649067D01*
X145676009Y36744305D01*
X145390295Y36744305D01*
X145199819Y36839543D01*
X145104580Y37030020D01*
X145104580Y37125258D01*
X145199819Y37315734D01*
X145390295Y37410972D01*
X145676009Y37410972D01*
X145866485Y37315734D01*
X148342676Y36077639D02*
X148342676Y38077639D01*
X148818866Y38077639D01*
X149104580Y37982400D01*
X149295057Y37791924D01*
X149390295Y37601448D01*
X149485533Y37220496D01*
X149485533Y36934781D01*
X149390295Y36553829D01*
X149295057Y36363353D01*
X149104580Y36172877D01*
X148818866Y36077639D01*
X148342676Y36077639D01*
X150342676Y36077639D02*
X150342676Y37410972D01*
X150342676Y38077639D02*
X150247438Y37982400D01*
X150342676Y37887162D01*
X150437914Y37982400D01*
X150342676Y38077639D01*
X150342676Y37887162D01*
X151199819Y36172877D02*
X151390295Y36077639D01*
X151771247Y36077639D01*
X151961723Y36172877D01*
X152056961Y36363353D01*
X152056961Y36458591D01*
X151961723Y36649067D01*
X151771247Y36744305D01*
X151485533Y36744305D01*
X151295057Y36839543D01*
X151199819Y37030020D01*
X151199819Y37125258D01*
X151295057Y37315734D01*
X151485533Y37410972D01*
X151771247Y37410972D01*
X151961723Y37315734D01*
X153771247Y36172877D02*
X153580771Y36077639D01*
X153199819Y36077639D01*
X153009342Y36172877D01*
X152914104Y36268115D01*
X152818866Y36458591D01*
X152818866Y37030020D01*
X152914104Y37220496D01*
X153009342Y37315734D01*
X153199819Y37410972D01*
X153580771Y37410972D01*
X153771247Y37315734D01*
X154914104Y36077639D02*
X154723628Y36172877D01*
X154628390Y36268115D01*
X154533152Y36458591D01*
X154533152Y37030020D01*
X154628390Y37220496D01*
X154723628Y37315734D01*
X154914104Y37410972D01*
X155199819Y37410972D01*
X155390295Y37315734D01*
X155485533Y37220496D01*
X155580771Y37030020D01*
X155580771Y36458591D01*
X155485533Y36268115D01*
X155390295Y36172877D01*
X155199819Y36077639D01*
X154914104Y36077639D01*
X156437914Y36077639D02*
X156437914Y37410972D01*
X156437914Y37030020D02*
X156533152Y37220496D01*
X156628390Y37315734D01*
X156818866Y37410972D01*
X157009342Y37410972D01*
X158533152Y36077639D02*
X158533152Y38077639D01*
X158533152Y36172877D02*
X158342676Y36077639D01*
X157961723Y36077639D01*
X157771247Y36172877D01*
X157676009Y36268115D01*
X157580771Y36458591D01*
X157580771Y37030020D01*
X157676009Y37220496D01*
X157771247Y37315734D01*
X157961723Y37410972D01*
X158342676Y37410972D01*
X158533152Y37315734D01*
D11*
G04 #@! TO.C,G\002A\002A\002A*
G36*
X132240760Y16305160D02*
X132309340Y16340720D01*
X132456660Y16434700D01*
X132670020Y16571860D01*
X132918940Y16742040D01*
X133170400Y16912220D01*
X133378680Y17049380D01*
X133523460Y17143360D01*
X133584420Y17176380D01*
X133614900Y17163680D01*
X133736820Y17105260D01*
X133909540Y17016360D01*
X134008600Y16965560D01*
X134168620Y16894440D01*
X134247360Y16881740D01*
X134260060Y16904600D01*
X134318480Y17026520D01*
X134409920Y17232260D01*
X134531840Y17509120D01*
X134669000Y17831700D01*
X134816320Y18179680D01*
X134963640Y18532740D01*
X135103340Y18870560D01*
X135227800Y19175360D01*
X135326860Y19421740D01*
X135392900Y19594460D01*
X135415760Y19668120D01*
X135408140Y19683360D01*
X135329400Y19762100D01*
X135189700Y19866240D01*
X134889980Y20110080D01*
X134592800Y20478380D01*
X134412460Y20900020D01*
X134354040Y21367380D01*
X134404840Y21801720D01*
X134575020Y22218280D01*
X134864580Y22591660D01*
X135217640Y22871060D01*
X135629120Y23046320D01*
X136091400Y23102200D01*
X136533360Y23053940D01*
X136960080Y22886300D01*
X137333460Y22601820D01*
X137490940Y22418940D01*
X137709380Y22037940D01*
X137833840Y21631540D01*
X137846540Y21527400D01*
X137828760Y21082900D01*
X137696680Y20656180D01*
X137460460Y20272640D01*
X137135340Y19960220D01*
X137094700Y19929740D01*
X136942300Y19817980D01*
X136840700Y19739240D01*
X136761960Y19673200D01*
X137328380Y18306680D01*
X137419820Y18088240D01*
X137574760Y17714860D01*
X137711920Y17394820D01*
X137821140Y17138280D01*
X137897340Y16965560D01*
X137930360Y16896980D01*
X137935440Y16894440D01*
X137983700Y16884280D01*
X138090380Y16922380D01*
X138278340Y17016360D01*
X138405340Y17079860D01*
X138550120Y17150980D01*
X138616160Y17176380D01*
X138672040Y17145900D01*
X138811740Y17054460D01*
X139014940Y16919840D01*
X139258780Y16754740D01*
X139489920Y16594720D01*
X139705820Y16455020D01*
X139863300Y16353420D01*
X139936960Y16312780D01*
X139949660Y16312780D01*
X140018240Y16350880D01*
X140140160Y16455020D01*
X140325580Y16630280D01*
X140589740Y16889360D01*
X140630380Y16930000D01*
X140846280Y17150980D01*
X141021540Y17333860D01*
X141140920Y17465940D01*
X141181560Y17526900D01*
X141143460Y17600560D01*
X141044400Y17755500D01*
X140902160Y17973940D01*
X140729440Y18227940D01*
X140277320Y18885800D01*
X140526240Y19505560D01*
X140602440Y19696060D01*
X140698960Y19927200D01*
X140772620Y20089760D01*
X140808180Y20163420D01*
X140876760Y20186280D01*
X141046940Y20226920D01*
X141290780Y20277720D01*
X141585420Y20333600D01*
X141864820Y20384400D01*
X142118820Y20432660D01*
X142301700Y20468220D01*
X142382980Y20483460D01*
X142403300Y20496160D01*
X142418540Y20536800D01*
X142431240Y20620620D01*
X142436320Y20775560D01*
X142438860Y21016860D01*
X142438860Y21367380D01*
X142438860Y21405480D01*
X142436320Y21740760D01*
X142431240Y22004920D01*
X142421080Y22180180D01*
X142410920Y22248760D01*
X142408380Y22248760D01*
X142329640Y22269080D01*
X142151840Y22307180D01*
X141897840Y22355440D01*
X141598120Y22413860D01*
X141577800Y22416400D01*
X141278080Y22474820D01*
X141026620Y22528160D01*
X140851360Y22568800D01*
X140775160Y22591660D01*
X140759920Y22611980D01*
X140698960Y22728820D01*
X140615140Y22916780D01*
X140513540Y23142840D01*
X140417020Y23379060D01*
X140330660Y23589880D01*
X140274780Y23749900D01*
X140257000Y23821020D01*
X140257000Y23823560D01*
X140302720Y23894680D01*
X140406860Y24049620D01*
X140554180Y24265520D01*
X140726900Y24522060D01*
X140742140Y24542380D01*
X140914860Y24796380D01*
X141054560Y25009740D01*
X141148540Y25162140D01*
X141181560Y25230720D01*
X141181560Y25235800D01*
X141125680Y25312000D01*
X140996140Y25456780D01*
X140810720Y25649820D01*
X140587200Y25873340D01*
X140516080Y25944460D01*
X140269700Y26183220D01*
X140099520Y26343240D01*
X139992840Y26427060D01*
X139942040Y26444840D01*
X139939500Y26442300D01*
X139863300Y26396580D01*
X139703280Y26292440D01*
X139484840Y26145120D01*
X139228300Y25969860D01*
X139207980Y25957160D01*
X138956520Y25786980D01*
X138743160Y25642200D01*
X138593300Y25543140D01*
X138527260Y25502500D01*
X138517100Y25502500D01*
X138412960Y25532980D01*
X138232620Y25596480D01*
X138011640Y25682840D01*
X137775420Y25776820D01*
X137562060Y25868260D01*
X137402040Y25941920D01*
X137325840Y25982560D01*
X137325840Y25987640D01*
X137297900Y26079080D01*
X137254720Y26267040D01*
X137201380Y26528660D01*
X137140420Y26841080D01*
X137132800Y26889340D01*
X137074380Y27194140D01*
X137026120Y27443060D01*
X136990560Y27615780D01*
X136972780Y27686900D01*
X136929600Y27697060D01*
X136782280Y27707220D01*
X136556220Y27712300D01*
X136284440Y27717380D01*
X135994880Y27714840D01*
X135715480Y27707220D01*
X135474180Y27699600D01*
X135304000Y27686900D01*
X135232880Y27674200D01*
X135230340Y27669120D01*
X135202400Y27575140D01*
X135161760Y27384640D01*
X135108420Y27123020D01*
X135047460Y26810600D01*
X135037300Y26754720D01*
X134981420Y26455000D01*
X134930620Y26206080D01*
X134892520Y26035900D01*
X134874740Y25969860D01*
X134846800Y25954620D01*
X134722340Y25901280D01*
X134519140Y25817460D01*
X134270220Y25715860D01*
X133688560Y25479640D01*
X132974820Y25969860D01*
X132911320Y26013040D01*
X132654780Y26188300D01*
X132443960Y26328000D01*
X132296640Y26421980D01*
X132235680Y26457540D01*
X132230600Y26455000D01*
X132159480Y26391500D01*
X132019780Y26259420D01*
X131826740Y26071460D01*
X131600680Y25847940D01*
X131435580Y25682840D01*
X131240000Y25482180D01*
X131115540Y25347560D01*
X131046960Y25261200D01*
X131021560Y25210400D01*
X131029180Y25174840D01*
X131074900Y25101180D01*
X131179040Y24946240D01*
X131326360Y24727800D01*
X131499080Y24476340D01*
X131641320Y24265520D01*
X131796260Y24026760D01*
X131897860Y23856580D01*
X131933420Y23772760D01*
X131923260Y23737200D01*
X131875000Y23597500D01*
X131788640Y23386680D01*
X131681960Y23135220D01*
X131435580Y22571340D01*
X131064740Y22500220D01*
X130841220Y22459580D01*
X130526260Y22398620D01*
X130226540Y22340200D01*
X129759180Y22248760D01*
X129741400Y20526640D01*
X129815060Y20496160D01*
X129883640Y20478380D01*
X130056360Y20440280D01*
X130305280Y20389480D01*
X130597380Y20336140D01*
X130846300Y20287880D01*
X131097760Y20242160D01*
X131278100Y20206600D01*
X131356840Y20188820D01*
X131377160Y20163420D01*
X131440660Y20041500D01*
X131529560Y19848460D01*
X131628620Y19614780D01*
X131730220Y19373480D01*
X131816580Y19152500D01*
X131880080Y18982320D01*
X131902940Y18895960D01*
X131867380Y18829920D01*
X131773400Y18682600D01*
X131633700Y18471780D01*
X131463520Y18222860D01*
X131293340Y17973940D01*
X131151100Y17760580D01*
X131049500Y17605640D01*
X131008860Y17537060D01*
X131029180Y17488800D01*
X131128240Y17369420D01*
X131316200Y17173840D01*
X131595600Y16896980D01*
X131641320Y16851260D01*
X131864840Y16637900D01*
X132052800Y16465180D01*
X132184880Y16348340D01*
X132240760Y16305160D01*
X132240760Y16305160D01*
G37*
X132240760Y16305160D02*
X132309340Y16340720D01*
X132456660Y16434700D01*
X132670020Y16571860D01*
X132918940Y16742040D01*
X133170400Y16912220D01*
X133378680Y17049380D01*
X133523460Y17143360D01*
X133584420Y17176380D01*
X133614900Y17163680D01*
X133736820Y17105260D01*
X133909540Y17016360D01*
X134008600Y16965560D01*
X134168620Y16894440D01*
X134247360Y16881740D01*
X134260060Y16904600D01*
X134318480Y17026520D01*
X134409920Y17232260D01*
X134531840Y17509120D01*
X134669000Y17831700D01*
X134816320Y18179680D01*
X134963640Y18532740D01*
X135103340Y18870560D01*
X135227800Y19175360D01*
X135326860Y19421740D01*
X135392900Y19594460D01*
X135415760Y19668120D01*
X135408140Y19683360D01*
X135329400Y19762100D01*
X135189700Y19866240D01*
X134889980Y20110080D01*
X134592800Y20478380D01*
X134412460Y20900020D01*
X134354040Y21367380D01*
X134404840Y21801720D01*
X134575020Y22218280D01*
X134864580Y22591660D01*
X135217640Y22871060D01*
X135629120Y23046320D01*
X136091400Y23102200D01*
X136533360Y23053940D01*
X136960080Y22886300D01*
X137333460Y22601820D01*
X137490940Y22418940D01*
X137709380Y22037940D01*
X137833840Y21631540D01*
X137846540Y21527400D01*
X137828760Y21082900D01*
X137696680Y20656180D01*
X137460460Y20272640D01*
X137135340Y19960220D01*
X137094700Y19929740D01*
X136942300Y19817980D01*
X136840700Y19739240D01*
X136761960Y19673200D01*
X137328380Y18306680D01*
X137419820Y18088240D01*
X137574760Y17714860D01*
X137711920Y17394820D01*
X137821140Y17138280D01*
X137897340Y16965560D01*
X137930360Y16896980D01*
X137935440Y16894440D01*
X137983700Y16884280D01*
X138090380Y16922380D01*
X138278340Y17016360D01*
X138405340Y17079860D01*
X138550120Y17150980D01*
X138616160Y17176380D01*
X138672040Y17145900D01*
X138811740Y17054460D01*
X139014940Y16919840D01*
X139258780Y16754740D01*
X139489920Y16594720D01*
X139705820Y16455020D01*
X139863300Y16353420D01*
X139936960Y16312780D01*
X139949660Y16312780D01*
X140018240Y16350880D01*
X140140160Y16455020D01*
X140325580Y16630280D01*
X140589740Y16889360D01*
X140630380Y16930000D01*
X140846280Y17150980D01*
X141021540Y17333860D01*
X141140920Y17465940D01*
X141181560Y17526900D01*
X141143460Y17600560D01*
X141044400Y17755500D01*
X140902160Y17973940D01*
X140729440Y18227940D01*
X140277320Y18885800D01*
X140526240Y19505560D01*
X140602440Y19696060D01*
X140698960Y19927200D01*
X140772620Y20089760D01*
X140808180Y20163420D01*
X140876760Y20186280D01*
X141046940Y20226920D01*
X141290780Y20277720D01*
X141585420Y20333600D01*
X141864820Y20384400D01*
X142118820Y20432660D01*
X142301700Y20468220D01*
X142382980Y20483460D01*
X142403300Y20496160D01*
X142418540Y20536800D01*
X142431240Y20620620D01*
X142436320Y20775560D01*
X142438860Y21016860D01*
X142438860Y21367380D01*
X142438860Y21405480D01*
X142436320Y21740760D01*
X142431240Y22004920D01*
X142421080Y22180180D01*
X142410920Y22248760D01*
X142408380Y22248760D01*
X142329640Y22269080D01*
X142151840Y22307180D01*
X141897840Y22355440D01*
X141598120Y22413860D01*
X141577800Y22416400D01*
X141278080Y22474820D01*
X141026620Y22528160D01*
X140851360Y22568800D01*
X140775160Y22591660D01*
X140759920Y22611980D01*
X140698960Y22728820D01*
X140615140Y22916780D01*
X140513540Y23142840D01*
X140417020Y23379060D01*
X140330660Y23589880D01*
X140274780Y23749900D01*
X140257000Y23821020D01*
X140257000Y23823560D01*
X140302720Y23894680D01*
X140406860Y24049620D01*
X140554180Y24265520D01*
X140726900Y24522060D01*
X140742140Y24542380D01*
X140914860Y24796380D01*
X141054560Y25009740D01*
X141148540Y25162140D01*
X141181560Y25230720D01*
X141181560Y25235800D01*
X141125680Y25312000D01*
X140996140Y25456780D01*
X140810720Y25649820D01*
X140587200Y25873340D01*
X140516080Y25944460D01*
X140269700Y26183220D01*
X140099520Y26343240D01*
X139992840Y26427060D01*
X139942040Y26444840D01*
X139939500Y26442300D01*
X139863300Y26396580D01*
X139703280Y26292440D01*
X139484840Y26145120D01*
X139228300Y25969860D01*
X139207980Y25957160D01*
X138956520Y25786980D01*
X138743160Y25642200D01*
X138593300Y25543140D01*
X138527260Y25502500D01*
X138517100Y25502500D01*
X138412960Y25532980D01*
X138232620Y25596480D01*
X138011640Y25682840D01*
X137775420Y25776820D01*
X137562060Y25868260D01*
X137402040Y25941920D01*
X137325840Y25982560D01*
X137325840Y25987640D01*
X137297900Y26079080D01*
X137254720Y26267040D01*
X137201380Y26528660D01*
X137140420Y26841080D01*
X137132800Y26889340D01*
X137074380Y27194140D01*
X137026120Y27443060D01*
X136990560Y27615780D01*
X136972780Y27686900D01*
X136929600Y27697060D01*
X136782280Y27707220D01*
X136556220Y27712300D01*
X136284440Y27717380D01*
X135994880Y27714840D01*
X135715480Y27707220D01*
X135474180Y27699600D01*
X135304000Y27686900D01*
X135232880Y27674200D01*
X135230340Y27669120D01*
X135202400Y27575140D01*
X135161760Y27384640D01*
X135108420Y27123020D01*
X135047460Y26810600D01*
X135037300Y26754720D01*
X134981420Y26455000D01*
X134930620Y26206080D01*
X134892520Y26035900D01*
X134874740Y25969860D01*
X134846800Y25954620D01*
X134722340Y25901280D01*
X134519140Y25817460D01*
X134270220Y25715860D01*
X133688560Y25479640D01*
X132974820Y25969860D01*
X132911320Y26013040D01*
X132654780Y26188300D01*
X132443960Y26328000D01*
X132296640Y26421980D01*
X132235680Y26457540D01*
X132230600Y26455000D01*
X132159480Y26391500D01*
X132019780Y26259420D01*
X131826740Y26071460D01*
X131600680Y25847940D01*
X131435580Y25682840D01*
X131240000Y25482180D01*
X131115540Y25347560D01*
X131046960Y25261200D01*
X131021560Y25210400D01*
X131029180Y25174840D01*
X131074900Y25101180D01*
X131179040Y24946240D01*
X131326360Y24727800D01*
X131499080Y24476340D01*
X131641320Y24265520D01*
X131796260Y24026760D01*
X131897860Y23856580D01*
X131933420Y23772760D01*
X131923260Y23737200D01*
X131875000Y23597500D01*
X131788640Y23386680D01*
X131681960Y23135220D01*
X131435580Y22571340D01*
X131064740Y22500220D01*
X130841220Y22459580D01*
X130526260Y22398620D01*
X130226540Y22340200D01*
X129759180Y22248760D01*
X129741400Y20526640D01*
X129815060Y20496160D01*
X129883640Y20478380D01*
X130056360Y20440280D01*
X130305280Y20389480D01*
X130597380Y20336140D01*
X130846300Y20287880D01*
X131097760Y20242160D01*
X131278100Y20206600D01*
X131356840Y20188820D01*
X131377160Y20163420D01*
X131440660Y20041500D01*
X131529560Y19848460D01*
X131628620Y19614780D01*
X131730220Y19373480D01*
X131816580Y19152500D01*
X131880080Y18982320D01*
X131902940Y18895960D01*
X131867380Y18829920D01*
X131773400Y18682600D01*
X131633700Y18471780D01*
X131463520Y18222860D01*
X131293340Y17973940D01*
X131151100Y17760580D01*
X131049500Y17605640D01*
X131008860Y17537060D01*
X131029180Y17488800D01*
X131128240Y17369420D01*
X131316200Y17173840D01*
X131595600Y16896980D01*
X131641320Y16851260D01*
X131864840Y16637900D01*
X132052800Y16465180D01*
X132184880Y16348340D01*
X132240760Y16305160D01*
G04 #@! TD*
M02*
