G04 #@! TF.FileFunction,Paste,Bot*
%FSLAX46Y46*%
G04 Gerber Fmt 4.6, Leading zero omitted, Abs format (unit mm)*
G04 Created by KiCad (PCBNEW 4.0.7-e2-6376~58~ubuntu16.04.1) date Mon Jun 18 12:14:35 2018*
%MOMM*%
%LPD*%
G01*
G04 APERTURE LIST*
%ADD10C,0.100000*%
%ADD11R,0.300000X0.700000*%
%ADD12R,0.900000X0.500000*%
%ADD13R,0.500000X0.900000*%
%ADD14R,1.300000X0.700000*%
%ADD15R,1.200000X0.900000*%
%ADD16R,0.900000X1.200000*%
%ADD17R,1.150000X1.000000*%
%ADD18O,1.899920X0.406400*%
%ADD19O,0.406400X1.899920*%
%ADD20R,1.000000X1.700000*%
%ADD21R,0.700000X0.600000*%
%ADD22R,0.700000X1.000000*%
%ADD23R,0.800000X0.750000*%
%ADD24R,0.750000X0.800000*%
%ADD25R,0.600000X1.300000*%
G04 APERTURE END LIST*
D10*
D11*
X18192200Y88683600D03*
X17692200Y88683600D03*
X17192200Y88683600D03*
X16692200Y88683600D03*
X16192200Y88683600D03*
X15692200Y88683600D03*
X15192200Y88683600D03*
X18692200Y88683600D03*
X19192200Y88683600D03*
X20192200Y88683600D03*
X19692200Y88683600D03*
X20692200Y88683600D03*
X19442200Y86983600D03*
X18942200Y86983600D03*
X18442200Y86983600D03*
X17942200Y86983600D03*
X17442200Y86983600D03*
X19942200Y86983600D03*
X20442200Y86983600D03*
X20942200Y86983600D03*
X16942200Y86983600D03*
X16442200Y86983600D03*
X15942200Y86983600D03*
X15442200Y86983600D03*
D12*
X267741400Y1282000D03*
X267741400Y2782000D03*
X253136400Y3163000D03*
X253136400Y1663000D03*
X234165775Y2504375D03*
X234165775Y4004375D03*
X230593900Y2504375D03*
X230593900Y4004375D03*
X206781400Y2504375D03*
X206781400Y4004375D03*
X159156400Y3695000D03*
X159156400Y5195000D03*
X121056400Y2504375D03*
X121056400Y4004375D03*
X117678200Y2475800D03*
X117678200Y3975800D03*
X54381400Y2504375D03*
X54381400Y4004375D03*
X30568900Y2504375D03*
X30568900Y4004375D03*
X6756400Y2504375D03*
X6756400Y4004375D03*
D13*
X275087650Y19923125D03*
X276587650Y19923125D03*
D12*
X254406400Y21554375D03*
X254406400Y23054375D03*
X218687650Y21554375D03*
X218687650Y23054375D03*
X199637650Y21554375D03*
X199637650Y23054375D03*
X180587650Y21554375D03*
X180587650Y23054375D03*
X161537650Y21554375D03*
X161537650Y23054375D03*
X142487650Y21554375D03*
X142487650Y23054375D03*
X123437650Y21554375D03*
X123437650Y23054375D03*
X104387650Y21554375D03*
X104387650Y23054375D03*
X85337650Y21554375D03*
X85337650Y23054375D03*
X66287650Y21554375D03*
X66287650Y23054375D03*
X47237650Y21554375D03*
X47237650Y23054375D03*
X28187650Y21554375D03*
X28187650Y23054375D03*
X6756400Y23935625D03*
X6756400Y25435625D03*
X259168900Y40604375D03*
X259168900Y42104375D03*
X247262650Y40604375D03*
X247262650Y42104375D03*
X228212650Y40604375D03*
X228212650Y42104375D03*
X209162650Y40604375D03*
X209162650Y42104375D03*
X190112650Y40604375D03*
X190112650Y42104375D03*
X171062650Y40604375D03*
X171062650Y42104375D03*
X152012650Y40604375D03*
X152012650Y42104375D03*
X132962650Y40604375D03*
X132962650Y42104375D03*
X113912650Y40604375D03*
X113912650Y42104375D03*
X94862650Y40604375D03*
X94862650Y42104375D03*
X75812650Y40604375D03*
X75812650Y42104375D03*
X56762650Y40604375D03*
X56762650Y42104375D03*
X37712650Y40604375D03*
X37712650Y42104375D03*
X7947025Y42985625D03*
X7947025Y44485625D03*
X266312650Y59654375D03*
X266312650Y61154375D03*
X242500150Y59654375D03*
X242500150Y61154375D03*
X223450150Y59654375D03*
X223450150Y61154375D03*
X204400150Y59654375D03*
X204400150Y61154375D03*
X185350150Y59654375D03*
X185350150Y61154375D03*
X166300150Y59654375D03*
X166300150Y61154375D03*
X147250150Y59654375D03*
X147250150Y61154375D03*
X71050150Y59654375D03*
X71050150Y61154375D03*
X52070000Y60629800D03*
X52070000Y62129800D03*
X32950150Y62035625D03*
X32950150Y63535625D03*
X9137650Y59654375D03*
X9137650Y61154375D03*
X271075150Y78704375D03*
X271075150Y80204375D03*
X250834525Y78704375D03*
X250834525Y80204375D03*
X232975150Y78704375D03*
X232975150Y80204375D03*
X213925150Y78704375D03*
X213925150Y80204375D03*
X194875150Y78704375D03*
X194875150Y80204375D03*
X175825150Y78704375D03*
X175825150Y80204375D03*
X156775150Y78704375D03*
X156775150Y80204375D03*
X137725150Y78704375D03*
X137725150Y80204375D03*
X118675150Y78704375D03*
X118675150Y80204375D03*
X99625150Y78704375D03*
X99625150Y80204375D03*
X80575150Y78704375D03*
X80575150Y80204375D03*
X61525150Y78704375D03*
X61525150Y80204375D03*
X42475150Y78704375D03*
X42475150Y80204375D03*
X23425150Y78704375D03*
X23425150Y80204375D03*
X4375150Y78704375D03*
X4375150Y80204375D03*
D14*
X14231400Y81320000D03*
X14231400Y83220000D03*
D15*
X281790775Y12320000D03*
X281790775Y15620000D03*
X262740775Y12320000D03*
X262740775Y15620000D03*
X243690775Y14701250D03*
X243690775Y18001250D03*
X211543900Y13510625D03*
X211543900Y16810625D03*
X207972025Y13510625D03*
X207972025Y16810625D03*
X155584525Y7557500D03*
X155584525Y10857500D03*
X150822025Y7557500D03*
X150822025Y10857500D03*
X110340775Y8748125D03*
X110340775Y12048125D03*
X69859525Y8748125D03*
X69859525Y12048125D03*
X46047025Y8748125D03*
X46047025Y12048125D03*
X22733000Y12167600D03*
X22733000Y15467600D03*
X281790775Y21845000D03*
X281790775Y25145000D03*
X267503275Y27798125D03*
X267503275Y31098125D03*
X231784525Y27798125D03*
X231784525Y31098125D03*
X212734525Y27798125D03*
X212734525Y31098125D03*
X193684525Y27798125D03*
X193684525Y31098125D03*
X174634525Y27798125D03*
X174634525Y31098125D03*
X155584525Y27798125D03*
X155584525Y31098125D03*
X136534525Y27798125D03*
X136534525Y31098125D03*
X117484525Y27798125D03*
X117484525Y31098125D03*
X98434525Y27798125D03*
X98434525Y31098125D03*
X79384525Y27798125D03*
X79384525Y31098125D03*
X60334525Y27798125D03*
X60334525Y31098125D03*
X41284525Y27798125D03*
X41284525Y31098125D03*
X3184525Y27798125D03*
X3184525Y31098125D03*
X272265775Y45657500D03*
X272265775Y48957500D03*
X259168900Y52801250D03*
X259168900Y56101250D03*
X241309525Y46848125D03*
X241309525Y50148125D03*
X222259525Y46848125D03*
X222259525Y50148125D03*
X203209525Y46848125D03*
X203209525Y50148125D03*
X184159525Y46848125D03*
X184159525Y50148125D03*
X165109525Y46848125D03*
X165109525Y50148125D03*
X146059525Y46848125D03*
X146059525Y50148125D03*
X110832900Y46850300D03*
X110832900Y50150300D03*
X107959525Y46848125D03*
X107959525Y50148125D03*
X88909525Y46848125D03*
X88909525Y50148125D03*
X69859525Y46848125D03*
X69859525Y50148125D03*
X50809525Y46848125D03*
X50809525Y50148125D03*
X21043900Y40895000D03*
X21043900Y44195000D03*
X277028275Y69470000D03*
X277028275Y72770000D03*
X254406400Y68279375D03*
X254406400Y71579375D03*
X236547025Y65898125D03*
X236547025Y69198125D03*
X217497025Y65898125D03*
X217497025Y69198125D03*
X198447025Y65898125D03*
X198447025Y69198125D03*
X179397025Y65898125D03*
X179397025Y69198125D03*
X160347025Y65898125D03*
X160347025Y69198125D03*
X141297025Y65898125D03*
X141297025Y69198125D03*
X122247025Y65898125D03*
X122247025Y69198125D03*
X103197025Y65898125D03*
X103197025Y69198125D03*
X84147025Y65898125D03*
X84147025Y69198125D03*
X65097025Y65898125D03*
X65097025Y69198125D03*
X46047025Y65898125D03*
X46047025Y69198125D03*
X5565775Y69470000D03*
X5565775Y72770000D03*
X281790775Y88520000D03*
X281790775Y91820000D03*
X265709400Y88520000D03*
X265709400Y91820000D03*
X246072025Y84948125D03*
X246072025Y88248125D03*
X227022025Y84948125D03*
X227022025Y88248125D03*
X207972025Y84948125D03*
X207972025Y88248125D03*
D16*
X190421400Y88850000D03*
X187121400Y88850000D03*
D15*
X169872025Y84948125D03*
X169872025Y88248125D03*
X150822025Y84948125D03*
X150822025Y88248125D03*
X131772025Y84948125D03*
X131772025Y88248125D03*
X112722025Y84948125D03*
X112722025Y88248125D03*
X93672025Y84948125D03*
X93672025Y88248125D03*
D16*
X76431400Y88930000D03*
X73131400Y88930000D03*
D15*
X55572025Y84948125D03*
X55572025Y88248125D03*
X36522025Y84948125D03*
X36522025Y88248125D03*
D16*
X4217400Y91440000D03*
X7517400Y91440000D03*
D17*
X44641800Y59958200D03*
X46391800Y59958200D03*
X46391800Y58558200D03*
X44641800Y58558200D03*
D18*
X23663275Y53260625D03*
X23663275Y54060725D03*
X23663275Y54860825D03*
X23663275Y55660925D03*
X23663275Y56461025D03*
X23663275Y57261125D03*
X23663275Y52460525D03*
X23663275Y51660425D03*
X23663275Y50860325D03*
X23663275Y50060225D03*
X23663275Y49260125D03*
X35093275Y53260625D03*
X35093275Y54060725D03*
X35093275Y54860825D03*
X35093275Y55660925D03*
X35093275Y56461025D03*
X35093275Y57261125D03*
X35093275Y52460525D03*
X35093275Y51660425D03*
X35093275Y50860325D03*
X35093275Y50060225D03*
X35093275Y49260125D03*
D19*
X29378275Y58975625D03*
X29378275Y47545625D03*
X30178375Y58975625D03*
X30178375Y47545625D03*
X30978475Y47545625D03*
X30978475Y58975625D03*
X31778575Y58975625D03*
X31778575Y47545625D03*
X32578675Y47545625D03*
X32578675Y58975625D03*
X33378775Y58975625D03*
X33378775Y47545625D03*
X28578175Y47545625D03*
X28578175Y58975625D03*
X27778075Y58975625D03*
X27778075Y47545625D03*
X26977975Y47545625D03*
X26977975Y58975625D03*
X26177875Y58975625D03*
X26177875Y47545625D03*
X25377775Y47545625D03*
X25377775Y58975625D03*
D20*
X26192400Y39726000D03*
X26192400Y33426000D03*
X29992400Y39726000D03*
X29992400Y33426000D03*
D13*
X26781400Y91070000D03*
X25281400Y91070000D03*
D12*
X12065000Y88176800D03*
X12065000Y86676800D03*
X17131400Y78070000D03*
X17131400Y79570000D03*
X19281400Y78070000D03*
X19281400Y79570000D03*
D13*
X40145400Y58166000D03*
X38645400Y58166000D03*
X25365775Y43735625D03*
X23865775Y43735625D03*
X28485400Y43180000D03*
X29985400Y43180000D03*
D12*
X128200150Y59654375D03*
X128200150Y61154375D03*
X109150150Y59654375D03*
X109150150Y61154375D03*
X90100150Y59654375D03*
X90100150Y61154375D03*
D21*
X17181400Y82120000D03*
X19181400Y82120000D03*
X17181400Y84020000D03*
D22*
X19181400Y83820000D03*
D23*
X19103275Y59213750D03*
X20603275Y59213750D03*
X36031400Y45020000D03*
X34531400Y45020000D03*
X19103275Y49688750D03*
X20603275Y49688750D03*
D24*
X19853275Y54891875D03*
X19853275Y56391875D03*
D23*
X39383400Y55880000D03*
X37883400Y55880000D03*
D24*
X30568900Y63535625D03*
X30568900Y62035625D03*
D23*
X46292200Y61620000D03*
X44792200Y61620000D03*
X44811400Y56880000D03*
X46311400Y56880000D03*
D25*
X21107400Y36034000D03*
X22057400Y38134000D03*
X20157400Y38134000D03*
M02*
