G04 #@! TF.FileFunction,Legend,Bot*
%FSLAX46Y46*%
G04 Gerber Fmt 4.6, Leading zero omitted, Abs format (unit mm)*
G04 Created by KiCad (PCBNEW 4.0.7-e2-6376~58~ubuntu16.04.1) date Thu Jun  7 22:08:04 2018*
%MOMM*%
%LPD*%
G01*
G04 APERTURE LIST*
%ADD10C,0.100000*%
%ADD11C,0.150000*%
%ADD12C,0.120000*%
%ADD13C,0.304800*%
%ADD14C,0.203200*%
%ADD15C,0.200000*%
G04 APERTURE END LIST*
D10*
D11*
X125293886Y-68951601D02*
X126043886Y-69201601D01*
X125293886Y-69451601D01*
X125972457Y-70130172D02*
X126008171Y-70094458D01*
X126043886Y-69987315D01*
X126043886Y-69915886D01*
X126008171Y-69808743D01*
X125936743Y-69737315D01*
X125865314Y-69701600D01*
X125722457Y-69665886D01*
X125615314Y-69665886D01*
X125472457Y-69701600D01*
X125401029Y-69737315D01*
X125329600Y-69808743D01*
X125293886Y-69915886D01*
X125293886Y-69987315D01*
X125329600Y-70094458D01*
X125365314Y-70130172D01*
X125972457Y-70880172D02*
X126008171Y-70844458D01*
X126043886Y-70737315D01*
X126043886Y-70665886D01*
X126008171Y-70558743D01*
X125936743Y-70487315D01*
X125865314Y-70451600D01*
X125722457Y-70415886D01*
X125615314Y-70415886D01*
X125472457Y-70451600D01*
X125401029Y-70487315D01*
X125329600Y-70558743D01*
X125293886Y-70665886D01*
X125293886Y-70737315D01*
X125329600Y-70844458D01*
X125365314Y-70880172D01*
X123465786Y-69629786D02*
X123108643Y-69379786D01*
X123465786Y-69201214D02*
X122715786Y-69201214D01*
X122715786Y-69486929D01*
X122751500Y-69558357D01*
X122787214Y-69594072D01*
X122858643Y-69629786D01*
X122965786Y-69629786D01*
X123037214Y-69594072D01*
X123072929Y-69558357D01*
X123108643Y-69486929D01*
X123108643Y-69201214D01*
X123430071Y-69915500D02*
X123465786Y-70022643D01*
X123465786Y-70201214D01*
X123430071Y-70272643D01*
X123394357Y-70308357D01*
X123322929Y-70344072D01*
X123251500Y-70344072D01*
X123180071Y-70308357D01*
X123144357Y-70272643D01*
X123108643Y-70201214D01*
X123072929Y-70058357D01*
X123037214Y-69986929D01*
X123001500Y-69951214D01*
X122930071Y-69915500D01*
X122858643Y-69915500D01*
X122787214Y-69951214D01*
X122751500Y-69986929D01*
X122715786Y-70058357D01*
X122715786Y-70236929D01*
X122751500Y-70344072D01*
X122715786Y-70558358D02*
X122715786Y-70986929D01*
X123465786Y-70772643D02*
X122715786Y-70772643D01*
X120608286Y-68480928D02*
X119858286Y-68480928D01*
X120394000Y-68730928D01*
X119858286Y-68980928D01*
X120608286Y-68980928D01*
X120608286Y-69338071D02*
X119858286Y-69338071D01*
X120572571Y-69659500D02*
X120608286Y-69766643D01*
X120608286Y-69945214D01*
X120572571Y-70016643D01*
X120536857Y-70052357D01*
X120465429Y-70088072D01*
X120394000Y-70088072D01*
X120322571Y-70052357D01*
X120286857Y-70016643D01*
X120251143Y-69945214D01*
X120215429Y-69802357D01*
X120179714Y-69730929D01*
X120144000Y-69695214D01*
X120072571Y-69659500D01*
X120001143Y-69659500D01*
X119929714Y-69695214D01*
X119894000Y-69730929D01*
X119858286Y-69802357D01*
X119858286Y-69980929D01*
X119894000Y-70088072D01*
X119858286Y-70552358D02*
X119858286Y-70695215D01*
X119894000Y-70766643D01*
X119965429Y-70838072D01*
X120108286Y-70873786D01*
X120358286Y-70873786D01*
X120501143Y-70838072D01*
X120572571Y-70766643D01*
X120608286Y-70695215D01*
X120608286Y-70552358D01*
X120572571Y-70480929D01*
X120501143Y-70409500D01*
X120358286Y-70373786D01*
X120108286Y-70373786D01*
X119965429Y-70409500D01*
X119894000Y-70480929D01*
X119858286Y-70552358D01*
X118449286Y-68480928D02*
X117699286Y-68480928D01*
X118235000Y-68730928D01*
X117699286Y-68980928D01*
X118449286Y-68980928D01*
X117699286Y-69480929D02*
X117699286Y-69623786D01*
X117735000Y-69695214D01*
X117806429Y-69766643D01*
X117949286Y-69802357D01*
X118199286Y-69802357D01*
X118342143Y-69766643D01*
X118413571Y-69695214D01*
X118449286Y-69623786D01*
X118449286Y-69480929D01*
X118413571Y-69409500D01*
X118342143Y-69338071D01*
X118199286Y-69302357D01*
X117949286Y-69302357D01*
X117806429Y-69338071D01*
X117735000Y-69409500D01*
X117699286Y-69480929D01*
X118413571Y-70088071D02*
X118449286Y-70195214D01*
X118449286Y-70373785D01*
X118413571Y-70445214D01*
X118377857Y-70480928D01*
X118306429Y-70516643D01*
X118235000Y-70516643D01*
X118163571Y-70480928D01*
X118127857Y-70445214D01*
X118092143Y-70373785D01*
X118056429Y-70230928D01*
X118020714Y-70159500D01*
X117985000Y-70123785D01*
X117913571Y-70088071D01*
X117842143Y-70088071D01*
X117770714Y-70123785D01*
X117735000Y-70159500D01*
X117699286Y-70230928D01*
X117699286Y-70409500D01*
X117735000Y-70516643D01*
X118449286Y-70838071D02*
X117699286Y-70838071D01*
X115873571Y-68328143D02*
X115909286Y-68435286D01*
X115909286Y-68613857D01*
X115873571Y-68685286D01*
X115837857Y-68721000D01*
X115766429Y-68756715D01*
X115695000Y-68756715D01*
X115623571Y-68721000D01*
X115587857Y-68685286D01*
X115552143Y-68613857D01*
X115516429Y-68471000D01*
X115480714Y-68399572D01*
X115445000Y-68363857D01*
X115373571Y-68328143D01*
X115302143Y-68328143D01*
X115230714Y-68363857D01*
X115195000Y-68399572D01*
X115159286Y-68471000D01*
X115159286Y-68649572D01*
X115195000Y-68756715D01*
X115837857Y-69506715D02*
X115873571Y-69471001D01*
X115909286Y-69363858D01*
X115909286Y-69292429D01*
X115873571Y-69185286D01*
X115802143Y-69113858D01*
X115730714Y-69078143D01*
X115587857Y-69042429D01*
X115480714Y-69042429D01*
X115337857Y-69078143D01*
X115266429Y-69113858D01*
X115195000Y-69185286D01*
X115159286Y-69292429D01*
X115159286Y-69363858D01*
X115195000Y-69471001D01*
X115230714Y-69506715D01*
X115909286Y-70185286D02*
X115909286Y-69828143D01*
X115159286Y-69828143D01*
X115909286Y-70435286D02*
X115159286Y-70435286D01*
X115909286Y-70863858D02*
X115480714Y-70542429D01*
X115159286Y-70863858D02*
X115587857Y-70435286D01*
X112655000Y-69278572D02*
X112619286Y-69207143D01*
X112619286Y-69100000D01*
X112655000Y-68992857D01*
X112726429Y-68921429D01*
X112797857Y-68885714D01*
X112940714Y-68850000D01*
X113047857Y-68850000D01*
X113190714Y-68885714D01*
X113262143Y-68921429D01*
X113333571Y-68992857D01*
X113369286Y-69100000D01*
X113369286Y-69171429D01*
X113333571Y-69278572D01*
X113297857Y-69314286D01*
X113047857Y-69314286D01*
X113047857Y-69171429D01*
X113369286Y-69635714D02*
X112619286Y-69635714D01*
X113369286Y-70064286D01*
X112619286Y-70064286D01*
X113369286Y-70421428D02*
X112619286Y-70421428D01*
X112619286Y-70600000D01*
X112655000Y-70707143D01*
X112726429Y-70778571D01*
X112797857Y-70814286D01*
X112940714Y-70850000D01*
X113047857Y-70850000D01*
X113190714Y-70814286D01*
X113262143Y-70778571D01*
X113333571Y-70707143D01*
X113369286Y-70600000D01*
X113369286Y-70421428D01*
X92660800Y-60576400D02*
X93960800Y-60576400D01*
X101660800Y-60576400D02*
X100360800Y-60576400D01*
X101660800Y-50076400D02*
X101660800Y-60576400D01*
X92660800Y-50076400D02*
X101660800Y-50076400D01*
X92660800Y-60576400D02*
X92660800Y-50076400D01*
D12*
X346030000Y-144788000D02*
X346030000Y-145788000D01*
X347390000Y-145788000D02*
X347390000Y-144788000D01*
X332785000Y-145407000D02*
X332785000Y-144407000D01*
X331425000Y-144407000D02*
X331425000Y-145407000D01*
X312454375Y-143565625D02*
X312454375Y-144565625D01*
X313814375Y-144565625D02*
X313814375Y-143565625D01*
X308882500Y-143565625D02*
X308882500Y-144565625D01*
X310242500Y-144565625D02*
X310242500Y-143565625D01*
X285070000Y-143565625D02*
X285070000Y-144565625D01*
X286430000Y-144565625D02*
X286430000Y-143565625D01*
X237445000Y-142375000D02*
X237445000Y-143375000D01*
X238805000Y-143375000D02*
X238805000Y-142375000D01*
X199345000Y-143565625D02*
X199345000Y-144565625D01*
X200705000Y-144565625D02*
X200705000Y-143565625D01*
X195966800Y-143594200D02*
X195966800Y-144594200D01*
X197326800Y-144594200D02*
X197326800Y-143594200D01*
X132670000Y-143565625D02*
X132670000Y-144565625D01*
X134030000Y-144565625D02*
X134030000Y-143565625D01*
X108857500Y-143565625D02*
X108857500Y-144565625D01*
X110217500Y-144565625D02*
X110217500Y-143565625D01*
X85045000Y-143565625D02*
X85045000Y-144565625D01*
X86405000Y-144565625D02*
X86405000Y-143565625D01*
X355306250Y-126716875D02*
X354306250Y-126716875D01*
X354306250Y-128076875D02*
X355306250Y-128076875D01*
X332695000Y-124515625D02*
X332695000Y-125515625D01*
X334055000Y-125515625D02*
X334055000Y-124515625D01*
X296976250Y-124515625D02*
X296976250Y-125515625D01*
X298336250Y-125515625D02*
X298336250Y-124515625D01*
X277926250Y-124515625D02*
X277926250Y-125515625D01*
X279286250Y-125515625D02*
X279286250Y-124515625D01*
X258876250Y-124515625D02*
X258876250Y-125515625D01*
X260236250Y-125515625D02*
X260236250Y-124515625D01*
X239826250Y-124515625D02*
X239826250Y-125515625D01*
X241186250Y-125515625D02*
X241186250Y-124515625D01*
X220776250Y-124515625D02*
X220776250Y-125515625D01*
X222136250Y-125515625D02*
X222136250Y-124515625D01*
X201726250Y-124515625D02*
X201726250Y-125515625D01*
X203086250Y-125515625D02*
X203086250Y-124515625D01*
X182676250Y-124515625D02*
X182676250Y-125515625D01*
X184036250Y-125515625D02*
X184036250Y-124515625D01*
X163626250Y-124515625D02*
X163626250Y-125515625D01*
X164986250Y-125515625D02*
X164986250Y-124515625D01*
X144576250Y-124515625D02*
X144576250Y-125515625D01*
X145936250Y-125515625D02*
X145936250Y-124515625D01*
X125526250Y-124515625D02*
X125526250Y-125515625D01*
X126886250Y-125515625D02*
X126886250Y-124515625D01*
X106476250Y-124515625D02*
X106476250Y-125515625D01*
X107836250Y-125515625D02*
X107836250Y-124515625D01*
X85045000Y-122134375D02*
X85045000Y-123134375D01*
X86405000Y-123134375D02*
X86405000Y-122134375D01*
X337457500Y-105465625D02*
X337457500Y-106465625D01*
X338817500Y-106465625D02*
X338817500Y-105465625D01*
X325551250Y-105465625D02*
X325551250Y-106465625D01*
X326911250Y-106465625D02*
X326911250Y-105465625D01*
X306501250Y-105465625D02*
X306501250Y-106465625D01*
X307861250Y-106465625D02*
X307861250Y-105465625D01*
X287451250Y-105465625D02*
X287451250Y-106465625D01*
X288811250Y-106465625D02*
X288811250Y-105465625D01*
X268401250Y-105465625D02*
X268401250Y-106465625D01*
X269761250Y-106465625D02*
X269761250Y-105465625D01*
X249351250Y-105465625D02*
X249351250Y-106465625D01*
X250711250Y-106465625D02*
X250711250Y-105465625D01*
X230301250Y-105465625D02*
X230301250Y-106465625D01*
X231661250Y-106465625D02*
X231661250Y-105465625D01*
X211251250Y-105465625D02*
X211251250Y-106465625D01*
X212611250Y-106465625D02*
X212611250Y-105465625D01*
X192201250Y-105465625D02*
X192201250Y-106465625D01*
X193561250Y-106465625D02*
X193561250Y-105465625D01*
X173151250Y-105465625D02*
X173151250Y-106465625D01*
X174511250Y-106465625D02*
X174511250Y-105465625D01*
X154101250Y-105465625D02*
X154101250Y-106465625D01*
X155461250Y-106465625D02*
X155461250Y-105465625D01*
X135051250Y-105465625D02*
X135051250Y-106465625D01*
X136411250Y-106465625D02*
X136411250Y-105465625D01*
X116001250Y-105465625D02*
X116001250Y-106465625D01*
X117361250Y-106465625D02*
X117361250Y-105465625D01*
X86235625Y-103084375D02*
X86235625Y-104084375D01*
X87595625Y-104084375D02*
X87595625Y-103084375D01*
X344601250Y-86415625D02*
X344601250Y-87415625D01*
X345961250Y-87415625D02*
X345961250Y-86415625D01*
X320788750Y-86415625D02*
X320788750Y-87415625D01*
X322148750Y-87415625D02*
X322148750Y-86415625D01*
X301738750Y-86415625D02*
X301738750Y-87415625D01*
X303098750Y-87415625D02*
X303098750Y-86415625D01*
X282688750Y-86415625D02*
X282688750Y-87415625D01*
X284048750Y-87415625D02*
X284048750Y-86415625D01*
X263638750Y-86415625D02*
X263638750Y-87415625D01*
X264998750Y-87415625D02*
X264998750Y-86415625D01*
X244588750Y-86415625D02*
X244588750Y-87415625D01*
X245948750Y-87415625D02*
X245948750Y-86415625D01*
X225538750Y-86415625D02*
X225538750Y-87415625D01*
X226898750Y-87415625D02*
X226898750Y-86415625D01*
X149338750Y-86415625D02*
X149338750Y-87415625D01*
X150698750Y-87415625D02*
X150698750Y-86415625D01*
X130288750Y-86415625D02*
X130288750Y-87415625D01*
X131648750Y-87415625D02*
X131648750Y-86415625D01*
X111238750Y-84034375D02*
X111238750Y-85034375D01*
X112598750Y-85034375D02*
X112598750Y-84034375D01*
X87426250Y-86415625D02*
X87426250Y-87415625D01*
X88786250Y-87415625D02*
X88786250Y-86415625D01*
X349363750Y-67365625D02*
X349363750Y-68365625D01*
X350723750Y-68365625D02*
X350723750Y-67365625D01*
X329123125Y-67365625D02*
X329123125Y-68365625D01*
X330483125Y-68365625D02*
X330483125Y-67365625D01*
X311263750Y-67365625D02*
X311263750Y-68365625D01*
X312623750Y-68365625D02*
X312623750Y-67365625D01*
X292213750Y-67365625D02*
X292213750Y-68365625D01*
X293573750Y-68365625D02*
X293573750Y-67365625D01*
X273163750Y-67365625D02*
X273163750Y-68365625D01*
X274523750Y-68365625D02*
X274523750Y-67365625D01*
X254113750Y-67365625D02*
X254113750Y-68365625D01*
X255473750Y-68365625D02*
X255473750Y-67365625D01*
X235063750Y-67365625D02*
X235063750Y-68365625D01*
X236423750Y-68365625D02*
X236423750Y-67365625D01*
X216013750Y-67365625D02*
X216013750Y-68365625D01*
X217373750Y-68365625D02*
X217373750Y-67365625D01*
X196963750Y-67365625D02*
X196963750Y-68365625D01*
X198323750Y-68365625D02*
X198323750Y-67365625D01*
X177913750Y-67365625D02*
X177913750Y-68365625D01*
X179273750Y-68365625D02*
X179273750Y-67365625D01*
X158863750Y-67365625D02*
X158863750Y-68365625D01*
X160223750Y-68365625D02*
X160223750Y-67365625D01*
X139813750Y-67365625D02*
X139813750Y-68365625D01*
X141173750Y-68365625D02*
X141173750Y-67365625D01*
X120763750Y-67365625D02*
X120763750Y-68365625D01*
X122123750Y-68365625D02*
X122123750Y-67365625D01*
X101713750Y-67365625D02*
X101713750Y-68365625D01*
X103073750Y-68365625D02*
X103073750Y-67365625D01*
X82663750Y-67365625D02*
X82663750Y-68365625D01*
X84023750Y-68365625D02*
X84023750Y-67365625D01*
X92320000Y-64450000D02*
X92320000Y-65650000D01*
X94080000Y-65650000D02*
X94080000Y-64450000D01*
X361759375Y-135600000D02*
X359759375Y-135600000D01*
X359759375Y-135600000D02*
X359759375Y-131700000D01*
X361759375Y-135600000D02*
X361759375Y-131700000D01*
X342709375Y-135600000D02*
X340709375Y-135600000D01*
X340709375Y-135600000D02*
X340709375Y-131700000D01*
X342709375Y-135600000D02*
X342709375Y-131700000D01*
X323659375Y-133218750D02*
X321659375Y-133218750D01*
X321659375Y-133218750D02*
X321659375Y-129318750D01*
X323659375Y-133218750D02*
X323659375Y-129318750D01*
X291512500Y-134409375D02*
X289512500Y-134409375D01*
X289512500Y-134409375D02*
X289512500Y-130509375D01*
X291512500Y-134409375D02*
X291512500Y-130509375D01*
X287940625Y-134409375D02*
X285940625Y-134409375D01*
X285940625Y-134409375D02*
X285940625Y-130509375D01*
X287940625Y-134409375D02*
X287940625Y-130509375D01*
X235553125Y-140362500D02*
X233553125Y-140362500D01*
X233553125Y-140362500D02*
X233553125Y-136462500D01*
X235553125Y-140362500D02*
X235553125Y-136462500D01*
X230790625Y-140362500D02*
X228790625Y-140362500D01*
X228790625Y-140362500D02*
X228790625Y-136462500D01*
X230790625Y-140362500D02*
X230790625Y-136462500D01*
X190309375Y-139171875D02*
X188309375Y-139171875D01*
X188309375Y-139171875D02*
X188309375Y-135271875D01*
X190309375Y-139171875D02*
X190309375Y-135271875D01*
X149828125Y-139171875D02*
X147828125Y-139171875D01*
X147828125Y-139171875D02*
X147828125Y-135271875D01*
X149828125Y-139171875D02*
X149828125Y-135271875D01*
X126015625Y-139171875D02*
X124015625Y-139171875D01*
X124015625Y-139171875D02*
X124015625Y-135271875D01*
X126015625Y-139171875D02*
X126015625Y-135271875D01*
X102701600Y-135752400D02*
X100701600Y-135752400D01*
X100701600Y-135752400D02*
X100701600Y-131852400D01*
X102701600Y-135752400D02*
X102701600Y-131852400D01*
X361759375Y-126075000D02*
X359759375Y-126075000D01*
X359759375Y-126075000D02*
X359759375Y-122175000D01*
X361759375Y-126075000D02*
X361759375Y-122175000D01*
X347471875Y-120121875D02*
X345471875Y-120121875D01*
X345471875Y-120121875D02*
X345471875Y-116221875D01*
X347471875Y-120121875D02*
X347471875Y-116221875D01*
X311753125Y-120121875D02*
X309753125Y-120121875D01*
X309753125Y-120121875D02*
X309753125Y-116221875D01*
X311753125Y-120121875D02*
X311753125Y-116221875D01*
X292703125Y-120121875D02*
X290703125Y-120121875D01*
X290703125Y-120121875D02*
X290703125Y-116221875D01*
X292703125Y-120121875D02*
X292703125Y-116221875D01*
X273653125Y-120121875D02*
X271653125Y-120121875D01*
X271653125Y-120121875D02*
X271653125Y-116221875D01*
X273653125Y-120121875D02*
X273653125Y-116221875D01*
X254603125Y-120121875D02*
X252603125Y-120121875D01*
X252603125Y-120121875D02*
X252603125Y-116221875D01*
X254603125Y-120121875D02*
X254603125Y-116221875D01*
X235553125Y-120121875D02*
X233553125Y-120121875D01*
X233553125Y-120121875D02*
X233553125Y-116221875D01*
X235553125Y-120121875D02*
X235553125Y-116221875D01*
X216503125Y-120121875D02*
X214503125Y-120121875D01*
X214503125Y-120121875D02*
X214503125Y-116221875D01*
X216503125Y-120121875D02*
X216503125Y-116221875D01*
X197453125Y-120121875D02*
X195453125Y-120121875D01*
X195453125Y-120121875D02*
X195453125Y-116221875D01*
X197453125Y-120121875D02*
X197453125Y-116221875D01*
X178403125Y-120121875D02*
X176403125Y-120121875D01*
X176403125Y-120121875D02*
X176403125Y-116221875D01*
X178403125Y-120121875D02*
X178403125Y-116221875D01*
X159353125Y-120121875D02*
X157353125Y-120121875D01*
X157353125Y-120121875D02*
X157353125Y-116221875D01*
X159353125Y-120121875D02*
X159353125Y-116221875D01*
X140303125Y-120121875D02*
X138303125Y-120121875D01*
X138303125Y-120121875D02*
X138303125Y-116221875D01*
X140303125Y-120121875D02*
X140303125Y-116221875D01*
X121253125Y-120121875D02*
X119253125Y-120121875D01*
X119253125Y-120121875D02*
X119253125Y-116221875D01*
X121253125Y-120121875D02*
X121253125Y-116221875D01*
X83153125Y-120121875D02*
X81153125Y-120121875D01*
X81153125Y-120121875D02*
X81153125Y-116221875D01*
X83153125Y-120121875D02*
X83153125Y-116221875D01*
X352234375Y-102262500D02*
X350234375Y-102262500D01*
X350234375Y-102262500D02*
X350234375Y-98362500D01*
X352234375Y-102262500D02*
X352234375Y-98362500D01*
X339137500Y-95118750D02*
X337137500Y-95118750D01*
X337137500Y-95118750D02*
X337137500Y-91218750D01*
X339137500Y-95118750D02*
X339137500Y-91218750D01*
X321278125Y-101071875D02*
X319278125Y-101071875D01*
X319278125Y-101071875D02*
X319278125Y-97171875D01*
X321278125Y-101071875D02*
X321278125Y-97171875D01*
X302228125Y-101071875D02*
X300228125Y-101071875D01*
X300228125Y-101071875D02*
X300228125Y-97171875D01*
X302228125Y-101071875D02*
X302228125Y-97171875D01*
X283178125Y-101071875D02*
X281178125Y-101071875D01*
X281178125Y-101071875D02*
X281178125Y-97171875D01*
X283178125Y-101071875D02*
X283178125Y-97171875D01*
X264128125Y-101071875D02*
X262128125Y-101071875D01*
X262128125Y-101071875D02*
X262128125Y-97171875D01*
X264128125Y-101071875D02*
X264128125Y-97171875D01*
X245078125Y-101071875D02*
X243078125Y-101071875D01*
X243078125Y-101071875D02*
X243078125Y-97171875D01*
X245078125Y-101071875D02*
X245078125Y-97171875D01*
X226028125Y-101071875D02*
X224028125Y-101071875D01*
X224028125Y-101071875D02*
X224028125Y-97171875D01*
X226028125Y-101071875D02*
X226028125Y-97171875D01*
X190801500Y-101069700D02*
X188801500Y-101069700D01*
X188801500Y-101069700D02*
X188801500Y-97169700D01*
X190801500Y-101069700D02*
X190801500Y-97169700D01*
X187928125Y-101071875D02*
X185928125Y-101071875D01*
X185928125Y-101071875D02*
X185928125Y-97171875D01*
X187928125Y-101071875D02*
X187928125Y-97171875D01*
X168878125Y-101071875D02*
X166878125Y-101071875D01*
X166878125Y-101071875D02*
X166878125Y-97171875D01*
X168878125Y-101071875D02*
X168878125Y-97171875D01*
X149828125Y-101071875D02*
X147828125Y-101071875D01*
X147828125Y-101071875D02*
X147828125Y-97171875D01*
X149828125Y-101071875D02*
X149828125Y-97171875D01*
X130778125Y-101071875D02*
X128778125Y-101071875D01*
X128778125Y-101071875D02*
X128778125Y-97171875D01*
X130778125Y-101071875D02*
X130778125Y-97171875D01*
X101012500Y-107025000D02*
X99012500Y-107025000D01*
X99012500Y-107025000D02*
X99012500Y-103125000D01*
X101012500Y-107025000D02*
X101012500Y-103125000D01*
X356996875Y-78450000D02*
X354996875Y-78450000D01*
X354996875Y-78450000D02*
X354996875Y-74550000D01*
X356996875Y-78450000D02*
X356996875Y-74550000D01*
X334375000Y-79640625D02*
X332375000Y-79640625D01*
X332375000Y-79640625D02*
X332375000Y-75740625D01*
X334375000Y-79640625D02*
X334375000Y-75740625D01*
X316515625Y-82021875D02*
X314515625Y-82021875D01*
X314515625Y-82021875D02*
X314515625Y-78121875D01*
X316515625Y-82021875D02*
X316515625Y-78121875D01*
X297465625Y-82021875D02*
X295465625Y-82021875D01*
X295465625Y-82021875D02*
X295465625Y-78121875D01*
X297465625Y-82021875D02*
X297465625Y-78121875D01*
X278415625Y-82021875D02*
X276415625Y-82021875D01*
X276415625Y-82021875D02*
X276415625Y-78121875D01*
X278415625Y-82021875D02*
X278415625Y-78121875D01*
X259365625Y-82021875D02*
X257365625Y-82021875D01*
X257365625Y-82021875D02*
X257365625Y-78121875D01*
X259365625Y-82021875D02*
X259365625Y-78121875D01*
X240315625Y-82021875D02*
X238315625Y-82021875D01*
X238315625Y-82021875D02*
X238315625Y-78121875D01*
X240315625Y-82021875D02*
X240315625Y-78121875D01*
X221265625Y-82021875D02*
X219265625Y-82021875D01*
X219265625Y-82021875D02*
X219265625Y-78121875D01*
X221265625Y-82021875D02*
X221265625Y-78121875D01*
X202215625Y-82021875D02*
X200215625Y-82021875D01*
X200215625Y-82021875D02*
X200215625Y-78121875D01*
X202215625Y-82021875D02*
X202215625Y-78121875D01*
X183165625Y-82021875D02*
X181165625Y-82021875D01*
X181165625Y-82021875D02*
X181165625Y-78121875D01*
X183165625Y-82021875D02*
X183165625Y-78121875D01*
X164115625Y-82021875D02*
X162115625Y-82021875D01*
X162115625Y-82021875D02*
X162115625Y-78121875D01*
X164115625Y-82021875D02*
X164115625Y-78121875D01*
X145065625Y-82021875D02*
X143065625Y-82021875D01*
X143065625Y-82021875D02*
X143065625Y-78121875D01*
X145065625Y-82021875D02*
X145065625Y-78121875D01*
X126015625Y-82021875D02*
X124015625Y-82021875D01*
X124015625Y-82021875D02*
X124015625Y-78121875D01*
X126015625Y-82021875D02*
X126015625Y-78121875D01*
X85534375Y-78450000D02*
X83534375Y-78450000D01*
X83534375Y-78450000D02*
X83534375Y-74550000D01*
X85534375Y-78450000D02*
X85534375Y-74550000D01*
X361759375Y-59400000D02*
X359759375Y-59400000D01*
X359759375Y-59400000D02*
X359759375Y-55500000D01*
X361759375Y-59400000D02*
X361759375Y-55500000D01*
X345678000Y-59400000D02*
X343678000Y-59400000D01*
X343678000Y-59400000D02*
X343678000Y-55500000D01*
X345678000Y-59400000D02*
X345678000Y-55500000D01*
X326040625Y-62971875D02*
X324040625Y-62971875D01*
X324040625Y-62971875D02*
X324040625Y-59071875D01*
X326040625Y-62971875D02*
X326040625Y-59071875D01*
X306990625Y-62971875D02*
X304990625Y-62971875D01*
X304990625Y-62971875D02*
X304990625Y-59071875D01*
X306990625Y-62971875D02*
X306990625Y-59071875D01*
X287940625Y-62971875D02*
X285940625Y-62971875D01*
X285940625Y-62971875D02*
X285940625Y-59071875D01*
X287940625Y-62971875D02*
X287940625Y-59071875D01*
X268890625Y-62971875D02*
X266890625Y-62971875D01*
X266890625Y-62971875D02*
X266890625Y-59071875D01*
X268890625Y-62971875D02*
X268890625Y-59071875D01*
X249840625Y-62971875D02*
X247840625Y-62971875D01*
X247840625Y-62971875D02*
X247840625Y-59071875D01*
X249840625Y-62971875D02*
X249840625Y-59071875D01*
X230790625Y-62971875D02*
X228790625Y-62971875D01*
X228790625Y-62971875D02*
X228790625Y-59071875D01*
X230790625Y-62971875D02*
X230790625Y-59071875D01*
X211740625Y-62971875D02*
X209740625Y-62971875D01*
X209740625Y-62971875D02*
X209740625Y-59071875D01*
X211740625Y-62971875D02*
X211740625Y-59071875D01*
X192690625Y-62971875D02*
X190690625Y-62971875D01*
X190690625Y-62971875D02*
X190690625Y-59071875D01*
X192690625Y-62971875D02*
X192690625Y-59071875D01*
X173640625Y-62971875D02*
X171640625Y-62971875D01*
X171640625Y-62971875D02*
X171640625Y-59071875D01*
X173640625Y-62971875D02*
X173640625Y-59071875D01*
X154590625Y-62971875D02*
X152590625Y-62971875D01*
X152590625Y-62971875D02*
X152590625Y-59071875D01*
X154590625Y-62971875D02*
X154590625Y-59071875D01*
X135540625Y-62971875D02*
X133540625Y-62971875D01*
X133540625Y-62971875D02*
X133540625Y-59071875D01*
X135540625Y-62971875D02*
X135540625Y-59071875D01*
X116490625Y-62971875D02*
X114490625Y-62971875D01*
X114490625Y-62971875D02*
X114490625Y-59071875D01*
X116490625Y-62971875D02*
X116490625Y-59071875D01*
X82586000Y-56880000D02*
X82586000Y-54880000D01*
X82586000Y-54880000D02*
X86486000Y-54880000D01*
X82586000Y-56880000D02*
X86486000Y-56880000D01*
X122835400Y-89461800D02*
X122835400Y-86661800D01*
X122835400Y-86661800D02*
X126135400Y-86661800D01*
D13*
X103343075Y-99063175D02*
X113350675Y-99063175D01*
X113350675Y-99063175D02*
X113350675Y-89055575D01*
X103825675Y-89055575D02*
X113350675Y-89055575D01*
X103343075Y-89538175D02*
X103343075Y-99063175D01*
X103825675Y-89055575D02*
X103343075Y-89538175D01*
D14*
X105171875Y-90249375D02*
G75*
G03X105171875Y-90249375I-635000J0D01*
G01*
D12*
X109361000Y-109044000D02*
X109811000Y-109494000D01*
X109361000Y-112444000D02*
X109811000Y-111994000D01*
X104761000Y-112444000D02*
X104311000Y-111994000D01*
X104761000Y-109044000D02*
X104311000Y-109494000D01*
X106061000Y-113494000D02*
X108061000Y-113494000D01*
X109811000Y-109494000D02*
X109811000Y-111994000D01*
X106061000Y-107994000D02*
X108061000Y-107994000D01*
X104311000Y-109494000D02*
X104311000Y-111994000D01*
X104500000Y-56930000D02*
X105500000Y-56930000D01*
X105500000Y-55570000D02*
X104500000Y-55570000D01*
X91713600Y-60393200D02*
X91713600Y-59393200D01*
X90353600Y-59393200D02*
X90353600Y-60393200D01*
X95420000Y-68000000D02*
X95420000Y-69000000D01*
X96780000Y-69000000D02*
X96780000Y-68000000D01*
X97570000Y-68000000D02*
X97570000Y-69000000D01*
X98930000Y-69000000D02*
X98930000Y-68000000D01*
X117864000Y-89834000D02*
X118864000Y-89834000D01*
X118864000Y-88474000D02*
X117864000Y-88474000D01*
X103084375Y-104264375D02*
X104084375Y-104264375D01*
X104084375Y-102904375D02*
X103084375Y-102904375D01*
X108704000Y-103460000D02*
X107704000Y-103460000D01*
X107704000Y-104820000D02*
X108704000Y-104820000D01*
X206488750Y-86415625D02*
X206488750Y-87415625D01*
X207848750Y-87415625D02*
X207848750Y-86415625D01*
X187438750Y-86415625D02*
X187438750Y-87415625D01*
X188798750Y-87415625D02*
X188798750Y-86415625D01*
X168388750Y-86415625D02*
X168388750Y-87415625D01*
X169748750Y-87415625D02*
X169748750Y-86415625D01*
D11*
X97800000Y-65700000D02*
X96500000Y-65700000D01*
X97800000Y-62800000D02*
X97800000Y-65700000D01*
X96500000Y-62800000D02*
X97800000Y-62800000D01*
X96500000Y-62800000D02*
X96500000Y-65700000D01*
D12*
X98471875Y-88706250D02*
X99171875Y-88706250D01*
X99171875Y-87506250D02*
X98471875Y-87506250D01*
X114600000Y-101700000D02*
X113900000Y-101700000D01*
X113900000Y-102900000D02*
X114600000Y-102900000D01*
X98471875Y-98231250D02*
X99171875Y-98231250D01*
X99171875Y-97031250D02*
X98471875Y-97031250D01*
X99421875Y-92028125D02*
X99421875Y-91328125D01*
X98221875Y-91328125D02*
X98221875Y-92028125D01*
X117952000Y-90840000D02*
X117252000Y-90840000D01*
X117252000Y-92040000D02*
X117952000Y-92040000D01*
X108937500Y-84184375D02*
X108937500Y-84884375D01*
X110137500Y-84884375D02*
X110137500Y-84184375D01*
X124860800Y-85277400D02*
X124160800Y-85277400D01*
X124160800Y-86477400D02*
X124860800Y-86477400D01*
X124186200Y-90871600D02*
X124886200Y-90871600D01*
X124886200Y-89671600D02*
X124186200Y-89671600D01*
X124434600Y-73847000D02*
X111674600Y-73847000D01*
X111674600Y-73847000D02*
X111674600Y-71187000D01*
X111674600Y-71187000D02*
X124434600Y-71187000D01*
X124434600Y-71187000D02*
X124434600Y-73847000D01*
X125704600Y-73847000D02*
X127034600Y-73847000D01*
X127034600Y-73847000D02*
X127034600Y-72517000D01*
D10*
X98426000Y-110061000D02*
X98426000Y-109786000D01*
X98426000Y-109786000D02*
X98701000Y-109411000D01*
X98701000Y-109411000D02*
X98751000Y-109411000D01*
X98751000Y-109411000D02*
X98751000Y-108636000D01*
X101726000Y-109886000D02*
X101726000Y-109411000D01*
X101726000Y-109411000D02*
X101376000Y-109411000D01*
X101501000Y-111061000D02*
X101376000Y-111061000D01*
X101426000Y-111061000D02*
X101726000Y-111061000D01*
X101726000Y-111061000D02*
X101726000Y-110611000D01*
X98426000Y-110686000D02*
X98426000Y-111061000D01*
X98426000Y-111061000D02*
X98726000Y-111061000D01*
D11*
X98898895Y-61328781D02*
X98898895Y-62138305D01*
X98851276Y-62233543D01*
X98803657Y-62281162D01*
X98708419Y-62328781D01*
X98517942Y-62328781D01*
X98422704Y-62281162D01*
X98375085Y-62233543D01*
X98327466Y-62138305D01*
X98327466Y-61328781D01*
X97898895Y-62281162D02*
X97756038Y-62328781D01*
X97517942Y-62328781D01*
X97422704Y-62281162D01*
X97375085Y-62233543D01*
X97327466Y-62138305D01*
X97327466Y-62043067D01*
X97375085Y-61947829D01*
X97422704Y-61900210D01*
X97517942Y-61852590D01*
X97708419Y-61804971D01*
X97803657Y-61757352D01*
X97851276Y-61709733D01*
X97898895Y-61614495D01*
X97898895Y-61519257D01*
X97851276Y-61424019D01*
X97803657Y-61376400D01*
X97708419Y-61328781D01*
X97470323Y-61328781D01*
X97327466Y-61376400D01*
X96565561Y-61804971D02*
X96422704Y-61852590D01*
X96375085Y-61900210D01*
X96327466Y-61995448D01*
X96327466Y-62138305D01*
X96375085Y-62233543D01*
X96422704Y-62281162D01*
X96517942Y-62328781D01*
X96898895Y-62328781D01*
X96898895Y-61328781D01*
X96565561Y-61328781D01*
X96470323Y-61376400D01*
X96422704Y-61424019D01*
X96375085Y-61519257D01*
X96375085Y-61614495D01*
X96422704Y-61709733D01*
X96470323Y-61757352D01*
X96565561Y-61804971D01*
X96898895Y-61804971D01*
X95375085Y-62328781D02*
X95946514Y-62328781D01*
X95660800Y-62328781D02*
X95660800Y-61328781D01*
X95756038Y-61471638D01*
X95851276Y-61566876D01*
X95946514Y-61614495D01*
X348612381Y-144645143D02*
X348136190Y-144311809D01*
X348612381Y-144073714D02*
X347612381Y-144073714D01*
X347612381Y-144454667D01*
X347660000Y-144549905D01*
X347707619Y-144597524D01*
X347802857Y-144645143D01*
X347945714Y-144645143D01*
X348040952Y-144597524D01*
X348088571Y-144549905D01*
X348136190Y-144454667D01*
X348136190Y-144073714D01*
X347612381Y-145502286D02*
X347612381Y-145311809D01*
X347660000Y-145216571D01*
X347707619Y-145168952D01*
X347850476Y-145073714D01*
X348040952Y-145026095D01*
X348421905Y-145026095D01*
X348517143Y-145073714D01*
X348564762Y-145121333D01*
X348612381Y-145216571D01*
X348612381Y-145407048D01*
X348564762Y-145502286D01*
X348517143Y-145549905D01*
X348421905Y-145597524D01*
X348183810Y-145597524D01*
X348088571Y-145549905D01*
X348040952Y-145502286D01*
X347993333Y-145407048D01*
X347993333Y-145216571D01*
X348040952Y-145121333D01*
X348088571Y-145073714D01*
X348183810Y-145026095D01*
X348040952Y-146168952D02*
X347993333Y-146073714D01*
X347945714Y-146026095D01*
X347850476Y-145978476D01*
X347802857Y-145978476D01*
X347707619Y-146026095D01*
X347660000Y-146073714D01*
X347612381Y-146168952D01*
X347612381Y-146359429D01*
X347660000Y-146454667D01*
X347707619Y-146502286D01*
X347802857Y-146549905D01*
X347850476Y-146549905D01*
X347945714Y-146502286D01*
X347993333Y-146454667D01*
X348040952Y-146359429D01*
X348040952Y-146168952D01*
X348088571Y-146073714D01*
X348136190Y-146026095D01*
X348231429Y-145978476D01*
X348421905Y-145978476D01*
X348517143Y-146026095D01*
X348564762Y-146073714D01*
X348612381Y-146168952D01*
X348612381Y-146359429D01*
X348564762Y-146454667D01*
X348517143Y-146502286D01*
X348421905Y-146549905D01*
X348231429Y-146549905D01*
X348136190Y-146502286D01*
X348088571Y-146454667D01*
X348040952Y-146359429D01*
X331107381Y-144264143D02*
X330631190Y-143930809D01*
X331107381Y-143692714D02*
X330107381Y-143692714D01*
X330107381Y-144073667D01*
X330155000Y-144168905D01*
X330202619Y-144216524D01*
X330297857Y-144264143D01*
X330440714Y-144264143D01*
X330535952Y-144216524D01*
X330583571Y-144168905D01*
X330631190Y-144073667D01*
X330631190Y-143692714D01*
X330107381Y-145121286D02*
X330107381Y-144930809D01*
X330155000Y-144835571D01*
X330202619Y-144787952D01*
X330345476Y-144692714D01*
X330535952Y-144645095D01*
X330916905Y-144645095D01*
X331012143Y-144692714D01*
X331059762Y-144740333D01*
X331107381Y-144835571D01*
X331107381Y-145026048D01*
X331059762Y-145121286D01*
X331012143Y-145168905D01*
X330916905Y-145216524D01*
X330678810Y-145216524D01*
X330583571Y-145168905D01*
X330535952Y-145121286D01*
X330488333Y-145026048D01*
X330488333Y-144835571D01*
X330535952Y-144740333D01*
X330583571Y-144692714D01*
X330678810Y-144645095D01*
X330107381Y-145549857D02*
X330107381Y-146216524D01*
X331107381Y-145787952D01*
X315036756Y-143422768D02*
X314560565Y-143089434D01*
X315036756Y-142851339D02*
X314036756Y-142851339D01*
X314036756Y-143232292D01*
X314084375Y-143327530D01*
X314131994Y-143375149D01*
X314227232Y-143422768D01*
X314370089Y-143422768D01*
X314465327Y-143375149D01*
X314512946Y-143327530D01*
X314560565Y-143232292D01*
X314560565Y-142851339D01*
X314036756Y-144279911D02*
X314036756Y-144089434D01*
X314084375Y-143994196D01*
X314131994Y-143946577D01*
X314274851Y-143851339D01*
X314465327Y-143803720D01*
X314846280Y-143803720D01*
X314941518Y-143851339D01*
X314989137Y-143898958D01*
X315036756Y-143994196D01*
X315036756Y-144184673D01*
X314989137Y-144279911D01*
X314941518Y-144327530D01*
X314846280Y-144375149D01*
X314608185Y-144375149D01*
X314512946Y-144327530D01*
X314465327Y-144279911D01*
X314417708Y-144184673D01*
X314417708Y-143994196D01*
X314465327Y-143898958D01*
X314512946Y-143851339D01*
X314608185Y-143803720D01*
X314036756Y-145232292D02*
X314036756Y-145041815D01*
X314084375Y-144946577D01*
X314131994Y-144898958D01*
X314274851Y-144803720D01*
X314465327Y-144756101D01*
X314846280Y-144756101D01*
X314941518Y-144803720D01*
X314989137Y-144851339D01*
X315036756Y-144946577D01*
X315036756Y-145137054D01*
X314989137Y-145232292D01*
X314941518Y-145279911D01*
X314846280Y-145327530D01*
X314608185Y-145327530D01*
X314512946Y-145279911D01*
X314465327Y-145232292D01*
X314417708Y-145137054D01*
X314417708Y-144946577D01*
X314465327Y-144851339D01*
X314512946Y-144803720D01*
X314608185Y-144756101D01*
X311464881Y-143422768D02*
X310988690Y-143089434D01*
X311464881Y-142851339D02*
X310464881Y-142851339D01*
X310464881Y-143232292D01*
X310512500Y-143327530D01*
X310560119Y-143375149D01*
X310655357Y-143422768D01*
X310798214Y-143422768D01*
X310893452Y-143375149D01*
X310941071Y-143327530D01*
X310988690Y-143232292D01*
X310988690Y-142851339D01*
X310464881Y-144279911D02*
X310464881Y-144089434D01*
X310512500Y-143994196D01*
X310560119Y-143946577D01*
X310702976Y-143851339D01*
X310893452Y-143803720D01*
X311274405Y-143803720D01*
X311369643Y-143851339D01*
X311417262Y-143898958D01*
X311464881Y-143994196D01*
X311464881Y-144184673D01*
X311417262Y-144279911D01*
X311369643Y-144327530D01*
X311274405Y-144375149D01*
X311036310Y-144375149D01*
X310941071Y-144327530D01*
X310893452Y-144279911D01*
X310845833Y-144184673D01*
X310845833Y-143994196D01*
X310893452Y-143898958D01*
X310941071Y-143851339D01*
X311036310Y-143803720D01*
X310464881Y-145279911D02*
X310464881Y-144803720D01*
X310941071Y-144756101D01*
X310893452Y-144803720D01*
X310845833Y-144898958D01*
X310845833Y-145137054D01*
X310893452Y-145232292D01*
X310941071Y-145279911D01*
X311036310Y-145327530D01*
X311274405Y-145327530D01*
X311369643Y-145279911D01*
X311417262Y-145232292D01*
X311464881Y-145137054D01*
X311464881Y-144898958D01*
X311417262Y-144803720D01*
X311369643Y-144756101D01*
X287652381Y-143422768D02*
X287176190Y-143089434D01*
X287652381Y-142851339D02*
X286652381Y-142851339D01*
X286652381Y-143232292D01*
X286700000Y-143327530D01*
X286747619Y-143375149D01*
X286842857Y-143422768D01*
X286985714Y-143422768D01*
X287080952Y-143375149D01*
X287128571Y-143327530D01*
X287176190Y-143232292D01*
X287176190Y-142851339D01*
X286652381Y-144279911D02*
X286652381Y-144089434D01*
X286700000Y-143994196D01*
X286747619Y-143946577D01*
X286890476Y-143851339D01*
X287080952Y-143803720D01*
X287461905Y-143803720D01*
X287557143Y-143851339D01*
X287604762Y-143898958D01*
X287652381Y-143994196D01*
X287652381Y-144184673D01*
X287604762Y-144279911D01*
X287557143Y-144327530D01*
X287461905Y-144375149D01*
X287223810Y-144375149D01*
X287128571Y-144327530D01*
X287080952Y-144279911D01*
X287033333Y-144184673D01*
X287033333Y-143994196D01*
X287080952Y-143898958D01*
X287128571Y-143851339D01*
X287223810Y-143803720D01*
X286985714Y-145232292D02*
X287652381Y-145232292D01*
X286604762Y-144994196D02*
X287319048Y-144756101D01*
X287319048Y-145375149D01*
X240027381Y-142232143D02*
X239551190Y-141898809D01*
X240027381Y-141660714D02*
X239027381Y-141660714D01*
X239027381Y-142041667D01*
X239075000Y-142136905D01*
X239122619Y-142184524D01*
X239217857Y-142232143D01*
X239360714Y-142232143D01*
X239455952Y-142184524D01*
X239503571Y-142136905D01*
X239551190Y-142041667D01*
X239551190Y-141660714D01*
X239027381Y-143089286D02*
X239027381Y-142898809D01*
X239075000Y-142803571D01*
X239122619Y-142755952D01*
X239265476Y-142660714D01*
X239455952Y-142613095D01*
X239836905Y-142613095D01*
X239932143Y-142660714D01*
X239979762Y-142708333D01*
X240027381Y-142803571D01*
X240027381Y-142994048D01*
X239979762Y-143089286D01*
X239932143Y-143136905D01*
X239836905Y-143184524D01*
X239598810Y-143184524D01*
X239503571Y-143136905D01*
X239455952Y-143089286D01*
X239408333Y-142994048D01*
X239408333Y-142803571D01*
X239455952Y-142708333D01*
X239503571Y-142660714D01*
X239598810Y-142613095D01*
X239027381Y-143517857D02*
X239027381Y-144136905D01*
X239408333Y-143803571D01*
X239408333Y-143946429D01*
X239455952Y-144041667D01*
X239503571Y-144089286D01*
X239598810Y-144136905D01*
X239836905Y-144136905D01*
X239932143Y-144089286D01*
X239979762Y-144041667D01*
X240027381Y-143946429D01*
X240027381Y-143660714D01*
X239979762Y-143565476D01*
X239932143Y-143517857D01*
X201927381Y-143422768D02*
X201451190Y-143089434D01*
X201927381Y-142851339D02*
X200927381Y-142851339D01*
X200927381Y-143232292D01*
X200975000Y-143327530D01*
X201022619Y-143375149D01*
X201117857Y-143422768D01*
X201260714Y-143422768D01*
X201355952Y-143375149D01*
X201403571Y-143327530D01*
X201451190Y-143232292D01*
X201451190Y-142851339D01*
X200927381Y-144279911D02*
X200927381Y-144089434D01*
X200975000Y-143994196D01*
X201022619Y-143946577D01*
X201165476Y-143851339D01*
X201355952Y-143803720D01*
X201736905Y-143803720D01*
X201832143Y-143851339D01*
X201879762Y-143898958D01*
X201927381Y-143994196D01*
X201927381Y-144184673D01*
X201879762Y-144279911D01*
X201832143Y-144327530D01*
X201736905Y-144375149D01*
X201498810Y-144375149D01*
X201403571Y-144327530D01*
X201355952Y-144279911D01*
X201308333Y-144184673D01*
X201308333Y-143994196D01*
X201355952Y-143898958D01*
X201403571Y-143851339D01*
X201498810Y-143803720D01*
X201022619Y-144756101D02*
X200975000Y-144803720D01*
X200927381Y-144898958D01*
X200927381Y-145137054D01*
X200975000Y-145232292D01*
X201022619Y-145279911D01*
X201117857Y-145327530D01*
X201213095Y-145327530D01*
X201355952Y-145279911D01*
X201927381Y-144708482D01*
X201927381Y-145327530D01*
X198549181Y-143451343D02*
X198072990Y-143118009D01*
X198549181Y-142879914D02*
X197549181Y-142879914D01*
X197549181Y-143260867D01*
X197596800Y-143356105D01*
X197644419Y-143403724D01*
X197739657Y-143451343D01*
X197882514Y-143451343D01*
X197977752Y-143403724D01*
X198025371Y-143356105D01*
X198072990Y-143260867D01*
X198072990Y-142879914D01*
X197549181Y-144308486D02*
X197549181Y-144118009D01*
X197596800Y-144022771D01*
X197644419Y-143975152D01*
X197787276Y-143879914D01*
X197977752Y-143832295D01*
X198358705Y-143832295D01*
X198453943Y-143879914D01*
X198501562Y-143927533D01*
X198549181Y-144022771D01*
X198549181Y-144213248D01*
X198501562Y-144308486D01*
X198453943Y-144356105D01*
X198358705Y-144403724D01*
X198120610Y-144403724D01*
X198025371Y-144356105D01*
X197977752Y-144308486D01*
X197930133Y-144213248D01*
X197930133Y-144022771D01*
X197977752Y-143927533D01*
X198025371Y-143879914D01*
X198120610Y-143832295D01*
X198549181Y-145356105D02*
X198549181Y-144784676D01*
X198549181Y-145070390D02*
X197549181Y-145070390D01*
X197692038Y-144975152D01*
X197787276Y-144879914D01*
X197834895Y-144784676D01*
X135252381Y-143422768D02*
X134776190Y-143089434D01*
X135252381Y-142851339D02*
X134252381Y-142851339D01*
X134252381Y-143232292D01*
X134300000Y-143327530D01*
X134347619Y-143375149D01*
X134442857Y-143422768D01*
X134585714Y-143422768D01*
X134680952Y-143375149D01*
X134728571Y-143327530D01*
X134776190Y-143232292D01*
X134776190Y-142851339D01*
X134252381Y-144279911D02*
X134252381Y-144089434D01*
X134300000Y-143994196D01*
X134347619Y-143946577D01*
X134490476Y-143851339D01*
X134680952Y-143803720D01*
X135061905Y-143803720D01*
X135157143Y-143851339D01*
X135204762Y-143898958D01*
X135252381Y-143994196D01*
X135252381Y-144184673D01*
X135204762Y-144279911D01*
X135157143Y-144327530D01*
X135061905Y-144375149D01*
X134823810Y-144375149D01*
X134728571Y-144327530D01*
X134680952Y-144279911D01*
X134633333Y-144184673D01*
X134633333Y-143994196D01*
X134680952Y-143898958D01*
X134728571Y-143851339D01*
X134823810Y-143803720D01*
X134252381Y-144994196D02*
X134252381Y-145089435D01*
X134300000Y-145184673D01*
X134347619Y-145232292D01*
X134442857Y-145279911D01*
X134633333Y-145327530D01*
X134871429Y-145327530D01*
X135061905Y-145279911D01*
X135157143Y-145232292D01*
X135204762Y-145184673D01*
X135252381Y-145089435D01*
X135252381Y-144994196D01*
X135204762Y-144898958D01*
X135157143Y-144851339D01*
X135061905Y-144803720D01*
X134871429Y-144756101D01*
X134633333Y-144756101D01*
X134442857Y-144803720D01*
X134347619Y-144851339D01*
X134300000Y-144898958D01*
X134252381Y-144994196D01*
X111439881Y-143422768D02*
X110963690Y-143089434D01*
X111439881Y-142851339D02*
X110439881Y-142851339D01*
X110439881Y-143232292D01*
X110487500Y-143327530D01*
X110535119Y-143375149D01*
X110630357Y-143422768D01*
X110773214Y-143422768D01*
X110868452Y-143375149D01*
X110916071Y-143327530D01*
X110963690Y-143232292D01*
X110963690Y-142851339D01*
X110439881Y-144327530D02*
X110439881Y-143851339D01*
X110916071Y-143803720D01*
X110868452Y-143851339D01*
X110820833Y-143946577D01*
X110820833Y-144184673D01*
X110868452Y-144279911D01*
X110916071Y-144327530D01*
X111011310Y-144375149D01*
X111249405Y-144375149D01*
X111344643Y-144327530D01*
X111392262Y-144279911D01*
X111439881Y-144184673D01*
X111439881Y-143946577D01*
X111392262Y-143851339D01*
X111344643Y-143803720D01*
X111439881Y-144851339D02*
X111439881Y-145041815D01*
X111392262Y-145137054D01*
X111344643Y-145184673D01*
X111201786Y-145279911D01*
X111011310Y-145327530D01*
X110630357Y-145327530D01*
X110535119Y-145279911D01*
X110487500Y-145232292D01*
X110439881Y-145137054D01*
X110439881Y-144946577D01*
X110487500Y-144851339D01*
X110535119Y-144803720D01*
X110630357Y-144756101D01*
X110868452Y-144756101D01*
X110963690Y-144803720D01*
X111011310Y-144851339D01*
X111058929Y-144946577D01*
X111058929Y-145137054D01*
X111011310Y-145232292D01*
X110963690Y-145279911D01*
X110868452Y-145327530D01*
X87627381Y-143422768D02*
X87151190Y-143089434D01*
X87627381Y-142851339D02*
X86627381Y-142851339D01*
X86627381Y-143232292D01*
X86675000Y-143327530D01*
X86722619Y-143375149D01*
X86817857Y-143422768D01*
X86960714Y-143422768D01*
X87055952Y-143375149D01*
X87103571Y-143327530D01*
X87151190Y-143232292D01*
X87151190Y-142851339D01*
X86627381Y-144327530D02*
X86627381Y-143851339D01*
X87103571Y-143803720D01*
X87055952Y-143851339D01*
X87008333Y-143946577D01*
X87008333Y-144184673D01*
X87055952Y-144279911D01*
X87103571Y-144327530D01*
X87198810Y-144375149D01*
X87436905Y-144375149D01*
X87532143Y-144327530D01*
X87579762Y-144279911D01*
X87627381Y-144184673D01*
X87627381Y-143946577D01*
X87579762Y-143851339D01*
X87532143Y-143803720D01*
X87055952Y-144946577D02*
X87008333Y-144851339D01*
X86960714Y-144803720D01*
X86865476Y-144756101D01*
X86817857Y-144756101D01*
X86722619Y-144803720D01*
X86675000Y-144851339D01*
X86627381Y-144946577D01*
X86627381Y-145137054D01*
X86675000Y-145232292D01*
X86722619Y-145279911D01*
X86817857Y-145327530D01*
X86865476Y-145327530D01*
X86960714Y-145279911D01*
X87008333Y-145232292D01*
X87055952Y-145137054D01*
X87055952Y-144946577D01*
X87103571Y-144851339D01*
X87151190Y-144803720D01*
X87246429Y-144756101D01*
X87436905Y-144756101D01*
X87532143Y-144803720D01*
X87579762Y-144851339D01*
X87627381Y-144946577D01*
X87627381Y-145137054D01*
X87579762Y-145232292D01*
X87532143Y-145279911D01*
X87436905Y-145327530D01*
X87246429Y-145327530D01*
X87151190Y-145279911D01*
X87103571Y-145232292D01*
X87055952Y-145137054D01*
X355449107Y-129299256D02*
X355782441Y-128823065D01*
X356020536Y-129299256D02*
X356020536Y-128299256D01*
X355639583Y-128299256D01*
X355544345Y-128346875D01*
X355496726Y-128394494D01*
X355449107Y-128489732D01*
X355449107Y-128632589D01*
X355496726Y-128727827D01*
X355544345Y-128775446D01*
X355639583Y-128823065D01*
X356020536Y-128823065D01*
X354544345Y-128299256D02*
X355020536Y-128299256D01*
X355068155Y-128775446D01*
X355020536Y-128727827D01*
X354925298Y-128680208D01*
X354687202Y-128680208D01*
X354591964Y-128727827D01*
X354544345Y-128775446D01*
X354496726Y-128870685D01*
X354496726Y-129108780D01*
X354544345Y-129204018D01*
X354591964Y-129251637D01*
X354687202Y-129299256D01*
X354925298Y-129299256D01*
X355020536Y-129251637D01*
X355068155Y-129204018D01*
X354163393Y-128299256D02*
X353496726Y-128299256D01*
X353925298Y-129299256D01*
X335277381Y-124372768D02*
X334801190Y-124039434D01*
X335277381Y-123801339D02*
X334277381Y-123801339D01*
X334277381Y-124182292D01*
X334325000Y-124277530D01*
X334372619Y-124325149D01*
X334467857Y-124372768D01*
X334610714Y-124372768D01*
X334705952Y-124325149D01*
X334753571Y-124277530D01*
X334801190Y-124182292D01*
X334801190Y-123801339D01*
X334277381Y-125277530D02*
X334277381Y-124801339D01*
X334753571Y-124753720D01*
X334705952Y-124801339D01*
X334658333Y-124896577D01*
X334658333Y-125134673D01*
X334705952Y-125229911D01*
X334753571Y-125277530D01*
X334848810Y-125325149D01*
X335086905Y-125325149D01*
X335182143Y-125277530D01*
X335229762Y-125229911D01*
X335277381Y-125134673D01*
X335277381Y-124896577D01*
X335229762Y-124801339D01*
X335182143Y-124753720D01*
X334277381Y-126182292D02*
X334277381Y-125991815D01*
X334325000Y-125896577D01*
X334372619Y-125848958D01*
X334515476Y-125753720D01*
X334705952Y-125706101D01*
X335086905Y-125706101D01*
X335182143Y-125753720D01*
X335229762Y-125801339D01*
X335277381Y-125896577D01*
X335277381Y-126087054D01*
X335229762Y-126182292D01*
X335182143Y-126229911D01*
X335086905Y-126277530D01*
X334848810Y-126277530D01*
X334753571Y-126229911D01*
X334705952Y-126182292D01*
X334658333Y-126087054D01*
X334658333Y-125896577D01*
X334705952Y-125801339D01*
X334753571Y-125753720D01*
X334848810Y-125706101D01*
X299558631Y-124372768D02*
X299082440Y-124039434D01*
X299558631Y-123801339D02*
X298558631Y-123801339D01*
X298558631Y-124182292D01*
X298606250Y-124277530D01*
X298653869Y-124325149D01*
X298749107Y-124372768D01*
X298891964Y-124372768D01*
X298987202Y-124325149D01*
X299034821Y-124277530D01*
X299082440Y-124182292D01*
X299082440Y-123801339D01*
X298558631Y-125277530D02*
X298558631Y-124801339D01*
X299034821Y-124753720D01*
X298987202Y-124801339D01*
X298939583Y-124896577D01*
X298939583Y-125134673D01*
X298987202Y-125229911D01*
X299034821Y-125277530D01*
X299130060Y-125325149D01*
X299368155Y-125325149D01*
X299463393Y-125277530D01*
X299511012Y-125229911D01*
X299558631Y-125134673D01*
X299558631Y-124896577D01*
X299511012Y-124801339D01*
X299463393Y-124753720D01*
X298558631Y-126229911D02*
X298558631Y-125753720D01*
X299034821Y-125706101D01*
X298987202Y-125753720D01*
X298939583Y-125848958D01*
X298939583Y-126087054D01*
X298987202Y-126182292D01*
X299034821Y-126229911D01*
X299130060Y-126277530D01*
X299368155Y-126277530D01*
X299463393Y-126229911D01*
X299511012Y-126182292D01*
X299558631Y-126087054D01*
X299558631Y-125848958D01*
X299511012Y-125753720D01*
X299463393Y-125706101D01*
X280508631Y-124372768D02*
X280032440Y-124039434D01*
X280508631Y-123801339D02*
X279508631Y-123801339D01*
X279508631Y-124182292D01*
X279556250Y-124277530D01*
X279603869Y-124325149D01*
X279699107Y-124372768D01*
X279841964Y-124372768D01*
X279937202Y-124325149D01*
X279984821Y-124277530D01*
X280032440Y-124182292D01*
X280032440Y-123801339D01*
X279508631Y-125277530D02*
X279508631Y-124801339D01*
X279984821Y-124753720D01*
X279937202Y-124801339D01*
X279889583Y-124896577D01*
X279889583Y-125134673D01*
X279937202Y-125229911D01*
X279984821Y-125277530D01*
X280080060Y-125325149D01*
X280318155Y-125325149D01*
X280413393Y-125277530D01*
X280461012Y-125229911D01*
X280508631Y-125134673D01*
X280508631Y-124896577D01*
X280461012Y-124801339D01*
X280413393Y-124753720D01*
X279841964Y-126182292D02*
X280508631Y-126182292D01*
X279461012Y-125944196D02*
X280175298Y-125706101D01*
X280175298Y-126325149D01*
X261458631Y-124372768D02*
X260982440Y-124039434D01*
X261458631Y-123801339D02*
X260458631Y-123801339D01*
X260458631Y-124182292D01*
X260506250Y-124277530D01*
X260553869Y-124325149D01*
X260649107Y-124372768D01*
X260791964Y-124372768D01*
X260887202Y-124325149D01*
X260934821Y-124277530D01*
X260982440Y-124182292D01*
X260982440Y-123801339D01*
X260458631Y-125277530D02*
X260458631Y-124801339D01*
X260934821Y-124753720D01*
X260887202Y-124801339D01*
X260839583Y-124896577D01*
X260839583Y-125134673D01*
X260887202Y-125229911D01*
X260934821Y-125277530D01*
X261030060Y-125325149D01*
X261268155Y-125325149D01*
X261363393Y-125277530D01*
X261411012Y-125229911D01*
X261458631Y-125134673D01*
X261458631Y-124896577D01*
X261411012Y-124801339D01*
X261363393Y-124753720D01*
X260458631Y-125658482D02*
X260458631Y-126277530D01*
X260839583Y-125944196D01*
X260839583Y-126087054D01*
X260887202Y-126182292D01*
X260934821Y-126229911D01*
X261030060Y-126277530D01*
X261268155Y-126277530D01*
X261363393Y-126229911D01*
X261411012Y-126182292D01*
X261458631Y-126087054D01*
X261458631Y-125801339D01*
X261411012Y-125706101D01*
X261363393Y-125658482D01*
X242408631Y-124372768D02*
X241932440Y-124039434D01*
X242408631Y-123801339D02*
X241408631Y-123801339D01*
X241408631Y-124182292D01*
X241456250Y-124277530D01*
X241503869Y-124325149D01*
X241599107Y-124372768D01*
X241741964Y-124372768D01*
X241837202Y-124325149D01*
X241884821Y-124277530D01*
X241932440Y-124182292D01*
X241932440Y-123801339D01*
X241408631Y-125277530D02*
X241408631Y-124801339D01*
X241884821Y-124753720D01*
X241837202Y-124801339D01*
X241789583Y-124896577D01*
X241789583Y-125134673D01*
X241837202Y-125229911D01*
X241884821Y-125277530D01*
X241980060Y-125325149D01*
X242218155Y-125325149D01*
X242313393Y-125277530D01*
X242361012Y-125229911D01*
X242408631Y-125134673D01*
X242408631Y-124896577D01*
X242361012Y-124801339D01*
X242313393Y-124753720D01*
X241503869Y-125706101D02*
X241456250Y-125753720D01*
X241408631Y-125848958D01*
X241408631Y-126087054D01*
X241456250Y-126182292D01*
X241503869Y-126229911D01*
X241599107Y-126277530D01*
X241694345Y-126277530D01*
X241837202Y-126229911D01*
X242408631Y-125658482D01*
X242408631Y-126277530D01*
X223358631Y-124372768D02*
X222882440Y-124039434D01*
X223358631Y-123801339D02*
X222358631Y-123801339D01*
X222358631Y-124182292D01*
X222406250Y-124277530D01*
X222453869Y-124325149D01*
X222549107Y-124372768D01*
X222691964Y-124372768D01*
X222787202Y-124325149D01*
X222834821Y-124277530D01*
X222882440Y-124182292D01*
X222882440Y-123801339D01*
X222358631Y-125277530D02*
X222358631Y-124801339D01*
X222834821Y-124753720D01*
X222787202Y-124801339D01*
X222739583Y-124896577D01*
X222739583Y-125134673D01*
X222787202Y-125229911D01*
X222834821Y-125277530D01*
X222930060Y-125325149D01*
X223168155Y-125325149D01*
X223263393Y-125277530D01*
X223311012Y-125229911D01*
X223358631Y-125134673D01*
X223358631Y-124896577D01*
X223311012Y-124801339D01*
X223263393Y-124753720D01*
X223358631Y-126277530D02*
X223358631Y-125706101D01*
X223358631Y-125991815D02*
X222358631Y-125991815D01*
X222501488Y-125896577D01*
X222596726Y-125801339D01*
X222644345Y-125706101D01*
X204308631Y-124372768D02*
X203832440Y-124039434D01*
X204308631Y-123801339D02*
X203308631Y-123801339D01*
X203308631Y-124182292D01*
X203356250Y-124277530D01*
X203403869Y-124325149D01*
X203499107Y-124372768D01*
X203641964Y-124372768D01*
X203737202Y-124325149D01*
X203784821Y-124277530D01*
X203832440Y-124182292D01*
X203832440Y-123801339D01*
X203308631Y-125277530D02*
X203308631Y-124801339D01*
X203784821Y-124753720D01*
X203737202Y-124801339D01*
X203689583Y-124896577D01*
X203689583Y-125134673D01*
X203737202Y-125229911D01*
X203784821Y-125277530D01*
X203880060Y-125325149D01*
X204118155Y-125325149D01*
X204213393Y-125277530D01*
X204261012Y-125229911D01*
X204308631Y-125134673D01*
X204308631Y-124896577D01*
X204261012Y-124801339D01*
X204213393Y-124753720D01*
X203308631Y-125944196D02*
X203308631Y-126039435D01*
X203356250Y-126134673D01*
X203403869Y-126182292D01*
X203499107Y-126229911D01*
X203689583Y-126277530D01*
X203927679Y-126277530D01*
X204118155Y-126229911D01*
X204213393Y-126182292D01*
X204261012Y-126134673D01*
X204308631Y-126039435D01*
X204308631Y-125944196D01*
X204261012Y-125848958D01*
X204213393Y-125801339D01*
X204118155Y-125753720D01*
X203927679Y-125706101D01*
X203689583Y-125706101D01*
X203499107Y-125753720D01*
X203403869Y-125801339D01*
X203356250Y-125848958D01*
X203308631Y-125944196D01*
X185258631Y-124372768D02*
X184782440Y-124039434D01*
X185258631Y-123801339D02*
X184258631Y-123801339D01*
X184258631Y-124182292D01*
X184306250Y-124277530D01*
X184353869Y-124325149D01*
X184449107Y-124372768D01*
X184591964Y-124372768D01*
X184687202Y-124325149D01*
X184734821Y-124277530D01*
X184782440Y-124182292D01*
X184782440Y-123801339D01*
X184591964Y-125229911D02*
X185258631Y-125229911D01*
X184211012Y-124991815D02*
X184925298Y-124753720D01*
X184925298Y-125372768D01*
X185258631Y-125801339D02*
X185258631Y-125991815D01*
X185211012Y-126087054D01*
X185163393Y-126134673D01*
X185020536Y-126229911D01*
X184830060Y-126277530D01*
X184449107Y-126277530D01*
X184353869Y-126229911D01*
X184306250Y-126182292D01*
X184258631Y-126087054D01*
X184258631Y-125896577D01*
X184306250Y-125801339D01*
X184353869Y-125753720D01*
X184449107Y-125706101D01*
X184687202Y-125706101D01*
X184782440Y-125753720D01*
X184830060Y-125801339D01*
X184877679Y-125896577D01*
X184877679Y-126087054D01*
X184830060Y-126182292D01*
X184782440Y-126229911D01*
X184687202Y-126277530D01*
X166208631Y-124372768D02*
X165732440Y-124039434D01*
X166208631Y-123801339D02*
X165208631Y-123801339D01*
X165208631Y-124182292D01*
X165256250Y-124277530D01*
X165303869Y-124325149D01*
X165399107Y-124372768D01*
X165541964Y-124372768D01*
X165637202Y-124325149D01*
X165684821Y-124277530D01*
X165732440Y-124182292D01*
X165732440Y-123801339D01*
X165541964Y-125229911D02*
X166208631Y-125229911D01*
X165161012Y-124991815D02*
X165875298Y-124753720D01*
X165875298Y-125372768D01*
X165637202Y-125896577D02*
X165589583Y-125801339D01*
X165541964Y-125753720D01*
X165446726Y-125706101D01*
X165399107Y-125706101D01*
X165303869Y-125753720D01*
X165256250Y-125801339D01*
X165208631Y-125896577D01*
X165208631Y-126087054D01*
X165256250Y-126182292D01*
X165303869Y-126229911D01*
X165399107Y-126277530D01*
X165446726Y-126277530D01*
X165541964Y-126229911D01*
X165589583Y-126182292D01*
X165637202Y-126087054D01*
X165637202Y-125896577D01*
X165684821Y-125801339D01*
X165732440Y-125753720D01*
X165827679Y-125706101D01*
X166018155Y-125706101D01*
X166113393Y-125753720D01*
X166161012Y-125801339D01*
X166208631Y-125896577D01*
X166208631Y-126087054D01*
X166161012Y-126182292D01*
X166113393Y-126229911D01*
X166018155Y-126277530D01*
X165827679Y-126277530D01*
X165732440Y-126229911D01*
X165684821Y-126182292D01*
X165637202Y-126087054D01*
X147158631Y-124372768D02*
X146682440Y-124039434D01*
X147158631Y-123801339D02*
X146158631Y-123801339D01*
X146158631Y-124182292D01*
X146206250Y-124277530D01*
X146253869Y-124325149D01*
X146349107Y-124372768D01*
X146491964Y-124372768D01*
X146587202Y-124325149D01*
X146634821Y-124277530D01*
X146682440Y-124182292D01*
X146682440Y-123801339D01*
X146491964Y-125229911D02*
X147158631Y-125229911D01*
X146111012Y-124991815D02*
X146825298Y-124753720D01*
X146825298Y-125372768D01*
X146158631Y-125658482D02*
X146158631Y-126325149D01*
X147158631Y-125896577D01*
X128108631Y-124372768D02*
X127632440Y-124039434D01*
X128108631Y-123801339D02*
X127108631Y-123801339D01*
X127108631Y-124182292D01*
X127156250Y-124277530D01*
X127203869Y-124325149D01*
X127299107Y-124372768D01*
X127441964Y-124372768D01*
X127537202Y-124325149D01*
X127584821Y-124277530D01*
X127632440Y-124182292D01*
X127632440Y-123801339D01*
X127441964Y-125229911D02*
X128108631Y-125229911D01*
X127061012Y-124991815D02*
X127775298Y-124753720D01*
X127775298Y-125372768D01*
X127108631Y-126182292D02*
X127108631Y-125991815D01*
X127156250Y-125896577D01*
X127203869Y-125848958D01*
X127346726Y-125753720D01*
X127537202Y-125706101D01*
X127918155Y-125706101D01*
X128013393Y-125753720D01*
X128061012Y-125801339D01*
X128108631Y-125896577D01*
X128108631Y-126087054D01*
X128061012Y-126182292D01*
X128013393Y-126229911D01*
X127918155Y-126277530D01*
X127680060Y-126277530D01*
X127584821Y-126229911D01*
X127537202Y-126182292D01*
X127489583Y-126087054D01*
X127489583Y-125896577D01*
X127537202Y-125801339D01*
X127584821Y-125753720D01*
X127680060Y-125706101D01*
X109058631Y-124372768D02*
X108582440Y-124039434D01*
X109058631Y-123801339D02*
X108058631Y-123801339D01*
X108058631Y-124182292D01*
X108106250Y-124277530D01*
X108153869Y-124325149D01*
X108249107Y-124372768D01*
X108391964Y-124372768D01*
X108487202Y-124325149D01*
X108534821Y-124277530D01*
X108582440Y-124182292D01*
X108582440Y-123801339D01*
X108391964Y-125229911D02*
X109058631Y-125229911D01*
X108011012Y-124991815D02*
X108725298Y-124753720D01*
X108725298Y-125372768D01*
X108058631Y-126229911D02*
X108058631Y-125753720D01*
X108534821Y-125706101D01*
X108487202Y-125753720D01*
X108439583Y-125848958D01*
X108439583Y-126087054D01*
X108487202Y-126182292D01*
X108534821Y-126229911D01*
X108630060Y-126277530D01*
X108868155Y-126277530D01*
X108963393Y-126229911D01*
X109011012Y-126182292D01*
X109058631Y-126087054D01*
X109058631Y-125848958D01*
X109011012Y-125753720D01*
X108963393Y-125706101D01*
X87627381Y-121991518D02*
X87151190Y-121658184D01*
X87627381Y-121420089D02*
X86627381Y-121420089D01*
X86627381Y-121801042D01*
X86675000Y-121896280D01*
X86722619Y-121943899D01*
X86817857Y-121991518D01*
X86960714Y-121991518D01*
X87055952Y-121943899D01*
X87103571Y-121896280D01*
X87151190Y-121801042D01*
X87151190Y-121420089D01*
X86960714Y-122848661D02*
X87627381Y-122848661D01*
X86579762Y-122610565D02*
X87294048Y-122372470D01*
X87294048Y-122991518D01*
X86960714Y-123801042D02*
X87627381Y-123801042D01*
X86579762Y-123562946D02*
X87294048Y-123324851D01*
X87294048Y-123943899D01*
X340039881Y-105322768D02*
X339563690Y-104989434D01*
X340039881Y-104751339D02*
X339039881Y-104751339D01*
X339039881Y-105132292D01*
X339087500Y-105227530D01*
X339135119Y-105275149D01*
X339230357Y-105322768D01*
X339373214Y-105322768D01*
X339468452Y-105275149D01*
X339516071Y-105227530D01*
X339563690Y-105132292D01*
X339563690Y-104751339D01*
X339373214Y-106179911D02*
X340039881Y-106179911D01*
X338992262Y-105941815D02*
X339706548Y-105703720D01*
X339706548Y-106322768D01*
X339039881Y-106608482D02*
X339039881Y-107227530D01*
X339420833Y-106894196D01*
X339420833Y-107037054D01*
X339468452Y-107132292D01*
X339516071Y-107179911D01*
X339611310Y-107227530D01*
X339849405Y-107227530D01*
X339944643Y-107179911D01*
X339992262Y-107132292D01*
X340039881Y-107037054D01*
X340039881Y-106751339D01*
X339992262Y-106656101D01*
X339944643Y-106608482D01*
X328133631Y-105322768D02*
X327657440Y-104989434D01*
X328133631Y-104751339D02*
X327133631Y-104751339D01*
X327133631Y-105132292D01*
X327181250Y-105227530D01*
X327228869Y-105275149D01*
X327324107Y-105322768D01*
X327466964Y-105322768D01*
X327562202Y-105275149D01*
X327609821Y-105227530D01*
X327657440Y-105132292D01*
X327657440Y-104751339D01*
X327466964Y-106179911D02*
X328133631Y-106179911D01*
X327086012Y-105941815D02*
X327800298Y-105703720D01*
X327800298Y-106322768D01*
X327228869Y-106656101D02*
X327181250Y-106703720D01*
X327133631Y-106798958D01*
X327133631Y-107037054D01*
X327181250Y-107132292D01*
X327228869Y-107179911D01*
X327324107Y-107227530D01*
X327419345Y-107227530D01*
X327562202Y-107179911D01*
X328133631Y-106608482D01*
X328133631Y-107227530D01*
X309083631Y-105322768D02*
X308607440Y-104989434D01*
X309083631Y-104751339D02*
X308083631Y-104751339D01*
X308083631Y-105132292D01*
X308131250Y-105227530D01*
X308178869Y-105275149D01*
X308274107Y-105322768D01*
X308416964Y-105322768D01*
X308512202Y-105275149D01*
X308559821Y-105227530D01*
X308607440Y-105132292D01*
X308607440Y-104751339D01*
X308416964Y-106179911D02*
X309083631Y-106179911D01*
X308036012Y-105941815D02*
X308750298Y-105703720D01*
X308750298Y-106322768D01*
X309083631Y-107227530D02*
X309083631Y-106656101D01*
X309083631Y-106941815D02*
X308083631Y-106941815D01*
X308226488Y-106846577D01*
X308321726Y-106751339D01*
X308369345Y-106656101D01*
X290033631Y-105322768D02*
X289557440Y-104989434D01*
X290033631Y-104751339D02*
X289033631Y-104751339D01*
X289033631Y-105132292D01*
X289081250Y-105227530D01*
X289128869Y-105275149D01*
X289224107Y-105322768D01*
X289366964Y-105322768D01*
X289462202Y-105275149D01*
X289509821Y-105227530D01*
X289557440Y-105132292D01*
X289557440Y-104751339D01*
X289366964Y-106179911D02*
X290033631Y-106179911D01*
X288986012Y-105941815D02*
X289700298Y-105703720D01*
X289700298Y-106322768D01*
X289033631Y-106894196D02*
X289033631Y-106989435D01*
X289081250Y-107084673D01*
X289128869Y-107132292D01*
X289224107Y-107179911D01*
X289414583Y-107227530D01*
X289652679Y-107227530D01*
X289843155Y-107179911D01*
X289938393Y-107132292D01*
X289986012Y-107084673D01*
X290033631Y-106989435D01*
X290033631Y-106894196D01*
X289986012Y-106798958D01*
X289938393Y-106751339D01*
X289843155Y-106703720D01*
X289652679Y-106656101D01*
X289414583Y-106656101D01*
X289224107Y-106703720D01*
X289128869Y-106751339D01*
X289081250Y-106798958D01*
X289033631Y-106894196D01*
X270983631Y-105322768D02*
X270507440Y-104989434D01*
X270983631Y-104751339D02*
X269983631Y-104751339D01*
X269983631Y-105132292D01*
X270031250Y-105227530D01*
X270078869Y-105275149D01*
X270174107Y-105322768D01*
X270316964Y-105322768D01*
X270412202Y-105275149D01*
X270459821Y-105227530D01*
X270507440Y-105132292D01*
X270507440Y-104751339D01*
X269983631Y-105656101D02*
X269983631Y-106275149D01*
X270364583Y-105941815D01*
X270364583Y-106084673D01*
X270412202Y-106179911D01*
X270459821Y-106227530D01*
X270555060Y-106275149D01*
X270793155Y-106275149D01*
X270888393Y-106227530D01*
X270936012Y-106179911D01*
X270983631Y-106084673D01*
X270983631Y-105798958D01*
X270936012Y-105703720D01*
X270888393Y-105656101D01*
X270983631Y-106751339D02*
X270983631Y-106941815D01*
X270936012Y-107037054D01*
X270888393Y-107084673D01*
X270745536Y-107179911D01*
X270555060Y-107227530D01*
X270174107Y-107227530D01*
X270078869Y-107179911D01*
X270031250Y-107132292D01*
X269983631Y-107037054D01*
X269983631Y-106846577D01*
X270031250Y-106751339D01*
X270078869Y-106703720D01*
X270174107Y-106656101D01*
X270412202Y-106656101D01*
X270507440Y-106703720D01*
X270555060Y-106751339D01*
X270602679Y-106846577D01*
X270602679Y-107037054D01*
X270555060Y-107132292D01*
X270507440Y-107179911D01*
X270412202Y-107227530D01*
X251933631Y-105322768D02*
X251457440Y-104989434D01*
X251933631Y-104751339D02*
X250933631Y-104751339D01*
X250933631Y-105132292D01*
X250981250Y-105227530D01*
X251028869Y-105275149D01*
X251124107Y-105322768D01*
X251266964Y-105322768D01*
X251362202Y-105275149D01*
X251409821Y-105227530D01*
X251457440Y-105132292D01*
X251457440Y-104751339D01*
X250933631Y-105656101D02*
X250933631Y-106275149D01*
X251314583Y-105941815D01*
X251314583Y-106084673D01*
X251362202Y-106179911D01*
X251409821Y-106227530D01*
X251505060Y-106275149D01*
X251743155Y-106275149D01*
X251838393Y-106227530D01*
X251886012Y-106179911D01*
X251933631Y-106084673D01*
X251933631Y-105798958D01*
X251886012Y-105703720D01*
X251838393Y-105656101D01*
X251362202Y-106846577D02*
X251314583Y-106751339D01*
X251266964Y-106703720D01*
X251171726Y-106656101D01*
X251124107Y-106656101D01*
X251028869Y-106703720D01*
X250981250Y-106751339D01*
X250933631Y-106846577D01*
X250933631Y-107037054D01*
X250981250Y-107132292D01*
X251028869Y-107179911D01*
X251124107Y-107227530D01*
X251171726Y-107227530D01*
X251266964Y-107179911D01*
X251314583Y-107132292D01*
X251362202Y-107037054D01*
X251362202Y-106846577D01*
X251409821Y-106751339D01*
X251457440Y-106703720D01*
X251552679Y-106656101D01*
X251743155Y-106656101D01*
X251838393Y-106703720D01*
X251886012Y-106751339D01*
X251933631Y-106846577D01*
X251933631Y-107037054D01*
X251886012Y-107132292D01*
X251838393Y-107179911D01*
X251743155Y-107227530D01*
X251552679Y-107227530D01*
X251457440Y-107179911D01*
X251409821Y-107132292D01*
X251362202Y-107037054D01*
X232883631Y-105322768D02*
X232407440Y-104989434D01*
X232883631Y-104751339D02*
X231883631Y-104751339D01*
X231883631Y-105132292D01*
X231931250Y-105227530D01*
X231978869Y-105275149D01*
X232074107Y-105322768D01*
X232216964Y-105322768D01*
X232312202Y-105275149D01*
X232359821Y-105227530D01*
X232407440Y-105132292D01*
X232407440Y-104751339D01*
X231883631Y-105656101D02*
X231883631Y-106275149D01*
X232264583Y-105941815D01*
X232264583Y-106084673D01*
X232312202Y-106179911D01*
X232359821Y-106227530D01*
X232455060Y-106275149D01*
X232693155Y-106275149D01*
X232788393Y-106227530D01*
X232836012Y-106179911D01*
X232883631Y-106084673D01*
X232883631Y-105798958D01*
X232836012Y-105703720D01*
X232788393Y-105656101D01*
X231883631Y-106608482D02*
X231883631Y-107275149D01*
X232883631Y-106846577D01*
X213833631Y-105322768D02*
X213357440Y-104989434D01*
X213833631Y-104751339D02*
X212833631Y-104751339D01*
X212833631Y-105132292D01*
X212881250Y-105227530D01*
X212928869Y-105275149D01*
X213024107Y-105322768D01*
X213166964Y-105322768D01*
X213262202Y-105275149D01*
X213309821Y-105227530D01*
X213357440Y-105132292D01*
X213357440Y-104751339D01*
X212833631Y-105656101D02*
X212833631Y-106275149D01*
X213214583Y-105941815D01*
X213214583Y-106084673D01*
X213262202Y-106179911D01*
X213309821Y-106227530D01*
X213405060Y-106275149D01*
X213643155Y-106275149D01*
X213738393Y-106227530D01*
X213786012Y-106179911D01*
X213833631Y-106084673D01*
X213833631Y-105798958D01*
X213786012Y-105703720D01*
X213738393Y-105656101D01*
X212833631Y-107132292D02*
X212833631Y-106941815D01*
X212881250Y-106846577D01*
X212928869Y-106798958D01*
X213071726Y-106703720D01*
X213262202Y-106656101D01*
X213643155Y-106656101D01*
X213738393Y-106703720D01*
X213786012Y-106751339D01*
X213833631Y-106846577D01*
X213833631Y-107037054D01*
X213786012Y-107132292D01*
X213738393Y-107179911D01*
X213643155Y-107227530D01*
X213405060Y-107227530D01*
X213309821Y-107179911D01*
X213262202Y-107132292D01*
X213214583Y-107037054D01*
X213214583Y-106846577D01*
X213262202Y-106751339D01*
X213309821Y-106703720D01*
X213405060Y-106656101D01*
X194783631Y-105322768D02*
X194307440Y-104989434D01*
X194783631Y-104751339D02*
X193783631Y-104751339D01*
X193783631Y-105132292D01*
X193831250Y-105227530D01*
X193878869Y-105275149D01*
X193974107Y-105322768D01*
X194116964Y-105322768D01*
X194212202Y-105275149D01*
X194259821Y-105227530D01*
X194307440Y-105132292D01*
X194307440Y-104751339D01*
X193783631Y-105656101D02*
X193783631Y-106275149D01*
X194164583Y-105941815D01*
X194164583Y-106084673D01*
X194212202Y-106179911D01*
X194259821Y-106227530D01*
X194355060Y-106275149D01*
X194593155Y-106275149D01*
X194688393Y-106227530D01*
X194736012Y-106179911D01*
X194783631Y-106084673D01*
X194783631Y-105798958D01*
X194736012Y-105703720D01*
X194688393Y-105656101D01*
X193783631Y-107179911D02*
X193783631Y-106703720D01*
X194259821Y-106656101D01*
X194212202Y-106703720D01*
X194164583Y-106798958D01*
X194164583Y-107037054D01*
X194212202Y-107132292D01*
X194259821Y-107179911D01*
X194355060Y-107227530D01*
X194593155Y-107227530D01*
X194688393Y-107179911D01*
X194736012Y-107132292D01*
X194783631Y-107037054D01*
X194783631Y-106798958D01*
X194736012Y-106703720D01*
X194688393Y-106656101D01*
X175733631Y-105322768D02*
X175257440Y-104989434D01*
X175733631Y-104751339D02*
X174733631Y-104751339D01*
X174733631Y-105132292D01*
X174781250Y-105227530D01*
X174828869Y-105275149D01*
X174924107Y-105322768D01*
X175066964Y-105322768D01*
X175162202Y-105275149D01*
X175209821Y-105227530D01*
X175257440Y-105132292D01*
X175257440Y-104751339D01*
X174733631Y-105656101D02*
X174733631Y-106275149D01*
X175114583Y-105941815D01*
X175114583Y-106084673D01*
X175162202Y-106179911D01*
X175209821Y-106227530D01*
X175305060Y-106275149D01*
X175543155Y-106275149D01*
X175638393Y-106227530D01*
X175686012Y-106179911D01*
X175733631Y-106084673D01*
X175733631Y-105798958D01*
X175686012Y-105703720D01*
X175638393Y-105656101D01*
X175066964Y-107132292D02*
X175733631Y-107132292D01*
X174686012Y-106894196D02*
X175400298Y-106656101D01*
X175400298Y-107275149D01*
X156683631Y-105322768D02*
X156207440Y-104989434D01*
X156683631Y-104751339D02*
X155683631Y-104751339D01*
X155683631Y-105132292D01*
X155731250Y-105227530D01*
X155778869Y-105275149D01*
X155874107Y-105322768D01*
X156016964Y-105322768D01*
X156112202Y-105275149D01*
X156159821Y-105227530D01*
X156207440Y-105132292D01*
X156207440Y-104751339D01*
X155683631Y-105656101D02*
X155683631Y-106275149D01*
X156064583Y-105941815D01*
X156064583Y-106084673D01*
X156112202Y-106179911D01*
X156159821Y-106227530D01*
X156255060Y-106275149D01*
X156493155Y-106275149D01*
X156588393Y-106227530D01*
X156636012Y-106179911D01*
X156683631Y-106084673D01*
X156683631Y-105798958D01*
X156636012Y-105703720D01*
X156588393Y-105656101D01*
X155683631Y-106608482D02*
X155683631Y-107227530D01*
X156064583Y-106894196D01*
X156064583Y-107037054D01*
X156112202Y-107132292D01*
X156159821Y-107179911D01*
X156255060Y-107227530D01*
X156493155Y-107227530D01*
X156588393Y-107179911D01*
X156636012Y-107132292D01*
X156683631Y-107037054D01*
X156683631Y-106751339D01*
X156636012Y-106656101D01*
X156588393Y-106608482D01*
X137633631Y-105322768D02*
X137157440Y-104989434D01*
X137633631Y-104751339D02*
X136633631Y-104751339D01*
X136633631Y-105132292D01*
X136681250Y-105227530D01*
X136728869Y-105275149D01*
X136824107Y-105322768D01*
X136966964Y-105322768D01*
X137062202Y-105275149D01*
X137109821Y-105227530D01*
X137157440Y-105132292D01*
X137157440Y-104751339D01*
X136633631Y-105656101D02*
X136633631Y-106275149D01*
X137014583Y-105941815D01*
X137014583Y-106084673D01*
X137062202Y-106179911D01*
X137109821Y-106227530D01*
X137205060Y-106275149D01*
X137443155Y-106275149D01*
X137538393Y-106227530D01*
X137586012Y-106179911D01*
X137633631Y-106084673D01*
X137633631Y-105798958D01*
X137586012Y-105703720D01*
X137538393Y-105656101D01*
X136728869Y-106656101D02*
X136681250Y-106703720D01*
X136633631Y-106798958D01*
X136633631Y-107037054D01*
X136681250Y-107132292D01*
X136728869Y-107179911D01*
X136824107Y-107227530D01*
X136919345Y-107227530D01*
X137062202Y-107179911D01*
X137633631Y-106608482D01*
X137633631Y-107227530D01*
X118583631Y-105322768D02*
X118107440Y-104989434D01*
X118583631Y-104751339D02*
X117583631Y-104751339D01*
X117583631Y-105132292D01*
X117631250Y-105227530D01*
X117678869Y-105275149D01*
X117774107Y-105322768D01*
X117916964Y-105322768D01*
X118012202Y-105275149D01*
X118059821Y-105227530D01*
X118107440Y-105132292D01*
X118107440Y-104751339D01*
X117583631Y-105656101D02*
X117583631Y-106275149D01*
X117964583Y-105941815D01*
X117964583Y-106084673D01*
X118012202Y-106179911D01*
X118059821Y-106227530D01*
X118155060Y-106275149D01*
X118393155Y-106275149D01*
X118488393Y-106227530D01*
X118536012Y-106179911D01*
X118583631Y-106084673D01*
X118583631Y-105798958D01*
X118536012Y-105703720D01*
X118488393Y-105656101D01*
X118583631Y-107227530D02*
X118583631Y-106656101D01*
X118583631Y-106941815D02*
X117583631Y-106941815D01*
X117726488Y-106846577D01*
X117821726Y-106751339D01*
X117869345Y-106656101D01*
X85897981Y-102912943D02*
X85421790Y-102579609D01*
X85897981Y-102341514D02*
X84897981Y-102341514D01*
X84897981Y-102722467D01*
X84945600Y-102817705D01*
X84993219Y-102865324D01*
X85088457Y-102912943D01*
X85231314Y-102912943D01*
X85326552Y-102865324D01*
X85374171Y-102817705D01*
X85421790Y-102722467D01*
X85421790Y-102341514D01*
X84897981Y-103246276D02*
X84897981Y-103865324D01*
X85278933Y-103531990D01*
X85278933Y-103674848D01*
X85326552Y-103770086D01*
X85374171Y-103817705D01*
X85469410Y-103865324D01*
X85707505Y-103865324D01*
X85802743Y-103817705D01*
X85850362Y-103770086D01*
X85897981Y-103674848D01*
X85897981Y-103389133D01*
X85850362Y-103293895D01*
X85802743Y-103246276D01*
X84897981Y-104484371D02*
X84897981Y-104579610D01*
X84945600Y-104674848D01*
X84993219Y-104722467D01*
X85088457Y-104770086D01*
X85278933Y-104817705D01*
X85517029Y-104817705D01*
X85707505Y-104770086D01*
X85802743Y-104722467D01*
X85850362Y-104674848D01*
X85897981Y-104579610D01*
X85897981Y-104484371D01*
X85850362Y-104389133D01*
X85802743Y-104341514D01*
X85707505Y-104293895D01*
X85517029Y-104246276D01*
X85278933Y-104246276D01*
X85088457Y-104293895D01*
X84993219Y-104341514D01*
X84945600Y-104389133D01*
X84897981Y-104484371D01*
X347183631Y-86272768D02*
X346707440Y-85939434D01*
X347183631Y-85701339D02*
X346183631Y-85701339D01*
X346183631Y-86082292D01*
X346231250Y-86177530D01*
X346278869Y-86225149D01*
X346374107Y-86272768D01*
X346516964Y-86272768D01*
X346612202Y-86225149D01*
X346659821Y-86177530D01*
X346707440Y-86082292D01*
X346707440Y-85701339D01*
X346278869Y-86653720D02*
X346231250Y-86701339D01*
X346183631Y-86796577D01*
X346183631Y-87034673D01*
X346231250Y-87129911D01*
X346278869Y-87177530D01*
X346374107Y-87225149D01*
X346469345Y-87225149D01*
X346612202Y-87177530D01*
X347183631Y-86606101D01*
X347183631Y-87225149D01*
X347183631Y-87701339D02*
X347183631Y-87891815D01*
X347136012Y-87987054D01*
X347088393Y-88034673D01*
X346945536Y-88129911D01*
X346755060Y-88177530D01*
X346374107Y-88177530D01*
X346278869Y-88129911D01*
X346231250Y-88082292D01*
X346183631Y-87987054D01*
X346183631Y-87796577D01*
X346231250Y-87701339D01*
X346278869Y-87653720D01*
X346374107Y-87606101D01*
X346612202Y-87606101D01*
X346707440Y-87653720D01*
X346755060Y-87701339D01*
X346802679Y-87796577D01*
X346802679Y-87987054D01*
X346755060Y-88082292D01*
X346707440Y-88129911D01*
X346612202Y-88177530D01*
X323371131Y-86272768D02*
X322894940Y-85939434D01*
X323371131Y-85701339D02*
X322371131Y-85701339D01*
X322371131Y-86082292D01*
X322418750Y-86177530D01*
X322466369Y-86225149D01*
X322561607Y-86272768D01*
X322704464Y-86272768D01*
X322799702Y-86225149D01*
X322847321Y-86177530D01*
X322894940Y-86082292D01*
X322894940Y-85701339D01*
X322466369Y-86653720D02*
X322418750Y-86701339D01*
X322371131Y-86796577D01*
X322371131Y-87034673D01*
X322418750Y-87129911D01*
X322466369Y-87177530D01*
X322561607Y-87225149D01*
X322656845Y-87225149D01*
X322799702Y-87177530D01*
X323371131Y-86606101D01*
X323371131Y-87225149D01*
X322799702Y-87796577D02*
X322752083Y-87701339D01*
X322704464Y-87653720D01*
X322609226Y-87606101D01*
X322561607Y-87606101D01*
X322466369Y-87653720D01*
X322418750Y-87701339D01*
X322371131Y-87796577D01*
X322371131Y-87987054D01*
X322418750Y-88082292D01*
X322466369Y-88129911D01*
X322561607Y-88177530D01*
X322609226Y-88177530D01*
X322704464Y-88129911D01*
X322752083Y-88082292D01*
X322799702Y-87987054D01*
X322799702Y-87796577D01*
X322847321Y-87701339D01*
X322894940Y-87653720D01*
X322990179Y-87606101D01*
X323180655Y-87606101D01*
X323275893Y-87653720D01*
X323323512Y-87701339D01*
X323371131Y-87796577D01*
X323371131Y-87987054D01*
X323323512Y-88082292D01*
X323275893Y-88129911D01*
X323180655Y-88177530D01*
X322990179Y-88177530D01*
X322894940Y-88129911D01*
X322847321Y-88082292D01*
X322799702Y-87987054D01*
X304321131Y-86272768D02*
X303844940Y-85939434D01*
X304321131Y-85701339D02*
X303321131Y-85701339D01*
X303321131Y-86082292D01*
X303368750Y-86177530D01*
X303416369Y-86225149D01*
X303511607Y-86272768D01*
X303654464Y-86272768D01*
X303749702Y-86225149D01*
X303797321Y-86177530D01*
X303844940Y-86082292D01*
X303844940Y-85701339D01*
X303416369Y-86653720D02*
X303368750Y-86701339D01*
X303321131Y-86796577D01*
X303321131Y-87034673D01*
X303368750Y-87129911D01*
X303416369Y-87177530D01*
X303511607Y-87225149D01*
X303606845Y-87225149D01*
X303749702Y-87177530D01*
X304321131Y-86606101D01*
X304321131Y-87225149D01*
X303321131Y-87558482D02*
X303321131Y-88225149D01*
X304321131Y-87796577D01*
X285271131Y-86272768D02*
X284794940Y-85939434D01*
X285271131Y-85701339D02*
X284271131Y-85701339D01*
X284271131Y-86082292D01*
X284318750Y-86177530D01*
X284366369Y-86225149D01*
X284461607Y-86272768D01*
X284604464Y-86272768D01*
X284699702Y-86225149D01*
X284747321Y-86177530D01*
X284794940Y-86082292D01*
X284794940Y-85701339D01*
X284366369Y-86653720D02*
X284318750Y-86701339D01*
X284271131Y-86796577D01*
X284271131Y-87034673D01*
X284318750Y-87129911D01*
X284366369Y-87177530D01*
X284461607Y-87225149D01*
X284556845Y-87225149D01*
X284699702Y-87177530D01*
X285271131Y-86606101D01*
X285271131Y-87225149D01*
X284271131Y-88082292D02*
X284271131Y-87891815D01*
X284318750Y-87796577D01*
X284366369Y-87748958D01*
X284509226Y-87653720D01*
X284699702Y-87606101D01*
X285080655Y-87606101D01*
X285175893Y-87653720D01*
X285223512Y-87701339D01*
X285271131Y-87796577D01*
X285271131Y-87987054D01*
X285223512Y-88082292D01*
X285175893Y-88129911D01*
X285080655Y-88177530D01*
X284842560Y-88177530D01*
X284747321Y-88129911D01*
X284699702Y-88082292D01*
X284652083Y-87987054D01*
X284652083Y-87796577D01*
X284699702Y-87701339D01*
X284747321Y-87653720D01*
X284842560Y-87606101D01*
X266221131Y-86272768D02*
X265744940Y-85939434D01*
X266221131Y-85701339D02*
X265221131Y-85701339D01*
X265221131Y-86082292D01*
X265268750Y-86177530D01*
X265316369Y-86225149D01*
X265411607Y-86272768D01*
X265554464Y-86272768D01*
X265649702Y-86225149D01*
X265697321Y-86177530D01*
X265744940Y-86082292D01*
X265744940Y-85701339D01*
X265316369Y-86653720D02*
X265268750Y-86701339D01*
X265221131Y-86796577D01*
X265221131Y-87034673D01*
X265268750Y-87129911D01*
X265316369Y-87177530D01*
X265411607Y-87225149D01*
X265506845Y-87225149D01*
X265649702Y-87177530D01*
X266221131Y-86606101D01*
X266221131Y-87225149D01*
X265221131Y-88129911D02*
X265221131Y-87653720D01*
X265697321Y-87606101D01*
X265649702Y-87653720D01*
X265602083Y-87748958D01*
X265602083Y-87987054D01*
X265649702Y-88082292D01*
X265697321Y-88129911D01*
X265792560Y-88177530D01*
X266030655Y-88177530D01*
X266125893Y-88129911D01*
X266173512Y-88082292D01*
X266221131Y-87987054D01*
X266221131Y-87748958D01*
X266173512Y-87653720D01*
X266125893Y-87606101D01*
X247171131Y-86272768D02*
X246694940Y-85939434D01*
X247171131Y-85701339D02*
X246171131Y-85701339D01*
X246171131Y-86082292D01*
X246218750Y-86177530D01*
X246266369Y-86225149D01*
X246361607Y-86272768D01*
X246504464Y-86272768D01*
X246599702Y-86225149D01*
X246647321Y-86177530D01*
X246694940Y-86082292D01*
X246694940Y-85701339D01*
X246266369Y-86653720D02*
X246218750Y-86701339D01*
X246171131Y-86796577D01*
X246171131Y-87034673D01*
X246218750Y-87129911D01*
X246266369Y-87177530D01*
X246361607Y-87225149D01*
X246456845Y-87225149D01*
X246599702Y-87177530D01*
X247171131Y-86606101D01*
X247171131Y-87225149D01*
X246504464Y-88082292D02*
X247171131Y-88082292D01*
X246123512Y-87844196D02*
X246837798Y-87606101D01*
X246837798Y-88225149D01*
X228121131Y-86272768D02*
X227644940Y-85939434D01*
X228121131Y-85701339D02*
X227121131Y-85701339D01*
X227121131Y-86082292D01*
X227168750Y-86177530D01*
X227216369Y-86225149D01*
X227311607Y-86272768D01*
X227454464Y-86272768D01*
X227549702Y-86225149D01*
X227597321Y-86177530D01*
X227644940Y-86082292D01*
X227644940Y-85701339D01*
X227216369Y-86653720D02*
X227168750Y-86701339D01*
X227121131Y-86796577D01*
X227121131Y-87034673D01*
X227168750Y-87129911D01*
X227216369Y-87177530D01*
X227311607Y-87225149D01*
X227406845Y-87225149D01*
X227549702Y-87177530D01*
X228121131Y-86606101D01*
X228121131Y-87225149D01*
X227121131Y-87558482D02*
X227121131Y-88177530D01*
X227502083Y-87844196D01*
X227502083Y-87987054D01*
X227549702Y-88082292D01*
X227597321Y-88129911D01*
X227692560Y-88177530D01*
X227930655Y-88177530D01*
X228025893Y-88129911D01*
X228073512Y-88082292D01*
X228121131Y-87987054D01*
X228121131Y-87701339D01*
X228073512Y-87606101D01*
X228025893Y-87558482D01*
X151921131Y-86272768D02*
X151444940Y-85939434D01*
X151921131Y-85701339D02*
X150921131Y-85701339D01*
X150921131Y-86082292D01*
X150968750Y-86177530D01*
X151016369Y-86225149D01*
X151111607Y-86272768D01*
X151254464Y-86272768D01*
X151349702Y-86225149D01*
X151397321Y-86177530D01*
X151444940Y-86082292D01*
X151444940Y-85701339D01*
X151921131Y-87225149D02*
X151921131Y-86653720D01*
X151921131Y-86939434D02*
X150921131Y-86939434D01*
X151063988Y-86844196D01*
X151159226Y-86748958D01*
X151206845Y-86653720D01*
X151921131Y-87701339D02*
X151921131Y-87891815D01*
X151873512Y-87987054D01*
X151825893Y-88034673D01*
X151683036Y-88129911D01*
X151492560Y-88177530D01*
X151111607Y-88177530D01*
X151016369Y-88129911D01*
X150968750Y-88082292D01*
X150921131Y-87987054D01*
X150921131Y-87796577D01*
X150968750Y-87701339D01*
X151016369Y-87653720D01*
X151111607Y-87606101D01*
X151349702Y-87606101D01*
X151444940Y-87653720D01*
X151492560Y-87701339D01*
X151540179Y-87796577D01*
X151540179Y-87987054D01*
X151492560Y-88082292D01*
X151444940Y-88129911D01*
X151349702Y-88177530D01*
X132871131Y-86272768D02*
X132394940Y-85939434D01*
X132871131Y-85701339D02*
X131871131Y-85701339D01*
X131871131Y-86082292D01*
X131918750Y-86177530D01*
X131966369Y-86225149D01*
X132061607Y-86272768D01*
X132204464Y-86272768D01*
X132299702Y-86225149D01*
X132347321Y-86177530D01*
X132394940Y-86082292D01*
X132394940Y-85701339D01*
X132871131Y-87225149D02*
X132871131Y-86653720D01*
X132871131Y-86939434D02*
X131871131Y-86939434D01*
X132013988Y-86844196D01*
X132109226Y-86748958D01*
X132156845Y-86653720D01*
X132299702Y-87796577D02*
X132252083Y-87701339D01*
X132204464Y-87653720D01*
X132109226Y-87606101D01*
X132061607Y-87606101D01*
X131966369Y-87653720D01*
X131918750Y-87701339D01*
X131871131Y-87796577D01*
X131871131Y-87987054D01*
X131918750Y-88082292D01*
X131966369Y-88129911D01*
X132061607Y-88177530D01*
X132109226Y-88177530D01*
X132204464Y-88129911D01*
X132252083Y-88082292D01*
X132299702Y-87987054D01*
X132299702Y-87796577D01*
X132347321Y-87701339D01*
X132394940Y-87653720D01*
X132490179Y-87606101D01*
X132680655Y-87606101D01*
X132775893Y-87653720D01*
X132823512Y-87701339D01*
X132871131Y-87796577D01*
X132871131Y-87987054D01*
X132823512Y-88082292D01*
X132775893Y-88129911D01*
X132680655Y-88177530D01*
X132490179Y-88177530D01*
X132394940Y-88129911D01*
X132347321Y-88082292D01*
X132299702Y-87987054D01*
X113821131Y-83891518D02*
X113344940Y-83558184D01*
X113821131Y-83320089D02*
X112821131Y-83320089D01*
X112821131Y-83701042D01*
X112868750Y-83796280D01*
X112916369Y-83843899D01*
X113011607Y-83891518D01*
X113154464Y-83891518D01*
X113249702Y-83843899D01*
X113297321Y-83796280D01*
X113344940Y-83701042D01*
X113344940Y-83320089D01*
X113821131Y-84843899D02*
X113821131Y-84272470D01*
X113821131Y-84558184D02*
X112821131Y-84558184D01*
X112963988Y-84462946D01*
X113059226Y-84367708D01*
X113106845Y-84272470D01*
X112821131Y-85177232D02*
X112821131Y-85843899D01*
X113821131Y-85415327D01*
X90008631Y-86272768D02*
X89532440Y-85939434D01*
X90008631Y-85701339D02*
X89008631Y-85701339D01*
X89008631Y-86082292D01*
X89056250Y-86177530D01*
X89103869Y-86225149D01*
X89199107Y-86272768D01*
X89341964Y-86272768D01*
X89437202Y-86225149D01*
X89484821Y-86177530D01*
X89532440Y-86082292D01*
X89532440Y-85701339D01*
X90008631Y-87225149D02*
X90008631Y-86653720D01*
X90008631Y-86939434D02*
X89008631Y-86939434D01*
X89151488Y-86844196D01*
X89246726Y-86748958D01*
X89294345Y-86653720D01*
X89008631Y-88082292D02*
X89008631Y-87891815D01*
X89056250Y-87796577D01*
X89103869Y-87748958D01*
X89246726Y-87653720D01*
X89437202Y-87606101D01*
X89818155Y-87606101D01*
X89913393Y-87653720D01*
X89961012Y-87701339D01*
X90008631Y-87796577D01*
X90008631Y-87987054D01*
X89961012Y-88082292D01*
X89913393Y-88129911D01*
X89818155Y-88177530D01*
X89580060Y-88177530D01*
X89484821Y-88129911D01*
X89437202Y-88082292D01*
X89389583Y-87987054D01*
X89389583Y-87796577D01*
X89437202Y-87701339D01*
X89484821Y-87653720D01*
X89580060Y-87606101D01*
X351946131Y-67222768D02*
X351469940Y-66889434D01*
X351946131Y-66651339D02*
X350946131Y-66651339D01*
X350946131Y-67032292D01*
X350993750Y-67127530D01*
X351041369Y-67175149D01*
X351136607Y-67222768D01*
X351279464Y-67222768D01*
X351374702Y-67175149D01*
X351422321Y-67127530D01*
X351469940Y-67032292D01*
X351469940Y-66651339D01*
X351946131Y-68175149D02*
X351946131Y-67603720D01*
X351946131Y-67889434D02*
X350946131Y-67889434D01*
X351088988Y-67794196D01*
X351184226Y-67698958D01*
X351231845Y-67603720D01*
X350946131Y-69079911D02*
X350946131Y-68603720D01*
X351422321Y-68556101D01*
X351374702Y-68603720D01*
X351327083Y-68698958D01*
X351327083Y-68937054D01*
X351374702Y-69032292D01*
X351422321Y-69079911D01*
X351517560Y-69127530D01*
X351755655Y-69127530D01*
X351850893Y-69079911D01*
X351898512Y-69032292D01*
X351946131Y-68937054D01*
X351946131Y-68698958D01*
X351898512Y-68603720D01*
X351850893Y-68556101D01*
X331705506Y-67222768D02*
X331229315Y-66889434D01*
X331705506Y-66651339D02*
X330705506Y-66651339D01*
X330705506Y-67032292D01*
X330753125Y-67127530D01*
X330800744Y-67175149D01*
X330895982Y-67222768D01*
X331038839Y-67222768D01*
X331134077Y-67175149D01*
X331181696Y-67127530D01*
X331229315Y-67032292D01*
X331229315Y-66651339D01*
X331705506Y-68175149D02*
X331705506Y-67603720D01*
X331705506Y-67889434D02*
X330705506Y-67889434D01*
X330848363Y-67794196D01*
X330943601Y-67698958D01*
X330991220Y-67603720D01*
X331038839Y-69032292D02*
X331705506Y-69032292D01*
X330657887Y-68794196D02*
X331372173Y-68556101D01*
X331372173Y-69175149D01*
X313846131Y-67222768D02*
X313369940Y-66889434D01*
X313846131Y-66651339D02*
X312846131Y-66651339D01*
X312846131Y-67032292D01*
X312893750Y-67127530D01*
X312941369Y-67175149D01*
X313036607Y-67222768D01*
X313179464Y-67222768D01*
X313274702Y-67175149D01*
X313322321Y-67127530D01*
X313369940Y-67032292D01*
X313369940Y-66651339D01*
X313846131Y-68175149D02*
X313846131Y-67603720D01*
X313846131Y-67889434D02*
X312846131Y-67889434D01*
X312988988Y-67794196D01*
X313084226Y-67698958D01*
X313131845Y-67603720D01*
X312846131Y-68508482D02*
X312846131Y-69127530D01*
X313227083Y-68794196D01*
X313227083Y-68937054D01*
X313274702Y-69032292D01*
X313322321Y-69079911D01*
X313417560Y-69127530D01*
X313655655Y-69127530D01*
X313750893Y-69079911D01*
X313798512Y-69032292D01*
X313846131Y-68937054D01*
X313846131Y-68651339D01*
X313798512Y-68556101D01*
X313750893Y-68508482D01*
X294796131Y-67222768D02*
X294319940Y-66889434D01*
X294796131Y-66651339D02*
X293796131Y-66651339D01*
X293796131Y-67032292D01*
X293843750Y-67127530D01*
X293891369Y-67175149D01*
X293986607Y-67222768D01*
X294129464Y-67222768D01*
X294224702Y-67175149D01*
X294272321Y-67127530D01*
X294319940Y-67032292D01*
X294319940Y-66651339D01*
X294796131Y-68175149D02*
X294796131Y-67603720D01*
X294796131Y-67889434D02*
X293796131Y-67889434D01*
X293938988Y-67794196D01*
X294034226Y-67698958D01*
X294081845Y-67603720D01*
X293891369Y-68556101D02*
X293843750Y-68603720D01*
X293796131Y-68698958D01*
X293796131Y-68937054D01*
X293843750Y-69032292D01*
X293891369Y-69079911D01*
X293986607Y-69127530D01*
X294081845Y-69127530D01*
X294224702Y-69079911D01*
X294796131Y-68508482D01*
X294796131Y-69127530D01*
X275746131Y-67222768D02*
X275269940Y-66889434D01*
X275746131Y-66651339D02*
X274746131Y-66651339D01*
X274746131Y-67032292D01*
X274793750Y-67127530D01*
X274841369Y-67175149D01*
X274936607Y-67222768D01*
X275079464Y-67222768D01*
X275174702Y-67175149D01*
X275222321Y-67127530D01*
X275269940Y-67032292D01*
X275269940Y-66651339D01*
X275746131Y-68175149D02*
X275746131Y-67603720D01*
X275746131Y-67889434D02*
X274746131Y-67889434D01*
X274888988Y-67794196D01*
X274984226Y-67698958D01*
X275031845Y-67603720D01*
X275746131Y-69127530D02*
X275746131Y-68556101D01*
X275746131Y-68841815D02*
X274746131Y-68841815D01*
X274888988Y-68746577D01*
X274984226Y-68651339D01*
X275031845Y-68556101D01*
X256696131Y-67222768D02*
X256219940Y-66889434D01*
X256696131Y-66651339D02*
X255696131Y-66651339D01*
X255696131Y-67032292D01*
X255743750Y-67127530D01*
X255791369Y-67175149D01*
X255886607Y-67222768D01*
X256029464Y-67222768D01*
X256124702Y-67175149D01*
X256172321Y-67127530D01*
X256219940Y-67032292D01*
X256219940Y-66651339D01*
X256696131Y-68175149D02*
X256696131Y-67603720D01*
X256696131Y-67889434D02*
X255696131Y-67889434D01*
X255838988Y-67794196D01*
X255934226Y-67698958D01*
X255981845Y-67603720D01*
X255696131Y-68794196D02*
X255696131Y-68889435D01*
X255743750Y-68984673D01*
X255791369Y-69032292D01*
X255886607Y-69079911D01*
X256077083Y-69127530D01*
X256315179Y-69127530D01*
X256505655Y-69079911D01*
X256600893Y-69032292D01*
X256648512Y-68984673D01*
X256696131Y-68889435D01*
X256696131Y-68794196D01*
X256648512Y-68698958D01*
X256600893Y-68651339D01*
X256505655Y-68603720D01*
X256315179Y-68556101D01*
X256077083Y-68556101D01*
X255886607Y-68603720D01*
X255791369Y-68651339D01*
X255743750Y-68698958D01*
X255696131Y-68794196D01*
X237646131Y-67698959D02*
X237169940Y-67365625D01*
X237646131Y-67127530D02*
X236646131Y-67127530D01*
X236646131Y-67508483D01*
X236693750Y-67603721D01*
X236741369Y-67651340D01*
X236836607Y-67698959D01*
X236979464Y-67698959D01*
X237074702Y-67651340D01*
X237122321Y-67603721D01*
X237169940Y-67508483D01*
X237169940Y-67127530D01*
X237646131Y-68175149D02*
X237646131Y-68365625D01*
X237598512Y-68460864D01*
X237550893Y-68508483D01*
X237408036Y-68603721D01*
X237217560Y-68651340D01*
X236836607Y-68651340D01*
X236741369Y-68603721D01*
X236693750Y-68556102D01*
X236646131Y-68460864D01*
X236646131Y-68270387D01*
X236693750Y-68175149D01*
X236741369Y-68127530D01*
X236836607Y-68079911D01*
X237074702Y-68079911D01*
X237169940Y-68127530D01*
X237217560Y-68175149D01*
X237265179Y-68270387D01*
X237265179Y-68460864D01*
X237217560Y-68556102D01*
X237169940Y-68603721D01*
X237074702Y-68651340D01*
X218596131Y-67698959D02*
X218119940Y-67365625D01*
X218596131Y-67127530D02*
X217596131Y-67127530D01*
X217596131Y-67508483D01*
X217643750Y-67603721D01*
X217691369Y-67651340D01*
X217786607Y-67698959D01*
X217929464Y-67698959D01*
X218024702Y-67651340D01*
X218072321Y-67603721D01*
X218119940Y-67508483D01*
X218119940Y-67127530D01*
X218024702Y-68270387D02*
X217977083Y-68175149D01*
X217929464Y-68127530D01*
X217834226Y-68079911D01*
X217786607Y-68079911D01*
X217691369Y-68127530D01*
X217643750Y-68175149D01*
X217596131Y-68270387D01*
X217596131Y-68460864D01*
X217643750Y-68556102D01*
X217691369Y-68603721D01*
X217786607Y-68651340D01*
X217834226Y-68651340D01*
X217929464Y-68603721D01*
X217977083Y-68556102D01*
X218024702Y-68460864D01*
X218024702Y-68270387D01*
X218072321Y-68175149D01*
X218119940Y-68127530D01*
X218215179Y-68079911D01*
X218405655Y-68079911D01*
X218500893Y-68127530D01*
X218548512Y-68175149D01*
X218596131Y-68270387D01*
X218596131Y-68460864D01*
X218548512Y-68556102D01*
X218500893Y-68603721D01*
X218405655Y-68651340D01*
X218215179Y-68651340D01*
X218119940Y-68603721D01*
X218072321Y-68556102D01*
X218024702Y-68460864D01*
X199546131Y-67698959D02*
X199069940Y-67365625D01*
X199546131Y-67127530D02*
X198546131Y-67127530D01*
X198546131Y-67508483D01*
X198593750Y-67603721D01*
X198641369Y-67651340D01*
X198736607Y-67698959D01*
X198879464Y-67698959D01*
X198974702Y-67651340D01*
X199022321Y-67603721D01*
X199069940Y-67508483D01*
X199069940Y-67127530D01*
X198546131Y-68032292D02*
X198546131Y-68698959D01*
X199546131Y-68270387D01*
X180496131Y-67698959D02*
X180019940Y-67365625D01*
X180496131Y-67127530D02*
X179496131Y-67127530D01*
X179496131Y-67508483D01*
X179543750Y-67603721D01*
X179591369Y-67651340D01*
X179686607Y-67698959D01*
X179829464Y-67698959D01*
X179924702Y-67651340D01*
X179972321Y-67603721D01*
X180019940Y-67508483D01*
X180019940Y-67127530D01*
X179496131Y-68556102D02*
X179496131Y-68365625D01*
X179543750Y-68270387D01*
X179591369Y-68222768D01*
X179734226Y-68127530D01*
X179924702Y-68079911D01*
X180305655Y-68079911D01*
X180400893Y-68127530D01*
X180448512Y-68175149D01*
X180496131Y-68270387D01*
X180496131Y-68460864D01*
X180448512Y-68556102D01*
X180400893Y-68603721D01*
X180305655Y-68651340D01*
X180067560Y-68651340D01*
X179972321Y-68603721D01*
X179924702Y-68556102D01*
X179877083Y-68460864D01*
X179877083Y-68270387D01*
X179924702Y-68175149D01*
X179972321Y-68127530D01*
X180067560Y-68079911D01*
X161446131Y-67698959D02*
X160969940Y-67365625D01*
X161446131Y-67127530D02*
X160446131Y-67127530D01*
X160446131Y-67508483D01*
X160493750Y-67603721D01*
X160541369Y-67651340D01*
X160636607Y-67698959D01*
X160779464Y-67698959D01*
X160874702Y-67651340D01*
X160922321Y-67603721D01*
X160969940Y-67508483D01*
X160969940Y-67127530D01*
X160446131Y-68603721D02*
X160446131Y-68127530D01*
X160922321Y-68079911D01*
X160874702Y-68127530D01*
X160827083Y-68222768D01*
X160827083Y-68460864D01*
X160874702Y-68556102D01*
X160922321Y-68603721D01*
X161017560Y-68651340D01*
X161255655Y-68651340D01*
X161350893Y-68603721D01*
X161398512Y-68556102D01*
X161446131Y-68460864D01*
X161446131Y-68222768D01*
X161398512Y-68127530D01*
X161350893Y-68079911D01*
X142396131Y-67698959D02*
X141919940Y-67365625D01*
X142396131Y-67127530D02*
X141396131Y-67127530D01*
X141396131Y-67508483D01*
X141443750Y-67603721D01*
X141491369Y-67651340D01*
X141586607Y-67698959D01*
X141729464Y-67698959D01*
X141824702Y-67651340D01*
X141872321Y-67603721D01*
X141919940Y-67508483D01*
X141919940Y-67127530D01*
X141729464Y-68556102D02*
X142396131Y-68556102D01*
X141348512Y-68318006D02*
X142062798Y-68079911D01*
X142062798Y-68698959D01*
X123346131Y-67698959D02*
X122869940Y-67365625D01*
X123346131Y-67127530D02*
X122346131Y-67127530D01*
X122346131Y-67508483D01*
X122393750Y-67603721D01*
X122441369Y-67651340D01*
X122536607Y-67698959D01*
X122679464Y-67698959D01*
X122774702Y-67651340D01*
X122822321Y-67603721D01*
X122869940Y-67508483D01*
X122869940Y-67127530D01*
X122346131Y-68032292D02*
X122346131Y-68651340D01*
X122727083Y-68318006D01*
X122727083Y-68460864D01*
X122774702Y-68556102D01*
X122822321Y-68603721D01*
X122917560Y-68651340D01*
X123155655Y-68651340D01*
X123250893Y-68603721D01*
X123298512Y-68556102D01*
X123346131Y-68460864D01*
X123346131Y-68175149D01*
X123298512Y-68079911D01*
X123250893Y-68032292D01*
X104296131Y-67698959D02*
X103819940Y-67365625D01*
X104296131Y-67127530D02*
X103296131Y-67127530D01*
X103296131Y-67508483D01*
X103343750Y-67603721D01*
X103391369Y-67651340D01*
X103486607Y-67698959D01*
X103629464Y-67698959D01*
X103724702Y-67651340D01*
X103772321Y-67603721D01*
X103819940Y-67508483D01*
X103819940Y-67127530D01*
X103391369Y-68079911D02*
X103343750Y-68127530D01*
X103296131Y-68222768D01*
X103296131Y-68460864D01*
X103343750Y-68556102D01*
X103391369Y-68603721D01*
X103486607Y-68651340D01*
X103581845Y-68651340D01*
X103724702Y-68603721D01*
X104296131Y-68032292D01*
X104296131Y-68651340D01*
X85246131Y-67698959D02*
X84769940Y-67365625D01*
X85246131Y-67127530D02*
X84246131Y-67127530D01*
X84246131Y-67508483D01*
X84293750Y-67603721D01*
X84341369Y-67651340D01*
X84436607Y-67698959D01*
X84579464Y-67698959D01*
X84674702Y-67651340D01*
X84722321Y-67603721D01*
X84769940Y-67508483D01*
X84769940Y-67127530D01*
X85246131Y-68651340D02*
X85246131Y-68079911D01*
X85246131Y-68365625D02*
X84246131Y-68365625D01*
X84388988Y-68270387D01*
X84484226Y-68175149D01*
X84531845Y-68079911D01*
X94778571Y-64716667D02*
X94778571Y-64383333D01*
X95302381Y-64383333D02*
X94302381Y-64383333D01*
X94302381Y-64859524D01*
X95302381Y-65764286D02*
X95302381Y-65192857D01*
X95302381Y-65478571D02*
X94302381Y-65478571D01*
X94445238Y-65383333D01*
X94540476Y-65288095D01*
X94588095Y-65192857D01*
X363211756Y-132135714D02*
X362211756Y-132135714D01*
X362211756Y-132373809D01*
X362259375Y-132516667D01*
X362354613Y-132611905D01*
X362449851Y-132659524D01*
X362640327Y-132707143D01*
X362783185Y-132707143D01*
X362973661Y-132659524D01*
X363068899Y-132611905D01*
X363164137Y-132516667D01*
X363211756Y-132373809D01*
X363211756Y-132135714D01*
X362211756Y-133564286D02*
X362211756Y-133373809D01*
X362259375Y-133278571D01*
X362306994Y-133230952D01*
X362449851Y-133135714D01*
X362640327Y-133088095D01*
X363021280Y-133088095D01*
X363116518Y-133135714D01*
X363164137Y-133183333D01*
X363211756Y-133278571D01*
X363211756Y-133469048D01*
X363164137Y-133564286D01*
X363116518Y-133611905D01*
X363021280Y-133659524D01*
X362783185Y-133659524D01*
X362687946Y-133611905D01*
X362640327Y-133564286D01*
X362592708Y-133469048D01*
X362592708Y-133278571D01*
X362640327Y-133183333D01*
X362687946Y-133135714D01*
X362783185Y-133088095D01*
X362640327Y-134230952D02*
X362592708Y-134135714D01*
X362545089Y-134088095D01*
X362449851Y-134040476D01*
X362402232Y-134040476D01*
X362306994Y-134088095D01*
X362259375Y-134135714D01*
X362211756Y-134230952D01*
X362211756Y-134421429D01*
X362259375Y-134516667D01*
X362306994Y-134564286D01*
X362402232Y-134611905D01*
X362449851Y-134611905D01*
X362545089Y-134564286D01*
X362592708Y-134516667D01*
X362640327Y-134421429D01*
X362640327Y-134230952D01*
X362687946Y-134135714D01*
X362735565Y-134088095D01*
X362830804Y-134040476D01*
X363021280Y-134040476D01*
X363116518Y-134088095D01*
X363164137Y-134135714D01*
X363211756Y-134230952D01*
X363211756Y-134421429D01*
X363164137Y-134516667D01*
X363116518Y-134564286D01*
X363021280Y-134611905D01*
X362830804Y-134611905D01*
X362735565Y-134564286D01*
X362687946Y-134516667D01*
X362640327Y-134421429D01*
X344161756Y-132135714D02*
X343161756Y-132135714D01*
X343161756Y-132373809D01*
X343209375Y-132516667D01*
X343304613Y-132611905D01*
X343399851Y-132659524D01*
X343590327Y-132707143D01*
X343733185Y-132707143D01*
X343923661Y-132659524D01*
X344018899Y-132611905D01*
X344114137Y-132516667D01*
X344161756Y-132373809D01*
X344161756Y-132135714D01*
X343161756Y-133564286D02*
X343161756Y-133373809D01*
X343209375Y-133278571D01*
X343256994Y-133230952D01*
X343399851Y-133135714D01*
X343590327Y-133088095D01*
X343971280Y-133088095D01*
X344066518Y-133135714D01*
X344114137Y-133183333D01*
X344161756Y-133278571D01*
X344161756Y-133469048D01*
X344114137Y-133564286D01*
X344066518Y-133611905D01*
X343971280Y-133659524D01*
X343733185Y-133659524D01*
X343637946Y-133611905D01*
X343590327Y-133564286D01*
X343542708Y-133469048D01*
X343542708Y-133278571D01*
X343590327Y-133183333D01*
X343637946Y-133135714D01*
X343733185Y-133088095D01*
X343161756Y-133992857D02*
X343161756Y-134659524D01*
X344161756Y-134230952D01*
X325111756Y-129754464D02*
X324111756Y-129754464D01*
X324111756Y-129992559D01*
X324159375Y-130135417D01*
X324254613Y-130230655D01*
X324349851Y-130278274D01*
X324540327Y-130325893D01*
X324683185Y-130325893D01*
X324873661Y-130278274D01*
X324968899Y-130230655D01*
X325064137Y-130135417D01*
X325111756Y-129992559D01*
X325111756Y-129754464D01*
X324111756Y-131183036D02*
X324111756Y-130992559D01*
X324159375Y-130897321D01*
X324206994Y-130849702D01*
X324349851Y-130754464D01*
X324540327Y-130706845D01*
X324921280Y-130706845D01*
X325016518Y-130754464D01*
X325064137Y-130802083D01*
X325111756Y-130897321D01*
X325111756Y-131087798D01*
X325064137Y-131183036D01*
X325016518Y-131230655D01*
X324921280Y-131278274D01*
X324683185Y-131278274D01*
X324587946Y-131230655D01*
X324540327Y-131183036D01*
X324492708Y-131087798D01*
X324492708Y-130897321D01*
X324540327Y-130802083D01*
X324587946Y-130754464D01*
X324683185Y-130706845D01*
X324111756Y-132135417D02*
X324111756Y-131944940D01*
X324159375Y-131849702D01*
X324206994Y-131802083D01*
X324349851Y-131706845D01*
X324540327Y-131659226D01*
X324921280Y-131659226D01*
X325016518Y-131706845D01*
X325064137Y-131754464D01*
X325111756Y-131849702D01*
X325111756Y-132040179D01*
X325064137Y-132135417D01*
X325016518Y-132183036D01*
X324921280Y-132230655D01*
X324683185Y-132230655D01*
X324587946Y-132183036D01*
X324540327Y-132135417D01*
X324492708Y-132040179D01*
X324492708Y-131849702D01*
X324540327Y-131754464D01*
X324587946Y-131706845D01*
X324683185Y-131659226D01*
X292964881Y-130945089D02*
X291964881Y-130945089D01*
X291964881Y-131183184D01*
X292012500Y-131326042D01*
X292107738Y-131421280D01*
X292202976Y-131468899D01*
X292393452Y-131516518D01*
X292536310Y-131516518D01*
X292726786Y-131468899D01*
X292822024Y-131421280D01*
X292917262Y-131326042D01*
X292964881Y-131183184D01*
X292964881Y-130945089D01*
X291964881Y-132373661D02*
X291964881Y-132183184D01*
X292012500Y-132087946D01*
X292060119Y-132040327D01*
X292202976Y-131945089D01*
X292393452Y-131897470D01*
X292774405Y-131897470D01*
X292869643Y-131945089D01*
X292917262Y-131992708D01*
X292964881Y-132087946D01*
X292964881Y-132278423D01*
X292917262Y-132373661D01*
X292869643Y-132421280D01*
X292774405Y-132468899D01*
X292536310Y-132468899D01*
X292441071Y-132421280D01*
X292393452Y-132373661D01*
X292345833Y-132278423D01*
X292345833Y-132087946D01*
X292393452Y-131992708D01*
X292441071Y-131945089D01*
X292536310Y-131897470D01*
X291964881Y-133373661D02*
X291964881Y-132897470D01*
X292441071Y-132849851D01*
X292393452Y-132897470D01*
X292345833Y-132992708D01*
X292345833Y-133230804D01*
X292393452Y-133326042D01*
X292441071Y-133373661D01*
X292536310Y-133421280D01*
X292774405Y-133421280D01*
X292869643Y-133373661D01*
X292917262Y-133326042D01*
X292964881Y-133230804D01*
X292964881Y-132992708D01*
X292917262Y-132897470D01*
X292869643Y-132849851D01*
X289393006Y-130945089D02*
X288393006Y-130945089D01*
X288393006Y-131183184D01*
X288440625Y-131326042D01*
X288535863Y-131421280D01*
X288631101Y-131468899D01*
X288821577Y-131516518D01*
X288964435Y-131516518D01*
X289154911Y-131468899D01*
X289250149Y-131421280D01*
X289345387Y-131326042D01*
X289393006Y-131183184D01*
X289393006Y-130945089D01*
X288393006Y-132373661D02*
X288393006Y-132183184D01*
X288440625Y-132087946D01*
X288488244Y-132040327D01*
X288631101Y-131945089D01*
X288821577Y-131897470D01*
X289202530Y-131897470D01*
X289297768Y-131945089D01*
X289345387Y-131992708D01*
X289393006Y-132087946D01*
X289393006Y-132278423D01*
X289345387Y-132373661D01*
X289297768Y-132421280D01*
X289202530Y-132468899D01*
X288964435Y-132468899D01*
X288869196Y-132421280D01*
X288821577Y-132373661D01*
X288773958Y-132278423D01*
X288773958Y-132087946D01*
X288821577Y-131992708D01*
X288869196Y-131945089D01*
X288964435Y-131897470D01*
X288726339Y-133326042D02*
X289393006Y-133326042D01*
X288345387Y-133087946D02*
X289059673Y-132849851D01*
X289059673Y-133468899D01*
X237005506Y-136898214D02*
X236005506Y-136898214D01*
X236005506Y-137136309D01*
X236053125Y-137279167D01*
X236148363Y-137374405D01*
X236243601Y-137422024D01*
X236434077Y-137469643D01*
X236576935Y-137469643D01*
X236767411Y-137422024D01*
X236862649Y-137374405D01*
X236957887Y-137279167D01*
X237005506Y-137136309D01*
X237005506Y-136898214D01*
X236005506Y-138326786D02*
X236005506Y-138136309D01*
X236053125Y-138041071D01*
X236100744Y-137993452D01*
X236243601Y-137898214D01*
X236434077Y-137850595D01*
X236815030Y-137850595D01*
X236910268Y-137898214D01*
X236957887Y-137945833D01*
X237005506Y-138041071D01*
X237005506Y-138231548D01*
X236957887Y-138326786D01*
X236910268Y-138374405D01*
X236815030Y-138422024D01*
X236576935Y-138422024D01*
X236481696Y-138374405D01*
X236434077Y-138326786D01*
X236386458Y-138231548D01*
X236386458Y-138041071D01*
X236434077Y-137945833D01*
X236481696Y-137898214D01*
X236576935Y-137850595D01*
X236005506Y-138755357D02*
X236005506Y-139374405D01*
X236386458Y-139041071D01*
X236386458Y-139183929D01*
X236434077Y-139279167D01*
X236481696Y-139326786D01*
X236576935Y-139374405D01*
X236815030Y-139374405D01*
X236910268Y-139326786D01*
X236957887Y-139279167D01*
X237005506Y-139183929D01*
X237005506Y-138898214D01*
X236957887Y-138802976D01*
X236910268Y-138755357D01*
X232243006Y-136898214D02*
X231243006Y-136898214D01*
X231243006Y-137136309D01*
X231290625Y-137279167D01*
X231385863Y-137374405D01*
X231481101Y-137422024D01*
X231671577Y-137469643D01*
X231814435Y-137469643D01*
X232004911Y-137422024D01*
X232100149Y-137374405D01*
X232195387Y-137279167D01*
X232243006Y-137136309D01*
X232243006Y-136898214D01*
X231243006Y-138326786D02*
X231243006Y-138136309D01*
X231290625Y-138041071D01*
X231338244Y-137993452D01*
X231481101Y-137898214D01*
X231671577Y-137850595D01*
X232052530Y-137850595D01*
X232147768Y-137898214D01*
X232195387Y-137945833D01*
X232243006Y-138041071D01*
X232243006Y-138231548D01*
X232195387Y-138326786D01*
X232147768Y-138374405D01*
X232052530Y-138422024D01*
X231814435Y-138422024D01*
X231719196Y-138374405D01*
X231671577Y-138326786D01*
X231623958Y-138231548D01*
X231623958Y-138041071D01*
X231671577Y-137945833D01*
X231719196Y-137898214D01*
X231814435Y-137850595D01*
X231338244Y-138802976D02*
X231290625Y-138850595D01*
X231243006Y-138945833D01*
X231243006Y-139183929D01*
X231290625Y-139279167D01*
X231338244Y-139326786D01*
X231433482Y-139374405D01*
X231528720Y-139374405D01*
X231671577Y-139326786D01*
X232243006Y-138755357D01*
X232243006Y-139374405D01*
X191761756Y-135707589D02*
X190761756Y-135707589D01*
X190761756Y-135945684D01*
X190809375Y-136088542D01*
X190904613Y-136183780D01*
X190999851Y-136231399D01*
X191190327Y-136279018D01*
X191333185Y-136279018D01*
X191523661Y-136231399D01*
X191618899Y-136183780D01*
X191714137Y-136088542D01*
X191761756Y-135945684D01*
X191761756Y-135707589D01*
X190761756Y-137136161D02*
X190761756Y-136945684D01*
X190809375Y-136850446D01*
X190856994Y-136802827D01*
X190999851Y-136707589D01*
X191190327Y-136659970D01*
X191571280Y-136659970D01*
X191666518Y-136707589D01*
X191714137Y-136755208D01*
X191761756Y-136850446D01*
X191761756Y-137040923D01*
X191714137Y-137136161D01*
X191666518Y-137183780D01*
X191571280Y-137231399D01*
X191333185Y-137231399D01*
X191237946Y-137183780D01*
X191190327Y-137136161D01*
X191142708Y-137040923D01*
X191142708Y-136850446D01*
X191190327Y-136755208D01*
X191237946Y-136707589D01*
X191333185Y-136659970D01*
X191761756Y-138183780D02*
X191761756Y-137612351D01*
X191761756Y-137898065D02*
X190761756Y-137898065D01*
X190904613Y-137802827D01*
X190999851Y-137707589D01*
X191047470Y-137612351D01*
X151280506Y-135707589D02*
X150280506Y-135707589D01*
X150280506Y-135945684D01*
X150328125Y-136088542D01*
X150423363Y-136183780D01*
X150518601Y-136231399D01*
X150709077Y-136279018D01*
X150851935Y-136279018D01*
X151042411Y-136231399D01*
X151137649Y-136183780D01*
X151232887Y-136088542D01*
X151280506Y-135945684D01*
X151280506Y-135707589D01*
X150280506Y-137136161D02*
X150280506Y-136945684D01*
X150328125Y-136850446D01*
X150375744Y-136802827D01*
X150518601Y-136707589D01*
X150709077Y-136659970D01*
X151090030Y-136659970D01*
X151185268Y-136707589D01*
X151232887Y-136755208D01*
X151280506Y-136850446D01*
X151280506Y-137040923D01*
X151232887Y-137136161D01*
X151185268Y-137183780D01*
X151090030Y-137231399D01*
X150851935Y-137231399D01*
X150756696Y-137183780D01*
X150709077Y-137136161D01*
X150661458Y-137040923D01*
X150661458Y-136850446D01*
X150709077Y-136755208D01*
X150756696Y-136707589D01*
X150851935Y-136659970D01*
X150280506Y-137850446D02*
X150280506Y-137945685D01*
X150328125Y-138040923D01*
X150375744Y-138088542D01*
X150470982Y-138136161D01*
X150661458Y-138183780D01*
X150899554Y-138183780D01*
X151090030Y-138136161D01*
X151185268Y-138088542D01*
X151232887Y-138040923D01*
X151280506Y-137945685D01*
X151280506Y-137850446D01*
X151232887Y-137755208D01*
X151185268Y-137707589D01*
X151090030Y-137659970D01*
X150899554Y-137612351D01*
X150661458Y-137612351D01*
X150470982Y-137659970D01*
X150375744Y-137707589D01*
X150328125Y-137755208D01*
X150280506Y-137850446D01*
X127468006Y-135707589D02*
X126468006Y-135707589D01*
X126468006Y-135945684D01*
X126515625Y-136088542D01*
X126610863Y-136183780D01*
X126706101Y-136231399D01*
X126896577Y-136279018D01*
X127039435Y-136279018D01*
X127229911Y-136231399D01*
X127325149Y-136183780D01*
X127420387Y-136088542D01*
X127468006Y-135945684D01*
X127468006Y-135707589D01*
X126468006Y-137183780D02*
X126468006Y-136707589D01*
X126944196Y-136659970D01*
X126896577Y-136707589D01*
X126848958Y-136802827D01*
X126848958Y-137040923D01*
X126896577Y-137136161D01*
X126944196Y-137183780D01*
X127039435Y-137231399D01*
X127277530Y-137231399D01*
X127372768Y-137183780D01*
X127420387Y-137136161D01*
X127468006Y-137040923D01*
X127468006Y-136802827D01*
X127420387Y-136707589D01*
X127372768Y-136659970D01*
X127468006Y-137707589D02*
X127468006Y-137898065D01*
X127420387Y-137993304D01*
X127372768Y-138040923D01*
X127229911Y-138136161D01*
X127039435Y-138183780D01*
X126658482Y-138183780D01*
X126563244Y-138136161D01*
X126515625Y-138088542D01*
X126468006Y-137993304D01*
X126468006Y-137802827D01*
X126515625Y-137707589D01*
X126563244Y-137659970D01*
X126658482Y-137612351D01*
X126896577Y-137612351D01*
X126991815Y-137659970D01*
X127039435Y-137707589D01*
X127087054Y-137802827D01*
X127087054Y-137993304D01*
X127039435Y-138088542D01*
X126991815Y-138136161D01*
X126896577Y-138183780D01*
X104153981Y-132288114D02*
X103153981Y-132288114D01*
X103153981Y-132526209D01*
X103201600Y-132669067D01*
X103296838Y-132764305D01*
X103392076Y-132811924D01*
X103582552Y-132859543D01*
X103725410Y-132859543D01*
X103915886Y-132811924D01*
X104011124Y-132764305D01*
X104106362Y-132669067D01*
X104153981Y-132526209D01*
X104153981Y-132288114D01*
X103153981Y-133764305D02*
X103153981Y-133288114D01*
X103630171Y-133240495D01*
X103582552Y-133288114D01*
X103534933Y-133383352D01*
X103534933Y-133621448D01*
X103582552Y-133716686D01*
X103630171Y-133764305D01*
X103725410Y-133811924D01*
X103963505Y-133811924D01*
X104058743Y-133764305D01*
X104106362Y-133716686D01*
X104153981Y-133621448D01*
X104153981Y-133383352D01*
X104106362Y-133288114D01*
X104058743Y-133240495D01*
X103582552Y-134383352D02*
X103534933Y-134288114D01*
X103487314Y-134240495D01*
X103392076Y-134192876D01*
X103344457Y-134192876D01*
X103249219Y-134240495D01*
X103201600Y-134288114D01*
X103153981Y-134383352D01*
X103153981Y-134573829D01*
X103201600Y-134669067D01*
X103249219Y-134716686D01*
X103344457Y-134764305D01*
X103392076Y-134764305D01*
X103487314Y-134716686D01*
X103534933Y-134669067D01*
X103582552Y-134573829D01*
X103582552Y-134383352D01*
X103630171Y-134288114D01*
X103677790Y-134240495D01*
X103773029Y-134192876D01*
X103963505Y-134192876D01*
X104058743Y-134240495D01*
X104106362Y-134288114D01*
X104153981Y-134383352D01*
X104153981Y-134573829D01*
X104106362Y-134669067D01*
X104058743Y-134716686D01*
X103963505Y-134764305D01*
X103773029Y-134764305D01*
X103677790Y-134716686D01*
X103630171Y-134669067D01*
X103582552Y-134573829D01*
X363211756Y-122610714D02*
X362211756Y-122610714D01*
X362211756Y-122848809D01*
X362259375Y-122991667D01*
X362354613Y-123086905D01*
X362449851Y-123134524D01*
X362640327Y-123182143D01*
X362783185Y-123182143D01*
X362973661Y-123134524D01*
X363068899Y-123086905D01*
X363164137Y-122991667D01*
X363211756Y-122848809D01*
X363211756Y-122610714D01*
X362211756Y-124086905D02*
X362211756Y-123610714D01*
X362687946Y-123563095D01*
X362640327Y-123610714D01*
X362592708Y-123705952D01*
X362592708Y-123944048D01*
X362640327Y-124039286D01*
X362687946Y-124086905D01*
X362783185Y-124134524D01*
X363021280Y-124134524D01*
X363116518Y-124086905D01*
X363164137Y-124039286D01*
X363211756Y-123944048D01*
X363211756Y-123705952D01*
X363164137Y-123610714D01*
X363116518Y-123563095D01*
X362211756Y-124467857D02*
X362211756Y-125134524D01*
X363211756Y-124705952D01*
X348924256Y-116657589D02*
X347924256Y-116657589D01*
X347924256Y-116895684D01*
X347971875Y-117038542D01*
X348067113Y-117133780D01*
X348162351Y-117181399D01*
X348352827Y-117229018D01*
X348495685Y-117229018D01*
X348686161Y-117181399D01*
X348781399Y-117133780D01*
X348876637Y-117038542D01*
X348924256Y-116895684D01*
X348924256Y-116657589D01*
X347924256Y-118133780D02*
X347924256Y-117657589D01*
X348400446Y-117609970D01*
X348352827Y-117657589D01*
X348305208Y-117752827D01*
X348305208Y-117990923D01*
X348352827Y-118086161D01*
X348400446Y-118133780D01*
X348495685Y-118181399D01*
X348733780Y-118181399D01*
X348829018Y-118133780D01*
X348876637Y-118086161D01*
X348924256Y-117990923D01*
X348924256Y-117752827D01*
X348876637Y-117657589D01*
X348829018Y-117609970D01*
X347924256Y-119038542D02*
X347924256Y-118848065D01*
X347971875Y-118752827D01*
X348019494Y-118705208D01*
X348162351Y-118609970D01*
X348352827Y-118562351D01*
X348733780Y-118562351D01*
X348829018Y-118609970D01*
X348876637Y-118657589D01*
X348924256Y-118752827D01*
X348924256Y-118943304D01*
X348876637Y-119038542D01*
X348829018Y-119086161D01*
X348733780Y-119133780D01*
X348495685Y-119133780D01*
X348400446Y-119086161D01*
X348352827Y-119038542D01*
X348305208Y-118943304D01*
X348305208Y-118752827D01*
X348352827Y-118657589D01*
X348400446Y-118609970D01*
X348495685Y-118562351D01*
X313205506Y-116657589D02*
X312205506Y-116657589D01*
X312205506Y-116895684D01*
X312253125Y-117038542D01*
X312348363Y-117133780D01*
X312443601Y-117181399D01*
X312634077Y-117229018D01*
X312776935Y-117229018D01*
X312967411Y-117181399D01*
X313062649Y-117133780D01*
X313157887Y-117038542D01*
X313205506Y-116895684D01*
X313205506Y-116657589D01*
X312205506Y-118133780D02*
X312205506Y-117657589D01*
X312681696Y-117609970D01*
X312634077Y-117657589D01*
X312586458Y-117752827D01*
X312586458Y-117990923D01*
X312634077Y-118086161D01*
X312681696Y-118133780D01*
X312776935Y-118181399D01*
X313015030Y-118181399D01*
X313110268Y-118133780D01*
X313157887Y-118086161D01*
X313205506Y-117990923D01*
X313205506Y-117752827D01*
X313157887Y-117657589D01*
X313110268Y-117609970D01*
X312205506Y-119086161D02*
X312205506Y-118609970D01*
X312681696Y-118562351D01*
X312634077Y-118609970D01*
X312586458Y-118705208D01*
X312586458Y-118943304D01*
X312634077Y-119038542D01*
X312681696Y-119086161D01*
X312776935Y-119133780D01*
X313015030Y-119133780D01*
X313110268Y-119086161D01*
X313157887Y-119038542D01*
X313205506Y-118943304D01*
X313205506Y-118705208D01*
X313157887Y-118609970D01*
X313110268Y-118562351D01*
X294155506Y-116657589D02*
X293155506Y-116657589D01*
X293155506Y-116895684D01*
X293203125Y-117038542D01*
X293298363Y-117133780D01*
X293393601Y-117181399D01*
X293584077Y-117229018D01*
X293726935Y-117229018D01*
X293917411Y-117181399D01*
X294012649Y-117133780D01*
X294107887Y-117038542D01*
X294155506Y-116895684D01*
X294155506Y-116657589D01*
X293155506Y-118133780D02*
X293155506Y-117657589D01*
X293631696Y-117609970D01*
X293584077Y-117657589D01*
X293536458Y-117752827D01*
X293536458Y-117990923D01*
X293584077Y-118086161D01*
X293631696Y-118133780D01*
X293726935Y-118181399D01*
X293965030Y-118181399D01*
X294060268Y-118133780D01*
X294107887Y-118086161D01*
X294155506Y-117990923D01*
X294155506Y-117752827D01*
X294107887Y-117657589D01*
X294060268Y-117609970D01*
X293488839Y-119038542D02*
X294155506Y-119038542D01*
X293107887Y-118800446D02*
X293822173Y-118562351D01*
X293822173Y-119181399D01*
X275105506Y-116657589D02*
X274105506Y-116657589D01*
X274105506Y-116895684D01*
X274153125Y-117038542D01*
X274248363Y-117133780D01*
X274343601Y-117181399D01*
X274534077Y-117229018D01*
X274676935Y-117229018D01*
X274867411Y-117181399D01*
X274962649Y-117133780D01*
X275057887Y-117038542D01*
X275105506Y-116895684D01*
X275105506Y-116657589D01*
X274105506Y-118133780D02*
X274105506Y-117657589D01*
X274581696Y-117609970D01*
X274534077Y-117657589D01*
X274486458Y-117752827D01*
X274486458Y-117990923D01*
X274534077Y-118086161D01*
X274581696Y-118133780D01*
X274676935Y-118181399D01*
X274915030Y-118181399D01*
X275010268Y-118133780D01*
X275057887Y-118086161D01*
X275105506Y-117990923D01*
X275105506Y-117752827D01*
X275057887Y-117657589D01*
X275010268Y-117609970D01*
X274105506Y-118514732D02*
X274105506Y-119133780D01*
X274486458Y-118800446D01*
X274486458Y-118943304D01*
X274534077Y-119038542D01*
X274581696Y-119086161D01*
X274676935Y-119133780D01*
X274915030Y-119133780D01*
X275010268Y-119086161D01*
X275057887Y-119038542D01*
X275105506Y-118943304D01*
X275105506Y-118657589D01*
X275057887Y-118562351D01*
X275010268Y-118514732D01*
X256055506Y-116657589D02*
X255055506Y-116657589D01*
X255055506Y-116895684D01*
X255103125Y-117038542D01*
X255198363Y-117133780D01*
X255293601Y-117181399D01*
X255484077Y-117229018D01*
X255626935Y-117229018D01*
X255817411Y-117181399D01*
X255912649Y-117133780D01*
X256007887Y-117038542D01*
X256055506Y-116895684D01*
X256055506Y-116657589D01*
X255055506Y-118133780D02*
X255055506Y-117657589D01*
X255531696Y-117609970D01*
X255484077Y-117657589D01*
X255436458Y-117752827D01*
X255436458Y-117990923D01*
X255484077Y-118086161D01*
X255531696Y-118133780D01*
X255626935Y-118181399D01*
X255865030Y-118181399D01*
X255960268Y-118133780D01*
X256007887Y-118086161D01*
X256055506Y-117990923D01*
X256055506Y-117752827D01*
X256007887Y-117657589D01*
X255960268Y-117609970D01*
X255150744Y-118562351D02*
X255103125Y-118609970D01*
X255055506Y-118705208D01*
X255055506Y-118943304D01*
X255103125Y-119038542D01*
X255150744Y-119086161D01*
X255245982Y-119133780D01*
X255341220Y-119133780D01*
X255484077Y-119086161D01*
X256055506Y-118514732D01*
X256055506Y-119133780D01*
X237005506Y-116657589D02*
X236005506Y-116657589D01*
X236005506Y-116895684D01*
X236053125Y-117038542D01*
X236148363Y-117133780D01*
X236243601Y-117181399D01*
X236434077Y-117229018D01*
X236576935Y-117229018D01*
X236767411Y-117181399D01*
X236862649Y-117133780D01*
X236957887Y-117038542D01*
X237005506Y-116895684D01*
X237005506Y-116657589D01*
X236005506Y-118133780D02*
X236005506Y-117657589D01*
X236481696Y-117609970D01*
X236434077Y-117657589D01*
X236386458Y-117752827D01*
X236386458Y-117990923D01*
X236434077Y-118086161D01*
X236481696Y-118133780D01*
X236576935Y-118181399D01*
X236815030Y-118181399D01*
X236910268Y-118133780D01*
X236957887Y-118086161D01*
X237005506Y-117990923D01*
X237005506Y-117752827D01*
X236957887Y-117657589D01*
X236910268Y-117609970D01*
X237005506Y-119133780D02*
X237005506Y-118562351D01*
X237005506Y-118848065D02*
X236005506Y-118848065D01*
X236148363Y-118752827D01*
X236243601Y-118657589D01*
X236291220Y-118562351D01*
X217955506Y-116657589D02*
X216955506Y-116657589D01*
X216955506Y-116895684D01*
X217003125Y-117038542D01*
X217098363Y-117133780D01*
X217193601Y-117181399D01*
X217384077Y-117229018D01*
X217526935Y-117229018D01*
X217717411Y-117181399D01*
X217812649Y-117133780D01*
X217907887Y-117038542D01*
X217955506Y-116895684D01*
X217955506Y-116657589D01*
X216955506Y-118133780D02*
X216955506Y-117657589D01*
X217431696Y-117609970D01*
X217384077Y-117657589D01*
X217336458Y-117752827D01*
X217336458Y-117990923D01*
X217384077Y-118086161D01*
X217431696Y-118133780D01*
X217526935Y-118181399D01*
X217765030Y-118181399D01*
X217860268Y-118133780D01*
X217907887Y-118086161D01*
X217955506Y-117990923D01*
X217955506Y-117752827D01*
X217907887Y-117657589D01*
X217860268Y-117609970D01*
X216955506Y-118800446D02*
X216955506Y-118895685D01*
X217003125Y-118990923D01*
X217050744Y-119038542D01*
X217145982Y-119086161D01*
X217336458Y-119133780D01*
X217574554Y-119133780D01*
X217765030Y-119086161D01*
X217860268Y-119038542D01*
X217907887Y-118990923D01*
X217955506Y-118895685D01*
X217955506Y-118800446D01*
X217907887Y-118705208D01*
X217860268Y-118657589D01*
X217765030Y-118609970D01*
X217574554Y-118562351D01*
X217336458Y-118562351D01*
X217145982Y-118609970D01*
X217050744Y-118657589D01*
X217003125Y-118705208D01*
X216955506Y-118800446D01*
X198905506Y-116657589D02*
X197905506Y-116657589D01*
X197905506Y-116895684D01*
X197953125Y-117038542D01*
X198048363Y-117133780D01*
X198143601Y-117181399D01*
X198334077Y-117229018D01*
X198476935Y-117229018D01*
X198667411Y-117181399D01*
X198762649Y-117133780D01*
X198857887Y-117038542D01*
X198905506Y-116895684D01*
X198905506Y-116657589D01*
X198238839Y-118086161D02*
X198905506Y-118086161D01*
X197857887Y-117848065D02*
X198572173Y-117609970D01*
X198572173Y-118229018D01*
X198905506Y-118657589D02*
X198905506Y-118848065D01*
X198857887Y-118943304D01*
X198810268Y-118990923D01*
X198667411Y-119086161D01*
X198476935Y-119133780D01*
X198095982Y-119133780D01*
X198000744Y-119086161D01*
X197953125Y-119038542D01*
X197905506Y-118943304D01*
X197905506Y-118752827D01*
X197953125Y-118657589D01*
X198000744Y-118609970D01*
X198095982Y-118562351D01*
X198334077Y-118562351D01*
X198429315Y-118609970D01*
X198476935Y-118657589D01*
X198524554Y-118752827D01*
X198524554Y-118943304D01*
X198476935Y-119038542D01*
X198429315Y-119086161D01*
X198334077Y-119133780D01*
X179855506Y-116657589D02*
X178855506Y-116657589D01*
X178855506Y-116895684D01*
X178903125Y-117038542D01*
X178998363Y-117133780D01*
X179093601Y-117181399D01*
X179284077Y-117229018D01*
X179426935Y-117229018D01*
X179617411Y-117181399D01*
X179712649Y-117133780D01*
X179807887Y-117038542D01*
X179855506Y-116895684D01*
X179855506Y-116657589D01*
X179188839Y-118086161D02*
X179855506Y-118086161D01*
X178807887Y-117848065D02*
X179522173Y-117609970D01*
X179522173Y-118229018D01*
X179284077Y-118752827D02*
X179236458Y-118657589D01*
X179188839Y-118609970D01*
X179093601Y-118562351D01*
X179045982Y-118562351D01*
X178950744Y-118609970D01*
X178903125Y-118657589D01*
X178855506Y-118752827D01*
X178855506Y-118943304D01*
X178903125Y-119038542D01*
X178950744Y-119086161D01*
X179045982Y-119133780D01*
X179093601Y-119133780D01*
X179188839Y-119086161D01*
X179236458Y-119038542D01*
X179284077Y-118943304D01*
X179284077Y-118752827D01*
X179331696Y-118657589D01*
X179379315Y-118609970D01*
X179474554Y-118562351D01*
X179665030Y-118562351D01*
X179760268Y-118609970D01*
X179807887Y-118657589D01*
X179855506Y-118752827D01*
X179855506Y-118943304D01*
X179807887Y-119038542D01*
X179760268Y-119086161D01*
X179665030Y-119133780D01*
X179474554Y-119133780D01*
X179379315Y-119086161D01*
X179331696Y-119038542D01*
X179284077Y-118943304D01*
X160805506Y-116657589D02*
X159805506Y-116657589D01*
X159805506Y-116895684D01*
X159853125Y-117038542D01*
X159948363Y-117133780D01*
X160043601Y-117181399D01*
X160234077Y-117229018D01*
X160376935Y-117229018D01*
X160567411Y-117181399D01*
X160662649Y-117133780D01*
X160757887Y-117038542D01*
X160805506Y-116895684D01*
X160805506Y-116657589D01*
X160138839Y-118086161D02*
X160805506Y-118086161D01*
X159757887Y-117848065D02*
X160472173Y-117609970D01*
X160472173Y-118229018D01*
X159805506Y-118514732D02*
X159805506Y-119181399D01*
X160805506Y-118752827D01*
X141755506Y-116657589D02*
X140755506Y-116657589D01*
X140755506Y-116895684D01*
X140803125Y-117038542D01*
X140898363Y-117133780D01*
X140993601Y-117181399D01*
X141184077Y-117229018D01*
X141326935Y-117229018D01*
X141517411Y-117181399D01*
X141612649Y-117133780D01*
X141707887Y-117038542D01*
X141755506Y-116895684D01*
X141755506Y-116657589D01*
X141088839Y-118086161D02*
X141755506Y-118086161D01*
X140707887Y-117848065D02*
X141422173Y-117609970D01*
X141422173Y-118229018D01*
X140755506Y-119038542D02*
X140755506Y-118848065D01*
X140803125Y-118752827D01*
X140850744Y-118705208D01*
X140993601Y-118609970D01*
X141184077Y-118562351D01*
X141565030Y-118562351D01*
X141660268Y-118609970D01*
X141707887Y-118657589D01*
X141755506Y-118752827D01*
X141755506Y-118943304D01*
X141707887Y-119038542D01*
X141660268Y-119086161D01*
X141565030Y-119133780D01*
X141326935Y-119133780D01*
X141231696Y-119086161D01*
X141184077Y-119038542D01*
X141136458Y-118943304D01*
X141136458Y-118752827D01*
X141184077Y-118657589D01*
X141231696Y-118609970D01*
X141326935Y-118562351D01*
X122705506Y-116657589D02*
X121705506Y-116657589D01*
X121705506Y-116895684D01*
X121753125Y-117038542D01*
X121848363Y-117133780D01*
X121943601Y-117181399D01*
X122134077Y-117229018D01*
X122276935Y-117229018D01*
X122467411Y-117181399D01*
X122562649Y-117133780D01*
X122657887Y-117038542D01*
X122705506Y-116895684D01*
X122705506Y-116657589D01*
X122038839Y-118086161D02*
X122705506Y-118086161D01*
X121657887Y-117848065D02*
X122372173Y-117609970D01*
X122372173Y-118229018D01*
X121705506Y-119086161D02*
X121705506Y-118609970D01*
X122181696Y-118562351D01*
X122134077Y-118609970D01*
X122086458Y-118705208D01*
X122086458Y-118943304D01*
X122134077Y-119038542D01*
X122181696Y-119086161D01*
X122276935Y-119133780D01*
X122515030Y-119133780D01*
X122610268Y-119086161D01*
X122657887Y-119038542D01*
X122705506Y-118943304D01*
X122705506Y-118705208D01*
X122657887Y-118609970D01*
X122610268Y-118562351D01*
X84605506Y-116657589D02*
X83605506Y-116657589D01*
X83605506Y-116895684D01*
X83653125Y-117038542D01*
X83748363Y-117133780D01*
X83843601Y-117181399D01*
X84034077Y-117229018D01*
X84176935Y-117229018D01*
X84367411Y-117181399D01*
X84462649Y-117133780D01*
X84557887Y-117038542D01*
X84605506Y-116895684D01*
X84605506Y-116657589D01*
X83938839Y-118086161D02*
X84605506Y-118086161D01*
X83557887Y-117848065D02*
X84272173Y-117609970D01*
X84272173Y-118229018D01*
X83938839Y-119038542D02*
X84605506Y-119038542D01*
X83557887Y-118800446D02*
X84272173Y-118562351D01*
X84272173Y-119181399D01*
X353686756Y-98798214D02*
X352686756Y-98798214D01*
X352686756Y-99036309D01*
X352734375Y-99179167D01*
X352829613Y-99274405D01*
X352924851Y-99322024D01*
X353115327Y-99369643D01*
X353258185Y-99369643D01*
X353448661Y-99322024D01*
X353543899Y-99274405D01*
X353639137Y-99179167D01*
X353686756Y-99036309D01*
X353686756Y-98798214D01*
X353020089Y-100226786D02*
X353686756Y-100226786D01*
X352639137Y-99988690D02*
X353353423Y-99750595D01*
X353353423Y-100369643D01*
X352686756Y-100655357D02*
X352686756Y-101274405D01*
X353067708Y-100941071D01*
X353067708Y-101083929D01*
X353115327Y-101179167D01*
X353162946Y-101226786D01*
X353258185Y-101274405D01*
X353496280Y-101274405D01*
X353591518Y-101226786D01*
X353639137Y-101179167D01*
X353686756Y-101083929D01*
X353686756Y-100798214D01*
X353639137Y-100702976D01*
X353591518Y-100655357D01*
X340589881Y-91654464D02*
X339589881Y-91654464D01*
X339589881Y-91892559D01*
X339637500Y-92035417D01*
X339732738Y-92130655D01*
X339827976Y-92178274D01*
X340018452Y-92225893D01*
X340161310Y-92225893D01*
X340351786Y-92178274D01*
X340447024Y-92130655D01*
X340542262Y-92035417D01*
X340589881Y-91892559D01*
X340589881Y-91654464D01*
X339923214Y-93083036D02*
X340589881Y-93083036D01*
X339542262Y-92844940D02*
X340256548Y-92606845D01*
X340256548Y-93225893D01*
X339685119Y-93559226D02*
X339637500Y-93606845D01*
X339589881Y-93702083D01*
X339589881Y-93940179D01*
X339637500Y-94035417D01*
X339685119Y-94083036D01*
X339780357Y-94130655D01*
X339875595Y-94130655D01*
X340018452Y-94083036D01*
X340589881Y-93511607D01*
X340589881Y-94130655D01*
X322730506Y-97607589D02*
X321730506Y-97607589D01*
X321730506Y-97845684D01*
X321778125Y-97988542D01*
X321873363Y-98083780D01*
X321968601Y-98131399D01*
X322159077Y-98179018D01*
X322301935Y-98179018D01*
X322492411Y-98131399D01*
X322587649Y-98083780D01*
X322682887Y-97988542D01*
X322730506Y-97845684D01*
X322730506Y-97607589D01*
X322063839Y-99036161D02*
X322730506Y-99036161D01*
X321682887Y-98798065D02*
X322397173Y-98559970D01*
X322397173Y-99179018D01*
X322730506Y-100083780D02*
X322730506Y-99512351D01*
X322730506Y-99798065D02*
X321730506Y-99798065D01*
X321873363Y-99702827D01*
X321968601Y-99607589D01*
X322016220Y-99512351D01*
X303680506Y-97607589D02*
X302680506Y-97607589D01*
X302680506Y-97845684D01*
X302728125Y-97988542D01*
X302823363Y-98083780D01*
X302918601Y-98131399D01*
X303109077Y-98179018D01*
X303251935Y-98179018D01*
X303442411Y-98131399D01*
X303537649Y-98083780D01*
X303632887Y-97988542D01*
X303680506Y-97845684D01*
X303680506Y-97607589D01*
X303013839Y-99036161D02*
X303680506Y-99036161D01*
X302632887Y-98798065D02*
X303347173Y-98559970D01*
X303347173Y-99179018D01*
X302680506Y-99750446D02*
X302680506Y-99845685D01*
X302728125Y-99940923D01*
X302775744Y-99988542D01*
X302870982Y-100036161D01*
X303061458Y-100083780D01*
X303299554Y-100083780D01*
X303490030Y-100036161D01*
X303585268Y-99988542D01*
X303632887Y-99940923D01*
X303680506Y-99845685D01*
X303680506Y-99750446D01*
X303632887Y-99655208D01*
X303585268Y-99607589D01*
X303490030Y-99559970D01*
X303299554Y-99512351D01*
X303061458Y-99512351D01*
X302870982Y-99559970D01*
X302775744Y-99607589D01*
X302728125Y-99655208D01*
X302680506Y-99750446D01*
X284630506Y-97607589D02*
X283630506Y-97607589D01*
X283630506Y-97845684D01*
X283678125Y-97988542D01*
X283773363Y-98083780D01*
X283868601Y-98131399D01*
X284059077Y-98179018D01*
X284201935Y-98179018D01*
X284392411Y-98131399D01*
X284487649Y-98083780D01*
X284582887Y-97988542D01*
X284630506Y-97845684D01*
X284630506Y-97607589D01*
X283630506Y-98512351D02*
X283630506Y-99131399D01*
X284011458Y-98798065D01*
X284011458Y-98940923D01*
X284059077Y-99036161D01*
X284106696Y-99083780D01*
X284201935Y-99131399D01*
X284440030Y-99131399D01*
X284535268Y-99083780D01*
X284582887Y-99036161D01*
X284630506Y-98940923D01*
X284630506Y-98655208D01*
X284582887Y-98559970D01*
X284535268Y-98512351D01*
X284630506Y-99607589D02*
X284630506Y-99798065D01*
X284582887Y-99893304D01*
X284535268Y-99940923D01*
X284392411Y-100036161D01*
X284201935Y-100083780D01*
X283820982Y-100083780D01*
X283725744Y-100036161D01*
X283678125Y-99988542D01*
X283630506Y-99893304D01*
X283630506Y-99702827D01*
X283678125Y-99607589D01*
X283725744Y-99559970D01*
X283820982Y-99512351D01*
X284059077Y-99512351D01*
X284154315Y-99559970D01*
X284201935Y-99607589D01*
X284249554Y-99702827D01*
X284249554Y-99893304D01*
X284201935Y-99988542D01*
X284154315Y-100036161D01*
X284059077Y-100083780D01*
X265580506Y-97607589D02*
X264580506Y-97607589D01*
X264580506Y-97845684D01*
X264628125Y-97988542D01*
X264723363Y-98083780D01*
X264818601Y-98131399D01*
X265009077Y-98179018D01*
X265151935Y-98179018D01*
X265342411Y-98131399D01*
X265437649Y-98083780D01*
X265532887Y-97988542D01*
X265580506Y-97845684D01*
X265580506Y-97607589D01*
X264580506Y-98512351D02*
X264580506Y-99131399D01*
X264961458Y-98798065D01*
X264961458Y-98940923D01*
X265009077Y-99036161D01*
X265056696Y-99083780D01*
X265151935Y-99131399D01*
X265390030Y-99131399D01*
X265485268Y-99083780D01*
X265532887Y-99036161D01*
X265580506Y-98940923D01*
X265580506Y-98655208D01*
X265532887Y-98559970D01*
X265485268Y-98512351D01*
X265009077Y-99702827D02*
X264961458Y-99607589D01*
X264913839Y-99559970D01*
X264818601Y-99512351D01*
X264770982Y-99512351D01*
X264675744Y-99559970D01*
X264628125Y-99607589D01*
X264580506Y-99702827D01*
X264580506Y-99893304D01*
X264628125Y-99988542D01*
X264675744Y-100036161D01*
X264770982Y-100083780D01*
X264818601Y-100083780D01*
X264913839Y-100036161D01*
X264961458Y-99988542D01*
X265009077Y-99893304D01*
X265009077Y-99702827D01*
X265056696Y-99607589D01*
X265104315Y-99559970D01*
X265199554Y-99512351D01*
X265390030Y-99512351D01*
X265485268Y-99559970D01*
X265532887Y-99607589D01*
X265580506Y-99702827D01*
X265580506Y-99893304D01*
X265532887Y-99988542D01*
X265485268Y-100036161D01*
X265390030Y-100083780D01*
X265199554Y-100083780D01*
X265104315Y-100036161D01*
X265056696Y-99988542D01*
X265009077Y-99893304D01*
X246530506Y-97607589D02*
X245530506Y-97607589D01*
X245530506Y-97845684D01*
X245578125Y-97988542D01*
X245673363Y-98083780D01*
X245768601Y-98131399D01*
X245959077Y-98179018D01*
X246101935Y-98179018D01*
X246292411Y-98131399D01*
X246387649Y-98083780D01*
X246482887Y-97988542D01*
X246530506Y-97845684D01*
X246530506Y-97607589D01*
X245530506Y-98512351D02*
X245530506Y-99131399D01*
X245911458Y-98798065D01*
X245911458Y-98940923D01*
X245959077Y-99036161D01*
X246006696Y-99083780D01*
X246101935Y-99131399D01*
X246340030Y-99131399D01*
X246435268Y-99083780D01*
X246482887Y-99036161D01*
X246530506Y-98940923D01*
X246530506Y-98655208D01*
X246482887Y-98559970D01*
X246435268Y-98512351D01*
X245530506Y-99464732D02*
X245530506Y-100131399D01*
X246530506Y-99702827D01*
X227480506Y-97607589D02*
X226480506Y-97607589D01*
X226480506Y-97845684D01*
X226528125Y-97988542D01*
X226623363Y-98083780D01*
X226718601Y-98131399D01*
X226909077Y-98179018D01*
X227051935Y-98179018D01*
X227242411Y-98131399D01*
X227337649Y-98083780D01*
X227432887Y-97988542D01*
X227480506Y-97845684D01*
X227480506Y-97607589D01*
X226480506Y-98512351D02*
X226480506Y-99131399D01*
X226861458Y-98798065D01*
X226861458Y-98940923D01*
X226909077Y-99036161D01*
X226956696Y-99083780D01*
X227051935Y-99131399D01*
X227290030Y-99131399D01*
X227385268Y-99083780D01*
X227432887Y-99036161D01*
X227480506Y-98940923D01*
X227480506Y-98655208D01*
X227432887Y-98559970D01*
X227385268Y-98512351D01*
X226480506Y-99988542D02*
X226480506Y-99798065D01*
X226528125Y-99702827D01*
X226575744Y-99655208D01*
X226718601Y-99559970D01*
X226909077Y-99512351D01*
X227290030Y-99512351D01*
X227385268Y-99559970D01*
X227432887Y-99607589D01*
X227480506Y-99702827D01*
X227480506Y-99893304D01*
X227432887Y-99988542D01*
X227385268Y-100036161D01*
X227290030Y-100083780D01*
X227051935Y-100083780D01*
X226956696Y-100036161D01*
X226909077Y-99988542D01*
X226861458Y-99893304D01*
X226861458Y-99702827D01*
X226909077Y-99607589D01*
X226956696Y-99559970D01*
X227051935Y-99512351D01*
X192253881Y-97605414D02*
X191253881Y-97605414D01*
X191253881Y-97843509D01*
X191301500Y-97986367D01*
X191396738Y-98081605D01*
X191491976Y-98129224D01*
X191682452Y-98176843D01*
X191825310Y-98176843D01*
X192015786Y-98129224D01*
X192111024Y-98081605D01*
X192206262Y-97986367D01*
X192253881Y-97843509D01*
X192253881Y-97605414D01*
X191253881Y-98510176D02*
X191253881Y-99129224D01*
X191634833Y-98795890D01*
X191634833Y-98938748D01*
X191682452Y-99033986D01*
X191730071Y-99081605D01*
X191825310Y-99129224D01*
X192063405Y-99129224D01*
X192158643Y-99081605D01*
X192206262Y-99033986D01*
X192253881Y-98938748D01*
X192253881Y-98653033D01*
X192206262Y-98557795D01*
X192158643Y-98510176D01*
X191253881Y-100033986D02*
X191253881Y-99557795D01*
X191730071Y-99510176D01*
X191682452Y-99557795D01*
X191634833Y-99653033D01*
X191634833Y-99891129D01*
X191682452Y-99986367D01*
X191730071Y-100033986D01*
X191825310Y-100081605D01*
X192063405Y-100081605D01*
X192158643Y-100033986D01*
X192206262Y-99986367D01*
X192253881Y-99891129D01*
X192253881Y-99653033D01*
X192206262Y-99557795D01*
X192158643Y-99510176D01*
X189380506Y-97607589D02*
X188380506Y-97607589D01*
X188380506Y-97845684D01*
X188428125Y-97988542D01*
X188523363Y-98083780D01*
X188618601Y-98131399D01*
X188809077Y-98179018D01*
X188951935Y-98179018D01*
X189142411Y-98131399D01*
X189237649Y-98083780D01*
X189332887Y-97988542D01*
X189380506Y-97845684D01*
X189380506Y-97607589D01*
X188380506Y-98512351D02*
X188380506Y-99131399D01*
X188761458Y-98798065D01*
X188761458Y-98940923D01*
X188809077Y-99036161D01*
X188856696Y-99083780D01*
X188951935Y-99131399D01*
X189190030Y-99131399D01*
X189285268Y-99083780D01*
X189332887Y-99036161D01*
X189380506Y-98940923D01*
X189380506Y-98655208D01*
X189332887Y-98559970D01*
X189285268Y-98512351D01*
X188713839Y-99988542D02*
X189380506Y-99988542D01*
X188332887Y-99750446D02*
X189047173Y-99512351D01*
X189047173Y-100131399D01*
X170330506Y-97607589D02*
X169330506Y-97607589D01*
X169330506Y-97845684D01*
X169378125Y-97988542D01*
X169473363Y-98083780D01*
X169568601Y-98131399D01*
X169759077Y-98179018D01*
X169901935Y-98179018D01*
X170092411Y-98131399D01*
X170187649Y-98083780D01*
X170282887Y-97988542D01*
X170330506Y-97845684D01*
X170330506Y-97607589D01*
X169330506Y-98512351D02*
X169330506Y-99131399D01*
X169711458Y-98798065D01*
X169711458Y-98940923D01*
X169759077Y-99036161D01*
X169806696Y-99083780D01*
X169901935Y-99131399D01*
X170140030Y-99131399D01*
X170235268Y-99083780D01*
X170282887Y-99036161D01*
X170330506Y-98940923D01*
X170330506Y-98655208D01*
X170282887Y-98559970D01*
X170235268Y-98512351D01*
X169330506Y-99464732D02*
X169330506Y-100083780D01*
X169711458Y-99750446D01*
X169711458Y-99893304D01*
X169759077Y-99988542D01*
X169806696Y-100036161D01*
X169901935Y-100083780D01*
X170140030Y-100083780D01*
X170235268Y-100036161D01*
X170282887Y-99988542D01*
X170330506Y-99893304D01*
X170330506Y-99607589D01*
X170282887Y-99512351D01*
X170235268Y-99464732D01*
X151280506Y-97607589D02*
X150280506Y-97607589D01*
X150280506Y-97845684D01*
X150328125Y-97988542D01*
X150423363Y-98083780D01*
X150518601Y-98131399D01*
X150709077Y-98179018D01*
X150851935Y-98179018D01*
X151042411Y-98131399D01*
X151137649Y-98083780D01*
X151232887Y-97988542D01*
X151280506Y-97845684D01*
X151280506Y-97607589D01*
X150280506Y-98512351D02*
X150280506Y-99131399D01*
X150661458Y-98798065D01*
X150661458Y-98940923D01*
X150709077Y-99036161D01*
X150756696Y-99083780D01*
X150851935Y-99131399D01*
X151090030Y-99131399D01*
X151185268Y-99083780D01*
X151232887Y-99036161D01*
X151280506Y-98940923D01*
X151280506Y-98655208D01*
X151232887Y-98559970D01*
X151185268Y-98512351D01*
X150375744Y-99512351D02*
X150328125Y-99559970D01*
X150280506Y-99655208D01*
X150280506Y-99893304D01*
X150328125Y-99988542D01*
X150375744Y-100036161D01*
X150470982Y-100083780D01*
X150566220Y-100083780D01*
X150709077Y-100036161D01*
X151280506Y-99464732D01*
X151280506Y-100083780D01*
X132230506Y-97607589D02*
X131230506Y-97607589D01*
X131230506Y-97845684D01*
X131278125Y-97988542D01*
X131373363Y-98083780D01*
X131468601Y-98131399D01*
X131659077Y-98179018D01*
X131801935Y-98179018D01*
X131992411Y-98131399D01*
X132087649Y-98083780D01*
X132182887Y-97988542D01*
X132230506Y-97845684D01*
X132230506Y-97607589D01*
X131230506Y-98512351D02*
X131230506Y-99131399D01*
X131611458Y-98798065D01*
X131611458Y-98940923D01*
X131659077Y-99036161D01*
X131706696Y-99083780D01*
X131801935Y-99131399D01*
X132040030Y-99131399D01*
X132135268Y-99083780D01*
X132182887Y-99036161D01*
X132230506Y-98940923D01*
X132230506Y-98655208D01*
X132182887Y-98559970D01*
X132135268Y-98512351D01*
X132230506Y-100083780D02*
X132230506Y-99512351D01*
X132230506Y-99798065D02*
X131230506Y-99798065D01*
X131373363Y-99702827D01*
X131468601Y-99607589D01*
X131516220Y-99512351D01*
X102464881Y-103560714D02*
X101464881Y-103560714D01*
X101464881Y-103798809D01*
X101512500Y-103941667D01*
X101607738Y-104036905D01*
X101702976Y-104084524D01*
X101893452Y-104132143D01*
X102036310Y-104132143D01*
X102226786Y-104084524D01*
X102322024Y-104036905D01*
X102417262Y-103941667D01*
X102464881Y-103798809D01*
X102464881Y-103560714D01*
X101464881Y-104465476D02*
X101464881Y-105084524D01*
X101845833Y-104751190D01*
X101845833Y-104894048D01*
X101893452Y-104989286D01*
X101941071Y-105036905D01*
X102036310Y-105084524D01*
X102274405Y-105084524D01*
X102369643Y-105036905D01*
X102417262Y-104989286D01*
X102464881Y-104894048D01*
X102464881Y-104608333D01*
X102417262Y-104513095D01*
X102369643Y-104465476D01*
X101464881Y-105703571D02*
X101464881Y-105798810D01*
X101512500Y-105894048D01*
X101560119Y-105941667D01*
X101655357Y-105989286D01*
X101845833Y-106036905D01*
X102083929Y-106036905D01*
X102274405Y-105989286D01*
X102369643Y-105941667D01*
X102417262Y-105894048D01*
X102464881Y-105798810D01*
X102464881Y-105703571D01*
X102417262Y-105608333D01*
X102369643Y-105560714D01*
X102274405Y-105513095D01*
X102083929Y-105465476D01*
X101845833Y-105465476D01*
X101655357Y-105513095D01*
X101560119Y-105560714D01*
X101512500Y-105608333D01*
X101464881Y-105703571D01*
X358449256Y-74985714D02*
X357449256Y-74985714D01*
X357449256Y-75223809D01*
X357496875Y-75366667D01*
X357592113Y-75461905D01*
X357687351Y-75509524D01*
X357877827Y-75557143D01*
X358020685Y-75557143D01*
X358211161Y-75509524D01*
X358306399Y-75461905D01*
X358401637Y-75366667D01*
X358449256Y-75223809D01*
X358449256Y-74985714D01*
X357544494Y-75938095D02*
X357496875Y-75985714D01*
X357449256Y-76080952D01*
X357449256Y-76319048D01*
X357496875Y-76414286D01*
X357544494Y-76461905D01*
X357639732Y-76509524D01*
X357734970Y-76509524D01*
X357877827Y-76461905D01*
X358449256Y-75890476D01*
X358449256Y-76509524D01*
X358449256Y-76985714D02*
X358449256Y-77176190D01*
X358401637Y-77271429D01*
X358354018Y-77319048D01*
X358211161Y-77414286D01*
X358020685Y-77461905D01*
X357639732Y-77461905D01*
X357544494Y-77414286D01*
X357496875Y-77366667D01*
X357449256Y-77271429D01*
X357449256Y-77080952D01*
X357496875Y-76985714D01*
X357544494Y-76938095D01*
X357639732Y-76890476D01*
X357877827Y-76890476D01*
X357973065Y-76938095D01*
X358020685Y-76985714D01*
X358068304Y-77080952D01*
X358068304Y-77271429D01*
X358020685Y-77366667D01*
X357973065Y-77414286D01*
X357877827Y-77461905D01*
X335827381Y-76176339D02*
X334827381Y-76176339D01*
X334827381Y-76414434D01*
X334875000Y-76557292D01*
X334970238Y-76652530D01*
X335065476Y-76700149D01*
X335255952Y-76747768D01*
X335398810Y-76747768D01*
X335589286Y-76700149D01*
X335684524Y-76652530D01*
X335779762Y-76557292D01*
X335827381Y-76414434D01*
X335827381Y-76176339D01*
X334922619Y-77128720D02*
X334875000Y-77176339D01*
X334827381Y-77271577D01*
X334827381Y-77509673D01*
X334875000Y-77604911D01*
X334922619Y-77652530D01*
X335017857Y-77700149D01*
X335113095Y-77700149D01*
X335255952Y-77652530D01*
X335827381Y-77081101D01*
X335827381Y-77700149D01*
X335255952Y-78271577D02*
X335208333Y-78176339D01*
X335160714Y-78128720D01*
X335065476Y-78081101D01*
X335017857Y-78081101D01*
X334922619Y-78128720D01*
X334875000Y-78176339D01*
X334827381Y-78271577D01*
X334827381Y-78462054D01*
X334875000Y-78557292D01*
X334922619Y-78604911D01*
X335017857Y-78652530D01*
X335065476Y-78652530D01*
X335160714Y-78604911D01*
X335208333Y-78557292D01*
X335255952Y-78462054D01*
X335255952Y-78271577D01*
X335303571Y-78176339D01*
X335351190Y-78128720D01*
X335446429Y-78081101D01*
X335636905Y-78081101D01*
X335732143Y-78128720D01*
X335779762Y-78176339D01*
X335827381Y-78271577D01*
X335827381Y-78462054D01*
X335779762Y-78557292D01*
X335732143Y-78604911D01*
X335636905Y-78652530D01*
X335446429Y-78652530D01*
X335351190Y-78604911D01*
X335303571Y-78557292D01*
X335255952Y-78462054D01*
X317968006Y-78557589D02*
X316968006Y-78557589D01*
X316968006Y-78795684D01*
X317015625Y-78938542D01*
X317110863Y-79033780D01*
X317206101Y-79081399D01*
X317396577Y-79129018D01*
X317539435Y-79129018D01*
X317729911Y-79081399D01*
X317825149Y-79033780D01*
X317920387Y-78938542D01*
X317968006Y-78795684D01*
X317968006Y-78557589D01*
X317063244Y-79509970D02*
X317015625Y-79557589D01*
X316968006Y-79652827D01*
X316968006Y-79890923D01*
X317015625Y-79986161D01*
X317063244Y-80033780D01*
X317158482Y-80081399D01*
X317253720Y-80081399D01*
X317396577Y-80033780D01*
X317968006Y-79462351D01*
X317968006Y-80081399D01*
X316968006Y-80414732D02*
X316968006Y-81081399D01*
X317968006Y-80652827D01*
X298918006Y-78557589D02*
X297918006Y-78557589D01*
X297918006Y-78795684D01*
X297965625Y-78938542D01*
X298060863Y-79033780D01*
X298156101Y-79081399D01*
X298346577Y-79129018D01*
X298489435Y-79129018D01*
X298679911Y-79081399D01*
X298775149Y-79033780D01*
X298870387Y-78938542D01*
X298918006Y-78795684D01*
X298918006Y-78557589D01*
X298013244Y-79509970D02*
X297965625Y-79557589D01*
X297918006Y-79652827D01*
X297918006Y-79890923D01*
X297965625Y-79986161D01*
X298013244Y-80033780D01*
X298108482Y-80081399D01*
X298203720Y-80081399D01*
X298346577Y-80033780D01*
X298918006Y-79462351D01*
X298918006Y-80081399D01*
X297918006Y-80938542D02*
X297918006Y-80748065D01*
X297965625Y-80652827D01*
X298013244Y-80605208D01*
X298156101Y-80509970D01*
X298346577Y-80462351D01*
X298727530Y-80462351D01*
X298822768Y-80509970D01*
X298870387Y-80557589D01*
X298918006Y-80652827D01*
X298918006Y-80843304D01*
X298870387Y-80938542D01*
X298822768Y-80986161D01*
X298727530Y-81033780D01*
X298489435Y-81033780D01*
X298394196Y-80986161D01*
X298346577Y-80938542D01*
X298298958Y-80843304D01*
X298298958Y-80652827D01*
X298346577Y-80557589D01*
X298394196Y-80509970D01*
X298489435Y-80462351D01*
X279868006Y-78557589D02*
X278868006Y-78557589D01*
X278868006Y-78795684D01*
X278915625Y-78938542D01*
X279010863Y-79033780D01*
X279106101Y-79081399D01*
X279296577Y-79129018D01*
X279439435Y-79129018D01*
X279629911Y-79081399D01*
X279725149Y-79033780D01*
X279820387Y-78938542D01*
X279868006Y-78795684D01*
X279868006Y-78557589D01*
X278963244Y-79509970D02*
X278915625Y-79557589D01*
X278868006Y-79652827D01*
X278868006Y-79890923D01*
X278915625Y-79986161D01*
X278963244Y-80033780D01*
X279058482Y-80081399D01*
X279153720Y-80081399D01*
X279296577Y-80033780D01*
X279868006Y-79462351D01*
X279868006Y-80081399D01*
X278868006Y-80986161D02*
X278868006Y-80509970D01*
X279344196Y-80462351D01*
X279296577Y-80509970D01*
X279248958Y-80605208D01*
X279248958Y-80843304D01*
X279296577Y-80938542D01*
X279344196Y-80986161D01*
X279439435Y-81033780D01*
X279677530Y-81033780D01*
X279772768Y-80986161D01*
X279820387Y-80938542D01*
X279868006Y-80843304D01*
X279868006Y-80605208D01*
X279820387Y-80509970D01*
X279772768Y-80462351D01*
X260818006Y-78557589D02*
X259818006Y-78557589D01*
X259818006Y-78795684D01*
X259865625Y-78938542D01*
X259960863Y-79033780D01*
X260056101Y-79081399D01*
X260246577Y-79129018D01*
X260389435Y-79129018D01*
X260579911Y-79081399D01*
X260675149Y-79033780D01*
X260770387Y-78938542D01*
X260818006Y-78795684D01*
X260818006Y-78557589D01*
X259913244Y-79509970D02*
X259865625Y-79557589D01*
X259818006Y-79652827D01*
X259818006Y-79890923D01*
X259865625Y-79986161D01*
X259913244Y-80033780D01*
X260008482Y-80081399D01*
X260103720Y-80081399D01*
X260246577Y-80033780D01*
X260818006Y-79462351D01*
X260818006Y-80081399D01*
X260151339Y-80938542D02*
X260818006Y-80938542D01*
X259770387Y-80700446D02*
X260484673Y-80462351D01*
X260484673Y-81081399D01*
X241768006Y-78557589D02*
X240768006Y-78557589D01*
X240768006Y-78795684D01*
X240815625Y-78938542D01*
X240910863Y-79033780D01*
X241006101Y-79081399D01*
X241196577Y-79129018D01*
X241339435Y-79129018D01*
X241529911Y-79081399D01*
X241625149Y-79033780D01*
X241720387Y-78938542D01*
X241768006Y-78795684D01*
X241768006Y-78557589D01*
X240863244Y-79509970D02*
X240815625Y-79557589D01*
X240768006Y-79652827D01*
X240768006Y-79890923D01*
X240815625Y-79986161D01*
X240863244Y-80033780D01*
X240958482Y-80081399D01*
X241053720Y-80081399D01*
X241196577Y-80033780D01*
X241768006Y-79462351D01*
X241768006Y-80081399D01*
X240768006Y-80414732D02*
X240768006Y-81033780D01*
X241148958Y-80700446D01*
X241148958Y-80843304D01*
X241196577Y-80938542D01*
X241244196Y-80986161D01*
X241339435Y-81033780D01*
X241577530Y-81033780D01*
X241672768Y-80986161D01*
X241720387Y-80938542D01*
X241768006Y-80843304D01*
X241768006Y-80557589D01*
X241720387Y-80462351D01*
X241672768Y-80414732D01*
X222718006Y-78557589D02*
X221718006Y-78557589D01*
X221718006Y-78795684D01*
X221765625Y-78938542D01*
X221860863Y-79033780D01*
X221956101Y-79081399D01*
X222146577Y-79129018D01*
X222289435Y-79129018D01*
X222479911Y-79081399D01*
X222575149Y-79033780D01*
X222670387Y-78938542D01*
X222718006Y-78795684D01*
X222718006Y-78557589D01*
X221813244Y-79509970D02*
X221765625Y-79557589D01*
X221718006Y-79652827D01*
X221718006Y-79890923D01*
X221765625Y-79986161D01*
X221813244Y-80033780D01*
X221908482Y-80081399D01*
X222003720Y-80081399D01*
X222146577Y-80033780D01*
X222718006Y-79462351D01*
X222718006Y-80081399D01*
X221813244Y-80462351D02*
X221765625Y-80509970D01*
X221718006Y-80605208D01*
X221718006Y-80843304D01*
X221765625Y-80938542D01*
X221813244Y-80986161D01*
X221908482Y-81033780D01*
X222003720Y-81033780D01*
X222146577Y-80986161D01*
X222718006Y-80414732D01*
X222718006Y-81033780D01*
X203668006Y-78557589D02*
X202668006Y-78557589D01*
X202668006Y-78795684D01*
X202715625Y-78938542D01*
X202810863Y-79033780D01*
X202906101Y-79081399D01*
X203096577Y-79129018D01*
X203239435Y-79129018D01*
X203429911Y-79081399D01*
X203525149Y-79033780D01*
X203620387Y-78938542D01*
X203668006Y-78795684D01*
X203668006Y-78557589D01*
X202763244Y-79509970D02*
X202715625Y-79557589D01*
X202668006Y-79652827D01*
X202668006Y-79890923D01*
X202715625Y-79986161D01*
X202763244Y-80033780D01*
X202858482Y-80081399D01*
X202953720Y-80081399D01*
X203096577Y-80033780D01*
X203668006Y-79462351D01*
X203668006Y-80081399D01*
X203668006Y-81033780D02*
X203668006Y-80462351D01*
X203668006Y-80748065D02*
X202668006Y-80748065D01*
X202810863Y-80652827D01*
X202906101Y-80557589D01*
X202953720Y-80462351D01*
X184618006Y-78557589D02*
X183618006Y-78557589D01*
X183618006Y-78795684D01*
X183665625Y-78938542D01*
X183760863Y-79033780D01*
X183856101Y-79081399D01*
X184046577Y-79129018D01*
X184189435Y-79129018D01*
X184379911Y-79081399D01*
X184475149Y-79033780D01*
X184570387Y-78938542D01*
X184618006Y-78795684D01*
X184618006Y-78557589D01*
X183713244Y-79509970D02*
X183665625Y-79557589D01*
X183618006Y-79652827D01*
X183618006Y-79890923D01*
X183665625Y-79986161D01*
X183713244Y-80033780D01*
X183808482Y-80081399D01*
X183903720Y-80081399D01*
X184046577Y-80033780D01*
X184618006Y-79462351D01*
X184618006Y-80081399D01*
X183618006Y-80700446D02*
X183618006Y-80795685D01*
X183665625Y-80890923D01*
X183713244Y-80938542D01*
X183808482Y-80986161D01*
X183998958Y-81033780D01*
X184237054Y-81033780D01*
X184427530Y-80986161D01*
X184522768Y-80938542D01*
X184570387Y-80890923D01*
X184618006Y-80795685D01*
X184618006Y-80700446D01*
X184570387Y-80605208D01*
X184522768Y-80557589D01*
X184427530Y-80509970D01*
X184237054Y-80462351D01*
X183998958Y-80462351D01*
X183808482Y-80509970D01*
X183713244Y-80557589D01*
X183665625Y-80605208D01*
X183618006Y-80700446D01*
X165568006Y-78557589D02*
X164568006Y-78557589D01*
X164568006Y-78795684D01*
X164615625Y-78938542D01*
X164710863Y-79033780D01*
X164806101Y-79081399D01*
X164996577Y-79129018D01*
X165139435Y-79129018D01*
X165329911Y-79081399D01*
X165425149Y-79033780D01*
X165520387Y-78938542D01*
X165568006Y-78795684D01*
X165568006Y-78557589D01*
X165568006Y-80081399D02*
X165568006Y-79509970D01*
X165568006Y-79795684D02*
X164568006Y-79795684D01*
X164710863Y-79700446D01*
X164806101Y-79605208D01*
X164853720Y-79509970D01*
X165568006Y-80557589D02*
X165568006Y-80748065D01*
X165520387Y-80843304D01*
X165472768Y-80890923D01*
X165329911Y-80986161D01*
X165139435Y-81033780D01*
X164758482Y-81033780D01*
X164663244Y-80986161D01*
X164615625Y-80938542D01*
X164568006Y-80843304D01*
X164568006Y-80652827D01*
X164615625Y-80557589D01*
X164663244Y-80509970D01*
X164758482Y-80462351D01*
X164996577Y-80462351D01*
X165091815Y-80509970D01*
X165139435Y-80557589D01*
X165187054Y-80652827D01*
X165187054Y-80843304D01*
X165139435Y-80938542D01*
X165091815Y-80986161D01*
X164996577Y-81033780D01*
X146518006Y-78557589D02*
X145518006Y-78557589D01*
X145518006Y-78795684D01*
X145565625Y-78938542D01*
X145660863Y-79033780D01*
X145756101Y-79081399D01*
X145946577Y-79129018D01*
X146089435Y-79129018D01*
X146279911Y-79081399D01*
X146375149Y-79033780D01*
X146470387Y-78938542D01*
X146518006Y-78795684D01*
X146518006Y-78557589D01*
X146518006Y-80081399D02*
X146518006Y-79509970D01*
X146518006Y-79795684D02*
X145518006Y-79795684D01*
X145660863Y-79700446D01*
X145756101Y-79605208D01*
X145803720Y-79509970D01*
X145946577Y-80652827D02*
X145898958Y-80557589D01*
X145851339Y-80509970D01*
X145756101Y-80462351D01*
X145708482Y-80462351D01*
X145613244Y-80509970D01*
X145565625Y-80557589D01*
X145518006Y-80652827D01*
X145518006Y-80843304D01*
X145565625Y-80938542D01*
X145613244Y-80986161D01*
X145708482Y-81033780D01*
X145756101Y-81033780D01*
X145851339Y-80986161D01*
X145898958Y-80938542D01*
X145946577Y-80843304D01*
X145946577Y-80652827D01*
X145994196Y-80557589D01*
X146041815Y-80509970D01*
X146137054Y-80462351D01*
X146327530Y-80462351D01*
X146422768Y-80509970D01*
X146470387Y-80557589D01*
X146518006Y-80652827D01*
X146518006Y-80843304D01*
X146470387Y-80938542D01*
X146422768Y-80986161D01*
X146327530Y-81033780D01*
X146137054Y-81033780D01*
X146041815Y-80986161D01*
X145994196Y-80938542D01*
X145946577Y-80843304D01*
X127468006Y-78557589D02*
X126468006Y-78557589D01*
X126468006Y-78795684D01*
X126515625Y-78938542D01*
X126610863Y-79033780D01*
X126706101Y-79081399D01*
X126896577Y-79129018D01*
X127039435Y-79129018D01*
X127229911Y-79081399D01*
X127325149Y-79033780D01*
X127420387Y-78938542D01*
X127468006Y-78795684D01*
X127468006Y-78557589D01*
X127468006Y-80081399D02*
X127468006Y-79509970D01*
X127468006Y-79795684D02*
X126468006Y-79795684D01*
X126610863Y-79700446D01*
X126706101Y-79605208D01*
X126753720Y-79509970D01*
X126468006Y-80414732D02*
X126468006Y-81081399D01*
X127468006Y-80652827D01*
X86986756Y-74985714D02*
X85986756Y-74985714D01*
X85986756Y-75223809D01*
X86034375Y-75366667D01*
X86129613Y-75461905D01*
X86224851Y-75509524D01*
X86415327Y-75557143D01*
X86558185Y-75557143D01*
X86748661Y-75509524D01*
X86843899Y-75461905D01*
X86939137Y-75366667D01*
X86986756Y-75223809D01*
X86986756Y-74985714D01*
X86986756Y-76509524D02*
X86986756Y-75938095D01*
X86986756Y-76223809D02*
X85986756Y-76223809D01*
X86129613Y-76128571D01*
X86224851Y-76033333D01*
X86272470Y-75938095D01*
X85986756Y-77366667D02*
X85986756Y-77176190D01*
X86034375Y-77080952D01*
X86081994Y-77033333D01*
X86224851Y-76938095D01*
X86415327Y-76890476D01*
X86796280Y-76890476D01*
X86891518Y-76938095D01*
X86939137Y-76985714D01*
X86986756Y-77080952D01*
X86986756Y-77271429D01*
X86939137Y-77366667D01*
X86891518Y-77414286D01*
X86796280Y-77461905D01*
X86558185Y-77461905D01*
X86462946Y-77414286D01*
X86415327Y-77366667D01*
X86367708Y-77271429D01*
X86367708Y-77080952D01*
X86415327Y-76985714D01*
X86462946Y-76938095D01*
X86558185Y-76890476D01*
X363211756Y-55935714D02*
X362211756Y-55935714D01*
X362211756Y-56173809D01*
X362259375Y-56316667D01*
X362354613Y-56411905D01*
X362449851Y-56459524D01*
X362640327Y-56507143D01*
X362783185Y-56507143D01*
X362973661Y-56459524D01*
X363068899Y-56411905D01*
X363164137Y-56316667D01*
X363211756Y-56173809D01*
X363211756Y-55935714D01*
X363211756Y-57459524D02*
X363211756Y-56888095D01*
X363211756Y-57173809D02*
X362211756Y-57173809D01*
X362354613Y-57078571D01*
X362449851Y-56983333D01*
X362497470Y-56888095D01*
X362211756Y-58364286D02*
X362211756Y-57888095D01*
X362687946Y-57840476D01*
X362640327Y-57888095D01*
X362592708Y-57983333D01*
X362592708Y-58221429D01*
X362640327Y-58316667D01*
X362687946Y-58364286D01*
X362783185Y-58411905D01*
X363021280Y-58411905D01*
X363116518Y-58364286D01*
X363164137Y-58316667D01*
X363211756Y-58221429D01*
X363211756Y-57983333D01*
X363164137Y-57888095D01*
X363116518Y-57840476D01*
X347130381Y-55935714D02*
X346130381Y-55935714D01*
X346130381Y-56173809D01*
X346178000Y-56316667D01*
X346273238Y-56411905D01*
X346368476Y-56459524D01*
X346558952Y-56507143D01*
X346701810Y-56507143D01*
X346892286Y-56459524D01*
X346987524Y-56411905D01*
X347082762Y-56316667D01*
X347130381Y-56173809D01*
X347130381Y-55935714D01*
X347130381Y-57459524D02*
X347130381Y-56888095D01*
X347130381Y-57173809D02*
X346130381Y-57173809D01*
X346273238Y-57078571D01*
X346368476Y-56983333D01*
X346416095Y-56888095D01*
X346463714Y-58316667D02*
X347130381Y-58316667D01*
X346082762Y-58078571D02*
X346797048Y-57840476D01*
X346797048Y-58459524D01*
X327493006Y-59507589D02*
X326493006Y-59507589D01*
X326493006Y-59745684D01*
X326540625Y-59888542D01*
X326635863Y-59983780D01*
X326731101Y-60031399D01*
X326921577Y-60079018D01*
X327064435Y-60079018D01*
X327254911Y-60031399D01*
X327350149Y-59983780D01*
X327445387Y-59888542D01*
X327493006Y-59745684D01*
X327493006Y-59507589D01*
X327493006Y-61031399D02*
X327493006Y-60459970D01*
X327493006Y-60745684D02*
X326493006Y-60745684D01*
X326635863Y-60650446D01*
X326731101Y-60555208D01*
X326778720Y-60459970D01*
X326493006Y-61364732D02*
X326493006Y-61983780D01*
X326873958Y-61650446D01*
X326873958Y-61793304D01*
X326921577Y-61888542D01*
X326969196Y-61936161D01*
X327064435Y-61983780D01*
X327302530Y-61983780D01*
X327397768Y-61936161D01*
X327445387Y-61888542D01*
X327493006Y-61793304D01*
X327493006Y-61507589D01*
X327445387Y-61412351D01*
X327397768Y-61364732D01*
X308443006Y-59507589D02*
X307443006Y-59507589D01*
X307443006Y-59745684D01*
X307490625Y-59888542D01*
X307585863Y-59983780D01*
X307681101Y-60031399D01*
X307871577Y-60079018D01*
X308014435Y-60079018D01*
X308204911Y-60031399D01*
X308300149Y-59983780D01*
X308395387Y-59888542D01*
X308443006Y-59745684D01*
X308443006Y-59507589D01*
X308443006Y-61031399D02*
X308443006Y-60459970D01*
X308443006Y-60745684D02*
X307443006Y-60745684D01*
X307585863Y-60650446D01*
X307681101Y-60555208D01*
X307728720Y-60459970D01*
X307538244Y-61412351D02*
X307490625Y-61459970D01*
X307443006Y-61555208D01*
X307443006Y-61793304D01*
X307490625Y-61888542D01*
X307538244Y-61936161D01*
X307633482Y-61983780D01*
X307728720Y-61983780D01*
X307871577Y-61936161D01*
X308443006Y-61364732D01*
X308443006Y-61983780D01*
X289393006Y-59507589D02*
X288393006Y-59507589D01*
X288393006Y-59745684D01*
X288440625Y-59888542D01*
X288535863Y-59983780D01*
X288631101Y-60031399D01*
X288821577Y-60079018D01*
X288964435Y-60079018D01*
X289154911Y-60031399D01*
X289250149Y-59983780D01*
X289345387Y-59888542D01*
X289393006Y-59745684D01*
X289393006Y-59507589D01*
X289393006Y-61031399D02*
X289393006Y-60459970D01*
X289393006Y-60745684D02*
X288393006Y-60745684D01*
X288535863Y-60650446D01*
X288631101Y-60555208D01*
X288678720Y-60459970D01*
X289393006Y-61983780D02*
X289393006Y-61412351D01*
X289393006Y-61698065D02*
X288393006Y-61698065D01*
X288535863Y-61602827D01*
X288631101Y-61507589D01*
X288678720Y-61412351D01*
X270343006Y-59507589D02*
X269343006Y-59507589D01*
X269343006Y-59745684D01*
X269390625Y-59888542D01*
X269485863Y-59983780D01*
X269581101Y-60031399D01*
X269771577Y-60079018D01*
X269914435Y-60079018D01*
X270104911Y-60031399D01*
X270200149Y-59983780D01*
X270295387Y-59888542D01*
X270343006Y-59745684D01*
X270343006Y-59507589D01*
X270343006Y-61031399D02*
X270343006Y-60459970D01*
X270343006Y-60745684D02*
X269343006Y-60745684D01*
X269485863Y-60650446D01*
X269581101Y-60555208D01*
X269628720Y-60459970D01*
X269343006Y-61650446D02*
X269343006Y-61745685D01*
X269390625Y-61840923D01*
X269438244Y-61888542D01*
X269533482Y-61936161D01*
X269723958Y-61983780D01*
X269962054Y-61983780D01*
X270152530Y-61936161D01*
X270247768Y-61888542D01*
X270295387Y-61840923D01*
X270343006Y-61745685D01*
X270343006Y-61650446D01*
X270295387Y-61555208D01*
X270247768Y-61507589D01*
X270152530Y-61459970D01*
X269962054Y-61412351D01*
X269723958Y-61412351D01*
X269533482Y-61459970D01*
X269438244Y-61507589D01*
X269390625Y-61555208D01*
X269343006Y-61650446D01*
X251293006Y-59983780D02*
X250293006Y-59983780D01*
X250293006Y-60221875D01*
X250340625Y-60364733D01*
X250435863Y-60459971D01*
X250531101Y-60507590D01*
X250721577Y-60555209D01*
X250864435Y-60555209D01*
X251054911Y-60507590D01*
X251150149Y-60459971D01*
X251245387Y-60364733D01*
X251293006Y-60221875D01*
X251293006Y-59983780D01*
X251293006Y-61031399D02*
X251293006Y-61221875D01*
X251245387Y-61317114D01*
X251197768Y-61364733D01*
X251054911Y-61459971D01*
X250864435Y-61507590D01*
X250483482Y-61507590D01*
X250388244Y-61459971D01*
X250340625Y-61412352D01*
X250293006Y-61317114D01*
X250293006Y-61126637D01*
X250340625Y-61031399D01*
X250388244Y-60983780D01*
X250483482Y-60936161D01*
X250721577Y-60936161D01*
X250816815Y-60983780D01*
X250864435Y-61031399D01*
X250912054Y-61126637D01*
X250912054Y-61317114D01*
X250864435Y-61412352D01*
X250816815Y-61459971D01*
X250721577Y-61507590D01*
X232243006Y-59983780D02*
X231243006Y-59983780D01*
X231243006Y-60221875D01*
X231290625Y-60364733D01*
X231385863Y-60459971D01*
X231481101Y-60507590D01*
X231671577Y-60555209D01*
X231814435Y-60555209D01*
X232004911Y-60507590D01*
X232100149Y-60459971D01*
X232195387Y-60364733D01*
X232243006Y-60221875D01*
X232243006Y-59983780D01*
X231671577Y-61126637D02*
X231623958Y-61031399D01*
X231576339Y-60983780D01*
X231481101Y-60936161D01*
X231433482Y-60936161D01*
X231338244Y-60983780D01*
X231290625Y-61031399D01*
X231243006Y-61126637D01*
X231243006Y-61317114D01*
X231290625Y-61412352D01*
X231338244Y-61459971D01*
X231433482Y-61507590D01*
X231481101Y-61507590D01*
X231576339Y-61459971D01*
X231623958Y-61412352D01*
X231671577Y-61317114D01*
X231671577Y-61126637D01*
X231719196Y-61031399D01*
X231766815Y-60983780D01*
X231862054Y-60936161D01*
X232052530Y-60936161D01*
X232147768Y-60983780D01*
X232195387Y-61031399D01*
X232243006Y-61126637D01*
X232243006Y-61317114D01*
X232195387Y-61412352D01*
X232147768Y-61459971D01*
X232052530Y-61507590D01*
X231862054Y-61507590D01*
X231766815Y-61459971D01*
X231719196Y-61412352D01*
X231671577Y-61317114D01*
X213193006Y-59983780D02*
X212193006Y-59983780D01*
X212193006Y-60221875D01*
X212240625Y-60364733D01*
X212335863Y-60459971D01*
X212431101Y-60507590D01*
X212621577Y-60555209D01*
X212764435Y-60555209D01*
X212954911Y-60507590D01*
X213050149Y-60459971D01*
X213145387Y-60364733D01*
X213193006Y-60221875D01*
X213193006Y-59983780D01*
X212193006Y-60888542D02*
X212193006Y-61555209D01*
X213193006Y-61126637D01*
X194143006Y-59983780D02*
X193143006Y-59983780D01*
X193143006Y-60221875D01*
X193190625Y-60364733D01*
X193285863Y-60459971D01*
X193381101Y-60507590D01*
X193571577Y-60555209D01*
X193714435Y-60555209D01*
X193904911Y-60507590D01*
X194000149Y-60459971D01*
X194095387Y-60364733D01*
X194143006Y-60221875D01*
X194143006Y-59983780D01*
X193143006Y-61412352D02*
X193143006Y-61221875D01*
X193190625Y-61126637D01*
X193238244Y-61079018D01*
X193381101Y-60983780D01*
X193571577Y-60936161D01*
X193952530Y-60936161D01*
X194047768Y-60983780D01*
X194095387Y-61031399D01*
X194143006Y-61126637D01*
X194143006Y-61317114D01*
X194095387Y-61412352D01*
X194047768Y-61459971D01*
X193952530Y-61507590D01*
X193714435Y-61507590D01*
X193619196Y-61459971D01*
X193571577Y-61412352D01*
X193523958Y-61317114D01*
X193523958Y-61126637D01*
X193571577Y-61031399D01*
X193619196Y-60983780D01*
X193714435Y-60936161D01*
X175093006Y-59983780D02*
X174093006Y-59983780D01*
X174093006Y-60221875D01*
X174140625Y-60364733D01*
X174235863Y-60459971D01*
X174331101Y-60507590D01*
X174521577Y-60555209D01*
X174664435Y-60555209D01*
X174854911Y-60507590D01*
X174950149Y-60459971D01*
X175045387Y-60364733D01*
X175093006Y-60221875D01*
X175093006Y-59983780D01*
X174093006Y-61459971D02*
X174093006Y-60983780D01*
X174569196Y-60936161D01*
X174521577Y-60983780D01*
X174473958Y-61079018D01*
X174473958Y-61317114D01*
X174521577Y-61412352D01*
X174569196Y-61459971D01*
X174664435Y-61507590D01*
X174902530Y-61507590D01*
X174997768Y-61459971D01*
X175045387Y-61412352D01*
X175093006Y-61317114D01*
X175093006Y-61079018D01*
X175045387Y-60983780D01*
X174997768Y-60936161D01*
X156043006Y-59983780D02*
X155043006Y-59983780D01*
X155043006Y-60221875D01*
X155090625Y-60364733D01*
X155185863Y-60459971D01*
X155281101Y-60507590D01*
X155471577Y-60555209D01*
X155614435Y-60555209D01*
X155804911Y-60507590D01*
X155900149Y-60459971D01*
X155995387Y-60364733D01*
X156043006Y-60221875D01*
X156043006Y-59983780D01*
X155376339Y-61412352D02*
X156043006Y-61412352D01*
X154995387Y-61174256D02*
X155709673Y-60936161D01*
X155709673Y-61555209D01*
X136993006Y-59983780D02*
X135993006Y-59983780D01*
X135993006Y-60221875D01*
X136040625Y-60364733D01*
X136135863Y-60459971D01*
X136231101Y-60507590D01*
X136421577Y-60555209D01*
X136564435Y-60555209D01*
X136754911Y-60507590D01*
X136850149Y-60459971D01*
X136945387Y-60364733D01*
X136993006Y-60221875D01*
X136993006Y-59983780D01*
X135993006Y-60888542D02*
X135993006Y-61507590D01*
X136373958Y-61174256D01*
X136373958Y-61317114D01*
X136421577Y-61412352D01*
X136469196Y-61459971D01*
X136564435Y-61507590D01*
X136802530Y-61507590D01*
X136897768Y-61459971D01*
X136945387Y-61412352D01*
X136993006Y-61317114D01*
X136993006Y-61031399D01*
X136945387Y-60936161D01*
X136897768Y-60888542D01*
X117943006Y-59983780D02*
X116943006Y-59983780D01*
X116943006Y-60221875D01*
X116990625Y-60364733D01*
X117085863Y-60459971D01*
X117181101Y-60507590D01*
X117371577Y-60555209D01*
X117514435Y-60555209D01*
X117704911Y-60507590D01*
X117800149Y-60459971D01*
X117895387Y-60364733D01*
X117943006Y-60221875D01*
X117943006Y-59983780D01*
X117038244Y-60936161D02*
X116990625Y-60983780D01*
X116943006Y-61079018D01*
X116943006Y-61317114D01*
X116990625Y-61412352D01*
X117038244Y-61459971D01*
X117133482Y-61507590D01*
X117228720Y-61507590D01*
X117371577Y-61459971D01*
X117943006Y-60888542D01*
X117943006Y-61507590D01*
X85447095Y-54528981D02*
X85447095Y-53528981D01*
X85209000Y-53528981D01*
X85066142Y-53576600D01*
X84970904Y-53671838D01*
X84923285Y-53767076D01*
X84875666Y-53957552D01*
X84875666Y-54100410D01*
X84923285Y-54290886D01*
X84970904Y-54386124D01*
X85066142Y-54481362D01*
X85209000Y-54528981D01*
X85447095Y-54528981D01*
X83923285Y-54528981D02*
X84494714Y-54528981D01*
X84209000Y-54528981D02*
X84209000Y-53528981D01*
X84304238Y-53671838D01*
X84399476Y-53767076D01*
X84494714Y-53814695D01*
X122284991Y-89439590D02*
X122284991Y-89915781D01*
X122618324Y-88915781D02*
X122284991Y-89439590D01*
X121951657Y-88915781D01*
X121094514Y-89915781D02*
X121665943Y-89915781D01*
X121380229Y-89915781D02*
X121380229Y-88915781D01*
X121475467Y-89058638D01*
X121570705Y-89153876D01*
X121665943Y-89201495D01*
D15*
X103989256Y-93297470D02*
X104798780Y-93297470D01*
X104894018Y-93345089D01*
X104941637Y-93392708D01*
X104989256Y-93487946D01*
X104989256Y-93678423D01*
X104941637Y-93773661D01*
X104894018Y-93821280D01*
X104798780Y-93868899D01*
X103989256Y-93868899D01*
X104989256Y-94868899D02*
X104989256Y-94297470D01*
X104989256Y-94583184D02*
X103989256Y-94583184D01*
X104132113Y-94487946D01*
X104227351Y-94392708D01*
X104274970Y-94297470D01*
D11*
X103715762Y-109410667D02*
X103763381Y-109553524D01*
X103763381Y-109791620D01*
X103715762Y-109886858D01*
X103668143Y-109934477D01*
X103572905Y-109982096D01*
X103477667Y-109982096D01*
X103382429Y-109934477D01*
X103334810Y-109886858D01*
X103287190Y-109791620D01*
X103239571Y-109601143D01*
X103191952Y-109505905D01*
X103144333Y-109458286D01*
X103049095Y-109410667D01*
X102953857Y-109410667D01*
X102858619Y-109458286D01*
X102811000Y-109505905D01*
X102763381Y-109601143D01*
X102763381Y-109839239D01*
X102811000Y-109982096D01*
X102763381Y-110315429D02*
X103763381Y-110553524D01*
X103049095Y-110744001D01*
X103763381Y-110934477D01*
X102763381Y-111172572D01*
X103763381Y-112077334D02*
X103763381Y-111505905D01*
X103763381Y-111791619D02*
X102763381Y-111791619D01*
X102906238Y-111696381D01*
X103001476Y-111601143D01*
X103049095Y-111505905D01*
X105666666Y-55252381D02*
X106000000Y-54776190D01*
X106238095Y-55252381D02*
X106238095Y-54252381D01*
X105857142Y-54252381D01*
X105761904Y-54300000D01*
X105714285Y-54347619D01*
X105666666Y-54442857D01*
X105666666Y-54585714D01*
X105714285Y-54680952D01*
X105761904Y-54728571D01*
X105857142Y-54776190D01*
X106238095Y-54776190D01*
X104666666Y-55157143D02*
X104714285Y-55204762D01*
X104857142Y-55252381D01*
X104952380Y-55252381D01*
X105095238Y-55204762D01*
X105190476Y-55109524D01*
X105238095Y-55014286D01*
X105285714Y-54823810D01*
X105285714Y-54680952D01*
X105238095Y-54490476D01*
X105190476Y-54395238D01*
X105095238Y-54300000D01*
X104952380Y-54252381D01*
X104857142Y-54252381D01*
X104714285Y-54300000D01*
X104666666Y-54347619D01*
X104333333Y-54252381D02*
X103666666Y-54252381D01*
X104095238Y-55252381D01*
X89426466Y-59449781D02*
X89759800Y-58973590D01*
X89997895Y-59449781D02*
X89997895Y-58449781D01*
X89616942Y-58449781D01*
X89521704Y-58497400D01*
X89474085Y-58545019D01*
X89426466Y-58640257D01*
X89426466Y-58783114D01*
X89474085Y-58878352D01*
X89521704Y-58925971D01*
X89616942Y-58973590D01*
X89997895Y-58973590D01*
X88426466Y-59354543D02*
X88474085Y-59402162D01*
X88616942Y-59449781D01*
X88712180Y-59449781D01*
X88855038Y-59402162D01*
X88950276Y-59306924D01*
X88997895Y-59211686D01*
X89045514Y-59021210D01*
X89045514Y-58878352D01*
X88997895Y-58687876D01*
X88950276Y-58592638D01*
X88855038Y-58497400D01*
X88712180Y-58449781D01*
X88616942Y-58449781D01*
X88474085Y-58497400D01*
X88426466Y-58545019D01*
X87569323Y-58449781D02*
X87759800Y-58449781D01*
X87855038Y-58497400D01*
X87902657Y-58545019D01*
X87997895Y-58687876D01*
X88045514Y-58878352D01*
X88045514Y-59259305D01*
X87997895Y-59354543D01*
X87950276Y-59402162D01*
X87855038Y-59449781D01*
X87664561Y-59449781D01*
X87569323Y-59402162D01*
X87521704Y-59354543D01*
X87474085Y-59259305D01*
X87474085Y-59021210D01*
X87521704Y-58925971D01*
X87569323Y-58878352D01*
X87664561Y-58830733D01*
X87855038Y-58830733D01*
X87950276Y-58878352D01*
X87997895Y-58925971D01*
X88045514Y-59021210D01*
X95016581Y-67862534D02*
X94540390Y-67529200D01*
X95016581Y-67291105D02*
X94016581Y-67291105D01*
X94016581Y-67672058D01*
X94064200Y-67767296D01*
X94111819Y-67814915D01*
X94207057Y-67862534D01*
X94349914Y-67862534D01*
X94445152Y-67814915D01*
X94492771Y-67767296D01*
X94540390Y-67672058D01*
X94540390Y-67291105D01*
X94921343Y-68862534D02*
X94968962Y-68814915D01*
X95016581Y-68672058D01*
X95016581Y-68576820D01*
X94968962Y-68433962D01*
X94873724Y-68338724D01*
X94778486Y-68291105D01*
X94588010Y-68243486D01*
X94445152Y-68243486D01*
X94254676Y-68291105D01*
X94159438Y-68338724D01*
X94064200Y-68433962D01*
X94016581Y-68576820D01*
X94016581Y-68672058D01*
X94064200Y-68814915D01*
X94111819Y-68862534D01*
X94016581Y-69767296D02*
X94016581Y-69291105D01*
X94492771Y-69243486D01*
X94445152Y-69291105D01*
X94397533Y-69386343D01*
X94397533Y-69624439D01*
X94445152Y-69719677D01*
X94492771Y-69767296D01*
X94588010Y-69814915D01*
X94826105Y-69814915D01*
X94921343Y-69767296D01*
X94968962Y-69719677D01*
X95016581Y-69624439D01*
X95016581Y-69386343D01*
X94968962Y-69291105D01*
X94921343Y-69243486D01*
X100152381Y-67833334D02*
X99676190Y-67500000D01*
X100152381Y-67261905D02*
X99152381Y-67261905D01*
X99152381Y-67642858D01*
X99200000Y-67738096D01*
X99247619Y-67785715D01*
X99342857Y-67833334D01*
X99485714Y-67833334D01*
X99580952Y-67785715D01*
X99628571Y-67738096D01*
X99676190Y-67642858D01*
X99676190Y-67261905D01*
X100057143Y-68833334D02*
X100104762Y-68785715D01*
X100152381Y-68642858D01*
X100152381Y-68547620D01*
X100104762Y-68404762D01*
X100009524Y-68309524D01*
X99914286Y-68261905D01*
X99723810Y-68214286D01*
X99580952Y-68214286D01*
X99390476Y-68261905D01*
X99295238Y-68309524D01*
X99200000Y-68404762D01*
X99152381Y-68547620D01*
X99152381Y-68642858D01*
X99200000Y-68785715D01*
X99247619Y-68833334D01*
X99485714Y-69690477D02*
X100152381Y-69690477D01*
X99104762Y-69452381D02*
X99819048Y-69214286D01*
X99819048Y-69833334D01*
X119030666Y-88156381D02*
X119364000Y-87680190D01*
X119602095Y-88156381D02*
X119602095Y-87156381D01*
X119221142Y-87156381D01*
X119125904Y-87204000D01*
X119078285Y-87251619D01*
X119030666Y-87346857D01*
X119030666Y-87489714D01*
X119078285Y-87584952D01*
X119125904Y-87632571D01*
X119221142Y-87680190D01*
X119602095Y-87680190D01*
X118030666Y-88061143D02*
X118078285Y-88108762D01*
X118221142Y-88156381D01*
X118316380Y-88156381D01*
X118459238Y-88108762D01*
X118554476Y-88013524D01*
X118602095Y-87918286D01*
X118649714Y-87727810D01*
X118649714Y-87584952D01*
X118602095Y-87394476D01*
X118554476Y-87299238D01*
X118459238Y-87204000D01*
X118316380Y-87156381D01*
X118221142Y-87156381D01*
X118078285Y-87204000D01*
X118030666Y-87251619D01*
X117697333Y-87156381D02*
X117078285Y-87156381D01*
X117411619Y-87537333D01*
X117268761Y-87537333D01*
X117173523Y-87584952D01*
X117125904Y-87632571D01*
X117078285Y-87727810D01*
X117078285Y-87965905D01*
X117125904Y-88061143D01*
X117173523Y-88108762D01*
X117268761Y-88156381D01*
X117554476Y-88156381D01*
X117649714Y-88108762D01*
X117697333Y-88061143D01*
X104251041Y-102586756D02*
X104584375Y-102110565D01*
X104822470Y-102586756D02*
X104822470Y-101586756D01*
X104441517Y-101586756D01*
X104346279Y-101634375D01*
X104298660Y-101681994D01*
X104251041Y-101777232D01*
X104251041Y-101920089D01*
X104298660Y-102015327D01*
X104346279Y-102062946D01*
X104441517Y-102110565D01*
X104822470Y-102110565D01*
X103251041Y-102491518D02*
X103298660Y-102539137D01*
X103441517Y-102586756D01*
X103536755Y-102586756D01*
X103679613Y-102539137D01*
X103774851Y-102443899D01*
X103822470Y-102348661D01*
X103870089Y-102158185D01*
X103870089Y-102015327D01*
X103822470Y-101824851D01*
X103774851Y-101729613D01*
X103679613Y-101634375D01*
X103536755Y-101586756D01*
X103441517Y-101586756D01*
X103298660Y-101634375D01*
X103251041Y-101681994D01*
X102870089Y-101681994D02*
X102822470Y-101634375D01*
X102727232Y-101586756D01*
X102489136Y-101586756D01*
X102393898Y-101634375D01*
X102346279Y-101681994D01*
X102298660Y-101777232D01*
X102298660Y-101872470D01*
X102346279Y-102015327D01*
X102917708Y-102586756D01*
X102298660Y-102586756D01*
X108870666Y-106042381D02*
X109204000Y-105566190D01*
X109442095Y-106042381D02*
X109442095Y-105042381D01*
X109061142Y-105042381D01*
X108965904Y-105090000D01*
X108918285Y-105137619D01*
X108870666Y-105232857D01*
X108870666Y-105375714D01*
X108918285Y-105470952D01*
X108965904Y-105518571D01*
X109061142Y-105566190D01*
X109442095Y-105566190D01*
X107870666Y-105947143D02*
X107918285Y-105994762D01*
X108061142Y-106042381D01*
X108156380Y-106042381D01*
X108299238Y-105994762D01*
X108394476Y-105899524D01*
X108442095Y-105804286D01*
X108489714Y-105613810D01*
X108489714Y-105470952D01*
X108442095Y-105280476D01*
X108394476Y-105185238D01*
X108299238Y-105090000D01*
X108156380Y-105042381D01*
X108061142Y-105042381D01*
X107918285Y-105090000D01*
X107870666Y-105137619D01*
X106918285Y-106042381D02*
X107489714Y-106042381D01*
X107204000Y-106042381D02*
X107204000Y-105042381D01*
X107299238Y-105185238D01*
X107394476Y-105280476D01*
X107489714Y-105328095D01*
X209071131Y-86272768D02*
X208594940Y-85939434D01*
X209071131Y-85701339D02*
X208071131Y-85701339D01*
X208071131Y-86082292D01*
X208118750Y-86177530D01*
X208166369Y-86225149D01*
X208261607Y-86272768D01*
X208404464Y-86272768D01*
X208499702Y-86225149D01*
X208547321Y-86177530D01*
X208594940Y-86082292D01*
X208594940Y-85701339D01*
X208166369Y-86653720D02*
X208118750Y-86701339D01*
X208071131Y-86796577D01*
X208071131Y-87034673D01*
X208118750Y-87129911D01*
X208166369Y-87177530D01*
X208261607Y-87225149D01*
X208356845Y-87225149D01*
X208499702Y-87177530D01*
X209071131Y-86606101D01*
X209071131Y-87225149D01*
X208166369Y-87606101D02*
X208118750Y-87653720D01*
X208071131Y-87748958D01*
X208071131Y-87987054D01*
X208118750Y-88082292D01*
X208166369Y-88129911D01*
X208261607Y-88177530D01*
X208356845Y-88177530D01*
X208499702Y-88129911D01*
X209071131Y-87558482D01*
X209071131Y-88177530D01*
X190021131Y-86272768D02*
X189544940Y-85939434D01*
X190021131Y-85701339D02*
X189021131Y-85701339D01*
X189021131Y-86082292D01*
X189068750Y-86177530D01*
X189116369Y-86225149D01*
X189211607Y-86272768D01*
X189354464Y-86272768D01*
X189449702Y-86225149D01*
X189497321Y-86177530D01*
X189544940Y-86082292D01*
X189544940Y-85701339D01*
X189116369Y-86653720D02*
X189068750Y-86701339D01*
X189021131Y-86796577D01*
X189021131Y-87034673D01*
X189068750Y-87129911D01*
X189116369Y-87177530D01*
X189211607Y-87225149D01*
X189306845Y-87225149D01*
X189449702Y-87177530D01*
X190021131Y-86606101D01*
X190021131Y-87225149D01*
X190021131Y-88177530D02*
X190021131Y-87606101D01*
X190021131Y-87891815D02*
X189021131Y-87891815D01*
X189163988Y-87796577D01*
X189259226Y-87701339D01*
X189306845Y-87606101D01*
X170971131Y-86272768D02*
X170494940Y-85939434D01*
X170971131Y-85701339D02*
X169971131Y-85701339D01*
X169971131Y-86082292D01*
X170018750Y-86177530D01*
X170066369Y-86225149D01*
X170161607Y-86272768D01*
X170304464Y-86272768D01*
X170399702Y-86225149D01*
X170447321Y-86177530D01*
X170494940Y-86082292D01*
X170494940Y-85701339D01*
X170066369Y-86653720D02*
X170018750Y-86701339D01*
X169971131Y-86796577D01*
X169971131Y-87034673D01*
X170018750Y-87129911D01*
X170066369Y-87177530D01*
X170161607Y-87225149D01*
X170256845Y-87225149D01*
X170399702Y-87177530D01*
X170971131Y-86606101D01*
X170971131Y-87225149D01*
X169971131Y-87844196D02*
X169971131Y-87939435D01*
X170018750Y-88034673D01*
X170066369Y-88082292D01*
X170161607Y-88129911D01*
X170352083Y-88177530D01*
X170590179Y-88177530D01*
X170780655Y-88129911D01*
X170875893Y-88082292D01*
X170923512Y-88034673D01*
X170971131Y-87939435D01*
X170971131Y-87844196D01*
X170923512Y-87748958D01*
X170875893Y-87701339D01*
X170780655Y-87653720D01*
X170590179Y-87606101D01*
X170352083Y-87606101D01*
X170161607Y-87653720D01*
X170066369Y-87701339D01*
X170018750Y-87748958D01*
X169971131Y-87844196D01*
X100052381Y-63011905D02*
X99052381Y-63011905D01*
X99052381Y-63250000D01*
X99100000Y-63392858D01*
X99195238Y-63488096D01*
X99290476Y-63535715D01*
X99480952Y-63583334D01*
X99623810Y-63583334D01*
X99814286Y-63535715D01*
X99909524Y-63488096D01*
X100004762Y-63392858D01*
X100052381Y-63250000D01*
X100052381Y-63011905D01*
X100052381Y-64011905D02*
X99052381Y-64011905D01*
X99052381Y-64392858D01*
X99100000Y-64488096D01*
X99147619Y-64535715D01*
X99242857Y-64583334D01*
X99385714Y-64583334D01*
X99480952Y-64535715D01*
X99528571Y-64488096D01*
X99576190Y-64392858D01*
X99576190Y-64011905D01*
X100052381Y-65535715D02*
X100052381Y-64964286D01*
X100052381Y-65250000D02*
X99052381Y-65250000D01*
X99195238Y-65154762D01*
X99290476Y-65059524D01*
X99338095Y-64964286D01*
X98988541Y-86963393D02*
X99036160Y-87011012D01*
X99179017Y-87058631D01*
X99274255Y-87058631D01*
X99417113Y-87011012D01*
X99512351Y-86915774D01*
X99559970Y-86820536D01*
X99607589Y-86630060D01*
X99607589Y-86487202D01*
X99559970Y-86296726D01*
X99512351Y-86201488D01*
X99417113Y-86106250D01*
X99274255Y-86058631D01*
X99179017Y-86058631D01*
X99036160Y-86106250D01*
X98988541Y-86153869D01*
X98417113Y-86487202D02*
X98512351Y-86439583D01*
X98559970Y-86391964D01*
X98607589Y-86296726D01*
X98607589Y-86249107D01*
X98559970Y-86153869D01*
X98512351Y-86106250D01*
X98417113Y-86058631D01*
X98226636Y-86058631D01*
X98131398Y-86106250D01*
X98083779Y-86153869D01*
X98036160Y-86249107D01*
X98036160Y-86296726D01*
X98083779Y-86391964D01*
X98131398Y-86439583D01*
X98226636Y-86487202D01*
X98417113Y-86487202D01*
X98512351Y-86534821D01*
X98559970Y-86582440D01*
X98607589Y-86677679D01*
X98607589Y-86868155D01*
X98559970Y-86963393D01*
X98512351Y-87011012D01*
X98417113Y-87058631D01*
X98226636Y-87058631D01*
X98131398Y-87011012D01*
X98083779Y-86963393D01*
X98036160Y-86868155D01*
X98036160Y-86677679D01*
X98083779Y-86582440D01*
X98131398Y-86534821D01*
X98226636Y-86487202D01*
X114416666Y-104157143D02*
X114464285Y-104204762D01*
X114607142Y-104252381D01*
X114702380Y-104252381D01*
X114845238Y-104204762D01*
X114940476Y-104109524D01*
X114988095Y-104014286D01*
X115035714Y-103823810D01*
X115035714Y-103680952D01*
X114988095Y-103490476D01*
X114940476Y-103395238D01*
X114845238Y-103300000D01*
X114702380Y-103252381D01*
X114607142Y-103252381D01*
X114464285Y-103300000D01*
X114416666Y-103347619D01*
X114083333Y-103252381D02*
X113416666Y-103252381D01*
X113845238Y-104252381D01*
X96534266Y-97410543D02*
X96581885Y-97458162D01*
X96724742Y-97505781D01*
X96819980Y-97505781D01*
X96962838Y-97458162D01*
X97058076Y-97362924D01*
X97105695Y-97267686D01*
X97153314Y-97077210D01*
X97153314Y-96934352D01*
X97105695Y-96743876D01*
X97058076Y-96648638D01*
X96962838Y-96553400D01*
X96819980Y-96505781D01*
X96724742Y-96505781D01*
X96581885Y-96553400D01*
X96534266Y-96601019D01*
X95677123Y-96505781D02*
X95867600Y-96505781D01*
X95962838Y-96553400D01*
X96010457Y-96601019D01*
X96105695Y-96743876D01*
X96153314Y-96934352D01*
X96153314Y-97315305D01*
X96105695Y-97410543D01*
X96058076Y-97458162D01*
X95962838Y-97505781D01*
X95772361Y-97505781D01*
X95677123Y-97458162D01*
X95629504Y-97410543D01*
X95581885Y-97315305D01*
X95581885Y-97077210D01*
X95629504Y-96981971D01*
X95677123Y-96934352D01*
X95772361Y-96886733D01*
X95962838Y-96886733D01*
X96058076Y-96934352D01*
X96105695Y-96981971D01*
X96153314Y-97077210D01*
X97679018Y-91511459D02*
X97726637Y-91463840D01*
X97774256Y-91320983D01*
X97774256Y-91225745D01*
X97726637Y-91082887D01*
X97631399Y-90987649D01*
X97536161Y-90940030D01*
X97345685Y-90892411D01*
X97202827Y-90892411D01*
X97012351Y-90940030D01*
X96917113Y-90987649D01*
X96821875Y-91082887D01*
X96774256Y-91225745D01*
X96774256Y-91320983D01*
X96821875Y-91463840D01*
X96869494Y-91511459D01*
X96774256Y-92416221D02*
X96774256Y-91940030D01*
X97250446Y-91892411D01*
X97202827Y-91940030D01*
X97155208Y-92035268D01*
X97155208Y-92273364D01*
X97202827Y-92368602D01*
X97250446Y-92416221D01*
X97345685Y-92463840D01*
X97583780Y-92463840D01*
X97679018Y-92416221D01*
X97726637Y-92368602D01*
X97774256Y-92273364D01*
X97774256Y-92035268D01*
X97726637Y-91940030D01*
X97679018Y-91892411D01*
X117387666Y-93219543D02*
X117435285Y-93267162D01*
X117578142Y-93314781D01*
X117673380Y-93314781D01*
X117816238Y-93267162D01*
X117911476Y-93171924D01*
X117959095Y-93076686D01*
X118006714Y-92886210D01*
X118006714Y-92743352D01*
X117959095Y-92552876D01*
X117911476Y-92457638D01*
X117816238Y-92362400D01*
X117673380Y-92314781D01*
X117578142Y-92314781D01*
X117435285Y-92362400D01*
X117387666Y-92410019D01*
X116530523Y-92648114D02*
X116530523Y-93314781D01*
X116768619Y-92267162D02*
X117006714Y-92981448D01*
X116387666Y-92981448D01*
X108459543Y-84364534D02*
X108507162Y-84316915D01*
X108554781Y-84174058D01*
X108554781Y-84078820D01*
X108507162Y-83935962D01*
X108411924Y-83840724D01*
X108316686Y-83793105D01*
X108126210Y-83745486D01*
X107983352Y-83745486D01*
X107792876Y-83793105D01*
X107697638Y-83840724D01*
X107602400Y-83935962D01*
X107554781Y-84078820D01*
X107554781Y-84174058D01*
X107602400Y-84316915D01*
X107650019Y-84364534D01*
X107554781Y-84697867D02*
X107554781Y-85316915D01*
X107935733Y-84983581D01*
X107935733Y-85126439D01*
X107983352Y-85221677D01*
X108030971Y-85269296D01*
X108126210Y-85316915D01*
X108364305Y-85316915D01*
X108459543Y-85269296D01*
X108507162Y-85221677D01*
X108554781Y-85126439D01*
X108554781Y-84840724D01*
X108507162Y-84745486D01*
X108459543Y-84697867D01*
X124635466Y-84823543D02*
X124683085Y-84871162D01*
X124825942Y-84918781D01*
X124921180Y-84918781D01*
X125064038Y-84871162D01*
X125159276Y-84775924D01*
X125206895Y-84680686D01*
X125254514Y-84490210D01*
X125254514Y-84347352D01*
X125206895Y-84156876D01*
X125159276Y-84061638D01*
X125064038Y-83966400D01*
X124921180Y-83918781D01*
X124825942Y-83918781D01*
X124683085Y-83966400D01*
X124635466Y-84014019D01*
X124254514Y-84014019D02*
X124206895Y-83966400D01*
X124111657Y-83918781D01*
X123873561Y-83918781D01*
X123778323Y-83966400D01*
X123730704Y-84014019D01*
X123683085Y-84109257D01*
X123683085Y-84204495D01*
X123730704Y-84347352D01*
X124302133Y-84918781D01*
X123683085Y-84918781D01*
X122531866Y-90099143D02*
X122579485Y-90146762D01*
X122722342Y-90194381D01*
X122817580Y-90194381D01*
X122960438Y-90146762D01*
X123055676Y-90051524D01*
X123103295Y-89956286D01*
X123150914Y-89765810D01*
X123150914Y-89622952D01*
X123103295Y-89432476D01*
X123055676Y-89337238D01*
X122960438Y-89242000D01*
X122817580Y-89194381D01*
X122722342Y-89194381D01*
X122579485Y-89242000D01*
X122531866Y-89289619D01*
X121579485Y-90194381D02*
X122150914Y-90194381D01*
X121865200Y-90194381D02*
X121865200Y-89194381D01*
X121960438Y-89337238D01*
X122055676Y-89432476D01*
X122150914Y-89480095D01*
X127486981Y-72183667D02*
X128201267Y-72183667D01*
X128344124Y-72136047D01*
X128439362Y-72040809D01*
X128486981Y-71897952D01*
X128486981Y-71802714D01*
X128486981Y-73183667D02*
X128486981Y-72612238D01*
X128486981Y-72897952D02*
X127486981Y-72897952D01*
X127629838Y-72802714D01*
X127725076Y-72707476D01*
X127772695Y-72612238D01*
X97248619Y-110165762D02*
X97201000Y-110070524D01*
X97105762Y-109975286D01*
X96962905Y-109832429D01*
X96915286Y-109737190D01*
X96915286Y-109641952D01*
X97153381Y-109689571D02*
X97105762Y-109594333D01*
X97010524Y-109499095D01*
X96820048Y-109451476D01*
X96486714Y-109451476D01*
X96296238Y-109499095D01*
X96201000Y-109594333D01*
X96153381Y-109689571D01*
X96153381Y-109880048D01*
X96201000Y-109975286D01*
X96296238Y-110070524D01*
X96486714Y-110118143D01*
X96820048Y-110118143D01*
X97010524Y-110070524D01*
X97105762Y-109975286D01*
X97153381Y-109880048D01*
X97153381Y-109689571D01*
X97153381Y-111070524D02*
X97153381Y-110499095D01*
X97153381Y-110784809D02*
X96153381Y-110784809D01*
X96296238Y-110689571D01*
X96391476Y-110594333D01*
X96439095Y-110499095D01*
M02*
